<?xml version="1.0" encoding="UTF-8"?>
<svg version="1.1" viewBox="0 0 64 64" xmlns="http://www.w3.org/2000/svg">
<g stroke-linejoin="round">
<path d="m29 7c-1.2667 0-2.7008 0.64217-3.5293 1.4707-0.82854 0.82854-1.4707 2.2626-1.4707 3.5293v1.8047l-0.52148-1.043a4.0004 4.0004 0 0 0-0.88867-1.1719l-0.54883-0.5a4.0004 4.0004 0 0 0-2.9414-1.0312l-0.79883 0.04883a4.0004 4.0004 0 0 0-2.8242 1.4316l-0.5 0.59961a4.0004 4.0004 0 0 0-0.60352 0.98633c-0.57089 1.3321-0.37248 3.0714 0.14844 4.1133l3 6a4.0004 4.0004 0 0 0 0.10547 0.19531c0.58113 1.017 1.6488 1.8795 2.668 2.2617a4.0004 4.0004 0 0 0 1.3789 0.20312c-0.71125 0.73983-1.4881 1.4257-1.998 2.3242-1.6228 2.836-2.0845 6.2662-1.2383 9.416l3.3906 13.066a4.0004 4.0004 0 0 0 0.0059 0.01758c0.83602 3.1583 2.9377 5.918 5.7676 7.5332 2.7631 1.6546 6.1819 2.1302 9.2715 1.2422 3.1659-0.85341 5.911-3.0259 7.4688-5.9102 1.575-2.7983 2.0245-6.1576 1.2344-9.2715a4.0004 4.0004 0 0 0-0.0098-0.03906l-3.4492-13.049a4.0004 4.0004 0 0 0 0-2e-3c-0.63076-2.3828-2.0996-4.3823-3.8984-6.0292a4.0004 4.0004 0 0 0 0.82227-0.28711l0.54883-0.5a4.0004 4.0004 0 0 0 0.88867-1.1719l3-6a4.0004 4.0004 0 0 0 0.41211-1.5215l0.05078-0.75a4.0004 4.0004 0 0 0-0.91797-2.8281l-0.5-0.59961a4.0004 4.0004 0 0 0-2.8066-1.4297l-0.75-0.05078a4.0004 4.0004 0 0 0-1.6719 0.24609c-1.0192 0.38218-2.0868 1.2447-2.668 2.2617a4.0004 4.0004 0 0 0-0.10547 0.19531l-0.52148 1.043v-1.8047a4.0004 4.0004 0 0 0-0.32422-1.5762l-0.29883-0.69922a4.0004 4.0004 0 0 0-2.1016-2.1016l-0.69922-0.29883a4.0004 4.0004 0 0 0-1.5762-0.32422zm-6.6953 22.668c-0.0063 0.0106-0.0055 0.02453-0.01172 0.03516-0.0069 0.01204-0.02053 0.01918-0.02734 0.03125zm7.7109 3.3516c0.38264-0.10668 0.54123-0.02654 0.81641 0.09766 0.30936 0.22471 0.49663 0.37896 0.65234 0.96289l3.4492 13.043-0.0098-0.03125c0.13603 0.53174 0.12588 0.63898-0.1582 1.1426a4.0004 4.0004 0 0 0-0.08789 0.11914c-0.24668 0.45812-0.20338 0.41283-0.64062 0.52734a4.0004 4.0004 0 0 0-0.16208 0.060543c-0.35345 0.10006-0.22386 0.12492-0.54688-0.07813a4.0004 4.0004 0 0 0-0.26562-0.15038c-0.46256-0.26097-0.46249-0.2637-0.58789-0.75391a4.0004 4.0004 0 0 0-2e-3 -0.01367l-3.4004-13.1a4.0004 4.0004 0 0 0-0.01367-0.04883c-0.15038-0.55138-0.14096-0.59361 0.13672-1.0645a4.0004 4.0004 0 0 0 0.03906-0.06641c0.27166-0.48158 0.35613-0.52797 0.78125-0.64648zm-0.94336 22.617c0.0047 0.0029 0.01095 0.0029 0.01563 0.0059 0.0036 0.0021 0.0062 0.0058 0.0098 0.0078z" color="#000000" style="-inkscape-stroke:none;paint-order:stroke markers fill"/>
<path d="m34.45 27.05c1.9333 1.2 3.2 2.9333 3.8 5.2l3.45 13.05c0.56667 2.2333 0.28333 4.35-0.85 6.35-1.1 2.0667-2.7833 3.4-5.05 4-2.1667 0.63333-4.2333 0.35-6.2-0.85-2-1.1333-3.3-2.8333-3.9-5.1l-3.4-13.1c-0.6-2.2333-0.31667-4.3667 0.85-6.4 1.1333-2 2.8-3.3167 5-3.95 2.2-0.6 4.3-0.33333 6.3 0.8zm-9.25 8.8 3.4 13.1c0.36667 1.4333 1.2 2.5167 2.5 3.25l0.1 0.05c1.1667 0.73333 2.4167 0.91667 3.75 0.55l0.1-0.05c1.4-0.36667 2.45-1.2 3.15-2.5l0.05-0.05c0.73333-1.3 0.91667-2.6667 0.55-4.1l-3.45-13.05c-0.4-1.5-1.2167-2.65-2.45-3.45-1.2667-0.66667-2.5833-0.81667-3.9583-0.43333-1.375 0.38333-2.4583 1.2333-3.1917 2.5333-0.76667 1.3-0.95 2.6833-0.55 4.15zm13.5-21.8 0.75 0.05 0.5 0.6-0.05 0.75-3 6-0.55 0.5-0.8-0.05-0.5-0.55c-0.1-0.26667-0.08333-0.53333 0.05-0.8l3-6c0.13333-0.23333 0.33333-0.4 0.6-0.5zm-20.6 1.4c-0.13333-0.26667-0.15-0.51667-0.05-0.75l0.5-0.6 0.8-0.05 0.55 0.5 3 6 0.05 0.8-0.5 0.55-0.75 0.05c-0.26667-0.1-0.46667-0.26667-0.6-0.5l-3-6m9.9-3.45c0-0.26667 0.1-0.5 0.3-0.7s0.43333-0.3 0.7-0.3l0.7 0.3 0.3 0.7v8l-0.3 0.7-0.7 0.3c-0.26667 0-0.5-0.1-0.7-0.3s-0.3-0.43333-0.3-0.7v-8" color="#000000" fill="#fff" stroke-width="8" style="-inkscape-stroke:none;paint-order:stroke markers fill"/>
</g>
</svg>
