<?xml version="1.0" encoding="UTF-8"?>
<svg version="1.1" viewBox="0 0 64 64" xmlns="http://www.w3.org/2000/svg">
<g stroke-linejoin="round">
<path d="m29 7c-1.2667 0-2.7008 0.64217-3.5293 1.4707-0.82854 0.82854-1.4707 2.2626-1.4707 3.5293v1.8047l-0.52148-1.043a4.0004 4.0004 0 0 0-0.88867-1.1719l-0.54883-0.5a4.0004 4.0004 0 0 0-2.9414-1.0312l-0.79883 0.04883a4.0004 4.0004 0 0 0-2.8242 1.4316l-0.5 0.59961a4.0004 4.0004 0 0 0-0.60352 0.98633c-0.57089 1.3321-0.37248 3.0714 0.14844 4.1133l3 6a4.0004 4.0004 0 0 0 0.10547 0.19531c0.58113 1.017 1.6488 1.8795 2.668 2.2617a4.0004 4.0004 0 0 0 1.3789 0.20312c-0.71125 0.73983-1.4881 1.4257-1.998 2.3242-1.6228 2.836-2.0845 6.2662-1.2383 9.416l3.3906 13.066a4.0004 4.0004 0 0 0 0.0059 0.01758c0.83602 3.1583 2.9377 5.918 5.7676 7.5332 2.7631 1.6546 6.1819 2.1302 9.2715 1.2422 3.1659-0.85341 5.911-3.0259 7.4688-5.9102 1.575-2.7983 2.0245-6.1576 1.2344-9.2715a4.0004 4.0004 0 0 0-0.0098-0.03906l-3.4492-13.049a4.0004 4.0004 0 0 0 0-2e-3c-0.63076-2.3828-2.0996-4.3823-3.8984-6.0292a4.0004 4.0004 0 0 0 0.82227-0.28711l0.54883-0.5a4.0004 4.0004 0 0 0 0.88867-1.1719l3-6a4.0004 4.0004 0 0 0 0.41211-1.5215l0.05078-0.75a4.0004 4.0004 0 0 0-0.91797-2.8281l-0.5-0.59961a4.0004 4.0004 0 0 0-2.8066-1.4297l-0.75-0.05078a4.0004 4.0004 0 0 0-1.6719 0.24609c-1.0192 0.38218-2.0868 1.2447-2.668 2.2617a4.0004 4.0004 0 0 0-0.10547 0.19531l-0.52148 1.043v-1.8047a4.0004 4.0004 0 0 0-0.32422-1.5762l-0.29883-0.69922a4.0004 4.0004 0 0 0-2.1016-2.1016l-0.69922-0.29883a4.0004 4.0004 0 0 0-1.5762-0.32422zm1.877 22.936c0.48324 0.06154 0.96468 0.25686 1.5195 0.5625 1.0829 0.68835 1.6216 1.3976 1.9863 2.7754l3.4395 13.014c0.33894 1.3387 0.22362 2.1964-0.45312 3.3906a4.0004 4.0004 0 0 0-0.05078 0.09375c-0.64002 1.2025-1.2179 1.6615-2.541 2.0117a4.0004 4.0004 0 0 0-0.09961 0.02734c-1.2008 0.35101-1.8521 0.27105-2.9941-0.42578a4.0004 4.0004 0 0 0-0.11133-0.06445c-1.1527-0.65318-1.6432-1.2809-2.0039-2.6406-4.53e-4 -0.0017-0.0015-0.0022-2e-3 -0.0039l-3.3945-13.08a4.0004 4.0004 0 0 0-0.0098-0.0332c-0.35253-1.3122-0.24772-2.1428 0.45703-3.3711a4.0004 4.0004 0 0 0 0.01172-0.01953c0.66926-1.181 1.3209-1.6911 2.5977-2.0645 0.62985-0.16941 1.1467-0.23577 1.6484-0.17188z" color="#000000" style="-inkscape-stroke:none;paint-order:stroke markers fill"/>
<path d="m34.45 27.05c1.9333 1.2 3.2 2.9333 3.8 5.2l3.45 13.05c0.56667 2.2333 0.28333 4.35-0.85 6.35-1.1 2.0667-2.7833 3.4-5.05 4-2.1667 0.63333-4.2333 0.35-6.2-0.85-2-1.1333-3.3-2.8333-3.9-5.1l-3.4-13.1c-0.6-2.2333-0.31667-4.3667 0.85-6.4 1.1333-2 2.8-3.3167 5-3.95 2.2-0.6 4.3-0.33333 6.3 0.8zm4.25-13 0.75 0.05 0.5 0.6-0.05 0.75-3 6-0.55 0.5-0.8-0.05-0.5-0.55c-0.1-0.26667-0.08333-0.53333 0.05-0.8l3-6c0.13333-0.23333 0.33333-0.4 0.6-0.5zm-20.6 1.4c-0.13333-0.26667-0.15-0.51667-0.05-0.75l0.5-0.6 0.8-0.05 0.55 0.5 3 6 0.05 0.8-0.5 0.55-0.75 0.05c-0.26667-0.1-0.46667-0.26667-0.6-0.5l-3-6m9.9-3.45c0-0.26667 0.1-0.5 0.3-0.7s0.43333-0.3 0.7-0.3l0.7 0.3 0.3 0.7v8l-0.3 0.7-0.7 0.3c-0.26667 0-0.5-0.1-0.7-0.3s-0.3-0.43333-0.3-0.7v-8" color="#000000" fill="#fff" stroke-width="8" style="-inkscape-stroke:none;paint-order:stroke markers fill"/>
</g>
</svg>
