<?xml version="1.0" encoding="UTF-8"?>
<svg version="1.1" viewBox="0 0 64 64" xmlns="http://www.w3.org/2000/svg">
<path d="m32 4c-7.5713 0-14.451 2.8325-19.818 8.1621l-0.0196 0.0196c-5.3295 5.3676-8.162 12.247-8.162 19.818 0 7.5953 2.831 14.471 8.1719 19.779 0.0017 0.0017 0.0042 0.0022 0.0059 0.0039s0.0022 0.0042 0.0039 0.0059c5.3638 5.3589 12.245 8.2109 19.818 8.2109 7.5967 0 14.473-2.8532 19.777-8.2227 5.3694-5.3039 8.2227-12.181 8.2227-19.777 0-7.5734-2.852-14.454-8.2109-19.818l-0.0059-0.0039c-5.3084-5.3441-12.186-8.1777-19.783-8.1777zm0 11c4.8962 0 8.6165 1.5457 12.01 4.9668l0.0118 0.0118c3.433 3.433 4.9784 7.1639 4.9784 12.021 0 4.8962-1.5457 8.6165-4.9668 12.01l-0.02344 0.02344c-3.3933 3.4211-7.1136 4.9668-12.01 4.9668-4.8575 0-8.5884-1.5454-12.021-4.9785l-0.0118-0.0118c-3.421-3.3932-4.9667-7.1135-4.9667-12.01 0-4.8575 1.5454-8.5884 4.9785-12.021 3.4331-3.4331 7.164-4.9785 12.021-4.9785zm0 1c-4.2358 0-8.2652 1.6675-11.264 4.6582-3.0411 3.0013-4.7363 7.0646-4.7363 11.342s1.6953 8.3405 4.7363 11.342c2.9985 2.9907 7.0279 4.6582 11.264 4.6582 4.2667 0 8.3214-1.6651 11.328-4.6719s4.6719-7.0615 4.6719-11.328-1.6651-8.3214-4.6719-11.328-7.0615-4.6719-11.328-4.6719zm0 12c1.298 0 1.9764 0.28307 2.8711 1.1777 0.84672 0.84672 1.1289 1.5044 1.1289 2.8223 0 1.2998-0.29169 1.9968-1.1328 2.8672-0.87038 0.84112-1.5674 1.1328-2.8672 1.1328-1.2707 0-1.9145-0.27194-2.7715-1.1289l-0.05078-0.04883c-0.9047-0.90469-1.1777-1.5718-1.1777-2.8223 0-1.1521 0.28713-1.8174 1.0312-2.6211l0.22656-0.23047c0.86444-0.88323 1.4917-1.1484 2.7422-1.1484zm17.689 21.666-0.02344 0.02344c4e-3 -4e-3 0.0057-0.0097 0.0098-0.01367 4e-3 -4e-3 0.0097-0.0057 0.01367-0.0098z" color="#000000" style="-inkscape-stroke:none;paint-order:stroke markers fill"/>
<path d="m32 11q-8.7 0-14.85 6.15t-6.15 14.85q0 8.75 6.15 14.85 6.15 6.15 14.85 6.15 8.75 0 14.85-6.15 6.15-6.1 6.15-14.85 0-8.7-6.15-14.85-6.1-6.15-14.85-6.15m24 21q0 10-7.05 16.95-6.95 7.05-16.95 7.05-9.95 0-17-7.05-7-6.95-7-16.95 0-9.95 7-17 7.05-7 17-7 10 0 16.95 7 7.05 7.05 7.05 17m-18.3-5.65q-2.35-2.35-5.7-2.35-3.3 0-5.6 2.35h-0.05q-2.35 2.35-2.35 5.65t2.35 5.65l0.05 0.05q2.3 2.3 5.6 2.3 3.35 0 5.7-2.3 2.3-2.35 2.3-5.7t-2.3-5.65m6.3 5.65q0 5-3.5 8.5t-8.5 3.5q-4.95 0-8.45-3.5-3.55-3.5-3.55-8.5t3.55-8.5q3.5-3.5 8.45-3.5 5 0 8.5 3.5t3.5 8.5" color="#000000" fill="#fff" stroke-width="8" style="-inkscape-stroke:none;paint-order:stroke markers fill"/>
</svg>
