<?xml version="1.0" encoding="UTF-8"?>
<svg version="1.1" viewBox="0 0 64 64" xmlns="http://www.w3.org/2000/svg">
<g stroke-linejoin="round">
<path d="m19 8c-2.8759 0-5.7458 1.1872-7.7793 3.2207s-3.2207 4.9034-3.2207 7.7793 1.1872 5.7458 3.2207 7.7793 4.9034 3.2207 7.7793 3.2207h8.6406c-0.02229 0.01475-0.04442 0.02972-0.06641 0.04492l-0.34961 0.25c-0.22635 0.16206-0.43516 0.34731-0.62305 0.55273-0.56353 0.61476-0.95822 1.4223-1.2363 2.2715-0.35021-0.06006-0.70686-0.0732-1.0605-0.03906-1.2494 0.15617-2.5584 0.99992-3.2852 1.9316-0.85433 1.1068-1.1171 2.7262-0.92188 3.8652 0.19245 1.094 0.86617 2.1605 1.6602 2.875-0.32703 0.366-0.58391 0.78906-0.75781 1.248v3.0508c0 1.3 0.48925 2.7757 1.3535 3.832 0.08424 0.10269 0.17354 0.20112 0.26758 0.29492l0.09961 0.10156c0.06307 0.0627 0.12821 0.12328 0.19531 0.18164 0.02323 0.02033 0.06034 0.02871 0.08398 0.04883v1.4902c2.21e-4 2.209 1.791 3.9998 4 4h10c1.9792-0.0784 3.6031-1.5934 3.8184-3.5625 0.18593-0.02351 0.36998-0.06006 0.55078-0.10938l0.59961-0.40039c0.80999-0.53981 1.3954-1.3564 1.6465-2.2969l0.19922-0.75c0.28326-1.0609 0.118-2.1915-0.45703-3.127l-0.40039-0.65039c-0.20276-0.28381-0.44176-0.53989-0.71093-0.76172 0.32503-0.36457 0.58054-0.78557 0.75391-1.2422v-3.0996c-2.21e-4 -2.209-1.791-3.9998-4-4v-1.0508c0-1.45-0.63652-3.0488-1.6016-4.1016-0.12109-0.13227-0.25094-0.25625-0.38867-0.37109l-0.29883-0.25c-0.103-0.080714-0.2099-0.15633-0.32031-0.22656h8.6094c2.8759 0 5.7458-1.1872 7.7793-3.2207s3.2207-4.9034 3.2207-7.7793-1.1872-5.7458-3.2207-7.7793-4.9034-3.2207-7.7793-3.2207zm-5.5684 5.3125c-0.02024 0.0194-0.02879 0.05063-0.04883 0.07031-0.01968 0.02004-0.05091 0.02858-0.07031 0.04883z" color="#000000" style="-inkscape-stroke:none;paint-order:stroke markers fill"/>
<path d="m19 12h26c1.9333 0 3.5833 0.68333 4.95 2.05s2.05 3.0167 2.05 4.95-0.68333 3.5833-2.05 4.95-3.0167 2.05-4.95 2.05h-26c-1.9333 0-3.5833-0.68333-4.95-2.05s-2.05-3.0167-2.05-4.95 0.68333-3.5833 2.05-4.95 3.0167-2.05 4.95-2.05m28.85 9.85c0.76667-0.8 1.15-1.75 1.15-2.85s-0.38333-2.0333-1.15-2.8c-0.8-0.8-1.75-1.2-2.85-1.2h-26c-1.1 0-2.0333 0.4-2.8 1.2-0.8 0.76667-1.2 1.7-1.2 2.8s0.4 2.05 1.2 2.85c0.76667 0.76667 1.7 1.15 2.8 1.15h26c1.1 0 2.05-0.38333 2.85-1.15m-10.85 30.15h-10v-2h4v-2h-4.05l-0.55-0.05c-0.3-0.1-0.58333-0.26667-0.85-0.5l-0.1-0.1c-0.3-0.36667-0.45-0.8-0.45-1.3v-3.05l2 1.4v0.65l0.25 0.65 0.75 0.3h1.25l3.75 2.7v1.3h1.85l1.8 1.3 0.05 0.05 0.3 0.2zm-8-17.05c0-0.53333 0.18333-1 0.55-1.4l0.35-0.25c0.3-0.2 0.65-0.3 1.05-0.3h2.1c0.4 0 0.76667 0.1 1.1 0.3l0.3 0.25c0.36667 0.4 0.55 0.86667 0.55 1.4v5.3l-6-4.25zm8 5.05h2v3.1l-2-1.4zm-12.6-1.15c-0.23333-0.16667-0.36667-0.38333-0.4-0.65-0.06667-0.3-0.01667-0.55 0.15-0.75 0.16667-0.23333 0.38333-0.36667 0.65-0.4l0.75 0.15 14 10 0.4 0.65-0.2 0.75-0.6 0.4-0.75-0.15-14-10" color="#000000" fill="#fff" stroke-width="8" style="-inkscape-stroke:none;paint-order:stroke markers fill"/>
</g>
</svg>
