<?xml version="1.0" encoding="UTF-8"?>
<svg version="1.1" viewBox="0 0 64 64" xmlns="http://www.w3.org/2000/svg">
<path d="m32 4c-7.5713 0-14.451 2.8325-19.818 8.1621l-0.0196 0.0196c-5.3295 5.3676-8.162 12.247-8.162 19.818 0 7.5953 2.831 14.471 8.1719 19.779 0.0017 0.0017 0.0042 0.0022 0.0059 0.0039s0.0022 0.0042 0.0039 0.0059c5.3638 5.3589 12.245 8.2109 19.818 8.2109 7.5967 0 14.473-2.8532 19.777-8.2227 5.3694-5.3039 8.2227-12.181 8.2227-19.777 0-7.5734-2.852-14.454-8.2109-19.818l-0.0059-0.0039c-5.3084-5.3441-12.186-8.1777-19.783-8.1777zm1.1914 8.1016c5.1394 0.25035 9.2523 2.0228 12.92 5.7168l0.0098 0.0098c4.0346 4.0346 5.8789 8.4832 5.8789 14.172 0 3.3508-0.71523 6.2196-2.043 8.8438zm-2.3828 2e-3 -2.2637 3.8809-14.51 24.873c-1.321-2.6276-2.0352-5.5003-2.0352-8.8575 0-5.6905 1.8315-10.142 5.8281-14.172 3.7331-3.7025 7.8737-5.4732 12.98-5.7246zm1.2031 21.789 0.0625 0.10742h-0.125zm-14.287 12.107h28.504c-0.03287 0.03276-0.05277 0.06886-0.08594 0.10156l-0.02148 0.01953-0.01953 0.02148c-3.96 4.017-8.3749 5.8574-14.102 5.8574-5.6886 0-10.137-1.8442-14.172-5.8789l-0.0098-0.0098c-0.036086-0.035829-0.057948-0.075355-0.093716-0.11129z" color="#000000" style="-inkscape-stroke:none;paint-order:stroke markers fill"/>
<path d="m56 32c0 6.6667-2.35 12.317-7.05 16.95-4.6333 4.7-10.283 7.05-16.95 7.05-6.6333 0-12.3-2.35-17-7.05-4.6667-4.6333-7-10.283-7-16.95 0-6.6333 2.3333-12.3 7-17 4.7-4.6667 10.367-7 17-7 6.6667 0 12.317 2.3333 16.95 7 4.7 4.7 7.05 10.367 7.05 17m-16.95 6h-14.05l7-12.05zm-7.05-20-14 24h28z" color="#000000" fill="#fff" stroke-width="8" style="-inkscape-stroke:none;paint-order:stroke markers fill"/>
</svg>
