<?xml version="1.0" encoding="UTF-8"?>
<svg version="1.1" viewBox="0 0 64 64" xmlns="http://www.w3.org/2000/svg">
<path d="m31.998 3.998-1.832 0.056641-0.0625 0.00195c-6.8273 0.42191-13.01 3.2293-17.922 8.1035l-0.0098 0.01172-0.0098 0.0098c-5.3295 5.3676-8.162 12.247-8.162 19.818 0 7.5953 2.831 14.471 8.1719 19.779 0.0017 0.0017 0.0042 0.0022 0.0059 0.0039s0.0022 0.0042 0.0039 0.0059c5.3638 5.3589 12.245 8.2109 19.818 8.2109 7.5967 0 14.473-2.8532 19.777-8.2227 5.3694-5.3039 8.2227-12.181 8.2227-19.777 0-7.5729-2.8527-14.453-8.2109-19.816-4.8511-4.8893-11.014-7.705-17.842-8.127l-0.06445-0.00391zm3.0332 11.26c3.4553 0.5406 6.3274 2.0361 8.9785 4.709l0.0118 0.0118c3.433 3.433 4.9784 7.1639 4.9784 12.021 0 2.0737-0.34423 3.9028-0.92383 5.6191zm-6.0645 2e-3 -13.043 22.359c-0.5796-1.7164-0.92383-3.5455-0.92383-5.6192 0-4.8575 1.5454-8.5884 4.9785-12.021 2.6775-2.6775 5.5554-4.1753 8.9883-4.7188zm3.0449 18.633 0.0625 0.10742h-0.125zm-9.6855 12.107h19.361c-2.7865 2.0284-5.8765 3-9.6875 3-3.7785 0-6.8685-0.96866-9.6738-3zm27.363 3.666-0.02344 0.02344c4e-3 -4e-3 0.0057-0.0097 0.0098-0.01367 4e-3 -4e-3 0.0097-0.0057 0.01367-0.0098z" color="#000000" style="-inkscape-stroke:none;paint-order:stroke markers fill"/>
<path d="m17.15 17.15c-4.1 4.1-6.15 9.05-6.15 14.85 0 5.8333 2.05 10.783 6.15 14.85 4.1 4.1 9.05 6.15 14.85 6.15 5.8333 0 10.783-2.05 14.85-6.15 4.1-4.0667 6.15-9.0167 6.15-14.85 0-5.8-2.05-10.75-6.15-14.85-4.0667-4.1-9.0167-6.15-14.85-6.15-5.8 0-10.75 2.05-14.85 6.15m38.85 14.85c0 6.6667-2.35 12.317-7.05 16.95-4.6333 4.7-10.283 7.05-16.95 7.05-6.6333 0-12.3-2.35-17-7.05-4.6667-4.6333-7-10.283-7-16.95 0-6.6333 2.3333-12.3 7-17 4.3-4.2667 9.4167-6.5833 15.35-6.95l1.65-0.05 1.7 0.05c5.9333 0.36667 11.017 2.6833 15.25 6.95 4.7 4.7 7.05 10.367 7.05 17m-38 10 14-24 14 24zm7-4h14.05l-7.05-12.05z" color="#000000" fill="#fff" stroke-width="8" style="-inkscape-stroke:none;paint-order:stroke markers fill"/>
</svg>
