<?xml version="1.0" encoding="UTF-8"?>
<svg version="1.1" viewBox="0 0 64 64" xmlns="http://www.w3.org/2000/svg">
<path d="m32 4c-7.5713 0-14.451 2.8325-19.818 8.1621l-0.0196 0.0196c-5.3295 5.3676-8.162 12.247-8.162 19.818 0 7.5953 2.831 14.471 8.1719 19.779 0.0017 0.0017 0.0042 0.0022 0.0059 0.0039s0.0022 0.0042 0.0039 0.0059c5.3638 5.3589 12.245 8.2109 19.818 8.2109 7.5967 0 14.473-2.8532 19.777-8.2227 5.3694-5.3039 8.2227-12.181 8.2227-19.777 0-7.5734-2.852-14.454-8.2109-19.818l-0.0059-0.0039c-5.3084-5.3441-12.186-8.1777-19.783-8.1777zm0 11c2.6648 0 4.9632 0.50568 7.0684 1.4746l-7.0684 7.0684-7.0605-7.0605c2.1137-0.97509 4.411-1.4824 7.0605-1.4824zm-15.518 9.9395 7.0605 7.0605-7.0684 7.0684c-0.96893-2.1051-1.4746-4.4035-1.4746-7.0684 0-2.6495 0.50733-4.9469 1.4824-7.0605zm31.035 0c0.97509 2.1137 1.4824 4.411 1.4824 7.0605 0 2.6648-0.50568 4.9632-1.4746 7.0684l-7.0684-7.0684zm-15.518 15.518 7.0684 7.0684c-2.1051 0.96893-4.4035 1.4746-7.0684 1.4746-2.6495 0-4.9469-0.50733-7.0605-1.4824zm17.689 9.209-0.02344 0.02344c4e-3 -4e-3 0.0057-0.0097 0.0098-0.01367 4e-3 -4e-3 0.0097-0.0057 0.01367-0.0098z" color="#000000" style="-inkscape-stroke:none;paint-order:stroke markers fill"/>
<path d="m11 32c0 5.8333 2.05 10.783 6.15 14.85 4.1 4.1 9.05 6.15 14.85 6.15 5.8333 0 10.783-2.05 14.85-6.15 4.1-4.0667 6.15-9.0167 6.15-14.85 0-5.8-2.05-10.75-6.15-14.85-4.0667-4.1-9.0167-6.15-14.85-6.15-5.8 0-10.75 2.05-14.85 6.15s-6.15 9.05-6.15 14.85m21-2.8 9.2-9.2 2.8 2.8-9.2 9.2 9.2 9.2-2.8 2.8-9.2-9.2-9.2 9.2-2.8-2.8 9.2-9.2-9.2-9.2 2.8-2.8zm24 2.8c0 6.6667-2.35 12.317-7.05 16.95-4.6333 4.7-10.283 7.05-16.95 7.05-6.6333 0-12.3-2.35-17-7.05-4.6667-4.6333-7-10.283-7-16.95 0-6.6333 2.3333-12.3 7-17 4.7-4.6667 10.367-7 17-7 6.6667 0 12.317 2.3333 16.95 7 4.7 4.7 7.05 10.367 7.05 17" color="#000000" fill="#fff" stroke-width="8" style="-inkscape-stroke:none;paint-order:stroke markers fill"/>
</svg>
