<?xml version="1.0" encoding="UTF-8"?>
<svg version="1.1" viewBox="0 0 64 64" xmlns="http://www.w3.org/2000/svg">
<g stroke-linejoin="round">
<path d="m28 6a4.0004 4.0004 0 0 0-4 4v2a4.0004 4.0004 0 0 0 0.41406 1 4.0004 4.0004 0 0 0-0.41406 1v2a4.0004 4.0004 0 0 0 0.41406 1 4.0004 4.0004 0 0 0-0.41406 1v2a4.0004 4.0004 0 0 0 3.3555 3.7324c-2.6829 1.702-4.6556 4.4073-5.4727 7.4941a4.0004 4.0004 0 0 0 0 2e-3l-3.4492 13.049a4.0004 4.0004 0 0 0-0.0098 0.03906c-0.79009 3.1139-0.34058 6.4732 1.2344 9.2715 1.5578 2.8843 4.3029 5.0567 7.4688 5.9102 3.0895 0.88806 6.5084 0.41237 9.2715-1.2422 2.8299-1.6153 4.9316-4.3749 5.7676-7.5332a4.0004 4.0004 0 0 0 0.0059-0.01758l3.3906-13.066c0.84623-3.1499 0.3845-6.58-1.2383-9.416-1.0167-1.7912-2.5672-3.1438-4.2969-4.2344a4.0004 4.0004 0 0 0 3.9727-3.9883v-2a4.0004 4.0004 0 0 0-0.41406-1 4.0004 4.0004 0 0 0 0.41406-1v-2a4.0004 4.0004 0 0 0-0.41406-1 4.0004 4.0004 0 0 0 0.41406-1v-2a4.0004 4.0004 0 0 0-4-4zm13.695 23.668 0.03906 0.06641c-0.0068-0.01199-0.02052-0.01929-0.02734-0.03125-0.0062-0.01063-0.0055-0.02455-0.01172-0.03516zm-7.7188 3.3496c0.43653 0.12592 0.51363 0.16017 0.78906 0.64844a4.0004 4.0004 0 0 0 0.03906 0.06641c0.27768 0.47085 0.2871 0.51307 0.13672 1.0645a4.0004 4.0004 0 0 0-0.01367 0.04883l-3.4004 13.1a4.0004 4.0004 0 0 0-2e-3 0.01367c-0.13243 0.51767-0.14975 0.52849-0.57617 0.77539a4.0004 4.0004 0 0 0-0.18555 0.10156c-0.38443 0.23493-0.2722 0.21196-0.65234 0.10742a4.0004 4.0004 0 0 0-0.11909-0.068363c-0.48518-0.12412-0.43581-0.0867-0.66992-0.52148a4.0004 4.0004 0 0 0-0.08789-0.11914c-0.28408-0.50359-0.29423-0.61084-0.1582-1.1426l-0.0098 0.03125 3.4492-13.043c0.15556-0.58333 0.32863-0.73366 0.68555-0.97656 0.26257-0.1305 0.40644-0.18309 0.77539-0.08594z" color="#000000" style="-inkscape-stroke:none;paint-order:stroke markers fill"/>
<path d="m40.85 30.2c1.1667 2.0333 1.45 4.1667 0.85 6.4l-3.4 13.1c-0.6 2.2667-1.9 3.9667-3.9 5.1-1.9667 1.2-4.0333 1.4833-6.2 0.85-2.2667-0.6-3.95-1.9333-5.05-4-1.1333-2-1.4167-4.1167-0.85-6.35l3.45-13.05c0.6-2.2667 1.8667-4 3.8-5.2 2-1.1333 4.1-1.4 6.3-0.8 2.2 0.63333 3.8667 1.95 5 3.95zm-0.85-20.2v2h-12v-2zm0 4v2h-12v-2zm0 4v2h-12v-2zm-8.85 11.6c-1.2667 0.8-2.1 1.95-2.5 3.45l-3.45 13.05c-0.36667 1.4333-0.18333 2.8 0.55 4.1l0.05 0.05c0.7 1.3 1.7667 2.1333 3.2 2.5l0.05 0.05c1.3333 0.36667 2.6 0.18333 3.8-0.55l0.1-0.05c1.2667-0.73333 2.0833-1.8167 2.45-3.25l3.4-13.1c0.4-1.4667 0.21667-2.85-0.55-4.15-0.73333-1.3-1.8-2.15-3.2-2.55-1.3667-0.36667-2.6667-0.21667-3.9 0.45z" color="#000000" fill="#fff" stroke-width="8" style="-inkscape-stroke:none;paint-order:stroke markers fill"/>
</g>
</svg>
