<?xml version="1.0" encoding="UTF-8"?>
<svg version="1.1" viewBox="0 0 64 64" xmlns="http://www.w3.org/2000/svg">
<g stroke-linejoin="round">
<path d="m28 6a4.0004 4.0004 0 0 0-4 4v2a4.0004 4.0004 0 0 0 0.41406 1 4.0004 4.0004 0 0 0-0.41406 1v2a4.0004 4.0004 0 0 0 0.41406 1 4.0004 4.0004 0 0 0-0.41406 1v2a4.0004 4.0004 0 0 0 3.3555 3.7324c-2.6829 1.702-4.6556 4.4073-5.4727 7.4941a4.0004 4.0004 0 0 0 0 2e-3l-3.4492 13.049a4.0004 4.0004 0 0 0-0.0098 0.03906c-0.79009 3.1139-0.34058 6.4732 1.2344 9.2715 1.5578 2.8843 4.3029 5.0567 7.4688 5.9102 3.0895 0.88806 6.5084 0.41237 9.2715-1.2422 2.8299-1.6153 4.9316-4.3749 5.7676-7.5332a4.0004 4.0004 0 0 0 0.0059-0.01758l3.3906-13.066c0.84623-3.1499 0.3845-6.58-1.2383-9.416-1.0167-1.7912-2.5672-3.1438-4.2969-4.2344a4.0004 4.0004 0 0 0 3.9727-3.9883v-2a4.0004 4.0004 0 0 0-0.41406-1 4.0004 4.0004 0 0 0 0.41406-1v-2a4.0004 4.0004 0 0 0-0.41406-1 4.0004 4.0004 0 0 0 0.41406-1v-2a4.0004 4.0004 0 0 0-4-4zm5.123 23.936c0.50171-0.06389 1.0186 0.0025 1.6484 0.17188 1.2768 0.37333 1.9284 0.88341 2.5977 2.0645a4.0004 4.0004 0 0 0 0.01172 0.01953c0.70475 1.2283 0.80956 2.0589 0.45703 3.3711a4.0004 4.0004 0 0 0-0.0098 0.0332l-3.3965 13.084c-0.36074 1.3597-0.85123 1.9874-2.0039 2.6406a4.0004 4.0004 0 0 0-0.11133 0.06445c-1.142 0.69684-1.7933 0.77679-2.9941 0.42578a4.0004 4.0004 0 0 0-0.09961-0.02734c-1.3231-0.35024-1.901-0.80925-2.541-2.0117a4.0004 4.0004 0 0 0-0.05078-0.09375c-0.67675-1.1943-0.79206-2.0519-0.45312-3.3906 3.76e-4 -0.0015-3.76e-4 -0.0024 0-0.0039l3.4395-13.01v-2e-3c0.36468-1.3764 0.90397-2.0854 1.9863-2.7734 0.55485-0.30564 1.0363-0.50096 1.5195-0.5625z" color="#000000" style="-inkscape-stroke:none;paint-order:stroke markers fill"/>
<path d="m40.85 30.2c1.1667 2.0333 1.45 4.1667 0.85 6.4l-3.4 13.1c-0.6 2.2667-1.9 3.9667-3.9 5.1-1.9667 1.2-4.0333 1.4833-6.2 0.85-2.2667-0.6-3.95-1.9333-5.05-4-1.1333-2-1.4167-4.1167-0.85-6.35l3.45-13.05c0.6-2.2667 1.8667-4 3.8-5.2 2-1.1333 4.1-1.4 6.3-0.8 2.2 0.63333 3.8667 1.95 5 3.95zm-0.85-20.2v2h-12v-2zm0 4v2h-12v-2zm0 4v2h-12v-2z" color="#000000" fill="#fff" stroke-width="8" style="-inkscape-stroke:none;paint-order:stroke markers fill"/>
</g>
</svg>
