<?xml version="1.0" encoding="UTF-8"?>
<svg version="1.1" viewBox="0 0 64 64" xmlns="http://www.w3.org/2000/svg">
<path d="m31.988 12.025c-5.7705-1e-6 -11.545 0.3869-17.318 1.1602-2.9555 0.3765-4.6894 0.4016-6.9531 1.8848-1.3586 0.79542-2.5611 2.0761-3.1699 3.5645-0.61095 1.4934-0.71201 3.2496-0.32812 4.7852l0.013672 0.05078 6.334 22.824 0.02344 0.07422c0.52578 1.643 1.6709 3.1165 3.0449 4.084 1.4043 1.0095 3.1763 1.5469 4.8652 1.5469h27c1.7023 0 3.4711-0.53223 4.8848-1.5156l0.0332-0.02539 0.03516-0.02344c1.3716-0.99751 2.4823-2.5393 2.9492-4.207v-0.0039l6.3164-22.754 0.01172-0.05078c0.3712-1.4848 0.31537-3.1625-0.2207-4.6367l-0.02734-0.07422-0.0293-0.07422c-0.61485-1.503-1.8317-2.8008-3.207-3.5938-2.2254-1.4049-3.9965-1.4773-6.9629-1.8555-5.758-0.77346-11.524-1.1602-17.295-1.1602zm0 8c5.4128-1e-6 10.82 0.3633 16.229 1.0898h0.01367l0.01172 2e-3c2.3786 0.30424 3.811 0.87249 3.6387 0.67774l-6.1465 22.143c-0.050229 0.033975-0.063186 0.0625-0.23438 0.0625h-27c-0.23103 0-0.14006 0.0064-0.19727-0.03516l-0.0332-0.02539-0.03516-0.02344c-0.12248-0.0852-0.04293-5e-3 -0.02148 0.01367l-6.1133-22.027c0.49233-0.11509 1.8266-0.55738 3.6074-0.78516l0.01172-2e-3h0.01172c5.4264-0.72675 10.845-1.0898 16.258-1.0898z" color="#000000" style="-inkscape-stroke:none;paint-order:stroke markers fill"/>
<path d="m45.5 48h-27q-1.45 0-2.55-0.8-1.15-0.8-1.55-2.05l-6.3-22.7q-0.3-1.2 0.15-2.3t1.55-1.7q1.1-0.75 5.4-1.3 16.8-2.25 33.55 0 4.3 0.55 5.45 1.3 1.1 0.6 1.55 1.7 0.4 1.1 0.1 2.3l-6.3 22.7q-0.35 1.25-1.45 2.05-1.15 0.8-2.6 0.8" color="#000000" fill="#fff" stroke-width="8" style="-inkscape-stroke:none;paint-order:stroke markers fill"/>
</svg>
