<?xml version="1.0" encoding="UTF-8"?>
<svg version="1.1" viewBox="0 0 64 64" xmlns="http://www.w3.org/2000/svg">
<path d="m31.988 12c-5.7744-1e-6 -11.553 0.39657-17.33 1.1875-2.947 0.37466-4.6812 0.402-6.9414 1.8828-1.3586 0.79542-2.5611 2.0761-3.1699 3.5645-0.61095 1.4934-0.71201 3.2496-0.32812 4.7852l0.013672 0.05078 6.334 22.824 0.02344 0.07422c0.5194 1.6231 1.6483 3.0731 3 4.041 1.3961 1.0496 3.1935 1.6406 4.9102 1.6406h27c1.744 0 3.5554-0.58942 4.9668-1.6289 1.3645-0.99782 2.4703-2.5319 2.9355-4.1934v-0.0039l6.3164-22.754 0.01172-0.05078c0.3712-1.4848 0.31537-3.1625-0.28841-4.7253s-1.8207-2.8606-3.196-3.6536c-2.2219-1.4027-3.9933-1.477-6.9512-1.8535-5.7616-0.79115-11.532-1.1875-17.307-1.1875zm0 11.049c5.6592 0.1169 11.272 0.46503 16.094 1.1016h0.02344l-4.6777 16.85h-22.893l-4.6816-16.824c5.5707-0.68677 11.323-1.1146 16.135-1.127z" color="#000000" style="-inkscape-stroke:none;paint-order:stroke markers fill"/>
<path d="m52.8 21.1-0.25-0.1q-0.9-0.45-4.15-0.85h-0.05q-16.35-2.2-32.75 0l-4.1 0.8-0.25 0.15-0.2 0.2-0.05 0.45v-0.1l6.3 22.65v0.05l0.45 0.45 0.75 0.2h27l0.9-0.25 0.25-0.4 6.3-22.7v0.1-0.5l-0.15-0.15m-7.3 26.95h-27q-1.45 0-2.55-0.85-1.15-0.8-1.55-2.05l-6.3-22.7q-0.3-1.2 0.15-2.3t1.55-1.7q1.1-0.75 5.4-1.3 16.8-2.3 33.55 0 4.3 0.55 5.45 1.3 1.1 0.6 1.55 1.7 0.4 1.1 0.1 2.3l-6.3 22.7q-0.35 1.25-1.45 2.05-1.15 0.85-2.6 0.85" color="#000000" fill="#fff" stroke-width="8" style="-inkscape-stroke:none;paint-order:stroke markers fill"/>
</svg>
