<?xml version="1.0" encoding="UTF-8"?>
<svg version="1.1" viewBox="0 0 64 64" xmlns="http://www.w3.org/2000/svg">
<path d="m32 4c-7.5713 0-14.451 2.8325-19.818 8.1621l-0.0196 0.0196c-5.3295 5.3676-8.162 12.247-8.162 19.818 0 7.5953 2.831 14.471 8.1719 19.779 0.0017 0.0017 0.0042 0.0022 0.0059 0.0039s0.0022 0.0042 0.0039 0.0059c5.3638 5.3589 12.245 8.2109 19.818 8.2109 7.5967 0 14.473-2.8532 19.777-8.2227 5.3694-5.3039 8.2227-12.181 8.2227-19.777 0-7.5734-2.852-14.454-8.2109-19.818l-0.0059-0.0039c-5.3084-5.3441-12.186-8.1777-19.783-8.1777zm0 8c4.727 0 8.5386 1.3289 11.957 4h-23.938c3.4638-2.6742 7.2911-4 11.98-4zm-16 8.0195v23.938c-2.6711-3.4185-4-7.2301-4-11.957 0-4.6893 1.3258-8.5167 4-11.98zm32 0.04297c2.6763 3.4551 4 7.2683 4 11.938 0 4.7077-1.3256 8.5072-4 11.918zm-20 7.9375h8v8h-8zm-7.9375 20h23.855c-3.4107 2.6744-7.2103 4-11.918 4-4.6692 0-8.4824-1.3237-11.938-4z" color="#000000" style="-inkscape-stroke:none;paint-order:stroke fill markers"/>
<path d="m56 32c0 6.6667-2.35 12.317-7.05 16.95-4.6333 4.7-10.283 7.05-16.95 7.05-6.6333 0-12.3-2.35-17-7.05-4.6667-4.6333-7-10.283-7-16.95 0-6.6333 2.3333-12.3 7-17 4.7-4.6667 10.367-7 17-7 6.6667 0 12.317 2.3333 16.95 7 4.7 4.7 7.05 10.367 7.05 17m-32-8h16v16h-16zm-4 20h24v-24h-24z" color="#000000" fill="#fff" stroke-width="8" style="-inkscape-stroke:none;paint-order:stroke fill markers"/>
</svg>
