<?xml version="1.0" encoding="UTF-8"?>
<svg version="1.1" viewBox="0 0 64 64" xmlns="http://www.w3.org/2000/svg">
<g stroke-linecap="round">
<path d="m20 6c-1.6178 0-3.2367 0.26229-4.748 1.082-2.8062 1.5094-4.252 4.8742-4.252 7.918v22.559l2e-3 0.06055c0.16027 5.4093 2.3024 10.392 6.1191 14.209 3.8433 3.8433 8.8409 6.0094 14.26 6.1699l0.0605 0.00195h1.1172l0.06055-2e-3c5.4121-0.16036 10.397-2.3257 14.209-6.1699 3.8442-3.8116 6.0096-8.7969 6.1699-14.209l0.00195-0.0605v-22.559c0-3.0282-1.3874-6.3791-4.1797-7.9082l-0.070312-0.039062c-1.5044-0.7849-3.1262-1.0527-4.75-1.0527h-14z" color="#000000" style="-inkscape-stroke:none;paint-order:stroke markers fill"/>
<path d="m44 10c1.1667 0 2.1333 0.2 2.9 0.6 1.4 0.76667 2.1 2.2333 2.1 4.4v10h-11v-6c0-1.6667-0.58333-3.0833-1.75-4.25-0.66667-0.66667-1.4167-1.1333-2.25-1.4v-3.35zm-14.1 6.9c0.56667-0.6 1.2667-0.9 2.1-0.9s1.55 0.3 2.15 0.9c0.56667 0.56667 0.85 1.2667 0.85 2.1v8l-0.15 1-0.7 1.15c-0.6 0.56667-1.3167 0.85-2.15 0.85s-1.5333-0.28333-2.1-0.85c-0.33333-0.33333-0.56667-0.71667-0.7-1.15l-0.2-1v-8c0-0.83333 0.3-1.5333 0.9-2.1m-3.8 11.1c0.16667 1.2333 0.71667 2.3167 1.65 3.25 1.1667 1.1667 2.5833 1.75 4.25 1.75s3.0833-0.58333 4.25-1.75c0.93333-0.93333 1.5-2.0167 1.7-3.25h11.05v9.5c-0.13333 4.5-1.8 8.3333-5 11.5-3.1667 3.2-7 4.8667-11.5 5h-1c-4.5-0.13333-8.35-1.8-11.55-5-3.1667-3.1667-4.8167-7-4.95-11.5v-9.5z" color="#000000" fill="#fff" stroke-width="8" style="-inkscape-stroke:none;paint-order:stroke markers fill"/>
<path d="m20 10h10v3.35q-1.25 0.4-2.25 1.4-1.75 1.75-1.75 4.25v6h-11v-10q0-3.25 2.15-4.4 1.1-0.6 2.85-0.6" color="#000000" fill="#e73246" stroke-linejoin="round" stroke-width="8" style="-inkscape-stroke:none;paint-order:stroke markers fill"/>
</g>
</svg>
