<?xml version="1.0" encoding="UTF-8"?>
<svg version="1.1" viewBox="0 0 64 64" xmlns="http://www.w3.org/2000/svg">
<g stroke-linecap="round" stroke-linejoin="round">
<path d="m32 2c-1.0608 1.603e-4 -2.0781 0.42169-2.8281 1.1719l-6 6c-0.75014 0.75005-1.1717 1.7673-1.1719 2.8281v2c0.0074 0.09868 0.01849 0.19706 0.0332 0.29492-0.59022 0.1666-1.1798 0.41126-1.748 0.76953-2.3571 1.4601-3.2852 4.3055-3.2852 6.6855v13.949c5.6e-5 0.22053 0.01835 0.44068 0.05469 0.6582l0.02148 0.13867c0.24981 3.489 1.809 6.7817 4.3438 9.2305 0.0071 0.0065 0.0143 0.01305 0.02148 0.01953 0.55155 0.52529 1.1387 1.0036 1.7539 1.4375-0.75588 0.74333-1.1858 1.7563-1.1953 2.8164v2c2.04e-4 1.0608 0.42173 2.0781 1.1719 2.8281l6 6c1.562 1.5617 4.0942 1.5617 5.6562 0l6-6c0.75014-0.75005 1.1717-1.7673 1.1719-2.8281v-2c-0.0095-1.0572-0.43715-2.0677-1.1895-2.8105 0.6163-0.4376 1.2037-0.92033 1.7539-1.4512 2.6387-2.512 4.2492-5.9285 4.4297-9.5391 0.003607-0.066347 0.005561-0.13277 0.005859-0.19922v-14.25c0-2.368-0.8524-5.1956-3.2188-6.6855-0.06652-0.0417-0.13426-0.08143-0.20312-0.11914-0.44973-0.2475-1.0092-0.46897-1.6133-0.63672 0.015709-0.10237 0.027436-0.20531 0.035156-0.30859v-2c-2.04e-4 -1.0608-0.42173-2.0781-1.1719-2.8281l-6-6c-0.75002-0.75018-1.7673-1.1717-2.8281-1.1719z" color="#000000" style="-inkscape-stroke:none;paint-order:stroke markers fill"/>
<path d="m41.65 18.45c0.9 0.56667 1.35 1.6667 1.35 3.3v5.25h-6v-1c0-1.4-0.48333-2.5833-1.45-3.55-0.73333-0.73333-1.5833-1.1833-2.55-1.35v-3.1h6.8c0.77172-0.01124 1.3113 0.15355 1.85 0.45zm1.35 17.2v0.35c-0.13333 2.6667-1.2 4.95-3.2 6.85-2.0667 2-4.55 3.05-7.45 3.15h-0.65c-2.9-0.1-5.4-1.15-7.5-3.15-1.9667-1.9-3.0167-4.1833-3.15-6.85l-0.05-0.3v-6.7h6.1v2c0.16667 0.96667 0.61667 1.8167 1.35 2.55 0.96667 0.96667 2.15 1.45 3.55 1.45 1.3667 0 2.5333-0.48333 3.5-1.45l0.05-0.05c0.73333-0.73333 1.1833-1.5667 1.35-2.5v-2h6.1v6.65m-11-12.65c0.83333 0 1.5333 0.28333 2.1 0.85 0.6 0.6 0.9 1.3167 0.9 2.15v4.1c0 0.76667-0.3 1.4333-0.9 2-0.53333 0.56667-1.1833 0.86667-1.95 0.9h-0.3c-0.76667-0.03333-1.4333-0.33333-2-0.9s-0.85-1.2333-0.85-2v-4.1c0-0.83333 0.28333-1.55 0.85-2.15 0.6-0.56667 1.3167-0.85 2.15-0.85m-11-1.25c0-1.6333 0.46667-2.7333 1.4-3.3 0.46667-0.3 1.0833-0.45 1.85-0.45h6.75v3.1c-0.93333 0.16667-1.7667 0.6-2.5 1.3l-0.1 0.1c-0.93333 0.96667-1.4 2.1333-1.4 3.5v1h-6v-5.25" color="#000000" fill="#fff" stroke-width="8" style="-inkscape-stroke:none;paint-order:stroke markers fill"/>
<path d="m32 6 6 6v2h-12v-2l6-6" color="#000000" fill="#fff" stroke-width="8" style="-inkscape-stroke:none;paint-order:stroke markers fill"/>
<path d="m32 58-6-6v-2h12v2l-6 6" color="#000000" fill="#fff" stroke-width="8" style="-inkscape-stroke:none;paint-order:stroke markers fill"/>
</g>
</svg>
