<?xml version="1.0" encoding="UTF-8"?>
<svg version="1.1" viewBox="0 0 64 64" xmlns="http://www.w3.org/2000/svg">
<g stroke-linecap="round" stroke-linejoin="round">
<path d="m32 2a4 4 0 0 0-2.8281 1.1719l-6 6a4.0004 4.0004 0 0 0-1.1719 2.8281v2a4.0004 4.0004 0 0 0 0.033203 0.29492c-0.59022 0.1666-1.1798 0.41126-1.748 0.76953-2.3571 1.4601-3.2852 4.3055-3.2852 6.6855v0.25h-2a4.0004 4.0004 0 0 0-2.8281 1.1719l-6 6a4 4 0 0 0-1.1719 2.8281 4 4 0 0 0 1.1719 2.8281l6 6a4.0004 4.0004 0 0 0 2.8281 1.1719h2a4.0004 4.0004 0 0 0 1.4844-0.30859c0.73086 1.491 1.7199 2.8608 2.9355 4.0352 0.0071 0.0065 0.014304 0.013052 0.021484 0.019532 0.55155 0.52529 1.1387 1.0036 1.7539 1.4375a4.0004 4.0004 0 0 0-1.1953 2.8164v2a4.0004 4.0004 0 0 0 1.1719 2.8281l6 6a4 4 0 0 0 5.6562 0l6-6a4.0004 4.0004 0 0 0 1.1719-2.8281v-2a4.0004 4.0004 0 0 0-1.1895-2.8105c0.6163-0.4376 1.2037-0.92033 1.7539-1.4512 1.2313-1.1722 2.2358-2.5432 2.9785-4.0371a4.0004 4.0004 0 0 0 1.457 0.29883h2a4.0004 4.0004 0 0 0 2.8281-1.1719l6-6a4 4 0 0 0 0.86719-1.2969 4 4 0 0 0 0.30469-1.5312 4 4 0 0 0-1.1719-2.8281l-6-6a4.0004 4.0004 0 0 0-2.8281-1.1719h-2v-0.25c0-2.298-0.83088-5.0063-3.041-6.5273-0.69226-0.5071-1.3658-0.79578-1.9883-0.96875a4.0004 4.0004 0 0 0 0.029297-0.25391v-2a4.0004 4.0004 0 0 0-1.1719-2.8281l-6-6a4 4 0 0 0-2.8281-1.1719z" color="#000000" style="-inkscape-stroke:none;paint-order:stroke markers fill"/>
<path d="m41.65 18.45c0.9 0.56667 1.35 1.6667 1.35 3.3v5.25h-6v-1c0-1.4-0.48333-2.5833-1.45-3.55-0.73333-0.73333-1.5833-1.1833-2.55-1.35v-3.1h6.8c0.70926 0.0045 1.3738 0.07928 1.85 0.45zm-9.65 4.55c0.83333 0 1.5333 0.28333 2.1 0.85 0.6 0.6 0.9 1.3167 0.9 2.15v4.1c0 0.76667-0.3 1.4333-0.9 2-0.53333 0.56667-1.1833 0.86667-1.95 0.9h-0.3c-0.76667-0.03333-1.4333-0.33333-2-0.9s-0.85-1.2333-0.85-2v-4.1c0-0.83333 0.28333-1.55 0.85-2.15 0.6-0.56667 1.3167-0.85 2.15-0.85m11 12.65v0.35c-0.13333 2.6667-1.2 4.95-3.2 6.85-2.0667 2-4.55 3.05-7.45 3.15h-0.65c-2.9-0.1-5.4-1.15-7.5-3.15-1.9667-1.9-3.0167-4.1833-3.15-6.85l-0.05-0.3v-6.7h6.1v2c0.16667 0.96667 0.61667 1.8167 1.35 2.55 0.96667 0.96667 2.15 1.45 3.55 1.45 1.3667 0 2.5333-0.48333 3.5-1.45l0.05-0.05c0.73333-0.73333 1.1833-1.5667 1.35-2.5v-2h6.1v6.65m-22-13.9c0-1.6333 0.46667-2.7333 1.4-3.3 0.46667-0.3 1.0833-0.45 1.85-0.45h6.75v3.1c-0.93333 0.16667-1.7667 0.6-2.5 1.3l-0.1 0.1c-0.93333 0.96667-1.4 2.1333-1.4 3.5v1h-6v-5.25" color="#000000" fill="#fff" stroke-width="8" style="-inkscape-stroke:none;paint-order:stroke markers fill"/>
<path d="m32 6 6 6v2h-12v-2l6-6" color="#000000" fill="#fff" stroke-width="8" style="-inkscape-stroke:none;paint-order:stroke markers fill"/>
<path d="m32 58-6-6v-2h12v2l-6 6" color="#000000" fill="#fff" stroke-width="8" style="-inkscape-stroke:none;paint-order:stroke markers fill"/>
<path d="m9 32 6-6h2v12h-2l-6-6" color="#000000" fill="#fff" stroke-width="8" style="-inkscape-stroke:none;paint-order:stroke markers fill"/>
<path d="m55 32-6 6h-2v-12h2l6 6" color="#000000" fill="#fff" stroke-width="8" style="-inkscape-stroke:none;paint-order:stroke markers fill"/>
</g>
</svg>
