<?xml version="1.0" encoding="UTF-8"?>
<svg version="1.1" viewBox="0 0 64 64" xmlns="http://www.w3.org/2000/svg">
<g stroke-linecap="round" stroke-linejoin="round">
<path d="m21.5 6c-0.02222 0.00892-0.04436 0.018031-0.06641 0.027344-0.02206-0.00866-0.0442-0.017124-0.06641-0.025391-3.1877 0.10626-6.2786 1.113-8.4101 3.3867-2.1316 2.2737-2.957 5.3828-2.957 8.6113v20c0 5.3495 2.0758 10.334 5.8711 14.129s8.7794 5.8711 14.129 5.8711h4c5.3495 0 10.334-2.0758 14.129-5.8711s5.8711-8.7794 5.8711-14.129v-20c0-3.2285-0.82545-6.3376-2.957-8.6113-2.1316-2.2737-5.2224-3.2805-8.4102-3.3867-0.04426-0.00139-0.08853-0.00204-0.13281-0.00195z" color="#000000" style="-inkscape-stroke:none;paint-order:stroke markers fill"/>
<path d="m21.5 10h21q7.5 0.25 7.5 8v20q0 6.6-4.7 11.3t-11.3 4.7h-4q-6.6 0-11.3-4.7t-4.7-11.3v-20q0-7.75 7.5-8m-4.5 8v10h9v-6q0-2.5 1.75-4.25 1-1 2.25-1.4v-3.35h-8q-5 0-5 5m30 20v-7h-9.05q-0.3 1.85-1.7 3.25-1.75 1.75-4.25 1.75t-4.25-1.75q-1.4-1.4-1.65-3.25h-9.1v7q0 5.35 3.85 9.2 3.8 3.8 9.15 3.8h4q5.35 0 9.2-3.8 3.8-3.85 3.8-9.2m-17.1-18.1q-0.9 0.85-0.9 2.1v8q0 1.25 0.9 2.15 0.85 0.85 2.1 0.85t2.15-0.85q0.85-0.9 0.85-2.15v-8q0-1.25-0.85-2.1-0.9-0.9-2.15-0.9t-2.1 0.9m12.1-6.9h-8v3.35q1.25 0.4 2.25 1.4 1.75 1.75 1.75 4.25v6h9v-10q0-5-5-5" color="#000000" fill="#fff" stroke-width="8" style="-inkscape-stroke:none;paint-order:stroke markers fill"/>
</g>
</svg>
