<?xml version="1.0" encoding="UTF-8"?>
<svg version="1.1" viewBox="0 0 64 64" xmlns="http://www.w3.org/2000/svg">
<g stroke-linecap="round" stroke-linejoin="round">
<path d="m21.5 6c-0.02222 0.00892-0.04436 0.018031-0.06641 0.027344-0.02206-0.00866-0.0442-0.017124-0.06641-0.025391-3.1877 0.10626-6.2786 1.113-8.4101 3.3867-2.1316 2.2737-2.957 5.3828-2.957 8.6113v20c0 5.3495 2.0758 10.334 5.8711 14.129 3.7953 3.7953 8.7794 5.8711 14.129 5.8711h4c5.3495 0 10.334-2.0758 14.129-5.8711 3.7953-3.7953 5.8711-8.7794 5.8711-14.129v-20c0-3.2285-0.82545-6.3376-2.957-8.6113-2.1316-2.2737-5.2224-3.2805-8.4102-3.3867-0.04426-0.00139-0.08853-0.00204-0.13281-0.00195z" color="#000000" style="-inkscape-stroke:none;paint-order:stroke markers fill"/>
<path d="m21.5 10h21c5 0.16667 7.5 2.8333 7.5 8v20c0 4.4-1.5667 8.1667-4.7 11.3s-6.9 4.7-11.3 4.7h-4c-4.4 0-8.1667-1.5667-11.3-4.7s-4.7-6.9-4.7-11.3v-20c0-5.1667 2.5-7.8333 7.5-8m20.5 3h-8v3.35c0.83333 0.26667 1.5833 0.73333 2.25 1.4 1.1667 1.1667 1.75 2.5833 1.75 4.25v6h9v-10c0-3.3333-1.6667-5-5-5m1.2 34.2c2.5333-2.5667 3.8-5.6333 3.8-9.2v-7h-9.05c-0.2 1.2333-0.76667 2.3167-1.7 3.25-1.1333 1.1333-2.5 1.7167-4.1 1.75h-0.3c-1.6-0.03333-2.9667-0.61667-4.1-1.75-0.93333-0.93333-1.4833-2.0167-1.65-3.25h-9.1v7c0 3.5667 1.2833 6.6333 3.85 9.2 2.3 2.3 5.05 3.5667 8.25 3.8h5.85c3.1667-0.23333 5.9167-1.5 8.25-3.8zm-26.2-29.2v10h9v-6c0-1.6667 0.58333-3.0833 1.75-4.25 0.66667-0.66667 1.4167-1.1333 2.25-1.4v-3.35h-8c-3.3333 0-5 1.6667-5 5m13.85 30.5-6.4-6.65c-0.3-0.33333-0.45-0.73333-0.45-1.2s0.15-0.85 0.45-1.15c0.3-0.33333 0.68333-0.5 1.15-0.5h12.8c0.43333 0 0.81667 0.16667 1.15 0.5 0.3 0.3 0.45 0.68333 0.45 1.15s-0.15 0.86667-0.45 1.2l-6.4 6.65c-0.33333 0.33333-0.71667 0.5-1.15 0.5-0.46667 0-0.85-0.16667-1.15-0.5" color="#000000" fill="#fff" stroke-width="8" style="-inkscape-stroke:none;paint-order:stroke markers fill"/>
</g>
</svg>
