<?xml version="1.0" encoding="UTF-8"?>
<svg version="1.1" viewBox="0 0 64 64" xmlns="http://www.w3.org/2000/svg">
<g stroke-linecap="round" stroke-linejoin="round">
<path d="m32 0c-1.181 0-2.5615 0.58393-3.3789 1.4922l0.06641-0.072266c-2.654 2.4693-4.2645 5.6123-7.6328 5.6328-2.9259 0.14223-5.6399 1.1164-7.4785 3.1465s-2.5762 4.7938-2.5762 7.8008v20c0 5.1121 1.9483 9.7921 5.5781 13.422s8.3098 5.5781 13.422 5.5781h4c5.1121 0 9.7921-1.9483 13.422-5.5781s5.5781-8.3098 5.5781-13.422v-20c0-3.0037-0.72929-5.7612-2.5566-7.793-1.8274-2.0318-4.5344-3.0117-7.4473-3.1543-3.434 0.07698-5.4839-3.3465-7.6836-5.6328-0.01354-0.013804-0.02721-0.027476-0.04102-0.041016-0.79295-0.79295-2.0689-1.3789-3.2715-1.3789z" color="#000000" style="-inkscape-stroke:none;paint-order:stroke markers fill"/>
<path d="m25.55 13c-0.43333 0-0.8-0.16667-1.1-0.5-0.3-0.3-0.45-0.68333-0.45-1.15s0.15-0.86667 0.45-1.2l6.4-6.65c0.3-0.33333 0.68333-0.5 1.15-0.5 0.43333 0 0.81667 0.16667 1.15 0.5l6.4 6.65c0.3 0.33333 0.45 0.73333 0.45 1.2s-0.15 0.85-0.45 1.15c-0.33333 0.33333-0.7 0.5-1.1 0.5h-12.9m17.2 0.05 0.25-1.7-0.15-1.3c4.7667 0.23333 7.15 2.8833 7.15 7.95v20c0 4.4-1.5667 8.1667-4.7 11.3s-6.9 4.7-11.3 4.7h-4c-4.4 0-8.1667-1.5667-11.3-4.7s-4.7-6.9-4.7-11.3v-20c0-5.0667 2.4-7.7167 7.2-7.95l-0.2 1.3c0 0.6 0.1 1.1667 0.3 1.7-2.8667 0.2-4.3 1.85-4.3 4.95v10h9v-6c0-1.6667 0.58333-3.0833 1.75-4.25 0.66667-0.66667 1.4167-1.1333 2.25-1.4 1.293-0.30904 2.6187-0.36754 4 0 0.83333 0.26667 1.5833 0.73333 2.25 1.4 1.1667 1.1667 1.75 2.5833 1.75 4.25v6h9v-10c0-3.0667-1.4167-4.7167-4.25-4.95m4.25 24.95v-7h-9.05c-0.2 1.2333-0.76667 2.3167-1.7 3.25-1.1667 1.1667-2.5833 1.75-4.25 1.75s-3.0833-0.58333-4.25-1.75c-0.93333-0.93333-1.4833-2.0167-1.65-3.25h-9.1v7c0 3.5667 1.2833 6.6333 3.85 9.2 2.5333 2.5333 5.5833 3.8 9.15 3.8h4c3.5667 0 6.6333-1.2667 9.2-3.8 2.5333-2.5667 3.8-5.6333 3.8-9.2" color="#000000" fill="#fff" stroke-width="6" style="-inkscape-stroke:none;paint-order:stroke markers fill"/>
</g>
</svg>
