<?xml version="1.0" encoding="UTF-8"?>
<svg version="1.1" viewBox="0 0 64 64" xmlns="http://www.w3.org/2000/svg">
<g stroke-linecap="round" stroke-linejoin="round">
<path d="m21.5 6c-0.04428-8.5e-5 -0.08855 5.651e-4 -0.13281 0.00195-2.3656 0.078859-4.6262 0.60855-6.5605 1.8535-1.0624 0.68375-1.9328 1.6108-2.6602 2.6445h-2.6465c-2.9899 3e-4 -5.4996 2.5102-5.5 5.5v14c2.988e-4 2.9899 2.5102 5.4996 5.5 5.5h0.5v2.5c0 5.349 2.0754 10.333 5.8711 14.129 3.7958 3.7961 8.7798 5.8711 14.129 5.8711h4c5.349 0 10.333-2.0754 14.129-5.8711 3.7961-3.7958 5.8711-8.7798 5.8711-14.129v-20c0-3.2285-0.82544-6.3376-2.957-8.6113-2.1316-2.2737-5.2224-3.2804-8.4102-3.3867-0.04426-0.00139-0.08853-0.00204-0.13281-0.00195z" color="#000000" style="-inkscape-stroke:none;paint-order:stroke markers fill"/>
<path d="m21.5 10c-3.7084 0.12362-6.0382 1.6259-6.9961 4.5h-5.0039c-0.82839 8.3e-5 -1.4999 0.67161-1.5 1.5v14c8.28e-5 0.82839 0.67161 1.4999 1.5 1.5h4.5v6.5c0 4.4 1.5659 8.1675 4.6992 11.301s6.9008 4.6992 11.301 4.6992h4c4.4 0 8.1675-1.5659 11.301-4.6992s4.6992-6.9008 4.6992-11.301v-20c0-5.1667-2.5-7.8333-7.5-8zm0.5 3h8v3.3496c-0.83333 0.26667-1.5833 0.73372-2.25 1.4004-1.1667 1.1667-1.75 2.5833-1.75 4.25v6h-9v-10c0-3.3333 1.6667-5 5-5zm12 0h8c3.3333 0 5 1.6667 5 5v10h-9v-6c0-1.6667-0.58333-3.0833-1.75-4.25-0.66667-0.66667-1.4167-1.1337-2.25-1.4004zm-23 4.5h3v11h-3zm21 1.5c0.83333 0 1.5504 0.30039 2.1504 0.90039 0.56667 0.56667 0.84961 1.2663 0.84961 2.0996v8c0 0.83333-0.28294 1.5504-0.84961 2.1504-0.6 0.56667-1.3171 0.84961-2.1504 0.84961s-1.5329-0.28294-2.0996-0.84961c-0.6-0.6-0.90039-1.3171-0.90039-2.1504v-8c0-0.83333 0.30039-1.5329 0.90039-2.0996 0.56667-0.6 1.2663-0.90039 2.0996-0.90039zm-15 12h9.0996c0.16667 1.2333 0.71706 2.3167 1.6504 3.25 1.1667 1.1667 2.5833 1.75 4.25 1.75s3.0833-0.58333 4.25-1.75c0.93333-0.93333 1.4992-2.0167 1.6992-3.25h9.0508v7c0 3.5667-1.2675 6.6326-3.8008 9.1992-2.5667 2.5333-5.6326 3.8008-9.1992 3.8008h-4c-3.5667 0-6.6171-1.2675-9.1504-3.8008-2.5667-2.5667-3.8496-5.6326-3.8496-9.1992z" color="#000000" fill="#fff" stroke-width="8" style="-inkscape-stroke:none;paint-order:stroke markers fill"/>
</g>
</svg>
