<?xml version="1.0" encoding="UTF-8"?>
<svg version="1.1" viewBox="0 0 64 64" xmlns="http://www.w3.org/2000/svg">
<g stroke-linecap="round" stroke-linejoin="round">
<path d="m21.5 6c-0.02222 0.00892-0.04435 0.018031-0.06641 0.027344-0.02206-0.00866-0.0442-0.017124-0.06641-0.025391-3.1877 0.10628-6.2786 1.113-8.4102 3.3867s-2.957 5.3828-2.957 8.6113v6h-0.5c-2.9899 3e-4 -5.4996 2.5102-5.5 5.5v14c2.988e-4 2.9899 2.5102 5.4996 5.5 5.5h3.8066c0.73927 1.1112 1.5947 2.1592 2.5645 3.1289 3.7953 3.7953 8.7794 5.8711 14.129 5.8711h4c5.3495 0 10.334-2.0758 14.129-5.8711 3.7953-3.7953 5.8711-8.7794 5.8711-14.129v-20c0-3.2285-0.82544-6.3376-2.957-8.6113s-5.2224-3.2805-8.4102-3.3867c-0.04426-0.00139-0.08853-0.00204-0.13281-0.00195h-21z" color="#000000" style="-inkscape-stroke:none;paint-order:stroke markers fill"/>
<path d="m9.5 28c-0.82839 8.3e-5 -1.4999 0.67161-1.5 1.5v14c8.28e-5 0.82839 0.67161 1.4999 1.5 1.5h6.5v-17zm1.5 3h3v11h-3z" color="#000000" fill="#fff" stroke-width="8" style="-inkscape-stroke:none;paint-order:stroke markers fill"/>
<path d="m21.5 10h21c5 0.16667 7.5 2.8333 7.5 8v20c0 4.4-1.5667 8.1667-4.7 11.3s-6.9 4.7-11.3 4.7h-4c-4.4 0-8.1667-1.5667-11.3-4.7s-4.7-6.9-4.7-11.3v-20c0-5.1667 2.5-7.8333 7.5-8m-4.5 8v10h9v-6c0-1.6667 0.58333-3.0833 1.75-4.25 0.66667-0.66667 1.4167-1.1333 2.25-1.4v-3.35h-8c-3.3333 0-5 1.6667-5 5m30 20v-7h-9.05c-0.2 1.2333-0.76667 2.3167-1.7 3.25-1.1667 1.1667-2.5833 1.75-4.25 1.75s-3.0833-0.58333-4.25-1.75c-0.93333-0.93333-1.4833-2.0167-1.65-3.25h-9.1v7c0 3.5667 1.2833 6.6333 3.85 9.2 2.5333 2.5333 5.5833 3.8 9.15 3.8h4c3.5667 0 6.6333-1.2667 9.2-3.8 2.5333-2.5667 3.8-5.6333 3.8-9.2m-17.1-18.1c-0.6 0.56667-0.9 1.2667-0.9 2.1v8c0 0.83333 0.3 1.55 0.9 2.15 0.56667 0.56667 1.2667 0.85 2.1 0.85s1.55-0.28333 2.15-0.85c0.56667-0.6 0.85-1.3167 0.85-2.15v-8c0-0.83333-0.28333-1.5333-0.85-2.1-0.6-0.6-1.3167-0.9-2.15-0.9s-1.5333 0.3-2.1 0.9m12.1-6.9h-8v3.35c0.83333 0.26667 1.5833 0.73333 2.25 1.4 1.1667 1.1667 1.75 2.5833 1.75 4.25v6h9v-10c0-3.3333-1.6667-5-5-5" color="#000000" fill="#fff" stroke-width="8" style="-inkscape-stroke:none;paint-order:stroke markers fill"/>
</g>
</svg>
