<?xml version="1.0" encoding="UTF-8"?>
<svg version="1.1" viewBox="0 0 64 64" xmlns="http://www.w3.org/2000/svg">
<g stroke-linecap="round" stroke-linejoin="round">
<path d="m32 4c-7.5713 0-14.451 2.8325-19.818 8.1621a4.0004 4.0004 0 0 0-0.01953 0.01953c-5.3296 5.3677-8.1621 12.247-8.1621 19.818 0 7.5953 2.831 14.471 8.1719 19.779 0.0017 0.0017 0.0042 0.0022 0.0059 0.0039s0.0022 0.0042 0.0039 0.0059c5.3638 5.3589 12.245 8.2109 19.818 8.2109 7.5967 0 14.473-2.8532 19.777-8.2227 5.3694-5.3039 8.2227-12.181 8.2227-19.777 0-7.5734-2.852-14.454-8.2109-19.818l-0.0059-0.0039c-5.3084-5.3441-12.186-8.1777-19.783-8.1777zm0 11c4.8962 0 8.6165 1.5457 12.01 4.9668a4.0004 4.0004 0 0 0 0.01172 0.01172c2.805 2.805 4.2923 5.8454 4.7637 9.5a4.0004 4.0004 0 0 0-0.95703-2.3066l-1-1a4.0004 4.0004 0 0 0-2.8281-1.1719h-3v-3a4.0004 4.0004 0 0 0-1.1719-2.8281l-1-1a4.0004 4.0004 0 0 0-2.8281-1.1719h-12.004c2.3693-1.3068 4.9499-2 8.0039-2zm-16 11.143v8.8574a4.0004 4.0004 0 0 0 1.1719 2.8281l1 1a4.0004 4.0004 0 0 0 2.8281 1.1719h3v3a4.0004 4.0004 0 0 0 1.1719 2.8281l1 1a4.0004 4.0004 0 0 0 2.8281 1.1719h8.8789c-1.7862 0.63967-3.7027 1-5.8789 1-4.8575 0-8.5884-1.5454-12.021-4.9785a4.0004 4.0004 0 0 0-0.01172-0.01172c-3.4211-3.3933-4.9668-7.1136-4.9668-12.01 0-2.1594 0.35914-4.0705 1-5.8574zm19 9.8574h3v1h-3zm14.689 13.666-0.02344 0.02344c4e-3 -4e-3 0.0057-0.0097 0.0098-0.01367 4e-3 -4e-3 0.0097-0.0057 0.01367-0.0098z" color="#000000" style="-inkscape-stroke:none;paint-order:stroke markers fill"/>
<path d="m17.15 17.15c-4.1 4.1-6.15 9.05-6.15 14.85 0 5.8333 2.05 10.783 6.15 14.85 4.1 4.1 9.05 6.15 14.85 6.15 5.8333 0 10.783-2.05 14.85-6.15 4.1-4.0667 6.15-9.0167 6.15-14.85 0-5.8-2.05-10.75-6.15-14.85-4.0667-4.1-9.0167-6.15-14.85-6.15-5.8 0-10.75 2.05-14.85 6.15m38.85 14.85c0 6.6667-2.35 12.317-7.05 16.95-4.6333 4.7-10.283 7.05-16.95 7.05-6.6333 0-12.3-2.35-17-7.05-4.6667-4.6333-7-10.283-7-16.95 0-6.6333 2.3333-12.3 7-17 4.7-4.6667 10.367-7 17-7 6.6667 0 12.317 2.3333 16.95 7 4.7 4.7 7.05 10.367 7.05 17m-36-10 1-1h15l1 1v5h-3v-3.05h-11v9.05h3v3h-5l-1-1zm8 8 1-1h15l1 1v13l-1 1h-15l-1-1zm3 2v9h11v-9z" color="#000000" fill="#fff" stroke-width="8" style="-inkscape-stroke:none;paint-order:stroke markers fill"/>
</g>
</svg>
