<?xml version="1.0" encoding="UTF-8"?>
<svg version="1.1" viewBox="0 0 64 64" xmlns="http://www.w3.org/2000/svg">
<g stroke-linecap="round" stroke-linejoin="round">
<path d="m32 4c-7.5713 0-14.451 2.8325-19.818 8.1621a4.0004 4.0004 0 0 0-0.01953 0.01953c-5.3296 5.3677-8.1621 12.247-8.1621 19.818 0 7.5953 2.831 14.471 8.1719 19.779 0.0017 0.0017 0.0042 0.0022 0.0059 0.0039s0.0022 0.0042 0.0039 0.0059c5.3638 5.3589 12.245 8.2109 19.818 8.2109 7.5967 0 14.473-2.8532 19.777-8.2227 5.3694-5.3039 8.2227-12.181 8.2227-19.777 0-7.5734-2.852-14.454-8.2109-19.818l-0.0059-0.0039c-5.3084-5.3441-12.186-8.1777-19.783-8.1777zm0 11c4.8962 0 8.6165 1.5457 12.01 4.9668a4 4 0 0 0 0.0078 0.0039 4 4 0 0 0 0.0039 0.0078c3.4332 3.4332 4.9785 7.164 4.9785 12.022 0 4.8962-1.5457 8.6165-4.9668 12.01a4.0004 4.0004 0 0 0-0.02344 0.02344c-3.3933 3.4211-7.1136 4.9668-12.01 4.9668-4.8575 0-8.5884-1.5454-12.021-4.9785a4.0004 4.0004 0 0 0-0.01172-0.01172c-3.4211-3.3933-4.9668-7.1136-4.9668-12.01 0-4.8575 1.5454-8.5884 4.9785-12.021 3.4331-3.4331 7.164-4.9785 12.021-4.9785zm-7 3a4.0004 4.0004 0 0 0-4 4v20a4.0004 4.0004 0 0 0 4 4h10c2.5857 0 5.2027-1.0952 7.0293-2.9219l0.04883-0.04883c1.8266-1.8266 2.9219-4.4436 2.9219-7.0293 0-1.377-0.3675-2.7255-0.92188-4 0.55437-1.2745 0.92188-2.623 0.92188-4 0-2.5857-1.0952-5.2027-2.9219-7.0293l-0.04883-0.04883c-1.8266-1.8266-4.4436-2.9219-7.0293-2.9219zm24.689 31.666-0.02344 0.02344c4e-3 -4e-3 0.0057-0.0097 0.0098-0.01367 4e-3 -4e-3 0.0097-0.0057 0.01367-0.0098z" color="#000000" style="-inkscape-stroke:none;paint-order:stroke markers fill"/>
<path d="m46.85 17.15q-6.1-6.15-14.85-6.15-8.7 0-14.85 6.15t-6.15 14.85q0 8.75 6.15 14.85 6.15 6.15 14.85 6.15 8.75 0 14.85-6.15 6.15-6.1 6.15-14.85 0-8.7-6.15-14.85m9.15 14.85q0 10-7.05 16.95-6.95 7.05-16.95 7.05-9.95 0-17-7.05-7-6.95-7-16.95 0-9.95 7-17 7.05-7 17-7 10 0 16.95 7 7.05 7.05 7.05 17m-15 4q0 2.45-1.75 4.2l-0.05 0.05q-1.75 1.75-4.2 1.75h-10v-20h10q2.45 0 4.2 1.75l0.05 0.05q1.75 1.75 1.75 4.2 0 2.3-1.5 4 1.5 1.7 1.5 4m-4-8q0-0.8-0.55-1.35l-0.1-0.1q-0.55-0.55-1.35-0.55h-6v4h6q0.8 0 1.4-0.6h0.05q0.55-0.55 0.55-1.4m0 8q0-0.85-0.55-1.4h-0.05q-0.6-0.6-1.4-0.6h-6v4h6q0.8 0 1.35-0.55l0.1-0.1q0.55-0.55 0.55-1.35" color="#000000" fill="#fff" stroke-width="8" style="-inkscape-stroke:none;paint-order:stroke markers fill"/>
</g>
</svg>
