<?xml version="1.0" encoding="UTF-8"?>
<svg version="1.1" viewBox="0 0 64 64" xmlns="http://www.w3.org/2000/svg">
<g stroke-linecap="round" stroke-linejoin="round">
<path d="m24 12c-5.3495 0-10.334 2.0758-14.129 5.8711-3.7953 3.7953-5.8711 8.7794-5.8711 14.129v8c0 3.3333 0.89573 6.552 3.1719 8.8281s5.4948 3.1719 8.8281 3.1719h32c3.3333 0 6.552-0.89574 8.8281-3.1719s3.1719-5.4948 3.1719-8.8281v-16c0-3.3333-0.89574-6.552-3.1719-8.8281s-5.4948-3.1719-8.8281-3.1719z" color="#000000" style="-inkscape-stroke:none;paint-order:stroke markers fill"/>
<path d="m40 39h-7v-13h7c1.0667 0 2 0.4 2.8 1.2s1.2 1.7333 1.2 2.8c0 0.96667-0.3 1.8-0.9 2.5 0.6 0.73333 0.9 1.5667 0.9 2.5 0 1.1-0.4 2.0333-1.2 2.8-0.8 0.8-1.7333 1.2-2.8 1.2m8-23c5.3333 0 8 2.6667 8 8v16c0 5.3333-2.6667 8-8 8h-32c-5.3333 0-8-2.6667-8-8v-8c0-4.4 1.5667-8.1667 4.7-11.3s6.9-4.7 11.3-4.7h24m-8 15c0.3 0 0.53333-0.1 0.7-0.3l0.3-0.7-0.3-0.7c-0.16667-0.2-0.4-0.3-0.7-0.3h-4v2h4m8-12h-24c-3.5667 0-6.6333 1.2833-9.2 3.85-2.5333 2.5333-3.8 5.5833-3.8 9.15v8c0 3.3333 1.6667 5 5 5h32c3.3333 0 5-1.6667 5-5v-16c0-3.3333-1.6667-5-5-5m-8 17c0.3 0 0.53333-0.1 0.7-0.3l0.3-0.7-0.3-0.7c-0.16667-0.2-0.4-0.3-0.7-0.3h-4v2h4m-10 0v3h-9v-13h3v10z" color="#000000" fill="#fff" stroke-width="8" style="-inkscape-stroke:none;paint-order:stroke markers fill"/>
</g>
</svg>
