<?xml version="1.0" encoding="UTF-8"?>
<svg version="1.1" viewBox="0 0 64 64" xmlns="http://www.w3.org/2000/svg">
<path d="m24 12c-5.3495 0-10.334 2.0758-14.129 5.8711-3.7953 3.7953-5.8711 8.7794-5.8711 14.129v8c0 3.3333 0.89573 6.552 3.1719 8.8281s5.4948 3.1719 8.8281 3.1719h32c3.3333 0 6.552-0.89574 8.8281-3.1719s3.1719-5.4948 3.1719-8.8281v-16c0-3.3333-0.89574-6.552-3.1719-8.8281s-5.4948-3.1719-8.8281-3.1719zm0 8h24c2 0 2.7814 0.4376 3.1719 0.82812s0.82812 1.1719 0.82812 3.1719v16c0 2-0.4376 2.7814-0.82812 3.1719s-1.1719 0.82812-3.1719 0.82812h-32c-2 0-2.7814-0.4376-3.1719-0.82812s-0.82812-1.1719-0.82812-3.1719v-8c0-3.4505 1.0579-5.9993 3.5293-8.4707 0.46992-0.46992 0.98947-0.65333 1.4707-1.0234v20.494h23c2.0517 0 4.1635-0.93455 5.5918-2.3457 1.4733-1.4284 2.4082-3.598 2.4082-5.6543 0-0.83636-0.17683-1.6844-0.44922-2.4961 0.27297-0.81948 0.44922-1.6729 0.44922-2.5039 0-2.0667-0.94256-4.2004-2.3711-5.6289-1.4285-1.4285-3.5622-2.3711-5.6289-2.3711h-11v10h-1v-10h-10.273c1.8486-1.2146 3.8032-2 6.2734-2z" color="#000000" style="-inkscape-stroke:none;paint-order:stroke markers fill"/>
<path d="m40 39c1.0667 0 2-0.4 2.8-1.2 0.8-0.76667 1.2-1.7 1.2-2.8 0-0.93333-0.3-1.7667-0.9-2.5 0.6-0.7 0.9-1.5333 0.9-2.5 0-1.0667-0.4-2-1.2-2.8s-1.7333-1.2-2.8-1.2h-7v13h7m0-8h-4v-2h4c0.3 0 0.53333 0.1 0.7 0.3l0.3 0.7-0.3 0.7c-0.16667 0.2-0.4 0.3-0.7 0.3m8-15c5.3333 0 8 2.6667 8 8v16c0 5.3333-2.6667 8-8 8h-32c-5.3333 0-8-2.6667-8-8v-8c0-4.4 1.5667-8.1667 4.7-11.3s6.9-4.7 11.3-4.7h24m-8 20h-4v-2h4c0.3 0 0.53333 0.1 0.7 0.3l0.3 0.7-0.3 0.7c-0.16667 0.2-0.4 0.3-0.7 0.3m-16-10h-3v13h9v-3h-6z" color="#000000" fill="#fff" stroke-width="8" style="-inkscape-stroke:none;paint-order:stroke markers fill"/>
</svg>
