<?xml version="1.0" encoding="UTF-8"?>
<svg version="1.1" viewBox="0 0 64 64" xmlns="http://www.w3.org/2000/svg">
<g stroke-linecap="round" stroke-linejoin="round">
<path d="m16 6c-3.3333 0-6.552 0.89573-8.8281 3.1719-2.2761 2.2761-3.1719 5.4948-3.1719 8.8281v28c0 3.2706 0.85301 6.4239 3.043 8.6992 2.19 2.2753 5.3341 3.2375 8.5801 3.3008a4 4 0 0 0 0.03906-0.01563 4 4 0 0 0 0.037112 0.01563h16.951a4.0004 4.0004 0 0 0 0.08398 0c7.267-0.15299 13.867-2.9938 19.045-8.1719 5.0929-5.0929 7.9503-11.533 8.2188-18.627a4.0004 4.0004 0 0 0 0.001957-0.15039v-13.051c0-3.3333-0.89574-6.552-3.1719-8.8281-2.2761-2.2761-5.4948-3.1719-8.8281-3.1719zm9.1719 11h3.6562a4.0004 4.0004 0 0 0-0.82812 2v4a4.0004 4.0004 0 0 0 4 4h1v2.5859a4.0004 4.0004 0 0 0-3-1.5859h-4v-9a4.0004 4.0004 0 0 0-0.82812-2zm23.828 8.4141v5.4922c-0.19922 4.3961-1.7417 7.8784-4.9785 11.115-3.4331 3.4331-7.164 4.9785-12.021 4.9785h-16c-1 0-1.0314-0.1876-0.92188-0.078125s-0.078125 0.078124-0.078125-0.92188v-7.5859a4.0004 4.0004 0 0 0 3 1.5859h12a4.0004 4.0004 0 0 0 3.5-2.793 4.0004 4.0004 0 0 0 3.5 2.793h4a4.0004 4.0004 0 0 0 4-4v-9h1a4.0004 4.0004 0 0 0 3-1.5859z" color="#000000" style="-inkscape-stroke:none;paint-order:stroke markers fill"/>
<path d="m15.7 54c-5.1333-0.1-7.7-2.7667-7.7-8v-28c0-5.3333 2.6667-8 8-8h32c5.3333 0 8 2.6667 8 8v13.05c-0.23333 6.1667-2.5833 11.483-7.05 15.95-4.5333 4.5333-9.9667 6.8667-16.3 7h-16.95m-4.7-8c0 3.3333 1.6667 5 5 5h16c5.8 0 10.75-2.05 14.85-6.15 3.8667-3.8667 5.9167-8.4667 6.15-13.8v-13.05c0-3.3333-1.6667-5-5-5h-32c-3.3333 0-5 1.6667-5 5v28m26-23h-5v-4h14v4h-5v13h-4zm-15-4v13h8v4h-12v-17z" color="#000000" fill="#fff" stroke-width="8" style="-inkscape-stroke:none;paint-order:stroke markers fill"/>
</g>
</svg>
