<?xml version="1.0" encoding="UTF-8"?>
<svg version="1.1" viewBox="0 0 64 64" xmlns="http://www.w3.org/2000/svg">
<path d="m16 6c-3.3333 0-6.552 0.89573-8.8281 3.1719-2.2761 2.2761-3.1719 5.4948-3.1719 8.8281v28c0 3.2706 0.85301 6.4239 3.043 8.6992 2.19 2.2753 5.3341 3.2375 8.5801 3.3008h17.111c7.267-0.15299 13.867-2.9938 19.045-8.1719 5.0929-5.0929 7.9503-11.533 8.2188-18.627l0.001954-0.076172v-13.125c0-3.3333-0.89574-6.552-3.1719-8.8281-2.2761-2.2761-5.4948-3.1719-8.8281-3.1719z" color="#000000" style="-inkscape-stroke:none;paint-order:stroke markers fill"/>
<path d="m15.7 54c-5.1333-0.1-7.7-2.7667-7.7-8v-28c0-5.3333 2.6667-8 8-8h32c5.3333 0 8 2.6667 8 8v13.05c-0.23333 6.1667-2.5833 11.483-7.05 15.95-4.5333 4.5333-9.9667 6.8667-16.3 7h-16.95m25.3-18v-13h5v-4h-14v4h5v13zm-23 0h12v-4h-8v-13h-4z" color="#000000" fill="#fff" stroke-width="8" style="-inkscape-stroke:none;paint-order:stroke markers fill"/>
</svg>
