<?xml version="1.0" encoding="UTF-8"?>
<svg version="1.1" viewBox="0 0 64 64" xmlns="http://www.w3.org/2000/svg">
<path d="m24 12c-2.591 0-5.104 0.45516-7.4336 1.3867-2.4752 0.98336-4.7281 2.5171-6.6953 4.4844-3.7953 3.7953-5.8711 8.7794-5.8711 14.129s2.0758 10.334 5.8711 14.129c3.7953 3.7953 8.7794 5.8711 14.129 5.8711h16c5.3495 0 10.334-2.0758 14.129-5.8711 3.7953-3.7953 5.8711-8.7794 5.8711-14.129s-2.0758-10.334-5.8711-14.129c-1.9668-1.9668-4.2188-3.501-6.6934-4.4844-5.81e-4 -2.32e-4 -0.0014 2.32e-4 -2e-3 0-2.3295-0.93156-4.8425-1.3867-7.4335-1.3867zm0 8h6.3438l-7 7h-6.3438v13.656l2.5293 2.5293c-1.4247-0.57142-2.7287-1.4436-4-2.7148-2.4714-2.4714-3.5293-5.0202-3.5293-8.4707s1.0579-5.9993 3.5293-8.4707c1.2966-1.2966 2.6088-2.1608 3.9961-2.7109l0.0039-2e-3 0.0059-2e-3c1.3366-0.53454 2.7898-0.81436 4.4648-0.81436zm9.6562 0h6.3438c1.675 0 3.1283 0.27982 4.4648 0.81445l0.0059 2e-3 0.0039 2e-3c1.3873 0.55014 2.6995 1.4143 3.9961 2.7109 2.4713 2.4713 3.5293 5.0201 3.5293 8.4706s-1.0579 5.9993-3.5293 8.4707c-1.2713 1.2713-2.5753 2.1434-4 2.7148l2.5293-2.5293v-13.656h-6.3438z" color="#000000" style="-inkscape-stroke:none;paint-order:stroke markers fill"/>
<path d="m40 37h-16v-6h-3v8l1 1h20l1-1v-8h-3zm-10-3h4v-4h3v-1l-5-5-5 5v1h3zm-6-18h16c2.1333 0 4.1167 0.36667 5.95 1.1 1.9333 0.76667 3.7167 1.9667 5.35 3.6 3.1333 3.1333 4.7 6.9 4.7 11.3s-1.5667 8.1667-4.7 11.3-6.9 4.7-11.3 4.7h-16c-4.4 0-8.1667-1.5667-11.3-4.7s-4.7-6.9-4.7-11.3 1.5667-8.1667 4.7-11.3c1.6333-1.6333 3.4167-2.8333 5.35-3.6 1.8333-0.73333 3.8167-1.1 5.95-1.1" color="#000000" fill="#fff" stroke-width="8" style="-inkscape-stroke:none;paint-order:stroke markers fill"/>
</svg>
