<?xml version="1.0" encoding="UTF-8"?>
<svg version="1.1" viewBox="0 0 64 64" xmlns="http://www.w3.org/2000/svg">
<g stroke-linecap="round" stroke-linejoin="round">
<path d="m24 12c-2.591 0-5.104 0.45516-7.4336 1.3867-2.4752 0.98336-4.7281 2.5171-6.6953 4.4844-3.7953 3.7953-5.8711 8.7794-5.8711 14.129s2.0758 10.334 5.8711 14.129c3.7953 3.7953 8.7794 5.8711 14.129 5.8711h16c5.3495 0 10.334-2.0758 14.129-5.8711 3.7953-3.7953 5.8711-8.7794 5.8711-14.129s-2.0758-10.334-5.8711-14.129c-1.9668-1.9668-4.2188-3.501-6.6934-4.4844-5.81e-4 -2.32e-4 -0.0014 2.32e-4 -2e-3 0-2.3295-0.93156-4.8425-1.3867-7.4335-1.3867zm0 11h3.3438l-3.1719 3.1719a4.0004 4.0004 0 0 0-0.34375 0.82812h-2.8281a4.0004 4.0004 0 0 0-4 4v6.4062c-1.2894-1.5985-2-3.2292-2-5.4062 0-2.6072 0.76145-4.4287 2.6602-6.3027a4 4 0 0 0 0.0293-0.04492 4 4 0 0 0 0.02539-0.0098c0.95695-0.98149 1.909-1.6134 2.9238-2.0254a4.0004 4.0004 0 0 0 0.07617-0.01563c0.95557-0.39088 2.0134-0.60152 3.2852-0.60152zm12.656 0h3.3438c1.2674 0 2.3498 0.21137 3.3535 0.61133 1.0271 0.4156 2.015 1.0638 3.0176 2.0664 1.8696 1.8696 2.6289 3.7026 2.6289 6.3223 0 2.2021-0.70958 3.8484-2 5.457v-6.457a4.0004 4.0004 0 0 0-4-4h-2.8281a4.0004 4.0004 0 0 0-0.34375-0.82812z" color="#000000" style="-inkscape-stroke:none;paint-order:stroke markers fill"/>
<path d="m43 31v8l-1 1h-20l-1-1v-8h3v6h16v-6zm-28.15-8.15c-2.5667 2.5333-3.85 5.5833-3.85 9.15s1.2833 6.6333 3.85 9.2c2.5333 2.5333 5.5833 3.8 9.15 3.8h16c3.5667 0 6.6333-1.2667 9.2-3.8 2.5333-2.5667 3.8-5.6333 3.8-9.2s-1.2667-6.6167-3.8-9.15c-1.3333-1.3333-2.7833-2.3167-4.35-2.95-1.5-0.6-3.1167-0.9-4.85-0.9h-16c-1.7333 0-3.3333 0.3-4.8 0.9h-0.05c-1.5667 0.63333-3 1.6167-4.3 2.95m12.15 7.15v-1l5-5 5 5v1h-3v4h-4v-4zm-3-14h16c2.1333 0 4.1167 0.36667 5.95 1.1 1.9333 0.76667 3.7167 1.9667 5.35 3.6 3.1333 3.1333 4.7 6.9 4.7 11.3s-1.5667 8.1667-4.7 11.3-6.9 4.7-11.3 4.7h-16c-4.4 0-8.1667-1.5667-11.3-4.7s-4.7-6.9-4.7-11.3 1.5667-8.1667 4.7-11.3c1.6333-1.6333 3.4167-2.8333 5.35-3.6 1.8333-0.73333 3.8167-1.1 5.95-1.1" color="#000000" fill="#fff" stroke-width="8" style="-inkscape-stroke:none;paint-order:stroke markers fill"/>
</g>
</svg>
