<?xml version="1.0" encoding="UTF-8"?>
<svg version="1.1" viewBox="0 0 64 64" xmlns="http://www.w3.org/2000/svg">
<g stroke-linecap="round" stroke-linejoin="round">
<path d="m16 6c-3.3333 0-6.552 0.89573-8.8281 3.1719-2.2761 2.2761-3.1719 5.4948-3.1719 8.8281v13.051c-2.925e-4 0.05014 3.576e-4 0.10028 0.00195 0.15039 0.26842 7.0939 3.1259 13.534 8.2188 18.627 5.178 5.178 11.778 8.0189 19.045 8.1719 0.02799 2.94e-4 0.05599 2.94e-4 0.08398 0h16.951c0.0124-0.0051 0.02477-0.01036 0.03711-0.01563 0.01299 0.0053 0.02602 0.01049 0.03907 0.01563 3.2459-0.06323 6.3901-1.0255 8.5801-3.3008s3.043-5.4286 3.043-8.6992v-28c0-3.3333-0.89574-6.552-3.1719-8.8281-2.2761-2.2761-5.4948-3.1719-8.8281-3.1719zm33 20.172v19.828c0 1-0.1876 1.0314-0.07813 0.92188 0.10948-0.10948 0.078129 0.078125-0.92187 0.078125h-16c-4.8575 0-8.5884-1.5454-12.021-4.9785-0.65866-0.65866-1.2012-1.337-1.7227-2.0215h3.7441c1.1753-0.05324 2.2677-0.62119 2.9863-1.5527 0.60906 0.81937 1.5083 1.3749 2.5137 1.5527h4c1.3875-0.09062 2.6284-0.89523 3.2773-2.125 0.6388 1.214 1.8551 2.0161 3.2227 2.125h4c2.209-2.21e-4 3.9998-1.791 4-4v-9h1c0.7301-0.087 1.4221-0.37353 2-0.82812z" color="#000000" style="-inkscape-stroke:none;paint-order:stroke markers fill"/>
<path d="m38 23h-5v-4h14v4h-5v13h-4zm10.3 31h-16.95c-6.3333-0.13333-11.767-2.4667-16.3-7-4.4667-4.4667-6.8167-9.7833-7.05-15.95v-13.05c0-5.3333 2.6667-8 8-8h32c5.3333 0 8 2.6667 8 8v28c0 5.2333-2.5667 7.9-7.7 8m-23.3-35c1.6667 0 3.0833 0.58333 4.25 1.75s1.75 2.5833 1.75 4.25c0 1.6333-0.58333 3.0333-1.75 4.2l-0.05 0.05-0.75 0.65 3.05 6.1h-4l-2.5-5h-3v5h-4v-17zm0 4h-3v4h3c0.53333 0 0.98333-0.18333 1.35-0.55l0.1-0.1c0.36667-0.36667 0.55-0.81667 0.55-1.35s-0.2-1-0.6-1.4-0.86667-0.6-1.4-0.6m28 23v-28c0-3.3333-1.6667-5-5-5h-32c-3.3333 0-5 1.6667-5 5v13.05c0.23333 5.3333 2.2833 9.9333 6.15 13.8 4.1 4.1 9.05 6.15 14.85 6.15h16c3.3333 0 5-1.6667 5-5" color="#000000" fill="#fff" stroke-width="8" style="-inkscape-stroke:none;paint-order:stroke markers fill"/>
</g>
</svg>
