<?xml version="1.0" encoding="UTF-8"?>
<svg version="1.1" viewBox="0 0 64 64" xmlns="http://www.w3.org/2000/svg">
<g stroke-linecap="round" stroke-linejoin="round">
<path d="m16 12c-3.3333 0-6.552 0.89574-8.8281 3.1719s-3.1719 5.4948-3.1719 8.8281v16c0 3.3333 0.89573 6.552 3.1719 8.8281s5.4948 3.1719 8.8281 3.1719h32c3.3333 0 6.552-0.89574 8.8281-3.1719s3.1719-5.4948 3.1719-8.8281v-8c0-5.3495-2.0758-10.334-5.8711-14.129-3.7953-3.7953-8.7794-5.8711-14.129-5.8711z" color="#000000" style="-inkscape-stroke:none;paint-order:stroke markers fill"/>
<path d="m40 39h-7v-13h7c1.0667 0 2 0.4 2.8 1.2s1.2 1.7333 1.2 2.8c0 0.96667-0.3 1.8-0.9 2.5 0.6 0.73333 0.9 1.5667 0.9 2.5 0 1.1-0.4 2.0333-1.2 2.8-0.8 0.8-1.7333 1.2-2.8 1.2m0-8c0.3 0 0.53333-0.1 0.7-0.3l0.3-0.7-0.3-0.7c-0.16667-0.2-0.4-0.3-0.7-0.3h-4v2h4m-24-15h24c4.4 0 8.1667 1.5667 11.3 4.7s4.7 6.9 4.7 11.3v8c0 5.3333-2.6667 8-8 8h-32c-5.3333 0-8-2.6667-8-8v-16c0-5.3333 2.6667-8 8-8m24 20c0.3 0 0.53333-0.1 0.7-0.3l0.3-0.7-0.3-0.7c-0.16667-0.2-0.4-0.3-0.7-0.3h-4v2h4m-24-17c-3.3333 0-5 1.6667-5 5v16c0 3.3333 1.6667 5 5 5h32c3.3333 0 5-1.6667 5-5v-8c0-3.5667-1.2667-6.6167-3.8-9.15-2.5667-2.5667-5.6333-3.85-9.2-3.85h-24m9.05 14c0.53333 0 0.98333-0.2 1.35-0.6 0.4-0.36667 0.6-0.83333 0.6-1.4s-0.2-1.05-0.6-1.45c-0.36667-0.36667-0.83333-0.55-1.4-0.55h-3v4zm-0.05 3h-3v3h-3v-13h6c1.3667 0 2.5333 0.48333 3.5 1.45 1 1 1.5 2.1833 1.5 3.55s-0.5 2.5333-1.5 3.5l1.5 4.5h-3l-1-3v-0.1l-1 0.1" color="#000000" fill="#fff" stroke-width="8" style="-inkscape-stroke:none;paint-order:stroke markers fill"/>
</g>
</svg>
