<?xml version="1.0" encoding="UTF-8"?>
<svg version="1.1" viewBox="0 0 64 64" xmlns="http://www.w3.org/2000/svg">
<path d="m16 6c-3.3333 0-6.552 0.89573-8.8281 3.1719-2.2761 2.2761-3.1719 5.4948-3.1719 8.8281v13.125l0.00195 0.07617c0.26842 7.0939 3.1259 13.534 8.2188 18.627 5.178 5.178 11.778 8.0189 19.045 8.1719h17.111c3.2459-0.06323 6.3901-1.0255 8.5801-3.3008s3.043-5.4286 3.043-8.6992v-28c0-3.3333-0.89574-6.552-3.1719-8.8281-2.2761-2.2761-5.4948-3.1719-8.8281-3.1719zm0 8h32c2 0 2.7814 0.4376 3.1719 0.82812s0.82812 1.1719 0.82812 3.1719v28c0 1.9627-0.42993 2.759-0.80664 3.1504-0.37671 0.39138-1.0833 0.81284-2.9707 0.84961h-16.789c-5.3997-0.11368-9.6661-1.9395-13.555-5.8281-1.3299-1.3299-2.3377-2.7286-3.2031-4.1719h23.297l-2-4h2.0273v4h8v-13h5v-12h-22v0.88672c-1.2689-0.55335-2.6299-0.88672-4-0.88672h-7v4h-4v19.812c-1.2005-2.3937-1.8874-4.9732-2-7.8984v-12.914c0-2 0.4376-2.7814 0.82812-3.1719s1.1719-0.82812 3.1719-0.82812zm7.2949 10.295 0.70508 0.70508-0.71484 0.71484c-0.11445-0.27035-0.28516-0.48135-0.28516-0.71484 0-0.18269 0.18845-0.43597 0.29492-0.70508zm10.705 4.8418v2.9199l-0.58398-1.168-1.4883 1.291 0.15039-0.15039c0.81778-0.81778 1.43-1.8319 1.9219-2.8926z" color="#000000" style="-inkscape-stroke:none;paint-order:stroke markers fill"/>
<path d="m31.35 54c-6.3333-0.13333-11.767-2.4667-16.3-7-4.4667-4.4667-6.8167-9.7833-7.05-15.95v-13.05c0-5.3333 2.6667-8 8-8h32c5.3333 0 8 2.6667 8 8v28c0 5.2333-2.5667 7.9-7.7 8zm6.65-18h4v-13h5v-4h-14v4h5v13m-13-13c0.53333 0 1 0.2 1.4 0.6s0.6 0.86667 0.6 1.4-0.18333 0.98333-0.55 1.35l-0.1 0.1c-0.36667 0.36667-0.81667 0.55-1.35 0.55h-3v-4h3m-7-4v17h4v-5h3l2.5 5h4l-3.05-6.1 0.75-0.65 0.05-0.05c1.1667-1.1667 1.75-2.5667 1.75-4.2 0-1.6667-0.58333-3.0833-1.75-4.25s-2.5833-1.75-4.25-1.75h-7" color="#000000" fill="#fff" stroke-width="8" style="-inkscape-stroke:none;paint-order:stroke markers fill"/>
</svg>
