<?xml version="1.0" encoding="UTF-8"?>
<svg version="1.1" viewBox="0 0 64 64" xmlns="http://www.w3.org/2000/svg">
<path d="m16 12c-3.3333 0-6.552 0.89574-8.8281 3.1719s-3.1719 5.4948-3.1719 8.8281v16c0 3.3333 0.89573 6.552 3.1719 8.8281s5.4948 3.1719 8.8281 3.1719h32c3.3333 0 6.552-0.89574 8.8281-3.1719s3.1719-5.4948 3.1719-8.8281v-8c0-5.3495-2.0758-10.334-5.8711-14.129-3.7953-3.7953-8.7794-5.8711-14.129-5.8711zm0 8h24c3.4505 0 5.9993 1.0579 8.4707 3.5293s3.5293 5.0202 3.5293 8.4707v8c0 2-0.4376 2.7814-0.82812 3.1719s-1.1719 0.82812-3.1719 0.82812h-32c-2 0-2.7814-0.4376-3.1719-0.82812s-0.82812-1.1719-0.82812-3.1719v-16c0-2 0.4376-2.7814 0.82812-3.1719s1.1719-0.82812 3.1719-0.82812zm-1 2v21h25c2.0517 0 4.1635-0.93455 5.5918-2.3457 1.4733-1.4284 2.4082-3.598 2.4082-5.6543 0-0.83636-0.17683-1.6844-0.44922-2.4961 0.27297-0.81948 0.44922-1.6729 0.44922-2.5039 0-2.0667-0.94256-4.2004-2.3711-5.6289-1.4285-1.4285-3.5622-2.3711-5.6289-2.3711h-11v1.084c-1.2616-0.63749-2.6141-1.084-4-1.084zm8.3105 8.3105 0.68945 0.68945-0.70703 0.70703c-0.11389-0.27023-0.29297-0.51505-0.29297-0.70703 0-0.16672 0.2042-0.42298 0.31055-0.68945z" color="#000000" style="-inkscape-stroke:none;paint-order:stroke markers fill"/>
<path d="m40 39c1.0667 0 2-0.4 2.8-1.2 0.8-0.76667 1.2-1.7 1.2-2.8 0-0.93333-0.3-1.7667-0.9-2.5 0.6-0.7 0.9-1.5333 0.9-2.5 0-1.0667-0.4-2-1.2-2.8s-1.7333-1.2-2.8-1.2h-7v13h7m0-8h-4v-2h4c0.3 0 0.53333 0.1 0.7 0.3l0.3 0.7-0.3 0.7c-0.16667 0.2-0.4 0.3-0.7 0.3m-24-15h24c4.4 0 8.1667 1.5667 11.3 4.7s4.7 6.9 4.7 11.3v8c0 5.3333-2.6667 8-8 8h-32c-5.3333 0-8-2.6667-8-8v-16c0-5.3333 2.6667-8 8-8m24 20h-4v-2h4c0.3 0 0.53333 0.1 0.7 0.3l0.3 0.7-0.3 0.7c-0.16667 0.2-0.4 0.3-0.7 0.3m-15 0 1-0.1v0.1l1 3h3l-1.5-4.5c1-0.96667 1.5-2.1333 1.5-3.5s-0.5-2.55-1.5-3.55c-0.96667-0.96667-2.1333-1.45-3.5-1.45h-6v13h3v-3h3m-3-7h3c0.56667 0 1.0333 0.18333 1.4 0.55 0.4 0.4 0.6 0.88333 0.6 1.45s-0.2 1.0333-0.6 1.4c-0.36667 0.4-0.81667 0.6-1.35 0.6h-3.05z" color="#000000" fill="#fff" stroke-width="8" style="-inkscape-stroke:none;paint-order:stroke markers fill"/>
</svg>
