<?xml version="1.0" encoding="UTF-8"?>
<svg viewBox="0 0 64 64" xmlns="http://www.w3.org/2000/svg">
<path d="m40 10v9.15q0 0.85-0.55 1.45l-6 6q-0.6 0.55-1.45 0.55t-1.4-0.55l-6-6q-0.6-0.6-0.6-1.45v-9.15q0-0.85 0.6-1.4 0.55-0.6 1.4-0.6h12q0.85 0 1.45 0.6 0.55 0.55 0.55 1.4m16 16v12q0 0.85-0.55 1.45-0.6 0.55-1.45 0.55h-9.15q-0.85 0-1.4-0.55l-6-6q-0.6-0.6-0.6-1.45t0.6-1.4l6-6q0.55-0.6 1.4-0.6h9.15q0.85 0 1.45 0.6 0.55 0.55 0.55 1.4m-36.85 14h-9.15q-0.85 0-1.4-0.55-0.6-0.6-0.6-1.45v-12q0-0.85 0.6-1.4 0.55-0.6 1.4-0.6h9.15q0.85 0 1.45 0.6l6 6q0.55 0.55 0.55 1.4t-0.55 1.45l-6 6q-0.6 0.55-1.45 0.55" fill="#fff"/>
<path d="m33.45 37.45 6 6q0.55 0.55 0.55 1.4v9.15q0 0.85-0.55 1.45-0.6 0.55-1.45 0.55h-12q-0.85 0-1.4-0.55-0.6-0.6-0.6-1.45v-9.15q0-0.85 0.6-1.4l6-6q0.55-0.6 1.4-0.6t1.45 0.6" fill="#E73246"/>
</svg>
