<?xml version="1.0" encoding="UTF-8"?>
<svg viewBox="0 0 64 64" xmlns="http://www.w3.org/2000/svg">
<path d="m37.7 26.35q2.3 2.3 2.3 5.65t-2.3 5.7q-2.35 2.3-5.7 2.3-3.3 0-5.6-2.3l-0.05-0.05q-2.35-2.35-2.35-5.65t2.35-5.65h0.05q2.3-2.35 5.6-2.35 3.35 0 5.7 2.35m6.3 5.65q0-5-3.5-8.5t-8.5-3.5q-4.95 0-8.45 3.5-3.55 3.5-3.55 8.5t3.55 8.5q3.5 3.5 8.45 3.5 5 0 8.5-3.5t3.5-8.5m12 0q0 10-7.05 16.95-6.95 7.05-16.95 7.05-9.95 0-17-7.05-7-6.95-7-16.95 0-9.95 7-17 7.05-7 17-7 10 0 16.95 7 7.05 7.05 7.05 17" fill="#f66"/>
</svg>
