<?xml version="1.0" encoding="UTF-8"?>
<svg viewBox="0 0 64 64" xmlns="http://www.w3.org/2000/svg">
<path d="m11.75 38q-3.65-0.1-3.75-3.75v-2.5q0.1-3.15 2.4-5.45 2.2-2.2 5.35-2.3h32.5q3.15 0.1 5.45 2.3 2.2 2.3 2.3 5.4v2.55q-0.1 3.65-3.75 3.75h-6.25v14q0 3.85-3.75 4h-20.5q-3.75-0.15-3.75-4v-14h-6.25m26.25-6h-1.1q-1.65 0.05-2.7 1.15-0.8 0.8-1.05 1.85l-0.15 1h3q0-0.45 0.3-0.75 0.3-0.25 0.7-0.25h1l0.7 0.25 0.3 0.75-0.25 0.65-0.1 0.1-0.45 0.25h-1.2v3h1.2q0.25 0.05 0.5 0.25l0.3 0.75-0.25 0.65-0.1 0.1-0.65 0.25h-1l-0.65-0.25-0.1-0.1-0.25-0.65h-3l0.15 1q0.2 1 1 1.8l0.05 0.05q1.1 1.1 2.7 1.15h1.1q1.65 0 2.8-1.15l0.05-0.05q1.15-1.15 1.15-2.8 0-1.45-0.85-2.5 0.85-1.05 0.85-2.5 0-1.65-1.2-2.85-1.1-1.15-2.8-1.15m-7.15-14.5-6.4-6.65q-0.45-0.5-0.45-1.2t0.45-1.15q0.45-0.5 1.15-0.5h12.8q0.65 0 1.15 0.5 0.45 0.45 0.45 1.15t-0.45 1.2l-6.4 6.65q-0.5 0.5-1.15 0.5-0.7 0-1.15-0.5m-5.85 24.5v-10h-3v13h9v-3h-6" fill="#fff"/>
</svg>
