<?xml version="1.0" encoding="UTF-8"?>
<svg viewBox="0 0 64 64" xmlns="http://www.w3.org/2000/svg">
<path d="m23 23v17h12v-4h-8v-13h-4m-7 7v-14q0-3.3 2.35-5.65t5.65-2.35h24q3.3 0 5.65 2.35 2.1 2.1 2.35 4.9v24.75q0 6.6-4.7 11.3t-11.3 4.7h-27.2q-2.05 0-3.35-1.25-1.45-1.3-1.45-3.15 0-1.45 4-8 3.75-6.2 4-13.6m28.5-2.6q0.75 0.75-0.5 2.05l-7 6.55v4h12v-4h-6l4.45-4.45q2.2-2.2 0.95-5.55l-1-1.35-0.05-0.05q-1.6-1.6-3.85-1.6h-1.65q-1.95 0.05-3.35 1.4l-0.1 0.1q-1.05 1.1-1.3 2.5l-0.1 1h4q0-0.4 0.3-0.7 0.25-0.25 0.55-0.3h1.65q0.6 0 1 0.4" fill="#fff"/>
</svg>
