<?xml version="1.0" encoding="UTF-8"?>
<svg viewBox="0 0 64 64" xmlns="http://www.w3.org/2000/svg">
<path d="m21 25v17h4v-5h3l2.5 5h4l-3.05-6.1 0.75-0.65 0.05-0.05 0.95-1.2q0.8-1.35 0.8-3 0-2.5-1.75-4.25l-0.9-0.75q-1.45-1-3.35-1h-7m22 0h-4l-3 3v1.95h3v12.05h4v-17m-31 5q0-8.3 5.8-14.2 5.9-5.8 14.2-5.8 8.25 0 14.1 5.8 3.75 3.75 5.15 8.5l0.55 2.6 0.2 2.7v16.85q-0.15 2.7-1.9 4.75l-0.65 0.65q-1.45 1.35-3.2 1.85l-2.25 0.3h-24q-3.15 0-5.45-2.15l-0.2-0.2q-2.35-2.35-2.35-5.65v-16m16-1q0.8 0 1.4 0.6t0.6 1.4-0.55 1.35l-0.1 0.1q-0.55 0.55-1.35 0.55h-3v-4h3" fill="#fff"/>
</svg>
