<?xml version="1.0" encoding="UTF-8"?>
<svg viewBox="0 0 64 64" xmlns="http://www.w3.org/2000/svg">
<path d="m48 30q0.25 7.4 4 13.6 4 6.55 4 8 0 1.85-1.45 3.15-1.3 1.25-3.35 1.25h-27.2q-6.6 0-11.3-4.7t-4.7-11.3v-24q0-3.3 2.35-5.65t5.65-2.35h24q3.3 0 5.65 2.35t2.35 5.65v14m-10.5-2.6q0.75 0.75-0.5 2.05l-7 6.55v4h12v-4h-6l4.45-4.45q2.2-2.2 0.95-5.55l-1-1.35-0.05-0.05q-1.6-1.6-3.85-1.6h-1.65q-1.95 0.05-3.35 1.4l-0.1 0.1q-1.05 1.1-1.3 2.5l-0.1 1h4q0-0.4 0.3-0.7 0.25-0.25 0.55-0.3h1.65q0.6 0 1 0.4m-15.5-0.4q0.8 0 1.4 0.6t0.6 1.4-0.55 1.35l-0.1 0.1q-0.55 0.55-1.35 0.55h-3v-4h3m-7-4v17h4v-5h3l2.5 5h4l-3.05-6.1 0.75-0.65 0.05-0.05q1.75-1.75 1.75-4.2 0-2.5-1.75-4.25t-4.25-1.75h-7" fill="#fff"/>
</svg>
