<?xml version="1.0" encoding="UTF-8"?>
<svg viewBox="0 0 64 64" xmlns="http://www.w3.org/2000/svg">
<path d="m28 19-0.3 0.7q-0.3 0.3-0.7 0.3l-0.7-0.3-0.3-0.7v-3h-2v3l-0.3 0.7-0.7 0.3q-0.4 0-0.7-0.3t-0.3-0.7v-8q0-0.4 0.3-0.7t0.7-0.3 0.7 0.3l0.3 0.7v3h2v-3q0-0.4 0.3-0.7t0.7-0.3 0.7 0.3l0.3 0.7v8m-10-7q-0.4 0-0.7 0.3t-0.3 0.7 0.3 0.7 0.65 0.3h0.1q1.15 0 2.05 0.9t0.9 2.1-0.9 2.1-2.1 0.9h-2l-0.7-0.3q-0.3-0.3-0.3-0.7t0.3-0.7 0.7-0.3h2q0.4 0 0.7-0.3l0.3-0.7-0.3-0.7q-0.3-0.3-0.65-0.3h-0.1q-1.15 0-2.05-0.9t-0.9-2.1 0.9-2.1 2.1-0.9h2q0.4 0 0.7 0.3l0.3 0.7-0.3 0.7-0.7 0.3h-2m21.1 2 0.35-0.1 0.25-0.2h0.05l0.25-0.7-0.3-0.75q-0.25-0.25-0.65-0.25h-1.05v2h1.1m-10.1-1.2q0-1.15 0.85-2l0.05-0.05q0.85-0.75 2.1-0.75 1.15 0 2.05 0.75l0.05 0.05q0.9 0.85 0.9 2v6.2l-0.3 0.7q-0.3 0.3-0.7 0.3l-0.7-0.3q-0.3-0.3-0.3-0.7v-2h-2v2l-0.3 0.7q-0.3 0.3-0.7 0.3l-0.7-0.3q-0.3-0.3-0.3-0.7v-6.2m2 0v2.2h2v-2.2l-0.25-0.55v0.05q-0.3-0.3-0.75-0.3t-0.8 0.3l0.05-0.1q-0.25 0.25-0.25 0.6m10.1 2.3v0.05l-0.65 0.5 1.45 2.9 0.05 0.8-0.5 0.55-0.75 0.05q-0.4-0.15-0.6-0.5l-1.7-3.45h-0.4v3l-0.3 0.7-0.7 0.3-0.7-0.3q-0.3-0.3-0.3-0.7v-8q0-0.4 0.3-0.7t0.7-0.3h2.05q1.2 0 2.05 0.85 0.9 0.9 0.9 2.15t-0.9 2.1m1.9-4.1q0-0.4 0.3-0.7t0.7-0.3h4q0.4 0 0.7 0.3l0.3 0.7-0.3 0.7q-0.3 0.3-0.7 0.3h-3v2h3q0.4 0 0.7 0.3l0.3 0.7-0.3 0.7q-0.3 0.3-0.7 0.3h-3v2h3q0.4 0 0.7 0.3l0.3 0.7-0.3 0.7q-0.3 0.3-0.7 0.3h-4q-0.4 0-0.7-0.3t-0.3-0.7v-8m-11 15q3.3 0 5.65 2.35t2.35 5.65v12q0 3.3-2.35 5.65t-5.65 2.35-5.65-2.35-2.35-5.65v-12q0-3.3 2.35-5.65t5.65-2.35" fill="#fff"/>
</svg>
