<?xml version="1.0" encoding="UTF-8"?>
<svg viewBox="0 0 64 64" xmlns="http://www.w3.org/2000/svg">
<path d="m50 32q0-0.85-0.6-1.45-0.55-0.55-1.4-0.55t-1.45 0.55q-0.55 0.6-0.55 1.45t0.55 1.4q0.6 0.6 1.45 0.6t1.4-0.6q0.6-0.55 0.6-1.4m0-8q0-0.85-0.6-1.45-0.55-0.55-1.4-0.55t-1.45 0.55q-0.55 0.6-0.55 1.45t0.55 1.4q0.6 0.6 1.45 0.6t1.4-0.6q0.6-0.55 0.6-1.4m-8 8q0-0.85-0.6-1.45-0.55-0.55-1.4-0.55t-1.45 0.55q-0.55 0.6-0.55 1.45t0.55 1.4q0.6 0.6 1.45 0.6t1.4-0.6q0.6-0.55 0.6-1.4m-8 0q0-0.85-0.6-1.45-0.55-0.55-1.4-0.55t-1.45 0.55q-0.55 0.6-0.55 1.45t0.55 1.4q0.6 0.6 1.45 0.6t1.4-0.6q0.6-0.55 0.6-1.4m0-8q0-0.85-0.6-1.45-0.55-0.55-1.4-0.55t-1.45 0.55q-0.55 0.6-0.55 1.45t0.55 1.4q0.6 0.6 1.45 0.6t1.4-0.6q0.6-0.55 0.6-1.4m8 0q0-0.85-0.6-1.45-0.55-0.55-1.4-0.55t-1.45 0.55q-0.55 0.6-0.55 1.45t0.55 1.4q0.6 0.6 1.45 0.6t1.4-0.6q0.6-0.55 0.6-1.4m-26-8h32q8 0 8 8v16q0 8-8 8h-32q-8 0-8-8v-16q0-8 8-8m2 24q0-0.85-0.6-1.45-0.55-0.55-1.4-0.55t-1.45 0.55q-0.55 0.6-0.55 1.45t0.55 1.4q0.6 0.6 1.45 0.6t1.4-0.6q0.6-0.55 0.6-1.4m8 0q0-0.85-0.6-1.45-0.55-0.55-1.4-0.55t-1.45 0.55q-0.55 0.6-0.55 1.45t0.55 1.4q0.6 0.6 1.45 0.6t1.4-0.6q0.6-0.55 0.6-1.4m0-8q0-0.85-0.6-1.45-0.55-0.55-1.4-0.55t-1.45 0.55q-0.55 0.6-0.55 1.45t0.55 1.4q0.6 0.6 1.45 0.6t1.4-0.6q0.6-0.55 0.6-1.4m0-8q0-0.85-0.6-1.45-0.55-0.55-1.4-0.55t-1.45 0.55q-0.55 0.6-0.55 1.45t0.55 1.4q0.6 0.6 1.45 0.6t1.4-0.6q0.6-0.55 0.6-1.4m-8 8q0-0.85-0.6-1.45-0.55-0.55-1.4-0.55t-1.45 0.55q-0.55 0.6-0.55 1.45t0.55 1.4q0.6 0.6 1.45 0.6t1.4-0.6q0.6-0.55 0.6-1.4m0-8q0-0.85-0.6-1.45-0.55-0.55-1.4-0.55t-1.45 0.55q-0.55 0.6-0.55 1.45t0.55 1.4q0.6 0.6 1.45 0.6t1.4-0.6q0.6-0.55 0.6-1.4m24 16q0-0.85-0.6-1.45-0.55-0.55-1.4-0.55t-1.45 0.55q-0.55 0.6-0.55 1.45t0.55 1.4q0.6 0.6 1.45 0.6t1.4-0.6q0.6-0.55 0.6-1.4m-8 0q0-0.85-0.6-1.45-0.55-0.55-1.4-0.55t-1.45 0.55q-0.55 0.6-0.55 1.45t0.55 1.4q0.6 0.6 1.45 0.6t1.4-0.6q0.6-0.55 0.6-1.4m16 0q0-0.85-0.6-1.45-0.55-0.55-1.4-0.55t-1.45 0.55q-0.55 0.6-0.55 1.45t0.55 1.4q0.6 0.6 1.45 0.6t1.4-0.6q0.6-0.55 0.6-1.4" fill="#fff"/>
</svg>
