<?xml version="1.0" encoding="UTF-8"?>
<svg version="1.1" viewBox="0 0 64 64" xmlns="http://www.w3.org/2000/svg">
<g stroke-linecap="round" stroke-linejoin="round">
<path d="m13 6c-1.6333 0-3.45 0.6064-4.7461 1.75-0.062323 0.055385-0.1229 0.1127-0.18164 0.17188l-0.050781 0.048828c-1.2044 1.2044-2.0215 3.0779-2.0215 4.8301v4.4492c0 1.6039 0.74618 3.2131 1.7578 4.3867 0.1689 0.27385 0.37023 0.52633 0.59961 0.75195 1.3094 1.0783 3.0626 1.6113 4.6426 1.6113 0.93017 0 1.8647-0.24775 2.7559-0.60938l0.66797 0.28516c0.49801 0.21372 1.0342 0.32402 1.5762 0.32422 1.2667 0 2.7008-0.64217 3.5293-1.4707 0.35977-0.36022 0.64747-0.78581 0.84766-1.2539l0.12305-0.28711 0.12305 0.28711c0.40465 0.94441 1.1572 1.6969 2.1016 2.1016l0.69922 0.29883c0.21645 0.06417 0.43794 0.10991 0.66211 0.13672-0.89333 0.51814-1.8307 0.97526-2.5645 1.709-2.2286 2.2286-3.5215 5.329-3.5215 8.4785v12c4.9e-5 0.12456 0.0059 0.24904 0.01758 0.37305l0.15039 1.5996c0.01231 0.13237 0.03122 0.26404 0.05664 0.39453 0.45091 2.3046 1.6319 4.4463 3.2969 6.1113 2.2286 2.2286 5.329 3.5215 8.4785 3.5215s6.2499-1.2928 8.4785-3.5215c1.665-1.665 2.846-3.8067 3.2969-6.1113 0.02542-0.13049 0.04433-0.26216 0.05664-0.39453l0.15039-1.5996c0.011664-0.12401 0.017529-0.24849 0.017578-0.37305v-12c0-3.1495-1.2928-6.2499-3.5215-8.4785-0.72302-0.72302-1.6489-1.1697-2.5273-1.6836 0.62122-0.08611 1.2163-0.2085 1.8047-0.44727l0.66797 0.28516c1.0065 0.43146 2.1459 0.43146 3.1523 0l0.42383-0.18164 0.42383 0.18164c0.99349 0.41873 2.1139 0.41873 3.1074 0 0.48823 0.16134 0.98622 0.32422 1.4688 0.32422h2c1.8 0 3.6992-0.84373 4.9277-2.0723 1.2285-1.2285 2.0723-3.1277 2.0723-4.9277 0-1.1631-0.43113-2.2975-1.0117-3.3359 0.13832-0.12049 0.26818-0.25036 0.38867-0.38867l0.29883-0.69922c0.43146-1.0065 0.43146-2.1459 0-3.1523l-0.29883-0.69922c-0.20019-0.4681-0.48789-0.89368-0.84766-1.2539-0.82854-0.82854-2.2626-1.4707-3.5293-1.4707h-2c-1.2039 0-2.375 0.46272-3.4375 1.0801-1.0946-0.62795-2.324-1.0801-3.5625-1.0801-1.1861 0-2.4056 0.4239-3.5156 1.0371-1.0777-0.60093-2.2752-1.0371-3.4844-1.0371-0.92045 0-1.8741 0.24033-2.7852 0.61328-0.7046-0.35336-1.4679-0.61328-2.2148-0.61328-0.47553 0-0.9656 0.16327-1.4473 0.32031-0.49102-0.20929-1.019-0.3182-1.5527-0.32031h-4c-0.7478 0-1.5116 0.26114-2.2168 0.61523-0.87955-0.3817-1.8208-0.61523-2.7324-0.61523h-2.0508c-0.75533 0-1.5261 0.26665-2.2363 0.62695-0.889-0.37346-1.8277-0.62695-2.7637-0.62695zm-5.7285 14.988 0.050781 0.09961c0.069387 0.09633 0.14303 0.18952 0.2207 0.2793zm18.449 6.6367c-0.01634 0.0158-0.02284 0.04069-0.03906 0.05664-0.01595 0.01622-0.04084 0.02272-0.05664 0.03906zm6.2793 5.375c0.39106 0 0.36496-0.02762 0.7207 0.32812 0.3002 0.3002 0.2793 0.2483 0.2793 0.67188v11.801l-0.04687 0.47266c-0.034316 0.14066-0.10648 0.26596-0.2461 0.42774-0.2702 0.25747-0.31802 0.29883-0.70703 0.29883-0.42358 0-0.37168 0.0209-0.67188-0.2793-0.23282-0.23282-0.25018-0.32046-0.28125-0.45312l-0.046875-0.4668v-11.801c0-0.39106-0.04343-0.31303 0.2793-0.625 0.03244-0.03136 0.06434-0.06326 0.0957-0.0957 0.31197-0.32273 0.23395-0.2793 0.625-0.2793z" color="#000000" style="-inkscape-stroke:none;paint-order:stroke markers fill"/>
<path d="m10.85 10.8 0.05-0.05c0.56667-0.5 1.2667-0.75 2.1-0.75 0.76667 0 1.45 0.25 2.05 0.75l0.05 0.05c0.6 0.56667 0.9 1.2333 0.9 2v4.45c0 0.73333-0.3 1.4-0.9 2l-0.05 0.05c-0.6 0.46667-1.2833 0.7-2.05 0.7-0.83333 0-1.5333-0.23333-2.1-0.7l-0.05-0.1c-0.56667-0.56667-0.85-1.2167-0.85-1.95v-4.45c0-0.76667 0.28333-1.4333 0.85-2m1.15 6.45 0.2 0.5 0.8 0.25 0.75-0.225 0.25-0.525v-4.45l-0.35-0.625c-0.1-0.075-0.35-0.175-0.65-0.175s-0.56667 0.1-0.65833 0.15l-0.34167 0.65zm8.45-3.35 0.275-0.2 0.275-0.7-0.3-0.75c-0.16667-0.16667-0.38333-0.25-0.65-0.25h-1.05v2h1.1zm-1.75 5.8c-0.2 0.2-0.43333 0.3-0.7 0.3l-0.7-0.3c-0.2-0.2-0.3-0.43333-0.3-0.7v-8c0-0.26667 0.1-0.5 0.3-0.7s0.43333-0.3 0.7-0.3h2.05c0.8 0 1.4833 0.28333 2.05 0.85 0.6 0.6 0.9 1.3167 0.9 2.15s-0.3 1.5333-0.9 2.1v0.05l-0.65 0.5-0.1 0.05-1.25 0.3h-1.1v3zm6.3-7.7-0.7-0.3c-0.2-0.2-0.3-0.43333-0.3-0.7s0.1-0.5 0.3-0.7 0.43333-0.3 0.7-0.3h4l0.7 0.3 0.3 0.7-0.3 0.7-0.7 0.3h-1v7l-0.3 0.7c-0.2 0.2-0.43333 0.3-0.7 0.3l-0.7-0.3-0.3-0.7v-7zm11 5.25 0.2 0.5 0.8 0.25 0.75-0.225 0.25-0.525v-4.45l-0.35-0.625c-0.1-0.075-0.35-0.175-0.65-0.175s-0.56667 0.1-0.65833 0.15l-0.34167 0.65zm-1.15-6.45 0.05-0.05c0.56667-0.5 1.2667-0.75 2.1-0.75 0.76667 0 1.45 0.25 2.05 0.75l0.05 0.05c0.6 0.56667 0.9 1.2333 0.9 2v4.45c0 0.73333-0.3 1.4-0.9 2l-0.05 0.05c-0.6 0.46667-1.2833 0.7-2.05 0.7-0.83333 0-1.5333-0.23333-2.1-0.7l-0.05-0.1c-0.56667-0.56667-0.85-1.2167-0.85-1.95v-4.45c0-0.76667 0.28333-1.4333 0.85-2m-2.15 8.9-0.7 0.3c-0.26667 0-0.5-0.1-0.7-0.3s-0.3-0.43333-0.3-0.7v-8c0-0.26667 0.1-0.5 0.3-0.7s0.43333-0.3 0.7-0.3 0.5 0.1 0.7 0.3l0.3 0.7v8zm8.3-6.9c0-0.76667 0.28333-1.4333 0.85-2l0.05-0.05c0.56667-0.5 1.2667-0.75 2.1-0.75 0.76667 0 1.45 0.25 2.05 0.75l0.05 0.05c0.6 0.56667 0.9 1.2333 0.9 2v6.2l-0.3 0.7-0.7 0.3-0.7-0.3c-0.2-0.2-0.3-0.43333-0.3-0.7v-6.2l-0.35-0.625c-0.1-0.075-0.35-0.175-0.65-0.175s-0.56667 0.1-0.74167 0.23333-0.25833 0.33333-0.25833 0.56667v6.2l-0.3 0.7-0.7 0.3-0.7-0.3c-0.2-0.2-0.3-0.43333-0.3-0.7v-6.2m10-0.8c-0.26667 0-0.5 0.1-0.7 0.3s-0.3 0.43333-0.3 0.7 0.1 0.5 0.3 0.7l1.0833 0.3c0.43333 0 1.1167 0.3 1.7167 0.9s0.9 1.3 0.9 2.1-0.3 1.5-0.9 2.1-1.3 0.9-2.1 0.9h-2c-0.26667 0-0.5-0.1-0.7-0.3s-0.3-0.43333-0.3-0.7 0.1-0.5 0.3-0.7 0.43333-0.3 0.7-0.3h2c0.26667 0 0.5-0.1 0.7-0.3l0.3-0.7-0.3-0.7c-0.2-0.2-0.41667-0.3-0.65-0.3h-0.1c-0.76667 0-1.45-0.3-2.05-0.9s-0.9-1.3-0.9-2.1 0.3-1.5 0.9-2.1 1.3-0.9 2.1-0.9h2c0.26667 0 0.5 0.1 0.7 0.3l0.3 0.7-0.3 0.7-0.7 0.3h-2m-19 14c2.2 0 4.0833 0.78333 5.65 2.35s2.35 3.45 2.35 5.65v12l-0.15 1.6c-0.3 1.5333-1.0333 2.8833-2.2 4.05-1.5667 1.5667-3.45 2.35-5.65 2.35s-4.0833-0.78333-5.65-2.35c-1.1667-1.1667-1.9-2.5167-2.2-4.05l-0.15-1.6v-12c0-2.2 0.78333-4.0833 2.35-5.65s3.45-2.35 5.65-2.35m0 3c-1.3667 0-2.5333 0.5-3.5 1.5-1 0.96667-1.5 2.1333-1.5 3.5v12l0.1 1v0.05c0.2 0.93333 0.66667 1.7667 1.4 2.5 0.96667 0.96667 2.1333 1.45 3.5 1.45s2.55-0.48333 3.55-1.45c0.7-0.73333 1.15-1.5667 1.35-2.5v-0.05l0.1-1v-12c0-1.3667-0.48333-2.5333-1.45-3.5-1-1-2.1833-1.5-3.55-1.5" color="#000000" fill="#fff" stroke-width="8" style="-inkscape-stroke:none;paint-order:stroke markers fill"/>
</g>
</svg>
