<?xml version="1.0" encoding="UTF-8"?>
<svg version="1.1" viewBox="0 0 64 64" xmlns="http://www.w3.org/2000/svg">
<g stroke-linejoin="round">
<path d="m26 4c-1.4535 0-3.1323 0.71126-4.2031 1.7969-1.0856 1.0708-1.7969 2.7496-1.7969 4.2031v9.1504c0 0.35201 0.15418 0.71348 0.22656 1.0762-0.3627-0.072386-0.72416-0.22656-1.0762-0.22656h-9.1504c-1.4535 0-3.1323 0.71126-4.2031 1.7969-1.0856 1.0708-1.7969 2.7496-1.7969 4.2031v12c0 1.5078 0.70366 3.2115 1.7715 4.2793 1.0952 1.0952 2.7991 1.7207 4.2285 1.7207h9.1504c1.4294 0 3.0588-0.59912 4.1523-1.6016a4.0004 4.0004 0 0 0 0.125-0.11914l6-6a4.0004 4.0004 0 0 0 0.12109-0.12695c1.0024-1.0936 1.6016-2.7229 1.6016-4.1523 0-0.33962-0.14624-0.70569-0.21484-1.0645 0.35876 0.06861 0.72483 0.21484 1.0645 0.21484 0.35101 0 0.71775-0.13965 1.082-0.20898-0.07189 0.35715-0.23242 0.71783-0.23242 1.0586 0 1.5078 0.70366 3.2115 1.7715 4.2793l6 6c1.0952 1.0952 2.7991 1.7207 4.2285 1.7207h9.1504c1.4294 0 3.0588-0.59912 4.1523-1.6016a4.0004 4.0004 0 0 0 0.24609-0.24609c1.0024-1.0936 1.6016-2.7229 1.6016-4.1523v-12c0-1.4294-0.6255-3.1333-1.7207-4.2285-1.0678-1.0678-2.7715-1.7715-4.2793-1.7715h-9.1504c-0.34076 0-0.70144 0.16053-1.0586 0.23242 0.069477-0.36465 0.20898-0.73066 0.20898-1.082v-9.1504c0-1.4294-0.6255-3.1333-1.7207-4.2285-1.0678-1.0678-2.7715-1.7715-4.2793-1.7715zm2 8h8v6.3926l-3.9766 3.9746-4.0234-4.0234zm-16 16h6.3438l4.0234 4.0234-3.9746 3.9766h-6.3926zm33.707 0h6.293v8h-6.3418l-3.9746-3.9766z" color="#000000" style="-inkscape-stroke:none;paint-order:stroke markers fill"/>
<path d="m32 32.85c-1.5078 0-3.2874 0.74181-4.3477 1.8984l0.11914-0.12695-6 6 0.125-0.11914c-1.1566 1.0602-1.8965 2.8398-1.8965 4.3477v9.1504c0 1.5078 0.70366 3.2115 1.7715 4.2793 1.0952 1.0952 2.7991 1.7207 4.2285 1.7207h12c1.4294 0 3.0588-0.59912 4.1523-1.6016a4.0004 4.0004 0 0 0 0.24609-0.24609c1.0024-1.0936 1.6016-2.7229 1.6016-4.1523v-9.1504c0-1.4294-0.6255-3.1333-1.7207-4.2285l-6-6c-1.0678-1.0678-2.7715-1.7715-4.2793-1.7715zm0.02344 8.834 3.9766 3.9746v6.3418h-8v-6.293z" color="#000000" style="-inkscape-stroke:none;paint-order:stroke markers fill"/>
<path d="m40 10v9.15q0 0.85-0.55 1.45l-6 6q-0.6 0.55-1.45 0.55t-1.4-0.55l-6-6q-0.6-0.6-0.6-1.45v-9.15q0-0.85 0.6-1.4 0.55-0.6 1.4-0.6h12q0.85 0 1.45 0.6 0.55 0.55 0.55 1.4m16 16v12q0 0.85-0.55 1.45-0.6 0.55-1.45 0.55h-9.15q-0.85 0-1.4-0.55l-6-6q-0.6-0.6-0.6-1.45t0.6-1.4l6-6q0.55-0.6 1.4-0.6h9.15q0.85 0 1.45 0.6 0.55 0.55 0.55 1.4m-36.85 14h-9.15q-0.85 0-1.4-0.55-0.6-0.6-0.6-1.45v-12q0-0.85 0.6-1.4 0.55-0.6 1.4-0.6h9.15q0.85 0 1.45 0.6l6 6q0.55 0.55 0.55 1.4t-0.55 1.45l-6 6q-0.6 0.55-1.45 0.55" color="#000000" fill="#fff" stroke-width="8" style="-inkscape-stroke:none;paint-order:stroke markers fill"/>
<path d="m33.45 37.45 6 6q0.55 0.55 0.55 1.4v9.15q0 0.85-0.55 1.45-0.6 0.55-1.45 0.55h-12q-0.85 0-1.4-0.55-0.6-0.6-0.6-1.45v-9.15q0-0.85 0.6-1.4l6-6q0.55-0.6 1.4-0.6t1.45 0.6" color="#000000" fill="#e73246" stroke-width="8" style="-inkscape-stroke:none;paint-order:stroke markers fill"/>
</g>
</svg>
