<?xml version="1.0" encoding="UTF-8"?>
<svg version="1.1" viewBox="0 0 64 64" xmlns="http://www.w3.org/2000/svg">
<g stroke-linecap="round" stroke-linejoin="round">
<path d="m26 4c-1.4535 0-3.1323 0.71126-4.2031 1.7969-1.0856 1.0708-1.7969 2.7496-1.7969 4.2031v9.1504c0 0.35201 0.15418 0.71348 0.22656 1.0762-0.3627-0.072386-0.72416-0.22656-1.0762-0.22656h-9.1504c-1.4535 0-3.1323 0.71126-4.2031 1.7969-1.0856 1.0708-1.7969 2.7496-1.7969 4.2031v12c0 1.5078 0.70366 3.2115 1.7715 4.2793 1.0952 1.0952 2.7991 1.7207 4.2285 1.7207h9.1504c0.35137 0 0.71738-0.13951 1.082-0.20898-0.071892 0.35715-0.23242 0.71783-0.23242 1.0586v9.1504c0 1.5078 0.70366 3.2115 1.7715 4.2793 1.0952 1.0952 2.7991 1.7207 4.2285 1.7207h12c1.4294 0 3.0588-0.59912 4.1523-1.6016 0.08556-0.07842 0.16767-0.16053 0.24609-0.24609 1.0024-1.0936 1.6016-2.7229 1.6016-4.1523v-9.1504c0-0.33924-0.14443-0.70415-0.21289-1.0625 0.35835 0.068457 0.72326 0.21289 1.0625 0.21289h9.1504c1.4294 0 3.0588-0.59912 4.1523-1.6016 0.08556-0.07842 0.16767-0.16053 0.24609-0.24609 1.0024-1.0936 1.6016-2.7229 1.6016-4.1523v-12c-4.64e-4 -0.52771-0.10534-1.0501-0.30859-1.5371-0.27016-0.99441-0.69266-1.972-1.4121-2.6914-1.0678-1.0678-2.7715-1.7715-4.2793-1.7715h-9.1504c-0.34076 0-0.70144 0.16053-1.0586 0.23242 0.069477-0.36465 0.20898-0.73066 0.20898-1.082v-9.1504c-4.64e-4 -0.52771-0.10534-1.0501-0.30859-1.5371-0.27016-0.99441-0.69266-1.972-1.4121-2.6914-1.0678-1.0678-2.7715-1.7715-4.2793-1.7715zm4.9355 26.936c0.35876 0.06861 0.72483 0.21484 1.0645 0.21484 0.35101 0 0.71775-0.13965 1.082-0.20898-0.07189 0.35715-0.23242 0.71783-0.23242 1.0586 0 0.35201 0.15418 0.71348 0.22656 1.0762-0.3627-0.072387-0.72416-0.22656-1.0762-0.22656-0.34076 0-0.70144 0.16053-1.0586 0.23242 0.06934-0.36428 0.20898-0.73102 0.20898-1.082 0-0.33962-0.14624-0.70569-0.21484-1.0645z" color="#000000" style="-inkscape-stroke:none;paint-order:stroke markers fill"/>
<path d="m27 18.75 5.05 5.05 4.95-5v-7.8h-10zm13-8.75v9.15c0 0.56667-0.18333 1.05-0.55 1.45l-6 6c-0.4 0.36667-0.88333 0.55-1.45 0.55s-1.0333-0.18333-1.4-0.55l-6-6c-0.4-0.4-0.6-0.88333-0.6-1.45v-9.15c0-0.56667 0.2-1.0333 0.6-1.4 0.36667-0.4 0.83333-0.6 1.4-0.6h12c0.56667 0 1.05 0.2 1.45 0.6 0.36667 0.36667 0.55 0.83333 0.55 1.4m16 16v12c0 0.56667-0.18333 1.05-0.55 1.45-0.4 0.36667-0.88333 0.55-1.45 0.55h-9.15c-0.56667 0-1.0333-0.18333-1.4-0.55l-6-6c-0.4-0.4-0.6-0.88333-0.6-1.45s0.2-1.0333 0.6-1.4l6-6c0.36667-0.4 0.83333-0.6 1.4-0.6h9.15c0.56667 0 1.05 0.2 1.45 0.6 0.36667 0.36667 0.55 0.83333 0.55 1.4m-22.55 11.45 6 6c0.36667 0.36667 0.55 0.83333 0.55 1.4v9.15c0 0.56667-0.18333 1.05-0.55 1.45-0.4 0.36667-0.88333 0.55-1.45 0.55h-12c-0.56667 0-1.0333-0.18333-1.4-0.55-0.4-0.4-0.6-0.88333-0.6-1.45v-9.15c0-0.56667 0.2-1.0333 0.6-1.4l6-6c0.36667-0.4 0.83333-0.6 1.4-0.6s1.05 0.2 1.45 0.6m-6.45 15.55h10v-7.75l-4.95-4.95-5.05 5zm-7.85-13h-9.15c-0.56667 0-1.0333-0.18333-1.4-0.55-0.4-0.4-0.6-0.88333-0.6-1.45v-12c0-0.56667 0.2-1.0333 0.6-1.4 0.36667-0.4 0.83333-0.6 1.4-0.6h9.15c0.56667 0 1.05 0.2 1.45 0.6l6 6c0.36667 0.36667 0.55 0.83333 0.55 1.4s-0.18333 1.05-0.55 1.45l-6 6c-0.4 0.36667-0.88333 0.55-1.45 0.55m-0.35-3 5-4.95-5.05-5.05h-7.75v10z" color="#000000" fill="#fff" stroke-width="8" style="-inkscape-stroke:none;paint-order:stroke markers fill"/>
</g>
</svg>
