<?xml version="1.0" encoding="UTF-8"?>
<svg version="1.1" viewBox="0 0 64 64" xmlns="http://www.w3.org/2000/svg">
<path d="m26 4c-1.4535 0-3.1323 0.71126-4.2031 1.7969-1.0856 1.0708-1.7969 2.7496-1.7969 4.2031v9.1504c0 1.5078 0.70366 3.2095 1.7715 4.2773l6 6c1.0952 1.0952 2.7991 1.7227 4.2285 1.7227s3.0588-0.59912 4.1523-1.6016l0.06445-0.05859 6.123-6.123 0.05859-0.06445c1.0024-1.0936 1.6016-2.7229 1.6016-4.1524v-9.1504c0-1.4294-0.6255-3.1333-1.7207-4.2285-1.0678-1.0678-2.7715-1.7715-4.2793-1.7715zm2 8h8v6.3926l-3.9766 3.9746-4.0234-4.0234z" color="#000000" style="-inkscape-stroke:none;paint-order:stroke markers fill"/>
<path d="m10 20c-1.4535 0-3.1323 0.71126-4.2031 1.7969-1.0856 1.0708-1.7969 2.7496-1.7969 4.2031v12c0 1.5078 0.70366 3.2115 1.7715 4.2793 1.0952 1.0952 2.7991 1.7207 4.2285 1.7207h9.1504c0.35137 0 0.71738-0.13951 1.082-0.20898-0.071892 0.35715-0.23242 0.71783-0.23242 1.0586v9.1504c0 1.5078 0.70366 3.2115 1.7715 4.2793 1.0952 1.0952 2.7991 1.7207 4.2285 1.7207h12c1.4294 0 3.0588-0.59912 4.1523-1.6016l0.12891-0.11719 0.11719-0.12891c1.0024-1.0936 1.6016-2.7229 1.6016-4.1523v-9.1504c0-0.33924-0.14443-0.70415-0.21289-1.0625 0.35835 0.068457 0.72326 0.21289 1.0625 0.21289h9.1504c1.4294 0 3.0588-0.59912 4.1523-1.6016l0.12891-0.11719 0.11719-0.12891c1.0024-1.0936 1.6016-2.7229 1.6016-4.1523v-12c0-1.4294-0.6255-3.1333-1.7207-4.2285-1.0678-1.0678-2.7715-1.7715-4.2793-1.7715h-9.1504c-1.5078 0-3.2874 0.73986-4.3477 1.8965l0.11914-0.125-6 6 0.12695-0.11914c-1.1566 1.0602-1.8984 2.8398-1.8984 4.3477 0 0.35201 0.15418 0.71348 0.22656 1.0762-0.3627-0.072386-0.72416-0.22656-1.0762-0.22656-0.34076 0-0.70144 0.16053-1.0586 0.23242 0.06934-0.36428 0.20898-0.73102 0.20898-1.082 0-1.4294-0.62746-3.1333-1.7227-4.2285l-6-6c-1.0678-1.0678-2.7695-1.7715-4.2773-1.7715zm2 8h6.3438l4.0234 4.0234-3.9746 3.9766h-6.3926zm33.707 0h6.293v8h-6.3418l-3.9746-3.9766zm-13.684 13.684 3.9766 3.9746v6.3418h-8v-6.293z" color="#000000" style="-inkscape-stroke:none;paint-order:stroke markers fill"/>
<path d="m40 10v9.15q0 0.85-0.55 1.45l-6 6q-0.6 0.55-1.45 0.55t-1.4-0.55l-6-6q-0.6-0.6-0.6-1.45v-9.15q0-0.85 0.6-1.4 0.55-0.6 1.4-0.6h12q0.85 0 1.45 0.6 0.55 0.55 0.55 1.4" color="#000000" fill="#e73246" stroke-width="8" style="-inkscape-stroke:none;paint-order:stroke markers fill"/>
<path d="m56 26v12q0 0.85-0.55 1.45-0.6 0.55-1.45 0.55h-9.15q-0.85 0-1.4-0.55l-6-6q-0.6-0.6-0.6-1.45t0.6-1.4l6-6q0.55-0.6 1.4-0.6h9.15q0.85 0 1.45 0.6 0.55 0.55 0.55 1.4m-22.55 11.45 6 6q0.55 0.55 0.55 1.4v9.15q0 0.85-0.55 1.45-0.6 0.55-1.45 0.55h-12q-0.85 0-1.4-0.55-0.6-0.6-0.6-1.45v-9.15q0-0.85 0.6-1.4l6-6q0.55-0.6 1.4-0.6t1.45 0.6m-14.3 2.55h-9.15q-0.85 0-1.4-0.55-0.6-0.6-0.6-1.45v-12q0-0.85 0.6-1.4 0.55-0.6 1.4-0.6h9.15q0.85 0 1.45 0.6l6 6q0.55 0.55 0.55 1.4t-0.55 1.45l-6 6q-0.6 0.55-1.45 0.55" color="#000000" fill="#fff" stroke-width="8" style="-inkscape-stroke:none;paint-order:stroke markers fill"/>
</svg>
