<?xml version="1.0" encoding="UTF-8"?>
<svg version="1.1" viewBox="0 0 64 64" xmlns="http://www.w3.org/2000/svg">
<path d="m24 4c-3.1495 0-6.2499 1.2928-8.4785 3.5215-2.2286 2.2286-3.5215 5.329-3.5215 8.4785v13.877c-0.14689 4.2914-1.2683 8.0918-3.4219 11.652-1.3626 2.2318-2.405 4.0541-3.1562 5.5566-0.75313 1.5063-1.4219 2.1913-1.4219 4.5137 0 2.2537 1.0976 4.5701 2.7363 6.0684 1.6213 1.5303 3.907 2.332 6.0645 2.332h27.199c5.3495 0 10.334-2.0758 14.129-5.8711 3.7953-3.7953 5.8711-8.7794 5.8711-14.129v-24.928l-0.01563-0.17774c-0.24701-2.7666-1.5334-5.4006-3.5059-7.373-2.2286-2.2286-5.329-3.5215-8.4785-3.5215zm0 8h24c1.2505 0 1.9176 0.27304 2.8223 1.1777 0.80715 0.80715 1.084 1.4381 1.1777 2.3652v8.6602l-0.048828-0.13086-1.5137-2.041-0.25977-0.25977c-1.7296-1.7296-4.2296-2.7715-6.6777-2.7715h-1.7012l-0.05078 2e-3c-2.1977 0.05635-4.4418 0.99254-6.0254 2.5195l-0.02539 0.02344-0.1582 0.16016-0.0332 0.0332c-1.1757 1.2317-2.0386 2.8497-2.3438 4.5586l-0.027347 0.1523-0.55469 5.5508h-1.5801v-13h-11v-3c0-1.2505 0.27304-1.9176 1.1777-2.8223 0.9047-0.90469 1.5718-1.1777 2.8223-1.1777zm28 19.574v0.42578h-0.13867c0.061446-0.13561 0.083913-0.2869 0.13867-0.42578zm-33 5.3555v7.0703h32.271c-0.55758 1.5965-1.4031 3.073-2.8008 4.4707-2.4714 2.4714-5.0202 3.5293-8.4707 3.5293h-27.199c-0.55366 0-0.46867-0.02757-0.57812-0.13281l-0.05078-0.04883-0.0059-0.0059c0.08258-0.29702 0.17623-0.67668 0.41211-1.1484 0.5802-1.1604 1.5368-2.8512 2.8359-4.9785l0.0078-0.0156c1.6545-2.7353 2.815-5.6758 3.5782-8.7402z" color="#000000" style="-inkscape-stroke:none;paint-order:stroke markers fill"/>
<path d="m23 40h12v-4h-8v-13h-4zm-7-24c0-2.2 0.78333-4.0833 2.35-5.65 1.5667-1.5667 3.45-2.35 5.65-2.35h24c2.2 0 4.0833 0.78333 5.65 2.35 1.4 1.4 2.1833 3.0333 2.35 4.9v24.75c0 4.4-1.5667 8.1667-4.7 11.3s-6.9 4.7-11.3 4.7h-27.2c-1.3667 0-2.4833-0.41667-3.35-1.25-0.96667-0.86667-1.45-1.9167-1.45-3.15 0-0.96667 1.3333-3.6333 4-8 2.5-4.1333 3.8333-8.6667 4-13.6zm28.5 11.4c0.5 0.5 0.33333 1.1833-0.5 2.05l-7 6.55v4h12v-4h-6l4.45-4.45c1.4667-1.4667 1.7833-3.3167 0.95-5.55l-1-1.35-0.05-0.05c-1.0667-1.0667-2.35-1.6-3.85-1.6h-1.65c-1.3 0.03333-2.4167 0.5-3.35 1.4l-0.1 0.1c-0.7 0.73333-1.1333 1.5667-1.3 2.5l-0.1 1h4c0-0.26667 0.1-0.5 0.3-0.7 0.16667-0.16667 0.35-0.26667 0.55-0.3h1.65c0.4 0 0.73333 0.13333 1 0.4" color="#000000" fill="#fff" stroke-width="8" style="-inkscape-stroke:none;paint-order:stroke markers fill"/>
</svg>
