<?xml version="1.0" encoding="UTF-8"?>
<svg version="1.1" viewBox="0 0 64 64" xmlns="http://www.w3.org/2000/svg">
<g stroke-linecap="round" stroke-linejoin="round">
<path d="m32 6c-3.8547 0-7.5363 0.83923-10.844 2.5273-2.232 1.1003-4.2911 2.5897-6.1543 4.4141a4.0004 4.0004 0 0 0-0.05469 0.05469c-4.524 4.602-6.9473 10.539-6.9473 17.004v16c0 3.1495 1.2928 6.2499 3.5215 8.4785 2.2286 2.2286 5.329 3.5215 8.4785 3.5215h24a4.0004 4.0004 0 0 0 0.5293-0.03516l2.25-0.30078a4.0004 4.0004 0 0 0 0.57031-0.11719c1.8004-0.51441 3.4524-1.4905 4.8262-2.7695a4.0004 4.0004 0 0 0 0.10352-0.09961l0.64844-0.64844a4.0004 4.0004 0 0 0 0.21484-0.23242c1.693-1.9833 2.7069-4.5208 2.8516-7.125a4.0004 4.0004 0 0 0 0.005859-0.22265v-16.85a4.0004 4.0004 0 0 0-0.01172-0.29492l-0.19922-2.6992a4.0004 4.0004 0 0 0-0.07617-0.5332l-0.54883-2.5996a4.0004 4.0004 0 0 0-0.07813-0.30273c-1.1264-3.8218-3.2371-7.2781-6.1582-10.199a4.0004 4.0004 0 0 0-0.01172-0.01172c-4.5676-4.5286-10.479-6.959-16.916-6.959zm-11.092 6.1113c-0.01901 0.01129-0.03376 0.02966-0.05273 0.04102-0.01763 0.01116-0.03904 0.01417-0.05664 0.02539zm11.092 4.8887c3.72 0 6.5102 1.1476 9.1777 3.7852 0.06847 0.06855 0.10342 0.1459 0.16992 0.21484h-3.3477a4.0004 4.0004 0 0 0-2.8281 1.1719l-3 3a4.0004 4.0004 0 0 0-1.1719 2.8281v1.9492a4.0004 4.0004 0 0 0 3 3.5859v0.46484h-4v-9a4.0004 4.0004 0 0 0-4-4h-3.4492c0.07726-0.08194 0.12704-0.16837 0.20703-0.25l0.02148-0.02148c0.71447-0.71447 1.4475-1.2839 2.2129-1.7383a4.0004 4.0004 0 0 0 0.10742-0.06641c2.0233-1.2898 4.207-1.9238 6.9004-1.9238zm-13 27.414a4.0004 4.0004 0 0 0 3 1.5859h12a4.0004 4.0004 0 0 0 2-0.82812 4.0004 4.0004 0 0 0 2 0.82812h4a4.0004 4.0004 0 0 0 3-1.5859v1.6582c-0.01949 0.27834-0.08192 0.40005-0.20508 0.57422-3.72e-4 5.26e-4 3.73e-4 0.0014 0 2e-3 -5.06e-4 7.15e-4 -0.0014 0.0012-2e-3 2e-3l-0.0039 2e-3c-0.17856 0.16766-0.31191 0.22131-0.45312 0.29102l-0.54293 0.056497h-23.793c-0.42358 0-0.37168 0.0209-0.67188-0.2793-0.35575-0.35575-0.32812-0.32965-0.32812-0.7207z" color="#000000" style="-inkscape-stroke:none;paint-order:stroke markers fill"/>
<path d="m42 42h-4v-12.05h-3v-1.95l3-3h4zm7 4v-16.4l-0.15-2.25-0.5-2.25 0.05 0.05c-0.83333-2.7-2.3-5.1-4.4-7.2-3.3333-3.3-7.3333-4.95-12-4.95-3.3667 0-6.3833 0.85-9.05 2.55-1.0667 0.63333-2.0667 1.4167-3 2.35l-0.05 0.05c-3.2667 3.3333-4.9 7.35-4.9 12.05v16c0 1.3667 0.5 2.55 1.5 3.55 0.96667 0.96667 2.1333 1.45 3.5 1.45h24l1.45-0.15c0.76667-0.26667 1.4667-0.7 2.1-1.3l0.4-0.4c0.63333-0.83333 0.98333-1.7833 1.05-2.85v-0.3m-37-16c0-5.5333 1.9333-10.267 5.8-14.2 1.6-1.5667 3.3167-2.8 5.15-3.7 2.7333-1.4 5.75-2.1 9.05-2.1 5.5 0 10.2 1.9333 14.1 5.8 2.5 2.5 4.2167 5.3333 5.15 8.5l0.55 2.6 0.2 2.7v16.85c-0.1 1.8-0.73333 3.3833-1.9 4.75l-0.65 0.65c-0.96667 0.9-2.0333 1.5167-3.2 1.85l-2.25 0.3h-24c-2.2 0-4.0833-0.78333-5.65-2.35s-2.35-3.45-2.35-5.65v-16m14-5v13h8v4h-12v-17z" color="#000000" fill="#fff" stroke-width="8" style="-inkscape-stroke:none;paint-order:stroke markers fill"/>
</g>
</svg>
