<?xml version="1.0" encoding="UTF-8"?>
<svg version="1.1" viewBox="0 0 64 64" xmlns="http://www.w3.org/2000/svg">
<g stroke-linejoin="round">
<path d="m16.461 19.705a4.0004 4.0004 0 0 0-0.12305 2e-3c-3.1812 0.10099-6.2486 1.4126-8.502 3.666-2.2734 2.2734-3.6412 5.348-3.752 8.5664a4.0004 4.0004 0 0 0-0.011719 0.17383v2.416a4.0004 4.0004 0 0 0 0.011719 0.16797c0.063153 2.0153 0.67994 4.2854 2.4043 6.0098 1.7368 1.7368 4.0268 2.3584 6.0566 2.4141a4.0004 4.0004 0 0 0 0.10938 2e-3h0.95898v8.3242c0 2.0619 0.54518 4.4098 2.2539 6.2324 1.719 1.8336 4.0612 2.5277 6.1523 2.6113a4.0004 4.0004 0 0 0 0.16016 0.0039h19.641a4.0004 4.0004 0 0 0 0.16016-0.0039c2.0912-0.08364 4.4334-0.77778 6.1523-2.6113 1.7087-1.8226 2.2539-4.1705 2.2539-6.2324v-8.3242h0.95898a4.0004 4.0004 0 0 0 0.10938-2e-3c2.0299-0.05561 4.3199-0.67729 6.0566-2.4141 1.7232-1.7232 2.3385-3.9915 2.4023-6.0059a4.0004 4.0004 0 0 0 0.01367-0.17188v-2.4648a4.0004 4.0004 0 0 0-0.01172-0.17969c-0.11071-3.1457-1.4046-6.1612-3.5781-8.4336a4.0004 4.0004 0 0 0-0.0625-0.0625l-0.01563-0.01563a4.0004 4.0004 0 0 0-0.08008-0.07813l-0.0059-0.0039c-2.2918-2.1898-5.3388-3.4833-8.5117-3.584a4.0004 4.0004 0 0 0-0.12695-2e-3h-31.053a4.0004 4.0004 0 0 0-0.0039 0zm0.18359 10.062h30.709c0.83819 0.02767 1.1479 0.16476 1.7402 0.70703 0.61616 0.65689 0.74125 0.93026 0.76953 1.7617v0.82422h-5.5391a4.0004 4.0004 0 0 0-4 4v13.172h-16.648v-13.172a4.0004 4.0004 0 0 0-4-4h-5.5391v-0.78711c0.02931-0.86031 0.10645-1.0772 0.81445-1.7852 0.61286-0.61286 0.78285-0.69078 1.6934-0.7207z" color="#000000" style="-inkscape-stroke:none;paint-order:stroke markers fill"/>
<path d="m25.6 5c-1.8508 0-3.4993 0.72651-4.7617 2.0723-1.234 1.2859-1.8379 2.8863-1.8379 4.5781 0 1.667 0.57312 3.2546 1.7344 4.5449 0.02894 0.03222 0.05813 0.06424 0.08789 0.0957a4.0004 4.0004 0 0 0 0.02344 0.02539l6.3789 6.627-0.08984-0.09766c1.2999 1.4443 3.006 2.1543 4.8652 2.1543 1.8744 0 3.4729-0.75219 4.6855-1.9648 0.01369-0.01364 0.02748-0.02722 0.04102-0.04102a4.0004 4.0004 0 0 0 0.02734-0.02734l6.4004-6.6504a4.0004 4.0004 0 0 0 0.02344-0.02539c0.02976-0.03146 0.05895-0.06348 0.08789-0.0957 1.1613-1.2903 1.7344-2.8779 1.7344-4.5449 0-1.6947-0.58359-3.3551-1.9141-4.6855-1.2126-1.2126-2.8111-1.9648-4.6855-1.9648zm-3.2715 3.3789c-0.0088 0.00876-0.03487 0.059965-0.04492 0.070312-0.0072 0.00798-0.05648 0.038229-0.0625 0.044922l0.07031-0.078125c0.01204-0.012691 0.02485-0.024632 0.03711-0.037109zm-1.1191 3.8398a4.0004 4.0004 0 0 0 0.13672 0.33984c0.24023 0.86442 0.521 1.9031 0.87109 2.293z" color="#000000" stroke-linecap="round" style="-inkscape-stroke:none;paint-order:stroke markers fill"/>
<path d="m16.465 23.705c-2.2355 0.07097-4.2331 0.92838-5.8008 2.4961-1.624 1.624-2.5185 3.6504-2.5898 5.8965l-0.00195 0.01563v2.416l0.00195 0.01367c0.036501 1.3323 0.41577 2.5095 1.2422 3.3359 0.82641 0.82641 2.0056 1.2076 3.3379 1.2441h4.959v12.324c0 1.3917 0.34975 2.6192 1.1719 3.4961 0.82212 0.87693 2.026 1.2968 3.3945 1.3516h19.641c1.3686-0.05474 2.5724-0.47463 3.3945-1.3516 0.82212-0.87693 1.1719-2.1044 1.1719-3.4961v-12.324h4.959c1.3323-0.0365 2.5115-0.41773 3.3379-1.2441 0.82641-0.82641 1.2057-2.0037 1.2422-3.3359l2e-3 -0.01367v-2.4648l-2e-3 -0.01563c-0.07119-2.207-0.92473-4.2076-2.4785-5.832l-0.01563-0.01563-0.01758-0.01563c-1.6271-1.5564-3.6437-2.4095-5.8789-2.4805h-31.053zm0.06641 2.0625h30.938c1.7621 0.05594 3.2049 0.66384 4.498 1.8926 1.2322 1.2944 1.8386 2.7207 1.8965 4.4453v2.3867c-0.02835 0.98359-0.27372 1.5628-0.63867 1.9277-0.36606 0.36606-0.94648 0.61353-1.9355 0.64062h-6.9648v14.387c0 1.0568-0.24489 1.6909-0.61524 2.0859-0.37034 0.39504-0.95628 0.65856-1.9727 0.69922h-19.473c-1.0164-0.040656-1.6023-0.30418-1.9727-0.69922-0.37035-0.39504-0.61524-1.0291-0.61524-2.0859v-14.387h-6.9648c-0.98906-0.0271-1.5695-0.27457-1.9355-0.64062-0.36495-0.36495-0.61033-0.94415-0.63867-1.9277v-2.3398c0.05808-1.7558 0.68739-3.1933 1.9863-4.4922 1.2306-1.2306 2.637-1.8364 4.4082-1.8926z" color="#000000" fill="#fff" stroke-width="8" style="-inkscape-stroke:none;paint-order:stroke markers fill"/>
<path d="m22.342 33.808c-1.3335 1.33e-4 -2.4144 1.081-2.4145 2.4145v12.555c1.33e-4 1.3335 1.081 2.4144 2.4145 2.4145h8.6921l5.6231-0.0019c0.02514 0.0011 0.0503 0.0016 0.07546 0.0019h1.062c1.6233 0 3.2634-0.6697 4.4121-1.8184l0.04716-0.04716c1.1487-1.1487 1.8184-2.7888 1.8184-4.4121 0-0.82866-0.21002-1.6417-0.52628-2.4145 0.31626-0.77271 0.52628-1.5858 0.52628-2.4145 0-1.6386-0.69808-3.2738-1.8505-4.4366-0.91727-0.94937-2.1911-1.4528-3.4991-1.6543-0.29401-0.12288-0.60941-0.18635-0.92807-0.18675h-1.062c-0.02453 2.71e-4 -0.04905 9.14e-4 -0.07356 0.0019-1.5728 0.04765-3.1566 0.70061-4.2555 1.8392-0.79022 0.79695-1.3797 1.8149-1.6411 2.9124-0.01601 0.06606-0.02923 0.13277-0.03962 0.19995l-0.14524 0.96579c-0.21894 1.46 0.9118 2.7729 2.3881 2.7728-0.75093 0.02782-1.4461 0.40365-1.8807 1.0167-0.01672-0.01723-0.0337-0.03421-0.05093-0.05093h-3.3803v-7.2434c-1.34e-4 -1.3335-1.081-2.4144-2.4145-2.4145z" color="#000000" stroke-linecap="round" stroke-width=".96579" style="-inkscape-stroke:none;paint-order:stroke markers fill"/>
<path d="m38 36h-1.1c-1.1 0.03333-2 0.41667-2.7 1.15-0.53333 0.53333-0.88333 1.15-1.05 1.85l-0.15 1h3c0-0.3 0.1-0.55 0.3-0.75 0.2-0.16667 0.43333-0.25 0.7-0.25h1l0.7 0.25 0.3 0.75-0.25 0.65-0.1 0.1-0.45 0.25h-1.2v3h1.2c0.16667 0.03333 0.33333 0.11667 0.5 0.25l0.3 0.75-0.25 0.65-0.1 0.1-0.65 0.25h-1l-0.65-0.25-0.1-0.1-0.25-0.65h-3l0.15 1c0.13333 0.66667 0.46667 1.2667 1 1.8l0.05 0.05c0.73333 0.73333 1.6333 1.1167 2.7 1.15h1.1c1.1 0 2.0333-0.38333 2.8-1.15l0.05-0.05c0.76667-0.76667 1.15-1.7 1.15-2.8 0-0.96667-0.28333-1.8-0.85-2.5 0.56667-0.7 0.85-1.5333 0.85-2.5 0-1.1-0.4-2.05-1.2-2.85-0.73333-0.76667-1.6667-1.15-2.8-1.15m-13 0h-3v13h9v-3h-6z" color="#000000" fill="#fff" stroke-linecap="round" stroke-width="5" style="-inkscape-stroke:none;paint-order:stroke markers fill"/>
<path d="m25.6 9c-0.69523 0-1.3946 0.30635-1.8672 0.81836-0.47074 0.48233-0.73242 1.1603-0.73242 1.832 0 0.68095 0.2518 1.3633 0.70703 1.8691a1.0001 1.0001 0 0 0 0.02148 0.02344l6.3789 6.627c0.47248 0.52497 1.1878 0.83008 1.8926 0.83008 0.68974 0 1.3709-0.30643 1.8574-0.79297a1.0001 1.0001 0 0 0 0.01367-0.01367l6.4004-6.6504a1.0001 1.0001 0 0 0 0.02148-0.02344c0.45524-0.50581 0.70704-1.1882 0.70704-1.8691s-0.25886-1.3741-0.74219-1.8574c-0.48654-0.48654-1.1677-0.79297-1.8574-0.79297zm0 2h12.801c0.17692 0 0.26323 0.0269 0.44336 0.20703 0.11668 0.11668 0.15625 0.19098 0.15625 0.44336 0 0.25156-0.04968 0.36924-0.19336 0.5293l-6.3633 6.6133c-0.18013 0.18013-0.26644 0.20703-0.44336 0.20703-0.22857 0-0.27873-0.02823-0.40625-0.16992a1.0001 1.0001 0 0 0-0.02344-0.02344l-6.377-6.625v-2e-3c-0.14368-0.16001-0.19336-0.27769-0.19336-0.52925 0-0.25238 0.03957-0.32668 0.15625-0.44336a1.0001 1.0001 0 0 0 0.03711-0.03711c0.12752-0.14169 0.17768-0.16992 0.40625-0.16992z" color="#000000" fill="#fff" stroke-linecap="round" stroke-width="8" style="-inkscape-stroke:none;paint-order:stroke markers fill"/>
</g>
</svg>
