<?xml version="1.0" encoding="UTF-8"?>
<svg version="1.1" viewBox="0 0 64 64" xmlns="http://www.w3.org/2000/svg">
<path d="m32 6c-3.8547 0-7.5363 0.83923-10.844 2.5273-2.232 1.1003-4.2911 2.5897-6.1543 4.4141l-0.05468 0.05468c-4.524 4.602-6.9473 10.539-6.9473 17.004v16c0 3.1495 1.2928 6.2499 3.5215 8.4785 2.2286 2.2286 5.329 3.5215 8.4785 3.5215h24.266l2.8027-0.37305 0.28125-0.08008c1.8004-0.51441 3.4524-1.4905 4.8262-2.7695l0.05273-0.04883 0.25-0.25 0.56055-0.5625 0.10352-0.11914c1.693-1.9833 2.7069-4.5208 2.8516-7.125l0.005864-0.11132v-17.109l-0.23047-3.1152-0.63867-3.0176-0.04492-0.14844c-1.1264-3.8218-3.2371-7.2781-6.1582-10.199l-0.0118-0.0118c-4.5675-4.5285-10.479-6.9589-16.916-6.9589zm0 8c4.5592 0 8.0451 1.4351 11.275 4.6348 0.75876 0.75931 1.3134 1.5623 1.8789 2.3652h-8.8105l-5.3438 5.3438v7.6055h3v0.050781h-4v-13h-11.332c0.56003-0.80699 1.2027-1.5924 1.9531-2.3594 1.3206-1.2889 2.6776-2.255 4.0918-2.9492l0.03125-0.01563 0.0293-0.01563c2.152-1.1022 4.4922-1.6601 7.2266-1.6601zm-14 8.1758v23.824h28v-23.777c0.574 1.005 1.0554 2.0415 1.3867 3.1484l0.44336 2.0938 0.16992 2.2832v16.496c-0.05677 0.9716-0.31182 1.5958-0.92969 2.3281l-0.24805 0.25-0.10547 0.10352c-0.52298 0.48522-0.97927 0.71826-1.4727 0.87305l-1.5098 0.20117h-23.734c-1.2505 0-1.9176-0.27304-2.8223-1.1777s-1.1777-1.5718-1.1777-2.8223v-16c0-2.9969 0.68651-5.5138 2-7.8242z" color="#000000" style="-inkscape-stroke:none;paint-order:stroke markers fill"/>
<path d="m38 25-3 3v1.95h3v12.05h4v-17zm-20.2-9.2c1.6-1.5667 3.3167-2.8 5.15-3.7 2.7333-1.4 5.75-2.1 9.05-2.1 5.5 0 10.2 1.9333 14.1 5.8 2.5 2.5 4.2167 5.3333 5.15 8.5l0.55 2.6 0.2 2.7v16.85c-0.1 1.8-0.73333 3.3833-1.9 4.75l-0.65 0.65c-0.96667 0.9-2.0333 1.5167-3.2 1.85l-2.25 0.3h-24c-2.2 0-4.0833-0.78333-5.65-2.35s-2.35-3.45-2.35-5.65v-16c0-5.5333 1.9333-10.267 5.8-14.2zm4.2 26.2h12v-4h-8v-13h-4z" color="#000000" fill="#fff" stroke-width="8" style="-inkscape-stroke:none;paint-order:stroke markers fill"/>
</svg>
