<?xml version="1.0" encoding="UTF-8"?>
<svg version="1.1" viewBox="0 0 64 64" xmlns="http://www.w3.org/2000/svg">
<g stroke-linecap="round" stroke-linejoin="round">
<path d="m24 4c-3.1495 0-6.2499 1.2928-8.4785 3.5215-2.2286 2.2286-3.5215 5.329-3.5215 8.4785v13.877c-0.14689 4.2914-1.2683 8.0918-3.4219 11.652-1.3626 2.2318-2.405 4.0541-3.1562 5.5566-0.75313 1.5063-1.4219 2.1913-1.4219 4.5137 0 2.2537 1.0976 4.5701 2.7363 6.0684 1.6213 1.5303 3.907 2.332 6.0645 2.332h27.199c5.3495 0 10.334-2.0758 14.129-5.8711 3.7953-3.7953 5.8711-8.7794 5.8711-14.129v-24c0-3.1495-1.2928-6.2499-3.5215-8.4785-2.2286-2.2286-5.329-3.5215-8.4785-3.5215zm30.279 5.625 0.0957 0.095703c-0.0158-0.016344-0.04069-0.02284-0.05664-0.039063-0.016221-0.015948-0.022716-0.040841-0.03906-0.05664zm-30.279 5.375h24c0.39106 0 0.31303-0.04343 0.625 0.2793a4.0004 4.0004 0 0 0 0.0957 0.0957c0.32273 0.31197 0.2793 0.23395 0.2793 0.625v4.9902c-1.6123-1.1738-3.5217-1.9902-5.5-1.9902h-1.6504a4.0004 4.0004 0 0 0-0.10156 2e-3c-2.1976 0.05635-4.4418 0.99253-6.0254 2.5195a4.0004 4.0004 0 0 0-0.05078 0.05078l-0.09961 0.09961a4.0004 4.0004 0 0 0-0.06641 0.06641c-1.1757 1.2317-2.0386 2.8497-2.3438 4.5586a4.0004 4.0004 0 0 0-0.04297 0.30469l-0.09961 1a4.0004 4.0004 0 0 0 2.9102 3.9238l-0.63672 0.5957a4.0004 4.0004 0 0 0-0.29296-0.12114h-4v-9a4.0004 4.0004 0 0 0-4-4h-4v-3c0-0.42358-0.0209-0.37168 0.2793-0.67188 0.35575-0.35575 0.32965-0.32812 0.7207-0.32812zm-3.8066 27.836a4.0004 4.0004 0 0 0 2.8066 1.1641h12a4.0004 4.0004 0 0 0 1-0.41406 4.0004 4.0004 0 0 0 1 0.41406h10.988c-0.42387 0.80994-0.89094 1.596-1.666 2.3711-1.8696 1.8696-3.7026 2.6289-6.3223 2.6289h-23.055c0.35658-0.596 0.56334-0.97547 1.0098-1.6992a4.0004 4.0004 0 0 0 0.0293-0.10547c0.8506-1.4068 1.5722-2.8668 2.209-4.3594zm-11.502 12.609a4.0004 4.0004 0 0 0 0.087891 0.07422c0.0054 0.0049 0.00826 0.01472 0.013672 0.01953z" color="#000000" style="-inkscape-stroke:none;paint-order:stroke markers fill"/>
<path d="m11 51.6c0 0.36667 0.15 0.68333 0.45 0.95l0.05 0.05c0.36667 0.26667 0.8 0.4 1.3 0.4h27.2c3.5667 0 6.6167-1.2667 9.15-3.8 2.5667-2.5667 3.85-5.6333 3.85-9.2v-24c0-1.3667-0.5-2.5333-1.5-3.5-0.96667-1-2.1333-1.5-3.5-1.5h-24c-1.3667 0-2.55 0.5-3.55 1.5-0.96667 0.96667-1.45 2.1333-1.45 3.5v14.1c-0.2 5.4667-1.6833 10.483-4.45 15.05v0.05c-2.2 3.5667-3.3833 5.7-3.55 6.4zm33.5-24.2c-0.26667-0.26667-0.6-0.4-1-0.4h-1.65c-0.2 0.03333-0.38333 0.13333-0.55 0.3-0.2 0.2-0.3 0.43333-0.3 0.7h-4l0.1-1c0.16667-0.93333 0.6-1.7667 1.3-2.5l0.1-0.1c0.93333-0.9 2.05-1.3667 3.35-1.4h1.65c1.5 0 2.7833 0.53333 3.85 1.6l0.05 0.05 1 1.35c0.83333 2.2333 0.51667 4.0833-0.95 5.55l-4.45 4.45h6v4h-12v-4l7-6.55c0.83333-0.86667 1-1.55 0.5-2.05m-28.5 2.6v-14c0-2.2 0.78333-4.0833 2.35-5.65 1.5667-1.5667 3.45-2.35 5.65-2.35h24c2.2 0 4.0833 0.78333 5.65 2.35 1.5667 1.5667 2.35 3.45 2.35 5.65v24c0 4.4-1.5667 8.1667-4.7 11.3s-6.9 4.7-11.3 4.7h-27.2c-1.3667 0-2.4833-0.41667-3.35-1.25-0.96667-0.86667-1.45-1.9167-1.45-3.15 0-0.96667 1.3333-3.6333 4-8 2.5-4.1333 3.8333-8.6667 4-13.6m11-7v13h8v4h-12v-17z" color="#000000" fill="#fff" stroke-width="8" style="-inkscape-stroke:none;paint-order:stroke markers fill"/>
</g>
</svg>
