<?xml version="1.0" encoding="UTF-8"?>
<svg version="1.1" viewBox="0 0 64 64" xmlns="http://www.w3.org/2000/svg">
<path d="m32 6c-6.4651 0-12.402 2.4232-17.004 6.9473l-0.02539 0.02344-0.02344 0.02539c-4.524 4.602-6.9473 10.539-6.9473 17.004v16c0 3.1495 1.2928 6.2499 3.5215 8.4785l0.24805 0.24805 0.04883 0.04492c2.1988 2.0554 5.1716 3.2285 8.1816 3.2285h24.266l2.8027-0.37305 0.28125-0.08008c1.8004-0.51441 3.4524-1.4905 4.8262-2.7695l0.05273-0.04883 0.25-0.25 0.56055-0.5625 0.10352-0.11914c1.693-1.9833 2.7069-4.5208 2.8516-7.125l0.005864-0.11132v-17.109l-0.23047-3.1152-0.63867-3.0176-0.04492-0.14844c-1.1264-3.8218-3.2371-7.2781-6.1582-10.199l-0.0118-0.0118c-4.5675-4.5285-10.479-6.9589-16.916-6.9589zm0 8c4.5592 0 8.0451 1.4351 11.275 4.6348 0.75876 0.75931 1.3134 1.5623 1.8789 2.3652h-7.8105l-2.6113 2.6113-0.96094-0.80078-0.15039-0.10352c-1.6389-1.1302-3.6527-1.707-5.6211-1.707h-9.332c0.56255-0.81061 1.2082-1.5988 1.9629-2.3691 3.2573-3.1914 6.7798-4.6309 11.369-4.6309zm-15 10.227v21.773h30v-21.508c0.11053 0.3002 0.29425 0.56996 0.38672 0.87891l0.44336 2.0938 0.16992 2.2832v16.496c-0.05677 0.9716-0.31182 1.5958-0.92969 2.3281l-0.24805 0.25-0.10547 0.10352c-0.52298 0.48522-0.97927 0.71826-1.4727 0.87305l-1.5098 0.20117h-23.734c-1.1854 0-1.846-0.26241-2.709-1.0664l-0.11328-0.11133c-0.90469-0.90469-1.1777-1.5718-1.1777-2.8223v-16c0-2.1339 0.34707-4.0201 1-5.7734zm9.2949 6.0684 0.70508 0.70508-0.71484 0.71484c-0.11445-0.27035-0.28516-0.48135-0.28516-0.71484 0-0.18269 0.18845-0.43597 0.29492-0.70508zm8.7051 7.8125v0.0098l-0.07227 0.0625z" color="#000000" style="-inkscape-stroke:none;paint-order:stroke markers fill"/>
<path d="m21 42h4v-5h3l2.5 5h4l-3.05-6.1 0.75-0.65 0.05-0.05 0.95-1.2c0.53333-0.9 0.8-1.9 0.8-3 0-1.6667-0.58333-3.0833-1.75-4.25l-0.9-0.75c-0.96667-0.66667-2.0833-1-3.35-1h-7zm18-17-3 3v1.95h3v12.05h4v-17zm-27 5c0-5.5333 1.9333-10.267 5.8-14.2 3.9333-3.8667 8.6667-5.8 14.2-5.8 5.5 0 10.2 1.9333 14.1 5.8 2.5 2.5 4.2167 5.3333 5.15 8.5l0.55 2.6 0.2 2.7v16.85c-0.1 1.8-0.73333 3.3833-1.9 4.75l-0.65 0.65c-0.96667 0.9-2.0333 1.5167-3.2 1.85l-2.25 0.3h-24c-2.1 0-3.9167-0.71667-5.45-2.15l-0.2-0.2c-1.5667-1.5667-2.35-3.45-2.35-5.65v-16m16-1c0.53333 0 1 0.2 1.4 0.6s0.6 0.86667 0.6 1.4-0.18333 0.98333-0.55 1.35l-0.1 0.1c-0.36667 0.36667-0.81667 0.55-1.35 0.55h-3v-4h3" color="#000000" fill="#fff" stroke-width="8" style="-inkscape-stroke:none;paint-order:stroke markers fill"/>
</svg>
