<?xml version="1.0" encoding="UTF-8"?>
<svg version="1.1" viewBox="0 0 64 64" xmlns="http://www.w3.org/2000/svg">
<g stroke-linejoin="round">
<path d="m16 4c-3.1495 0-6.2499 1.2928-8.4785 3.5215-2.2286 2.2286-3.5215 5.329-3.5215 8.4785v24c0 5.3495 2.0758 10.334 5.8711 14.129 3.7953 3.7953 8.7794 5.8711 14.129 5.8711h27.199c2.1575 0 4.4432-0.80173 6.0645-2.332 1.6388-1.4983 2.7363-3.8147 2.7363-6.0684 0-2.3224-0.66875-3.0074-1.4219-4.5137-0.75128-1.5026-1.7937-3.3248-3.1562-5.5566-2.1536-3.5606-3.275-7.3609-3.4219-11.652v-13.877c0-3.1495-1.2928-6.2499-3.5215-8.4785-2.2286-2.2286-5.329-3.5215-8.4785-3.5215zm0 11h24c0.39106 0 0.36496-0.02762 0.7207 0.32812 0.3002 0.3002 0.2793 0.2483 0.2793 0.67188v4.3262c-1.4019-0.77203-2.9208-1.3262-4.5-1.3262h-1.6504c-0.03386 2.37e-4 -0.06772 9.04e-4 -0.10156 2e-3 -2.1976 0.05635-4.4418 0.99253-6.0254 2.5195-0.01708 0.01677-0.03401 0.0337-0.05078 0.05078l-0.04883 0.04883c-1.8114-1.6113-4.2049-2.6211-6.623-2.6211h-7v-3c0-0.39106-0.04343-0.31303 0.2793-0.625 0.03244-0.03136 0.06434-0.06326 0.0957-0.0957 0.31197-0.32273 0.23395-0.2793 0.625-0.2793zm21.93 13.172c-0.01302 0.14554-0.12681 0.25171-0.16602 0.4043-2e-3 0.0015-0.0019 0.0043-0.0039 0.0059 0.06419-0.13347 0.12092-0.2704 0.16992-0.41016zm-15.943 14.275c0.60906 0.81937 1.5083 1.3749 2.5137 1.5527h4c0.27964-0.06568 0.55139-0.16128 0.81055-0.28516 0.22043 0.11632 0.45125 0.21179 0.68945 0.28516h12c0.70641-0.09018 1.3759-0.3673 1.9395-0.80273 0.60198 1.3685 1.2929 2.7027 2.0762 3.998 0.0093 0.03529 0.01905 0.07045 0.0293 0.10547 0.44642 0.72375 0.65318 1.1032 1.0098 1.6992h-23.055c-2.6196 0-4.4526-0.75926-6.3223-2.6289-0.77507-0.77507-1.2421-1.5612-1.666-2.3711h2.9883c1.1753-0.05324 2.2677-0.62119 2.9863-1.5527z" color="#000000" style="-inkscape-stroke:none;paint-order:stroke markers fill"/>
<path d="m48 30c0.16667 4.9333 1.5 9.4667 4 13.6 2.6667 4.3667 4 7.0333 4 8 0 1.2333-0.48333 2.2833-1.45 3.15-0.86667 0.83333-1.9833 1.25-3.35 1.25h-27.2c-4.4 0-8.1667-1.5667-11.3-4.7s-4.7-6.9-4.7-11.3v-24c0-2.2 0.78333-4.0833 2.35-5.65 1.5667-1.5667 3.45-2.35 5.65-2.35h24c2.2 0 4.0833 0.78333 5.65 2.35 1.5667 1.5667 2.35 3.45 2.35 5.65v14m1.45 15.15c-2.7667-4.5667-4.25-9.5833-4.45-15.05v-14.1c0-1.3667-0.48333-2.5333-1.45-3.5-1-1-2.1833-1.5-3.55-1.5h-24c-1.3667 0-2.5333 0.5-3.5 1.5-1 0.96667-1.5 2.1333-1.5 3.5v24c0 3.5667 1.2833 6.6333 3.85 9.2 2.5333 2.5333 5.5833 3.8 9.15 3.8h27.2c0.5 0 0.93333-0.13333 1.3-0.4l0.05-0.05 0.45-0.95c-0.16667-0.7-1.35-2.8333-3.55-6.4zm-11.95-17.75c-0.26667-0.26667-0.6-0.4-1-0.4h-1.65c-0.2 0.03333-0.38333 0.13333-0.55 0.3-0.2 0.2-0.3 0.43333-0.3 0.7h-4l0.1-1c0.16667-0.93333 0.6-1.7667 1.3-2.5l0.1-0.1c0.93333-0.9 2.05-1.3667 3.35-1.4h1.65c1.5 0 2.7833 0.53333 3.85 1.6l0.05 0.05 1 1.35c0.83333 2.2333 0.51667 4.0833-0.95 5.55l-4.45 4.45h6v4h-12v-4l7-6.55c0.83333-0.86667 1-1.55 0.5-2.05m-15.5-4.4c1.6667 0 3.0833 0.58333 4.25 1.75s1.75 2.5833 1.75 4.25c0 1.6333-0.58333 3.0333-1.75 4.2l-0.05 0.05-0.75 0.65 3.05 6.1h-4l-2.5-5h-3v5h-4v-17zm0 4h-3v4h3c0.53333 0 0.98333-0.18333 1.35-0.55l0.1-0.1c0.36667-0.36667 0.55-0.81667 0.55-1.35s-0.2-1-0.6-1.4-0.86667-0.6-1.4-0.6" color="#000000" fill="#fff" stroke-width="8" style="-inkscape-stroke:none;paint-order:stroke markers fill"/>
</g>
</svg>
