<?xml version="1.0" encoding="UTF-8"?>
<svg version="1.1" viewBox="0 0 64 64" xmlns="http://www.w3.org/2000/svg">
<path d="m16 4c-3.1495 0-6.2499 1.2928-8.4785 3.5215-2.2286 2.2286-3.5215 5.329-3.5215 8.4785v24c0 5.3495 2.0758 10.334 5.8711 14.129 3.7953 3.7953 8.7794 5.8711 14.129 5.8711h27.199c2.1575 0 4.4432-0.80173 6.0645-2.332 1.6388-1.4983 2.7363-3.8147 2.7363-6.0684 0-2.3224-0.66875-3.0074-1.4219-4.5137-0.75128-1.5026-1.7937-3.3248-3.1562-5.5566-2.1536-3.5606-3.275-7.3609-3.4219-11.652v-13.877c0-3.1495-1.2928-6.2499-3.5215-8.4785-2.2286-2.2286-5.329-3.5215-8.4785-3.5215zm0 8h24c1.2505 0 1.9176 0.27304 2.8223 1.1777 0.90469 0.90469 1.1777 1.5718 1.1777 2.8223v6.7891l-0.5625-0.75781-0.25977-0.25977c-1.7296-1.7296-4.2296-2.7715-6.6777-2.7715h-1.7012l-0.05078 2e-3c-2.1977 0.05635-4.4418 0.99254-6.0254 2.5195l-0.02539 0.02344-0.07422 0.07617c-1.8114-1.6113-4.2049-2.6211-6.623-2.6211h-10v-3c0-1.2505 0.27304-1.9176 1.1777-2.8223 0.9047-0.90469 1.5718-1.1777 2.8223-1.1777zm4.2949 16.295 0.70508 0.70508-0.71484 0.71484c-0.11445-0.27035-0.28516-0.48135-0.28516-0.71484 0-0.18269 0.18845-0.43597 0.29492-0.70508zm25.705 11.865c0.69633 1.8989 1.516 3.7538 2.5781 5.5098l0.0078 0.0156c1.2991 2.1273 2.2557 3.8181 2.8359 4.9785 0.23588 0.47175 0.32952 0.85142 0.41211 1.1484l-0.0059 0.0059-0.05078 0.04883c-0.1094 0.10522-0.024415 0.1328-0.57807 0.1328h-27.199c-3.4505 0-5.9993-1.0579-8.4707-3.5293-1.3977-1.3977-2.2432-2.8742-2.8008-4.4707h33.271z" color="#000000" style="-inkscape-stroke:none;paint-order:stroke markers fill"/>
<path d="m52 43.6c2.6667 4.3667 4 7.0333 4 8 0 1.2333-0.48333 2.2833-1.45 3.15-0.86667 0.83333-1.9833 1.25-3.35 1.25h-27.2c-4.4 0-8.1667-1.5667-11.3-4.7s-4.7-6.9-4.7-11.3v-24c0-2.2 0.78333-4.0833 2.35-5.65 1.5667-1.5667 3.45-2.35 5.65-2.35h24c2.2 0 4.0833 0.78333 5.65 2.35 1.5667 1.5667 2.35 3.45 2.35 5.65v14c0.16667 4.9333 1.5 9.4667 4 13.6zm-14.5-16.2c0.5 0.5 0.33333 1.1833-0.5 2.05l-7 6.55v4h12v-4h-6l4.45-4.45c1.4667-1.4667 1.7833-3.3167 0.95-5.55l-1-1.35-0.05-0.05c-1.0667-1.0667-2.35-1.6-3.85-1.6h-1.65c-1.3 0.03333-2.4167 0.5-3.35 1.4l-0.1 0.1c-0.7 0.73333-1.1333 1.5667-1.3 2.5l-0.1 1h4c0-0.26667 0.1-0.5 0.3-0.7 0.16667-0.16667 0.35-0.26667 0.55-0.3h1.65c0.4 0 0.73333 0.13333 1 0.4m-15.5-0.4c0.53333 0 1 0.2 1.4 0.6s0.6 0.86667 0.6 1.4-0.18333 0.98333-0.55 1.35l-0.1 0.1c-0.36667 0.36667-0.81667 0.55-1.35 0.55h-3v-4h3m-7 13h4v-5h3l2.5 5h4l-3.05-6.1 0.75-0.65 0.05-0.05c1.1667-1.1667 1.75-2.5667 1.75-4.2 0-1.6667-0.58333-3.0833-1.75-4.25s-2.5833-1.75-4.25-1.75h-7z" color="#000000" fill="#fff" stroke-width="8" style="-inkscape-stroke:none;paint-order:stroke markers fill"/>
</svg>
