<?xml version="1.0" encoding="UTF-8"?>
<svg version="1.1" viewBox="0 0 64 64" xmlns="http://www.w3.org/2000/svg">
<g stroke-linecap="round" stroke-linejoin="round">
<path d="m32 6c-6.4651 0-12.402 2.4232-17.004 6.9473a4.0004 4.0004 0 0 0-0.04883 0.04883c-4.524 4.602-6.9473 10.539-6.9473 17.004v16c0 3.1495 1.2928 6.2499 3.5215 8.4785l0.19922 0.19922a4.0004 4.0004 0 0 0 0.09766 0.09375c2.1988 2.0554 5.1716 3.2285 8.1816 3.2285h24a4.0004 4.0004 0 0 0 0.5293-0.03516l2.25-0.30078a4.0004 4.0004 0 0 0 0.57031-0.11719c1.8004-0.51441 3.4524-1.4905 4.8262-2.7695a4.0004 4.0004 0 0 0 0.10352-0.09961l0.64844-0.64844a4.0004 4.0004 0 0 0 0.21484-0.23242c1.693-1.9833 2.7069-4.5208 2.8516-7.125a4.0004 4.0004 0 0 0 0.005859-0.22265v-16.85a4.0004 4.0004 0 0 0-0.01172-0.29492l-0.19922-2.6992a4.0004 4.0004 0 0 0-0.07617-0.5332l-0.54883-2.5996a4.0004 4.0004 0 0 0-0.07813-0.30273c-1.1264-3.8218-3.2371-7.2781-6.1582-10.199a4.0004 4.0004 0 0 0-0.01172-0.01172c-4.5676-4.5286-10.479-6.959-16.916-6.959zm0 11c3.72 0 6.5102 1.1476 9.1777 3.7852 0.06847 0.06855 0.10342 0.1459 0.16992 0.21484h-2.3477a4.0004 4.0004 0 0 0-2.8281 1.1719l-1.4395 1.4395-0.82227-0.68359a4.0004 4.0004 0 0 0-0.28906-0.2207c-1.6389-1.1302-3.6527-1.707-5.6211-1.707h-5.4492c0.07464-0.07916 0.12203-0.16332 0.19922-0.24219l0.0039-0.0039c0.0014-0.0014 0.0026-0.0025 0.0039-0.0039 2.6597-2.6031 5.4728-3.75 9.2422-3.75zm3 21.105v0.01172l-0.17969 0.15625a4.0004 4.0004 0 0 0 0.17969-0.16797zm-7.0137 6.3418a4.0004 4.0004 0 0 0 2.5137 1.5527h4a4.0004 4.0004 0 0 0 2.4316-0.85742 4.0004 4.0004 0 0 0 2.0684 0.85742h4a4.0004 4.0004 0 0 0 2-0.82812v0.9004c-0.01949 0.27834-0.08192 0.40005-0.20508 0.57422-3.72e-4 5.26e-4 3.73e-4 0.0014 0 2e-3 -5.06e-4 7.15e-4 -0.0014 0.0012-2e-3 2e-3l-0.0039 2e-3c-0.17856 0.16766-0.31191 0.22131-0.45312 0.29102l-0.54293 0.056497h-23.793c-0.42358 0-0.37168 0.0209-0.67188-0.2793-0.35575-0.35575-0.32812-0.32965-0.32812-0.7207v-0.82812a4.0004 4.0004 0 0 0 2 0.82812h4a4.0004 4.0004 0 0 0 2.9863-1.5527z" color="#000000" style="-inkscape-stroke:none;paint-order:stroke markers fill"/>
<path d="m28 25c1.2667 0 2.3833 0.33333 3.35 1l0.9 0.75c1.1667 1.1667 1.75 2.5833 1.75 4.25 0 1.1-0.26667 2.1-0.8 3l-0.95 1.2-0.05 0.05-0.75 0.65 3.05 6.1h-4l-2.5-5h-3v5h-4v-17zm15 17h-4v-12.05h-3v-1.95l3-3h4zm-31-12c0-5.5333 1.9333-10.267 5.8-14.2 3.9333-3.8667 8.6667-5.8 14.2-5.8 5.5 0 10.2 1.9333 14.1 5.8 2.5 2.5 4.2167 5.3333 5.15 8.5l0.55 2.6 0.2 2.7v16.85c-0.1 1.8-0.73333 3.3833-1.9 4.75l-0.65 0.65c-0.96667 0.9-2.0333 1.5167-3.2 1.85l-2.25 0.3h-24c-2.1 0-3.9167-0.71667-5.45-2.15l-0.2-0.2c-1.5667-1.5667-2.35-3.45-2.35-5.65v-16m16-1h-3v4h3c0.53333 0 0.98333-0.18333 1.35-0.55l0.1-0.1c0.36667-0.36667 0.55-0.81667 0.55-1.35s-0.2-1-0.6-1.4-0.86667-0.6-1.4-0.6m4-16c-4.7 0-8.7167 1.6333-12.05 4.9l-0.05 0.05c-3.2667 3.3333-4.9 7.35-4.9 12.05v16c0 1.3667 0.5 2.55 1.5 3.55 0.96667 0.96667 2.1333 1.45 3.5 1.45h24l1.45-0.15c0.76667-0.26667 1.4667-0.7 2.1-1.3l0.4-0.4c0.63333-0.83333 0.98333-1.7833 1.05-2.85v-16.7l-0.15-2.25-0.5-2.25 0.05 0.05c-0.83333-2.7-2.3-5.1-4.4-7.2-3.3333-3.3-7.3333-4.95-12-4.95" color="#000000" fill="#fff" stroke-width="8" style="-inkscape-stroke:none;paint-order:stroke markers fill"/>
</g>
</svg>
