<?xml version="1.0" encoding="UTF-8"?>
<svg version="1.1" viewBox="0 0 64 64" xmlns="http://www.w3.org/2000/svg">
<g stroke-linejoin="round">
<path d="m18 6c-1.8 0-3.6992 0.84373-4.9277 2.0723-1.2285 1.2285-2.0723 3.1277-2.0723 4.9277 0 1.1312 0.40662 2.2372 0.95898 3.2559-0.53613 0.81428-0.95898 1.7879-0.95898 2.7441 0 1.2667 0.64217 2.7008 1.4707 3.5293a4.0004 4.0004 0 0 0 1.2539 0.84766l0.69922 0.29883a4.0004 4.0004 0 0 0 1.5762 0.32422h2c0.93282 0 1.8806-0.23976 2.7598-0.62891 0.7112 0.36149 1.4835 0.62891 2.2402 0.62891a4.0004 4.0004 0 0 0 1.5762-0.32422l0.42383-0.18164 0.42383 0.18164a4.0004 4.0004 0 0 0 0.66211 0.13672c-0.89333 0.51814-1.8307 0.97526-2.5645 1.709-2.2286 2.2286-3.5215 5.329-3.5215 8.4785v12c0 3.1495 1.2928 6.2499 3.5215 8.4785s5.329 3.5215 8.4785 3.5215 6.2499-1.2928 8.4785-3.5215 3.5215-5.329 3.5215-8.4785v-12c0-3.1495-1.2928-6.2499-3.5215-8.4785-0.7924-0.7924-1.7937-1.3059-2.7695-1.8457a4.0004 4.0004 0 0 0 0.86719 0l0.40039-0.16992c0.10872 0.05103 0.2101 0.14886 0.31836 0.18945a4.0004 4.0004 0 0 0 1.6719 0.24609l0.75-0.05078a4.0004 4.0004 0 0 0 0.56055-0.27148c0.56369 0.21595 1.1567 0.38086 1.7227 0.38086h4c1.2667 0 2.7008-0.64217 3.5293-1.4707a4.0004 4.0004 0 0 0 0.84766-1.2539l0.29883-0.69922a4.0004 4.0004 0 0 0 0-3.1523l-0.18164-0.42383 0.18164-0.42383a4.0004 4.0004 0 0 0 0-3.1523l-0.18164-0.42383 0.18164-0.42383a4.0004 4.0004 0 0 0 0-3.1523l-0.29883-0.69922a4.0004 4.0004 0 0 0-0.84766-1.2539c-0.82854-0.82854-2.2626-1.4707-3.5293-1.4707h-4c-0.7478 0-1.5116 0.26114-2.2168 0.61523-0.87955-0.3817-1.8208-0.61523-2.7324-0.61523h-2.0508c-0.75533 0-1.5261 0.26665-2.2363 0.62695-0.889-0.37346-1.8277-0.62695-2.7637-0.62695-0.92045 0-1.8741 0.24033-2.7852 0.61328-0.7046-0.35336-1.4679-0.61328-2.2148-0.61328-0.66186 0-1.3572 0.1868-2 0.47266-0.64278-0.28586-1.3381-0.47266-2-0.47266-0.49286 0-1.0021 0.16428-1.5 0.33203-0.49786-0.16775-1.0071-0.33203-1.5-0.33203zm14 24c1.2505 0 1.9176 0.27304 2.8223 1.1777s1.1777 1.5718 1.1777 2.8223v12c0 1.2505-0.27304 1.9176-1.1777 2.8223s-1.5718 1.1777-2.8223 1.1777-1.9176-0.27304-2.8223-1.1777-1.1777-1.5718-1.1777-2.8223v-12c0-1.2505 0.27304-1.9176 1.1777-2.8223s1.5718-1.1777 2.8223-1.1777z" color="#000000" style="-inkscape-stroke:none;paint-order:stroke markers fill"/>
<path d="m27.7 19.7c-0.2 0.2-0.43333 0.3-0.7 0.3l-0.7-0.3-0.3-0.7v-3h-2v3l-0.3 0.7-0.7 0.3c-0.26667 0-0.5-0.1-0.7-0.3s-0.3-0.43333-0.3-0.7v-8c0-0.26667 0.1-0.5 0.3-0.7s0.43333-0.3 0.7-0.3 0.5 0.1 0.7 0.3l0.3 0.7v3h2v-3c0-0.26667 0.1-0.5 0.3-0.7s0.43333-0.3 0.7-0.3 0.5 0.1 0.7 0.3l0.3 0.7v8zm-9.7-7.7c-0.26667 0-0.5 0.1-0.7 0.3s-0.3 0.43333-0.3 0.7 0.1 0.5 0.3 0.7 0.41667 0.3 0.65 0.3h0.1c0.76667 0 1.45 0.3 2.05 0.9s0.9 1.3 0.9 2.1-0.3 1.5-0.9 2.1-1.3 0.9-2.1 0.9h-2l-0.7-0.3c-0.2-0.2-0.3-0.43333-0.3-0.7s0.1-0.5 0.3-0.7 0.43333-0.3 0.7-0.3h2c0.26667 0 0.5-0.1 0.7-0.3l0.3-0.7-0.3-0.7c-0.2-0.2-0.41667-0.3-0.65-0.3h-0.1c-0.76667 0-1.45-0.3-2.05-0.9s-0.9-1.3-0.9-2.1 0.3-1.5 0.9-2.1 1.3-0.9 2.1-0.9h2c0.26667 0 0.5 0.1 0.7 0.3l0.3 0.7-0.3 0.7-0.7 0.3h-2m21.45 1.9 0.25-0.2h0.05l0.25-0.7-0.3-0.75c-0.16667-0.16667-0.38333-0.25-0.65-0.25h-1.05v2h1.1zm-10.45-1.1c0-0.76667 0.28333-1.4333 0.85-2l0.05-0.05c0.56667-0.5 1.2667-0.75 2.1-0.75 0.76667 0 1.45 0.25 2.05 0.75l0.05 0.05c0.6 0.56667 0.9 1.2333 0.9 2v6.2l-0.3 0.7c-0.2 0.2-0.43333 0.3-0.7 0.3l-0.7-0.3c-0.2-0.2-0.3-0.43333-0.3-0.7v-2h-2v2l-0.3 0.7c-0.2 0.2-0.43333 0.3-0.7 0.3l-0.7-0.3c-0.2-0.2-0.3-0.43333-0.3-0.7v-6.2m2 0v2.2h2v-2.2l-0.35-0.625c-0.1-0.075-0.35-0.175-0.65-0.175s-0.56667 0.1-0.8 0.3l0.05-0.1c-0.16667 0.16667-0.25 0.36667-0.25 0.6m10.1 2.35-0.65 0.5 1.45 2.9 0.05 0.8-0.5 0.55-0.75 0.05c-0.26667-0.1-0.46667-0.26667-0.6-0.5l-1.7-3.45h-0.4v3l-0.3 0.7-0.7 0.3-0.7-0.3c-0.2-0.2-0.3-0.43333-0.3-0.7v-8c0-0.26667 0.1-0.5 0.3-0.7s0.43333-0.3 0.7-0.3h2.05c0.8 0 1.4833 0.28333 2.05 0.85 0.6 0.6 0.9 1.3167 0.9 2.15s-0.3 1.5333-0.9 2.1zm2.2-4.85c0.2-0.2 0.43333-0.3 0.7-0.3h4c0.26667 0 0.5 0.1 0.7 0.3l0.3 0.7-0.3 0.7c-0.2 0.2-0.43333 0.3-0.7 0.3h-3v2h3c0.26667 0 0.5 0.1 0.7 0.3l0.3 0.7-0.3 0.7c-0.2 0.2-0.43333 0.3-0.7 0.3h-3v2h3c0.26667 0 0.5 0.1 0.7 0.3l0.3 0.7-0.3 0.7c-0.2 0.2-0.43333 0.3-0.7 0.3h-4c-0.26667 0-0.5-0.1-0.7-0.3s-0.3-0.43333-0.3-0.7v-8c0-0.26667 0.1-0.5 0.3-0.7zm-5.65 18.05c1.5667 1.5667 2.35 3.45 2.35 5.65v12c0 2.2-0.78333 4.0833-2.35 5.65s-3.45 2.35-5.65 2.35-4.0833-0.78333-5.65-2.35-2.35-3.45-2.35-5.65v-12c0-2.2 0.78333-4.0833 2.35-5.65s3.45-2.35 5.65-2.35 4.0833 0.78333 5.65 2.35z" color="#000000" fill="#fff" stroke-width="8" style="-inkscape-stroke:none;paint-order:stroke markers fill"/>
</g>
</svg>
