<?xml version="1.0" encoding="UTF-8"?>
<svg version="1.1" viewBox="0 0 64 64" xmlns="http://www.w3.org/2000/svg">
<path d="m16 12c-3.3333 0-6.552 0.89574-8.8281 3.1719s-3.1719 5.4948-3.1719 8.8281v16c0 3.3333 0.89573 6.552 3.1719 8.8281s5.4948 3.1719 8.8281 3.1719h32c3.3333 0 6.552-0.89574 8.8281-3.1719s3.1719-5.4948 3.1719-8.8281v-16c0-3.3333-0.89574-6.552-3.1719-8.8281s-5.4948-3.1719-8.8281-3.1719z" color="#000000" style="-inkscape-stroke:none;paint-order:stroke markers fill"/>
<path d="m50 32q0-0.85-0.6-1.45-0.55-0.55-1.4-0.55t-1.45 0.55q-0.55 0.6-0.55 1.45t0.55 1.4q0.6 0.6 1.45 0.6t1.4-0.6q0.6-0.55 0.6-1.4m0-8q0-0.85-0.6-1.45-0.55-0.55-1.4-0.55t-1.45 0.55q-0.55 0.6-0.55 1.45t0.55 1.4q0.6 0.6 1.45 0.6t1.4-0.6q0.6-0.55 0.6-1.4m-8 8q0-0.85-0.6-1.45-0.55-0.55-1.4-0.55t-1.45 0.55q-0.55 0.6-0.55 1.45t0.55 1.4q0.6 0.6 1.45 0.6t1.4-0.6q0.6-0.55 0.6-1.4m-8 0q0-0.85-0.6-1.45-0.55-0.55-1.4-0.55t-1.45 0.55q-0.55 0.6-0.55 1.45t0.55 1.4q0.6 0.6 1.45 0.6t1.4-0.6q0.6-0.55 0.6-1.4m0-8q0-0.85-0.6-1.45-0.55-0.55-1.4-0.55t-1.45 0.55q-0.55 0.6-0.55 1.45t0.55 1.4q0.6 0.6 1.45 0.6t1.4-0.6q0.6-0.55 0.6-1.4m8 0q0-0.85-0.6-1.45-0.55-0.55-1.4-0.55t-1.45 0.55q-0.55 0.6-0.55 1.45t0.55 1.4q0.6 0.6 1.45 0.6t1.4-0.6q0.6-0.55 0.6-1.4m-26-8h32q8 0 8 8v16q0 8-8 8h-32q-8 0-8-8v-16q0-8 8-8m2 24q0-0.85-0.6-1.45-0.55-0.55-1.4-0.55t-1.45 0.55q-0.55 0.6-0.55 1.45t0.55 1.4q0.6 0.6 1.45 0.6t1.4-0.6q0.6-0.55 0.6-1.4m8 0q0-0.85-0.6-1.45-0.55-0.55-1.4-0.55t-1.45 0.55q-0.55 0.6-0.55 1.45t0.55 1.4q0.6 0.6 1.45 0.6t1.4-0.6q0.6-0.55 0.6-1.4m0-8q0-0.85-0.6-1.45-0.55-0.55-1.4-0.55t-1.45 0.55q-0.55 0.6-0.55 1.45t0.55 1.4q0.6 0.6 1.45 0.6t1.4-0.6q0.6-0.55 0.6-1.4m0-8q0-0.85-0.6-1.45-0.55-0.55-1.4-0.55t-1.45 0.55q-0.55 0.6-0.55 1.45t0.55 1.4q0.6 0.6 1.45 0.6t1.4-0.6q0.6-0.55 0.6-1.4m-8 8q0-0.85-0.6-1.45-0.55-0.55-1.4-0.55t-1.45 0.55q-0.55 0.6-0.55 1.45t0.55 1.4q0.6 0.6 1.45 0.6t1.4-0.6q0.6-0.55 0.6-1.4m0-8q0-0.85-0.6-1.45-0.55-0.55-1.4-0.55t-1.45 0.55q-0.55 0.6-0.55 1.45t0.55 1.4q0.6 0.6 1.45 0.6t1.4-0.6q0.6-0.55 0.6-1.4m24 16q0-0.85-0.6-1.45-0.55-0.55-1.4-0.55t-1.45 0.55q-0.55 0.6-0.55 1.45t0.55 1.4q0.6 0.6 1.45 0.6t1.4-0.6q0.6-0.55 0.6-1.4m-8 0q0-0.85-0.6-1.45-0.55-0.55-1.4-0.55t-1.45 0.55q-0.55 0.6-0.55 1.45t0.55 1.4q0.6 0.6 1.45 0.6t1.4-0.6q0.6-0.55 0.6-1.4m16 0q0-0.85-0.6-1.45-0.55-0.55-1.4-0.55t-1.45 0.55q-0.55 0.6-0.55 1.45t0.55 1.4q0.6 0.6 1.45 0.6t1.4-0.6q0.6-0.55 0.6-1.4" color="#000000" fill="#fff" stroke-width="8" style="-inkscape-stroke:none;paint-order:stroke markers fill"/>
</svg>
