<?xml version="1.0" encoding="UTF-8"?>
<svg version="1.1" viewBox="0 0 64 64" xmlns="http://www.w3.org/2000/svg">
<g stroke-linecap="round">
<path d="m16 12c-3.3333 0-6.552 0.89574-8.8281 3.1719s-3.1719 5.4948-3.1719 8.8281v16c0 3.3333 0.89573 6.552 3.1719 8.8281s5.4948 3.1719 8.8281 3.1719h32c3.3333 0 6.552-0.89574 8.8281-3.1719s3.1719-5.4948 3.1719-8.8281v-16c0-3.3333-0.89574-6.552-3.1719-8.8281s-5.4948-3.1719-8.8281-3.1719z" color="#000000" style="-inkscape-stroke:none;paint-order:stroke markers fill"/>
<path d="m42 24q0 0.85-0.6 1.4-0.55 0.6-1.4 0.6t-1.45-0.6q-0.55-0.55-0.55-1.4t0.55-1.45q0.6-0.55 1.45-0.55t1.4 0.55q0.6 0.6 0.6 1.45m-8 0q0 0.85-0.6 1.4-0.55 0.6-1.4 0.6t-1.45-0.6q-0.55-0.55-0.55-1.4t0.55-1.45q0.6-0.55 1.45-0.55t1.4 0.55q0.6 0.6 0.6 1.45m0 8q0 0.85-0.6 1.4-0.55 0.6-1.4 0.6t-1.45-0.6q-0.55-0.55-0.55-1.4t0.55-1.45q0.6-0.55 1.45-0.55t1.4 0.55q0.6 0.6 0.6 1.45m8 0q0 0.85-0.6 1.4-0.55 0.6-1.4 0.6t-1.45-0.6q-0.55-0.55-0.55-1.4t0.55-1.45q0.6-0.55 1.45-0.55t1.4 0.55q0.6 0.6 0.6 1.45m8-8q0 0.85-0.6 1.4-0.55 0.6-1.4 0.6t-1.45-0.6q-0.55-0.55-0.55-1.4t0.55-1.45q0.6-0.55 1.45-0.55t1.4 0.55q0.6 0.6 0.6 1.45m0 8q0 0.85-0.6 1.4-0.55 0.6-1.4 0.6t-1.45-0.6q-0.55-0.55-0.55-1.4t0.55-1.45q0.6-0.55 1.45-0.55t1.4 0.55q0.6 0.6 0.6 1.45m-39 8q0 5 5 5h32q5 0 5-5v-16q0-5-5-5h-32q-5 0-5 5v16m5-24h32q8 0 8 8v16q0 8-8 8h-32q-8 0-8-8v-16q0-8 8-8m34 24q0 0.85-0.6 1.4-0.55 0.6-1.4 0.6t-1.45-0.6q-0.55-0.55-0.55-1.4t0.55-1.45q0.6-0.55 1.45-0.55t1.4 0.55q0.6 0.6 0.6 1.45m-16 0q0 0.85-0.6 1.4-0.55 0.6-1.4 0.6t-1.45-0.6q-0.55-0.55-0.55-1.4t0.55-1.45q0.6-0.55 1.45-0.55t1.4 0.55q0.6 0.6 0.6 1.45m8 0q0 0.85-0.6 1.4-0.55 0.6-1.4 0.6t-1.45-0.6q-0.55-0.55-0.55-1.4t0.55-1.45q0.6-0.55 1.45-0.55t1.4 0.55q0.6 0.6 0.6 1.45m-24-16q0 0.85-0.6 1.4-0.55 0.6-1.4 0.6t-1.45-0.6q-0.55-0.55-0.55-1.4t0.55-1.45q0.6-0.55 1.45-0.55t1.4 0.55q0.6 0.6 0.6 1.45m0 8q0 0.85-0.6 1.4-0.55 0.6-1.4 0.6t-1.45-0.6q-0.55-0.55-0.55-1.4t0.55-1.45q0.6-0.55 1.45-0.55t1.4 0.55q0.6 0.6 0.6 1.45m8-8q0 0.85-0.6 1.4-0.55 0.6-1.4 0.6t-1.45-0.6q-0.55-0.55-0.55-1.4t0.55-1.45q0.6-0.55 1.45-0.55t1.4 0.55q0.6 0.6 0.6 1.45m0 8q0 0.85-0.6 1.4-0.55 0.6-1.4 0.6t-1.45-0.6q-0.55-0.55-0.55-1.4t0.55-1.45q0.6-0.55 1.45-0.55t1.4 0.55q0.6 0.6 0.6 1.45m0 8q0 0.85-0.6 1.4-0.55 0.6-1.4 0.6t-1.45-0.6q-0.55-0.55-0.55-1.4t0.55-1.45q0.6-0.55 1.45-0.55t1.4 0.55q0.6 0.6 0.6 1.45m-8 0q0 0.85-0.6 1.4-0.55 0.6-1.4 0.6t-1.45-0.6q-0.55-0.55-0.55-1.4t0.55-1.45q0.6-0.55 1.45-0.55t1.4 0.55q0.6 0.6 0.6 1.45" color="#000000" fill="#fff" stroke-width="8" style="-inkscape-stroke:none;paint-order:stroke markers fill"/>
</g>
</svg>
