<?xml version="1.0" encoding="UTF-8"?>
<svg version="1.1" viewBox="0 0 64 64" xmlns="http://www.w3.org/2000/svg">
<path d="m32 4c-7.5713 0-14.451 2.8325-19.818 8.1621l-0.0196 0.0196c-5.3295 5.3676-8.162 12.247-8.162 19.818 0 7.5953 2.831 14.471 8.1719 19.779 0.0017 0.0017 0.0042 0.0022 0.0059 0.0039s0.0022 0.0042 0.0039 0.0059c5.3638 5.3589 12.245 8.2109 19.818 8.2109 7.5967 0 14.473-2.8532 19.777-8.2227 5.3694-5.3039 8.2227-12.181 8.2227-19.777 0-7.5734-2.852-14.454-8.1886-19.81-5.3366-5.3559-12.214-8.1896-19.811-8.1896zm0 11c2.1762 0 4.0927 0.36033 5.8789 1h-11.736c1.7869-0.64086 3.6981-1 5.8574-1zm-16 11.143v11.736c-0.63967-1.7862-1-3.7027-1-5.8789 0-2.1594 0.35914-4.0705 1-5.8574zm32 0c0.64086 1.7869 1 3.6981 1 5.8574 0 2.1762-0.36033 4.0927-1 5.8789zm-20 1.8574h8v8h-8zm-1.8574 20h11.736c-1.7862 0.63967-3.7027 1-5.8789 1-2.1594 0-4.0705-0.35914-5.8574-1z" color="#000000" style="-inkscape-stroke:none;paint-order:stroke markers fill"/>
<path d="m56 32c0 6.6667-2.35 12.317-7.05 16.95-4.6333 4.7-10.283 7.05-16.95 7.05-6.6333 0-12.3-2.35-17-7.05-4.6667-4.6333-7-10.283-7-16.95 0-6.6333 2.3333-12.3 7-17 4.7-4.6667 10.367-7 17-7 6.6667 0 12.317 2.3333 16.95 7 4.7 4.7 7.05 10.367 7.05 17m-9.15-14.85c-4.0667-4.1-9.0167-6.15-14.85-6.15-5.8 0-10.75 2.05-14.85 6.15s-6.15 9.05-6.15 14.85c0 5.8333 2.05 10.783 6.15 14.85 4.1 4.1 9.05 6.15 14.85 6.15 5.8333 0 10.783-2.05 14.85-6.15 4.1-4.0667 6.15-9.0167 6.15-14.85 0-5.8-2.05-10.75-6.15-14.85m-6.85 22.85v-16h-16v16zm4-20v24h-24v-24z" color="#000000" fill="#ff69f8" stroke-width="8" style="-inkscape-stroke:none;paint-order:stroke markers fill"/>
</svg>
