<?xml version="1.0" encoding="UTF-8"?>
<svg viewBox="0 0 64 64" xmlns="http://www.w3.org/2000/svg">
<path d="m16 8h32q8 0 8 8v32q0 8-8 8h-32q-8 0-8-8v-32q0-8 8-8m20.95 17.55q-2.05-2.05-4.95-2.05-2.85 0-4.95 2l-0.05 0.05q-2 2.1-2 4.95v3q0 2.9 2.05 4.95 2.1 2.05 4.95 2.05t4.9-2.05l0.05-0.05q2.05-2.05 2.05-4.9v-3q0-2.85-2.05-4.95m-4.95 1.95q1.2 0 2.1 0.9 0.9 0.85 0.9 2.1v3q0 1.2-0.9 2.05l-0.05 0.05q-0.85 0.9-2.05 0.9-1.25 0-2.1-0.9-0.9-0.9-0.9-2.1v-3q0-1.2 0.85-2.1l0.05-0.05q0.9-0.85 2.1-0.85" fill="#fff"/>
</svg>
