<?xml version="1.0" encoding="UTF-8"?>
<svg viewBox="0 0 64 64" xmlns="http://www.w3.org/2000/svg">
<path d="m16 8h32q8 0 8 8v32q0 8-8 8h-32q-8 0-8-8v-32q0-8 8-8m20.95 17.55q2.05 2.1 2.05 4.95v3q0 2.85-2.05 4.9l-0.05 0.05q-2.05 2.05-4.9 2.05t-4.95-2.05q-2.05-2.05-2.05-4.95v-3q0-2.85 2-4.95l0.05-0.05q2.1-2 4.95-2 2.9 0 4.95 2.05m-4.95 1.95q-1.2 0-2.1 0.85l-0.05 0.05q-0.85 0.9-0.85 2.1v3q0 1.2 0.9 2.1 0.85 0.9 2.1 0.9 1.2 0 2.05-0.9l0.05-0.05q0.9-0.85 0.9-2.05v-3q0-1.25-0.9-2.1-0.9-0.9-2.1-0.9m-21-11.5v32q0 5 5 5h32q5 0 5-5v-32q0-5-5-5h-32q-5 0-5 5" fill="#fff"/>
</svg>
