<?xml version="1.0" encoding="UTF-8"?>
<svg viewBox="0 0 64 64" xmlns="http://www.w3.org/2000/svg">
<path d="m34 22h-9l-1 1v18l1 1h9q2.45 0 4.2-1.75l0.05-0.05q1.75-1.75 1.75-4.2 0-2.35-1.55-4 1.55-1.7 1.55-4 0-2.5-1.75-4.25l-0.05-0.05q-1.75-1.7-4.2-1.7m-6 4h6q0.8 0 1.4 0.6h0.05q0.55 0.55 0.55 1.4 0 0.8-0.55 1.35l-0.1 0.1q-0.55 0.5-1.2 0.55h-6.15v-4m-12-18h32q8 0 8 8v32q0 8-8 8h-32q-8 0-8-8v-32q0-8 8-8m12 30v-4h6.15q0.7 0.05 1.25 0.6h0.05q0.55 0.55 0.55 1.4 0 0.8-0.55 1.35l-0.1 0.1q-0.55 0.55-1.35 0.55h-6" fill="#fff"/>
</svg>
