<?xml version="1.0" encoding="UTF-8"?>
<svg viewBox="0 0 64 64" xmlns="http://www.w3.org/2000/svg">
<path d="m34 22q2.45 0 4.2 1.7l0.05 0.05q1.75 1.75 1.75 4.25 0 2.3-1.55 4 1.55 1.65 1.55 4 0 2.45-1.75 4.2l-0.05 0.05q-1.75 1.75-4.2 1.75h-9l-1-1v-18l1-1h9m-23-6v32q0 5 5 5h32q5 0 5-5v-32q0-5-5-5h-32q-5 0-5 5m17 10v4h6.15q0.65-0.05 1.2-0.55l0.1-0.1q0.55-0.55 0.55-1.35 0-0.85-0.55-1.4h-0.05q-0.6-0.6-1.4-0.6h-6m-12-18h32q8 0 8 8v32q0 8-8 8h-32q-8 0-8-8v-32q0-8 8-8m12 30h6q0.8 0 1.35-0.55l0.1-0.1q0.55-0.55 0.55-1.35 0-0.85-0.55-1.4h-0.05q-0.55-0.55-1.25-0.6h-6.15v4" fill="#fff"/>
</svg>
