<?xml version="1.0" encoding="UTF-8"?>
<svg viewBox="0 0 64 64" xmlns="http://www.w3.org/2000/svg">
<path d="m11 22v20q0 5 5 5h32q5 0 5-5v-20q0-5-5-5h-32q-5 0-5 5m30.9 8.55 0.05 0.8-0.5 0.55-0.75 0.05q-0.4-0.15-0.6-0.5l-1.7-3.45h-0.4v3l-0.3 0.7-0.7 0.3-0.7-0.3q-0.3-0.3-0.3-0.7v-8q0-0.4 0.3-0.7t0.7-0.3 0.7 0.3l0.3 0.7v3h0.4l1.7-3.45q0.2-0.35 0.6-0.5l0.75 0.05 0.5 0.6-0.05 0.75-1.75 3.55 1.75 3.55m-25.9-16.55h32q8 0 8 8v20q0 8-8 8h-32q-8 0-8-8v-20q0-8 8-8m9.15 23 0.35-0.1 0.25-0.2h0.05l0.25-0.7-0.3-0.75q-0.25-0.25-0.65-0.25h-1.05v2h1.1m0 2h-1.1v3l-0.3 0.7-0.7 0.3q-0.4 0-0.7-0.3t-0.3-0.7v-8q0-0.4 0.3-0.7t0.7-0.3h2.05q1.2 0 2.05 0.85 0.9 0.9 0.9 2.15t-0.9 2.1v0.05l-0.65 0.5-0.1 0.05-1.25 0.3m5.85-3.2v2.2h2v-2.2l-0.25-0.55v0.05q-0.3-0.3-0.75-0.3t-0.8 0.3l0.05-0.1q-0.25 0.25-0.25 0.6m-2 0q0-1.15 0.85-2l0.05-0.05q0.85-0.75 2.1-0.75 1.15 0 2.05 0.75l0.05 0.05q0.9 0.85 0.9 2v6.2l-0.3 0.7q-0.3 0.3-0.7 0.3l-0.7-0.3q-0.3-0.3-0.3-0.7v-2h-2v2l-0.3 0.7q-0.3 0.3-0.7 0.3l-0.7-0.3q-0.3-0.3-0.3-0.7v-6.2m-11-0.8q-0.4 0-0.7 0.3t-0.3 0.7 0.3 0.7 0.65 0.3h0.1q1.15 0 2.05 0.9t0.9 2.1-0.9 2.1-2.1 0.9h-2l-0.7-0.3q-0.3-0.3-0.3-0.7t0.3-0.7 0.7-0.3h2q0.4 0 0.7-0.3l0.3-0.7-0.3-0.7q-0.3-0.3-0.65-0.3h-0.1q-1.15 0-2.05-0.9t-0.9-2.1 0.9-2.1 2.1-0.9h2q0.4 0 0.7 0.3l0.3 0.7-0.3 0.7-0.7 0.3h-2m-1-5h1.1l0.35-0.1 0.25-0.2h0.05l0.25-0.7-0.3-0.75q-0.25-0.25-0.5-0.25h-1.2v2m1.45-4.1 0.25-0.2h0.05l0.25-0.7-0.3-0.75-0.65-0.25h-1.05v2h1.2l0.25-0.1m2.55-0.9q0 1.2-0.75 2 0.75 0.85 0.75 2 0 1.25-0.9 2.1v0.05l-0.65 0.5-0.1 0.05-1.25 0.3h-2.1l-0.7-0.3q-0.3-0.3-0.3-0.7v-8q0-0.4 0.3-0.7t0.7-0.3h2.05q1.2 0 2.05 0.85 0.9 0.9 0.9 2.15m13.1 6.25-0.05 0.05q-0.9 0.7-2.05 0.7-1.25 0-2.1-0.7l-0.05-0.1q-0.85-0.85-0.85-1.95v-4.45q0-1.15 0.85-2l0.05-0.05q0.85-0.75 2.1-0.75 1.15 0 2.05 0.75l0.05 0.05q0.9 0.85 0.9 2l-0.3 0.7q-0.3 0.3-0.7 0.3l-0.7-0.3q-0.3-0.3-0.3-0.7l-0.25-0.55v0.05q-0.3-0.3-0.75-0.3t-0.8 0.3l0.05-0.1q-0.25 0.25-0.25 0.6v4.45l0.2 0.5 0.8 0.25 0.75-0.25v0.05l0.25-0.55q0-0.4 0.3-0.7t0.7-0.3 0.7 0.3l0.3 0.7q0 1.1-0.9 2m-10.05-6.45v2.2h2v-2.2l-0.25-0.55v0.05q-0.3-0.3-0.75-0.3t-0.8 0.3l0.05-0.1q-0.25 0.25-0.25 0.6m-2 0q0-1.15 0.85-2l0.05-0.05q0.85-0.75 2.1-0.75 1.15 0 2.05 0.75l0.05 0.05q0.9 0.85 0.9 2v6.2l-0.3 0.7-0.7 0.3q-0.4 0-0.7-0.3t-0.3-0.7v-2h-2v2l-0.3 0.7-0.7 0.3q-0.4 0-0.7-0.3t-0.3-0.7v-6.2m19.05 17.45-0.05 0.05q-0.9 0.7-2.05 0.7-1.25 0-2.1-0.7l-0.05-0.1q-0.85-0.85-0.85-1.95v-4.45q0-1.15 0.85-2l0.05-0.05q0.85-0.75 2.1-0.75 1.15 0 2.05 0.75l0.05 0.05q0.9 0.85 0.9 2l-0.3 0.7-0.7 0.3-0.7-0.3q-0.3-0.3-0.3-0.7l-0.25-0.55v0.05q-0.3-0.3-0.75-0.3t-0.8 0.3l0.05-0.1q-0.25 0.25-0.25 0.6v4.45l0.2 0.5 0.8 0.25 0.75-0.25v0.05l0.25-0.55q0-0.4 0.3-0.7t0.7-0.3 0.7 0.3l0.3 0.7q0 1.1-0.9 2m6.9-9.25q0.4 0 0.7 0.3l0.3 0.7-0.3 0.7q-0.3 0.3-0.7 0.3h-3v2h3q0.4 0 0.7 0.3l0.3 0.7-0.3 0.7q-0.3 0.3-0.7 0.3h-3v2h3q0.4 0 0.7 0.3l0.3 0.7-0.3 0.7q-0.3 0.3-0.7 0.3h-4q-0.4 0-0.7-0.3t-0.3-0.7v-8q0-0.4 0.3-0.7t0.7-0.3h4" fill="#fff"/>
</svg>
