<?xml version="1.0" encoding="UTF-8"?>
<svg viewBox="0 0 64 64" xmlns="http://www.w3.org/2000/svg">
<path d="m16 8h32q8 0 8 8v32q0 8-8 8h-32q-8 0-8-8v-32q0-8 8-8m28.8 29q1.25-1.2 1.2-2.7v-1.5h-3v1.5l-0.25 0.5-0.75 0.2-0.8-0.2-0.2-0.5v-5.55l0.2-0.45 0.05-0.05q0.3-0.25 0.75-0.25t0.8 0.3l0.2 0.45v1.5h3v-1.5q0-1.6-1.25-2.7-1.2-1.05-2.75-1.05-1.6 0-2.75 1.05h-0.05q-1.2 1.1-1.2 2.7v5.55q0 1.5 1.15 2.65l0.05 0.1 0.1 0.05q1.1 0.9 2.7 0.9 1.55 0 2.7-0.9l0.1-0.1m-26.8-12v13h8v-3h-5v-2h5v-3h-5v-2h5v-3h-8m14 3h4v-3h-4q-1.6 0-2.8 1.2t-1.2 2.8 1.2 2.8 2.75 1.2h0.1q0.35 0 0.65 0.3l0.3 0.7-0.3 0.7-0.7 0.3h-4v3h4q1.6 0 2.8-1.2t1.2-2.8-1.2-2.8-2.75-1.2h-0.1l-0.65-0.3q-0.3-0.3-0.3-0.7t0.3-0.7 0.7-0.3" fill="#fff"/>
</svg>
