<?xml version="1.0" encoding="UTF-8"?>
<svg viewBox="0 0 64 64" xmlns="http://www.w3.org/2000/svg">
<path d="m16 8h32q8 0 8 8v32q0 8-8 8h-32q-8 0-8-8v-32q0-8 8-8m16 20q-0.4 0-0.7 0.3t-0.3 0.7 0.3 0.7l0.65 0.3h0.1q1.55 0 2.75 1.2t1.2 2.8-1.2 2.8-2.8 1.2h-4v-3h4l0.7-0.3 0.3-0.7-0.3-0.7q-0.3-0.3-0.65-0.3h-0.1q-1.55 0-2.75-1.2t-1.2-2.8 1.2-2.8 2.8-1.2h4v3h-4m-14-3h8v3h-5v2h5v3h-5v2h5v3h-8v-13m26.8 12-0.1 0.1q-1.15 0.9-2.7 0.9-1.6 0-2.7-0.9l-0.1-0.05-0.05-0.1q-1.15-1.15-1.15-2.65v-5.55q0-1.6 1.2-2.7h0.05q1.15-1.05 2.75-1.05 1.55 0 2.75 1.05 1.25 1.1 1.25 2.7v1.5h-3v-1.5l-0.2-0.45q-0.35-0.3-0.8-0.3t-0.75 0.25l-0.05 0.05-0.2 0.45v5.55l0.2 0.5 0.8 0.2 0.75-0.2 0.25-0.5v-1.5h3v1.5q0.05 1.5-1.2 2.7m-33.8-21v32q0 5 5 5h32q5 0 5-5v-32q0-5-5-5h-32q-5 0-5 5" fill="#fff"/>
</svg>
