<?xml version="1.0" encoding="UTF-8"?>
<svg viewBox="0 0 64 64" xmlns="http://www.w3.org/2000/svg">
<path d="m44.5 28.4q-0.4-0.4-1-0.4h-1.65q-0.3 0.05-0.55 0.3-0.3 0.3-0.3 0.7h-4l0.1-1q0.25-1.4 1.3-2.5l0.1-0.1q1.4-1.35 3.35-1.4h1.65q2.25 0 3.85 1.6l0.05 0.05 1 1.35q1.25 3.35-0.95 5.55l-4.45 4.45h6v4h-12v-4l7-6.55q1.25-1.3 0.5-2.05m-28.5-20.4h32q7.35 0 7.95 6.8l0.05 1.2v32l-0.05 1.25q-0.6 6.75-7.95 6.75h-32q-8 0-8-8v-32q0-8 8-8m-5 8v32q0 5 5 5h32q5 0 5-5v-32q0-5-5-5h-32q-5 0-5 5m7 25h-4v-17h11v4h-7v3h7v4h-7v6m16-17v17h-4v-12.05h-3v-1.95l3-3h4" fill="#fff"/>
</svg>
