<?xml version="1.0" encoding="UTF-8"?>
<svg viewBox="0 0 64 64" xmlns="http://www.w3.org/2000/svg">
<path d="m16 8h32q8 0 8 8v32q0 8-8 8h-32q-8 0-8-8v-32q0-8 8-8m29 27.75q0.05 2.2-1.95 3.85l0.05-0.1q-1.7 1.5-4.1 1.5t-4.1-1.45q-1.85-1.5-1.9-3.55h4.1l0.35 0.45v0.05q0.65 0.5 1.55 0.5t1.5-0.5l0.05-0.05 0.45-0.7-0.4-0.75q-0.4-0.35-0.9-0.45l-0.55-0.05h-2.15v-4h2.15q0.85 0 1.45-0.5l0.4-0.75-0.45-0.7-0.05-0.05q-0.6-0.5-1.5-0.5t-1.55 0.5v0.05l-0.35 0.45h-4.1q0.05-2.05 1.9-3.55 1.7-1.45 4.1-1.45t4.1 1.5l-0.05-0.1q2 1.65 1.95 3.85 0.05 1.85-1.25 3.25 1.3 1.4 1.25 3.25m-34-19.75v32q0 5 5 5h32q5 0 5-5v-32q0-5-5-5h-32q-5 0-5 5m12 25h-4v-17h11v4h-7v3h7v4h-7v6" fill="#fff"/>
</svg>
