<?xml version="1.0" encoding="UTF-8"?>
<svg viewBox="0 0 64 64" xmlns="http://www.w3.org/2000/svg">
<path d="m16 8h32q8 0 8 8v32q0 8-8 8h-32q-8 0-8-8v-32q0-8 8-8m23.25 16.8q-2.8-2.8-6.75-2.8t-6.7 2.8q-2.8 2.75-2.8 6.7v1.35l0.3 2.1q0.55 2.35 2.5 4.3 2.75 2.75 6.7 2.75t6.75-2.75q1.85-1.95 2.5-4.25l0.05-0.15 0.2-2v-0.85l-1-1h-10v4h6.45l-1.05 1.4q-1.65 1.6-3.9 1.6t-3.85-1.6q-1.1-1.1-1.45-2.4l-0.2-1.35v-1.15q0-2.25 1.65-3.85 1.6-1.65 3.85-1.65t3.9 1.65l0.45 0.5 2.85-2.85-0.45-0.5" fill="#fff"/>
</svg>
