<?xml version="1.0" encoding="UTF-8"?>
<svg viewBox="0 0 64 64" xmlns="http://www.w3.org/2000/svg">
<path d="m16 8h32q8 0 8 8v32q0 8-8 8h-32q-8 0-8-8v-32q0-8 8-8m23.25 16.8 0.45 0.5-2.85 2.85-0.45-0.5q-1.65-1.65-3.9-1.65t-3.85 1.65q-1.65 1.6-1.65 3.85v1.15l0.2 1.35q0.35 1.3 1.45 2.4 1.6 1.6 3.85 1.6t3.9-1.6l1.05-1.4h-6.45v-4h10l1 1v0.85l-0.2 2-0.05 0.15q-0.65 2.3-2.5 4.25-2.8 2.75-6.75 2.75t-6.7-2.75q-1.95-1.95-2.5-4.3l-0.3-2.1v-1.35q0-3.95 2.8-6.7 2.75-2.8 6.7-2.8t6.75 2.8m-28.25-8.8v32q0 5 5 5h32q5 0 5-5v-32q0-5-5-5h-32q-5 0-5 5" fill="#fff"/>
</svg>
