<?xml version="1.0" encoding="UTF-8"?>
<svg viewBox="0 0 64 64" xmlns="http://www.w3.org/2000/svg">
<path d="m16 8h32q8 0 8 8v32q0 8-8 8h-32q-8 0-8-8v-32q0-8 8-8m24 20v8q0 0.4 0.3 0.7l0.7 0.3h4l0.7-0.3 0.3-0.7-0.3-0.7q-0.3-0.3-0.7-0.3h-3v-2h3l0.7-0.3 0.3-0.7-0.3-0.7q-0.3-0.3-0.7-0.3h-3v-2h3l0.7-0.3 0.3-0.7-0.3-0.7q-0.3-0.3-0.7-0.3h-4l-0.3 0.05q-0.25 0.05-0.4 0.25-0.3 0.3-0.3 0.7m-17 8v-8l-0.3-0.7q-0.15-0.2-0.4-0.25l-0.3-0.05-0.3 0.05q-0.25 0.05-0.4 0.25-0.3 0.3-0.3 0.7v3h-2v-3l-0.3-0.7q-0.15-0.2-0.4-0.25l-0.3-0.05-0.3 0.05q-0.25 0.05-0.4 0.25-0.3 0.3-0.3 0.7v8q0 0.4 0.3 0.7l0.7 0.3q0.4 0 0.7-0.3l0.3-0.7v-3h2v3q0 0.4 0.3 0.7t0.7 0.3l0.7-0.3 0.3-0.7m16 0v-8l-0.3-0.7q-0.15-0.2-0.4-0.25l-0.3-0.05-0.3 0.05q-0.25 0.05-0.4 0.25l-2.3 2.3-2.3-2.3q-0.15-0.2-0.4-0.25l-0.3-0.05-0.3 0.05q-0.25 0.05-0.4 0.25-0.3 0.3-0.3 0.7v8q0 0.4 0.3 0.7t0.7 0.3l0.7-0.3 0.3-0.7v-5.6l1.3 1.3q0.3 0.3 0.7 0.3l0.7-0.3 1.3-1.3v5.6q0 0.4 0.3 0.7t0.7 0.3l0.7-0.3 0.3-0.7m-14.15-8.2q-0.85 0.85-0.85 2v4.45q0 1.1 0.85 1.95l0.05 0.1q0.85 0.7 2.1 0.7 1.15 0 2.05-0.7l0.05-0.05q0.9-0.9 0.9-2v-4.45q0-1.15-0.9-2l-0.05-0.05q-0.65-0.55-1.45-0.7l-0.6-0.05-0.6 0.05q-0.85 0.15-1.5 0.7l-0.05 0.05m1.15 2q0-0.35 0.25-0.6l-0.05 0.1q0.35-0.3 0.8-0.3t0.75 0.3v-0.05l0.25 0.55v4.45l-0.25 0.55v-0.05l-0.75 0.25-0.8-0.25-0.2-0.5v-4.45" fill="#fff"/>
</svg>
