<?xml version="1.0" encoding="UTF-8"?>
<svg viewBox="0 0 64 64" xmlns="http://www.w3.org/2000/svg">
<path d="m48 56h-32q-8 0-8-8v-32q0-8 8-8h32q8 0 8 8v32q0 8-8 8m-1.9-25h-1.1v-2h1.05q0.4 0 0.65 0.25l0.3 0.75-0.25 0.7h-0.05l-0.25 0.2-0.35 0.1m2 1.1q0.9-0.85 0.9-2.1t-0.9-2.15q-0.85-0.85-2.05-0.85h-2.05q-0.4 0-0.7 0.3t-0.3 0.7v8q0 0.4 0.3 0.7t0.7 0.3l0.7-0.3 0.3-0.7v-3h0.4l1.7 3.45q0.2 0.35 0.6 0.5l0.75-0.05 0.5-0.55q0.15-0.4-0.05-0.8l-1.45-2.9 0.65-0.5v-0.05m-12.1-4.1v8q0 0.4 0.3 0.7l0.7 0.3h4l0.7-0.3 0.3-0.7-0.3-0.7q-0.3-0.3-0.7-0.3h-3v-2h3l0.7-0.3 0.3-0.7-0.3-0.7q-0.3-0.3-0.7-0.3h-3v-2h3l0.7-0.3 0.3-0.7-0.3-0.7q-0.3-0.3-0.7-0.3h-4q-0.4 0-0.7 0.3t-0.3 0.7m-16 3h-3v-2h3l0.7-0.3 0.3-0.7-0.3-0.7q-0.3-0.3-0.7-0.3h-4q-0.4 0-0.7 0.3t-0.3 0.7v8q0 0.4 0.3 0.7l0.7 0.3h4l0.7-0.3 0.3-0.7-0.3-0.7q-0.3-0.3-0.7-0.3h-3v-2h3l0.7-0.3 0.3-0.7-0.3-0.7q-0.3-0.3-0.7-0.3m10-2h1v7q0 0.4 0.3 0.7t0.7 0.3l0.7-0.3 0.3-0.7v-7h1q0.4 0 0.7-0.3l0.3-0.7-0.3-0.7q-0.3-0.3-0.7-0.3h-4q-0.4 0-0.7 0.3t-0.3 0.7 0.3 0.7l0.7 0.3m-8 0.8v6.2q0 0.4 0.3 0.7t0.7 0.3l0.7-0.3 0.3-0.7v-6.2l0.25-0.6-0.05 0.1q0.35-0.3 0.8-0.3t0.75 0.3v-0.05l0.25 0.55v6.2l0.3 0.7 0.7 0.3q0.4 0 0.7-0.3l0.3-0.7v-6.2q0-1.15-0.9-2l-0.05-0.05q-0.9-0.75-2.05-0.75-1.25 0-2.1 0.75l-0.05 0.05q-0.85 0.85-0.85 2" fill="#fff"/>
</svg>
