<?xml version="1.0" encoding="UTF-8"?>
<svg viewBox="0 0 64 64" xmlns="http://www.w3.org/2000/svg">
<path d="m11 22v20q0 3 1.6 4.3 1.3 0.7 3.4 0.7h32q2.1 0 3.4-0.7 1.6-1.3 1.6-4.3v-20q0-5-5-5h-32q-5 0-5 5m45 0v20q0 4.9-3 6.8-1.9 1.2-5 1.2h-32q-3.1 0-5-1.2-3-1.9-3-6.8v-20q0-8 8-8h32q8 0 8 8m-34 6.75v2.25h2v-2.25l-0.2-0.45-0.8-0.3q-0.45 0-0.75 0.25l-0.05 0.05-0.2 0.45m7-3.75h3v10h5v3h-8v-13m-10 3.75q0-1.6 1.2-2.7h0.05q1.15-1.05 2.75-1.05 1.55 0 2.75 1.05 1.25 1.1 1.25 2.7v9.25h-3v-4h-2v4h-3v-9.25m24 9.25h-3v-10h-3v-3h9v3h-3v10" fill="#fff"/>
</svg>
