<?xml version="1.0" encoding="UTF-8"?>
<svg viewBox="0 0 64 64" xmlns="http://www.w3.org/2000/svg">
<path d="m31 35q0-0.85-0.55-1.4-0.6-0.6-1.45-0.6h-6q-0.85 0-1.4 0.6-0.6 0.55-0.6 1.4v6q0 0.85 0.6 1.45 0.55 0.55 1.4 0.55h6q0.85 0 1.45-0.55 0.55-0.6 0.55-1.45v-6m0-12q0-0.85-0.55-1.4-0.6-0.6-1.45-0.6h-6q-0.85 0-1.4 0.6-0.6 0.55-0.6 1.4v6q0 0.85 0.6 1.45 0.55 0.55 1.4 0.55h6q0.85 0 1.45-0.55 0.55-0.6 0.55-1.45v-6m2 18q0 0.85 0.6 1.45 0.55 0.55 1.4 0.55h6q0.85 0 1.45-0.55 0.55-0.6 0.55-1.45v-6q0-0.85-0.55-1.4-0.6-0.6-1.45-0.6h-6q-0.85 0-1.4 0.6-0.6 0.55-0.6 1.4v6m15-33q8 0 8 8v32q0 8-8 8h-32q-8 0-8-8v-32q0-8 8-8h32m-13 23h6q0.85 0 1.45-0.55 0.55-0.6 0.55-1.45v-6q0-0.85-0.55-1.4-0.6-0.6-1.45-0.6h-6q-0.85 0-1.4 0.6-0.6 0.55-0.6 1.4v6q0 0.85 0.6 1.45 0.55 0.55 1.4 0.55" fill="#fff"/>
</svg>
