<?xml version="1.0" encoding="UTF-8"?>
<svg viewBox="0 0 64 64" xmlns="http://www.w3.org/2000/svg">
<path d="m35 31q-0.85 0-1.4-0.55-0.6-0.6-0.6-1.45v-6q0-0.85 0.6-1.4 0.55-0.6 1.4-0.6h6q0.85 0 1.45 0.6 0.55 0.55 0.55 1.4v6q0 0.85-0.55 1.45-0.6 0.55-1.45 0.55h-6m18-15q0-5-5-5h-32q-5 0-5 5v32q0 5 5 5h32q5 0 5-5v-32m-5-8q8 0 8 8v32q0 8-8 8h-32q-8 0-8-8v-32q0-8 8-8h32m-15 33v-6q0-0.85 0.6-1.4 0.55-0.6 1.4-0.6h6q0.85 0 1.45 0.6 0.55 0.55 0.55 1.4v6q0 0.85-0.55 1.45-0.6 0.55-1.45 0.55h-6q-0.85 0-1.4-0.55-0.6-0.6-0.6-1.45m-2-18v6q0 0.85-0.55 1.45-0.6 0.55-1.45 0.55h-6q-0.85 0-1.4-0.55-0.6-0.6-0.6-1.45v-6q0-0.85 0.6-1.4 0.55-0.6 1.4-0.6h6q0.85 0 1.45 0.6 0.55 0.55 0.55 1.4m0 12v6q0 0.85-0.55 1.45-0.6 0.55-1.45 0.55h-6q-0.85 0-1.4-0.55-0.6-0.6-0.6-1.45v-6q0-0.85 0.6-1.4 0.55-0.6 1.4-0.6h6q0.85 0 1.45 0.6 0.55 0.55 0.55 1.4" fill="#fff"/>
</svg>
