<?xml version="1.0" encoding="UTF-8"?>
<svg viewBox="0 0 64 64" xmlns="http://www.w3.org/2000/svg">
<path d="m16 16h32q8 0 8 8v16q0 4.9-3 6.8-1.9 1.2-5 1.2h-32q-3.1 0-5-1.2-3-1.9-3-6.8v-16q0-8 8-8m26 13h1v7q0 0.4 0.3 0.7t0.7 0.3l0.7-0.3 0.3-0.7v-7h1l0.7-0.3 0.3-0.7-0.3-0.7q-0.3-0.3-0.7-0.3h-4q-0.4 0-0.7 0.3t-0.3 0.7 0.3 0.7l0.7 0.3m-22 0h2l0.7-0.3 0.3-0.7-0.3-0.7q-0.3-0.3-0.7-0.3h-2q-1.2 0-2.1 0.9t-0.9 2.1 0.9 2.1 2.05 0.9h0.1q0.35 0 0.65 0.3l0.3 0.7-0.3 0.7-0.7 0.3h-2q-0.4 0-0.7 0.3t-0.3 0.7 0.3 0.7l0.7 0.3h2q1.2 0 2.1-0.9t0.9-2.1-0.9-2.1-2.05-0.9h-0.1l-0.65-0.3q-0.3-0.3-0.3-0.7t0.3-0.7 0.7-0.3m16 7v-3h3q0.4 0 0.7-0.3l0.3-0.7-0.3-0.7q-0.3-0.3-0.7-0.3h-3v-2h3q0.4 0 0.7-0.3l0.3-0.7-0.3-0.7q-0.3-0.3-0.7-0.3h-4q-0.4 0-0.7 0.3t-0.3 0.7v8q0 0.4 0.3 0.7t0.7 0.3l0.7-0.3 0.3-0.7m-3 0v-8l-0.3-0.7q-0.3-0.3-0.7-0.3t-0.7 0.3-0.3 0.7v8q0 0.4 0.3 0.7t0.7 0.3l0.7-0.3 0.3-0.7m-3 0v-8l-0.3-0.7-0.7-0.3q-0.4 0-0.7 0.3t-0.3 0.7v3h-2v-3l-0.3-0.7q-0.3-0.3-0.7-0.3t-0.7 0.3-0.3 0.7v8q0 0.4 0.3 0.7l0.7 0.3 0.7-0.3 0.3-0.7v-3h2v3q0 0.4 0.3 0.7t0.7 0.3l0.7-0.3 0.3-0.7" fill="#fff"/>
</svg>
