<?xml version="1.0" encoding="UTF-8"?>
<svg viewBox="0 0 64 64" xmlns="http://www.w3.org/2000/svg">
<path d="m35 25h-6v-2q0-2.5-1.75-4.25t-4.25-1.75q-2.45 0-4.2 1.7l-0.1 0.1q-1.7 1.75-1.7 4.2 0 2.5 1.75 4.25t4.25 1.75h2v6h-2q-2.5 0-4.25 1.8-1.75 1.7-1.75 4.2 0 2.45 1.7 4.25l0.05 0.05h0.05q1.75 1.7 4.2 1.7 2.5 0 4.25-1.7 1.75-1.8 1.75-4.3v-2h6v2q0 2.5 1.8 4.3 1.7 1.7 4.2 1.7 2.45 0 4.25-1.7h0.05v-0.05q1.7-1.8 1.7-4.25 0-2.5-1.7-4.2-1.8-1.8-4.3-1.8h-2v-6h2q2.5 0 4.3-1.75 1.7-1.75 1.7-4.25 0-2.45-1.7-4.2v-0.05l-0.05-0.05q-1.8-1.7-4.25-1.7-2.5 0-4.2 1.75-1.8 1.75-1.8 4.25v2m7.45-0.6q-0.65 0.6-1.45 0.6h-2v-2q0-0.8 0.65-1.4 0.55-0.6 1.35-0.6t1.4 0.55l0.1 0.05q0.5 0.6 0.5 1.4t-0.55 1.4m5.55-16.4q8 0 8 8v32q0 8-8 8h-32q-8 0-8-8v-32q0-8 8-8h32m-7 31q0.8 0 1.45 0.65 0.55 0.55 0.55 1.35t-0.5 1.4l-0.1 0.1q-0.6 0.5-1.4 0.5t-1.35-0.55q-0.65-0.65-0.65-1.45v-2h2m-18-14q-0.8 0-1.4-0.6t-0.6-1.4 0.55-1.4l0.05-0.05q0.6-0.55 1.4-0.55t1.4 0.6 0.6 1.4v2h-2m12 4v6h-6v-6h6m-13.4 10.65q0.6-0.65 1.4-0.65h2v2q0 0.8-0.6 1.45-0.6 0.55-1.4 0.55t-1.4-0.5l-0.05-0.1q-0.55-0.6-0.55-1.4t0.6-1.35" fill="#fff"/>
</svg>
