<?xml version="1.0" encoding="UTF-8"?>
<svg viewBox="0 0 64 64" xmlns="http://www.w3.org/2000/svg">
<path d="m41 31v-8l-0.3-0.7q-0.3-0.3-0.7-0.3t-0.7 0.3l-2.3 2.3-2.3-2.3q-0.3-0.3-0.7-0.3t-0.7 0.3-0.3 0.7v8q0 0.4 0.3 0.7l0.7 0.3q0.4 0 0.7-0.3l0.3-0.7v-5.6l1.3 1.3 0.7 0.3 0.7-0.3 1.3-1.3v5.6q0 0.4 0.3 0.7t0.7 0.3l0.7-0.3 0.3-0.7m-25-23h32q8 0 8 8v32q0 8-8 8h-32q-8 0-8-8v-32q0-8 8-8m24 26v8q0 0.4 0.3 0.7l0.7 0.3 0.7-0.3 0.3-0.7v-3h0.4l1.7 3.45q0.2 0.35 0.6 0.5l0.75-0.05 0.5-0.55-0.05-0.8-1.75-3.55 1.75-3.55 0.05-0.75-0.5-0.6-0.75-0.05q-0.4 0.15-0.6 0.5l-1.7 3.45h-0.4v-3l-0.3-0.7q-0.3-0.3-0.7-0.3t-0.7 0.3-0.3 0.7m-21-9.2v6.2q0 0.4 0.3 0.7l0.7 0.3 0.7-0.3 0.3-0.7v-6.2l0.25-0.6-0.05 0.1q0.35-0.3 0.8-0.3t0.75 0.3v-0.05l0.25 0.55v6.2q0 0.4 0.3 0.7t0.7 0.3l0.7-0.3 0.3-0.7v-6.2q0-1.15-0.9-2l-0.05-0.05q-0.9-0.75-2.05-0.75-1.25 0-2.1 0.75l-0.05 0.05q-0.85 0.85-0.85 2m9 4.4v-6.2l-0.3-0.7q-0.3-0.3-0.7-0.3t-0.7 0.3-0.3 0.7v6.2q0 1.15 0.85 2l0.05 0.1q0.85 0.7 2.1 0.7 1.15 0 2.05-0.7l0.05-0.05q0.9-0.9 0.9-2.05v-6.2l-0.3-0.7q-0.3-0.3-0.7-0.3t-0.7 0.3-0.3 0.7v6.2l-0.25 0.6v-0.05l-0.75 0.25-0.8-0.25-0.2-0.55m-9 4.8v8q0 0.4 0.3 0.7l0.7 0.3h4l0.7-0.3 0.3-0.7-0.3-0.7q-0.3-0.3-0.7-0.3h-3v-7l-0.3-0.7q-0.3-0.3-0.7-0.3t-0.7 0.3-0.3 0.7m19.1 8.25q0.9-0.9 0.9-2l-0.3-0.7-0.7-0.3q-0.4 0-0.7 0.3t-0.3 0.7l-0.25 0.55v-0.05l-0.75 0.25-0.8-0.25-0.2-0.5v-4.45q0-0.35 0.25-0.6l-0.05 0.1q0.35-0.3 0.8-0.3t0.75 0.3v-0.05l0.25 0.55q0 0.4 0.3 0.7t0.7 0.3l0.7-0.3 0.3-0.7q0-1.15-0.9-2l-0.05-0.05q-0.9-0.75-2.05-0.75-1.25 0-2.1 0.75l-0.05 0.05q-0.85 0.85-0.85 2v4.45q0 1.1 0.85 1.95l0.05 0.1q0.85 0.7 2.1 0.7 1.15 0 2.05-0.7l0.05-0.05m-11.25-8.45q-0.85 0.85-0.85 2v4.45q0 1.1 0.85 1.95l0.05 0.1q0.85 0.7 2.1 0.7 1.15 0 2.05-0.7l0.05-0.05q0.9-0.9 0.9-2v-4.45q0-1.15-0.9-2l-0.05-0.05q-0.9-0.75-2.05-0.75-1.25 0-2.1 0.75l-0.05 0.05m1.15 2q0-0.35 0.25-0.6l-0.05 0.1q0.35-0.3 0.8-0.3t0.75 0.3v-0.05l0.25 0.55v4.45l-0.25 0.55v-0.05l-0.75 0.25-0.8-0.25-0.2-0.5v-4.45" fill="#fff"/>
</svg>
