<?xml version="1.0" encoding="UTF-8"?>
<svg viewBox="0 0 64 64" xmlns="http://www.w3.org/2000/svg">
<path d="m11 16v32q0 5 5 5h32q5 0 5-5v-32q0-5-5-5h-32q-5 0-5 5m5-8h32q8 0 8 8v32q0 8-8 8h-32q-8 0-8-8v-32q0-8 8-8m18.55 19.4q-1.1-1.3-2.55-1.4-1.5 0.1-2.6 1.45-1.4 1.9-1.4 4.55t1.4 4.6q1.1 1.3 2.6 1.4 1.45-0.1 2.55-1.4 1.45-1.95 1.45-4.6t-1.45-4.55v-0.05m5.45 4.6q0 4.15-2.35 7.1-2.35 2.9-5.65 2.9-3.35 0-5.7-2.9-2.3-2.95-2.3-7.1t2.3-7.1q2.35-2.9 5.7-2.9 3.3 0 5.65 2.9 2.35 2.95 2.35 7.1" fill="#fff"/>
</svg>
