<?xml version="1.0" encoding="UTF-8"?>
<svg viewBox="0 0 64 64" xmlns="http://www.w3.org/2000/svg">
<path d="m36.95 27h-1q-0.4 0-0.7 0.3t-0.3 0.7 0.3 0.7l0.7 0.3v0.25l-0.25 0.55v-0.05l-0.75 0.25-0.8-0.25-0.2-0.5v-4.45q0-0.35 0.25-0.6l-0.05 0.1q0.35-0.3 0.8-0.3l0.75 0.3v-0.05l0.25 0.55q0 0.4 0.3 0.7t0.7 0.3l0.7-0.3 0.3-0.7q0-1.15-0.9-2l-0.05-0.05q-0.9-0.75-2.05-0.75-1.25 0-2.1 0.75l-0.05 0.05q-0.85 0.85-0.85 2v4.45q0 1.1 0.85 1.95l0.05 0.1q0.85 0.7 2.1 0.7 1.15 0 2.05-0.7l0.05-0.05q0.9-0.9 0.9-2v-1.25l-0.3-0.7-0.7-0.3m7.05-5h-4q-0.4 0-0.7 0.3t-0.3 0.7v8q0 0.4 0.3 0.7t0.7 0.3h4l0.7-0.3 0.3-0.7-0.3-0.7q-0.3-0.3-0.7-0.3h-3v-2h3l0.7-0.3 0.3-0.7-0.3-0.7q-0.3-0.3-0.7-0.3h-3v-2h3l0.7-0.3 0.3-0.7-0.3-0.7q-0.3-0.3-0.7-0.3m-28-14h32q8 0 8 8v32q0 8-8 8h-32q-8 0-8-8v-32q0-8 8-8m24.95 27.8v6.2q0 0.4 0.3 0.7t0.7 0.3l0.7-0.3 0.3-0.7v-6.2q0-0.35 0.25-0.6l-0.05 0.1q0.35-0.3 0.8-0.3l0.75 0.3v-0.05l0.25 0.55v6.2q0 0.4 0.3 0.7t0.7 0.3l0.7-0.3 0.3-0.7v-6.2q0-1.15-0.9-2l-0.05-0.05q-0.9-0.75-2.05-0.75-1.25 0-2.1 0.75l-0.05 0.05q-0.85 0.85-0.85 2m-9-1.65 1 8 0.25 0.55 0.55 0.3 0.6-0.05 0.45-0.4 1.15-1.75 1.2 1.75 0.45 0.4 0.6 0.05 0.5-0.3 0.25-0.55 1-8-0.2-0.75q-0.25-0.35-0.65-0.4-0.45-0.05-0.75 0.2-0.35 0.25-0.4 0.7l-0.65 5.3-0.5-0.75-0.5-0.4h-0.65l-0.5 0.4-0.5 0.75-0.7-5.3-0.35-0.7q-0.35-0.25-0.75-0.2-0.45 0.05-0.7 0.4-0.25 0.3-0.2 0.75m-10.85-8.15h-1.1v-2h1.05l0.65 0.25 0.3 0.75-0.25 0.7h-0.05l-0.25 0.2-0.35 0.1m0 2 1.25-0.3 0.1-0.05 0.65-0.5v-0.05q0.9-0.85 0.9-2.1t-0.9-2.15q-0.85-0.85-2.05-0.85h-2.05q-0.4 0-0.7 0.3t-0.3 0.7v8q0 0.4 0.3 0.7t0.7 0.3l0.7-0.3 0.3-0.7v-3h1.1m5.9-3.2 0.25-0.6-0.05 0.1q0.35-0.3 0.8-0.3t0.75 0.3v-0.05l0.25 0.55v2.2h-2v-2.2m-2 0v6.2q0 0.4 0.3 0.7t0.7 0.3l0.7-0.3 0.3-0.7v-2h2v2q0 0.4 0.3 0.7l0.7 0.3q0.4 0 0.7-0.3l0.3-0.7v-6.2q0-1.15-0.9-2l-0.05-0.05q-0.9-0.75-2.05-0.75-1.25 0-2.1 0.75l-0.05 0.05q-0.85 0.85-0.85 2m0.8 9q-0.85 0.85-0.85 2v4.45q0 1.1 0.85 1.95l0.05 0.1q0.85 0.7 2.1 0.7 1.15 0 2.05-0.7l0.05-0.05q0.9-0.9 0.9-2v-4.45q0-1.15-0.9-2l-0.05-0.05q-0.9-0.75-2.05-0.75-1.25 0-2.1 0.75l-0.05 0.05m1.15 2q0-0.35 0.25-0.6l-0.05 0.1q0.35-0.3 0.8-0.3l0.75 0.3v-0.05l0.25 0.55v4.45l-0.25 0.55v-0.05l-0.75 0.25-0.8-0.25-0.2-0.5v-4.45m-3.9-2.05q-0.9-0.75-2-0.75h-2.05q-0.4 0-0.7 0.3t-0.3 0.7v8q0 0.4 0.3 0.7t0.7 0.3h2.05q1.1 0 2-0.7l0.05-0.05q0.9-0.9 0.9-2v-4.45q0-1.15-0.9-2l-0.05-0.05m-2 1.25q0.4 0 0.7 0.3v-0.05l0.25 0.55v4.45l-0.25 0.55v-0.05l-0.7 0.25h-1.05v-6h1.05" fill="#fff"/>
</svg>
