<?xml version="1.0" encoding="UTF-8"?>
<svg viewBox="0 0 64 64" xmlns="http://www.w3.org/2000/svg">
<path d="m44 26q0.4 0 0.7 0.3l0.3 0.7-0.3 0.7-0.7 0.3h-3v2h3q0.4 0 0.7 0.3l0.3 0.7-0.3 0.7-0.7 0.3h-4q-0.4 0-0.7-0.3t-0.3-0.7v-8q0-0.4 0.3-0.7t0.7-0.3h4q0.4 0 0.7 0.3l0.3 0.7-0.3 0.7-0.7 0.3h-3v2h3m-7 1q0.4 0 0.7 0.3l0.3 0.7v1.25q0 1.1-0.9 2l-0.05 0.05q-0.9 0.7-2.05 0.7-1.25 0-2.1-0.7l-0.05-0.1q-0.85-0.85-0.85-1.95v-4.45q0-1.15 0.85-2l0.05-0.05q0.85-0.75 2.1-0.75 1.15 0 2.05 0.75l0.05 0.05q0.9 0.85 0.9 2l-0.3 0.7-0.7 0.3-0.7-0.3q-0.3-0.3-0.3-0.7l-0.25-0.55v0.05q-0.3-0.3-0.75-0.3t-0.8 0.3l0.05-0.1q-0.25 0.25-0.25 0.6v4.45l0.2 0.5 0.8 0.25 0.75-0.25v0.05l0.25-0.55v-0.25q-0.4 0-0.7-0.3l-0.3-0.7q0-0.4 0.3-0.7t0.7-0.3h1m-21-19h32q8 0 8 8v32q0 8-8 8h-32q-8 0-8-8v-32q0-8 8-8m4 32.2 0.2 0.55 0.8 0.25 0.75-0.25v0.05l0.25-0.6v-6.2q0-0.4 0.3-0.7t0.7-0.3 0.7 0.3l0.3 0.7v6.2q0 1.15-0.9 2.05l-0.05 0.05q-0.9 0.7-2.05 0.7-1.25 0-2.1-0.7l-0.05-0.1q-0.85-0.85-0.85-2v-6.2q0-0.4 0.3-0.7t0.7-0.3 0.7 0.3l0.3 0.7v6.2m8.1-1.2h-1.1v3l-0.3 0.7-0.7 0.3q-0.4 0-0.7-0.3t-0.3-0.7v-8q0-0.4 0.3-0.7t0.7-0.3h2.05q1.2 0 2.05 0.85 0.9 0.9 0.9 2.15t-0.9 2.1v0.05l-0.65 0.5-0.1 0.05-1.25 0.3m0-2 0.35-0.1 0.25-0.2h0.05l0.25-0.7-0.3-0.75-0.65-0.25h-1.05v2h1.1m-3.1-12.2q0-1.15 0.85-2l0.05-0.05q0.85-0.75 2.1-0.75 1.15 0 2.05 0.75l0.05 0.05q0.9 0.85 0.9 2v6.2l-0.3 0.7q-0.3 0.3-0.7 0.3l-0.7-0.3q-0.3-0.3-0.3-0.7v-2h-2v2l-0.3 0.7-0.7 0.3q-0.4 0-0.7-0.3t-0.3-0.7v-6.2m2 0v2.2h2v-2.2l-0.25-0.55v0.05q-0.3-0.3-0.75-0.3t-0.8 0.3l0.05-0.1-0.25 0.6m-5.9 3.2h-1.1v3l-0.3 0.7-0.7 0.3q-0.4 0-0.7-0.3t-0.3-0.7v-8q0-0.4 0.3-0.7t0.7-0.3h2.05q1.2 0 2.05 0.85 0.9 0.9 0.9 2.15t-0.9 2.1v0.05l-0.65 0.5-0.1 0.05-1.25 0.3m0-2 0.35-0.1 0.25-0.2h0.05l0.25-0.7-0.3-0.75-0.65-0.25h-1.05v2h1.1m-10.1-10v32q0 5 5 5h32q5 0 5-5v-32q0-5-5-5h-32q-5 0-5 5" fill="#fff"/>
</svg>
