<?xml version="1.0" encoding="UTF-8"?>
<svg viewBox="0 0 64 64" xmlns="http://www.w3.org/2000/svg">
<path d="m11 16v32q0 5 5 5h32q5 0 5-5v-32q0-5-5-5h-32q-5 0-5 5m17 14v4.1q0.05 1.6 1.2 2.75t2.8 1.15l0.9-0.1-0.9-0.9v-3h3l0.9 0.9 0.1-0.8v-4.1q0-1.65-1.15-2.8-1.2-1.2-2.85-1.2t-2.8 1.2q-1.2 1.15-1.2 2.8m-12-22h32q8 0 8 8v32q0 8-8 8h-32q-8 0-8-8v-32q0-8 8-8m8 22q0-3.3 2.35-5.65t5.65-2.35 5.65 2.35 2.35 5.65v4.2q-0.05 2.05-1 3.8l1 1v3h-3l-1-1q-1.8 1-4 1t-4-1.05l-1.65-1.3q-2.3-2.3-2.35-5.45v-4.2" fill="#fff"/>
</svg>
