<?xml version="1.0" encoding="UTF-8"?>
<svg version="1.1" viewBox="0 0 64 64" xmlns="http://www.w3.org/2000/svg">
<path d="m11 22v20c0 2 0.53333 3.4333 1.6 4.3 0.86667 0.46667 2 0.7 3.4 0.7h32c1.4 0 2.5333-0.23333 3.4-0.7 1.0667-0.86667 1.6-2.3 1.6-4.3v-20c0-3.3333-1.6667-5-5-5h-32c-3.3333 0-5 1.6667-5 5m45 0v20c0 3.2667-1 5.5333-3 6.8-1.2667 0.8-2.9333 1.2-5 1.2h-32c-2.0667 0-3.7333-0.4-5-1.2-2-1.2667-3-3.5333-3-6.8v-20c0-5.3333 2.6667-8 8-8h32c5.3333 0 8 2.6667 8 8m-8.1449 16.5v-10h3v-3h-9v3h3v10h3m-24-9.25v9.25h3v-4h2v4h3v-9.25c0-1.0667-0.41667-1.9667-1.25-2.7-0.8-0.7-1.7167-1.05-2.75-1.05-1.0667 0-1.9833 0.35-2.75 1.05h-0.05c-0.8 0.73333-1.2 1.6333-1.2 2.7m10-3.75v13h8v-3h-5v-10h-3m-7 3.75 0.2-0.45 0.05-0.05c0.2-0.16667 0.45-0.25 0.75-0.25l0.8 0.3 0.2 0.45v2.25h-2v-2.25m-5.7181 0.229c0-1.11-0.3996-2.0646-1.1988-2.8638-0.75482-0.75481-1.665-1.1152-2.7306-1.1152h-4.0626v13h2.664v-5.025h0.53281l2.2644 5.025h2.4642s-1.1076-3.7103-1.998-5.4912c0.31174-0.18522 0.63274-0.52566 0.86581-0.73261 0.79921-0.75481 1.1988-1.6873 1.1988-2.7972zm-5.3281 2.021v-3.353h1.3986c1.6915 0.11513 1.475 2.6254 0.53281 3.353z" fill="#fff"/>
</svg>
