<?xml version="1.0" encoding="UTF-8"?>
<svg version="1.1" viewBox="0 0 64 64" xmlns="http://www.w3.org/2000/svg">
<path d="m16 16h32c5.3333 0 8 2.6667 8 8v16c0 3.2667-1 5.5333-3 6.8-1.2667 0.8-2.9333 1.2-5 1.2h-32c-2.0667 0-3.7333-0.4-5-1.2-2-1.2667-3-3.5333-3-6.8v-16c0-5.3333 2.6667-8 8-8m30 13h1v7c0 0.26667 0.1 0.5 0.3 0.7s0.43333 0.3 0.7 0.3l0.7-0.3 0.3-0.7v-7h1l0.7-0.3 0.3-0.7-0.3-0.7c-0.2-0.2-0.43333-0.3-0.7-0.3h-4c-0.26667 0-0.5 0.1-0.7 0.3s-0.3 0.43333-0.3 0.7 0.1 0.5 0.3 0.7l0.7 0.3m-22 0h2l0.7-0.3 0.3-0.7-0.3-0.7c-0.2-0.2-0.43333-0.3-0.7-0.3h-2c-0.8 0-1.5 0.3-2.1 0.9s-0.9 1.3-0.9 2.1 0.3 1.5 0.9 2.1 1.2833 0.9 2.05 0.9h0.1c0.23333 0 0.45 0.1 0.65 0.3l0.3 0.7-0.3 0.7-0.7 0.3h-2c-0.26667 0-0.5 0.1-0.7 0.3s-0.3 0.43333-0.3 0.7 0.1 0.5 0.3 0.7l0.7 0.3h2c0.8 0 1.5-0.3 2.1-0.9s0.9-1.3 0.9-2.1-0.3-1.5-0.9-2.1-1.2833-0.9-2.05-0.9h-0.1l-0.65-0.3c-0.2-0.2-0.3-0.43333-0.3-0.7s0.1-0.5 0.3-0.7 0.43333-0.3 0.7-0.3m16 7v-3h3c0.26667 0 0.5-0.1 0.7-0.3l0.3-0.7-0.3-0.7c-0.2-0.2-0.43333-0.3-0.7-0.3h-3v-2h3c0.26667 0 0.5-0.1 0.7-0.3l0.3-0.7-0.3-0.7c-0.2-0.2-0.43333-0.3-0.7-0.3h-4c-0.26667 0-0.5 0.1-0.7 0.3s-0.3 0.43333-0.3 0.7v8c0 0.26667 0.1 0.5 0.3 0.7s0.43333 0.3 0.7 0.3l0.7-0.3 0.3-0.7m-3 0v-8l-0.3-0.7c-0.2-0.2-0.43333-0.3-0.7-0.3s-0.5 0.1-0.7 0.3-0.3 0.43333-0.3 0.7v8c0 0.26667 0.1 0.5 0.3 0.7s0.43333 0.3 0.7 0.3l0.7-0.3 0.3-0.7m-3 0v-8l-0.3-0.7-0.7-0.3c-0.26667 0-0.5 0.1-0.7 0.3s-0.3 0.43333-0.3 0.7v3h-2v-3l-0.3-0.7c-0.2-0.2-0.43333-0.3-0.7-0.3s-0.5 0.1-0.7 0.3-0.3 0.43333-0.3 0.7v8c0 0.26667 0.1 0.5 0.3 0.7l0.7 0.3 0.7-0.3 0.3-0.7v-3h2v3c0 0.26667 0.1 0.5 0.3 0.7s0.43333 0.3 0.7 0.3l0.7-0.3 0.3-0.7m-15.9-3.9c0.6-0.56667 0.9-1.2667 0.9-2.1s-0.3-1.55-0.9-2.15c-0.56667-0.56667-1.25-0.85-2.05-0.85h-2.05c-0.26667 0-0.5 0.1-0.7 0.3s-0.3 0.43333-0.3 0.7v8c0 0.26667 0.1 0.5 0.3 0.7l0.7 0.3c0.26667 0 0.5-0.1 0.7-0.3l0.3-0.7v-3h0.4l1.7 3.45c0.13333 0.23333 0.33333 0.4 0.6 0.5l0.75-0.05 0.5-0.55-0.05-0.8-1.45-2.9 0.65-0.5v-0.05m-2-1.1h-1.1v-2h1.05c0.26667 0 0.48333 0.08333 0.65 0.25l0.3 0.75-0.25 0.7h-0.05l-0.25 0.2-0.35 0.1" fill="#fff"/>
</svg>
