<?xml version="1.0" encoding="UTF-8"?>
<svg viewBox="0 0 64 64" xmlns="http://www.w3.org/2000/svg">
<path d="m11 16v32q0 5 5 5h32q5 0 5-5v-32q0-5-5-5h-32q-5 0-5 5m23 14q2.5 0 4.25 1.75t1.75 4.25q0 2.45-1.75 4.2l-0.05 0.05q-1.75 1.75-4.2 1.75h-4.15q-2.35-0.05-4.05-1.75l-0.05-0.05q-1-1-1.4-2.2l-0.15-0.45 3.8-1.55q0 0.8 0.55 1.35l0.1 0.1q0.55 0.55 1.3 0.55h4.05q0.8 0 1.35-0.55l0.1-0.1q0.55-0.55 0.55-1.35t-0.6-1.4-1.4-0.6h-4q-2.5 0-4.25-1.75t-1.75-4.25q0-2.45 1.75-4.2l0.05-0.05q1.75-1.75 4.2-1.75h4.15q2.35 0.05 4.05 1.75l0.05 0.05q1 1 1.45 2.2l0.15 0.5-3.85 1.5q0-0.8-0.55-1.35l-0.1-0.1q-0.55-0.55-1.3-0.55h-4.05q-0.8 0-1.35 0.55l-0.1 0.1q-0.55 0.55-0.55 1.35t0.6 1.4 1.4 0.6h4m-18-22h32q8 0 8 8v32q0 8-8 8h-32q-8 0-8-8v-32q0-8 8-8" fill="#fff"/>
</svg>
