<?xml version="1.0" encoding="UTF-8"?>
<svg viewBox="0 0 64 64" xmlns="http://www.w3.org/2000/svg">
<path d="m41.1 36.25q0.9-0.9 0.9-2l-0.3-0.7q-0.3-0.3-0.7-0.3t-0.7 0.3-0.3 0.7l-0.25 0.55v-0.05l-0.75 0.25-0.8-0.25-0.2-0.5v-4.45q0-0.35 0.25-0.6l-0.05 0.1q0.35-0.3 0.8-0.3t0.75 0.3v-0.05l0.25 0.55q0 0.4 0.3 0.7l0.7 0.3 0.7-0.3 0.3-0.7q0-1.15-0.9-2l-0.05-0.05q-0.9-0.75-2.05-0.75-1.25 0-2.1 0.75l-0.05 0.05q-0.85 0.85-0.85 2v4.45q0 1.1 0.85 1.95l0.05 0.1q0.85 0.7 2.1 0.7 1.15 0 2.05-0.7l0.05-0.05m-12.1-6.45v6.2q0 0.4 0.3 0.7l0.7 0.3q0.4 0 0.7-0.3l0.3-0.7v-2h2v2q0 0.4 0.3 0.7l0.7 0.3q0.4 0 0.7-0.3l0.3-0.7v-6.2q0-1.15-0.9-2l-0.05-0.05q-0.9-0.75-2.05-0.75-1.25 0-2.1 0.75l-0.05 0.05q-0.85 0.85-0.85 2m2 0q0-0.35 0.25-0.6l-0.05 0.1q0.35-0.3 0.8-0.3t0.75 0.3v-0.05l0.25 0.55v2.2h-2v-2.2m17-2.8h-4q-0.4 0-0.7 0.3t-0.3 0.7v8q0 0.4 0.3 0.7t0.7 0.3h4q0.4 0 0.7-0.3l0.3-0.7-0.3-0.7q-0.3-0.3-0.7-0.3h-3v-2h3q0.4 0 0.7-0.3l0.3-0.7-0.3-0.7q-0.3-0.3-0.7-0.3h-3v-2h3q0.4 0 0.7-0.3l0.3-0.7-0.3-0.7q-0.3-0.3-0.7-0.3m-32-9h32q8 0 8 8v12q0 4.9-3 6.8-1.9 1.2-5 1.2h-32q-3.1 0-5-1.2-3-1.9-3-6.8v-12q0-8 8-8m2 11h2l0.7-0.3 0.3-0.7-0.3-0.7q-0.3-0.3-0.7-0.3h-2q-1.2 0-2.1 0.9t-0.9 2.1 0.9 2.1 2.05 0.9h0.1q0.35 0 0.65 0.3l0.3 0.7-0.3 0.7q-0.3 0.3-0.7 0.3h-2q-0.4 0-0.7 0.3t-0.3 0.7 0.3 0.7l0.7 0.3h2q1.2 0 2.1-0.9t0.9-2.1-0.9-2.1-2.05-0.9h-0.1q-0.35 0-0.65-0.3t-0.3-0.7 0.3-0.7 0.7-0.3m7.1 4 1.25-0.3 0.1-0.05 0.65-0.5v-0.05q0.9-0.85 0.9-2.1t-0.9-2.15q-0.85-0.85-2.05-0.85h-2.05q-0.4 0-0.7 0.3t-0.3 0.7v8q0 0.4 0.3 0.7t0.7 0.3l0.7-0.3 0.3-0.7v-3h1.1m0-2h-1.1v-2h1.05l0.65 0.25 0.3 0.75-0.25 0.7h-0.05l-0.25 0.2-0.35 0.1" fill="#fff"/>
</svg>
