<?xml version="1.0" encoding="UTF-8"?>
<svg viewBox="0 0 64 64" xmlns="http://www.w3.org/2000/svg">
<path d="m56 22v20q0 4.9-3 6.8-1.9 1.2-5 1.2h-32q-3.1 0-5-1.2-3-1.9-3-6.8v-20q0-8 8-8h32q8 0 8 8m-25 6.75v2.25h2v-2.25l-0.2-0.45q-0.35-0.3-0.8-0.3t-0.75 0.25l-0.05 0.05-0.2 0.45m-3 0q0-1.6 1.2-2.7h0.05q1.15-1.05 2.75-1.05 1.55 0 2.75 1.05 1.25 1.1 1.25 2.7v9.25h-3v-4h-2v4h-3v-9.25m-11-0.75v-3h9v3h-3v10h-3v-10h-3m25.3 5h-1.3v2h1.15l0.35-0.1 0.25-0.25 0.25-0.65-0.3-0.75q-0.2-0.2-0.4-0.25m3.7-4q0 1.45-0.85 2.5 0.85 1.05 0.85 2.5 0 1.7-1.2 2.85v-0.05l-0.8 0.7-0.15 0.1q-0.85 0.4-1.7 0.4h-4.15v-13h4.05q1.6 0 2.75 1.15 1.2 1.2 1.2 2.85m-3.5 0.9 0.25-0.25 0.25-0.65-0.3-0.75q-0.25-0.25-0.65-0.25h-1.05v2h1.3l0.2-0.1m-31.5-7.9v20q0 3 1.6 4.3 1.3 0.7 3.4 0.7h32q2.1 0 3.4-0.7 1.6-1.3 1.6-4.3v-20q0-5-5-5h-32q-5 0-5 5" fill="#fff"/>
</svg>
