<?xml version="1.0" encoding="UTF-8"?>
<svg viewBox="0 0 64 64" xmlns="http://www.w3.org/2000/svg">
<path d="m56 22v20q0 4.9-3 6.8-1.9 1.2-5 1.2h-32q-3.1 0-5-1.2-3-1.9-3-6.8v-20q0-8 8-8h32q8 0 8 8m-13.5 7.9-0.2 0.1h-1.3v-2h1.05q0.4 0 0.65 0.25l0.3 0.75-0.25 0.65-0.25 0.25m3.5-0.9q0-1.65-1.2-2.85-1.15-1.15-2.75-1.15h-4.05v13h4.15q0.85 0 1.7-0.4l0.15-0.1 0.8-0.7v0.05q1.2-1.15 1.2-2.85 0-1.45-0.85-2.5 0.85-1.05 0.85-2.5m-3.7 4q0.2 0.05 0.4 0.25l0.3 0.75-0.25 0.65-0.25 0.25-0.35 0.1h-1.15v-2h1.3m-25.3-5h3v10h3v-10h3v-3h-9v3m14 0.75 0.2-0.45 0.05-0.05q0.3-0.25 0.75-0.25t0.8 0.3l0.2 0.45v2.25h-2v-2.25m-3 0v9.25h3v-4h2v4h3v-9.25q0-1.6-1.25-2.7-1.2-1.05-2.75-1.05-1.6 0-2.75 1.05h-0.05q-1.2 1.1-1.2 2.7" fill="#fff"/>
</svg>
