<?xml version="1.0" encoding="UTF-8"?>
<svg viewBox="0 0 64 64" xmlns="http://www.w3.org/2000/svg">
<path d="m16 8h32q8 0 8 8v32q0 8-8 8h-32q-6.45 0-7.7-5.2-0.3-1.25-0.3-2.8v-32q0-1.55 0.3-2.8 1.25-5.2 7.7-5.2m11.5 20q3.5 0 6 2.65 1.2 1.35 3 1.35t3.05-1.35q0.55-0.6 1.4-0.65 0.8-0.05 1.4 0.55 0.6 0.55 0.65 1.4 0.05 0.8-0.5 1.4-2.5 2.65-6 2.65t-5.95-2.65q-1.25-1.35-3.05-1.35t-3 1.35q-0.6 0.6-1.4 0.65-0.85 0.05-1.45-0.5-0.6-0.6-0.65-1.4-0.05-0.85 0.55-1.45 2.45-2.65 5.95-2.65m-16.5-12v32q0 5 5 5h32q5 0 5-5v-32q0-5-5-5h-32q-5 0-5 5" fill="#fff"/>
</svg>
