<?xml version="1.0" encoding="UTF-8"?>
<svg viewBox="0 0 64 64" xmlns="http://www.w3.org/2000/svg">
<path d="m28.15 26.25q3.3-0.9 6.3 0.8 2.9 1.8 3.8 5.2l3.45 13.05q0.85 3.35-0.85 6.35-1.65 3.1-5.05 4-3.25 0.95-6.2-0.85-3-1.7-3.9-5.1l-3.4-13.1q-0.9-3.35 0.85-6.4 1.7-3 5-3.95m9.95-11.7q0.2-0.35 0.6-0.5l0.75 0.05 0.5 0.6-0.05 0.75-3 6-0.55 0.5-0.8-0.05-0.5-0.55q-0.15-0.4 0.05-0.8l3-6m-20 0.9q-0.2-0.4-0.05-0.75l0.5-0.6 0.8-0.05 0.55 0.5 3 6 0.05 0.8-0.5 0.55-0.75 0.05q-0.4-0.15-0.6-0.5l-3-6m9.9-3.45q0-0.4 0.3-0.7t0.7-0.3l0.7 0.3 0.3 0.7v8l-0.3 0.7-0.7 0.3q-0.4 0-0.7-0.3t-0.3-0.7v-8" fill="#fff"/>
</svg>
