<?xml version="1.0" encoding="UTF-8"?>
<svg viewBox="0 0 64 64" xmlns="http://www.w3.org/2000/svg">
<g fill="#fff">
<path d="m37 51.55v0.45h-10v-2h4v-2h-4.05l-0.55-0.05q-0.45-0.15-0.85-0.5l-0.1-0.1q-0.45-0.55-0.45-1.3v-3.05l2 1.4v0.65l0.25 0.65 0.75 0.3h1.25l3.75 2.7v1.3h1.85l1.8 1.3 0.05 0.05 0.3 0.2m-8-15.55v-1.05q0-0.8 0.55-1.4l0.35-0.25q0.45-0.3 1.05-0.3h2.1q0.6 0 1.1 0.3l0.3 0.25q0.55 0.6 0.55 1.4v5.3l-6-4.25m8 5.7v-1.7h2v3.1l-2-1.4m-18-29.7h26q2.9 0 4.95 2.05t2.05 4.95-2.05 4.95-4.95 2.05h-26q-2.9 0-4.95-2.05t-2.05-4.95 2.05-4.95 4.95-2.05m5.4 26.85q-0.35-0.25-0.4-0.65-0.1-0.45 0.15-0.75 0.25-0.35 0.65-0.4l0.75 0.15 14 10 0.4 0.65-0.2 0.75-0.6 0.4-0.75-0.15-14-10"/>
<path d="m24.4 38.85 14 10 0.75 0.15 0.6-0.4 0.2-0.75-0.4-0.65-14-10-0.75-0.15q-0.4 0.05-0.65 0.4-0.25 0.3-0.15 0.75 0.05 0.4 0.4 0.65m14.6 4.25 2.3 1.65q1.35 0.95 1.6 2.6t-0.7 3l0.05-0.05q-1 1.35-2.6 1.65h0.05q-1.45 0.25-2.7-0.4l-0.3-0.2-0.05-0.05-1.8-1.3-1.85-1.3-3.75-2.7-2.25-1.6-2-1.4-2.35-1.7-0.05-0.05q-1.35-0.95-1.55-2.6-0.3-1.65 0.65-2.95v0.05q0.95-1.4 2.6-1.65h-0.1q1.65-0.35 3 0.6l0.1 0.05 1.7 1.25 6 4.25 2 1.45 2 1.4" fill-opacity="0"/>
</g>
</svg>
