<?xml version="1.0" encoding="UTF-8"?>
<svg preserveAspectRatio="none" version="1.1" viewBox="0 0 100 100" xmlns="http://www.w3.org/2000/svg">
<g fill-rule="evenodd">
<ellipse cx="50" cy="50" rx="46.5" ry="29.2" fill="#202020"/>
<ellipse cx="50" cy="50" rx="41.5" ry="24.2" fill="#353535"/>
<ellipse cx="50" cy="50" rx="39.5" ry="22.2" fill="#616161"/>
<ellipse cx="50" cy="50" rx="35.5" ry="18.2" fill="#535353"/>
</g>
<path d="m38.15 48.75h-5.15v-2.2h5.45v-2.45h-8.1v11.95h8.4v-2.45h-5.75v-2.4h5.15v-2.45m-13.5-4.95q-0.85 0-1.7 0.25-0.8 0.25-1.45 0.75t-1 1.2q-0.4 0.75-0.4 1.7 0 1 0.4 1.6 0.45 0.6 1.05 1 0.65 0.35 1.35 0.55 0.75 0.25 1.35 0.45 0.65 0.2 1.05 0.55 0.4 0.3 0.4 0.85 0 0.3-0.15 0.55t-0.4 0.35q-0.3 0.2-0.6 0.25-0.35 0.1-0.65 0.1-0.65 0-1.3-0.3-0.6-0.3-1-0.85l-1.85 2.05q0.85 0.8 1.85 1.15t2.15 0.35q0.9 0 1.75-0.25 0.85-0.2 1.45-0.7 0.65-0.5 1-1.25 0.4-0.7 0.4-1.7 0-1.05-0.4-1.7-0.4-0.6-1.05-1-0.6-0.35-1.3-0.55t-1.35-0.4q-0.6-0.2-1-0.5t-0.4-0.8q0-0.35 0.15-0.6 0.2-0.25 0.45-0.4 0.25-0.1 0.55-0.2 0.3-0.05 0.6-0.05 0.5 0 1.05 0.2t0.85 0.6l1.8-2q-0.75-0.65-1.7-0.95t-1.95-0.3m52.4 2.65h3.4v-2.35h-9.45v2.35h3.4v9.6h2.65v-9.6m-13.25-2.2q-1.2 0.45-2.05 1.25-0.85 0.85-1.35 2-0.45 1.15-0.45 2.6 0 1.4 0.45 2.6 0.5 1.15 1.35 1.95t2.05 1.25q1.15 0.45 2.55 0.45 1.25 0 2.4-0.5t1.95-1.55l-2.2-1.65q-0.4 0.6-1.05 0.95-0.6 0.35-1.4 0.35-0.75 0-1.35-0.3t-1.05-0.8q-0.45-0.55-0.75-1.25-0.25-0.65-0.25-1.5t0.25-1.55q0.3-0.7 0.75-1.2 0.45-0.55 1.1-0.8 0.6-0.3 1.35-0.3t1.3 0.25q0.6 0.25 0.95 0.7l2.05-1.65q-0.4-0.45-0.9-0.8t-1-0.55q-0.55-0.2-1.1-0.3t-1.05-0.1q-1.4 0-2.55 0.45m-11.15 2.3h5.45v-2.45h-8.1v11.95h8.4v-2.45h-5.75v-2.4h5.15v-2.45h-5.15v-2.2m-9-2.45h-2.65v11.95h7.5v-2.45h-4.85v-9.5z" fill="#D6D6D6"/>
</svg>
