
<svg xmlns="http://www.w3.org/2000/svg" version="1.1" xmlns:xlink="http://www.w3.org/1999/xlink" preserveAspectRatio="none" x="0px" y="0px" width="100px" height="100px" viewBox="0 0 100 100">
<defs/>

<g id="PS_Vita">
<g>
<g>
<g>
<path fill="#353535" stroke="none" d="
M 81.5 68.85
Q 94.55 61.05 94.55 50.05 94.55 39 81.5 31.15 68.45 23.35 50.05 23.35 31.6 23.35 18.5 31.15 5.45 39 5.45 50.05 5.45 61.05 18.5 68.85 31.6 76.7 50.05 76.7 68.45 76.7 81.5 68.85
M 77.85 36.55
L 77.8 36.55
Q 87.35 42.3 87.8 50.05 87.35 57.7 77.85 63.4
L 77.8 63.4
Q 66.3 70.25 50.05 70.25 33.7 70.25 22.15 63.4 12.6 57.7 12.2 50.05 12.6 42.3 22.15 36.55 33.7 29.75 50.05 29.75 66.3 29.75 77.85 36.55 Z"/>

<path fill="#535353" stroke="none" d="
M 77.8 36.55
L 77.85 36.55
Q 66.3 29.75 50.05 29.75 33.7 29.75 22.15 36.55 12.6 42.3 12.2 50.05 12.6 57.7 22.15 63.4 33.7 70.25 50.05 70.25 66.3 70.25 77.8 63.4
L 77.85 63.4
Q 87.35 57.7 87.8 50.05 87.35 42.3 77.8 36.55
M 41 44.1
L 43.65 44.1 43.65 53.6 48.5 53.6 48.5 56.05 41 56.05 41 44.1
M 58.1 46.55
L 52.65 46.55 52.65 48.75 57.8 48.75 57.8 51.2 52.65 51.2 52.65 53.6 58.4 53.6 58.4 56.05 50 56.05 50 44.1 58.1 44.1 58.1 46.55
M 61.75 45.5
Q 62.6 44.7 63.8 44.25 64.95 43.8 66.35 43.8 66.85 43.8 67.4 43.9 67.95 44 68.5 44.2 69 44.4 69.5 44.75 70 45.1 70.4 45.55
L 68.35 47.2
Q 68 46.75 67.4 46.5 66.85 46.25 66.1 46.25 65.35 46.25 64.75 46.55 64.1 46.8 63.65 47.35 63.2 47.85 62.9 48.55 62.65 49.25 62.65 50.1 62.65 50.95 62.9 51.6 63.2 52.3 63.65 52.85 64.1 53.35 64.7 53.65 65.3 53.95 66.05 53.95 66.85 53.95 67.45 53.6 68.1 53.25 68.5 52.65
L 70.7 54.3
Q 69.9 55.35 68.75 55.85 67.6 56.35 66.35 56.35 64.95 56.35 63.8 55.9 62.6 55.45 61.75 54.65 60.9 53.85 60.4 52.7 59.95 51.5 59.95 50.1 59.95 48.65 60.4 47.5 60.9 46.35 61.75 45.5
M 80.45 46.45
L 77.05 46.45 77.05 56.05 74.4 56.05 74.4 46.45 71 46.45 71 44.1 80.45 44.1 80.45 46.45
M 22.95 44.05
Q 23.8 43.8 24.65 43.8 25.65 43.8 26.6 44.1 27.55 44.4 28.3 45.05
L 26.5 47.05
Q 26.2 46.65 25.65 46.45 25.1 46.25 24.6 46.25 24.3 46.25 24 46.3 23.7 46.4 23.45 46.5 23.2 46.65 23 46.9 22.85 47.15 22.85 47.5 22.85 48 23.25 48.3 23.65 48.6 24.25 48.8 24.9 49 25.6 49.2 26.3 49.4 26.9 49.75 27.55 50.15 27.95 50.75 28.35 51.4 28.35 52.45 28.35 53.45 27.95 54.15 27.6 54.9 26.95 55.4 26.35 55.9 25.5 56.1 24.65 56.35 23.75 56.35 22.6 56.35 21.6 56 20.6 55.65 19.75 54.85
L 21.6 52.8
Q 22 53.35 22.6 53.65 23.25 53.95 23.9 53.95 24.2 53.95 24.55 53.85 24.85 53.8 25.15 53.6 25.4 53.5 25.55 53.25 25.7 53 25.7 52.7 25.7 52.15 25.3 51.85 24.9 51.5 24.25 51.3 23.65 51.1 22.9 50.85 22.2 50.65 21.55 50.3 20.95 49.9 20.5 49.3 20.1 48.7 20.1 47.7 20.1 46.75 20.5 46 20.85 45.3 21.5 44.8 22.15 44.3 22.95 44.05
M 33 48.75
L 38.15 48.75 38.15 51.2 33 51.2 33 53.6 38.75 53.6 38.75 56.05 30.35 56.05 30.35 44.1 38.45 44.1 38.45 46.55 33 46.55 33 48.75 Z"/>

<path fill="#D6D6D6" stroke="none" d="
M 38.15 48.75
L 33 48.75 33 46.55 38.45 46.55 38.45 44.1 30.35 44.1 30.35 56.05 38.75 56.05 38.75 53.6 33 53.6 33 51.2 38.15 51.2 38.15 48.75
M 24.65 43.8
Q 23.8 43.8 22.95 44.05 22.15 44.3 21.5 44.8 20.85 45.3 20.5 46 20.1 46.75 20.1 47.7 20.1 48.7 20.5 49.3 20.95 49.9 21.55 50.3 22.2 50.65 22.9 50.85 23.65 51.1 24.25 51.3 24.9 51.5 25.3 51.85 25.7 52.15 25.7 52.7 25.7 53 25.55 53.25 25.4 53.5 25.15 53.6 24.85 53.8 24.55 53.85 24.2 53.95 23.9 53.95 23.25 53.95 22.6 53.65 22 53.35 21.6 52.8
L 19.75 54.85
Q 20.6 55.65 21.6 56 22.6 56.35 23.75 56.35 24.65 56.35 25.5 56.1 26.35 55.9 26.95 55.4 27.6 54.9 27.95 54.15 28.35 53.45 28.35 52.45 28.35 51.4 27.95 50.75 27.55 50.15 26.9 49.75 26.3 49.4 25.6 49.2 24.9 49 24.25 48.8 23.65 48.6 23.25 48.3 22.85 48 22.85 47.5 22.85 47.15 23 46.9 23.2 46.65 23.45 46.5 23.7 46.4 24 46.3 24.3 46.25 24.6 46.25 25.1 46.25 25.65 46.45 26.2 46.65 26.5 47.05
L 28.3 45.05
Q 27.55 44.4 26.6 44.1 25.65 43.8 24.65 43.8
M 77.05 46.45
L 80.45 46.45 80.45 44.1 71 44.1 71 46.45 74.4 46.45 74.4 56.05 77.05 56.05 77.05 46.45
M 63.8 44.25
Q 62.6 44.7 61.75 45.5 60.9 46.35 60.4 47.5 59.95 48.65 59.95 50.1 59.95 51.5 60.4 52.7 60.9 53.85 61.75 54.65 62.6 55.45 63.8 55.9 64.95 56.35 66.35 56.35 67.6 56.35 68.75 55.85 69.9 55.35 70.7 54.3
L 68.5 52.65
Q 68.1 53.25 67.45 53.6 66.85 53.95 66.05 53.95 65.3 53.95 64.7 53.65 64.1 53.35 63.65 52.85 63.2 52.3 62.9 51.6 62.65 50.95 62.65 50.1 62.65 49.25 62.9 48.55 63.2 47.85 63.65 47.35 64.1 46.8 64.75 46.55 65.35 46.25 66.1 46.25 66.85 46.25 67.4 46.5 68 46.75 68.35 47.2
L 70.4 45.55
Q 70 45.1 69.5 44.75 69 44.4 68.5 44.2 67.95 44 67.4 43.9 66.85 43.8 66.35 43.8 64.95 43.8 63.8 44.25
M 52.65 46.55
L 58.1 46.55 58.1 44.1 50 44.1 50 56.05 58.4 56.05 58.4 53.6 52.65 53.6 52.65 51.2 57.8 51.2 57.8 48.75 52.65 48.75 52.65 46.55
M 43.65 44.1
L 41 44.1 41 56.05 48.5 56.05 48.5 53.6 43.65 53.6 43.65 44.1 Z"/>
</g>
</g>

<g>
<path stroke="#202020" stroke-width="5" stroke-linejoin="round" stroke-linecap="round" fill="none" d="
M 94.55 50.05
Q 94.55 61.05 81.5 68.85 68.45 76.7 50.05 76.7 31.6 76.7 18.5 68.85 5.45 61.05 5.45 50.05 5.45 39 18.5 31.15 31.6 23.35 50.05 23.35 68.45 23.35 81.5 31.15 94.55 39 94.55 50.05 Z"/>
</g>

<g>
<path stroke="#616161" stroke-width="4" stroke-linejoin="round" stroke-linecap="round" fill="none" d="
M 77.85 36.55
L 77.8 36.55
Q 87.35 42.3 87.8 50.05 87.35 57.7 77.85 63.4
L 77.8 63.4
Q 66.3 70.25 50.05 70.25 33.7 70.25 22.15 63.4 12.6 57.7 12.2 50.05 12.6 42.3 22.15 36.55 33.7 29.75 50.05 29.75 66.3 29.75 77.85 36.55 Z"/>
</g>
</g>
</g>
</svg>
