<svg width="100px" height="100px" preserveAspectRatio="none" version="1.1" viewBox="0 0 100 100" xmlns="http://www.w3.org/2000/svg">
 <path d="m65.5 70.199-15.5-15.5-15.449 15.352-4.5508-4.5508h-22.75c-2.6-10.3-2.6-20.616 0-30.949h22.6l4.7012-4.7012v-22.6c10.333-2.6 20.649-2.6 30.949 0v22.6l4.6992 4.7012h22.551c2.6 10.333 2.6 20.649 0 30.949h-22.551zm-52.1-10.699h13.5c0.43333 0 0.79961-0.14922 1.0996-0.44922l7.8496-7.9004c0.3-0.3 0.45117-0.65078 0.45117-1.0508-0.03333-0.43333-0.1845-0.78216-0.45117-1.0488l-8.0488-8.0508c-0.3-0.3-0.65078-0.44922-1.0508-0.44922h-13.35c-0.36667 0-0.68451 0.13177-0.95117 0.39844-0.3 0.23333-0.46667 0.53372-0.5 0.90039-0.83333 5.4667-0.83333 10.934 0 16.4 0.03333 0.33333 0.2 0.63372 0.5 0.90039 0.26667 0.23333 0.5845 0.34961 0.95117 0.34961zm59.9 0h13.299c0.36667 0 0.7-0.11628 1-0.34961 0.26667-0.26667 0.43333-0.56706 0.5-0.90039 0.8-5.4667 0.8-10.934 0-16.4-0.06667-0.36667-0.23333-0.66706-0.5-0.90039-0.3-0.26667-0.63333-0.39844-1-0.39844h-13.299c-0.4 0-0.75078 0.14922-1.0508 0.44922l-8 7.9492c-0.3 0.26667-0.44922 0.61745-0.44922 1.0508 0 0.4 0.14922 0.75078 0.44922 1.0508l8 8c0.3 0.3 0.65078 0.44922 1.0508 0.44922zm-23.25-23.25c0.4 0 0.74883-0.14922 1.0488-0.44922l7.9512-7.9512c0.3-0.3 0.44922-0.64883 0.44922-1.0488v-13.4c0-0.36667-0.11628-0.68451-0.34961-0.95117-0.26667-0.3-0.56706-0.46667-0.90039-0.5-5.4667-0.83333-10.934-0.83333-16.4 0-0.36667 0.03333-0.66706 0.2-0.90039 0.5-0.26667 0.26667-0.39844 0.5845-0.39844 0.95117v13.35c0 0.4 0.14922 0.75078 0.44922 1.0508l8 8c0.3 0.3 0.65078 0.44922 1.0508 0.44922z" fill="#353535"/>
 <path d="m50.05 36.25c-0.4 0-0.75-0.15-1.05-0.45l-8-8c-0.3-0.3-0.45-0.65-0.45-1.05v-13.35c0-0.36667 0.13333-0.68333 0.4-0.95 0.23333-0.3 0.53333-0.46667 0.9-0.5 5.4667-0.83333 10.933-0.83333 16.4 0 0.33333 0.03333 0.63333 0.2 0.9 0.5 0.23333 0.26667 0.35 0.58333 0.35 0.95v13.4c0 0.4-0.15 0.75-0.45 1.05l-7.95 7.95c-0.3 0.3-0.65 0.45-1.05 0.45m-23.15 23.25h-13.5c-0.36667 0-0.68333-0.11667-0.95-0.35-0.3-0.26667-0.46667-0.56667-0.5-0.9-0.83333-5.4667-0.83333-10.933 0-16.4 0.03333-0.36667 0.2-0.66667 0.5-0.9 0.26667-0.26667 0.58333-0.4 0.95-0.4h13.35c0.4 0 0.75 0.15 1.05 0.45l8.05 8.05c0.26667 0.26667 0.41667 0.61667 0.45 1.05 0 0.4-0.15 0.75-0.45 1.05l-7.85 7.9c-0.3 0.3-0.66667 0.45-1.1 0.45m60.7-0.35c-0.3 0.23333-0.63333 0.35-1 0.35h-13.3c-0.4 0-0.75-0.15-1.05-0.45l-8-8c-0.3-0.3-0.45-0.65-0.45-1.05 0-0.43333 0.15-0.78333 0.45-1.05l8-7.95c0.3-0.3 0.65-0.45 1.05-0.45h13.3c0.36667 0 0.7 0.13333 1 0.4 0.26667 0.23333 0.43333 0.53333 0.5 0.9 0.8 5.4667 0.8 10.933 0 16.4-0.06667 0.33333-0.23333 0.63333-0.5 0.9" fill="#535353" stroke="#616161" stroke-linecap="round" stroke-linejoin="round" stroke-width="4"/>
 <path d="m54.5 23.4h-9l4.55-6.2 4.45 6.2m-37.3 26.55 6.2-4.45v9l-6.2-4.55m59.45 4.55v-9l6.2 4.45z" fill="#d6d6d6"/>
 <path d="m65.5 70.2v22.55c-10.3 2.6-20.617 2.6-30.95 0v-22.7l15.45-15.35 15.5 15.5" fill="#d7d7d7"/>
 <path d="m40.95 87.6c-0.26667-0.3-0.4-0.63333-0.4-1v-13.4c0-0.43333 0.15-0.78333 0.45-1.05l7.95-7.9c0.26667-0.3 0.61667-0.45 1.05-0.45 0.4 0 0.75 0.15 1.05 0.45l8 8c0.3 0.3 0.45 0.65 0.45 1.05v13.3c0 0.36667-0.11667 0.7-0.35 1-0.26667 0.26667-0.56667 0.43333-0.9 0.5-5.4667 0.8-10.933 0.8-16.4 0-0.36667-0.06667-0.66667-0.23333-0.9-0.5" fill="#f5f5f5" stop-color="#000000" stroke="#fff" stroke-linecap="round" stroke-linejoin="round" stroke-width="4" style="-inkscape-stroke:none;font-variation-settings:normal"/>
 <path d="m50.05 82.85-4.55-6.2h9z" fill="#616161"/>
 <path d="m65.5 70.2 4.7-4.7h22.55q3.9-15.45 0-30.95h-22.55l-4.7-4.7v-22.6q-15.45-3.9-30.95 0v22.6l-4.7 4.7h-22.6q-3.9 15.5 0 30.95h22.75l4.55 4.55m35.65-35.5-15.5 15.45 15.5 15.5m-4.7-35.65-15.4 15.55-15.55-15.55m-4.55 35.65 15.4-15.4-15.55-15.55" fill="none" stroke="#202020" stroke-linecap="round" stroke-linejoin="round" stroke-width="5"/>
 <path d="m34.55 70.05v22.7q15.5 3.9 30.95 0v-22.55l-15.5-15.5z" fill="none" stroke="#404040" stroke-linecap="round" stroke-linejoin="round" stroke-width="5"/>
</svg>
