
<svg xmlns="http://www.w3.org/2000/svg" version="1.1" xmlns:xlink="http://www.w3.org/1999/xlink" preserveAspectRatio="none" x="0px" y="0px" width="100px" height="100px" viewBox="0 0 100 100">
<defs/>

<g id="PS_Vita">
<g>
<g>
<g>
<path fill="#D7D7D7" stroke="none" d="
M 34.5 70.2
L 34.5 92.75
Q 49.95 96.65 65.45 92.75
L 65.45 70.05 50 54.7 34.5 70.2
M 50 63.8
Q 50.65 63.8 51.05 64.25
L 59 72.15
Q 59.45 72.55 59.45 73.2
L 59.45 86.6
Q 59.45 87.15 59.05 87.6 58.7 88 58.15 88.1 49.95 89.3 41.75 88.1 41.25 88 40.85 87.6 40.5 87.15 40.5 86.6
L 40.5 73.3
Q 40.5 72.7 40.95 72.25
L 48.95 64.25
Q 49.4 63.8 50 63.8 Z"/>

<path fill="#F5F5F5" stroke="none" d="
M 51.05 64.25
Q 50.65 63.8 50 63.8 49.4 63.8 48.95 64.25
L 40.95 72.25
Q 40.5 72.7 40.5 73.3
L 40.5 86.6
Q 40.5 87.15 40.85 87.6 41.25 88 41.75 88.1 49.95 89.3 58.15 88.1 58.7 88 59.05 87.6 59.45 87.15 59.45 86.6
L 59.45 73.2
Q 59.45 72.55 59 72.15
L 51.05 64.25
M 54.5 76.65
L 49.95 82.85 45.5 76.65 54.5 76.65 Z"/>

<path fill="#616161" stroke="none" d="
M 49.95 82.85
L 54.5 76.65 45.5 76.65 49.95 82.85 Z"/>

<path fill="#353535" stroke="none" d="
M 29.8 34.55
L 7.25 34.55
Q 3.35 50.05 7.25 65.5
L 29.8 65.5 45.3 50 29.8 34.55
M 13.4 40.55
L 26.7 40.55
Q 27.3 40.55 27.75 41
L 35.75 48.95
Q 36.2 49.35 36.2 50 36.2 50.6 35.75 51.05
L 27.75 59.05
Q 27.3 59.5 26.7 59.5
L 13.4 59.5
Q 12.85 59.5 12.4 59.15 12 58.75 11.9 58.25 10.7 50.05 11.9 41.85 12 41.3 12.4 40.95 12.85 40.55 13.4 40.55
M 49.9 45.4
L 65.45 29.85 65.45 7.25
Q 49.95 3.35 34.5 7.25
L 34.5 29.85 49.9 45.4
M 40.5 13.4
Q 40.5 12.85 40.85 12.45 41.25 12 41.75 11.95 49.95 10.7 58.15 11.95 58.7 12 59.05 12.45 59.45 12.85 59.45 13.4
L 59.45 26.75
Q 59.45 27.35 59 27.8
L 51 35.8
Q 50.55 36.25 49.95 36.25 49.35 36.25 48.9 35.8
L 40.95 27.85
Q 40.5 27.4 40.5 26.8
L 40.5 13.4
M 70.15 34.55
L 65.45 29.85 49.9 45.4 34.5 29.85 29.8 34.55 45.3 50 29.8 65.5 34.5 70.2 50 54.7 65.45 70.05 70 65.5 54.6 50.1 70.15 34.55
M 92.75 65.5
Q 96.65 50.05 92.75 34.55
L 70.15 34.55 54.6 50.1 70 65.5 92.75 65.5
M 86.6 40.55
Q 87.15 40.55 87.55 40.95 88 41.3 88.05 41.85 89.3 50.05 88.05 58.25 88 58.75 87.55 59.15 87.15 59.5 86.6 59.5
L 73.1 59.5
Q 72.45 59.5 72 59.05
L 64.15 51.15
Q 63.7 50.7 63.7 50.1 63.75 49.45 64.15 49.05
L 72.2 41
Q 72.65 40.55 73.25 40.55
L 86.6 40.55 Z"/>

<path fill="#535353" stroke="none" d="
M 26.7 40.55
L 13.4 40.55
Q 12.85 40.55 12.4 40.95 12 41.3 11.9 41.85 10.7 50.05 11.9 58.25 12 58.75 12.4 59.15 12.85 59.5 13.4 59.5
L 26.7 59.5
Q 27.3 59.5 27.75 59.05
L 35.75 51.05
Q 36.2 50.6 36.2 50 36.2 49.35 35.75 48.95
L 27.75 41
Q 27.3 40.55 26.7 40.55
M 23.35 54.5
L 17.15 49.95 23.35 45.5 23.35 54.5
M 40.85 12.45
Q 40.5 12.85 40.5 13.4
L 40.5 26.8
Q 40.5 27.4 40.95 27.85
L 48.9 35.8
Q 49.35 36.25 49.95 36.25 50.55 36.25 51 35.8
L 59 27.8
Q 59.45 27.35 59.45 26.75
L 59.45 13.4
Q 59.45 12.85 59.05 12.45 58.7 12 58.15 11.95 49.95 10.7 41.75 11.95 41.25 12 40.85 12.45
M 45.5 23.4
L 49.95 17.2 54.5 23.4 45.5 23.4
M 87.55 40.95
Q 87.15 40.55 86.6 40.55
L 73.25 40.55
Q 72.65 40.55 72.2 41
L 64.15 49.05
Q 63.75 49.45 63.7 50.1 63.7 50.7 64.15 51.15
L 72 59.05
Q 72.45 59.5 73.1 59.5
L 86.6 59.5
Q 87.15 59.5 87.55 59.15 88 58.75 88.05 58.25 89.3 50.05 88.05 41.85 88 41.3 87.55 40.95
M 76.6 54.5
L 76.6 45.5 82.8 49.95 76.6 54.5 Z"/>

<path fill="#D6D6D6" stroke="none" d="
M 17.15 49.95
L 23.35 54.5 23.35 45.5 17.15 49.95
M 49.95 17.2
L 45.5 23.4 54.5 23.4 49.95 17.2
M 76.6 45.5
L 76.6 54.5 82.8 49.95 76.6 45.5 Z"/>
</g>
</g>

<g>
<path stroke="#616161" stroke-width="4" stroke-linejoin="round" stroke-linecap="round" fill="none" d="
M 87.55 40.95
Q 88 41.3 88.05 41.85 89.3 50.05 88.05 58.25 88 58.75 87.55 59.15 87.15 59.5 86.6 59.5
L 73.1 59.5
Q 72.45 59.5 72 59.05
L 64.15 51.15
Q 63.7 50.7 63.7 50.1 63.75 49.45 64.15 49.05
L 72.2 41
Q 72.65 40.55 73.25 40.55
L 86.6 40.55
Q 87.15 40.55 87.55 40.95 Z
M 40.85 12.45
Q 41.25 12 41.75 11.95 49.95 10.7 58.15 11.95 58.7 12 59.05 12.45 59.45 12.85 59.45 13.4
L 59.45 26.75
Q 59.45 27.35 59 27.8
L 51 35.8
Q 50.55 36.25 49.95 36.25 49.35 36.25 48.9 35.8
L 40.95 27.85
Q 40.5 27.4 40.5 26.8
L 40.5 13.4
Q 40.5 12.85 40.85 12.45 Z
M 26.7 40.55
Q 27.3 40.55 27.75 41
L 35.75 48.95
Q 36.2 49.35 36.2 50 36.2 50.6 35.75 51.05
L 27.75 59.05
Q 27.3 59.5 26.7 59.5
L 13.4 59.5
Q 12.85 59.5 12.4 59.15 12 58.75 11.9 58.25 10.7 50.05 11.9 41.85 12 41.3 12.4 40.95 12.85 40.55 13.4 40.55
L 26.7 40.55 Z"/>
</g>

<g>
<path stroke="#202020" stroke-width="5" stroke-linejoin="round" stroke-linecap="round" fill="none" d="
M 34.5 70.2
L 29.8 65.5 7.25 65.5
Q 3.35 50.05 7.25 34.55
L 29.8 34.55 34.5 29.85 34.5 7.25
Q 49.95 3.35 65.45 7.25
L 65.45 29.85 70.15 34.55 92.75 34.55
Q 96.65 50.05 92.75 65.5
L 70 65.5 65.45 70.05
M 65.45 29.85
L 49.9 45.4 34.5 29.85
M 70.15 34.55
L 54.6 50.1 70 65.5
M 29.8 65.5
L 45.3 50 29.8 34.55"/>
</g>

<g>
<path stroke="#404040" stroke-width="5" stroke-linejoin="round" stroke-linecap="round" fill="none" d="
M 65.45 70.05
L 65.45 92.75
Q 49.95 96.65 34.5 92.75
L 34.5 70.2 50 54.7 65.45 70.05 Z"/>
</g>

<g>
<path stroke="#FFFFFF" stroke-width="4" stroke-linejoin="round" stroke-linecap="round" fill="none" d="
M 51.05 64.25
L 59 72.15
Q 59.45 72.55 59.45 73.2
L 59.45 86.6
Q 59.45 87.15 59.05 87.6 58.7 88 58.15 88.1 49.95 89.3 41.75 88.1 41.25 88 40.85 87.6 40.5 87.15 40.5 86.6
L 40.5 73.3
Q 40.5 72.7 40.95 72.25
L 48.95 64.25
Q 49.4 63.8 50 63.8 50.65 63.8 51.05 64.25 Z"/>
</g>
</g>
</g>
</svg>
