
<svg xmlns="http://www.w3.org/2000/svg" version="1.1" xmlns:xlink="http://www.w3.org/1999/xlink" preserveAspectRatio="none" x="0px" y="0px" width="100px" height="100px" viewBox="0 0 100 100">
<defs/>

<g id="PS_Vita">
<g>
<g>
<g>
<path fill="#353535" stroke="none" d="
M 34.5 70
L 34.5 92.75
Q 49.95 96.65 65.45 92.75
L 65.45 70.15 49.9 54.6 34.5 70
M 40.95 72
L 48.85 64.15
Q 49.3 63.7 49.9 63.7 50.55 63.75 50.95 64.15
L 59 72.2
Q 59.45 72.65 59.45 73.25
L 59.45 86.6
Q 59.45 87.15 59.05 87.55 58.7 88 58.15 88.05 49.95 89.3 41.75 88.05 41.25 88 40.85 87.55 40.5 87.15 40.5 86.6
L 40.5 73.1
Q 40.5 72.45 40.95 72
M 50 45.3
L 65.45 29.8 65.45 7.25
Q 49.95 3.35 34.5 7.25
L 34.5 29.8 50 45.3
M 40.5 13.4
Q 40.5 12.85 40.85 12.4 41.25 12 41.75 11.9 49.95 10.7 58.15 11.9 58.7 12 59.05 12.4 59.45 12.85 59.45 13.4
L 59.45 26.7
Q 59.45 27.3 59 27.75
L 51.05 35.75
Q 50.65 36.2 50 36.2 49.4 36.2 48.95 35.75
L 40.95 27.75
Q 40.5 27.3 40.5 26.7
L 40.5 13.4
M 70.15 34.5
L 65.45 29.8 50 45.3 34.5 29.8 29.8 34.5 45.3 50 29.95 65.45 34.5 70 49.9 54.6 65.45 70.15 70.15 65.45 54.6 49.9 70.15 34.5
M 92.75 65.45
Q 96.65 49.95 92.75 34.5
L 70.15 34.5 54.6 49.9 70.15 65.45 92.75 65.45
M 87.55 40.85
Q 88 41.25 88.05 41.75 89.3 49.95 88.05 58.15 88 58.7 87.55 59.05 87.15 59.45 86.6 59.45
L 73.25 59.45
Q 72.65 59.45 72.2 59
L 64.2 51
Q 63.75 50.55 63.75 49.95 63.75 49.35 64.2 48.9
L 72.15 40.95
Q 72.6 40.5 73.2 40.5
L 86.6 40.5
Q 87.15 40.5 87.55 40.85 Z"/>

<path fill="#535353" stroke="none" d="
M 48.85 64.15
L 40.95 72
Q 40.5 72.45 40.5 73.1
L 40.5 86.6
Q 40.5 87.15 40.85 87.55 41.25 88 41.75 88.05 49.95 89.3 58.15 88.05 58.7 88 59.05 87.55 59.45 87.15 59.45 86.6
L 59.45 73.25
Q 59.45 72.65 59 72.2
L 50.95 64.15
Q 50.55 63.75 49.9 63.7 49.3 63.7 48.85 64.15
M 54.5 76.6
L 50.05 82.8 45.5 76.6 54.5 76.6
M 40.85 12.4
Q 40.5 12.85 40.5 13.4
L 40.5 26.7
Q 40.5 27.3 40.95 27.75
L 48.95 35.75
Q 49.4 36.2 50 36.2 50.65 36.2 51.05 35.75
L 59 27.75
Q 59.45 27.3 59.45 26.7
L 59.45 13.4
Q 59.45 12.85 59.05 12.4 58.7 12 58.15 11.9 49.95 10.7 41.75 11.9 41.25 12 40.85 12.4
M 50.05 17.15
L 54.5 23.35 45.5 23.35 50.05 17.15
M 88.05 41.75
Q 88 41.25 87.55 40.85 87.15 40.5 86.6 40.5
L 73.2 40.5
Q 72.6 40.5 72.15 40.95
L 64.2 48.9
Q 63.75 49.35 63.75 49.95 63.75 50.55 64.2 51
L 72.2 59
Q 72.65 59.45 73.25 59.45
L 86.6 59.45
Q 87.15 59.45 87.55 59.05 88 58.7 88.05 58.15 89.3 49.95 88.05 41.75
M 76.6 54.5
L 76.6 45.5 82.8 49.95 76.6 54.5 Z"/>

<path fill="#D6D6D6" stroke="none" d="
M 50.05 82.8
L 54.5 76.6 45.5 76.6 50.05 82.8
M 54.5 23.35
L 50.05 17.15 45.5 23.35 54.5 23.35
M 76.6 45.5
L 76.6 54.5 82.8 49.95 76.6 45.5 Z"/>

<path fill="#D7D7D7" stroke="none" d="
M 29.8 34.5
L 7.25 34.5
Q 3.35 49.95 7.25 65.45
L 29.95 65.45 45.3 50 29.8 34.5
M 13.4 40.5
L 26.7 40.5
Q 27.3 40.5 27.75 40.95
L 35.75 48.95
Q 36.2 49.4 36.2 50 36.2 50.65 35.75 51.05
L 27.85 59
Q 27.45 59.45 26.8 59.45
L 13.4 59.45
Q 12.85 59.45 12.4 59.05 12 58.7 11.9 58.15 10.7 49.95 11.9 41.75 12 41.25 12.4 40.85 12.85 40.5 13.4 40.5 Z"/>

<path fill="#F5F5F5" stroke="none" d="
M 26.7 40.5
L 13.4 40.5
Q 12.85 40.5 12.4 40.85 12 41.25 11.9 41.75 10.7 49.95 11.9 58.15 12 58.7 12.4 59.05 12.85 59.45 13.4 59.45
L 26.8 59.45
Q 27.45 59.45 27.85 59
L 35.75 51.05
Q 36.2 50.65 36.2 50 36.2 49.4 35.75 48.95
L 27.75 40.95
Q 27.3 40.5 26.7 40.5
M 23.35 54.5
L 17.15 49.95 23.35 45.5 23.35 54.5 Z"/>

<path fill="#616161" stroke="none" d="
M 17.15 49.95
L 23.35 54.5 23.35 45.5 17.15 49.95 Z"/>
</g>
</g>

<g>
<path stroke="#616161" stroke-width="4" stroke-linejoin="round" stroke-linecap="round" fill="none" d="
M 88.05 41.75
Q 89.3 49.95 88.05 58.15 88 58.7 87.55 59.05 87.15 59.45 86.6 59.45
L 73.25 59.45
Q 72.65 59.45 72.2 59
L 64.2 51
Q 63.75 50.55 63.75 49.95 63.75 49.35 64.2 48.9
L 72.15 40.95
Q 72.6 40.5 73.2 40.5
L 86.6 40.5
Q 87.15 40.5 87.55 40.85 88 41.25 88.05 41.75 Z
M 40.85 12.4
Q 41.25 12 41.75 11.9 49.95 10.7 58.15 11.9 58.7 12 59.05 12.4 59.45 12.85 59.45 13.4
L 59.45 26.7
Q 59.45 27.3 59 27.75
L 51.05 35.75
Q 50.65 36.2 50 36.2 49.4 36.2 48.95 35.75
L 40.95 27.75
Q 40.5 27.3 40.5 26.7
L 40.5 13.4
Q 40.5 12.85 40.85 12.4 Z
M 48.85 64.15
Q 49.3 63.7 49.9 63.7 50.55 63.75 50.95 64.15
L 59 72.2
Q 59.45 72.65 59.45 73.25
L 59.45 86.6
Q 59.45 87.15 59.05 87.55 58.7 88 58.15 88.05 49.95 89.3 41.75 88.05 41.25 88 40.85 87.55 40.5 87.15 40.5 86.6
L 40.5 73.1
Q 40.5 72.45 40.95 72
L 48.85 64.15 Z"/>
</g>

<g>
<path stroke="#202020" stroke-width="5" stroke-linejoin="round" stroke-linecap="round" fill="none" d="
M 29.8 34.5
L 34.5 29.8 34.5 7.25
Q 49.95 3.35 65.45 7.25
L 65.45 29.8 70.15 34.5 92.75 34.5
Q 96.65 49.95 92.75 65.45
L 70.15 65.45 65.45 70.15 65.45 92.75
Q 49.95 96.65 34.5 92.75
L 34.5 70 29.95 65.45
M 65.45 29.8
L 50 45.3 34.5 29.8
M 70.15 65.45
L 54.6 49.9 70.15 34.5
M 65.45 70.15
L 49.9 54.6 34.5 70"/>
</g>

<g>
<path stroke="#FFFFFF" stroke-width="4" stroke-linejoin="round" stroke-linecap="round" fill="none" d="
M 26.7 40.5
Q 27.3 40.5 27.75 40.95
L 35.75 48.95
Q 36.2 49.4 36.2 50 36.2 50.65 35.75 51.05
L 27.85 59
Q 27.45 59.45 26.8 59.45
L 13.4 59.45
Q 12.85 59.45 12.4 59.05 12 58.7 11.9 58.15 10.7 49.95 11.9 41.75 12 41.25 12.4 40.85 12.85 40.5 13.4 40.5
L 26.7 40.5 Z"/>
</g>

<g>
<path stroke="#404040" stroke-width="5" stroke-linejoin="round" stroke-linecap="round" fill="none" d="
M 29.95 65.45
L 7.25 65.45
Q 3.35 49.95 7.25 34.5
L 29.8 34.5 45.3 50 29.95 65.45 Z"/>
</g>
</g>
</g>
</svg>
