<svg width="100px" height="100px" preserveAspectRatio="none" version="1.1" viewBox="0 0 100 100" xmlns="http://www.w3.org/2000/svg">
 <path d="m29.801 65.5 15.5-15.5-15.352-15.449 4.5508-4.5508v-22.75c10.3-2.6 20.616-2.6 30.949 0v22.6l4.7012 4.7012h22.6c2.6 10.333 2.6 20.649 0 30.949h-22.6l-4.7012 4.6992v22.551c-10.333 2.6-20.649 2.6-30.949 0v-22.551zm10.699-52.1v13.5c0 0.43333 0.14922 0.79961 0.44922 1.0996l7.9004 7.8496c0.3 0.3 0.65078 0.45117 1.0508 0.45117 0.43333-0.03333 0.78216-0.1845 1.0488-0.45117l8.0508-8.0488c0.3-0.3 0.44922-0.65078 0.44922-1.0508v-13.35c0-0.36667-0.13177-0.68451-0.39844-0.95117-0.23333-0.3-0.53372-0.46667-0.90039-0.5-5.4667-0.83333-10.934-0.83333-16.4 0-0.33333 0.03333-0.63372 0.2-0.90039 0.5-0.23333 0.26667-0.34961 0.5845-0.34961 0.95117zm0 59.9v13.299c0 0.36667 0.11628 0.7 0.34961 1 0.26667 0.26667 0.56706 0.43333 0.90039 0.5 5.4667 0.8 10.934 0.8 16.4 0 0.36667-0.06667 0.66706-0.23333 0.90039-0.5 0.26667-0.3 0.39844-0.63333 0.39844-1v-13.299c0-0.4-0.14922-0.75078-0.44922-1.0508l-7.9492-8c-0.26667-0.3-0.61745-0.44922-1.0508-0.44922-0.4 0-0.75078 0.14922-1.0508 0.44922l-8 8c-0.3 0.3-0.44922 0.65078-0.44922 1.0508zm23.25-23.25c0 0.4 0.14922 0.74883 0.44922 1.0488l7.9512 7.9512c0.3 0.3 0.64883 0.44922 1.0488 0.44922h13.4c0.36667 0 0.68451-0.11628 0.95117-0.34961 0.3-0.26667 0.46667-0.56706 0.5-0.90039 0.83333-5.4667 0.83333-10.934 0-16.4-0.03333-0.36667-0.2-0.66706-0.5-0.90039-0.26667-0.26667-0.5845-0.39844-0.95117-0.39844h-13.35c-0.4 0-0.75078 0.14922-1.0508 0.44922l-8 8c-0.3 0.3-0.44922 0.65078-0.44922 1.0508z" fill="#353535"/>
 <path d="m63.75 50.05c0-0.4 0.15-0.75 0.45-1.05l8-8c0.3-0.3 0.65-0.45 1.05-0.45h13.35c0.36667 0 0.68333 0.13333 0.95 0.4 0.3 0.23333 0.46667 0.53333 0.5 0.9 0.83333 5.4667 0.83333 10.933 0 16.4-0.03333 0.33333-0.2 0.63333-0.5 0.9-0.26667 0.23333-0.58333 0.35-0.95 0.35h-13.4c-0.4 0-0.75-0.15-1.05-0.45l-7.95-7.95c-0.3-0.3-0.45-0.65-0.45-1.05m-23.25-23.15v-13.5c0-0.36667 0.11667-0.68333 0.35-0.95 0.26667-0.3 0.56667-0.46667 0.9-0.5 5.4667-0.83333 10.933-0.83333 16.4 0 0.36667 0.03333 0.66667 0.2 0.9 0.5 0.26667 0.26667 0.4 0.58333 0.4 0.95v13.35c0 0.4-0.15 0.75-0.45 1.05l-8.05 8.05c-0.26667 0.26667-0.61667 0.41667-1.05 0.45-0.4 0-0.75-0.15-1.05-0.45l-7.9-7.85c-0.3-0.3-0.45-0.66667-0.45-1.1m0.35 60.7c-0.23333-0.3-0.35-0.63333-0.35-1v-13.3c0-0.4 0.15-0.75 0.45-1.05l8-8c0.3-0.3 0.65-0.45 1.05-0.45 0.43333 0 0.78333 0.15 1.05 0.45l7.95 8c0.3 0.3 0.45 0.65 0.45 1.05v13.3c0 0.36667-0.13333 0.7-0.4 1-0.23333 0.26667-0.53333 0.43333-0.9 0.5-5.4667 0.8-10.933 0.8-16.4 0-0.33333-0.06667-0.63333-0.23333-0.9-0.5" fill="#535353" stroke="#616161" stroke-linecap="round" stroke-linejoin="round" stroke-width="4"/>
 <path d="m76.6 54.5v-9l6.2 4.55-6.2 4.45m-26.55-37.3 4.45 6.2h-9l4.55-6.2m-4.55 59.45h9l-4.45 6.2z" fill="#d6d6d6"/>
 <path d="m29.8 65.5h-22.55c-2.6-10.3-2.6-20.617 0-30.95h22.7l15.35 15.45-15.5 15.5" fill="#d7d7d7"/>
 <path d="m12.4 40.95c0.3-0.26667 0.63333-0.4 1-0.4h13.4c0.43333 0 0.78333 0.15 1.05 0.45l7.9 7.95c0.3 0.26667 0.45 0.61667 0.45 1.05 0 0.4-0.15 0.75-0.45 1.05l-8 8c-0.3 0.3-0.65 0.45-1.05 0.45h-13.3c-0.36667 0-0.7-0.11667-1-0.35-0.26667-0.26667-0.43333-0.56667-0.5-0.9-0.8-5.4667-0.8-10.933 0-16.4 0.06667-0.36667 0.23333-0.66667 0.5-0.9" fill="#f5f5f5" stop-color="#000000" stroke="#fff" stroke-linecap="round" stroke-linejoin="round" stroke-width="4" style="-inkscape-stroke:none;font-variation-settings:normal"/>
 <path d="m17.15 50.05 6.2-4.55v9z" fill="#616161"/>
 <path d="m29.8 65.5 4.7 4.7v22.55q15.45 3.9 30.95 0v-22.55l4.7-4.7h22.6q3.9-15.45 0-30.95h-22.6l-4.7-4.7v-22.6q-15.5-3.9-30.95 0v22.75l-4.55 4.55m35.5 35.65-15.45-15.5-15.5 15.5m35.65-4.7-15.55-15.4 15.55-15.55m-35.65-4.55 15.4 15.4 15.55-15.55" fill="none" stroke="#202020" stroke-linecap="round" stroke-linejoin="round" stroke-width="5"/>
 <path d="m29.95 34.55h-22.7q-3.9 15.5 0 30.95h22.55l15.5-15.5z" fill="none" stroke="#404040" stroke-linecap="round" stroke-linejoin="round" stroke-width="5"/>
</svg>
