
<svg xmlns="http://www.w3.org/2000/svg" version="1.1" xmlns:xlink="http://www.w3.org/1999/xlink" preserveAspectRatio="none" x="0px" y="0px" width="100px" height="100px" viewBox="0 0 100 100">
<defs/>

<g id="PS_Vita">
<g>
<g>
<g>
<path fill="#353535" stroke="none" d="
M 34.55 70.15
L 34.55 92.75
Q 50.05 96.65 65.5 92.75
L 65.5 70.15 50.1 54.6 34.55 70.15
M 49 64.2
Q 49.45 63.75 50.05 63.75 50.65 63.75 51.1 64.2
L 59.05 72.15
Q 59.5 72.6 59.5 73.2
L 59.5 86.6
Q 59.5 87.15 59.15 87.55 58.75 88 58.25 88.05 50.05 89.3 41.85 88.05 41.3 88 40.95 87.55 40.55 87.15 40.55 86.6
L 40.55 73.25
Q 40.55 72.65 41 72.2
L 49 64.2
M 30 34.5
L 7.25 34.5
Q 3.35 49.95 7.25 65.45
L 29.85 65.45 45.4 49.9 30 34.5
M 13.4 40.5
L 26.9 40.5
Q 27.55 40.5 28 40.95
L 35.85 48.85
Q 36.3 49.3 36.3 49.9 36.25 50.55 35.85 50.95
L 27.8 59
Q 27.35 59.45 26.75 59.45
L 13.4 59.45
Q 12.85 59.45 12.45 59.05 12 58.7 11.95 58.15 10.7 49.95 11.95 41.75 12 41.25 12.45 40.85 12.85 40.5 13.4 40.5
M 70.2 34.5
L 65.5 29.8 50 45.3 34.55 29.95 30 34.5 45.4 49.9 29.85 65.45 34.55 70.15 50.1 54.6 65.5 70.15 70.2 65.45 54.7 50 70.2 34.5
M 92.75 65.45
Q 96.65 49.95 92.75 34.5
L 70.2 34.5 54.7 50 70.2 65.45 92.75 65.45
M 86.6 40.5
Q 87.15 40.5 87.6 40.85 88 41.25 88.1 41.75 89.3 49.95 88.1 58.15 88 58.7 87.6 59.05 87.15 59.45 86.6 59.45
L 73.3 59.45
Q 72.7 59.45 72.25 59
L 64.25 51.05
Q 63.8 50.65 63.8 50 63.8 49.4 64.25 48.95
L 72.25 40.95
Q 72.7 40.5 73.3 40.5
L 86.6 40.5 Z"/>

<path fill="#535353" stroke="none" d="
M 50.05 63.75
Q 49.45 63.75 49 64.2
L 41 72.2
Q 40.55 72.65 40.55 73.25
L 40.55 86.6
Q 40.55 87.15 40.95 87.55 41.3 88 41.85 88.05 50.05 89.3 58.25 88.05 58.75 88 59.15 87.55 59.5 87.15 59.5 86.6
L 59.5 73.2
Q 59.5 72.6 59.05 72.15
L 51.1 64.2
Q 50.65 63.75 50.05 63.75
M 45.5 76.6
L 54.5 76.6 50.05 82.8 45.5 76.6
M 26.9 40.5
L 13.4 40.5
Q 12.85 40.5 12.45 40.85 12 41.25 11.95 41.75 10.7 49.95 11.95 58.15 12 58.7 12.45 59.05 12.85 59.45 13.4 59.45
L 26.75 59.45
Q 27.35 59.45 27.8 59
L 35.85 50.95
Q 36.25 50.55 36.3 49.9 36.3 49.3 35.85 48.85
L 28 40.95
Q 27.55 40.5 26.9 40.5
M 23.4 54.5
L 17.2 50.05 23.4 45.5 23.4 54.5
M 87.6 40.85
Q 87.15 40.5 86.6 40.5
L 73.3 40.5
Q 72.7 40.5 72.25 40.95
L 64.25 48.95
Q 63.8 49.4 63.8 50 63.8 50.65 64.25 51.05
L 72.25 59
Q 72.7 59.45 73.3 59.45
L 86.6 59.45
Q 87.15 59.45 87.6 59.05 88 58.7 88.1 58.15 89.3 49.95 88.1 41.75 88 41.25 87.6 40.85
M 76.65 54.5
L 76.65 45.5 82.85 50.05 76.65 54.5 Z"/>

<path fill="#D6D6D6" stroke="none" d="
M 54.5 76.6
L 45.5 76.6 50.05 82.8 54.5 76.6
M 17.2 50.05
L 23.4 54.5 23.4 45.5 17.2 50.05
M 76.65 45.5
L 76.65 54.5 82.85 50.05 76.65 45.5 Z"/>

<path fill="#D7D7D7" stroke="none" d="
M 65.5 29.8
L 65.5 7.25
Q 50.05 3.35 34.55 7.25
L 34.55 29.95 50 45.3 65.5 29.8
M 40.55 13.4
Q 40.55 12.85 40.95 12.4 41.3 12 41.85 11.9 50.05 10.7 58.25 11.9 58.75 12 59.15 12.4 59.5 12.85 59.5 13.4
L 59.5 26.7
Q 59.5 27.3 59.05 27.75
L 51.05 35.75
Q 50.6 36.2 50 36.2 49.35 36.2 48.95 35.75
L 41 27.85
Q 40.55 27.45 40.55 26.8
L 40.55 13.4 Z"/>

<path fill="#F5F5F5" stroke="none" d="
M 40.95 12.4
Q 40.55 12.85 40.55 13.4
L 40.55 26.8
Q 40.55 27.45 41 27.85
L 48.95 35.75
Q 49.35 36.2 50 36.2 50.6 36.2 51.05 35.75
L 59.05 27.75
Q 59.5 27.3 59.5 26.7
L 59.5 13.4
Q 59.5 12.85 59.15 12.4 58.75 12 58.25 11.9 50.05 10.7 41.85 11.9 41.3 12 40.95 12.4
M 45.5 23.35
L 50.05 17.15 54.5 23.35 45.5 23.35 Z"/>

<path fill="#616161" stroke="none" d="
M 50.05 17.15
L 45.5 23.35 54.5 23.35 50.05 17.15 Z"/>
</g>
</g>

<g>
<path stroke="#616161" stroke-width="4" stroke-linejoin="round" stroke-linecap="round" fill="none" d="
M 87.6 40.85
Q 88 41.25 88.1 41.75 89.3 49.95 88.1 58.15 88 58.7 87.6 59.05 87.15 59.45 86.6 59.45
L 73.3 59.45
Q 72.7 59.45 72.25 59
L 64.25 51.05
Q 63.8 50.65 63.8 50 63.8 49.4 64.25 48.95
L 72.25 40.95
Q 72.7 40.5 73.3 40.5
L 86.6 40.5
Q 87.15 40.5 87.6 40.85 Z
M 26.9 40.5
Q 27.55 40.5 28 40.95
L 35.85 48.85
Q 36.3 49.3 36.3 49.9 36.25 50.55 35.85 50.95
L 27.8 59
Q 27.35 59.45 26.75 59.45
L 13.4 59.45
Q 12.85 59.45 12.45 59.05 12 58.7 11.95 58.15 10.7 49.95 11.95 41.75 12 41.25 12.45 40.85 12.85 40.5 13.4 40.5
L 26.9 40.5 Z
M 50.05 63.75
Q 50.65 63.75 51.1 64.2
L 59.05 72.15
Q 59.5 72.6 59.5 73.2
L 59.5 86.6
Q 59.5 87.15 59.15 87.55 58.75 88 58.25 88.05 50.05 89.3 41.85 88.05 41.3 88 40.95 87.55 40.55 87.15 40.55 86.6
L 40.55 73.25
Q 40.55 72.65 41 72.2
L 49 64.2
Q 49.45 63.75 50.05 63.75 Z"/>
</g>

<g>
<path stroke="#202020" stroke-width="5" stroke-linejoin="round" stroke-linecap="round" fill="none" d="
M 65.5 29.8
L 70.2 34.5 92.75 34.5
Q 96.65 49.95 92.75 65.45
L 70.2 65.45 65.5 70.15 65.5 92.75
Q 50.05 96.65 34.55 92.75
L 34.55 70.15 29.85 65.45 7.25 65.45
Q 3.35 49.95 7.25 34.5
L 30 34.5 34.55 29.95
M 70.2 65.45
L 54.7 50 70.2 34.5
M 65.5 70.15
L 50.1 54.6 34.55 70.15
M 30 34.5
L 45.4 49.9 29.85 65.45"/>
</g>

<g>
<path stroke="#404040" stroke-width="5" stroke-linejoin="round" stroke-linecap="round" fill="none" d="
M 34.55 29.95
L 34.55 7.25
Q 50.05 3.35 65.5 7.25
L 65.5 29.8 50 45.3 34.55 29.95 Z"/>
</g>

<g>
<path stroke="#FFFFFF" stroke-width="4" stroke-linejoin="round" stroke-linecap="round" fill="none" d="
M 40.95 12.4
Q 41.3 12 41.85 11.9 50.05 10.7 58.25 11.9 58.75 12 59.15 12.4 59.5 12.85 59.5 13.4
L 59.5 26.7
Q 59.5 27.3 59.05 27.75
L 51.05 35.75
Q 50.6 36.2 50 36.2 49.35 36.2 48.95 35.75
L 41 27.85
Q 40.55 27.45 40.55 26.8
L 40.55 13.4
Q 40.55 12.85 40.95 12.4 Z"/>
</g>
</g>
</g>
</svg>
