
<svg xmlns="http://www.w3.org/2000/svg" version="1.1" xmlns:xlink="http://www.w3.org/1999/xlink" preserveAspectRatio="none" x="0px" y="0px" width="100px" height="100px" viewBox="0 0 100 100">
<defs/>

<g id="PS_Vita">
<g>
<g>
<g>
<path fill="#202020" stroke="none" d="
M 78.55 21.4
L 78.6 21.4
Q 66.8 9.6 50 9.6 33.25 9.6 21.35 21.4 9.55 33.25 9.55 50 9.55 66.75 21.35 78.6
L 21.35 78.65
Q 33.25 90.45 50 90.45 66.75 90.45 78.55 78.65
L 78.6 78.6
Q 90.45 66.75 90.45 50 90.45 33.2 78.55 21.4
M 50 13.6
Q 65.1 13.6 75.75 24.25 86.45 34.9 86.45 50 86.45 65.1 75.75 75.8 65.1 86.45 50 86.45 34.9 86.45 24.2 75.8
L 24.15 75.8
Q 13.55 65.1 13.55 50 13.55 34.9 24.15 24.25
L 24.2 24.2
Q 34.9 13.6 50 13.6 Z"/>

<path fill="#353535" stroke="none" d="
M 75.75 24.25
Q 65.1 13.6 50 13.6 34.9 13.6 24.2 24.2
L 24.15 24.25
Q 13.55 34.9 13.55 50 13.55 65.1 24.15 75.8
L 24.2 75.8
Q 34.9 86.45 50 86.45 65.1 86.45 75.75 75.8 86.45 65.1 86.45 50 86.45 34.9 75.75 24.25
M 73.3 26.6
L 73.35 26.6
Q 83 36.25 83 50 83 63.65 73.35 73.35 63.65 83 50 83 36.25 83 26.6 73.35
L 26.6 73.3
Q 17 63.6 17 50 17 36.3 26.6 26.6 36.3 17 50 17 63.6 17 73.3 26.6 Z"/>

<path fill="#616161" stroke="none" d="
M 73.35 26.6
L 73.3 26.6
Q 63.6 17 50 17 36.3 17 26.6 26.6 17 36.3 17 50 17 63.6 26.6 73.3
L 26.6 73.35
Q 36.25 83 50 83 63.65 83 73.35 73.35 83 63.65 83 50 83 36.25 73.35 26.6
M 50 20
Q 62.4 20 71.15 28.75 79.95 37.5 79.95 50 79.95 62.35 71.15 71.15 62.35 79.95 50 79.95 37.5 79.95 28.75 71.15 20 62.4 20 50 20 37.5 28.7 28.75
L 28.75 28.7
Q 37.5 20 50 20 Z"/>

<path fill="#535353" stroke="none" d="
M 71.15 28.75
Q 62.4 20 50 20 37.5 20 28.75 28.7
L 28.7 28.75
Q 20 37.5 20 50 20 62.4 28.75 71.15 37.5 79.95 50 79.95 62.35 79.95 71.15 71.15 79.95 62.35 79.95 50 79.95 37.5 71.15 28.75
M 50 30.25
Q 58.2 30.25 63.95 36.05 69.75 41.85 69.75 50 69.75 58.2 63.95 63.95 58.2 69.75 50 69.75 41.85 69.75 36.05 63.95 30.25 58.2 30.25 50 30.25 41.85 36.05 36.05 41.85 30.25 50 30.25
M 63.95 36.05
Q 58.2 30.25 50 30.25 41.85 30.25 36.05 36.05 30.25 41.85 30.25 50 30.25 58.2 36.05 63.95 41.85 69.75 50 69.75 58.2 69.75 63.95 63.95 69.75 58.2 69.75 50 69.75 41.85 63.95 36.05 Z"/>
</g>
</g>

<g>
<path stroke="#D6D6D6" stroke-width="5" stroke-linejoin="round" stroke-linecap="round" fill="none" d="
M 50 30.25
Q 58.2 30.25 63.95 36.05 69.75 41.85 69.75 50 69.75 58.2 63.95 63.95 58.2 69.75 50 69.75 41.85 69.75 36.05 63.95 30.25 58.2 30.25 50 30.25 41.85 36.05 36.05 41.85 30.25 50 30.25 Z"/>
</g>
</g>
</g>
</svg>
