<?xml version="1.0" encoding="UTF-8"?>
<svg preserveAspectRatio="none" version="1.1" viewBox="0 0 100 100" xmlns="http://www.w3.org/2000/svg">
<g fill-rule="evenodd">
<ellipse cx="50" cy="50" rx="48.8" ry="31.5" fill="#202020"/>
<ellipse cx="50" cy="50" rx="44" ry="26.7" fill="#353535"/>
<ellipse cx="50" cy="50" rx="41.5" ry="24.2" fill="#616161"/>
<ellipse cx="50" cy="50" rx="37.5" ry="20.2" fill="#535353"/>
</g>
<path d="m44.993 34.5v28.927l6.5147 2.0726v-24.251c0-1.1446 0.50092-1.9064 1.3336-1.6441 1.0706 0.28615 1.2871 1.3354 1.2871 2.3846v9.776c4.0683 1.9792 7.2768 7.42e-4 7.2768-5.1977 0-5.1985-1.878-7.7023-7.3976-9.5385-2.952-1.022-5.9622-1.8665-9.0146-2.529zm-1.2871 17.479-9.3492 3.3394c-1.2674 0.42246-2.4748 1.008-3.5919 1.7419-1.4513 1.0731-0.90536 2.9321 2.2351 3.8145v-0.09782c3.2406 1.0797 6.6937 1.3577 10.065 0.8104h0.64125v-3.4092l-3.2341 1.169c-1.258 0.42637-2.6098 0.49251-3.9032 0.19096-0.97544-0.33385-0.78529-0.93075 0.40426-1.36l6.7331-2.3846zm16.064 1.6534c-0.61317 0.01002-1.2256 0.04734-1.8355 0.11177-1.6166 0.17925-3.2108 0.52257-4.7582 1.0246l-0.40426 0.14439v3.8145l6.9933-2.3846c1.258-0.42637 2.6098-0.49251 3.9032-0.19096 0.97544 0.33385 0.78529 0.93075-0.40426 1.36l-10.492 3.7679-0.12081 3.7679 14.275-5.1279c1.0157-0.36285 1.9413-0.94111 2.7137-1.6953 0.78511-1.0254 0.45352-2.4316-2.6393-3.4093-2.321-0.8211-4.7693-1.2217-7.2303-1.183z" fill="#d6d6d6" stroke-width=".99999"/>
</svg>
