
<svg xmlns="http://www.w3.org/2000/svg" version="1.1" xmlns:xlink="http://www.w3.org/1999/xlink" preserveAspectRatio="none" x="0px" y="0px" width="100px" height="100px" viewBox="0 0 100 100">
<defs/>

<g id="PS_Vita">
<g>
<g>
<g>
<path fill="#D6D6D6" stroke="none" d="
M 82.25 82.25
Q 95.65 68.9 95.65 50 95.65 31.1 82.25 17.7 68.9 4.35 50 4.35 31.1 4.35 17.7 17.7 4.35 31.1 4.35 50 4.35 68.9 17.7 82.25 31.1 95.65 50 95.65 68.9 95.65 82.25 82.25
M 50 9.05
Q 67 9.05 78.9 21 90.95 33.05 90.95 50 90.95 67 78.9 78.9 67 90.95 50 90.95 33.05 90.95 21 78.9 9.05 67 9.05 50 9.05 33.05 21 21 33.05 9.05 50 9.05
M 48.8 37.05
L 43.35 37.05 43.35 61.85 58.9 61.85 58.9 56.8 48.8 56.8 48.8 37.05 Z"/>

<path fill="#353535" stroke="none" d="
M 78.9 21
Q 67 9.05 50 9.05 33.05 9.05 21 21 9.05 33.05 9.05 50 9.05 67 21 78.9 33.05 90.95 50 90.95 67 90.95 78.9 78.9 90.95 67 90.95 50 90.95 33.05 78.9 21
M 50.05 17.45
Q 63.5 17.45 73.05 27 82.6 36.55 82.6 50.05 82.6 63.5 73.05 73.05 63.5 82.6 50.05 82.6 36.55 82.6 27 73.05 17.45 63.5 17.45 50.05 17.45 36.55 27 27 36.55 17.45 50.05 17.45
M 73.05 27
Q 63.5 17.45 50.05 17.45 36.55 17.45 27 27 17.45 36.55 17.45 50.05 17.45 63.5 27 73.05 36.55 82.6 50.05 82.6 63.5 82.6 73.05 73.05 82.6 63.5 82.6 50.05 82.6 36.55 73.05 27
M 50 26.25
Q 59.8 26.25 66.75 33.2 73.75 40.2 73.75 50 73.75 59.8 66.75 66.75 59.8 73.75 50 73.75 40.2 73.75 33.2 66.75 26.25 59.8 26.25 50 26.25 40.2 33.2 33.2 40.2 26.25 50 26.25 Z"/>

<path fill="#4B4B4B" stroke="none" d="
M 66.75 33.2
Q 59.8 26.25 50 26.25 40.2 26.25 33.2 33.2 26.25 40.2 26.25 50 26.25 59.8 33.2 66.75 40.2 73.75 50 73.75 59.8 73.75 66.75 66.75 73.75 59.8 73.75 50 73.75 40.2 66.75 33.2
M 43.35 37.05
L 48.8 37.05 48.8 56.8 58.9 56.8 58.9 61.85 43.35 61.85 43.35 37.05 Z"/>
</g>
</g>

<g>
<path stroke="#202020" stroke-width="5" stroke-linejoin="round" stroke-linecap="round" fill="none" d="
M 50.05 17.45
Q 63.5 17.45 73.05 27 82.6 36.55 82.6 50.05 82.6 63.5 73.05 73.05 63.5 82.6 50.05 82.6 36.55 82.6 27 73.05 17.45 63.5 17.45 50.05 17.45 36.55 27 27 36.55 17.45 50.05 17.45 Z"/>
</g>

<g>
<path stroke="#4B4B4B" stroke-width="5" stroke-linejoin="round" stroke-linecap="round" fill="none" d="
M 95.65 50
Q 95.65 68.9 82.25 82.25 68.9 95.65 50 95.65 31.1 95.65 17.7 82.25 4.35 68.9 4.35 50 4.35 31.1 17.7 17.7 31.1 4.35 50 4.35 68.9 4.35 82.25 17.7 95.65 31.1 95.65 50 Z"/>
</g>
</g>
</g>
</svg>
