
<svg xmlns="http://www.w3.org/2000/svg" version="1.1" xmlns:xlink="http://www.w3.org/1999/xlink" preserveAspectRatio="none" x="0px" y="0px" width="100px" height="100px" viewBox="0 0 100 100">
<defs/>

<g id="PS_Vita">
<g>
<g>
<g>
<path fill="#A2A2A2" stroke="none" d="
M 17.2 24.5
L 11.95 24.5
Q 9.8 24.7 8.25 26
L 9.9 27.5
Q 9.9 27.45 9.95 27.4 9.95 27.35 9.95 27.3
L 10 27.25 10 27.2
Q 10.05 27.15 10.05 27.1
L 10.1 27.05
Q 10.15 27 10.2 26.95 10.25 26.9 10.3 26.9 10.4 26.85 10.45 26.85 10.5 26.8 10.6 26.8 10.65 26.8 10.75 26.85 10.8 26.85 10.85 26.8
L 10.9 26.8
Q 10.9 26.75 10.9 26.7 10.95 26.7 11 26.65 11 26.6 11.05 26.55 11.1 26.55 11.15 26.5 11.25 26.45 11.3 26.45 11.45 26.45 11.55 26.45 11.7 26.45 11.85 26.45 11.95 26.4 12.1 26.35 12.25 26.35 12.35 26.35 12.5 26.35 12.6 26.35 12.65 26.4 12.7 26.4 12.75 26.45 12.8 26.45
L 12.85 26.4
Q 12.95 26.35 13 26.35 13.05 26.3 13.1 26.25 13.2 26.25 13.25 26.25 13.3 26.25 13.35 26.25 13.45 26.25 13.5 26.25 13.55 26.3 13.65 26.3 13.7 26.35 13.75 26.4
L 13.8 26.45
Q 13.85 26.5 13.9 26.5
L 13.95 26.5
Q 14.05 26.45 14.1 26.4 14.2 26.4 14.3 26.35 14.4 26.4 14.55 26.4 14.6 26.45 14.65 26.5 14.7 26.55 14.75 26.55 14.75 26.6 14.8 26.65 14.8 26.7 14.85 26.7 14.85 26.75 14.85 26.8 14.9 26.9 14.9 27 14.95 26.95 14.95 26.85
L 15 26.8
Q 15 26.75 15.05 26.7
L 15.1 26.65
Q 15.1 26.6 15.15 26.55
L 15.2 26.5
Q 15.2 26.45 15.25 26.4
L 15.25 26.35 15.3 26.3
Q 15.35 26.25 15.4 26.2
L 15.4 26.15
Q 15.45 26.1 15.45 26.05
L 15.5 26
Q 15.55 25.95 15.55 25.9 15.6 25.85 15.65 25.85 15.65 25.8 15.7 25.75 15.75 25.7 15.8 25.7 15.85 25.65 15.9 25.6 16 25.6 16.1 25.55 16.15 25.5 16.15 25.45 16.2 25.45 16.3 25.4 16.35 25.35 16.4 25.3 16.5 25.25 16.55 25.15 16.6 25.15 16.65 25.1 16.7 25.05 16.75 25.05 16.8 25 16.85 24.95 16.9 24.9 16.95 24.9 16.95 24.85 17 24.8 17 24.75 17.05 24.75 17.1 24.65 17.15 24.6 17.2 24.55 17.2 24.5
M 83.65 45.25
Q 83.85 45.35 84 45.45 84.15 45.6 84.25 45.7 84.3 45.75 84.35 45.85 84.4 45.85 84.4 45.9 84.4 45.95 84.4 46 84.45 46 84.45 46.05 84.5 46.1 84.5 46.15 84.55 46.15 84.6 46.15 84.65 46.2 84.7 46.25 84.75 46.25 84.85 46.3 84.85 46.35 84.9 46.35 84.9 46.4 84.95 46.45 84.95 46.5 85 46.5 85 46.55 85 46.6
L 85.05 46.65
Q 85.05 46.7 85.1 46.75 85.15 46.75 85.2 46.8 85.25 46.85 85.3 46.9
L 85.35 46.95
Q 85.35 47 85.4 47.05
L 85.4 47.1
Q 85.4 47.15 85.4 47.2 85.45 47.2 85.45 47.25 85.45 47.3 85.5 47.3 85.5 47.35 85.5 47.4
L 85.55 47.45
Q 85.6 47.55 85.6 47.6 85.65 47.7 85.65 47.75 85.65 47.8 85.7 47.85
L 85.7 47.9
Q 85.7 47.95 85.75 48 85.8 47.95 85.85 47.95 85.85 47.9 85.9 47.85 85.95 47.8 86 47.8 86.1 47.75 86.15 47.75 86.2 47.7 86.3 47.7 86.35 47.7 86.45 47.75 86.5 47.75 86.55 47.75
L 86.55 47.7
Q 86.6 47.65 86.65 47.6 86.65 47.55 86.7 47.5
L 86.75 47.45
Q 86.8 47.4 86.85 47.35 86.9 47.35 86.95 47.3 87.05 47.25 87.1 47.25 87.15 47.25 87.2 47.25 87.25 47.2 87.35 47.2 87.4 47.2 87.5 47.2 87.55 47.25 87.65 47.25 87.7 47.3 87.75 47.35 87.8 47.4 87.85 47.4 87.85 47.45 87.9 47.5
L 87.95 47.55
Q 87.95 47.6 88 47.65 88 47.7 88 47.8 88 47.95 88 48.1 88 48.2 88 48.3 88 48.35 88 48.45 88 48.5 88 48.6
L 88 48.65
Q 87.95 48.7 87.95 48.75
L 87.95 48.8
Q 87.9 48.85 87.9 48.9
L 87.9 48.95
Q 87.9 49 87.9 49.05
L 87.9 49.1
Q 87.9 49.15 87.9 49.2 87.85 49.2 87.85 49.25
L 87.85 49.3
Q 87.8 49.35 87.8 49.4
L 87.8 49.45
Q 87.75 49.5 87.75 49.55 87.75 49.6 87.7 49.6 87.7 49.65 87.7 49.7 87.75 49.7 87.8 49.7 87.85 49.7 87.9 49.7 88 49.7 88.05 49.65 88.15 49.7 88.2 49.7 88.25 49.7 88.3 49.7 88.4 49.8 88.5 49.85 88.6 49.95 88.7 50.15 88.85 50.4 89 50.65 89.1 50.8 89.2 50.95 89.35 51.05 89.5 51.15 89.6 51.25 89.7 51.3 89.75 51.4 89.8 51.45 89.85 51.5 89.95 51.55 90.05 51.6 90.2 51.75 90.25 51.8 90.35 51.9 90.45 51.95 90.6 52.05 90.65 52.05 90.65 52.1 90.7 52.15 90.7 52.2 90.75 52.2 90.8 52.25 90.8 52.3 90.85 52.35 90.9 52.4 91 52.5 91.05 52.55 91.1 52.6 91.1 52.65 91.15 52.7 91.15 52.75 91.2 52.85
L 91.2 52.9 93.2 52.9
Q 91.9 50.1 89.05 47.9
L 65.65 33.65
Q 55.9 30.6 48.6 32.25 41.35 33.9 34.05 31.95
L 18.55 25 18.5 25
Q 18.4 25.05 18.3 25.1 18.25 25.15 18.2 25.15 18.15 25.25 18.05 25.3 18 25.4 17.95 25.45 17.9 25.5 17.85 25.55 17.85 25.6 17.8 25.6 17.8 25.65 17.75 25.7
L 17.65 25.75
Q 17.6 25.8 17.55 25.85 17.45 25.95 17.35 26.05 17.2 26.15 17.1 26.25 17.05 26.35 16.95 26.4 16.8 26.5 16.7 26.55 16.65 26.6 16.6 26.65 16.55 26.7 16.5 26.7 16.45 26.75 16.4 26.8
L 16.35 26.85
Q 16.35 26.9 16.3 26.95
L 16.3 27
Q 16.25 27.05 16.25 27.1 16.2 27.1 16.2 27.15
L 16.2 27.2
Q 16.15 27.25 16.15 27.3
L 16.1 27.35
Q 16.05 27.4 16.05 27.45
L 16 27.5
Q 16 27.55 15.95 27.6
L 15.95 27.65
Q 15.95 27.7 15.9 27.75
L 15.9 27.8
Q 15.85 27.85 15.85 27.9
L 15.8 27.95
Q 15.75 28.05 15.7 28.1 15.7 28.15 15.65 28.2
L 15.65 28.25 15.6 28.3
Q 15.6 28.35 15.55 28.4
L 15.55 28.45
Q 15.55 28.5 15.55 28.55
L 15.55 28.6
Q 15.5 28.65 15.5 28.7
L 15.45 28.75
Q 15.45 28.8 15.45 28.85
L 15.45 28.9
Q 15.4 28.95 15.4 29
L 15.4 29.05
Q 15.4 29.1 15.45 29.15
L 15.45 29.2
Q 15.45 29.25 15.45 29.3
L 15.45 29.4
Q 15.45 29.45 15.45 29.5
L 15.45 29.55
Q 15.45 29.6 15.45 29.65
L 15.45 29.7
Q 15.45 29.75 15.45 29.8
L 15.45 29.85
Q 15.45 29.9 15.45 29.95 15.5 29.95 15.5 30 15.5 30.05 15.55 30.1
L 15.6 30.15
Q 15.65 30.2 15.65 30.25
L 15.65 30.3 15.7 30.35
Q 15.7 30.4 15.7 30.45
L 15.75 30.5
Q 15.75 30.55 15.75 30.6
L 15.75 30.65
Q 15.75 30.7 15.75 30.75
L 15.75 30.8
Q 15.75 30.85 15.75 30.9
L 15.75 30.95
Q 15.7 31 15.7 31.05 15.65 31.05 15.65 31.1 15.55 31.15 15.5 31.2 15.4 31.2 15.3 31.25 15.25 31.2 15.15 31.2 15.1 31.2 15.05 31.2 15.05 31.15 15 31.15
L 14.95 31.15
Q 14.95 31.2 14.85 31.25 14.8 31.3 14.75 31.35 14.7 31.4 14.6 31.45 14.6 31.5 14.6 31.55 14.6 31.6 14.6 31.7
L 14.6 31.75 14.95 32.1 38.7 47.8
Q 46.4 53.05 57.2 52.9
L 81.15 52.9
Q 81.15 52.85 81.15 52.8 81.2 52.8 81.2 52.75 81.25 52.7 81.3 52.65 81.35 52.65 81.4 52.6 81.5 52.55 81.6 52.55 81.65 52.5 81.7 52.5 81.85 52.45 81.95 52.45 82 52.4 82 52.35 82.05 52.3 82 52.3 82 52.25 82.05 52.2
L 82.05 52.15
Q 82.05 52.1 82.05 52.05
L 82.1 52
Q 82.1 51.95 82.15 51.9
L 82.2 51.85
Q 82.25 51.8 82.3 51.75 82.4 51.7 82.5 51.6 82.55 51.6 82.65 51.55 82.7 51.5 82.75 51.45
L 82.75 51.4
Q 82.85 51.2 83 51 83.15 50.9 83.25 50.75 83.3 50.65 83.35 50.6 83.4 50.55 83.45 50.5
L 83.5 50.45
Q 83.5 50.35 83.55 50.3
L 83.6 50.25
Q 83.65 50.2 83.65 50.15
L 83.7 50.1
Q 83.7 50.05 83.75 50 83.75 49.95 83.75 49.85 83.8 49.85 83.8 49.8 83.8 49.75 83.8 49.7
L 83.8 49.65
Q 83.85 49.6 83.85 49.55
L 83.9 49.5
Q 83.9 49.35 83.9 49.2 83.9 49 83.9 48.85 83.9 48.7 83.9 48.55 83.9 48.45 83.9 48.4 83.85 48.35 83.85 48.3
L 83.85 48.25 83.8 48.2
Q 83.8 48.15 83.8 48.1 83.8 48.05 83.8 47.95 83.8 47.9 83.8 47.8
L 83.8 47.75
Q 83.8 47.7 83.75 47.65
L 83.75 47.6
Q 83.75 47.55 83.7 47.5
L 83.7 47.45
Q 83.65 47.35 83.65 47.3 83.6 47.25 83.6 47.2 83.55 47.2 83.55 47.15 83.55 47.1 83.5 47.1 83.5 47.05 83.5 47
L 83.5 46.95
Q 83.45 46.9 83.45 46.85 83.45 46.8 83.4 46.8 83.4 46.75 83.4 46.7
L 83.4 46.65
Q 83.4 46.6 83.4 46.55
L 83.4 46.5
Q 83.35 46.45 83.35 46.4 83.3 46.4 83.3 46.35 83.25 46.3 83.15 46.25 83.1 46.25 83.05 46.2 83.05 46.15 83 46.15 83 46.1 82.95 46.05 82.95 46 82.95 45.9 82.9 45.85 82.9 45.75
L 82.9 45.7
Q 82.85 45.65 82.85 45.6
L 82.9 45.55
Q 82.9 45.5 82.9 45.45 82.95 45.45 82.95 45.4 83 45.35 83.1 45.3 83.15 45.3 83.25 45.25 83.35 45.2 83.45 45.2 83.55 45.25 83.65 45.25 Z"/>

<path fill="#C8C8C8" stroke="none" d="
M 84 45.45
Q 83.85 45.35 83.65 45.25 83.55 45.25 83.45 45.2 83.35 45.2 83.25 45.25 83.15 45.3 83.1 45.3 83 45.35 82.95 45.4 82.95 45.45 82.9 45.45 82.9 45.5 82.9 45.55
L 82.85 45.6
Q 82.85 45.65 82.9 45.7
L 82.9 45.75
Q 82.9 45.85 82.95 45.9 82.95 46 82.95 46.05 83 46.1 83 46.15 83.05 46.15 83.05 46.2 83.1 46.25 83.15 46.25 83.25 46.3 83.3 46.35 83.3 46.4 83.35 46.4 83.35 46.45 83.4 46.5
L 83.4 46.55
Q 83.4 46.6 83.4 46.65
L 83.4 46.7
Q 83.4 46.75 83.4 46.8 83.45 46.8 83.45 46.85 83.45 46.9 83.5 46.95
L 83.5 47
Q 83.5 47.05 83.5 47.1 83.55 47.1 83.55 47.15 83.55 47.2 83.6 47.2 83.6 47.25 83.65 47.3 83.65 47.35 83.7 47.45
L 83.7 47.5
Q 83.75 47.55 83.75 47.6
L 83.75 47.65
Q 83.8 47.7 83.8 47.75
L 83.8 47.8
Q 83.8 47.9 83.8 47.95 83.8 48.05 83.8 48.1 83.8 48.15 83.8 48.2
L 83.85 48.25 83.85 48.3
Q 83.85 48.35 83.9 48.4 83.9 48.45 83.9 48.55 83.9 48.7 83.9 48.85 83.9 49 83.9 49.2 83.9 49.35 83.9 49.5
L 83.85 49.55
Q 83.85 49.6 83.8 49.65
L 83.8 49.7
Q 83.8 49.75 83.8 49.8 83.8 49.85 83.75 49.85 83.75 49.95 83.75 50 83.7 50.05 83.7 50.1
L 83.65 50.15
Q 83.65 50.2 83.6 50.25
L 83.55 50.3
Q 83.5 50.35 83.5 50.45
L 83.45 50.5
Q 83.4 50.55 83.35 50.6 83.3 50.65 83.25 50.75 83.15 50.9 83 51 82.85 51.2 82.75 51.4
L 82.75 51.45
Q 82.7 51.5 82.65 51.55 82.55 51.6 82.5 51.6 82.4 51.7 82.3 51.75 82.25 51.8 82.2 51.85
L 82.15 51.9
Q 82.1 51.95 82.1 52
L 82.05 52.05
Q 82.05 52.1 82.05 52.15
L 82.05 52.2
Q 82 52.25 82 52.3 82.05 52.3 82 52.35 82 52.4 81.95 52.45 81.85 52.45 81.7 52.5 81.65 52.5 81.6 52.55 81.5 52.55 81.4 52.6 81.35 52.65 81.3 52.65 81.25 52.7 81.2 52.75 81.2 52.8 81.15 52.8 81.15 52.85 81.15 52.9
L 82.25 52.9 81.15 52.9 57.2 52.9
Q 46.4 53.05 38.7 47.8
L 14.95 32.1 14.6 31.75 14.6 31.7
Q 14.6 31.6 14.6 31.55 14.6 31.5 14.6 31.45 14.7 31.4 14.75 31.35 14.8 31.3 14.85 31.25 14.95 31.2 14.95 31.15
L 15 31.15
Q 15.05 31.15 15.05 31.2 15.1 31.2 15.15 31.2 15.25 31.2 15.3 31.25 15.4 31.2 15.5 31.2 15.55 31.15 15.65 31.1 15.65 31.05 15.7 31.05 15.7 31 15.75 30.95
L 15.75 30.9
Q 15.75 30.85 15.75 30.8
L 15.75 30.75
Q 15.75 30.7 15.75 30.65
L 15.75 30.6
Q 15.75 30.55 15.75 30.5
L 15.7 30.45
Q 15.7 30.4 15.7 30.35
L 15.65 30.3 15.65 30.25
Q 15.65 30.2 15.6 30.15
L 15.55 30.1
Q 15.5 30.05 15.5 30 15.5 29.95 15.45 29.95 15.45 29.9 15.45 29.85
L 15.45 29.8
Q 15.45 29.75 15.45 29.7
L 15.45 29.65
Q 15.45 29.6 15.45 29.55
L 15.45 29.5
Q 15.45 29.45 15.45 29.4
L 15.45 29.3
Q 15.45 29.25 15.45 29.2
L 15.45 29.15
Q 15.4 29.1 15.4 29.05
L 15.4 29
Q 15.4 28.95 15.45 28.9
L 15.45 28.85
Q 15.45 28.8 15.45 28.75
L 15.5 28.7
Q 15.5 28.65 15.55 28.6
L 15.55 28.55
Q 15.55 28.5 15.55 28.45
L 15.55 28.4
Q 15.6 28.35 15.6 28.3
L 15.65 28.25 15.65 28.2
Q 15.7 28.15 15.7 28.1 15.75 28.05 15.8 27.95
L 15.85 27.9
Q 15.85 27.85 15.9 27.8
L 15.9 27.75
Q 15.95 27.7 15.95 27.65
L 15.95 27.6
Q 16 27.55 16 27.5
L 16.05 27.45
Q 16.05 27.4 16.1 27.35
L 16.15 27.3
Q 16.15 27.25 16.2 27.2
L 16.2 27.15
Q 16.2 27.1 16.25 27.1 16.25 27.05 16.3 27
L 16.3 26.95
Q 16.35 26.9 16.35 26.85
L 16.4 26.8
Q 16.45 26.75 16.5 26.7 16.55 26.7 16.6 26.65 16.65 26.6 16.7 26.55 16.8 26.5 16.95 26.4 17.05 26.35 17.1 26.25 17.2 26.15 17.35 26.05 17.45 25.95 17.55 25.85 17.6 25.8 17.65 25.75
L 17.75 25.7
Q 17.8 25.65 17.8 25.6 17.85 25.6 17.85 25.55 17.9 25.5 17.95 25.45 18 25.4 18.05 25.3 18.15 25.25 18.2 25.15 18.25 25.15 18.3 25.1 18.4 25.05 18.5 25
L 18.55 25 17.5 24.5 17.2 24.5
Q 17.2 24.55 17.15 24.6 17.1 24.65 17.05 24.75 17 24.75 17 24.8 16.95 24.85 16.95 24.9 16.9 24.9 16.85 24.95 16.8 25 16.75 25.05 16.7 25.05 16.65 25.1 16.6 25.15 16.55 25.15 16.5 25.25 16.4 25.3 16.35 25.35 16.3 25.4 16.2 25.45 16.15 25.45 16.15 25.5 16.1 25.55 16 25.6 15.9 25.6 15.85 25.65 15.8 25.7 15.75 25.7 15.7 25.75 15.65 25.8 15.65 25.85 15.6 25.85 15.55 25.9 15.55 25.95 15.5 26
L 15.45 26.05
Q 15.45 26.1 15.4 26.15
L 15.4 26.2
Q 15.35 26.25 15.3 26.3
L 15.25 26.35 15.25 26.4
Q 15.2 26.45 15.2 26.5
L 15.15 26.55
Q 15.1 26.6 15.1 26.65
L 15.05 26.7
Q 15 26.75 15 26.8
L 14.95 26.85
Q 14.95 26.95 14.9 27 14.9 26.9 14.85 26.8 14.85 26.75 14.85 26.7 14.8 26.7 14.8 26.65 14.75 26.6 14.75 26.55 14.7 26.55 14.65 26.5 14.6 26.45 14.55 26.4 14.4 26.4 14.3 26.35 14.2 26.4 14.1 26.4 14.05 26.45 13.95 26.5
L 13.9 26.5
Q 13.85 26.5 13.8 26.45
L 13.75 26.4
Q 13.7 26.35 13.65 26.3 13.55 26.3 13.5 26.25 13.45 26.25 13.35 26.25 13.3 26.25 13.25 26.25 13.2 26.25 13.1 26.25 13.05 26.3 13 26.35 12.95 26.35 12.85 26.4
L 12.8 26.45
Q 12.75 26.45 12.7 26.4 12.65 26.4 12.6 26.35 12.5 26.35 12.35 26.35 12.25 26.35 12.1 26.35 11.95 26.4 11.85 26.45 11.7 26.45 11.55 26.45 11.45 26.45 11.3 26.45 11.25 26.45 11.15 26.5 11.1 26.55 11.05 26.55 11 26.6 11 26.65 10.95 26.7 10.9 26.7 10.9 26.75 10.9 26.8
L 10.85 26.8
Q 10.8 26.85 10.75 26.85 10.65 26.8 10.6 26.8 10.5 26.8 10.45 26.85 10.4 26.85 10.3 26.9 10.25 26.9 10.2 26.95 10.15 27 10.1 27.05
L 10.05 27.1
Q 10.05 27.15 10 27.2
L 10 27.25 9.95 27.3
Q 9.95 27.35 9.95 27.4 9.9 27.45 9.9 27.5
L 8.25 26
Q 7.75 26.4 7.3 27 2.85 37.35 7.3 49.6
L 38.7 70.4
Q 46.4 75.65 57.2 75.5
L 93.2 75.5
Q 96.9 64.2 93.2 52.9
L 91.2 52.9 91.2 52.85
Q 91.15 52.75 91.15 52.7 91.1 52.65 91.1 52.6 91.05 52.55 91 52.5 90.9 52.4 90.85 52.35 90.8 52.3 90.8 52.25 90.75 52.2 90.7 52.2 90.7 52.15 90.65 52.1 90.65 52.05 90.6 52.05 90.45 51.95 90.35 51.9 90.25 51.8 90.2 51.75 90.05 51.6 89.95 51.55 89.85 51.5 89.8 51.45 89.75 51.4 89.7 51.3 89.6 51.25 89.5 51.15 89.35 51.05 89.2 50.95 89.1 50.8 89 50.65 88.85 50.4 88.7 50.15 88.6 49.95 88.5 49.85 88.4 49.8 88.3 49.7 88.25 49.7 88.2 49.7 88.15 49.7 88.05 49.65 88 49.7 87.9 49.7 87.85 49.7 87.8 49.7 87.75 49.7 87.7 49.7 87.7 49.65 87.7 49.6 87.75 49.6 87.75 49.55 87.75 49.5 87.8 49.45
L 87.8 49.4
Q 87.8 49.35 87.85 49.3
L 87.85 49.25
Q 87.85 49.2 87.9 49.2 87.9 49.15 87.9 49.1
L 87.9 49.05
Q 87.9 49 87.9 48.95
L 87.9 48.9
Q 87.9 48.85 87.95 48.8
L 87.95 48.75
Q 87.95 48.7 88 48.65
L 88 48.6
Q 88 48.5 88 48.45 88 48.35 88 48.3 88 48.2 88 48.1 88 47.95 88 47.8 88 47.7 88 47.65 87.95 47.6 87.95 47.55
L 87.9 47.5
Q 87.85 47.45 87.85 47.4 87.8 47.4 87.75 47.35 87.7 47.3 87.65 47.25 87.55 47.25 87.5 47.2 87.4 47.2 87.35 47.2 87.25 47.2 87.2 47.25 87.15 47.25 87.1 47.25 87.05 47.25 86.95 47.3 86.9 47.35 86.85 47.35 86.8 47.4 86.75 47.45
L 86.7 47.5
Q 86.65 47.55 86.65 47.6 86.6 47.65 86.55 47.7
L 86.55 47.75
Q 86.5 47.75 86.45 47.75 86.35 47.7 86.3 47.7 86.2 47.7 86.15 47.75 86.1 47.75 86 47.8 85.95 47.8 85.9 47.85 85.85 47.9 85.85 47.95 85.8 47.95 85.75 48 85.7 47.95 85.7 47.9
L 85.7 47.85
Q 85.65 47.8 85.65 47.75 85.65 47.7 85.6 47.6 85.6 47.55 85.55 47.45
L 85.5 47.4
Q 85.5 47.35 85.5 47.3 85.45 47.3 85.45 47.25 85.45 47.2 85.4 47.2 85.4 47.15 85.4 47.1
L 85.4 47.05
Q 85.35 47 85.35 46.95
L 85.3 46.9
Q 85.25 46.85 85.2 46.8 85.15 46.75 85.1 46.75 85.05 46.7 85.05 46.65
L 85 46.6
Q 85 46.55 85 46.5 84.95 46.5 84.95 46.45 84.9 46.4 84.9 46.35 84.85 46.35 84.85 46.3 84.75 46.25 84.7 46.25 84.65 46.2 84.6 46.15 84.55 46.15 84.5 46.15 84.5 46.1 84.45 46.05 84.45 46 84.4 46 84.4 45.95 84.4 45.9 84.4 45.85 84.35 45.85 84.3 45.75 84.25 45.7 84.15 45.6 84 45.45
M 23.8 42.6
L 26.05 44.1
Q 26.1701171875 44.19296875 26.2 44.3 26.2900390625 44.405859375 26.3 44.5
L 26.65 53.45 30.55 56.05
Q 30.6705078125 56.14375 30.7 56.25 30.7896484375 56.35546875 30.8 56.45
L 30.9 58.8
Q 30.903125 59.0216796875 30.75 59.15 30.6583984375 59.3224609375 30.45 59.35 30.285546875 59.3798828125 30.1 59.25
L 23.7 55
Q 23.6294921875 54.9564453125 23.55 54.85 23.51015625 54.7451171875 23.5 54.6
L 23.05 43.05
Q 23.0474609375 42.87890625 23.15 42.7 23.291796875 42.5775390625 23.45 42.55 23.6640625 42.5203125 23.8 42.6 Z"/>

<path fill="#FFFFFF" stroke="none" d="
M 26.05 44.1
L 23.8 42.6
Q 23.6640625 42.5203125 23.45 42.55 23.291796875 42.5775390625 23.15 42.7 23.0474609375 42.87890625 23.05 43.05
L 23.5 54.6
Q 23.51015625 54.7451171875 23.55 54.85 23.6294921875 54.9564453125 23.7 55
L 30.1 59.25
Q 30.285546875 59.3798828125 30.45 59.35 30.6583984375 59.3224609375 30.75 59.15 30.903125 59.0216796875 30.9 58.8
L 30.8 56.45
Q 30.7896484375 56.35546875 30.7 56.25 30.6705078125 56.14375 30.55 56.05
L 26.65 53.45 26.3 44.5
Q 26.2900390625 44.405859375 26.2 44.3 26.1701171875 44.19296875 26.05 44.1 Z"/>
</g>
</g>

<g>
<path stroke="#757575" stroke-width="5" stroke-linejoin="round" stroke-linecap="round" fill="none" d="
M 93.2 52.9
Q 96.9 64.2 93.2 75.5
L 57.2 75.5
Q 46.4 75.65 38.7 70.4
L 7.3 49.6
Q 2.85 37.35 7.3 27 7.75 26.4 8.25 26 9.8 24.7 11.95 24.5
L 17.2 24.5
M 17.5 24.5
L 18.55 25 34.05 31.95
Q 41.35 33.9 48.6 32.25 55.9 30.6 65.65 33.65
L 89.05 47.9
Q 91.9 50.1 93.2 52.9"/>
</g>

<g>
<path stroke="#FFFFFF" stroke-width="4" stroke-linejoin="round" stroke-linecap="round" fill="none" d="
M 82.25 52.9
L 81.15 52.9 57.2 52.9
Q 46.4 53.05 38.7 47.8
L 14.95 32.1"/>
</g>
</g>
</g>
</svg>
