<?xml version="1.0" encoding="UTF-8"?>
<svg preserveAspectRatio="none" version="1.1" viewBox="0 0 100 100" xmlns="http://www.w3.org/2000/svg">
<path d="m14.639 23.71 19.37 8.2401c5.3579 1.5418 11.039 1.2306 16.413-0.03906 5.1481-0.67562 10.439 0.17318 15.313 1.8302 5.7943 4.1645 14.751 10.042 20.561 14.181l-3.0469 5.5094-29.067-0.59585c-5.9399-0.26059-11.723-2.2786-16.591-5.6791l-26.715-16.11" fill="#a2a2a2"/>
<path d="m38.659 47.801 18.5 5.0996 25.662-1.6855c1.0012-0.95732 1.4795-1.8548 0.71875-4.2617l9.6191 5.9473v22.6h-36c-7.2 0.1-13.367-1.5996-18.5-5.0996l-31.4-20.801c-2.9667-8.1666 0-22.6 0-22.6l9.1563-0.19922c-0.3125 0.40625-1.4684 2.1453-0.84961 3.7578" fill="#c8c8c8"/>
<path d="m8.2092 26c2.5002-2.2045 5.9372-1.3156 8.95-1.5m-8.95 1.5c-2.7816 3.3816-3.0701 8.2792-3.1663 12.533 0.4036 3.8349 0.45861 8.5775 2.9515 11.554 10.89 7.1643 21.691 14.469 32.638 21.541 6.3103 3.7675 13.793 4.0406 20.936 3.8719h31.591c2.4781-7.4922 2.5716-15.922-0.34922-23.291-2.394-4.4768-7.359-6.1913-11.333-8.8963l-15.868-9.6631c-6.2075-2.0613-12.95-2.6483-19.317-0.97227-5.3772 0.77843-11.077 0.26878-15.904-2.3514-4.3061-1.9494-8.6413-3.8369-12.929-5.8263" fill="none" stroke="#757575" stroke-linecap="round" stroke-linejoin="round" stroke-width="5"/>
<path d="m14.909 32.1 23.75 15.7q7.7 5.25 18.5 5.1h25.05" fill="none" stroke="#fff" stroke-linecap="round" stroke-linejoin="round" stroke-width="4"/>
<path d="m26.05 44.1-2.25-1.5q-0.13594-0.079688-0.35-0.05-0.1582 0.027539-0.3 0.15-0.10254 0.17891-0.1 0.35l0.45 11.55q0.010156 0.14512 0.05 0.25 0.079492 0.10645 0.15 0.15l6.4 4.25q0.18555 0.12988 0.35 0.1 0.2084-0.027539 0.3-0.2 0.15312-0.12832 0.15-0.35l-0.1-2.35q-0.010352-0.094531-0.1-0.2-0.029492-0.10625-0.15-0.2l-3.9-2.6-0.35-8.95q-0.0099609-0.094141-0.1-0.2-0.029883-0.10703-0.15-0.2z" fill="#fff"/>
</svg>
