<svg width="100px" height="100px" preserveAspectRatio="none" version="1.1" viewBox="0 0 100 100" xmlns="http://www.w3.org/2000/svg">
 <g>
  <g fill-rule="evenodd">
   <circle cx="50" cy="50" r="48.15" fill="#4b4b4b"/>
   <circle cx="50" cy="50" r="43.2" fill="#d6d6d6"/>
   <circle cx="50" cy="50" r="41" fill="#353535"/>
   <circle cx="50" cy="50" r="35" fill="#202020"/>
   <circle cx="50.025" cy="50.025" r="30" fill="#353535"/>
   <circle cx="50" cy="50" r="23.75" fill="#4b4b4b"/>
  </g>
  <path d="m59.35 41.5c-0.5-0.96667-1.1833-1.7333-2.05-2.3-0.83333-0.56667-1.8167-0.96667-2.95-1.2-1.1333-0.26667-2.3333-0.4-3.6-0.4h-9.55v24.8h5.45v-9.9h2.65l5.2 9.9h6.55l-6.3-10.5c1.7333-0.3 3.0667-1.0667 4-2.3 0.9-1.2333 1.35-2.7167 1.35-4.45 0-1.4667-0.25-2.6833-0.75-3.65m-9.5 6.35h-3.2v-5.6h3.55c0.5 0 1 0.03333 1.5 0.1s0.95 0.2 1.35 0.4 0.73333 0.48333 1 0.85c0.23333 0.36667 0.35 0.86667 0.35 1.5 0 0.7-0.13333 1.2333-0.4 1.6-0.3 0.36667-0.66667 0.63333-1.1 0.8-0.46667 0.16667-0.96667 0.26667-1.5 0.3-0.53333 0.03333-1.05 0.05-1.55 0.05z" fill="#d6d6d6"/>
 </g>
</svg>
