<?xml version="1.0" encoding="UTF-8"?>
<svg preserveAspectRatio="none" version="1.1" viewBox="0 0 100 100" xmlns="http://www.w3.org/2000/svg">
<path d="m85.42 23.71-19.37 8.2401c-5.3579 1.5418-11.039 1.2306-16.413-0.039062-5.1481-0.67562-10.439 0.17318-15.313 1.8302-5.7943 4.1645-14.751 10.042-20.561 14.181l3.0469 5.5094 29.067-0.59585c5.9399-0.26059 11.723-2.2786 16.591-5.6791l26.715-16.11" fill="#a2a2a2"/>
<path d="m61.4 47.801-18.5 5.0996-25.662-1.6855c-1.0012-0.95732-1.4795-1.8548-0.71875-4.2617l-9.6191 5.9473v22.6h36c7.2 0.1 13.367-1.5996 18.5-5.0996l31.4-20.801c2.9667-8.1666 0-22.6 0-22.6l-9.1562-0.19922c0.3125 0.40625 1.4684 2.1453 0.84961 3.7578" fill="#c8c8c8"/>
<path d="m75.45 45.55q-0.25-0.55-0.8-0.65-0.5-0.15-1.2 0.1-0.65 0.2-1.4 0.6l-3.7 2.2 0.45 12.2 2.1-1.25-0.2-4.9 1.05-0.6 2.25 3.7 2.55-1.5-2.7-3.7q1.05-0.85 1.55-2.05 0.5-1.25 0.45-2.55-0.05-1.05-0.4-1.6m-3.5 2.45q0.3-0.2 0.6-0.3 0.3-0.15 0.5-0.05 0.25-0.05 0.4 0.15 0.15 0.15 0.2 0.65 0 0.5-0.15 0.85-0.2 0.4-0.45 0.65-0.2 0.35-0.55 0.5-0.3 0.25-0.6 0.4l-1.25 0.75-0.1-2.8z" fill="#fff"/>
<path d="m91.85 26c-2.5002-2.2045-5.9372-1.3156-8.95-1.5m8.95 1.5c2.7816 3.3816 3.0701 8.2792 3.1663 12.533-0.4036 3.8349-0.45861 8.5775-2.9515 11.554-10.89 7.1643-21.691 14.469-32.638 21.541-6.3103 3.7675-13.793 4.0406-20.936 3.8719h-31.591c-2.4781-7.4922-2.5716-15.922 0.34922-23.291 2.394-4.4768 7.359-6.1913 11.333-8.8963l15.868-9.6631c6.2075-2.0613 12.95-2.6483 19.317-0.97227 5.3772 0.77843 11.077 0.26878 15.904-2.3514 4.3061-1.9494 8.6413-3.8369 12.929-5.8263" fill="none" stroke="#757575" stroke-linecap="round" stroke-linejoin="round" stroke-width="5"/>
<path d="m85.15 32.1-23.75 15.7q-7.7 5.25-18.5 5.1h-25.05" fill="none" stroke="#fff" stroke-linecap="round" stroke-linejoin="round" stroke-width="4"/>
</svg>
