<?xml version="1.0" encoding="UTF-8"?>
<svg preserveAspectRatio="none" version="1.1" viewBox="0 0 100 100" xmlns="http://www.w3.org/2000/svg">
<g fill-rule="evenodd">
<ellipse cx="50" cy="50" rx="46.5" ry="29.2" fill="#202020"/>
<ellipse cx="50" cy="50" rx="41.5" ry="24.2" fill="#353535"/>
<ellipse cx="50" cy="50" rx="39.5" ry="22.2" fill="#616161"/>
<ellipse cx="50" cy="50" rx="35.5" ry="18.2" fill="#535353"/>
</g>
<path d="m29.9 43.8q-0.85 0-1.7 0.25-0.8 0.25-1.45 0.75t-1 1.2q-0.4 0.75-0.4 1.7 0 1 0.4 1.6 0.45 0.6 1.05 1 0.65 0.35 1.35 0.55 0.75 0.25 1.35 0.45 0.65 0.2 1.05 0.55 0.4 0.3 0.4 0.85 0 0.3-0.15 0.55t-0.4 0.35q-0.3 0.2-0.6 0.25-0.35 0.1-0.65 0.1-0.65 0-1.3-0.3-0.6-0.3-1-0.85l-1.85 2.05q0.85 0.8 1.85 1.15t2.15 0.35q0.9 0 1.75-0.25 0.85-0.2 1.45-0.7 0.65-0.5 1-1.25 0.4-0.7 0.4-1.7 0-1.05-0.4-1.7-0.4-0.6-1.05-1-0.6-0.35-1.3-0.55t-1.35-0.4q-0.6-0.2-1-0.5t-0.4-0.8q0-0.35 0.15-0.6 0.2-0.25 0.45-0.4 0.25-0.1 0.55-0.2 0.3-0.05 0.6-0.05 0.5 0 1.05 0.2t0.85 0.6l1.8-2q-0.75-0.65-1.7-0.95t-1.95-0.3m35.8 0.3v2.35h3.4v9.6h2.65v-9.6h3.4v-2.35h-9.45m-0.75 1.9q-0.35-0.7-0.95-1.1-0.65-0.4-1.45-0.6t-1.7-0.2h-4.65v11.95h2.65v-4.75h1.3l2.5 4.75h3.15l-3.05-5.05q1.25-0.2 1.9-1.1t0.65-2.15q0-1.05-0.35-1.75m-6.1 3.05v-2.7h1.7q0.35 0 0.75 0.05 0.35 0.05 0.65 0.2 0.25 0.15 0.45 0.4t0.2 0.75q0 0.45-0.2 0.75-0.25 0.25-0.55 0.4-0.3 0.1-0.7 0.15-0.4 0-0.75 0h-1.55m-9.05-4.95h-2.15l-5.15 11.95h2.9l0.95-2.55h4.65l1.05 2.55h2.95l-5.2-11.95m0.3 7.2h-2.9l1.45-3.7 1.45 3.7m-6.2-4.85v-2.35h-9.45v2.35h3.4v9.6h2.65v-9.6z" fill="#d6d6d6"/>
</svg>
