<svg width="100px" height="100px" preserveAspectRatio="none" version="1.1" viewBox="0 0 100 100" xmlns="http://www.w3.org/2000/svg">
 <g>
  <path d="m61.75 69.4v-3.6h-12.05v17.7h12.45v-3.6h-8.55v-3.6h7.7v-3.6h-7.7v-3.3h8.15m8.35-3.4q-1.75 0.65-3.05 1.85-1.25 1.2-2 2.95-0.7 1.75-0.7 3.85t0.7 3.85q0.75 1.75 2 2.95 1.3 1.2 3.05 1.85t3.8 0.65q1.85 0 3.55-0.75 1.75-0.75 2.85-2.3l-3.25-2.45q-0.6 0.9-1.5 1.4-0.95 0.5-2.15 0.5-1.05 0-1.95-0.45-0.9-0.4-1.6-1.15-0.65-0.8-1.05-1.8-0.4-1.05-0.4-2.3 0-1.2 0.4-2.25t1.05-1.85q0.7-0.75 1.65-1.15 0.95-0.45 2.05-0.45t1.95 0.4q0.8 0.35 1.4 1.05l3-2.45q-0.6-0.7-1.3-1.2-0.75-0.5-1.55-0.85-0.75-0.25-1.55-0.4-0.85-0.15-1.6-0.15-2.05 0-3.8 0.65m-60.65-0.3q-1.2 0.35-2.15 1.1-0.95 0.7-1.5 1.8-0.55 1.05-0.55 2.5t0.6 2.4q0.65 0.85 1.55 1.45 0.95 0.55 2 0.85 1.1 0.35 2 0.65 0.95 0.3 1.55 0.8 0.6 0.45 0.6 1.25 0 0.45-0.2 0.85-0.25 0.35-0.65 0.55-0.4 0.25-0.85 0.35-0.5 0.1-1 0.1-0.95 0-1.9-0.45-0.9-0.45-1.5-1.2l-2.75 3.05q1.25 1.15 2.75 1.7 1.45 0.5 3.2 0.5 1.35 0 2.6-0.35t2.15-1.1q0.95-0.7 1.5-1.8t0.55-2.55q0-1.55-0.6-2.5t-1.5-1.5-1.95-0.85q-1.05-0.25-2-0.6-0.9-0.25-1.5-0.7t-0.6-1.2q0-0.5 0.25-0.85 0.25-0.4 0.65-0.6t0.85-0.3 0.9-0.1q0.7 0 1.5 0.3 0.85 0.25 1.3 0.85l2.7-2.9q-1.15-1-2.55-1.4-1.4-0.45-2.9-0.45-1.3 0-2.55 0.35m30.7 0.1h-3.9v17.7h11.1v-3.6h-7.2v-14.1m-8.05 6.9h-7.7v-3.3h8.15v-3.6h-12.05v17.7h12.45v-3.6h-8.55v-3.6h7.7v-3.6m53.75-3.45v14.25h3.9v-14.25h5.05v-3.45h-14v3.45h5.05z" fill="#1B1B1B"/>
  <path d="m87.35 54.25v-33.55h-74.7v33.55h74.7m-7.5-26.05v18.55h-59.7v-18.55h59.7z" fill="#313131"/>
  <path d="m79 45.9v-16.85h-58v16.85h58z" fill="#4F4F4F"/>
 </g>
 <path d="m87.35 20.7v33.55h-74.7v-33.55h74.7z" fill="none" stroke="#1B1B1B" stroke-linecap="round" stroke-linejoin="round" stroke-width="5"/>
 <path d="m79 29.05v16.85h-58v-16.85h58z" fill="none" stroke="#626262" stroke-linecap="round" stroke-linejoin="round" stroke-width="4"/>
</svg>
