<svg width="100px" height="100px" preserveAspectRatio="none" version="1.1" viewBox="0 0 100 100" xmlns="http://www.w3.org/2000/svg">
 <g>
  <path d="m33.95 91.75 3.4 3.35h25.3l3.4-3.35-1.2-19.95-9.4-12.4h-10.9l-9.4 12.4-1.2 19.95m7.9-17.85 6.25-7.8h1.25 1.3 1.25l6.25 7.8 0.9 14.5h-18.1l0.9-14.5m24.2-65.65-3.4-3.35h-25.3l-3.4 3.35 1.2 19.95 9.4 12.4h10.9l9.4-12.4 1.2-19.95m-25.1 3.35h18.1l-0.9 14.5-6.25 7.8h-1.25-1.3-1.25l-6.25-7.8-0.9-14.5m54.15 25.75-3.35-3.4-19.95 1.2-12.4 9.4v10.9l12.4 9.4 19.95 1.2 3.35-3.4v-25.3m-6.7 3.6v18.1l-14.5-0.9-7.8-6.25v-1.25-1.3-1.25l7.8-6.25 14.5-0.9z" fill="#313131"/>
  <path d="m48.1 66.1-6.25 7.8-0.9 14.5h18.1l-0.9-14.5-6.25-7.8h-1.25-1.3-1.25m10.95-54.5h-18.1l0.9 14.5 6.25 7.8h1.25 1.3 1.25l6.25-7.8 0.9-14.5m29.35 47.45v-18.1l-14.5 0.9-7.8 6.25v1.25 1.3 1.25l7.8 6.25 14.5 0.9z" fill="#4F4F4F"/>
  <path d="m8.25 33.95-3.35 3.4v25.3l3.35 3.4 19.95-1.2 12.4-9.4v-10.9l-12.4-9.4-19.95-1.2m25.65 14.15v1.25 1.3 1.25l-7.8 6.25-14.5 0.9v-18.1l14.5 0.9 7.8 6.25z" fill="#D7D7D7"/>
  <path d="m33.9 49.35v-1.25l-7.8-6.25-14.5-0.9v18.1l14.5-0.9 7.8-6.25v-1.25-1.3z" fill="#F5F5F5"/>
 </g>
 <path d="m95.1 37.35-3.35-3.4-19.95 1.2-12.4 9.4v10.9l12.4 9.4 19.95 1.2 3.35-3.4v-25.3zm-32.45-32.45 3.4 3.35-1.2 19.95-9.4 12.4h-10.9l-9.4-12.4-1.2-19.95 3.4-3.35h25.3zm-27.5 66.9-1.2 19.95 3.4 3.35h25.3l3.4-3.35-1.2-19.95-9.4-12.4h-10.9l-9.4 12.4z" fill="none" stroke="#202020" stroke-linecap="round" stroke-linejoin="round" stroke-width="4"/>
 <path d="m66.1 49.35v-1.25l7.8-6.25 14.5-0.9v18.1l-14.5-0.9-7.8-6.25v-1.25m-15.45-16.75h1.25l6.25-7.8 0.9-14.5h-18.1l0.9 14.5 6.25 7.8h1.25m1.3 32.2h1.25l6.25 7.8 0.9 14.5h-18.1l0.9-14.5 6.25-7.8h1.25" fill="none" stroke="#626262" stroke-linecap="round" stroke-linejoin="round" stroke-width="4"/>
 <path d="m4.9 37.35 3.35-3.4 19.95 1.2 12.4 9.4v10.9l-12.4 9.4-19.95 1.2-3.35-3.4v-25.3z" fill="none" stroke="#404040" stroke-linecap="round" stroke-linejoin="round" stroke-width="4"/>
 <path d="m33.9 49.35v-1.25l-7.8-6.25-14.5-0.9v18.1l14.5-0.9 7.8-6.25v-1.25" fill="none" stroke="#fff" stroke-linecap="round" stroke-linejoin="round" stroke-width="4"/>
</svg>
