<?xml version="1.0" encoding="UTF-8"?>
<svg preserveAspectRatio="none" version="1.1" viewBox="0 0 100 100" xmlns="http://www.w3.org/2000/svg">
<path d="m33.95 91.75 3.4 3.35h25.3l3.4-3.35-1.2-19.95-9.4-12.4h-10.9l-9.4 12.4-1.2 19.95m14.15-25.65h3.8l6.25 7.8 0.9 14.5h-18.1l0.9-14.5 6.25-7.8m-39.85-32.15-3.35 3.4v25.3l3.35 3.4 19.95-1.2 12.4-9.4v-10.9l-12.4-9.4-19.95-1.2m25.65 14.15v3.8l-7.8 6.25-14.5 0.9v-18.1l14.5 0.9 7.8 6.25m32.15-39.85-3.4-3.35h-25.3l-3.4 3.35 1.2 19.95 9.4 12.4h10.9l9.4-12.4 1.2-19.95m-25.1 3.35h18.1l-0.9 14.5-6.25 7.8h-3.8l-6.25-7.8-0.9-14.5z" fill="#313131"/>
<path d="m49.35 66.1h-1.25l-6.25 7.8-0.9 14.5h18.1l-0.9-14.5-6.25-7.8h-2.55m-15.45-16.75v-1.25l-7.8-6.25-14.5-0.9v18.1l14.5-0.9 7.8-6.25v-2.55m25.15-37.75h-18.1l0.9 14.5 6.25 7.8h3.8l6.25-7.8 0.9-14.5z" fill="#4F4F4F"/>
<path d="m95.1 37.35-3.35-3.4-19.95 1.2-12.4 9.4v10.9l12.4 9.4 19.95 1.2 3.35-3.4v-25.3m-6.7 3.6v18.1l-14.5-0.9-7.8-6.25v-3.8l7.8-6.25 14.5-0.9z" fill="#D7D7D7"/>
<path d="m88.4 59.05v-18.1l-14.5 0.9-7.8 6.25v3.8l7.8 6.25 14.5 0.9z" fill="#F5F5F5"/>
<path d="m66.05 8.25-3.4-3.35h-25.3l-3.4 3.35 1.2 19.95 9.4 12.4h10.9l9.4-12.4 1.2-19.95zm-37.85 26.9-19.95-1.2-3.35 3.4v25.3l3.35 3.4 19.95-1.2 12.4-9.4v-10.9l-12.4-9.4zm5.75 56.6 1.2-19.95 9.4-12.4h10.9l9.4 12.4 1.2 19.95-3.4 3.35h-25.3l-3.4-3.35z" fill="none" stroke="#202020" stroke-linecap="round" stroke-linejoin="round" stroke-width="4"/>
<path d="m49.35 33.9h-1.25l-6.25-7.8-0.9-14.5h18.1l-0.9 14.5-6.25 7.8h-1.25m-16.75 16.75v1.25l-7.8 6.25-14.5 0.9v-18.1l14.5 0.9 7.8 6.25v1.25m15.45 16.75h-1.25l-6.25 7.8-0.9 14.5h18.1l-0.9-14.5-6.25-7.8h-1.25" fill="none" stroke="#626262" stroke-linecap="round" stroke-linejoin="round" stroke-width="4"/>
<path d="m91.75 33.95 3.35 3.4v25.3l-3.35 3.4-19.95-1.2-12.4-9.4v-10.9l12.4-9.4 19.95-1.2z" fill="none" stroke="#404040" stroke-linecap="round" stroke-linejoin="round" stroke-width="4"/>
<path d="m66.1 50.65v1.25l7.8 6.25 14.5 0.9v-18.1l-14.5 0.9-7.8 6.25v1.25" fill="none" stroke="#fff" stroke-linecap="round" stroke-linejoin="round" stroke-width="4"/>
</svg>
