<?xml version="1.0" encoding="UTF-8"?>
<svg preserveAspectRatio="none" version="1.1" viewBox="0 0 100 100" xmlns="http://www.w3.org/2000/svg">
<path d="m79.85 20.15q-12.35-12.35-29.85-12.35t-29.85 12.35-12.35 29.85 12.35 29.85 29.85 12.35 29.85-12.35 12.35-29.85-12.35-29.85m-29.85-4.2q14.2 0 24.1 10 10 9.95 10 24.05 0 14.2-10 24.1-9.9 10-24.1 10-14.1 0-24.05-10-10-9.9-10-24.1 0-14.1 10-24.05 9.95-10 24.05-10z" fill="#272727"/>
<circle cx="50.025" cy="50.025" r="34.075" fill="#3f3f3f" stroke-width="2" style="paint-order:markers fill stroke"/>
<path d="m67.65 32.4c-4.8667-4.9-10.75-7.35-17.65-7.35s-12.767 2.45-17.6 7.35c-4.9 4.8333-7.35 10.7-7.35 17.6s2.45 12.783 7.35 17.65c4.8333 4.8667 10.7 7.3 17.6 7.3s12.783-2.4333 17.65-7.3 7.3-10.75 7.3-17.65-2.4333-12.767-7.3-17.6" fill="#555"/>
<path d="m49 37.7h-5.45v24.8h15.55v-5.05h-10.1v-19.75z" fill="#8C8C8C"/>
<path d="m50 15.95q14.2 0 24.1 10 10 9.95 10 24.05 0 14.2-10 24.1-9.9 10-24.1 10-14.1 0-24.05-10-10-9.9-10-24.1 0-14.1 10-24.05 9.95-10 24.05-10zm0-8.15q17.5 0 29.85 12.35t12.35 29.85-12.35 29.85-29.85 12.35-29.85-12.35-12.35-29.85 12.35-29.85 29.85-12.35z" fill="none" stroke="#151515" stroke-linecap="round" stroke-linejoin="round" stroke-width="4"/>
</svg>
