<?xml version="1.0" encoding="UTF-8" standalone="no"?>
<svg
   version="1.1"
   preserveAspectRatio="none"
   x="0px"
   y="0px"
   width="100px"
   height="100px"
   viewBox="0 0 100 100"
   id="svg7"
   sodipodi:docname="PS4_Left_Stick.svg"
   inkscape:version="1.3 (0e150ed6c4, 2023-07-21)"
   xmlns:inkscape="http://www.inkscape.org/namespaces/inkscape"
   xmlns:sodipodi="http://sodipodi.sourceforge.net/DTD/sodipodi-0.dtd"
   xmlns="http://www.w3.org/2000/svg"
   xmlns:svg="http://www.w3.org/2000/svg">
  <sodipodi:namedview
     id="namedview7"
     pagecolor="#ffffff"
     bordercolor="#666666"
     borderopacity="1.0"
     inkscape:showpageshadow="2"
     inkscape:pageopacity="0.0"
     inkscape:pagecheckerboard="0"
     inkscape:deskcolor="#d1d1d1"
     showguides="true"
     inkscape:zoom="8.61"
     inkscape:cx="48.25784"
     inkscape:cy="48.606272"
     inkscape:window-width="1920"
     inkscape:window-height="1057"
     inkscape:window-x="-8"
     inkscape:window-y="-8"
     inkscape:window-maximized="1"
     inkscape:current-layer="g4">
    <sodipodi:guide
       position="25.05,50"
       orientation="0,-1"
       id="guide7"
       inkscape:locked="false" />
    <sodipodi:guide
       position="50,74.95"
       orientation="1,0"
       id="guide8"
       inkscape:locked="false" />
  </sodipodi:namedview>
  <defs
     id="defs1" />
  <g
     id="Playstation_3">
    <g
       id="g7">
      <g
         id="g5">
        <g
           id="g4">
          <path
             fill="#272727"
             stroke="none"
             d=" M 79.85 20.15 Q 67.5 7.8 50 7.8 32.5 7.8 20.15 20.15 7.8 32.5 7.8 50 7.8 67.5 20.15 79.85 32.5 92.2 50 92.2 67.5 92.2 79.85 79.85 92.2 67.5 92.2 50 92.2 32.5 79.85 20.15 M 50 15.95 Q 64.2 15.95 74.1 25.95 84.1 35.9 84.1 50 84.1 64.2 74.1 74.1 64.2 84.1 50 84.1 35.9 84.1 25.95 74.1 15.95 64.2 15.95 50 15.95 35.9 25.95 25.95 35.9 15.95 50 15.95 Z"
             id="path1" />
          <circle
             style="opacity:1;fill:#3f3f3f;stroke-width:2;paint-order:markers fill stroke;fill-opacity:1"
             id="path8"
             cx="50.025002"
             cy="50.025002"
             r="34.075001" />
          <path
             fill="#555555"
             stroke="none"
             d="M 67.65,32.4 C 62.783333,27.5 56.9,25.05 50,25.05 c -6.9,0 -12.766667,2.45 -17.6,7.35 -4.9,4.833333 -7.35,10.7 -7.35,17.6 0,6.9 2.45,12.783333 7.35,17.65 4.833333,4.866667 10.7,7.3 17.6,7.3 6.9,0 12.783333,-2.433333 17.65,-7.3 4.866667,-4.866667 7.3,-10.75 7.3,-17.65 0,-6.9 -2.433333,-12.766667 -7.3,-17.6"
             id="path3"
             sodipodi:nodetypes="cscscsssc" />
          <path
             fill="#8C8C8C"
             stroke="none"
             d=" M 49 37.7 L 43.55 37.7 43.55 62.5 59.1 62.5 59.1 57.45 49 57.45 49 37.7 Z"
             id="path4" />
        </g>
      </g>
      <g
         id="g6">
        <path
           stroke="#151515"
           stroke-width="4"
           stroke-linejoin="round"
           stroke-linecap="round"
           fill="none"
           d=" M 50 15.95 Q 64.2 15.95 74.1 25.95 84.1 35.9 84.1 50 84.1 64.2 74.1 74.1 64.2 84.1 50 84.1 35.9 84.1 25.95 74.1 15.95 64.2 15.95 50 15.95 35.9 25.95 25.95 35.9 15.95 50 15.95 Z M 50 7.8 Q 67.5 7.8 79.85 20.15 92.2 32.5 92.2 50 92.2 67.5 79.85 79.85 67.5 92.2 50 92.2 32.5 92.2 20.15 79.85 7.8 67.5 7.8 50 7.8 32.5 20.15 20.15 32.5 7.8 50 7.8 Z"
           id="path5" />
      </g>
    </g>
  </g>
</svg>
