<?xml version="1.0" encoding="UTF-8"?>
<svg preserveAspectRatio="none" version="1.1" viewBox="0 0 100 100" xmlns="http://www.w3.org/2000/svg">
<path d="m92.1 42.85q0.95-10.95-9.25-12.3-36.15-2.7-59.6-9.2-7.35 0-10.75 5.85-7.8 13.4-2.5 30.9 2.4 7.95 10.05 11.1 26.75 6.9 61.75 9.4 9.05 0.55 9.75-9.25 0-19.9 0.55-26.5m-14.3-3.8q2.55 0.35 2.5 2.95v0.05q-0.5 6.7-0.5 26.7-0.15 0.7-0.7 1.05-0.4 0.25-1.05 0.2l0.05 0.05q-31.75-2.4-56.2-9.1-2.2-1.2-2.15-1.9-2.25-2.85-3.1-9.7-0.8-6.85 1.1-11.95 1.8-4.75 3.85-6.95 0.45-0.5 0.5-0.5 22.15 6.45 55.7 9.1m-55.7 21.9q-2.3-1.25-2.35-1.9-0.05 0.7 2.15 1.9 24.45 6.7 56.2 9.1l-0.05-0.05q0.65 0.05 1.05-0.2-32.05-2.5-57-8.85z" fill="#313131"/>
<path d="m80.3 42c0.03333-1.7333-0.8-2.7167-2.5-2.95-22.367-1.7667-40.933-4.8-55.7-9.1-0.03333 0-0.2 0.16667-0.5 0.5-1.3667 1.4667-2.65 3.7833-3.85 6.95-1.2667 3.4-1.6333 7.3833-1.1 11.95 0.56667 4.5667 1.6 7.8 3.1 9.7 0.03333 0.43333 0.81667 1.0667 2.35 1.9 16.633 4.2333 35.633 7.1833 57 8.85 0.36667-0.23333 0.6-0.58333 0.7-1.05 0-13.333 0.16667-22.233 0.5-26.7v-0.05" fill="#4f4f4f"/>
<path d="m28.5 38.15-3.9-1v17.7l11.1 2.8v-3.6l-7.2-1.8v-14.1m18.4 4.65-3.5-0.9-5.75 3.4 2.1 2.95 3.55-2.2v13.5l3.6 0.95v-17.7z" fill="#8F8F8F"/>
<path d="m91.55 69.35q0-19.9 0.55-26.5 0.95-10.95-9.25-12.3-36.15-2.7-59.6-9.2-7.35 0-10.75 5.85-7.8 13.4-2.5 30.9 2.4 7.95 10.05 11.1 26.75 6.9 61.75 9.4 9.05 0.55 9.75-9.25z" fill="none" stroke="#1B1B1B" stroke-linecap="round" stroke-linejoin="round" stroke-width="5"/>
<path d="m79.1 69.8q0.55-0.35 0.7-1.05 0-20 0.5-26.7v-0.05q0.05-2.6-2.5-2.95-33.55-2.65-55.7-9.1-0.05 0-0.5 0.5-2.05 2.2-3.85 6.95-1.9 5.1-1.1 11.95 0.85 6.85 3.1 9.7m59.35 10.75q-0.4 0.25-1.05 0.2l0.05 0.05q-31.75-2.4-56.2-9.1-2.2-1.2-2.15-1.9" fill="none" stroke="#626262" stroke-linecap="round" stroke-linejoin="round" stroke-width="4"/>
</svg>
