<svg width="100px" height="100px" preserveAspectRatio="none" version="1.1" viewBox="0 0 100 100" xmlns="http://www.w3.org/2000/svg">
 <g>
  <path d="m91.45 65.45v-45.5h-18.85q-11.931-1.3775-24.6-1.6-5.432-0.075586-11 0.05-12.081 0.26816-24.8 1.55-4.9 28.3-3.15 56.6 1 6.15 6.3 8.2 8.95 2.95 18.65 2.9 18-0.1 25.5-2.6 8.4-2.8 11-8.5 0-2.4 0-4.8l6.05-6.3h14.9m-43.45-39.35q8.3564 0.11328 16.6 0.55-2.15 23.1-1.05 46.15-2.45 4.05-9.8 5.55-7.35 1.45-18.95 1.25t-17.6-2.65q-1.45-3.2-1.25-7.1-0.95-22.1 2.5-43.2 9.3422-0.47695 18.55-0.6 5.5244-0.033594 11 0.05z" fill="#313131"/>
  <path d="m64.6 26.65c-5.4957-0.29115-11.029-0.47448-16.6-0.55-3.6504-0.05573-7.3171-0.0724-11-0.05-6.1385 0.08203-12.322 0.28203-18.55 0.6-2.3 14.067-3.1333 28.467-2.5 43.2-0.13333 2.6 0.28333 4.9667 1.25 7.1 4 1.6333 9.8667 2.5167 17.6 2.65s14.05-0.28333 18.95-1.25c4.9-1 8.1667-2.85 9.8-5.55-0.73333-15.367-0.38333-30.75 1.05-46.15" fill="#4f4f4f"/>
  <path d="m27.45 45.15h-3.9v17.7h11.1v-3.6h-7.2v-14.1m21.6 2.7q-0.45-1-1.2-1.65-0.8-0.7-1.85-1-1.05-0.35-2.25-0.35-1.3 0-2.4 0.35-1.15 0.3-1.95 1-0.8 0.65-1.3 1.7-0.5 1-0.6 2.4l3.75 0.25q0.1-0.95 0.65-1.6 0.6-0.65 1.65-0.65 0.9 0 1.55 0.5t0.65 1.45q0 0.75-0.55 1.35-0.5 0.65-1.05 1.1l-6.85 6.15v4h12.3v-3.3h-7.8l5.35-4.6q0.5-0.45 0.9-0.95 0.45-0.5 0.75-1.05t0.5-1.25 0.2-1.5q0-1.35-0.45-2.35z" fill="#8F8F8F"/>
 </g>
 <path d="m91.45 65.45v-45.5h-18.85q-11.931-1.3775-24.6-1.575-5.432-0.10059-11 0.025-12.081 0.26816-24.8 1.55-4.9 28.3-3.15 56.6 1 6.15 6.3 8.2 8.95 2.95 18.65 2.9 18-0.1 25.5-2.6 8.4-2.8 11-8.5 0-2.4 0-4.8l6.05-6.3h14.9z" fill="none" stroke="#1B1B1B" stroke-linecap="round" stroke-linejoin="round" stroke-width="5"/>
 <path d="m64.6 26.65q-8.2436-0.43672-16.6-0.55-5.4756-0.083594-11-0.025-9.2078 0.098047-18.55 0.575-3.45 21.1-2.5 43.2-0.2 3.9 1.25 7.1 6 2.45 17.6 2.65t18.95-1.25q7.35-1.5 9.8-5.55-1.1-23.05 1.05-46.15z" fill="none" stroke="#626262" stroke-linecap="round" stroke-linejoin="round" stroke-width="4"/>
</svg>
