<svg width="100px" height="100px" preserveAspectRatio="none" version="1.1" viewBox="0 0 100 100" xmlns="http://www.w3.org/2000/svg">
 <g>
  <path d="m84.7 84.75q5.3-2.05 6.3-8.2 1.75-28.3-3.15-56.6-14.356-1.4467-27.9-1.6-16.881-0.20332-32.5 1.6h-18.85v45.5h14.9l6.05 6.3q0 2.4 0 4.8 2.6 5.7 11 8.5 7.5 2.5 25.5 2.6 9.7 0.05 18.65-2.9m-0.6-14.9q0.2 3.9-1.25 7.1-6 2.45-17.6 2.65t-18.95-1.25q-7.35-1.5-9.8-5.55 0.9-18.858-0.4-37.75-0.25898-4.1992-0.65-8.4 12.128-0.64258 24.5-0.6 10.733 0.042578 21.65 0.6 3.45 21.1 2.5 43.2z" fill="#313131"/>
  <path d="m82.85 76.95c0.96667-2.1333 1.3833-4.5 1.25-7.1 0.63333-14.733-0.2-29.133-2.5-43.2-7.2777-0.37162-14.494-0.57162-21.65-0.6-8.2479-0.02839-16.415 0.17162-24.5 0.6 0.26068 2.8005 0.47734 5.6005 0.65 8.4 0.86667 12.595 1 25.178 0.4 37.75 1.6333 2.7 4.9 4.55 9.8 5.55 4.9 0.96667 11.217 1.3833 18.95 1.25s13.6-1.0167 17.6-2.65" fill="#4f4f4f"/>
  <path d="m75.95 47.85q-0.45-1-1.2-1.65-0.8-0.7-1.85-1-1.05-0.35-2.25-0.35-1.3 0-2.4 0.35-1.15 0.3-1.95 1-0.8 0.65-1.3 1.7-0.5 1-0.6 2.4l3.75 0.25q0.1-0.95 0.65-1.6 0.6-0.65 1.65-0.65 0.9 0 1.55 0.5t0.65 1.45q0 0.75-0.55 1.35-0.5 0.65-1.05 1.1l-6.85 6.15v4h12.3v-3.3h-7.8l5.35-4.6q0.5-0.45 0.9-0.95 0.45-0.5 0.75-1.05t0.5-1.25 0.2-1.5q0-1.35-0.45-2.35m-18-2.45q-1.2-0.25-2.55-0.25h-6.85v17.7h3.9v-7.1h1.9l3.7 7.1h4.7l-4.5-7.5q1.85-0.3 2.85-1.65 0.95-1.3 0.95-3.2 0-1.55-0.5-2.55-0.55-1.05-1.45-1.65-0.9-0.65-2.15-0.9m-5.5 3.05h2.55q0.55 0 1.1 0.05 0.5 0.1 0.95 0.3 0.4 0.2 0.7 0.6 0.25 0.45 0.25 1.1 0 0.75-0.3 1.1-0.3 0.4-0.8 0.6-0.45 0.2-1.05 0.25-0.6 0-1.1 0h-2.3v-4z" fill="#8F8F8F"/>
 </g>
 <path d="m91 76.55q-1 6.15-6.3 8.2-8.95 2.95-18.65 2.9-18-0.1-25.5-2.6-8.4-2.8-11-8.5 0-2.4 0-4.8l-6.05-6.3h-14.9v-45.5h18.85q15.619-1.8033 32.5-1.6 13.544 0.15332 27.9 1.6 4.9 28.3 3.15 56.6z" fill="none" stroke="#1B1B1B" stroke-linecap="round" stroke-linejoin="round" stroke-width="5"/>
 <path d="m84.1 69.85q0.2 3.9-1.25 7.1-6 2.45-17.6 2.65t-18.95-1.25q-7.35-1.5-9.8-5.55 0.9-18.858-0.375-37.75-0.28398-4.1992-0.675-8.4 12.128-0.64258 24.5-0.6 10.733 0.042578 21.65 0.6 3.45 21.1 2.5 43.2z" fill="none" stroke="#626262" stroke-linecap="round" stroke-linejoin="round" stroke-width="4"/>
</svg>
