<?xml version="1.0" encoding="UTF-8"?>
<svg preserveAspectRatio="none" version="1.1" viewBox="0 0 100 100" xmlns="http://www.w3.org/2000/svg">
<path d="m90.05 58.1q5.3-17.5-2.5-30.9-3.4-5.85-10.75-5.85-23.45 6.5-59.6 9.2-10.2 1.35-9.25 12.3 0.55 6.6 0.55 26.5 0.7 9.8 9.75 9.25 35-2.5 61.75-9.4 7.65-3.15 10.05-11.1m-7.75-20.7q1.9 5.1 1.1 11.95-0.85 6.85-3.1 9.7 0.05 0.7-2.15 1.9-24.45 6.7-56.2 9.1l0.05-0.05q-0.65 0.05-1.05-0.2-0.55-0.35-0.7-1.05 0-20-0.5-26.7v-0.05q-0.05-2.6 2.5-2.95 33.55-2.65 55.7-9.1 0.05 0 0.5 0.5 2.05 2.2 3.85 6.95m-61.35 32.4q0.4 0.25 1.05 0.2l-0.05 0.05q31.75-2.4 56.2-9.1 2.2-1.2 2.15-1.9-0.05 0.65-2.35 1.9-24.95 6.35-57 8.85z" fill="#313131"/>
<path d="m83.4 49.35c0.53333-4.5667 0.16667-8.55-1.1-11.95-1.2-3.1667-2.4833-5.4833-3.85-6.95-0.3-0.33333-0.46667-0.5-0.5-0.5-14.767 4.3-33.333 7.3333-55.7 9.1-1.7 0.23333-2.5333 1.2167-2.5 2.95v0.05c0.33333 4.4667 0.5 13.367 0.5 26.7 0.1 0.46667 0.33333 0.81667 0.7 1.05 21.367-1.6667 40.367-4.6167 57-8.85 1.5333-0.83333 2.3167-1.4667 2.35-1.9 1.5-1.9 2.5333-5.1333 3.1-9.7" fill="#4f4f4f"/>
<path d="m74.2 37.8-3.5 0.75-5.75 6.1 2.1 2 3.55-3.85v13.5l3.6-0.8v-17.7m-13.65 4.1q-0.9-0.45-2.15-0.4-1.2 0-2.55 0.3l-6.85 1.45v17.7l3.9-0.85v-7.1l1.9-0.4 3.7 6.3 4.7-1-4.5-6.55q1.85-0.7 2.85-2.25 0.95-1.5 0.95-3.4 0-1.55-0.5-2.45-0.55-0.95-1.45-1.35m-7.65 3.8 2.55-0.55q0.55-0.1 1.1-0.15 0.5-0.05 0.95 0.1 0.4 0.1 0.7 0.45 0.25 0.35 0.25 1 0 0.75-0.3 1.2t-0.8 0.75q-0.45 0.3-1.05 0.5-0.6 0.1-1.1 0.2l-2.3 0.5v-4z" fill="#8F8F8F"/>
<path d="m76.8 21.35q7.35 0 10.75 5.85 7.8 13.4 2.5 30.9-2.4 7.95-10.05 11.1-26.75 6.9-61.75 9.4-9.05 0.55-9.75-9.25 0-19.9-0.55-26.5-0.95-10.95 9.25-12.3 36.15-2.7 59.6-9.2z" fill="none" stroke="#1B1B1B" stroke-linecap="round" stroke-linejoin="round" stroke-width="5"/>
<path d="m80.3 59.05q2.25-2.85 3.1-9.7 0.8-6.85-1.1-11.95-1.8-4.75-3.85-6.95-0.45-0.5-0.5-0.5-22.15 6.45-55.7 9.1-2.55 0.35-2.5 2.95v0.05q0.5 6.7 0.5 26.7 0.15 0.7 0.7 1.05m59.35-10.75q0.05 0.7-2.15 1.9-24.45 6.7-56.2 9.1l0.05-0.05q-0.65 0.05-1.05-0.2" fill="none" stroke="#626262" stroke-linecap="round" stroke-linejoin="round" stroke-width="4"/>
</svg>
