<?xml version="1.0" encoding="UTF-8"?>
<svg preserveAspectRatio="none" version="1.1" viewBox="0 0 100 100" xmlns="http://www.w3.org/2000/svg">
<path d="m49.7 65.8h-3.2l-7.65 17.7h4.25l1.5-3.75h6.85l1.55 3.75h4.4l-7.7-17.7m0.45 10.65h-4.35l2.2-5.5 2.15 5.5m18.45-10.4q-1.2-0.25-2.55-0.25h-6.85v17.7h3.9v-7.1h1.9l3.7 7.1h4.7l-4.5-7.5q1.85-0.3 2.85-1.65 0.95-1.3 0.95-3.2 0-1.55-0.5-2.55-0.55-1.05-1.45-1.65-0.9-0.65-2.15-0.9m-3.2 7.05h-2.3v-4h2.55q0.55 0 1.1 0.05 0.5 0.1 0.95 0.3 0.4 0.2 0.7 0.6 0.25 0.45 0.25 1.1 0 0.75-0.3 1.1-0.3 0.4-0.8 0.6-0.45 0.2-1.05 0.25-0.6 0-1.1 0m-38.45-7.3v3.45h5.05v14.25h3.9v-14.25h5.05v-3.45h-14m-3.95 4.3 2.7-2.9q-1.15-1-2.55-1.4-1.4-0.45-2.9-0.45-1.3 0-2.55 0.35-1.2 0.35-2.15 1.1-0.95 0.7-1.5 1.8-0.55 1.05-0.55 2.5t0.6 2.4q0.65 0.85 1.55 1.45 0.95 0.55 2 0.85 1.1 0.35 2 0.65 0.95 0.3 1.55 0.8 0.6 0.45 0.6 1.25 0 0.45-0.2 0.85-0.25 0.35-0.65 0.55-0.4 0.25-0.85 0.35-0.5 0.1-1 0.1-0.95 0-1.9-0.45-0.9-0.45-1.5-1.2l-2.75 3.05q1.25 1.15 2.75 1.7 1.45 0.5 3.2 0.5 1.35 0 2.6-0.35t2.15-1.1q0.95-0.7 1.5-1.8t0.55-2.55q0-1.55-0.6-2.5t-1.5-1.5-1.95-0.85q-1.05-0.25-2-0.6-0.9-0.25-1.5-0.7t-0.6-1.2q0-0.5 0.25-0.85 0.25-0.4 0.65-0.6t0.85-0.3 0.9-0.1q0.7 0 1.5 0.3 0.85 0.25 1.3 0.85m59.25 13.4v-14.25h5.05v-3.45h-14v3.45h5.05v14.25h3.9z" fill="#1B1B1B"/>
<path d="m84.6 40.55v-11.05l-69.2-16.05v43.15l69.2-16.05m-61.7 6.65v-24.3l52.35 12.15-52.35 12.15z" fill="#313131"/>
<path d="m22.9 22.9v24.3l52.35-12.15-52.35-12.15z" fill="#4F4F4F"/>
<path d="m84.6 29.5v11.05l-69.2 16.05v-43.15l69.2 16.05z" fill="none" stroke="#1B1B1B" stroke-linecap="round" stroke-linejoin="round" stroke-width="5"/>
<path d="m22.9 47.2v-24.3l52.35 12.15-52.35 12.15z" fill="none" stroke="#626262" stroke-linecap="round" stroke-linejoin="round" stroke-width="4"/>
</svg>
