<?xml version="1.0" encoding="UTF-8"?>
<svg preserveAspectRatio="none" version="1.1" viewBox="0 0 100 100" xmlns="http://www.w3.org/2000/svg">
<path d="m49.3 75.25h-3.25v14.85h3.25v-14.85m10.2-0.4q-1.75 0-3.2 0.55-1.5 0.55-2.55 1.55-1.1 1.05-1.7 2.5t-0.6 3.2q0 1.8 0.6 3.25t1.7 2.45q1.05 1.05 2.55 1.6 1.45 0.55 3.2 0.55t3.2-0.55 2.55-1.6q1.05-1 1.65-2.45t0.6-3.25q0-1.75-0.6-3.2t-1.65-2.5q-1.1-1-2.55-1.55t-3.2-0.55m-1.9 3.4q0.85-0.35 1.9-0.35t1.9 0.35 1.45 1 0.9 1.5q0.35 0.9 0.35 1.9 0 1.05-0.35 1.95-0.3 0.85-0.9 1.5t-1.45 1-1.9 0.35-1.9-0.35-1.45-1q-0.65-0.65-0.95-1.5-0.35-0.9-0.35-1.95 0-1 0.35-1.9 0.3-0.85 0.95-1.5 0.6-0.65 1.45-1m-24.95-3v2.9h4.25v11.95h3.25v-11.95h4.25v-2.9h-11.75m-0.7 4.5q0-1.35-0.45-2.2t-1.25-1.4q-0.75-0.5-1.8-0.7-1-0.2-2.15-0.2h-5.55v14.85h3.3v-5.8h2.4q1.15 0 2.15-0.2 1.05-0.25 1.75-0.75 0.75-0.55 1.15-1.4 0.45-0.9 0.45-2.2m-6.25-1.75q0.5 0 1 0.05t0.9 0.25 0.65 0.55q0.3 0.35 0.3 0.9t-0.2 0.9q-0.2 0.3-0.55 0.5-0.3 0.2-0.75 0.3-0.4 0.1-0.85 0.1h-2.15v-3.55h1.65m-7.75 1.45q-0.6-1.45-1.65-2.5-1.1-1-2.55-1.55t-3.2-0.55-3.2 0.55q-1.5 0.55-2.55 1.55-1.1 1.05-1.7 2.5t-0.6 3.2q0 1.8 0.6 3.25t1.7 2.45q1.05 1.05 2.55 1.6 1.45 0.55 3.2 0.55t3.2-0.55 2.55-1.6q1.05-1 1.65-2.45t0.6-3.25q0-1.75-0.6-3.2m-5.5-1.2q0.85 0.35 1.45 1t0.9 1.5q0.35 0.9 0.35 1.9 0 1.05-0.35 1.95-0.3 0.85-0.9 1.5t-1.45 1-1.9 0.35-1.9-0.35-1.45-1q-0.65-0.65-0.95-1.5-0.35-0.9-0.35-1.95 0-1 0.35-1.9 0.3-0.85 0.95-1.5 0.6-0.65 1.45-1t1.9-0.35 1.9 0.35m71.35 11.85v-14.85h-3.25v10.3h-0.05l-6.35-10.3h-4.45v14.85h3.3v-10.6h0.05l6.45 10.6h4.3m10.5-14.9q-1.2-0.35-2.45-0.35-1.1 0-2.1 0.3-1.05 0.3-1.85 0.9-0.75 0.65-1.25 1.55-0.45 0.9-0.45 2.1t0.5 2q0.5 0.75 1.3 1.2 0.75 0.45 1.7 0.75 0.9 0.25 1.65 0.5 0.8 0.3 1.3 0.7t0.5 1.05q0 0.4-0.2 0.7t-0.5 0.5q-0.35 0.15-0.75 0.25t-0.8 0.1q-0.8 0-1.6-0.35-0.75-0.4-1.25-1.05l-2.35 2.55q1.1 1 2.3 1.45 1.25 0.45 2.7 0.45 1.15 0 2.2-0.3t1.8-0.9q0.8-0.65 1.25-1.55 0.5-0.9 0.5-2.15 0-1.3-0.5-2.1-0.5-0.75-1.3-1.25-0.75-0.45-1.65-0.7-0.85-0.25-1.65-0.5-0.75-0.25-1.25-0.6t-0.5-1.05q0-0.4 0.2-0.7t0.55-0.45q0.35-0.2 0.7-0.3 0.4-0.05 0.75-0.05 0.6 0 1.3 0.2 0.65 0.25 1.05 0.75l2.25-2.45q-0.95-0.85-2.1-1.2z" fill="#1B1B1B"/>
<path d="m67.95 25.8q0-7.45-5.25-12.7t-12.7-5.25-12.7 5.25-5.25 12.7v25.75q0 7.45 5.25 12.7t12.7 5.25 12.7-5.25 5.25-12.7v-25.75m-10.55-7.4q3.05 3.05 3.05 7.4v25.75q0 4.35-3.05 7.4t-7.4 3.05-7.4-3.05-3.05-7.4v-25.75q0-4.35 3.05-7.4t7.4-3.05 7.4 3.05z" fill="#313131"/>
<path d="m60.45 25.8q0-4.35-3.05-7.4t-7.4-3.05-7.4 3.05-3.05 7.4v25.75q0 4.35 3.05 7.4t7.4 3.05 7.4-3.05 3.05-7.4v-25.75z" fill="#4F4F4F"/>
<path d="m32.05 25.8q0-7.45 5.25-12.7t12.7-5.25 12.7 5.25 5.25 12.7v25.75q0 7.45-5.25 12.7t-12.7 5.25-12.7-5.25-5.25-12.7v-25.75z" fill="none" stroke="#202020" stroke-linecap="round" stroke-linejoin="round" stroke-width="4"/>
<path d="m39.55 25.8q0-4.35 3.05-7.4t7.4-3.05 7.4 3.05 3.05 7.4v25.75q0 4.35-3.05 7.4t-7.4 3.05-7.4-3.05-3.05-7.4v-25.75z" fill="none" stroke="#626262" stroke-linecap="round" stroke-linejoin="round" stroke-width="4"/>
</svg>
