<?xml version="1.0" encoding="UTF-8"?>
<svg preserveAspectRatio="none" version="1.1" viewBox="0 0 100 100" xmlns="http://www.w3.org/2000/svg">
<path d="m90.4 67.4v-36.2q-0.7-11.2-13.15-9.6-12.35 1.55-38.05 6.1-25.6 4.6-26.1 28.25v16.4q0.9 5.65 6.25 6.25h58.6q12.15-0.5 12.45-11.2m-35.4-33.75q7.8-0.4 8.2 6.65v26.05q-0.15 4.85-5.6 4.8h-36.95l-0.1-17.15q1.2-12.35 14.25-16.4 13.05-4.15 20.2-3.95z" fill="#313131"/>
<path d="m63.2 40.3c-0.26667-4.7-3-6.9167-8.2-6.65-4.7667-0.13333-11.5 1.1833-20.2 3.95-8.7 2.7-13.45 8.1667-14.25 16.4l0.1 17.15h36.95c3.6333 0.03333 5.5-1.5667 5.6-4.8v-26.05" fill="#4f4f4f"/>
<path d="m50.9 65.95v-16.15l-3.2-0.05-5.25 4.4 1.9 2.3 3.25-2.85v12.35h3.3m-16.3-16.25h-3.55v16.25h10.2v-3.25h-6.65v-13z" fill="#8F8F8F"/>
<path d="m90.4 67.4v-36.2q-0.7-11.2-13.15-9.6-12.35 1.55-38.05 6.1-25.6 4.6-26.1 28.25v16.4q0.9 5.65 6.25 6.25h58.6q12.15-0.5 12.45-11.2z" fill="none" stroke="#1B1B1B" stroke-linecap="round" stroke-linejoin="round" stroke-width="5"/>
<path d="m55 33.65q7.8-0.4 8.2 6.65v26.05q-0.15 4.85-5.6 4.8h-36.95l-0.1-17.15q1.2-12.35 14.25-16.4 13.05-4.15 20.2-3.95z" fill="none" stroke="#626262" stroke-linecap="round" stroke-linejoin="round" stroke-width="4"/>
</svg>
