<svg width="100px" height="100px" preserveAspectRatio="none" version="1.1" viewBox="0 0 100 100" xmlns="http://www.w3.org/2000/svg">
 <g>
  <path d="m79.85 20.15q-12.35-12.35-29.85-12.35t-29.85 12.35-12.35 29.85 12.35 29.85 29.85 12.35 29.85-12.35 12.35-29.85-12.35-29.85m-29.85-4.2q14.2 0 24.1 10 10 9.95 10 24.05 0 14.2-10 24.1-9.9 10-24.1 10-14.1 0-24.05-10-10-9.9-10-24.1 0-14.1 10-24.05 9.95-10 24.05-10z" fill="#272727"/>
  <path d="m74.1 25.95c-6.6-6.6667-14.633-10-24.1-10-9.4 0-17.417 3.3333-24.05 10-6.6667 6.6333-10 14.65-10 24.05 0 9.4667 3.3333 17.5 10 24.1 6.6333 6.6667 14.65 10 24.05 10 9.4667 0 17.5-3.3333 24.1-10 6.6667-6.6 10-14.633 10-24.1 0-9.4-3.3333-17.417-10-24.05" fill="#4b4b4b"/>
  <path d="m69.6 30.5c-5.3667-5.4333-11.9-8.15-19.6-8.15-7.6333 0-14.133 2.7167-19.5 8.15-5.4333 5.3667-8.15 11.867-8.15 19.5 0 7.7 2.7167 14.233 8.15 19.6 5.3667 5.4 11.867 8.1 19.5 8.1 7.7 0 14.233-2.7 19.6-8.1 5.4-5.3667 8.1-11.9 8.1-19.6 0-7.6333-2.7-14.133-8.1-19.5" fill="#3f3f3f"/>
  <path d="m64.2 35.9c-3.9-3.9333-8.6333-5.9-14.2-5.9-5.5333 0-10.233 1.9667-14.1 5.9-3.9333 3.8667-5.9 8.5667-5.9 14.1 0 5.5667 1.9667 10.3 5.9 14.2 3.8667 3.9 8.5667 5.85 14.1 5.85 5.5667 0 10.3-1.95 14.2-5.85s5.85-8.6333 5.85-14.2c0-5.5333-1.95-10.233-5.85-14.1" fill="#616161"/>
 </g>
 <path d="m50 7.8q17.5 0 29.85 12.35t12.35 29.85-12.35 29.85-29.85 12.35-29.85-12.35-12.35-29.85 12.35-29.85 29.85-12.35zm0 8.15q14.2 0 24.1 10 10 9.95 10 24.05 0 14.2-10 24.1-9.9 10-24.1 10-14.1 0-24.05-10-10-9.9-10-24.1 0-14.1 10-24.05 9.95-10 24.05-10z" fill="none" stroke="#151515" stroke-linecap="round" stroke-linejoin="round" stroke-width="4"/>
 <path d="m59.55 41.6q-0.75-1.45-2.05-2.3-1.25-0.85-2.95-1.2-1.7-0.4-3.6-0.4h-9.55v24.8h5.45v-9.9h2.65l5.2 9.9h6.55l-6.3-10.5q2.6-0.45 4-2.3 1.35-1.85 1.35-4.45 0-2.2-0.75-3.65m-12.7 6.35v-5.6h3.55q0.75 0 1.5 0.1t1.35 0.4 1 0.85q0.35 0.55 0.35 1.5 0 1.05-0.4 1.6-0.45 0.55-1.1 0.8-0.7 0.25-1.5 0.3t-1.55 0.05z" fill="#8c8c8c"/>
</svg>
