<?xml version="1.0" encoding="UTF-8"?>
<svg preserveAspectRatio="none" version="1.1" viewBox="0 0 100 100" xmlns="http://www.w3.org/2000/svg">
<path d="m86.25 26.5q-0.4-9.9-4.45-14h-56.25q-6.55 2.05-7.45 7.2v42.15q10.6-0.4 17.9 8.5l6.55 13.6q10.75 9.15 26.65 6.65 8.05-1.25 13.15-5.95 5.1-7 3.9-13.85-3.55-23.05 0-44.3m-8.75-7.6q2.65 2.1 2.45 5.8-1.8 9.4-2.25 19.6 0 16.35 2.55 29.55-0.2 6.8-8.65 9.65-6.35 1.4-12.05-1.85-5.1-5.15-8.1-10.9-4.8-8.1-7.25-17.35-3.5-13.15-3.35-27.15-0.7-4.95 3.5-7.35h33.15z" fill="#313131"/>
<path d="m79.95 24.7c0.13333-2.4667-0.68333-4.4-2.45-5.8h-33.15c-2.8 1.6-3.9667 4.05-3.5 7.35-0.1 9.3333 1.0167 18.383 3.35 27.15 1.6333 6.1667 4.05 11.95 7.25 17.35 2 3.8333 4.7 7.4667 8.1 10.9 3.8 2.1667 7.8167 2.7833 12.05 1.85 5.6333-1.9 8.5167-5.1167 8.65-9.65-1.7-8.8-2.55-18.65-2.55-29.55 0.3-6.8 1.05-13.333 2.25-19.6" fill="#4f4f4f"/>
<path d="m72 29.85q0-1.15-0.35-2.05-0.4-0.9-1.1-1.45-0.65-0.6-1.6-0.9-0.9-0.3-1.95-0.3-1.15 0-2.15 0.3t-1.7 0.9q-0.75 0.6-1.15 1.5-0.45 0.85-0.5 2.1l3.3 0.2q0.05-0.8 0.55-1.4 0.55-0.55 1.45-0.55 0.8 0 1.35 0.45t0.55 1.25q0 0.7-0.45 1.2-0.45 0.55-0.9 0.95l-6.05 5.45v3.5h10.85v-2.9h-6.9l4.75-4.05q0.4-0.4 0.8-0.85 0.35-0.4 0.65-0.9 0.25-0.5 0.4-1.1t0.15-1.35m-14.3-3.45q-0.8-0.5-1.9-0.75-1.05-0.25-2.25-0.25h-6v15.6h3.4v-6.25h1.7l3.25 6.25h4.1l-3.95-6.6q1.65-0.3 2.5-1.45 0.9-1.15 0.9-2.8 0-1.35-0.5-2.3-0.45-0.9-1.25-1.45m-4.5 1.9q0.45 0 0.95 0.1 0.5 0.05 0.85 0.25 0.4 0.2 0.65 0.55 0.2 0.35 0.2 0.95t-0.25 0.95q-0.3 0.35-0.7 0.55-0.4 0.15-0.95 0.2-0.5 0-0.95 0h-2.05v-3.55h2.25z" fill="#8C8C8C"/>
<g fill="none" stroke-linecap="round" stroke-linejoin="round">
<path d="m79.95 24.7q0.2-3.7-2.45-5.8h-33.15q-4.2 2.4-3.5 7.35-0.15 14 3.35 27.15 2.45 9.25 7.25 17.35 3 5.75 8.1 10.9 5.7 3.25 12.05 1.85 8.45-2.85 8.65-9.65-2.55-13.2-2.55-29.55 0.45-10.2 2.25-19.6z" stroke="#626262" stroke-width="4"/>
<path d="m81.8 12.5q4.05 4.1 4.45 14-3.55 21.25 0 44.3 1.2 6.85-3.9 13.85-5.1 4.7-13.15 5.95-15.9 2.5-26.65-6.65l-6.55-13.6q-7.3-8.9-17.9-8.5v-42.15q0.9-5.15 7.45-7.2z" stroke="#202020" stroke-width="5"/>
</g>
</svg>
