<?xml version="1.0" encoding="UTF-8"?>
<svg preserveAspectRatio="none" version="1.1" viewBox="0 0 100 100" xmlns="http://www.w3.org/2000/svg">
<path d="m84.15 78.6q5.35-0.6 6.25-6.25v-16.4q-0.5-23.65-26.1-28.25-25.7-4.55-38.05-6.1-12.45-1.6-13.15 9.6v36.2q0.3 10.7 12.45 11.2h58.6m-1.2-24.6-0.1 17.15h-36.95q-5.45 0.05-5.6-4.8v-26.05q0.4-7.05 8.2-6.65 7.15-0.2 20.2 3.95 13.05 4.05 14.25 16.4z" fill="#313131"/>
<path d="m82.85 71.15 0.1-17.15c-0.8-8.2333-5.55-13.7-14.25-16.4-8.7-2.7667-15.433-4.0833-20.2-3.95-5.2-0.26667-7.9333 1.95-8.2 6.65v26.05c0.1 3.2333 1.9667 4.8333 5.6 4.8h36.95" fill="#4f4f4f"/>
<path d="m67 56.45 3.25-2.85v12.35h3.3v-16.15l-3.2-0.05-5.25 4.4 1.9 2.3m-4.3 1.15q0.85-1.2 0.85-2.95 0-1.4-0.45-2.3-0.5-0.95-1.3-1.5-0.85-0.6-2-0.85-1.1-0.2-2.3-0.2h-6.25v16.15h3.55v-6.5h1.75l3.35 6.5h4.3l-4.1-6.85q1.7-0.3 2.6-1.5m-5.55-4.8q0.5 0 1 0.05 0.45 0.1 0.85 0.25 0.35 0.2 0.65 0.55 0.2 0.4 0.2 1 0 0.7-0.25 1-0.3 0.4-0.75 0.55-0.4 0.2-0.95 0.25-0.55 0-1 0h-2.1v-3.65h2.35z" fill="#8F8F8F"/>
<path d="m90.4 72.35v-16.4q-0.5-23.65-26.1-28.25-25.7-4.55-38.05-6.1-12.45-1.6-13.15 9.6v36.2q0.3 10.7 12.45 11.2h58.6q5.35-0.6 6.25-6.25z" fill="none" stroke="#1B1B1B" stroke-linecap="round" stroke-linejoin="round" stroke-width="5"/>
<path d="m82.95 54-0.1 17.15h-36.95q-5.45 0.05-5.6-4.8v-26.05q0.4-7.05 8.2-6.65 7.15-0.2 20.2 3.95 13.05 4.05 14.25 16.4z" fill="none" stroke="#626262" stroke-linecap="round" stroke-linejoin="round" stroke-width="4"/>
</svg>
