<?xml version="1.0" encoding="UTF-8"?>
<svg preserveAspectRatio="none" version="1.1" viewBox="0 0 100 100" xmlns="http://www.w3.org/2000/svg">
<path d="m74.35 79.05q-0.55-1.05-1.45-1.65-0.9-0.65-2.15-0.9-1.2-0.25-2.55-0.25h-6.85v17.7h3.9v-7.1h1.9l3.7 7.1h4.7l-4.5-7.5q1.85-0.3 2.85-1.65 0.95-1.3 0.95-3.2 0-1.55-0.5-2.55m-6.55 0.5q0.55 0 1.1 0.05 0.5 0.1 0.95 0.3 0.4 0.2 0.7 0.6 0.25 0.45 0.25 1.1 0 0.75-0.3 1.1-0.3 0.4-0.8 0.6-0.45 0.2-1.05 0.25-0.6 0-1.1 0h-2.3v-4h2.55m-22.55 14.4 1.5-3.75h6.85l1.55 3.75h4.4l-7.7-17.7h-3.2l-7.65 17.7h4.25m2.7-7.05 2.2-5.5 2.15 5.5h-4.35m-12.65-10.65v6.6h-7.6v-6.6h-3.9v17.7h3.9v-7.65h7.6v7.65h3.9v-17.7h-3.9m-16.95 0q-1.4-0.45-2.9-0.45-1.3 0-2.55 0.35-1.2 0.35-2.15 1.1-0.95 0.7-1.5 1.8-0.55 1.05-0.55 2.5t0.6 2.4q0.65 0.85 1.55 1.45 0.95 0.55 2 0.85 1.1 0.35 2 0.65 0.95 0.3 1.55 0.8 0.6 0.45 0.6 1.25 0 0.45-0.2 0.85-0.25 0.35-0.65 0.55-0.4 0.25-0.85 0.35-0.5 0.1-1 0.1-0.95 0-1.9-0.45-0.9-0.45-1.5-1.2l-2.75 3.05q1.25 1.15 2.75 1.7 1.45 0.5 3.2 0.5 1.35 0 2.6-0.35t2.15-1.1q0.95-0.7 1.5-1.8t0.55-2.55q0-1.55-0.6-2.5t-1.5-1.5-1.95-0.85q-1.05-0.25-2-0.6-0.9-0.25-1.5-0.7t-0.6-1.2q0-0.5 0.25-0.85 0.25-0.4 0.65-0.6t0.85-0.3 0.9-0.1q0.7 0 1.5 0.3 0.85 0.25 1.3 0.85l2.7-2.9q-1.15-1-2.55-1.4m70.95 6.9h-7.7v-3.3h8.15v-3.6h-12.05v17.7h12.45v-3.6h-8.55v-3.6h7.7v-3.6z" fill="#1B1B1B"/>
<path d="m67.95 25.8q0-5.8162-3.2-10.3-0.89863-1.2486-2.05-2.4-5.25-5.25-12.7-5.25t-12.7 5.25-5.25 12.7v25.75q0 7.45 5.25 12.7t12.7 5.25 12.7-5.25 5.25-12.7v-25.75m-10.55-7.4q3.05 3.05 3.05 7.4v25.75q0 4.35-3.05 7.4t-7.4 3.05-7.4-3.05-3.05-7.4v-25.75q0-4.35 3.05-7.4t7.4-3.05 7.4 3.05z" fill="#313131"/>
<path d="m60.45 25.8q0-4.35-3.05-7.4t-7.4-3.05-7.4 3.05-3.05 7.4v25.75q0 4.35 3.05 7.4t7.4 3.05 7.4-3.05 3.05-7.4v-25.75z" fill="#4F4F4F"/>
<path d="m32.05 25.8q0-7.45 5.25-12.7t12.7-5.25 12.7 5.25q1.1514 1.1514 2.05 2.4 3.2 4.4838 3.2 10.3v25.75q0 7.45-5.25 12.7t-12.7 5.25-12.7-5.25-5.25-12.7v-25.75z" fill="none" stroke="#202020" stroke-linecap="round" stroke-linejoin="round" stroke-width="4"/>
<path d="m39.55 25.8q0-4.35 3.05-7.4t7.4-3.05 7.4 3.05 3.05 7.4v25.75q0 4.35-3.05 7.4t-7.4 3.05-7.4-3.05-3.05-7.4v-25.75z" fill="none" stroke="#626262" stroke-linecap="round" stroke-linejoin="round" stroke-width="4"/>
</svg>
