<svg width="100px" height="100px" preserveAspectRatio="none" version="1.1" viewBox="0 0 100 100" xmlns="http://www.w3.org/2000/svg">
 <defs>
  <linearGradient id="Gradient_1" x1="50" x2="50" y1="21" y2="79" gradientUnits="userSpaceOnUse">
   <stop stop-color="#202020" offset="0"/>
   <stop stop-color="#313131" offset=".23137"/>
  </linearGradient>
 </defs>
 <g>
  <path d="m96.25 27.3c0-5.2-2.6-7.8-7.8-7.8h-76.9c-5.2 0-7.8 2.6-7.8 7.8v45.4c0 5.2 2.6 7.8 7.8 7.8h76.9c5.2 0 7.8-2.6 7.8-7.8v-45.4" fill="url(#Gradient_1)"/>
  <path d="m53.5 73.15q-0.7-0.7-1.65-0.7t-1.65 0.7-0.7 1.65 0.7 1.65 1.65 0.7 1.65-0.7 0.7-1.65-0.7-1.65m1.2-8.6q0-0.95-0.7-1.65t-1.65-0.7-1.65 0.7-0.7 1.65 0.7 1.65 1.65 0.7 1.65-0.7 0.7-1.65m4 2.85q-0.7-0.7-1.65-0.7t-1.65 0.7-0.7 1.65 0.7 1.65 1.65 0.7 1.65-0.7 0.7-1.65-0.7-1.65m-14.9 5.75q-0.7-0.7-1.65-0.7t-1.65 0.7-0.7 1.65 0.7 1.65 1.65 0.7 1.65-0.7 0.7-1.65-0.7-1.65m1.2-8.6q0-0.95-0.7-1.65t-1.65-0.7-1.65 0.7-0.7 1.65 0.7 1.65 1.65 0.7 1.65-0.7 0.7-1.65m2.35 2.15q-0.95 0-1.65 0.7t-0.7 1.65 0.7 1.65 1.65 0.7 1.65-0.7 0.7-1.65-0.7-1.65-1.65-0.7m0.5-10.25q-0.95 0-1.65 0.7t-0.7 1.65 0.7 1.65 1.65 0.7 1.65-0.7 0.7-1.65-0.7-1.65-1.65-0.7m-4.7-4.5q-0.95 0-1.65 0.7t-0.7 1.65 0.7 1.65q0.3 0.3 0.7 0.5 0.45 0.25 1.05 0.25 0.95 0 1.65-0.7t0.7-1.65-0.7-1.65q-0.3-0.3-0.7-0.5-0.45-0.25-1.05-0.25m14.4 4.5q-0.95 0-1.65 0.7t-0.7 1.65 0.7 1.65 1.65 0.7 1.65-0.7 0.7-1.65-0.7-1.65-1.65-0.7m-2.25-2.1q0-0.95-0.7-1.65-0.3-0.3-0.7-0.5-0.45-0.25-1.05-0.25-0.95 0-1.65 0.7t-0.7 1.65 0.7 1.65q0.3 0.3 0.7 0.5 0.45 0.25 1.05 0.25 0.95 0 1.65-0.7t0.7-1.65m17.6 18.8q-0.7-0.7-1.65-0.7t-1.65 0.7-0.7 1.65 0.7 1.65 1.65 0.7 1.65-0.7 0.7-1.65-0.7-1.65m5.2-5.75q-0.7-0.7-1.65-0.7t-1.65 0.7-0.7 1.65 0.7 1.65 1.65 0.7 1.65-0.7 0.7-1.65-0.7-1.65m-14.9 5.75q-0.7-0.7-1.65-0.7t-1.65 0.7-0.7 1.65 0.7 1.65 1.65 0.7 1.65-0.7 0.7-1.65-0.7-1.65m-1.15-6.25q0.95 0 1.65-0.7t0.7-1.65-0.7-1.65-1.65-0.7-1.65 0.7-0.7 1.65 0.7 1.65 1.65 0.7m8.05-4q-0.7 0.7-0.7 1.65t0.7 1.65 1.65 0.7 1.65-0.7 0.7-1.65-0.7-1.65-1.65-0.7-1.65 0.7m-1.7 4.5q-0.7-0.7-1.65-0.7t-1.65 0.7-0.7 1.65 0.7 1.65 1.65 0.7 1.65-0.7 0.7-1.65-0.7-1.65m-3.5-8.6q0 0.95 0.7 1.65t1.65 0.7 1.65-0.7 0.7-1.65-0.7-1.65-1.65-0.7-1.65 0.7-0.7 1.65m0.1-4.45q0-0.95-0.7-1.65-0.3-0.3-0.7-0.5-0.45-0.25-1.05-0.25-0.95 0-1.65 0.7t-0.7 1.65 0.7 1.65q0.3 0.3 0.7 0.5 0.45 0.25 1.05 0.25 0.95 0 1.65-0.7t0.7-1.65m10.3 2.8q-0.7 0.7-0.7 1.65t0.7 1.65 1.65 0.7 1.65-0.7 0.7-1.65-0.7-1.65-1.65-0.7-1.65 0.7m-0.6-2.8q0-0.95-0.7-1.65-0.3-0.3-0.7-0.5-0.45-0.25-1.05-0.25-0.95 0-1.65 0.7t-0.7 1.65 0.7 1.65q0.3 0.3 0.7 0.5 0.45 0.25 1.05 0.25 0.95 0 1.65-0.7t0.7-1.65m-60 18.9q-0.7-0.7-1.65-0.7t-1.65 0.7-0.7 1.65 0.7 1.65 1.65 0.7 1.65-0.7 0.7-1.65-0.7-1.65m0.5-6.95q0.7-0.7 0.7-1.65t-0.7-1.65-1.65-0.7-1.65 0.7-0.7 1.65 0.7 1.65 1.65 0.7 1.65-0.7m-8.3 4.5q0.7 0.7 1.65 0.7t1.65-0.7 0.7-1.65-0.7-1.65-1.65-0.7-1.65 0.7-0.7 1.65 0.7 1.65m4.5-11.9q0-0.95-0.7-1.65t-1.65-0.7-1.65 0.7-0.7 1.65 0.7 1.65 1.65 0.7 1.65-0.7 0.7-1.65m5.1-4.45q0-0.95-0.7-1.65-0.3-0.3-0.7-0.5-0.45-0.25-1.05-0.25-0.95 0-1.65 0.7t-0.7 1.65 0.7 1.65q0.3 0.3 0.7 0.5 0.45 0.25 1.05 0.25 0.95 0 1.65-0.7t0.7-1.65m17.6 18.7q-0.7-0.7-1.65-0.7t-1.65 0.7-0.7 1.65 0.7 1.65 1.65 0.7 1.65-0.7 0.7-1.65-0.7-1.65m1.2-8.6q0-0.95-0.7-1.65t-1.65-0.7-1.65 0.7-0.7 1.65 0.7 1.65 1.65 0.7 1.65-0.7 0.7-1.65m2.35 2.15q-0.95 0-1.65 0.7t-0.7 1.65 0.7 1.65 1.65 0.7 1.65-0.7 0.7-1.65-0.7-1.65-1.65-0.7m-17.05 2.45q0-0.05 0-0.1 0-0.95-0.7-1.65t-1.65-0.7-1.65 0.7-0.7 1.65q0 0.05 0 0.1 0 0.95 0.7 1.65t1.65 0.7 1.65-0.7 0.7-1.65m3.8 4q-0.7-0.7-1.65-0.7t-1.65 0.7-0.7 1.65q0 0.05 0 0.1 0 0.95 0.7 1.65t1.65 0.7 1.65-0.7 0.7-1.65q0-0.05 0-0.1 0-0.95-0.7-1.65m5.2-5.75q-0.7-0.7-1.65-0.7t-1.65 0.7-0.7 1.65 0.7 1.65 1.65 0.7 1.65-0.7 0.7-1.65-0.7-1.65m-4-2.75q0-0.05 0-0.1 0-0.95-0.7-1.65t-1.65-0.7-1.65 0.7-0.7 1.65q0 0.05 0 0.1 0 0.95 0.7 1.65t1.65 0.7 1.65-0.7 0.7-1.65m4.5-7.5q-0.7-0.7-1.65-0.7t-1.65 0.7-0.7 1.65 0.7 1.65 1.65 0.7 1.65-0.7 0.7-1.65-0.7-1.65m-9 1.75q0-0.05 0-0.1 0-0.95-0.7-1.65t-1.65-0.7-1.65 0.7-0.7 1.65q0 0.05 0 0.1 0 0.95 0.7 1.65t1.65 0.7 1.65-0.7 0.7-1.65m5.1-4.55q0-0.95-0.7-1.65-0.3-0.3-0.7-0.5-0.45-0.25-1.05-0.25-0.95 0-1.65 0.7t-0.7 1.65q0 0.05 0 0.1 0 0.95 0.7 1.65 0.3 0.3 0.7 0.5 0.45 0.25 1.05 0.25 0.95 0 1.65-0.7t0.7-1.65q0-0.05 0-0.1m13.6 2.8q-0.7-0.7-1.65-0.7t-1.65 0.7-0.7 1.65 0.7 1.65 1.65 0.7 1.65-0.7 0.7-1.65-0.7-1.65m-6.35-5.2q-0.95 0-1.65 0.7t-0.7 1.65 0.7 1.65q0.3 0.3 0.7 0.5 0.45 0.25 1.05 0.25 0.95 0 1.65-0.7t0.7-1.65-0.7-1.65q-0.3-0.3-0.7-0.5-0.45-0.25-1.05-0.25m3.55-5.05q-0.7 0.7-0.7 1.65t0.7 1.65q0.3 0.3 0.7 0.5 0.45 0.25 1.05 0.25 0.95 0 1.65-0.7t0.7-1.65-0.7-1.65q-0.3-0.3-0.7-0.5-0.45-0.25-1.05-0.25-0.95 0-1.65 0.7m-2.95-5.15q-0.95 0-1.65 0.7t-0.7 1.65 0.7 1.65 1.65 0.7 1.65-0.7 0.7-1.65-0.7-1.65-1.65-0.7m-6.75 5.15q-0.7 0.7-0.7 1.65t0.7 1.65q0.3 0.3 0.7 0.5 0.45 0.25 1.05 0.25 0.95 0 1.65-0.7t0.7-1.65-0.7-1.65q-0.3-0.3-0.7-0.5-0.45-0.25-1.05-0.25-0.95 0-1.65 0.7m-2.95-5.15q-0.95 0-1.65 0.7t-0.7 1.65q0 0.05 0 0.1 0 0.95 0.7 1.65t1.65 0.7 1.65-0.7 0.7-1.65q0-0.05 0-0.1 0-0.95-0.7-1.65t-1.65-0.7m5.2-5.75q-0.95 0-1.65 0.7t-0.7 1.65 0.7 1.65 1.65 0.7 1.65-0.7 0.7-1.65-0.7-1.65-1.65-0.7m-11.95 10.9q-0.7 0.7-0.7 1.65 0 0.05 0 0.1 0 0.95 0.7 1.65 0.3 0.3 0.7 0.5 0.45 0.25 1.05 0.25 0.95 0 1.65-0.7t0.7-1.65q0-0.05 0-0.1 0-0.95-0.7-1.65-0.3-0.3-0.7-0.5-0.45-0.25-1.05-0.25-0.95 0-1.65 0.7m-2.95-5.05q-0.95 0-1.65 0.7t-0.7 1.65 0.7 1.65 1.65 0.7 1.65-0.7 0.7-1.65-0.7-1.65-1.65-0.7m-5.1 4.45q-0.95 0-1.65 0.7t-0.7 1.65 0.7 1.65q0.3 0.3 0.7 0.5 0.45 0.25 1.05 0.25 0.95 0 1.65-0.7t0.7-1.65-0.7-1.65q-0.3-0.3-0.7-0.5-0.45-0.25-1.05-0.25m10.3-10.3q-0.95 0-1.65 0.7t-0.7 1.65q0 0.05 0 0.1 0 0.95 0.7 1.65t1.65 0.7 1.65-0.7 0.7-1.65q0-0.05 0-0.1 0-0.95-0.7-1.65t-1.65-0.7m-8.05 0.8q-0.7-0.7-1.65-0.7t-1.65 0.7-0.7 1.65 0.7 1.65 1.65 0.7 1.65-0.7 0.7-1.65-0.7-1.65m64 10.1q-0.7 0.7-0.7 1.65t0.7 1.65q0.3 0.3 0.7 0.5 0.45 0.25 1.05 0.25 0.95 0 1.65-0.7t0.7-1.65-0.7-1.65q-0.3-0.3-0.7-0.5-0.45-0.25-1.05-0.25-0.95 0-1.65 0.7m-2.95-5.15q-0.95 0-1.65 0.7t-0.7 1.65 0.7 1.65 1.65 0.7 1.65-0.7 0.7-1.65-0.7-1.65-1.65-0.7m-2.65 6.85q0-0.95-0.7-1.65-0.3-0.3-0.7-0.5-0.45-0.25-1.05-0.25-0.95 0-1.65 0.7t-0.7 1.65 0.7 1.65q0.3 0.3 0.7 0.5 0.45 0.25 1.05 0.25 0.95 0 1.65-0.7t0.7-1.65m-5.4-6.15q-0.7-0.7-1.65-0.7t-1.65 0.7-0.7 1.65 0.7 1.65 1.65 0.7 1.65-0.7 0.7-1.65-0.7-1.65m3.55-6.45q-0.95 0-1.65 0.7t-0.7 1.65 0.7 1.65 1.65 0.7 1.65-0.7 0.7-1.65-0.7-1.65-1.65-0.7m11.35 0.7q-0.7-0.7-1.65-0.7t-1.65 0.7-0.7 1.65 0.7 1.65 1.65 0.7 1.65-0.7 0.7-1.65-0.7-1.65m-23.3 10.2q-0.7 0.7-0.7 1.65t0.7 1.65q0.3 0.3 0.7 0.5 0.45 0.25 1.05 0.25 0.95 0 1.65-0.7t0.7-1.65-0.7-1.65q-0.3-0.3-0.7-0.5-0.45-0.25-1.05-0.25-0.95 0-1.65 0.7m-1.3-4.45q-0.7-0.7-1.65-0.7t-1.65 0.7-0.7 1.65 0.7 1.65 1.65 0.7 1.65-0.7 0.7-1.65-0.7-1.65m-5 4.5q-0.3-0.3-0.7-0.5-0.45-0.25-1.05-0.25-0.95 0-1.65 0.7t-0.7 1.65 0.7 1.65q0.3 0.3 0.7 0.5 0.45 0.25 1.05 0.25 0.95 0 1.65-0.7t0.7-1.65-0.7-1.65m-4.7-4.5q-0.7-0.7-1.65-0.7t-1.65 0.7-0.7 1.65 0.7 1.65 1.65 0.7 1.65-0.7 0.7-1.65-0.7-1.65m-4.5-2.45q0.7-0.7 0.7-1.65t-0.7-1.65-1.65-0.7-1.65 0.7-0.7 1.65 0.7 1.65 1.65 0.7 1.65-0.7m8.05-4q-0.95 0-1.65 0.7t-0.7 1.65 0.7 1.65 1.65 0.7 1.65-0.7 0.7-1.65-0.7-1.65-1.65-0.7m9.7 0q-0.95 0-1.65 0.7t-0.7 1.65 0.7 1.65 1.65 0.7 1.65-0.7 0.7-1.65-0.7-1.65-1.65-0.7m23.95 40.45q0.7-0.7 0.7-1.65t-0.7-1.65-1.65-0.7-1.65 0.7-0.7 1.65 0.7 1.65 1.65 0.7 1.65-0.7m8.05-4q-0.95 0-1.65 0.7t-0.7 1.65 0.7 1.65 1.65 0.7 1.65-0.7 0.7-1.65-0.7-1.65-1.65-0.7m-7.55-9.55q-0.7-0.7-1.65-0.7t-1.65 0.7-0.7 1.65 0.7 1.65 1.65 0.7 1.65-0.7 0.7-1.65-0.7-1.65m5.7 1.65q0 0.95 0.7 1.65t1.65 0.7 1.65-0.7 0.7-1.65-0.7-1.65-1.65-0.7-1.65 0.7-0.7 1.65m-1 2.85q-0.7-0.7-1.65-0.7t-1.65 0.7-0.7 1.65 0.7 1.65 1.65 0.7 1.65-0.7 0.7-1.65-0.7-1.65m-2.8-10.25q-0.7 0.7-0.7 1.65t0.7 1.65 1.65 0.7 1.65-0.7 0.7-1.65-0.7-1.65-1.65-0.7-1.65 0.7m-0.6-2.8q0-0.95-0.7-1.65-0.3-0.3-0.7-0.5-0.45-0.25-1.05-0.25-0.95 0-1.65 0.7t-0.7 1.65 0.7 1.65q0.3 0.3 0.7 0.5 0.45 0.25 1.05 0.25 0.95 0 1.65-0.7t0.7-1.65m9.7 0q0-0.95-0.7-1.65-0.3-0.3-0.7-0.5-0.45-0.25-1.05-0.25-0.95 0-1.65 0.7t-0.7 1.65 0.7 1.65q0.3 0.3 0.7 0.5 0.45 0.25 1.05 0.25 0.95 0 1.65-0.7t0.7-1.65m-4.2-10.25q0 0.95 0.7 1.65t1.65 0.7 1.65-0.7q0.5-0.5 0.65-1.15v-1q-0.15-0.65-0.65-1.15-0.7-0.7-1.65-0.7t-1.65 0.7-0.7 1.65m-4.4 2.8q-0.7 0.7-0.7 1.65t0.7 1.65q0.3 0.3 0.7 0.5 0.45 0.25 1.05 0.25 0.95 0 1.65-0.7t0.7-1.65-0.7-1.65q-0.3-0.3-0.7-0.5-0.45-0.25-1.05-0.25-0.95 0-1.65 0.7m-1.3-4.45q-0.7-0.7-1.65-0.7t-1.65 0.7-0.7 1.65 0.7 1.65 1.65 0.7 1.65-0.7 0.7-1.65-0.7-1.65m5.2-5.75q-0.7-0.7-1.65-0.7t-1.65 0.7-0.7 1.65 0.7 1.65 1.65 0.7 1.65-0.7 0.7-1.65-0.7-1.65z" fill="#3a3a3a"/>
  <path d="m24.85 31.5q-0.95 0-1.65 0.7t-0.7 1.65q0 0.05 0 0.1 0 0.95 0.7 1.65t1.65 0.7 1.65-0.7 0.7-1.65q0-0.05 0-0.1 0-0.95-0.7-1.65t-1.65-0.7m8.05 0.7q-0.7 0.7-0.7 1.65t0.7 1.65 1.65 0.7 1.65-0.7 0.7-1.65-0.7-1.65-1.65-0.7-1.65 0.7m-17.75-0.6q-0.95 0-1.65 0.7t-0.7 1.65 0.7 1.65 1.65 0.7 1.65-0.7 0.7-1.65-0.7-1.65-1.65-0.7m50.15 0.6q-0.7-0.7-1.65-0.7t-1.65 0.7-0.7 1.65 0.7 1.65 1.65 0.7 1.65-0.7 0.7-1.65-0.7-1.65m10.4 1.65q0-0.95-0.7-1.65t-1.65-0.7-1.65 0.7-0.7 1.65 0.7 1.65 1.65 0.7 1.65-0.7 0.7-1.65m-33.8 0q0 0.95 0.7 1.65t1.65 0.7 1.65-0.7 0.7-1.65-0.7-1.65-1.65-0.7-1.65 0.7-0.7 1.65m13.7-1.65q-0.7-0.7-1.65-0.7t-1.65 0.7-0.7 1.65 0.7 1.65 1.65 0.7 1.65-0.7 0.7-1.65-0.7-1.65m29.8 1.65q0-0.95-0.7-1.65t-1.65-0.7-1.65 0.7-0.7 1.65 0.7 1.65 1.65 0.7 1.65-0.7 0.7-1.65m9.15-1.45q-0.05-0.1-0.15-0.2-0.7-0.7-1.65-0.7t-1.65 0.7-0.7 1.65 0.7 1.65 1.65 0.7 1.65-0.7q0.1-0.1 0.15-0.15z" fill="#313131"/>
  <path d="m32.4 28.1q0-0.95-0.7-1.65t-1.65-0.7-1.65 0.7-0.7 1.65 0.7 1.65 1.65 0.7 1.65-0.7 0.7-1.65m-20.1 1.75q0.7-0.7 0.7-1.65t-0.7-1.65-1.65-0.7-1.65 0.7-0.7 1.65 0.7 1.65 1.65 0.7 1.65-0.7m6.4-3.4q-0.7 0.7-0.7 1.65 0 0.05 0 0.1 0 0.95 0.7 1.65t1.65 0.7 1.65-0.7 0.7-1.65q0-0.05 0-0.1 0-0.95-0.7-1.65t-1.65-0.7-1.65 0.7m51.8 0q-0.7-0.7-1.65-0.7t-1.65 0.7-0.7 1.65 0.7 1.65 1.65 0.7 1.65-0.7 0.7-1.65-0.7-1.65m9.7 0q-0.7-0.7-1.65-0.7t-1.65 0.7-0.7 1.65 0.7 1.65 1.65 0.7 1.65-0.7 0.7-1.65-0.7-1.65m-38.8 3.3q0.7-0.7 0.7-1.65t-0.7-1.65-1.65-0.7-1.65 0.7-0.7 1.65 0.7 1.65 1.65 0.7 1.65-0.7m10.4-1.65q0-0.95-0.7-1.65t-1.65-0.7-1.65 0.7-0.7 1.65 0.7 1.65 1.65 0.7 1.65-0.7 0.7-1.65m5.7 1.65q0.7 0.7 1.65 0.7t1.65-0.7 0.7-1.65-0.7-1.65-1.65-0.7-1.65 0.7-0.7 1.65 0.7 1.65m30.75-4q-0.95 0-1.65 0.7t-0.7 1.65 0.7 1.65 1.65 0.7 1.65-0.7 0.7-1.65-0.7-1.65-1.65-0.7z" fill="#2a2a2a"/>
 </g>
 <path d="m96.25 27.3q0-7.8-7.8-7.8h-76.9q-7.8 0-7.8 7.8v45.4q0 7.8 7.8 7.8h76.9q7.8 0 7.8-7.8z" fill="none" stroke="#202020" stroke-linecap="round" stroke-linejoin="round" stroke-width="4"/>
</svg>
