<svg xmlns="http://www.w3.org/2000/svg" width="64" height="64">
    <path fill="#FFF" d="M56 32q0 8.25-7 14.1Q41.95 52 32 52l-5.75-.55Q19.9 50.2 15 46.1 8 40.25 8 32t7-14.15Q22.05 12 32 12t17 5.85q4.55 3.85 6.15 8.65.85 2.6.85 5.5m-32 1q.05 3.1 2.25 5.4l.15.15 1.7 1.35q1.85 1.1 4.1 1.1 2.3 0 4.15-1.1l1.7-1.35q1.3-1.3 1.95-2.9l-3.9-1.5-.95 1.55q-1.25 1.2-2.95 1.2t-2.85-1.2q-1.2-1.2-1.25-2.85V31.1q.05-1.65 1.25-2.75 1.15-1.25 2.85-1.25t2.95 1.25q.65.65.95 1.55l3.9-1.55-1-1.85-.95-1.1Q35.6 23 32.2 23t-5.8 2.4q-2.15 2.15-2.35 5.05H24z"/>
</svg>
