<svg xmlns="http://www.w3.org/2000/svg" width="64" height="64">
    <path fill="none" d="M43 10.1v.25q0 2-1.3 3.25l-.4.4q-1.3 1.05-2.9 1H25.6q-1.7 0-2.85-1l-.5-.5Q21 12.25 21 10.35v-.25q.1-1.7 1.25-2.95l.05-.1L28.7.4Q30-1 32-1q1.85-.05 3.3 1.35V.4l6.4 6.65.1.1Q42.9 8.4 43 10.1m-.2 30.05.2 1.5q0 1.85-1.2 3.2l-.1.1-6.4 6.65v.05Q33.85 53.05 32 53q-2 0-3.3-1.4l-6.4-6.65-.05-.1Q21 43.5 21 41.65q0-.85.25-1.5.3-.95 1-1.65 1.3-1.5 3.35-1.5h12.8q1.85-.05 3.3 1.4.75.75 1.1 1.75M30.85 2.5l-6.4 6.65q-.45.5-.45 1.2t.45 1.15q.45.5 1.15.5h12.8q.65 0 1.15-.5.45-.45.45-1.15t-.45-1.2l-6.4-6.65Q32.65 2 32 2q-.7 0-1.15.5m0 47q.45.5 1.15.5.65 0 1.15-.5l6.4-6.65q.45-.5.45-1.2v-.35l-.45-.8q-.5-.5-1.15-.5H25.6q-.7 0-1.15.5l-.4.8-.05.35q0 .7.45 1.2z"/>
    <path fill="#FFF" d="m30.85 49.5-6.4-6.65q-.45-.5-.45-1.2l.05-.35.4-.8q.45-.5 1.15-.5h12.8q.65 0 1.15.5l.45.8v.35q0 .7-.45 1.2l-6.4 6.65q-.5.5-1.15.5-.7 0-1.15-.5M41.3 14l.4-.4q1.3-1.25 1.3-3.25v-.25q3.2 1.3 5.95 3.55Q56 19.4 56 27.4v3.25q0 8.05-7.05 13.65-2.75 2.25-5.95 3.6V50q0 2.5-3.25 4.25Q36.55 56 32 56q-4.5 0-7.75-1.75T21 50v-2.1q-3.2-1.35-6-3.6-7-5.6-7-13.65V27.4q0-8 7-13.75 2.8-2.25 6-3.55v.25q0 1.9 1.25 3.15l.5.5q-2.9 1.15-5.35 3.1h.05q-5.3 4.3-5.45 10.3.1 6.05 5.4 10.25l3.85 2.5q-.25.65-.25 1.5 0 1.85 1.25 3.2l.05.1 6.4 6.65Q30 53 32 53q1.85.05 3.3-1.35v-.05l6.4-6.65.1-.1q1.2-1.35 1.2-3.2l-.2-1.5 3.75-2.45.05-.05Q51.9 33.4 52 27.4q-.15-6-5.45-10.3-2.45-1.95-5.25-3.1m-10.1 1h1.6q6.65.25 11.4 4h-.05q3.55 3 3.85 6.95v.1q-.3 3.95-3.8 6.85l-.2.15q-4.65 3.7-11.2 3.95h-1.6q-6.65-.25-11.4-4.05l-.1-.05Q16.3 30 16 26.1v-.05Q16.25 22 19.85 19l.1-.1Q24.7 15.2 31.2 15m-.35-12.5Q31.3 2 32 2q.65 0 1.15.5l6.4 6.65q.45.5.45 1.2t-.45 1.15q-.5.5-1.15.5H25.6q-.7 0-1.15-.5-.45-.45-.45-1.15t.45-1.2z"/>
</svg>
