<svg xmlns="http://www.w3.org/2000/svg" xml:space="preserve" width="64" height="64" viewBox="0 0 16.933 16.933">
    <path fill="#d7d7d7" d="M-14.742 46.87q0-2.084-2.084-2.084h-6.413q-2.085 0-2.085 2.084v3.602q0 2.084 2.085 2.084h6.413q2.084 0 2.084-2.084zm-2.084-.754q.754 0 .754.754v3.602q0 .754-.754.754h-6.413q-.754 0-.754-.754V46.87q0-.754.754-.754z"/>
    <path fill="#f5f5f5" d="M-16.072 46.87q0-.754-.754-.754h-6.413q-.754 0-.754.754v3.602q0 .754.754.754h6.413q.754 0 .754-.754zm-4.276.905h-.86v2.422h-.665v-2.422h-.86v-.585h2.385zm2.307-.585h.71l-1.243 3.007h-.532l-1.206-3.007h.754l.745 1.969h.009z"/>
    <path fill="#4196f3" d="M-17.332 47.19h-.71l-.762 1.969h-.01l-.744-1.97h-.754l1.206 3.008h.532zm-3.876.585h.86v-.585h-2.386v.585h.86v2.422h.666z"/>
    <path fill="none" stroke="#fff" stroke-linecap="round" stroke-linejoin="round" stroke-width=".71" d="M-16.826 46.116q.754 0 .754.754v3.602q0 .754-.754.754h-6.413q-.754 0-.754-.754V46.87q0-.754.754-.754z"/>
    <path fill="none" stroke="#404040" stroke-linecap="round" stroke-linejoin="round" stroke-width=".71" d="M-14.742 46.87q0-2.084-2.084-2.084h-6.413q-2.085 0-2.085 2.084v3.602q0 2.084 2.085 2.084h6.413q2.084 0 2.084-2.084z"/>
    <path fill="#d7d7d7" d="M-28.695 47.39q-.035-.674-.576-.842-1.208-.246-2.315-.453-.13-.02-.258-.044-.381-.07-.745-.133-1.078-.195-2.049-.355-3.173-.514-5.198-.63-3.53-.212-3.583 1.863v3.495q.106 2.093 2.43 2.138l11.718-.204q.54-.107.576-.78zm-1.33.363v3.158l-10.964.186q-1.002-.026-1.1-.869v-3.433q.01-.222.204-.32.666-.292 1.97-.212 2.04.116 5.277.648.971.158 2.05.354.363.071.744.142.128.024.258.045.758.142 1.56.301"/>
    <path fill="#f5f5f5" d="M-30.025 50.912v-3.158q-.803-.159-1.561-.301-.13-.021-.258-.045-.381-.07-.745-.142-1.078-.196-2.049-.354-3.237-.532-5.277-.648-1.304-.08-1.97.213-.195.097-.204.32v3.432q.098.843 1.1.87zm-9.057-3.548v.514l-1.312 1.588h1.357v.532h-2.085v-.532l1.33-1.588h-1.286v-.514zm.47 0h.577v2.102h1.082v.532h-1.659Z"/>
    <path fill="#999" d="M-38.035 47.364h-.577v2.634h1.66v-.532h-1.083zm-1.047.514v-.514h-1.996v.514h1.287l-1.33 1.588v.532h2.084v-.532h-1.357z"/>
    <path fill="none" stroke="#fff" stroke-linecap="round" stroke-linejoin="round" stroke-width=".71" d="M-30.025 50.912v-3.158q-.803-.159-1.561-.297l-.258-.049q-.381-.07-.745-.142-1.078-.196-2.049-.354-3.237-.532-5.277-.648-1.304-.08-1.97.213-.195.097-.204.32v3.432q.098.843 1.1.87z"/>
    <path fill="none" stroke="#404040" stroke-linecap="round" stroke-linejoin="round" stroke-width=".71" d="M-29.271 46.548q.54.168.576.843v4.053q-.035.674-.576.78l-11.718.205q-2.324-.045-2.43-2.138v-3.495q.053-2.075 3.583-1.863 2.025.116 5.198.63.971.16 2.05.355.363.062.744.133.128.023.258.049 1.107.202 2.315.448"/>
    <path fill="#d7d7d7" d="M-46.79 50.291v-3.495q-.053-2.075-3.584-1.863-2.642.153-7.247.976-.366.072-.745.142-1.221.226-2.572.497-.541.168-.577.843v4.053q.036.674.577.78l11.718.205q2.324-.045 2.43-2.138m-1.535-3.814q.196.097.205.32v3.432q-.098.843-1.1.87l-10.964-.187v-3.158q.942-.186 1.818-.355.38-.066.745-.133 4.673-.847 7.327-1.002 1.304-.08 1.97.213"/>
    <path fill="#f5f5f5" d="M-48.12 46.796q-.01-.222-.205-.32-.665-.292-1.969-.212-2.654.155-7.327 1.002-.366.067-.745.133-.876.169-1.818.355v3.158l10.964.186q1.002-.026 1.1-.869zm-5.367 1.082v-.514h1.996v.514l-1.313 1.588h1.357v.532h-2.084v-.532l1.33-1.588zm3.46-.514q.203 0 .38.035.187.036.32.133.133.09.213.24.08.16.08.39 0 .275-.142.47-.142.204-.426.249l.674 1.117h-.7l-.55-1.055h-.284v1.055h-.586v-2.634zm-.434.488v.603h.337q.08 0 .168-.009.09-.009.16-.035t.115-.09q.045-.052.045-.168 0-.097-.036-.16-.044-.053-.106-.088t-.142-.044q-.089-.01-.16-.01z"/>
    <path fill="#999" d="M-49.646 47.4q-.178-.036-.382-.036h-1.02v2.634h.586v-1.055h.284l.55 1.055h.7l-.674-1.117q.284-.045.426-.249.142-.195.142-.47 0-.23-.08-.39-.08-.15-.213-.24-.133-.097-.32-.133m-.815 1.056v-.603h.381q.071 0 .16.009.08.009.142.044t.106.089q.036.062.036.16 0 .115-.045.168-.044.062-.115.089-.07.026-.16.035-.088.009-.168.009zm-3.025-1.091v.514h1.286l-1.33 1.588v.532h2.084v-.532h-1.357l1.313-1.588v-.514z"/>
    <path fill="none" stroke="#fff" stroke-linecap="round" stroke-linejoin="round" stroke-width=".71" d="M-60.184 47.754q.942-.186 1.818-.35l.745-.138q4.673-.847 7.327-1.002 1.304-.08 1.97.213.195.097.204.32v3.432q-.098.843-1.1.87l-10.964-.187Z"/>
    <path fill="none" stroke="#404040" stroke-linecap="round" stroke-linejoin="round" stroke-width=".71" d="M-46.79 50.291v-3.495q-.053-2.075-3.584-1.863-2.642.153-7.247.98l-.745.138q-1.221.226-2.572.497-.541.168-.577.843v4.053q.036.674.577.78l11.718.205q2.324-.045 2.43-2.138"/>
    <path fill="#d7d7d7" d="m-64.974 53.598-.39-9.394q-.905-1.907-2.67-2.217l-9.412.692q-.585.345-.62.993.39 5.162-.666 9.979.266 1.747 1.765 1.703h8.933q1.827-.222 3.06-1.756m-4.098-10.112q.674.124.763.665.337 3.938.088 7.877-.301.834-1.153 1.082-3.654.275-7.114.08-.798-.169-.895-.896.789-3.309.567-8.294Z"/>
    <path fill="#f5f5f5" d="M-68.31 44.151q-.088-.541-.762-.665l-7.744.514q.222 4.985-.567 8.294.097.727.895.896 3.46.195 7.114-.08.852-.248 1.153-1.082.249-3.939-.088-7.877m-2.759 3.992h1.792v.896h-2.759v-4.4h.967z"/>
    <path fill="#9a9a9a" d="M-69.276 48.143h-1.792v-3.504h-.967v4.4h2.759Z"/>
    <path fill="none" stroke="#404040" stroke-linecap="round" stroke-linejoin="round" stroke-width=".887" d="m-64.974 53.598-.39-9.394q-.905-1.907-2.67-2.217l-9.412.692q-.585.345-.62.993.39 5.162-.666 9.979.266 1.747 1.765 1.703h8.933q1.827-.222 3.06-1.756"/>
    <path fill="none" stroke="#fff" stroke-linecap="round" stroke-linejoin="round" stroke-width=".71" d="M-69.072 43.486q.674.124.763.665.337 3.938.088 7.877-.301.834-1.153 1.082-3.654.275-7.114.08-.798-.169-.895-.896.789-3.309.567-8.294Z"/>
    <path fill="#d7d7d7" d="M14.68 3.468q-.035-.648-.62-.994l-9.412-.692Q2.883 2.092 1.978 4l-.39 9.394q1.233 1.534 3.06 1.756h8.932q1.5.044 1.766-1.703-1.056-4.817-.666-9.98m-9.757.48q.089-.541.763-.666l7.744.515q-.222 4.985.567 8.294-.097.727-.896.896-3.459.195-7.114-.08-.851-.249-1.153-1.082-.248-3.939.089-7.877"/>
    <path fill="#f5f5f5" d="M5.686 3.281q-.674.125-.763.666-.337 3.938-.089 7.877.302.833 1.153 1.082 3.655.275 7.114.08.799-.169.896-.896-.79-3.309-.567-8.294zm3.512 1.846q.134.257.134.647 0 .461-.24.79-.248.328-.71.408L9.5 8.834H8.338l-.922-1.756h-.47v1.756h-.967v-4.4h1.694q.337 0 .638.072.302.062.524.212.23.151.363.409m-1.623.133h-.63v.993h.568q.133 0 .275-.009t.266-.053q.116-.044.195-.142.071-.098.071-.284 0-.168-.062-.266-.07-.098-.177-.15-.107-.054-.24-.072t-.266-.017"/>
    <path fill="#9a9a9a" d="M9.332 5.774q0-.39-.134-.647-.133-.258-.363-.409-.222-.15-.524-.212-.301-.071-.638-.071H5.979v4.4h.966V7.077h.47l.923 1.756H9.5L8.382 6.972q.462-.08.71-.409.24-.328.24-.789M6.945 5.26h.63q.133 0 .266.017t.24.071.177.151q.062.098.062.266 0 .186-.07.284-.08.098-.196.142-.124.044-.266.053t-.275.009h-.568z"/>
    <path fill="none" stroke="#404040" stroke-linecap="round" stroke-linejoin="round" stroke-width=".887" d="M14.06 2.474q.585.346.62.994-.39 5.162.666 9.979-.267 1.747-1.766 1.703H4.648q-1.827-.222-3.06-1.756L1.978 4q.905-1.907 2.67-2.218Z"/>
    <path fill="none" stroke="#fff" stroke-linecap="round" stroke-linejoin="round" stroke-width=".71" d="M5.686 3.281q-.674.125-.763.666-.337 3.938-.089 7.877.302.833 1.153 1.082 3.655.275 7.114.08.799-.169.896-.896-.79-3.309-.567-8.294Z"/>
    <path fill="#404040" d="M-99.151 49.101q.009-.215.009-.435 0-.961-.213-1.836-.47-1.94-1.987-3.45-.019-.018-.027-.045-2.15-2.111-5.224-2.11-3.095-.001-5.296 2.155-2.165 2.192-2.164 5.286 0 3.086 2.164 5.27.013.012.018.026 2.197 2.156 5.278 2.155 3.086 0 5.25-2.173l.019-.017.009-.01q2.018-2.018 2.164-4.816m-.816-.435q0 .22-.018.435-.139 2.464-1.934 4.258-1.932 1.933-4.674 1.934t-4.693-1.934q-1.933-1.95-1.933-4.693 0-2.727 1.907-4.665l.026-.027q1.951-1.933 4.693-1.934t4.674 1.943q1.263 1.256 1.703 2.847.249.869.249 1.836"/>
    <path fill="#d7d7d7" d="M-99.985 49.101q.018-.215.018-.435 0-.967-.249-1.836-.44-1.59-1.703-2.847-1.932-1.942-4.674-1.943-2.742 0-4.693 1.934l-.026.027q-1.907 1.938-1.907 4.665 0 2.742 1.933 4.693 1.951 1.933 4.693 1.934t4.674-1.934q1.795-1.794 1.934-4.258m-2.714-4.284q.893.9 1.277 2.013.302.856.302 1.836 0 .22-.018.435-.137 1.991-1.579 3.442-1.606 1.597-3.876 1.596-2.256 0-3.85-1.578-.005-.014-.018-.027-1.597-1.615-1.596-3.868 0-2.27 1.596-3.867 1.598-1.597 3.868-1.597 2.252 0 3.867 1.597.013.013.027.018"/>
    <path fill="#fff" d="M-101.422 46.83q-.384-1.112-1.277-2.013-.014-.005-.027-.018-1.615-1.597-3.867-1.597-2.27 0-3.868 1.597-1.597 1.598-1.596 3.867 0 2.253 1.596 3.868.013.013.018.027 1.594 1.579 3.85 1.578 2.27 0 3.876-1.596 1.442-1.45 1.579-3.442.018-.214.018-.435 0-.98-.302-1.836m-1.756-1.57q.708.708 1.055 1.57.346.844.346 1.836 0 .221-.017.435-.138 1.719-1.384 2.98-1.419 1.401-3.415 1.402-2.006 0-3.406-1.401-1.42-1.419-1.42-3.416 0-2.005 1.41-3.406l.01-.009q1.4-1.41 3.406-1.41 1.996 0 3.415 1.42"/>
    <path fill="#f5f5f5" d="M-102.123 46.83q-.347-.862-1.055-1.57-1.419-1.419-3.415-1.419-2.006 0-3.406 1.41l-.01.01q-1.41 1.4-1.41 3.405 0 1.997 1.42 3.416 1.4 1.4 3.406 1.401 1.996 0 3.415-1.401 1.246-1.262 1.384-2.98.017-.215.017-.436 0-.992-.346-1.836m-7.185 5.518v-3.53h-1.72l4.435-4.258 4.435 4.257h-1.721v3.53zm3.93-4h-2.44v2.43h2.44z"/>
    <path fill="#9a9a9a" d="M-109.308 48.817v3.53h5.429v-3.53h1.72l-4.434-4.257-4.435 4.257zm1.49-.47h2.44v2.43h-2.44Z"/>
    <path fill="#404040" d="M-116.723 49.101q.009-.215.009-.435 0-.961-.213-1.836-.47-1.94-1.987-3.45-.019-.018-.027-.045-2.15-2.111-5.224-2.11-3.095-.001-5.296 2.155-2.165 2.192-2.164 5.286 0 3.086 2.164 5.27.013.012.018.026 2.197 2.156 5.278 2.155 3.086 0 5.25-2.173l.019-.017.009-.01q2.018-2.018 2.164-4.816m-.816-.435q0 .22-.018.435-.139 2.464-1.934 4.258-1.932 1.933-4.674 1.934t-4.693-1.934q-1.933-1.95-1.933-4.693 0-2.727 1.907-4.665l.026-.027q1.951-1.933 4.693-1.934t4.674 1.943q1.263 1.256 1.703 2.847.249.869.249 1.836"/>
    <path fill="#d7d7d7" d="M-117.557 49.101q.018-.215.018-.435 0-.967-.249-1.836-.44-1.59-1.703-2.847-1.932-1.942-4.674-1.943-2.742 0-4.693 1.934l-.026.027q-1.907 1.938-1.907 4.665 0 2.742 1.933 4.693 1.951 1.933 4.693 1.934t4.674-1.934q1.795-1.794 1.934-4.258m-2.74-4.302q.012.013.026.018.893.9 1.277 2.013.302.856.302 1.836 0 .22-.018.435-.137 1.991-1.579 3.442-1.606 1.597-3.876 1.596-2.256 0-3.85-1.578-.005-.014-.018-.027-1.597-1.615-1.596-3.868 0-2.27 1.596-3.867 1.598-1.597 3.868-1.597 2.252 0 3.867 1.597"/>
    <path fill="#fff" d="M-120.271 44.817q-.014-.005-.027-.018-1.615-1.597-3.867-1.597-2.27 0-3.868 1.597-1.597 1.598-1.596 3.867 0 2.253 1.596 3.868.013.013.018.027 1.594 1.579 3.85 1.578 2.27 0 3.876-1.596 1.442-1.45 1.579-3.442.018-.214.018-.435 0-.98-.302-1.836-.384-1.112-1.277-2.013m-.48.443q.709.708 1.056 1.57.346.844.346 1.836 0 .221-.017.435-.138 1.719-1.384 2.98-1.419 1.401-3.415 1.402-2.006 0-3.406-1.401-1.42-1.419-1.42-3.416 0-2.005 1.41-3.406l.01-.009q1.4-1.41 3.406-1.41 1.996 0 3.415 1.42"/>
    <path fill="#f5f5f5" d="M-119.695 46.83q-.347-.862-1.055-1.57-1.419-1.419-3.415-1.419-2.006 0-3.406 1.41l-.01.01q-1.41 1.4-1.41 3.405 0 1.997 1.42 3.416 1.4 1.4 3.406 1.401 1.996 0 3.415-1.401 1.246-1.262 1.384-2.98.017-.215.017-.436 0-.992-.346-1.836m-5.668-.736 1.198 2.111 1.268-2.11h1.473l-2.12 3.237v2.412h-1.251v-2.412l-2.12-3.238Z"/>
    <path fill="#9a9a9a" d="m-124.165 48.205-1.198-2.11h-1.552l2.12 3.237v2.412h1.25v-2.412l2.12-3.238h-1.472z"/>
    <path fill="#404040" d="M-134.295 49.101q.009-.215.009-.435 0-.961-.213-1.836-.47-1.94-1.987-3.45-.019-.018-.027-.045-2.15-2.111-5.224-2.11-3.095-.001-5.296 2.155-2.165 2.192-2.164 5.286 0 3.086 2.164 5.27.013.012.018.026 2.197 2.156 5.278 2.155 3.086 0 5.25-2.173l.019-.017.009-.01q2.018-2.018 2.164-4.816m-.816-.435q0 .22-.018.435-.139 2.464-1.934 4.258-1.932 1.933-4.674 1.934t-4.693-1.934q-1.933-1.95-1.933-4.693 0-2.727 1.907-4.665l.026-.027q1.951-1.933 4.693-1.934t4.674 1.943q1.263 1.256 1.703 2.847.249.869.249 1.836"/>
    <path fill="#d7d7d7" d="M-135.129 49.101q.018-.215.018-.435 0-.967-.249-1.836-.44-1.59-1.703-2.847-1.932-1.942-4.674-1.943-2.742 0-4.693 1.934l-.026.027q-1.907 1.938-1.907 4.665 0 2.742 1.933 4.693 1.951 1.933 4.693 1.934t4.674-1.934q1.795-1.794 1.934-4.258m-2.74-4.302q.012.013.026.018.893.9 1.277 2.013.302.856.302 1.836 0 .22-.018.435-.137 1.991-1.579 3.442-1.606 1.597-3.876 1.596-2.256 0-3.85-1.578-.005-.014-.018-.027-1.597-1.615-1.596-3.868 0-2.27 1.596-3.867 1.598-1.597 3.868-1.597 2.252 0 3.867 1.597"/>
    <path fill="#fff" d="M-137.843 44.817q-.014-.005-.027-.018-1.615-1.597-3.867-1.597-2.27 0-3.868 1.597-1.597 1.598-1.596 3.867 0 2.253 1.596 3.868.013.013.018.027 1.594 1.579 3.85 1.578 2.27 0 3.876-1.596 1.442-1.45 1.579-3.442.018-.214.018-.435 0-.98-.302-1.836-.384-1.112-1.277-2.013m-.48.443q.709.708 1.056 1.57.346.844.346 1.836 0 .221-.017.435-.138 1.719-1.384 2.98-1.419 1.401-3.415 1.402-2.006 0-3.406-1.401-1.42-1.419-1.42-3.416 0-2.005 1.41-3.406l.01-.009q1.4-1.41 3.406-1.41 1.996 0 3.415 1.42"/>
    <path fill="#f5f5f5" d="M-137.267 46.83q-.347-.862-1.055-1.57-1.419-1.419-3.415-1.419-2.006 0-3.406 1.41l-.01.01q-1.41 1.4-1.41 3.405 0 1.997 1.42 3.416 1.4 1.4 3.406 1.401 1.996 0 3.415-1.401 1.246-1.262 1.384-2.98.017-.215.017-.436 0-.992-.346-1.836m-5.677-.878 1.207 1.978 1.153-1.978h1.508l-1.827 2.67 2.049 2.98h-1.57l-1.375-2.28-1.34 2.28h-1.481l1.978-2.953-1.863-2.697Z"/>
    <path fill="#9a9a9a" d="m-141.737 47.93-1.207-1.978h-1.56l1.862 2.697-1.978 2.954h1.481l1.34-2.28 1.375 2.28h1.57l-2.05-2.98 1.828-2.67h-1.508z"/>
    <path fill="#404040" d="M-151.867 49.101q.009-.215.009-.435 0-.961-.213-1.836-.47-1.94-1.987-3.45-.019-.018-.027-.045-2.15-2.111-5.224-2.11-3.095-.001-5.296 2.155-2.165 2.192-2.164 5.286 0 3.086 2.164 5.27.013.012.018.026 2.197 2.156 5.278 2.155 3.086 0 5.25-2.173l.019-.017.009-.01q2.018-2.018 2.164-4.816m-.816-.435q0 .22-.018.435-.139 2.464-1.934 4.258-1.932 1.933-4.674 1.934t-4.693-1.934q-1.933-1.95-1.933-4.693 0-2.727 1.907-4.665l.026-.027q1.951-1.933 4.693-1.934t4.674 1.943q1.263 1.256 1.703 2.847.249.869.249 1.836"/>
    <path fill="#d7d7d7" d="M-152.7 49.101q.017-.215.017-.435 0-.967-.249-1.836-.44-1.59-1.703-2.847-1.932-1.942-4.674-1.943-2.742 0-4.693 1.934l-.026.027q-1.907 1.938-1.907 4.665 0 2.742 1.933 4.693 1.951 1.933 4.693 1.934t4.674-1.934q1.795-1.794 1.934-4.258m-2.714-4.284q.893.9 1.277 2.013.302.856.302 1.836 0 .22-.018.435-.137 1.991-1.579 3.442-1.606 1.597-3.876 1.596-2.256 0-3.85-1.578-.005-.014-.018-.027-1.597-1.615-1.596-3.868 0-2.27 1.596-3.867 1.598-1.597 3.868-1.597 2.252 0 3.867 1.597.013.013.027.018"/>
    <path fill="#fff" d="M-154.138 46.83q-.384-1.112-1.277-2.013-.014-.005-.027-.018-1.615-1.597-3.867-1.597-2.27 0-3.868 1.597-1.597 1.598-1.596 3.867 0 2.253 1.596 3.868.013.013.018.027 1.594 1.579 3.85 1.578 2.27 0 3.876-1.596 1.442-1.45 1.579-3.442.018-.214.018-.435 0-.98-.302-1.836m-1.756-1.57q.708.708 1.055 1.57.346.844.346 1.836 0 .221-.017.435-.138 1.719-1.384 2.98-1.419 1.401-3.415 1.402-2.006 0-3.406-1.401-1.42-1.419-1.42-3.416 0-2.005 1.41-3.406l.01-.009q1.4-1.41 3.406-1.41 1.996 0 3.415 1.42"/>
    <path fill="#f5f5f5" d="M-154.839 46.83q-.347-.862-1.055-1.57-1.419-1.419-3.415-1.419-2.006 0-3.406 1.41l-.01.01q-1.41 1.4-1.41 3.405 0 1.997 1.42 3.416 1.4 1.4 3.406 1.401 1.996 0 3.415-1.401 1.246-1.262 1.384-2.98.017-.215.017-.436 0-.992-.346-1.836m-3.645-1.038q.381.054.674.205.293.16.479.434.177.284.177.745 0 .48-.266.799-.266.31-.7.443v.018q.274.044.505.15.222.125.381.302.169.178.258.417.088.24.088.515 0 .443-.195.745-.186.301-.497.479-.301.186-.683.266-.372.08-.745.08h-2.315v-5.65h2.102q.373 0 .737.052m.08 4.4q.115-.08.195-.204.08-.133.08-.31 0-.204-.107-.329-.098-.124-.248-.186-.151-.062-.329-.089-.177-.026-.328-.026h-.94v1.286h1.118q.142 0 .292-.027.151-.035.266-.115m-.824-3.406h-.852v1.215h.905q.142 0 .284-.035.142-.027.248-.107.115-.07.186-.186.062-.124.062-.293 0-.177-.07-.292-.08-.116-.205-.178-.115-.062-.266-.089-.15-.035-.292-.035"/>
    <path fill="#9a9a9a" d="M-157.81 45.997q-.293-.151-.674-.205-.364-.053-.737-.053h-2.102v5.65h2.315q.373 0 .745-.08.382-.079.683-.265.31-.178.497-.48.195-.3.195-.744 0-.275-.088-.515-.09-.24-.258-.417-.16-.177-.381-.301-.23-.107-.506-.151v-.018q.435-.133.701-.443.266-.32.266-.799 0-.461-.177-.745-.186-.275-.48-.434m-2.27.789h.852q.141 0 .292.035.151.027.266.09.125.061.204.177.071.115.071.292 0 .169-.062.293-.07.115-.186.186-.106.08-.248.107-.142.035-.284.035h-.905zm1.872 3.202q-.08.124-.196.204-.115.08-.266.115-.15.027-.292.027h-1.118v-1.286h.94q.151 0 .328.026.178.027.329.09.15.061.248.185.106.125.106.329 0 .177-.08.31"/>
    <path fill="#404040" d="M-171.932 42.644q-.017-.018-.017-.036-2.457-2.404-5.952-2.404-3.53 0-6.032 2.44-2.457 2.492-2.457 6.022 0 3.504 2.457 5.979.009.009.026.035 2.493 2.458 6.006 2.458 3.503 0 5.97-2.484 0-.009.017-.018h.018q2.288-2.306 2.457-5.482.009-.24.009-.488 0-1.09-.24-2.093-.54-2.217-2.262-3.93m1.553 6.023q0 .249-.01.488-.168 2.803-2.2 4.843-2.199 2.191-5.312 2.191-3.123 0-5.34-2.19-2.2-2.218-2.2-5.332 0-3.104 2.182-5.304 0-.035.018-.035 2.217-2.2 5.34-2.2 3.113 0 5.313 2.2 1.428 1.437 1.943 3.246.266.985.266 2.093m-.675.4q.01-.196.01-.4 0-.887-.196-1.694-.434-1.792-1.827-3.175-.018-.018-.018-.036-1.987-1.951-4.825-1.951-2.856 0-4.879 1.987-1.996 2.013-1.996 4.87 0 2.847 1.996 4.851.009.01.018.027 2.022 1.987 4.86 1.987 2.848 0 4.844-2.005 0-.009.018-.017h.009q1.853-1.872 1.986-4.444m-.753-.4q0 .204-.01.4-.132 2.27-1.791 3.92-1.774 1.783-4.302 1.783t-4.32-1.783q-1.792-1.792-1.792-4.32 0-2.51 1.774-4.293 0-.026.018-.026 1.792-1.792 4.32-1.792t4.302 1.792q1.162 1.162 1.579 2.625.222.799.222 1.694"/>
    <path fill="#5d5d5d" d="M-170.388 49.154q.009-.24.009-.488 0-1.108-.266-2.093-.515-1.81-1.943-3.246-2.2-2.2-5.313-2.2-3.123 0-5.34 2.2-.018 0-.018.035-2.182 2.2-2.182 5.304 0 3.114 2.2 5.331 2.217 2.191 5.34 2.191 3.113 0 5.313-2.19 2.031-2.04 2.2-4.844m-.657-.488q0 .204-.009.4-.133 2.572-1.986 4.444h-.01q-.017.008-.017.017-1.996 2.005-4.843 2.005-2.839 0-4.861-1.987-.009-.018-.018-.027-1.996-2.004-1.996-4.852 0-2.856 1.996-4.87 2.023-1.986 4.879-1.986 2.838 0 4.825 1.951 0 .018.018.036 1.393 1.383 1.827 3.175.195.807.195 1.694"/>
    <path fill="#d7d7d7" d="M-171.816 49.066q.009-.196.009-.4 0-.895-.222-1.694-.417-1.463-1.58-2.625-1.773-1.792-4.301-1.792t-4.32 1.792q-.018 0-.018.026-1.774 1.783-1.774 4.293 0 2.528 1.792 4.32 1.792 1.783 4.32 1.783t4.302-1.783q1.659-1.65 1.792-3.92m-2.502-3.948q.825.834 1.18 1.854.275.79.275 1.694 0 .204-.009.4-.133 1.827-1.464 3.175-1.48 1.473-3.574 1.473-2.076 0-3.548-1.455-.01-.018-.018-.027-1.473-1.49-1.473-3.566 0-2.093 1.473-3.565 1.472-1.473 3.566-1.473 2.075 0 3.566 1.473.008.008.026.017"/>
    <path fill="#fff" d="M-173.138 46.972q-.355-1.02-1.18-1.854-.018-.009-.026-.017-1.49-1.473-3.566-1.473-2.094 0-3.566 1.473-1.473 1.472-1.473 3.565 0 2.076 1.473 3.566.009.01.018.027 1.472 1.455 3.548 1.455 2.093 0 3.574-1.473 1.331-1.348 1.464-3.175.009-.196.009-.4 0-.904-.275-1.694m-1.623-1.446q.656.657.975 1.446.31.78.31 1.694 0 .204-.008.4-.133 1.587-1.277 2.75-1.313 1.286-3.15 1.286-1.844 0-3.14-1.287-1.303-1.312-1.303-3.149 0-1.845 1.295-3.14l.009-.008q1.295-1.296 3.14-1.296 1.836 0 3.149 1.304"/>
    <path fill="#f5f5f5" d="M-173.786 46.972q-.319-.79-.975-1.446-1.313-1.304-3.15-1.304-1.844 0-3.14 1.296l-.008.008q-1.295 1.295-1.295 3.14 0 1.837 1.304 3.15 1.295 1.286 3.14 1.286 1.836 0 3.149-1.287 1.144-1.162 1.277-2.75.009-.195.009-.399 0-.913-.31-1.694m-2.83-.088q.23.15.364.408.133.257.133.647 0 .461-.24.79-.248.328-.71.408l1.118 1.862h-1.162l-.922-1.756h-.47v1.756h-.967v-4.4h1.694q.337 0 .638.072.302.062.524.213m-1.89 1.534h.568q.133 0 .275-.009t.266-.053q.116-.044.195-.142.071-.098.071-.284 0-.168-.062-.266-.07-.097-.177-.15-.107-.054-.24-.072t-.266-.017h-.63z"/>
    <path fill="#9a9a9a" d="M-176.251 47.292q-.134-.258-.364-.408-.222-.151-.524-.213-.301-.071-.638-.071h-1.694V51h.966v-1.757h.47l.923 1.756h1.162l-1.118-1.862q.462-.08.71-.408.24-.329.24-.79 0-.39-.133-.647m-1.686 1.126h-.568v-.993h.63q.133 0 .266.017t.24.071.177.151q.062.098.062.266 0 .186-.07.284-.08.098-.196.142-.124.044-.266.053t-.275.01"/>
    <path fill="#404040" d="M-189.29 46.573q-.542-2.217-2.263-3.93-.017-.017-.017-.035-2.457-2.404-5.952-2.404-3.53 0-6.032 2.44-2.457 2.492-2.457 6.022 0 3.504 2.457 5.979.009.009.026.035 2.493 2.458 6.006 2.458 3.503 0 5.97-2.484 0-.009.017-.018h.018q2.288-2.306 2.457-5.482.009-.24.009-.488 0-1.09-.24-2.093m-.71 2.093q0 .249-.008.488-.169 2.803-2.2 4.843-2.2 2.191-5.313 2.191-3.123 0-5.34-2.19-2.2-2.218-2.2-5.332 0-3.104 2.182-5.304 0-.035.018-.035 2.217-2.2 5.34-2.2 3.113 0 5.313 2.2 1.428 1.437 1.942 3.246.267.985.267 2.093m-.675.4q.01-.196.01-.4 0-.887-.196-1.694-.434-1.792-1.827-3.175-.018-.018-.018-.036-1.987-1.951-4.825-1.951-2.856 0-4.879 1.987-1.996 2.013-1.996 4.87 0 2.847 1.996 4.851.009.01.018.027 2.022 1.987 4.86 1.987 2.848 0 4.844-2.005 0-.009.018-.017h.009q1.853-1.872 1.986-4.444m-.754-.4q0 .204-.008.4-.133 2.27-1.792 3.92-1.774 1.783-4.302 1.783t-4.32-1.783q-1.792-1.792-1.792-4.32 0-2.51 1.774-4.293 0-.026.018-.026 1.792-1.792 4.32-1.792t4.302 1.792q1.162 1.162 1.579 2.625.221.799.221 1.694"/>
    <path fill="#5d5d5d" d="M-190.01 49.154q.01-.24.01-.488 0-1.108-.267-2.093-.514-1.81-1.942-3.246-2.2-2.2-5.313-2.2-3.123 0-5.34 2.2-.018 0-.018.035-2.182 2.2-2.182 5.304 0 3.114 2.2 5.331 2.217 2.191 5.34 2.191 3.113 0 5.313-2.19 2.031-2.04 2.2-4.844m-.657-.488q0 .204-.009.4-.133 2.572-1.986 4.444h-.01q-.017.008-.017.017-1.996 2.005-4.843 2.005-2.839 0-4.861-1.987-.009-.018-.018-.027-1.996-2.004-1.996-4.852 0-2.856 1.996-4.87 2.023-1.986 4.879-1.986 2.838 0 4.825 1.951 0 .018.018.036 1.393 1.383 1.827 3.175.195.807.195 1.694"/>
    <path fill="#d7d7d7" d="M-191.437 49.066q.008-.196.008-.4 0-.895-.221-1.694-.417-1.463-1.58-2.625-1.773-1.792-4.301-1.792t-4.32 1.792q-.018 0-.018.026-1.774 1.783-1.774 4.293 0 2.528 1.792 4.32 1.792 1.783 4.32 1.783t4.302-1.783q1.659-1.65 1.792-3.92m-2.502-3.948q.825.834 1.18 1.854.275.79.275 1.694 0 .204-.009.4-.133 1.827-1.464 3.175-1.48 1.473-3.574 1.473-2.076 0-3.548-1.455-.01-.018-.018-.027-1.473-1.49-1.473-3.566 0-2.093 1.473-3.565 1.472-1.473 3.566-1.473 2.075 0 3.566 1.473.008.008.026.017"/>
    <path fill="#fff" d="M-192.759 46.972q-.355-1.02-1.18-1.854-.018-.009-.026-.017-1.49-1.473-3.566-1.473-2.094 0-3.566 1.473-1.473 1.472-1.473 3.565 0 2.076 1.473 3.566.009.01.018.027 1.472 1.455 3.548 1.455 2.093 0 3.574-1.473 1.331-1.348 1.464-3.175.009-.196.009-.4 0-.904-.275-1.694m-1.623-1.446q.656.657.975 1.446.31.78.31 1.694 0 .204-.008.4-.133 1.587-1.277 2.75-1.313 1.286-3.15 1.286-1.844 0-3.14-1.287-1.303-1.312-1.303-3.149 0-1.845 1.295-3.14l.009-.008q1.295-1.296 3.14-1.296 1.836 0 3.149 1.304"/>
    <path fill="#f5f5f5" d="M-193.407 46.972q-.319-.79-.975-1.446-1.313-1.304-3.15-1.304-1.844 0-3.14 1.296l-.008.008q-1.295 1.295-1.295 3.14 0 1.837 1.304 3.15 1.295 1.286 3.14 1.286 1.836 0 3.149-1.287 1.144-1.162 1.277-2.75.009-.195.009-.399 0-.913-.31-1.694m-5.305-.372h.967v3.503h1.792V51h-2.759Z"/>
    <path fill="#9a9a9a" d="M-197.744 46.6h-.967V51h2.759v-.897h-1.792Z"/>
    <path fill="#d7d7d7" d="M-209.932 44.134q-2.652.23-5.304.257-2.661-.027-5.314-.257-.71.15-.807.683l.674 7.389q.116.408.675.63 2.013.38 4.772.372 2.767.009 4.772-.373.559-.221.674-.63l.674-7.388q-.097-.533-.816-.683m-5.287 1.499q2.395-.027 4.8-.204l-.568 6.244q-1.819.302-4.24.293h-.01q-2.43.009-4.24-.293l-.576-6.244q2.395.177 4.808.204z"/>
    <path fill="#f5f5f5" d="M-210.42 45.429q-2.404.177-4.799.204h-.026q-2.413-.027-4.808-.204l.577 6.244q1.81.302 4.24.293h.009q2.421.009 4.24-.293zm-3.654 1.623v.7l-1.792 2.165h1.854v.727h-2.848v-.727l1.828-2.164h-1.765v-.701z"/>
    <path fill="#9a9a9a" d="M-214.074 47.753v-.701h-2.723v.7h1.765l-1.828 2.165v.727h2.848v-.727h-1.854Z"/>
    <path fill="none" stroke="#fff" stroke-linecap="round" stroke-linejoin="round" stroke-width=".71" d="M-220.053 45.429q2.395.177 4.808.204h.026q2.395-.027 4.8-.204l-.568 6.244q-1.819.302-4.24.293h-.01q-2.43.009-4.24-.293Z"/>
    <path fill="none" stroke="#404040" stroke-linecap="round" stroke-linejoin="round" stroke-width=".887" d="M-215.236 44.39q2.652-.026 5.304-.256.719.15.816.683l-.674 7.389q-.115.408-.674.63-2.005.38-4.772.372-2.759.009-4.772-.373-.56-.221-.675-.63l-.674-7.388q.098-.533.807-.683 2.653.23 5.314.257"/>
    <path fill="#d7d7d7" d="M-226.59 45.615q-1.677-1.26-4.045-1.26t-4.054 1.26q-1.676 1.269-1.676 3.051 0 1.792 1.676 3.052 1.686 1.268 4.054 1.268t4.045-1.268q1.685-1.26 1.685-3.052 0-1.782-1.685-3.05m-4.045.008q1.925 0 3.29 1.002 1.127.86 1.172 2.04-.045 1.19-1.171 2.032v.009q-1.366 1.01-3.291 1.01-1.916 0-3.282-1.02h-.009q-1.126-.842-1.17-2.03.044-1.18 1.17-2.04h.009q1.366-1.003 3.282-1.003"/>
    <path fill="#f5f5f5" d="M-227.344 46.626q-1.366-1.002-3.291-1.002-1.916 0-3.282 1.002h-.009q-1.126.86-1.17 2.04.044 1.19 1.17 2.032h.009q1.366 1.02 3.282 1.02 1.925 0 3.29-1.011v-.01q1.127-.842 1.172-2.03-.045-1.18-1.171-2.04m-4.506.682q.266-.248.62-.381.355-.133.772-.133.16 0 .32.026.168.036.328.09.16.061.31.168.142.097.258.248l-.612.497q-.116-.142-.284-.222-.169-.07-.39-.07-.222 0-.418.088-.186.08-.328.24-.142.15-.221.363t-.08.461q0 .257.08.47.08.204.221.364.133.15.32.24.186.088.399.088.24 0 .434-.106.187-.098.31-.284l.657.497q-.23.319-.576.47-.355.15-.728.15-.417 0-.771-.124-.355-.142-.621-.381-.258-.248-.4-.603-.141-.346-.141-.78 0-.427.142-.781.141-.346.399-.595"/>
    <path fill="#9a9a9a" d="M-231.23 46.928q-.354.133-.62.381-.258.249-.4.595-.141.354-.141.78 0 .435.142.78.141.356.399.604.266.24.62.381.355.125.772.125.373 0 .728-.151.346-.151.576-.47l-.656-.497q-.124.186-.31.284-.196.106-.435.106-.213 0-.4-.089-.186-.088-.319-.239-.142-.16-.221-.364-.08-.213-.08-.47 0-.248.08-.461t.221-.364q.142-.16.328-.24.196-.088.417-.088.222 0 .39.071.17.08.285.222l.612-.497q-.116-.15-.258-.248-.15-.107-.31-.169-.16-.053-.328-.089-.16-.026-.32-.026-.417 0-.771.133"/>
    <path fill="none" stroke="#404040" stroke-linecap="round" stroke-linejoin="round" stroke-width=".887" d="M-230.635 44.356q2.368 0 4.045 1.26 1.685 1.268 1.685 3.05 0 1.792-1.685 3.052-1.677 1.268-4.045 1.268t-4.054-1.268q-1.676-1.26-1.676-3.052 0-1.782 1.676-3.05 1.686-1.26 4.054-1.26"/>
    <path fill="none" stroke="#fff" stroke-linecap="round" stroke-linejoin="round" stroke-width=".71" d="M-233.917 46.626q1.366-1.002 3.282-1.002 1.925 0 3.29 1.002 1.127.86 1.172 2.04-.045 1.19-1.171 2.032v.009q-1.366 1.01-3.291 1.01-1.916 0-3.282-1.02h-.009q-1.126-.842-1.17-2.03.044-1.18 1.17-2.04Z"/>
    <path fill="#5d5d5d" d="m-242.255 54.321 2.342-5.659-2.351-5.66-5.66-2.332-5.65 2.342-2.35 5.659 2.35 5.66 5.66 2.34zm-1.366-10.032q0 .018.018.027 1.81 1.81 1.81 4.355 0 2.528-1.784 4.329h-.009q-.009.008-.017.008-1.783 1.792-4.32 1.792t-4.347-1.774l-.009-.018q-1.782-1.8-1.782-4.337 0-2.546 1.782-4.355 1.81-1.774 4.356-1.774 2.528 0 4.302 1.747"/>
    <path fill="#404040" d="M-243.603 44.316q-.018-.01-.018-.027-1.774-1.747-4.302-1.747-2.546 0-4.356 1.774-1.782 1.81-1.782 4.355 0 2.537 1.782 4.337l.01.018q1.809 1.774 4.346 1.774t4.32-1.792q.008 0 .017-.008h.01q1.782-1.801 1.782-4.33 0-2.545-1.81-4.354m-4.32-1.1q2.254 0 3.842 1.596 1.605 1.606 1.605 3.859t-1.605 3.858q-1.588 1.588-3.841 1.588t-3.859-1.588q-1.596-1.605-1.596-3.858 0-2.244 1.578-3.832 0-.027.018-.027 1.606-1.596 3.859-1.596"/>
    <path fill="#d7d7d7" d="M-244.082 44.812q-1.588-1.596-3.841-1.596t-3.859 1.596q-.018 0-.018.027-1.578 1.588-1.578 3.832 0 2.253 1.596 3.858 1.606 1.588 3.859 1.588t3.84-1.588q1.606-1.605 1.606-3.858t-1.605-3.859m-.86.878q0 .01.017.01 1.224 1.232 1.224 2.97 0 1.748-1.242 2.981-1.233 1.242-2.98 1.242-1.739 0-2.972-1.224 0-.018-.009-.018-1.233-1.242-1.233-2.98 0-1.756 1.233-2.98 1.224-1.233 2.98-1.233 1.74 0 2.981 1.232"/>
    <path fill="#fff" d="M-244.925 45.7q-.018 0-.018-.01-1.242-1.232-2.98-1.232-1.757 0-2.98 1.232-1.234 1.225-1.234 2.98 0 1.74 1.233 2.981.01 0 .01.018 1.232 1.224 2.97 1.224 1.748 0 2.981-1.242 1.242-1.233 1.242-2.98 0-1.739-1.224-2.972m-2.998-.754q1.534 0 2.634 1.1 1.082 1.082 1.082 2.626 0 1.534-1.082 2.634-1.1 1.083-2.634 1.083-1.544 0-2.626-1.083-1.1-1.1-1.1-2.634 0-1.544 1.091-2.626l.01-.009q1.081-1.09 2.625-1.09"/>
    <path fill="#f5f5f5" d="M-245.289 46.045q-1.1-1.1-2.634-1.1-1.544 0-2.626 1.091l-.009.01q-1.09 1.081-1.09 2.625 0 1.534 1.1 2.634 1.081 1.083 2.625 1.083 1.534 0 2.634-1.083 1.082-1.1 1.082-2.634 0-1.544-1.082-2.626"/>
    <path fill="none" stroke="#404040" stroke-linecap="round" stroke-linejoin="round" stroke-width=".887" d="m-239.913 48.662-2.342 5.66-5.66 2.35-5.659-2.342-2.35-5.66 2.35-5.658 5.65-2.342 5.66 2.333Z"/>
    <path fill="#d7d7d7" d="M-259.91 54.01q.717-.952.285-1.997l-1.251-1.534q-1.269-1.765-2.023-3.761t-.736-4.16q-.23-.887-1.02-.86-3.211.221-6.919 1.339-.585.177-1.02 2.217-.428 2.049-.009 5.597.198.667.603 1.224l2.52 2.724q.958.904 1.907.842 4.02-.333 7.664-1.632m-4.923-11.061q.017 1.579.585 3.246.568 1.66 1.41 3.22.568 1.047 1.801 2.51.364.435.142.772-2.093.87-4.683 1.18-1.003-.044-1.58-.878-.904-1.135-1.49-2.28-1.605-3.078-1.596-6.6 2.554-.984 5.41-1.17"/>
    <path fill="#f5f5f5" d="M-264.247 46.194q-.568-1.667-.585-3.246-2.857.186-5.411 1.17-.01 3.522 1.596 6.6.586 1.145 1.49 2.28.577.834 1.58.878 2.59-.31 4.683-1.18.222-.337-.142-.771-1.233-1.464-1.8-2.51-.843-1.562-1.41-3.22m-2.706.168q.266-.035.558-.035.293.008.55.088.267.098.48.293.221.204.354.568.133.372.027.638-.107.275-.39.426v.009q.221.009.416.07.204.072.373.196.177.115.31.293.125.177.205.39.124.346.08.603-.063.249-.222.426-.178.169-.435.275-.257.098-.532.133l-1.712.24q-1.184-2.166-1.623-4.4zm1.961 3.202q.018-.106-.027-.248-.062-.16-.168-.249-.115-.088-.249-.115-.124-.035-.257-.035-.142 0-.266.017l-.798.098q.131.501.488 1.002l.825-.115q.106-.018.195-.062.106-.036.177-.115.053-.071.08-.178m-2.297-2.288q-.028.479.195.958l.816-.116q.115-.009.204-.053t.16-.106q.053-.062.07-.169.018-.106-.026-.23-.062-.142-.142-.222-.089-.08-.204-.124-.107-.036-.222-.036-.124-.009-.23.009z"/>
    <path fill="#9a9a9a" d="M-266.394 46.328q-.292 0-.558.035l-1.561.213q.439 2.234 1.623 4.4l1.712-.24q.275-.035.532-.133.257-.106.435-.275.16-.177.221-.426.045-.257-.08-.603-.08-.213-.204-.39-.133-.178-.31-.293-.169-.124-.373-.195-.195-.062-.416-.071v-.009q.283-.15.39-.426.106-.266-.027-.638-.133-.364-.355-.568-.212-.195-.479-.293-.257-.08-.55-.088m-.7 1.907q-.223-.48-.195-.958l.62-.09q.107-.017.231-.008.115 0 .222.036.115.044.204.124.08.08.142.221.044.125.026.231t-.07.169q-.071.062-.16.106t-.204.053zm2.075 1.082q.045.142.027.248-.027.107-.08.178-.07.08-.177.115-.089.044-.195.062l-.825.115q-.357-.5-.488-1.002l.798-.098q.124-.017.266-.017.133 0 .257.035.134.027.249.115.106.09.168.249"/>
    <path fill="none" stroke="#fff" stroke-linecap="round" stroke-linejoin="round" stroke-width=".71" d="M-264.832 42.948q.017 1.579.585 3.246.568 1.66 1.41 3.22.568 1.047 1.801 2.51.364.435.142.772-2.093.87-4.683 1.18-1.003-.044-1.58-.878-.904-1.135-1.49-2.28-1.605-3.078-1.596-6.6 2.554-.984 5.41-1.17"/>
    <path fill="none" stroke="#404040" stroke-linecap="round" stroke-linejoin="round" stroke-width=".887" d="M-259.625 52.013q.432 1.045-.284 1.996-3.644 1.3-7.664 1.632-.95.062-1.907-.842l-2.52-2.724q-.405-.557-.603-1.22-.419-3.552.014-5.596.43-2.045 1.015-2.222 3.708-1.118 6.92-1.34.789-.026 1.02.86-.019 2.165.735 4.16.754 1.997 2.023 3.762z"/>
    <path fill="#d7d7d7" d="M-290.231 47.314h3.583q.55 0 .94-.39.045-.045.08-.09l-1.17-.85h-3.815q-.825.194-.949.948v3.477q.107.772.95.95h3.964v.115l1.056-.923q-.053-.07-.115-.133-.39-.39-.94-.39h-3.584z"/>
    <path fill="#f5f5f5" d="m-285.592 46.87-.036-.035q-.035.044-.08.088-.39.39-.94.39h-3.583v2.715h3.583q.55 0 .94.39.063.062.116.133 1.038-1.898 0-3.68m-3.708 1.8h2.333z"/>
    <path fill="#9f9f9f" d="M-277.689 50.028v-2.714h-3.583q-.55 0-.94-.39t-.39-.94V42.4h-2.715v3.583q0 .497-.31.852l.035.035q1.038 1.783 0 3.681.275.346.275.808v3.583h2.714V51.36q0-.55.39-.94.39-.391.94-.391zm-6.271-4.364V43.33zm3.007 3.007h2.333zm-3.007 5.34v-2.333Z"/>
    <path fill="#747474" d="M-276.358 46.932q-.124-.754-.95-.949h-3.964v-3.965q-.195-.825-.95-.949h-3.477q-.771.107-.949.95v3.964h-.15l1.17.852q.31-.355.31-.852V42.4h2.715v3.583q0 .55.39.94t.94.39h3.584v2.715h-3.583q-.55 0-.94.39t-.39.94v3.584h-2.715V51.36q0-.462-.275-.808l-1.056.923v3.85q.178.842.95.949h3.477q.754-.124.949-.95V51.36h3.965q.842-.178.949-.95z"/>
    <path fill="none" stroke="#404040" stroke-linecap="round" stroke-linejoin="round" stroke-width=".887" d="M-286.798 45.983h.15v-3.965q.178-.842.95-.949h3.477q.754.124.949.95v3.964h3.965q.825.195.949.95v3.476q-.107.772-.95.95h-3.964v3.965q-.195.825-.95.949h-3.477q-.771-.107-.949-.95V51.36h-3.965q-.842-.178-.949-.95v-3.477q.124-.754.95-.949z"/>
    <path fill="none" stroke="#b5b5b5" stroke-linecap="round" stroke-linejoin="round" stroke-width=".71" d="M-285.628 46.835q.31-.355.31-.852V42.4h2.715v3.583q0 .55.39.94t.94.39h3.584v2.715h-3.583q-.55 0-.94.39t-.39.94v3.584h-2.715V51.36q0-.462-.275-.808"/>
    <path fill="none" stroke="#747474" stroke-linecap="round" stroke-linejoin="round" stroke-width=".71" d="M-283.96 45.664V43.33m3.007 5.34h2.333m-5.34 5.34v-2.333"/>
    <path fill="none" stroke="#fff" stroke-linejoin="round" stroke-width=".71" d="M-285.592 50.551q-.053-.07-.115-.133-.39-.39-.94-.39m0-2.714q.55 0 .94-.39.044-.045.08-.09"/>
    <path fill="none" stroke="#fff" stroke-linecap="round" stroke-linejoin="round" stroke-width=".71" d="M-286.648 50.028h-3.583v-2.714h3.583"/>
    <path fill="none" stroke="#d7d7d7" stroke-linecap="round" stroke-linejoin="round" stroke-width=".71" d="M-289.3 48.67h2.333"/>
    <path fill="#d7d7d7" d="M-304.46 50.418q-.043-.044-.088-.08l-.851 1.171v3.815q.195.825.949.949h3.477q.772-.107.949-.95V51.36h.115l-.922-1.056q-.071.053-.133.115-.39.39-.39.94v3.584h-2.715V51.36q0-.55-.39-.94"/>
    <path fill="#f5f5f5" d="M-304.548 50.338q.045.036.089.08.39.39.39.94v3.584h2.714V51.36q0-.55.39-.94.063-.063.134-.116-1.898-1.038-3.681 0zm1.836 3.673v-2.333Z"/>
    <path fill="#9f9f9f" d="M-296.44 50.028v-2.714h-3.584q-.55 0-.94-.39t-.39-.94V42.4h-2.715v3.583q0 .55-.39.94t-.94.39h-3.584v2.715h3.584q.496 0 .851.31l.036-.035q1.783-1.038 3.68 0 .347-.275.808-.275zm-6.272-4.364V43.33zm-3.007 3.007h-2.333zm8.347 0h-2.333Z"/>
    <path fill="#747474" d="M-295.11 46.932q-.124-.754-.949-.949h-3.965v-3.965q-.177-.842-.95-.949h-3.476q-.754.124-.95.95v3.964h-3.964q-.825.195-.95.95v3.476q.107.772.95.95h3.965v.15l.851-1.17q-.355-.311-.851-.311h-3.584v-2.714h3.584q.55 0 .94-.39t.39-.94V42.4h2.714v3.583q0 .55.39.94.391.39.941.39h3.584v2.715h-3.584q-.461 0-.807.275l.922 1.056h3.85q.843-.178.95-.95z"/>
    <path fill="none" stroke="#404040" stroke-linecap="round" stroke-linejoin="round" stroke-width=".887" d="M-305.4 51.51v-.151h-3.964q-.843-.178-.95-.95v-3.477q.125-.754.95-.949h3.965v-3.965q.195-.825.949-.949h3.477q.772.107.949.95v3.964h3.965q.825.195.95.95v3.476q-.107.772-.95.95h-3.965v3.965q-.177.842-.95.949h-3.476q-.754-.124-.95-.95z"/>
    <path fill="none" stroke="#fff" stroke-linecap="round" stroke-linejoin="round" stroke-width=".71" d="M-304.069 51.359v3.583h2.714V51.36"/>
    <path fill="none" stroke="#b5b5b5" stroke-linecap="round" stroke-linejoin="round" stroke-width=".71" d="M-304.548 50.338q-.355-.31-.851-.31h-3.584v-2.714h3.584q.55 0 .94-.39t.39-.94V42.4h2.714v3.583q0 .55.39.94.391.39.941.39h3.584v2.715h-3.584q-.461 0-.807.275"/>
    <path fill="none" stroke="#fff" stroke-linejoin="round" stroke-width=".71" d="M-304.548 50.338q.045.036.089.08.39.39.39.94m2.714 0q0-.55.39-.94.063-.062.134-.115"/>
    <path fill="none" stroke="#747474" stroke-linecap="round" stroke-linejoin="round" stroke-width=".71" d="M-302.712 45.664V43.33m-3.007 5.34h-2.333m10.68 0h-2.333"/>
    <path fill="none" stroke="#d7d7d7" stroke-linecap="round" stroke-linejoin="round" stroke-width=".71" d="M-302.712 54.01v-2.332"/>
    <path fill="#9f9f9f" d="M-320.106 42.4h-2.715v3.583q0 .55-.39.94t-.94.39h-3.584v2.715h3.584q.55 0 .94.39t.39.94v3.584h2.715V51.36q0-.497.31-.852l-.035-.035q-1.038-1.783 0-3.682-.275-.346-.275-.807zm-1.357.931v2.333zm-3.007 5.34h-2.333zm3.007 3.007v2.333Z"/>
    <path fill="#747474" d="M-322.82 42.4h2.714v3.583q0 .461.275.807l1.055-.922v-3.85q-.177-.842-.949-.949h-3.477q-.754.124-.95.95v3.964h-3.964q-.843.178-.95.95v3.476q.125.754.95.95h3.965v3.965q.195.825.949.949h3.477q.772-.107.95-.95V51.36h.15l-1.17-.852q-.311.355-.311.852v3.583h-2.715V51.36q0-.55-.39-.94-.39-.391-.94-.391h-3.584v-2.714h3.584q.55 0 .94-.39t.39-.94z"/>
    <path fill="#f5f5f5" d="M-315.192 50.028v-2.714h-3.584q-.55 0-.94-.39-.062-.063-.115-.134-1.038 1.899 0 3.682l.035.035q.036-.044.08-.089.39-.39.94-.39zm-.932-1.357h-2.332Z"/>
    <path fill="#d7d7d7" d="M-313.862 46.932q-.106-.771-.949-.949h-3.965v-.115l-1.055.922q.053.071.115.133.39.39.94.39h3.584v2.715h-3.584q-.55 0-.94.39-.044.045-.08.089l1.171.852h3.814q.825-.196.95-.95z"/>
    <path fill="none" stroke="#404040" stroke-linecap="round" stroke-linejoin="round" stroke-width=".887" d="M-318.776 45.868v.115h3.965q.843.178.95.95v3.476q-.125.754-.95.95h-3.964v3.965q-.178.842-.95.949h-3.477q-.754-.124-.95-.95V51.36h-3.964q-.825-.196-.95-.95v-3.477q.107-.771.95-.949h3.965v-3.965q.195-.825.949-.949h3.477q.772.107.95.95z"/>
    <path fill="none" stroke="#b5b5b5" stroke-linecap="round" stroke-linejoin="round" stroke-width=".71" d="M-319.796 50.507q-.31.355-.31.852v3.583h-2.715V51.36q0-.55-.39-.94-.39-.391-.94-.391h-3.584v-2.714h3.584q.55 0 .94-.39t.39-.94V42.4h2.715v3.583q0 .461.275.807"/>
    <path fill="none" stroke="#fff" stroke-linecap="round" stroke-linejoin="round" stroke-width=".71" d="M-318.776 47.314h3.584v2.714h-3.584"/>
    <path fill="none" stroke="#fff" stroke-linejoin="round" stroke-width=".71" d="M-319.831 46.79q.053.071.115.133.39.39.94.39m0 2.715q-.55 0-.94.39-.044.045-.08.089"/>
    <path fill="none" stroke="#d7d7d7" stroke-linecap="round" stroke-linejoin="round" stroke-width=".71" d="M-316.124 48.67h-2.332"/>
    <path fill="none" stroke="#747474" stroke-linecap="round" stroke-linejoin="round" stroke-width=".71" d="M-321.463 43.331v2.333m-3.007 3.007h-2.333m5.34 3.007v2.333"/>
    <path fill="#f5f5f5" d="M-338.858 42.4h-2.714v3.583q0 .551-.39.94-.064.064-.134.116 1.897 1.035 3.681 0l.027-.045q-.04-.03-.08-.07-.39-.39-.39-.94zm-1.357.931v2.333z"/>
    <path fill="#d7d7d7" d="M-341.572 42.4h2.714v3.583q0 .551.39.94.04.04.08.071l.86-1.162v-3.814q-.195-.825-.949-.949h-3.477q-.771.107-.949.95v3.964h-.115l.922 1.056q.07-.052.133-.116.39-.389.39-.94z"/>
    <path fill="#9f9f9f" d="M-333.944 50.028v-2.714h-3.583q-.495 0-.86-.32l-.028.045q-1.784 1.035-3.68 0-.347.274-.808.275h-3.583v2.714h3.583q.551 0 .94.39.39.39.39.94v3.584h2.715V51.36q0-.551.39-.94.39-.39.94-.391zm-11.611-1.357h2.333zm8.347 0h2.333zm-3.007 3.007v2.333Z"/>
    <path fill="#747474" d="M-332.613 46.932q-.107-.771-.95-.949h-3.964v-.15l-.86 1.161q.365.32.86.32h3.583v2.714h-3.583q-.551 0-.94.39-.39.39-.391.94v3.584h-2.714V51.36q0-.551-.39-.94-.39-.39-.94-.391h-3.584v-2.714h3.583q.46 0 .807-.275l-.922-1.056h-3.85q-.843.178-.949.95v3.476q.124.754.95.95h3.964v3.965q.178.842.95.949h3.476q.754-.124.95-.95V51.36h3.965q.824-.196.949-.95z"/>
    <path fill="none" stroke="#404040" stroke-linecap="round" stroke-linejoin="round" stroke-width=".887" d="M-337.527 45.832v.151h3.965q.842.178.949.95v3.476q-.125.754-.95.95h-3.964v3.965q-.196.825-.95.949h-3.477q-.771-.107-.949-.95V51.36h-3.965q-.825-.196-.949-.95v-3.477q.106-.771.95-.949h3.964v-3.965q.178-.842.95-.949h3.476q.754.124.95.95z"/>
    <path fill="none" stroke="#fff" stroke-linecap="round" stroke-linejoin="round" stroke-width=".71" d="M-341.572 45.983V42.4h2.714v3.583"/>
    <path fill="none" stroke="#d7d7d7" stroke-linecap="round" stroke-linejoin="round" stroke-width=".71" d="M-340.215 43.331v2.333"/>
    <path fill="none" stroke="#b5b5b5" stroke-linecap="round" stroke-linejoin="round" stroke-width=".71" d="M-338.383 46.999q.361.314.856.315h3.583v2.714h-3.583q-.551 0-.94.39-.39.39-.391.94v3.584h-2.714V51.36q0-.551-.39-.94-.39-.39-.94-.391h-3.584v-2.714h3.583q.46 0 .807-.275"/>
    <path fill="none" stroke="#747474" stroke-linecap="round" stroke-linejoin="round" stroke-width=".71" d="M-345.555 48.67h2.333m6.014 0h2.333m-5.34 3.008v2.333"/>
    <path fill="none" stroke="#fff" stroke-linejoin="round" stroke-width=".71" d="M-338.858 45.983q0 .551.39.94.04.04.085.076m-3.713.04q.07-.052.133-.116.39-.389.39-.94"/>
    <path fill="#d7d7d7" d="M-351.365 46.932q-.107-.771-.95-.949h-3.964v-3.965q-.195-.825-.95-.949h-3.476q-.772.107-.95.95v3.964h-3.965q-.842.178-.949.95v3.476q.124.754.95.95h3.964v3.965q.178.842.95.949h3.477q.754-.124.949-.95V51.36h3.965q.825-.196.949-.95zm-1.33.382v2.714h-3.584q-.551 0-.94.39-.39.39-.39.94v3.584h-2.715V51.36q0-.551-.39-.94-.39-.39-.94-.391h-3.584v-2.714h3.583q.551 0 .94-.39.39-.39.39-.94V42.4h2.715v3.583q0 .551.39.94.39.39.94.39z"/>
    <path fill="#f5f5f5" d="M-352.696 50.028v-2.714h-3.583q-.551 0-.94-.39-.39-.39-.39-.94V42.4h-2.715v3.583q0 .551-.39.94-.39.39-.94.39h-3.584v2.715h3.583q.551 0 .94.39.39.39.39.94v3.584h2.715V51.36q0-.551.39-.94.39-.39.94-.391zm-6.27-6.697v2.333zm-5.34 5.34h2.332zm8.347 0h2.333zm-3.007 3.007v2.333Z"/>
    <path fill="none" stroke="#404040" stroke-linecap="round" stroke-linejoin="round" stroke-width=".887" d="M-352.314 45.983q.842.178.949.95v3.476q-.124.754-.95.95h-3.964v3.965q-.195.825-.95.949h-3.476q-.772-.107-.95-.95V51.36h-3.965q-.825-.196-.949-.95v-3.477q.107-.771.95-.949h3.964v-3.965q.178-.842.95-.949h3.477q.754.124.949.95v3.964z"/>
    <path fill="none" stroke="#fff" stroke-linecap="round" stroke-linejoin="round" stroke-width=".71" d="M-352.696 47.314v2.714h-3.583q-.551 0-.94.39-.39.39-.39.94v3.584h-2.715V51.36q0-.551-.39-.94-.39-.39-.94-.391h-3.584v-2.714h3.583q.551 0 .94-.39.39-.39.39-.94V42.4h2.715v3.583q0 .551.39.94.39.39.94.39z"/>
    <path fill="none" stroke="#d7d7d7" stroke-linecap="round" stroke-linejoin="round" stroke-width=".71" d="M-358.967 43.331v2.333m-5.34 3.007h2.333m6.014 0h2.333m-5.34 3.007v2.333"/>
    <path fill="#404040" d="M-369.682 49.101q.009-.215.009-.435 0-.961-.213-1.836-.47-1.94-1.987-3.45-.019-.018-.027-.045-2.15-2.111-5.224-2.11-3.095-.001-5.296 2.155-2.165 2.192-2.164 5.286 0 3.086 2.164 5.27.013.012.018.026 2.197 2.156 5.278 2.155 3.085 0 5.25-2.173l.019-.017.008-.01q2.02-2.018 2.165-4.816m-.816-.435q0 .22-.018.435-.139 2.464-1.934 4.258-1.932 1.933-4.674 1.934t-4.693-1.934q-1.933-1.95-1.933-4.693 0-2.727 1.907-4.665l.026-.027q1.95-1.933 4.693-1.934t4.674 1.943q1.263 1.256 1.703 2.847.249.869.249 1.836"/>
    <path fill="#d7d7d7" d="M-370.516 49.101q.018-.215.018-.435 0-.967-.249-1.836-.44-1.59-1.703-2.847-1.932-1.942-4.674-1.943-2.742 0-4.693 1.934l-.026.027q-1.907 1.938-1.907 4.665 0 2.742 1.933 4.693 1.95 1.933 4.693 1.934t4.674-1.934q1.795-1.794 1.934-4.258m-2.74-4.302q.012.013.026.018.892.9 1.277 2.013.302.856.302 1.836 0 .22-.018.435-.137 1.991-1.58 3.442-1.606 1.597-3.875 1.596-2.256 0-3.85-1.578-.005-.014-.018-.027-1.597-1.615-1.596-3.868 0-2.27 1.596-3.867 1.598-1.597 3.868-1.597 2.252 0 3.867 1.597"/>
    <path fill="#fff" d="M-373.23 44.817q-.014-.005-.027-.018-1.615-1.597-3.867-1.597-2.27 0-3.868 1.597-1.597 1.598-1.596 3.867 0 2.253 1.596 3.868.013.013.018.027 1.594 1.579 3.85 1.578 2.27 0 3.876-1.596 1.442-1.45 1.579-3.442.018-.214.018-.435 0-.98-.302-1.836-.385-1.112-1.277-2.013m-.48.443q.709.708 1.056 1.57.346.844.346 1.836 0 .221-.018.435-.137 1.719-1.383 2.98-1.419 1.401-3.415 1.402-2.006 0-3.407-1.401-1.419-1.419-1.419-3.416 0-2.005 1.41-3.406l.01-.009q1.4-1.41 3.406-1.41 1.996 0 3.415 1.42"/>
    <path fill="#f5f5f5" d="M-372.654 46.83q-.347-.862-1.055-1.57-1.419-1.419-3.415-1.419-2.006 0-3.407 1.41l-.008.01q-1.41 1.4-1.41 3.405 0 1.997 1.418 3.416 1.4 1.4 3.407 1.401 1.996 0 3.415-1.401 1.246-1.262 1.383-2.98.018-.215.018-.436 0-.992-.346-1.836m-4.994-1.312h1.03l2.456 5.65h-1.41l-.488-1.198h-2.19l-.471 1.198h-1.375zm-.213 3.397h1.384l-.692-1.756z"/>
    <path fill="#9a9a9a" d="M-376.619 45.518h-1.029l-2.448 5.65h1.375l.47-1.198h2.191l.488 1.198h1.41zm.142 3.397h-1.384l.692-1.756z"/>
    <path fill="#404040" d="M-389.445 43.38q-.019-.018-.027-.045-2.15-2.111-5.224-2.11-3.095-.001-5.296 2.155-2.165 2.192-2.164 5.286 0 3.086 2.164 5.27.013.012.018.026 2.197 2.156 5.278 2.155 3.085 0 5.25-2.173l.019-.017.008-.01q2.174-2.174 2.174-5.25 0-3.095-2.2-5.287m-5.251-1.34q2.742 0 4.674 1.943 1.952 1.942 1.952 4.683 0 2.742-1.952 4.693-1.932 1.933-4.674 1.934t-4.693-1.934q-1.933-1.95-1.933-4.693 0-2.727 1.907-4.665l.026-.027q1.95-1.933 4.693-1.934"/>
    <path fill="#d7d7d7" d="M-390.022 43.983q-1.932-1.942-4.674-1.943-2.742 0-4.693 1.934l-.026.027q-1.907 1.938-1.907 4.665 0 2.742 1.933 4.693 1.95 1.933 4.693 1.934t4.674-1.934q1.952-1.95 1.952-4.693 0-2.741-1.952-4.683m-.807.816q.013.013.027.018 1.579 1.594 1.579 3.85 0 2.27-1.597 3.876-1.606 1.597-3.876 1.596-2.256 0-3.85-1.578-.005-.014-.018-.027-1.597-1.615-1.596-3.868 0-2.27 1.596-3.867 1.598-1.597 3.868-1.597 2.252 0 3.867 1.597"/>
    <path fill="#fff" d="M-390.802 44.817q-.014-.005-.027-.018-1.615-1.597-3.867-1.597-2.27 0-3.868 1.597-1.597 1.598-1.596 3.867 0 2.253 1.596 3.868.013.013.018.027 1.594 1.579 3.85 1.578 2.27 0 3.876-1.596 1.597-1.607 1.597-3.877 0-2.255-1.58-3.85m-3.893-.975q1.996 0 3.415 1.42 1.4 1.4 1.401 3.405 0 1.997-1.401 3.416-1.419 1.4-3.415 1.401-2.006 0-3.407-1.401-1.419-1.419-1.419-3.416 0-2.005 1.41-3.406l.01-.009q1.4-1.41 3.406-1.41"/>
    <path fill="#f5f5f5" d="M-391.281 45.26q-1.419-1.419-3.415-1.419-2.006 0-3.407 1.41l-.008.01q-1.41 1.4-1.41 3.405 0 1.997 1.418 3.416 1.4 1.4 3.407 1.401 1.996 0 3.415-1.401 1.4-1.419 1.401-3.416 0-2.005-1.401-3.406m-2.608.524q.337.106.585.319.249.213.39.532.134.32.134.745 0 .266-.054.488-.053.222-.15.4-.107.177-.24.327-.142.16-.293.302l-1.72 1.473h2.51v1.055h-3.947v-1.268l2.2-1.978q.168-.142.336-.337.16-.196.16-.444 0-.293-.204-.452-.204-.169-.488-.169-.337 0-.523.204-.186.213-.213.515l-1.197-.09q.026-.434.186-.762.16-.32.426-.532.257-.222.62-.328.355-.107.763-.107.39 0 .719.107"/>
    <path fill="#9a9a9a" d="M-393.304 46.103q-.248-.213-.585-.32-.328-.106-.719-.106-.408 0-.762.107-.364.106-.621.328-.267.213-.426.532-.16.328-.186.763l1.197.089q.027-.302.213-.515.186-.204.523-.204.284 0 .488.169.204.16.204.452 0 .248-.16.444-.168.195-.337.337l-2.2 1.978v1.268h3.948V50.37h-2.51l1.72-1.473q.151-.142.293-.302.133-.15.24-.328.097-.177.15-.399.054-.222.054-.488 0-.426-.133-.745-.142-.32-.39-.532"/>
    <path fill="#404040" d="M-407.017 43.38q-.019-.018-.027-.045-2.15-2.111-5.224-2.11-3.095-.001-5.296 2.155-2.165 2.192-2.164 5.286 0 3.086 2.164 5.27.013.012.018.026 2.197 2.156 5.278 2.155 3.085 0 5.25-2.173l.019-.017.008-.01q2.174-2.174 2.174-5.25 0-3.095-2.2-5.287m-5.251-1.34q2.742 0 4.674 1.943 1.952 1.942 1.952 4.683 0 2.742-1.952 4.693-1.932 1.933-4.674 1.934t-4.693-1.934q-1.933-1.95-1.933-4.693 0-2.727 1.907-4.665l.026-.027q1.95-1.933 4.693-1.934"/>
    <path fill="#d7d7d7" d="M-407.594 43.983q-1.932-1.942-4.674-1.943-2.742 0-4.693 1.934l-.026.027q-1.907 1.938-1.907 4.665 0 2.742 1.933 4.693 1.95 1.933 4.693 1.934t4.674-1.934q1.952-1.95 1.952-4.693 0-2.741-1.952-4.683m-.807.816q.013.013.027.018 1.579 1.594 1.579 3.85 0 2.27-1.597 3.876-1.606 1.597-3.876 1.596-2.256 0-3.85-1.578-.005-.014-.018-.027-1.597-1.615-1.596-3.868 0-2.27 1.596-3.867 1.598-1.597 3.868-1.597 2.252 0 3.867 1.597"/>
    <path fill="#fff" d="M-408.374 44.817q-.014-.005-.027-.018-1.615-1.597-3.867-1.597-2.27 0-3.868 1.597-1.597 1.598-1.596 3.867 0 2.253 1.596 3.868.013.013.018.027 1.594 1.579 3.85 1.578 2.27 0 3.876-1.596 1.597-1.607 1.597-3.877 0-2.255-1.58-3.85m-3.893-.975q1.996 0 3.415 1.42 1.4 1.4 1.401 3.405 0 1.997-1.401 3.416-1.419 1.4-3.415 1.401-2.006 0-3.407-1.401-1.419-1.419-1.419-3.416 0-2.005 1.41-3.406l.01-.009q1.4-1.41 3.406-1.41"/>
    <path fill="#f5f5f5" d="M-408.853 45.26q-1.419-1.419-3.415-1.419-2.006 0-3.407 1.41l-.008.01q-1.41 1.4-1.41 3.405 0 1.997 1.418 3.416 1.4 1.4 3.407 1.401 1.996 0 3.415-1.401 1.4-1.419 1.401-3.416 0-2.005-1.401-3.406m-3.646.586h1.118v5.65h-1.153v-4.31l-1.136.993-.674-.781z"/>
    <path fill="#9a9a9a" d="M-411.381 45.846h-1.118l-1.845 1.552.674.78 1.136-.993v4.311h1.153Z"/>
    <path fill="#404040" d="M-422.647 46.87q-.093-.307-.221-.603-.263-.6-.674-1.144-.275-.374-.621-.719h.008q-1.747-1.747-4.248-1.747t-4.276 1.747q-.342.345-.62.719-.592.808-.879 1.747-.06.218-.115.444-.133.649-.133 1.357 0 2.492 1.747 4.249v.009q1.774 1.756 4.276 1.756 2.492 0 4.24-1.756l.008-.01q1.766-1.756 1.766-4.248 0-.954-.258-1.8m-.851 0q.084.217.142.443.168.644.168 1.357 0 2.155-1.534 3.69-1.526 1.526-3.681 1.526-2.165 0-3.7-1.526-1.516-1.535-1.516-3.69 0-.713.16-1.357.063-.226.142-.444.342-.956 1.073-1.747l.142-.142v-.009q1.534-1.517 3.699-1.517 2.155 0 3.68 1.526.072.07.134.142.75.79 1.09 1.747"/>
    <path fill="#d7d7d7" d="M-423.356 47.314q-.058-.226-.142-.444-.342-.956-1.091-1.747-.062-.072-.133-.142-1.526-1.526-3.681-1.526-2.165 0-3.7 1.517v.009l-.141.142q-.73.79-1.073 1.747-.079.218-.142.444-.16.644-.16 1.357 0 2.155 1.517 3.69 1.534 1.526 3.699 1.526 2.155 0 3.68-1.526 1.535-1.535 1.535-3.69 0-.713-.168-1.357m-2.386-2.191q.245.185.47.408h.009q.609.609.931 1.34.096.216.16.443.204.636.204 1.357 0 1.836-1.295 3.14-1.304 1.295-3.14 1.295-1.845 0-3.14-1.295v-.009q-1.295-1.304-1.295-3.131 0-.72.195-1.357.073-.227.168-.444.323-.73.932-1.34.223-.222.46-.407 1.153-.887 2.68-.887 1.512 0 2.66.887"/>
    <path fill="#fff" d="M-425.272 45.53q-.225-.222-.47-.407-1.15-.887-2.661-.887-1.527 0-2.68.887-.237.185-.46.408-.61.609-.932 1.34-.095.216-.168.443-.195.636-.195 1.357 0 1.827 1.295 3.131v.009q1.295 1.295 3.14 1.295 1.836 0 3.14-1.295 1.295-1.304 1.295-3.14 0-.72-.204-1.357-.064-.227-.16-.444-.322-.73-.931-1.34zm-4.47-.407q.62-.23 1.34-.23.712 0 1.33.23.737.275 1.34.878.403.403.656.87.118.214.204.443.24.628.24 1.357 0 1.561-1.1 2.67-1.11 1.1-2.67 1.1-1.57 0-2.67-1.1-1.11-1.109-1.11-2.67 0-.73.24-1.357.086-.229.204-.444.254-.466.657-.87l.009-.008q.596-.596 1.33-.87"/>
    <path fill="#f5f5f5" d="M-428.403 44.892q-.72 0-1.34.23-.734.274-1.33.87l-.01.009q-.402.403-.656.87-.118.214-.204.443-.24.628-.24 1.357 0 1.561 1.11 2.67 1.1 1.1 2.67 1.1 1.56 0 2.67-1.1 1.1-1.109 1.1-2.67 0-.73-.24-1.357-.086-.229-.204-.444-.253-.466-.656-.87-.603-.602-1.34-.877-.618-.23-1.33-.23m0 1.454v2.217zm0 4.444q-.879 0-1.5-.621-.62-.621-.62-1.5 0-.78.488-1.356-.488.577-.488 1.357 0 .878.62 1.499.621.62 1.5.62.878 0 1.499-.62.62-.621.62-1.5 0-.78-.487-1.356.488.577.488 1.357 0 .878-.621 1.499-.621.62-1.5.62"/>
    <path fill="none" stroke="#a91818" stroke-linecap="round" stroke-linejoin="round" stroke-width=".887" d="M-428.403 46.347v2.217m1.632-1.25q.488.577.488 1.357 0 .878-.621 1.499-.621.62-1.5.62-.878 0-1.498-.62-.621-.621-.621-1.5 0-.78.488-1.356"/>
    <path fill="#404040" d="M-438.853 44.404q-1.747-1.747-4.248-1.747t-4.276 1.747q-1.747 1.765-1.747 4.267 0 2.492 1.747 4.249v.009q1.774 1.756 4.276 1.756 2.492 0 4.24-1.756l.008-.01q1.766-1.756 1.766-4.248 0-2.502-1.774-4.267zm-4.248-.949q2.155 0 3.68 1.526 1.535 1.526 1.535 3.69 0 2.155-1.534 3.69-1.526 1.526-3.681 1.526-2.165 0-3.7-1.526-1.516-1.535-1.516-3.69 0-2.164 1.517-3.69v-.009q1.534-1.517 3.699-1.517"/>
    <path fill="#d7d7d7" d="M-439.42 44.98q-1.526-1.525-3.681-1.525-2.165 0-3.7 1.517v.009q-1.516 1.526-1.516 3.69 0 2.155 1.517 3.69 1.534 1.526 3.699 1.526 2.155 0 3.68-1.526 1.535-1.535 1.535-3.69 0-2.164-1.534-3.69m-3.681-.745q1.827 0 3.13 1.295h.01q1.295 1.295 1.295 3.14 0 1.836-1.295 3.14-1.304 1.295-3.14 1.295-1.845 0-3.14-1.295v-.009q-1.296-1.304-1.296-3.131 0-1.845 1.296-3.14 1.295-1.295 3.14-1.295"/>
    <path fill="#fff" d="M-439.97 45.53q-1.304-1.294-3.131-1.294-1.845 0-3.14 1.295t-1.296 3.14q0 1.827 1.296 3.131v.009q1.295 1.295 3.14 1.295 1.836 0 3.14-1.295 1.295-1.304 1.295-3.14 0-1.845-1.295-3.14zm-3.13-.639q1.56 0 2.67 1.109 1.1 1.1 1.1 2.67 0 1.561-1.1 2.67-1.11 1.1-2.67 1.1-1.57 0-2.67-1.1-1.11-1.109-1.11-2.67 0-1.57 1.1-2.67l.01-.009q1.1-1.1 2.67-1.1"/>
    <path fill="#f5f5f5" d="M-440.431 46q-1.11-1.108-2.67-1.108-1.57 0-2.67 1.1l-.01.009q-1.1 1.1-1.1 2.67 0 1.561 1.11 2.67 1.1 1.1 2.67 1.1 1.56 0 2.67-1.1 1.1-1.109 1.1-2.67 0-1.57-1.1-2.67m-4.418 4.958v-2.27h-1.109l2.857-2.741 2.856 2.74h-1.109v2.271zm2.528-2.572h-1.57v1.561h1.57z"/>
    <path fill="#4196f3" d="M-444.849 48.689v2.27h3.495v-2.27h1.109l-2.856-2.741-2.857 2.74zm.957-.301h1.57v1.561h-1.57z"/>
    <path fill="#404040" d="M-453.56 44.404h.01q-1.748-1.747-4.25-1.747-2.5 0-4.275 1.747-1.747 1.765-1.747 4.267 0 2.492 1.747 4.249v.009q1.774 1.756 4.276 1.756 2.492 0 4.24-1.756l.008-.01q1.766-1.756 1.766-4.248 0-2.502-1.774-4.267m-4.24-.949q2.155 0 3.68 1.526 1.535 1.526 1.535 3.69 0 2.155-1.534 3.69-1.526 1.526-3.681 1.526-2.165 0-3.7-1.526-1.516-1.535-1.516-3.69 0-2.164 1.517-3.69v-.009q1.534-1.517 3.699-1.517"/>
    <path fill="#d7d7d7" d="M-454.118 44.98q-1.526-1.525-3.681-1.525-2.165 0-3.7 1.517v.009q-1.516 1.526-1.516 3.69 0 2.155 1.517 3.69 1.534 1.526 3.699 1.526 2.155 0 3.68-1.526 1.535-1.535 1.535-3.69 0-2.164-1.534-3.69m-.55.55h.009q1.295 1.295 1.295 3.14 0 1.836-1.295 3.14-1.304 1.295-3.14 1.295-1.845 0-3.14-1.295v-.009q-1.296-1.304-1.296-3.131 0-1.845 1.296-3.14 1.295-1.295 3.14-1.295 1.827 0 3.13 1.295"/>
    <path fill="#fff" d="M-454.66 45.53h-.008q-1.304-1.294-3.131-1.294-1.845 0-3.14 1.295t-1.296 3.14q0 1.827 1.296 3.131v.009q1.295 1.295 3.14 1.295 1.836 0 3.14-1.295 1.295-1.304 1.295-3.14 0-1.845-1.295-3.14m-3.14-.639q1.56 0 2.67 1.109 1.1 1.1 1.1 2.67 0 1.561-1.1 2.67-1.11 1.1-2.67 1.1-1.57 0-2.67-1.1-1.11-1.109-1.11-2.67 0-1.57 1.1-2.67l.01-.009q1.1-1.1 2.67-1.1"/>
    <path fill="#f5f5f5" d="M-455.13 46q-1.108-1.108-2.67-1.108-1.57 0-2.67 1.1l-.008.009q-1.1 1.1-1.1 2.67 0 1.561 1.109 2.67 1.1 1.1 2.67 1.1 1.56 0 2.67-1.1 1.1-1.109 1.1-2.67 0-1.57-1.1-2.67m-.355 3.193h-4.622V48.13h4.622z"/>
    <path fill="#9a9a9a" d="M-460.106 49.194h4.622V48.13h-4.622Z"/>
    <path fill="#404040" d="M-468.257 44.404h.008q-1.747-1.747-4.248-1.747t-4.276 1.747q-1.747 1.765-1.747 4.267 0 2.492 1.747 4.249v.009q1.774 1.756 4.276 1.756 2.492 0 4.24-1.756l.008-.01q1.766-1.756 1.766-4.248 0-2.502-1.774-4.267m-4.24-.949q2.155 0 3.68 1.526 1.535 1.526 1.535 3.69 0 2.155-1.534 3.69-1.526 1.526-3.681 1.526-2.165 0-3.7-1.526-1.516-1.535-1.516-3.69 0-2.164 1.517-3.69v-.009q1.534-1.517 3.699-1.517"/>
    <path fill="#d7d7d7" d="M-468.816 44.98q-1.526-1.525-3.681-1.525-2.165 0-3.7 1.517v.009q-1.516 1.526-1.516 3.69 0 2.155 1.517 3.69 1.534 1.526 3.699 1.526 2.155 0 3.68-1.526 1.535-1.535 1.535-3.69 0-2.164-1.534-3.69m-.55.55h.009q1.295 1.295 1.295 3.14 0 1.836-1.295 3.14-1.304 1.295-3.14 1.295-1.845 0-3.14-1.295v-.009q-1.296-1.304-1.296-3.131 0-1.845 1.295-3.14 1.296-1.295 3.14-1.295 1.828 0 3.132 1.295"/>
    <path fill="#fff" d="M-469.357 45.53h-.01q-1.303-1.294-3.13-1.294-1.845 0-3.14 1.295t-1.296 3.14q0 1.827 1.295 3.131v.009q1.296 1.295 3.14 1.295 1.837 0 3.14-1.295 1.296-1.304 1.296-3.14 0-1.845-1.295-3.14m-3.14-.639q1.56 0 2.67 1.109 1.1 1.1 1.1 2.67 0 1.561-1.1 2.67-1.11 1.1-2.67 1.1-1.57 0-2.67-1.1-1.11-1.109-1.11-2.67 0-1.57 1.1-2.67l.01-.009q1.1-1.1 2.67-1.1"/>
    <path fill="#f5f5f5" d="M-469.827 46q-1.11-1.108-2.67-1.108-1.57 0-2.67 1.1l-.01.009q-1.1 1.1-1.1 2.67 0 1.561 1.11 2.67 1.1 1.1 2.67 1.1 1.56 0 2.67-1.1 1.1-1.109 1.1-2.67 0-1.57-1.1-2.67m-3.203 2.129v-1.774h1.065v1.774h1.783v1.064h-1.783v1.783h-1.065v-1.783h-1.774V48.13z"/>
    <path fill="#9a9a9a" d="M-473.03 46.356v1.774h-1.774v1.064h1.774v1.783h1.065v-1.783h1.783V48.13h-1.783v-1.774z"/>
</svg>
