<svg width="100px" height="100px" preserveAspectRatio="none" version="1.1" viewBox="0 0 100 100" xmlns="http://www.w3.org/2000/svg">
 <g>
  <path d="m55.8 29.4c-4.9-0.93333-9.4-0.01667-13.5 2.75-4.0667 2.8333-6.5667 6.6833-7.5 11.55l-4.8 25.3c-0.93333 4.8667-0.01667 9.3333 2.75 13.4 2.8 4.1333 6.65 6.6667 11.55 7.6 4.8667 0.9 9.3333-0.05 13.4-2.85 4.1-2.8 6.6167-6.6333 7.55-11.5l4.8-25.3c0.93333-4.8667 0-9.35-2.8-13.45-2.7667-4.1-6.5833-6.6-11.45-7.5" fill="#96989d"/>
  <path d="m54.4 36.8q-4.3-0.85-7.9 1.6-3.55 2.4-4.35 6.7l-4.8 25.3q-0.8 4.25 1.6 7.8 2.45 3.55 6.75 4.4 4.25 0.8 7.8-1.65 3.6-2.4 4.4-6.65l4.8-25.3q0.8-4.3-1.65-7.85-2.4-3.55-6.65-4.35z" fill="#BCBFC4"/>
 </g>
 <path d="m62.7 49q0.8-4.3-1.65-7.85-2.4-3.55-6.65-4.35-4.3-0.85-7.9 1.6-3.55 2.4-4.35 6.7l-4.8 25.3q-0.8 4.25 1.6 7.8 2.45 3.55 6.75 4.4 4.25 0.8 7.8-1.65 3.6-2.4 4.4-6.65l4.8-25.3zm-18.45-43.15h18m-18 7.5h18m-18 7.5h18" fill="none" stroke="#E3E7ED" stroke-linecap="round" stroke-linejoin="round" stroke-width="4"/>
 <path d="m70.05 50.35q1.4-7.3-2.8-13.45-4.15-6.15-11.45-7.5-7.35-1.4-13.5 2.75-6.1 4.25-7.5 11.55l-4.8 25.3q-1.4 7.3 2.75 13.4 4.2 6.2 11.55 7.6 7.3 1.35 13.4-2.85 6.15-4.2 7.55-11.5l4.8-25.3z" fill="none" stroke="#434345" stroke-linecap="round" stroke-linejoin="round" stroke-width="4"/>
</svg>
