<?xml version="1.0" encoding="UTF-8"?>
<svg preserveAspectRatio="none" version="1.1" viewBox="0 0 100 100" xmlns="http://www.w3.org/2000/svg">
<path d="m33.35 88.15c-0.2 3.6 1.45 5.75 4.95 6.45 3.6 0.76667 7.5167 1.1667 11.75 1.2 4.1667-0.03333 8.05-0.43333 11.65-1.2 3.5-0.7 5.15-2.85 4.95-6.45l-1.8-16.15c-0.36667-1.7-2.4667-4.8-6.3-9.3-0.6-0.73333-1.15-1.3833-1.65-1.95-0.93333-0.96667-1.7833-1.95-2.55-2.95-0.56667-0.83333-1.2667-1.45-2.1-1.85-1.0667-0.46667-2.1333-0.56667-3.2-0.3-1.1 0.23333-2.0167 0.73333-2.75 1.5-0.5 0.5-1 1.0333-1.5 1.6-0.63333 0.76667-1.2833 1.5167-1.95 2.25-0.43333 0.53333-0.9 1.1-1.4 1.7-3.8333 4.5-5.9333 7.6-6.3 9.3l-1.8 16.15" fill="#d6d9de"/>
<path d="m50.25 61.85h-0.5c-0.26667 0.06667-0.86667 0.71667-1.8 1.95-1 1.2333-2.0667 2.4833-3.2 3.75-1.1667 1.2333-2.4333 2.85-3.8 4.85l-2 16.6c3.2667 0.83333 6.8667 1.25 10.8 1.25h0.5c3.9333 0 7.55-0.41667 10.85-1.25l-2.05-16.6c-1.3667-2-2.6333-3.6167-3.8-4.85-1.1333-1.2667-2.2-2.5167-3.2-3.75-0.93333-1.2333-1.5333-1.8833-1.8-1.95" fill="#fff"/>
<path d="m50.3 85.2 3.85-5.9h-7.6l3.75 5.9m-6.25-37.45c-0.4-0.83333-1.0167-1.5333-1.85-2.1-1-0.76667-1.9833-1.6167-2.95-2.55-0.56667-0.5-1.2167-1.05-1.95-1.65-4.5-3.8333-7.6-5.9333-9.3-6.3l-16.15-1.8c-3.6-0.2-5.75 1.45-6.45 4.95-0.76667 3.6-1.1667 7.4833-1.2 11.65 0.033333 4.2333 0.43333 8.15 1.2 11.75 0.7 3.5 2.85 5.15 6.45 4.95l16.15-1.8c1.7-0.36667 4.8-2.4667 9.3-6.3 0.6-0.5 1.1667-0.96667 1.7-1.4 0.73333-0.66667 1.4833-1.3167 2.25-1.95 0.56667-0.5 1.1-1 1.6-1.5 0.76667-0.73333 1.2667-1.65 1.5-2.75 0.26667-1.0667 0.16667-2.1333-0.3-3.2m22.6-35.9c0.2-3.6-1.45-5.75-4.95-6.45-3.6-0.76667-7.4833-1.1667-11.65-1.2-4.2333 0.033333-8.15 0.43333-11.75 1.2-3.5 0.7-5.15 2.85-4.95 6.45l1.8 16.15c0.36667 1.7 2.4667 4.8 6.3 9.3 0.5 0.6 0.96667 1.1667 1.4 1.7 0.66667 0.73333 1.3167 1.4833 1.95 2.25 0.5 0.56667 1 1.1 1.5 1.6 0.73333 0.76667 1.65 1.2667 2.75 1.5 1.0667 0.26667 2.1333 0.16667 3.2-0.3 0.83333-0.4 1.5333-1.0167 2.1-1.85 0.76667-1 1.6167-1.9833 2.55-2.95 0.5-0.56667 1.05-1.2167 1.65-1.95 3.8333-4.5 5.9333-7.6 6.3-9.3l1.8-16.15m27.95 26.45c-0.7-3.5-2.85-5.15-6.45-4.95l-16.15 1.8c-1.7 0.36667-4.8 2.4667-9.3 6.3-0.73333 0.6-1.3833 1.15-1.95 1.65-0.96667 0.93333-1.95 1.7833-2.95 2.55-0.83333 0.56667-1.45 1.2667-1.85 2.1-0.46667 1.0667-0.56667 2.1333-0.3 3.2 0.23333 1.1 0.73333 2.0167 1.5 2.75 0.5 0.5 1.0333 1 1.6 1.5 0.76667 0.63333 1.5167 1.2833 2.25 1.95 0.53333 0.43333 1.1 0.9 1.7 1.4 4.5 3.8333 7.6 5.9333 9.3 6.3l16.15 1.8c3.6 0.2 5.75-1.45 6.45-4.95 0.76667-3.6 1.1667-7.5167 1.2-11.75-0.03333-4.1667-0.43333-8.05-1.2-11.65" fill="#96989d"/>
<path d="m32.45 44.75c-1.2333-1.1667-2.85-2.4333-4.85-3.8l-16.6-2.05c-0.83333 3.3-1.25 6.9167-1.25 10.85v0.5c0 3.9333 0.41667 7.5333 1.25 10.8l16.6-2c2-1.3667 3.6167-2.6333 4.85-3.8 1.2667-1.1333 2.5167-2.2 3.75-3.2 1.2333-0.93333 1.8833-1.5333 1.95-1.8v-0.5c-0.06667-0.26667-0.71667-0.86667-1.95-1.8-1.2333-1-2.4833-2.0667-3.75-3.2m17.55-35h-0.25c-3.9333 0-7.5333 0.41667-10.8 1.25l2 16.6c1.3667 2 2.6333 3.6167 3.8 4.85 1.1333 1.2667 2.2 2.5167 3.2 3.75 0.93333 1.2333 1.5333 1.8833 1.8 1.95h0.5c0.26667-0.06667 0.86667-0.71667 1.8-1.95 1-1.2333 2.0667-2.4833 3.2-3.75 1.1667-1.2333 2.4333-2.85 3.8-4.85l2.05-16.6c-3.3-0.83333-6.9167-1.25-10.85-1.25h-0.25m40.25 40.25v-0.25c0-3.9333-0.41667-7.55-1.25-10.85l-16.6 2.05c-2 1.3667-3.6167 2.6333-4.85 3.8-1.2667 1.1333-2.5167 2.2-3.75 3.2-1.2333 0.93333-1.8833 1.5333-1.95 1.8v0.5c0.06667 0.26667 0.71667 0.86667 1.95 1.8 1.2333 1 2.4833 2.0667 3.75 3.2 1.2333 1.1667 2.85 2.4333 4.85 3.8l16.6 2c0.83333-3.2667 1.25-6.8667 1.25-10.8v-0.25" fill="#bcbfc4"/>
<path d="m14.8 49.7 5.9 3.75v-7.6l-5.9 3.85m35.5-34.9-3.75 5.9h7.6l-3.85-5.9m29 31.05v7.6l5.9-3.75-5.9-3.85z" fill="#54565A"/>
<path d="m88.15 33.35q5.4-0.3 6.45 4.95 1.15 5.4 1.2 11.65-0.05 6.35-1.2 11.75-1.05 5.25-6.45 4.95l-16.15-1.8q-2.55-0.55-9.3-6.3-0.9-0.75-1.7-1.4-1.1-1-2.25-1.95-0.85-0.75-1.6-1.5-1.15-1.1-1.5-2.75-0.4-1.6 0.3-3.2 0.6-1.25 1.85-2.1 1.5-1.15 2.95-2.55 0.85-0.75 1.95-1.65 6.75-5.75 9.3-6.3l16.15-1.8zm-21.5-21.5q0.3-5.4-4.95-6.45-5.4-1.15-11.65-1.2-6.35 0.05-11.75 1.2-5.25 1.05-4.95 6.45l1.8 16.15q0.55 2.55 6.3 9.3 0.75 0.9 1.4 1.7 1 1.1 1.95 2.25 0.75 0.85 1.5 1.6 1.1 1.15 2.75 1.5 1.6 0.4 3.2-0.3 1.25-0.6 2.1-1.85 1.15-1.5 2.55-2.95 0.75-0.85 1.65-1.95 5.75-6.75 6.3-9.3l1.8-16.15zm-38.65 53q2.55-0.55 9.3-6.3 0.9-0.75 1.7-1.4 1.1-1 2.25-1.95 0.85-0.75 1.6-1.5 1.15-1.1 1.5-2.75 0.4-1.6-0.3-3.2-0.6-1.25-1.85-2.1-1.5-1.15-2.95-2.55-0.85-0.75-1.95-1.65-6.75-5.75-9.3-6.3l-16.15-1.8q-5.4-0.3-6.45 4.95-1.15 5.4-1.2 11.65 0.05 6.35 1.2 11.75 1.05 5.25 6.45 4.95l16.15-1.8z" fill="none" stroke="#434345" stroke-linecap="round" stroke-linejoin="round" stroke-width="2"/>
<path d="m61.85 50.25q0.1 0.4 1.95 1.8 1.85 1.5 3.75 3.2 1.85 1.75 4.85 3.8l16.6 2q1.25-4.9 1.25-10.8 0-0.1 0-0.25t0-0.25q0-5.9-1.25-10.85l-16.6 2.05q-3 2.05-4.85 3.8-1.9 1.7-3.75 3.2-1.85 1.4-1.95 1.8m-12.1-11.6q-0.4-0.1-1.8-1.95-1.5-1.85-3.2-3.75-1.75-1.85-3.8-4.85l-2-16.6q4.9-1.25 10.8-1.25 0.1 0 0.25 0t0.25 0q5.9 0 10.85 1.25l-2.05 16.6q-2.05 3-3.8 4.85-1.7 1.9-3.2 3.75-1.4 1.85-1.8 1.95m-12.1 12.1q-0.1 0.4-1.95 1.8-1.85 1.5-3.75 3.2-1.85 1.75-4.85 3.8l-16.6 2q-1.25-4.9-1.25-10.8 0-0.1 0-0.25t0-0.25q0-5.9 1.25-10.85l16.6 2.05q3 2.05 4.85 3.8 1.9 1.7 3.75 3.2 1.85 1.4 1.95 1.8" fill="none" stroke="#E3E7ED" stroke-linecap="round" stroke-linejoin="round" stroke-width="4"/>
<path d="m49.75 61.85q-0.4 0.1-1.8 1.95-1.5 1.85-3.2 3.75-1.75 1.85-3.8 4.85l-2 16.6q4.9 1.25 10.8 1.25 0.1 0 0.25 0t0.25 0q5.9 0 10.85-1.25l-2.05-16.6q-2.05-3-3.8-4.85-1.7-1.9-3.2-3.75-1.4-1.85-1.8-1.95" fill="none" stroke="#fff" stroke-linecap="round" stroke-linejoin="round" stroke-width="4"/>
<path d="m66.65 88.15q0.3 5.4-4.95 6.45-5.4 1.15-11.65 1.2-6.35-0.05-11.75-1.2-5.25-1.05-4.95-6.45l1.8-16.15q0.55-2.55 6.3-9.3 0.75-0.9 1.4-1.7 1-1.1 1.95-2.25 0.75-0.85 1.5-1.6 1.1-1.15 2.75-1.5 1.6-0.4 3.2 0.3 1.25 0.6 2.1 1.85 1.15 1.5 2.55 2.95 0.75 0.85 1.65 1.95 5.75 6.75 6.3 9.3l1.8 16.15z" fill="none" stroke="#BCBFC4" stroke-linecap="round" stroke-linejoin="round" stroke-width="2"/>
</svg>
