<?xml version="1.0" encoding="UTF-8"?>
<svg preserveAspectRatio="none" version="1.1" viewBox="0 0 100 100" xmlns="http://www.w3.org/2000/svg">
<path d="m85.5 43.35v-14.55c-0.1-3-0.25-6.0167-0.45-9.05-0.2-3.1-1.6167-5.4333-4.25-7-2.7333-1.6-5.65-2.1333-8.75-1.6-1.2 0.06667-2.4 0.15-3.6 0.25-0.16667 0-0.33333 0.01667-0.5 0.05-17 1.3-32.133 1.4-45.4 0.3-4.4333 2.6-6.6167 7.0167-6.55 13.25 3.2667 15.167 3.7167 30.433 1.35 45.8-0.8 4.5667 0.5 9.1833 3.9 13.85 3.4 3.1333 7.7833 5.1167 13.15 5.95 10.6 1.6667 19.483-0.55 26.65-6.65l6.55-13.6c2.1333-7.5667 5.55-13.1 10.25-16.6 4.2-2.2667 6.75-5.7333 7.65-10.4" fill="#313131"/>
<path d="m59.25 18.9c-11.017 1.0638-22.131 0.98544-33.15 0-2.5089 1.8715-2.891 5.3489-2.0625 8.175 1.1719 7.7152 2.2528 15.509 1.7486 23.331-0.01675 7.8533-0.71017 15.682-1.4322 23.492-0.14874 4.3086 2.9329 8.3489 7.0961 9.4141 2.9688 0.89263 6.1819-0.0098 9.0352-0.95234 4.7748-2.1232 8.6006-6.0753 11.076-10.635 4.4564-7.1336 7.354-15.139 8.9738-23.373 0.88901-4.1334 1.5469-8.328 1.8028-12.552 0.36006-3.7191 0.33501-7.4646 0.53125-11.186-0.17247-2.3686-1.5397-4.5552-3.6187-5.7141z" fill="#4f4f4f"/>
<path d="m42.35 41v-3.15h-6.35v-12.4h-3.45v15.55h9.8m12.65-11.1q0-1.2-0.4-2.1-0.4-0.85-1.05-1.45-0.7-0.6-1.65-0.85-0.9-0.35-2-0.35t-2.1 0.35q-1 0.25-1.7 0.85t-1.15 1.5-0.55 2.1l3.3 0.25q0.1-0.85 0.6-1.4 0.5-0.6 1.45-0.6 0.8 0 1.35 0.45 0.6 0.45 0.6 1.3 0 0.65-0.5 1.15-0.45 0.6-0.95 1l-6 5.4v3.5h10.8v-2.9h-6.85l4.7-4.05q0.45-0.4 0.8-0.8 0.4-0.45 0.65-0.95 0.3-0.5 0.45-1.1 0.2-0.6 0.2-1.3z" fill="#8F8F8F"/>
<path d="m85.5 28.8q-0.15-4.5-0.45-9.05-0.3-4.65-4.25-7-4.1-2.4-8.75-1.6-1.8 0.1-3.6 0.25-0.25 0-0.5 0.05-25.5 1.95-45.4 0.3-6.65 3.9-6.55 13.25 4.9 22.75 1.35 45.8-1.2 6.85 3.9 13.85 5.1 4.7 13.15 5.95 15.9 2.5 26.65-6.65l6.55-13.6q3.2-11.35 10.25-16.6 6.3-3.4 7.65-10.4v-14.55z" fill="none" stroke="#1B1B1B" stroke-linecap="round" stroke-linejoin="round" stroke-width="5"/>
<path d="m26.1 18.9c11.019 0.98624 22.133 1.0642 33.15 0 3.1129 1.6341 4.1399 5.4426 3.4781 8.7-0.11146 6.01-0.5035 12.039-1.6312 17.953-1.4397 7.9015-3.6889 15.729-7.5857 22.797-2.3353 4.228-4.7832 8.5862-8.7955 11.465-3.3906 2.8229-7.9796 4.1498-12.341 3.7531-4.2003-0.7721-7.7433-4.3802-7.9836-8.7203 0.070731-4.2385 0.77599-8.4559 0.95547-12.698 0.39487-6.3445 0.54082-12.708 0.51445-19.062-0.2778-6.4566-1.4428-12.839-2.2332-19.231 0.090381-1.8846 0.9492-3.8014 2.4719-4.9562z" fill="none" stroke="#626262" stroke-linecap="round" stroke-linejoin="round" stroke-width="3"/>
</svg>
