<svg width="100px" height="100px" preserveAspectRatio="none" version="1.1" viewBox="0 0 100 100" xmlns="http://www.w3.org/2000/svg">
 <defs>
  <linearGradient id="Gradient_1" x1="50.05" x2="50.05" y1="28.25" y2="38.25" gradientUnits="userSpaceOnUse">
   <stop stop-color="#4F4F4F" offset="0"/>
   <stop stop-color="#313131" offset="1"/>
  </linearGradient>
 </defs>
 <g>
  <path d="m44.9 78.4q0.8 0.85 2 0.85h4.3l-7.25-7.05v4.1q0 1.25 0.95 2.1m12.15-17.9q0-1.25-0.85-2.1t-2.1-0.85h-7.2q-1.2 0-2 0.85-0.95 0.85-0.95 2.1v2.4l13.1 12.8v-15.2m5.3 13.25q0-0.7-0.45-1.15-0.5-0.5-1.2-0.5t-1.2 0.5q-0.5 0.45-0.5 1.15v3.9l3.1 3.05q0.25-0.95 0.25-2.1v-4.85m-25.75-11.8q0 0.7 0.5 1.2l23.45 23q0.5 0.45 1.2 0.45t1.15-0.5q0.5-0.5 0.5-1.15 0-0.7-0.5-1.15l-23.45-23.05q-0.5-0.5-1.15-0.5-0.7 0-1.2 0.5t-0.5 1.2m1.9 11.8v4.85q0.05 5.7 5.7 5.75h4.55v2.25h-3.95q-0.7 0-1.15 0.5-0.5 0.45-0.5 1.15 0 0.75 0.5 1.25 0.45 0.45 1.15 0.45h11.2q0.7 0 1.2-0.45 0.45-0.5 0.45-1.25 0-0.7-0.45-1.15-0.5-0.5-1.2-0.5h-3.95v-2.25h4.3l-3.35-3.35h-8.75q-2.4-0.05-2.45-2.45v-4.8q0-0.7-0.45-1.15-0.5-0.5-1.2-0.5t-1.15 0.5q-0.5 0.45-0.5 1.15z" fill="#e3e7ed"/>
  <path d="m86.5 43.15c2.3333-2.3333 3.5-5.1333 3.5-8.4 0-3.3-1.1667-6.1-3.5-8.4-2.3-2.3333-5.1-3.5-8.4-3.5h-56.2c-3.3 0-6.1 1.1667-8.4 3.5-2.3333 2.3-3.5 5.1-3.5 8.4 0 3.2667 1.1667 6.0667 3.5 8.4 2.3 2.3 5.1 3.45 8.4 3.45h56.2c3.3 0 6.1-1.15 8.4-3.45" fill="#313131"/>
  <path d="m84 34.75q0.01211-2.432-1.7-4.15l-0.1-0.05q-1.6682-1.7121-4.1-1.7h-56.2q-2.432-0.01211-4.15 1.7l-0.05 0.05q-1.7121 1.718-1.7 4.15 0.01191 2.4199 1.75 4.15 1.7025 1.7064 4.15 1.7h56.2q2.4473 0.0064 4.15-1.7 1.7379-1.7301 1.75-4.15z" fill="url(#Gradient_1)"/>
 </g>
 <g>
  <path d="m78.1 22.85q4.95 0 8.4 3.5 3.5 3.45 3.5 8.4 0 4.9-3.5 8.4-3.45 3.45-8.4 3.45h-56.2q-4.95 0-8.4-3.45-3.5-3.5-3.5-8.4 0-4.95 3.5-8.4 3.45-3.5 8.4-3.5z" fill="none" stroke="#1b1b1b" stroke-linecap="round" stroke-linejoin="round" stroke-width="5"/>
 </g>
</svg>
