<svg width="100px" height="100px" preserveAspectRatio="none" version="1.1" viewBox="0 0 100 100" xmlns="http://www.w3.org/2000/svg">
 <g>
  <path d="m84.15 70.8c-2.3667-15.367-1.9167-30.633 1.35-45.8 0.06667-6.2333-2.1167-10.65-6.55-13.25-13.267 1.1-28.4 1-45.4-0.3-0.16667-0.03333-0.33333-0.05-0.5-0.05-1.2-0.1-2.4-0.18333-3.6-0.25-3.1-0.53333-6.0167 0-8.75 1.6-2.6333 1.5667-4.05 3.9-4.25 7-0.2 3.0333-0.35 6.05-0.45 9.05v14.55c0.9 4.6667 3.45 8.1333 7.65 10.4 4.7 3.5 8.1167 9.0333 10.25 16.6l6.55 13.6c7.1667 6.1 16.05 8.3167 26.65 6.65 5.3667-0.83333 9.75-2.8167 13.15-5.95 3.4-4.6667 4.7-9.2833 3.9-13.85" fill="#313131"/>
  <path d="m77.85 24.7c0.16912-2.3253-1.0358-6.3775-3.9822-5.6875-10.513 0.90311-21.112 0.88943-31.618-0.1125-3.1129 1.6341-4.1399 5.4426-3.4781 8.7 0.13006 5.8714 0.45057 11.773 1.5781 17.55 1.3068 7.4513 3.3197 14.861 6.8217 21.605 2.4797 4.6543 4.975 9.5647 9.2932 12.805 3.4391 2.9804 8.1575 4.4249 12.66 4.0086 4.0325-0.75787 7.4975-4.0926 7.9344-8.25 0.1817-3.6886-0.62994-7.3544-0.74609-11.044-0.55224-6.9259-0.66054-13.882-0.68828-20.825 0.29757-6.2915 1.2227-12.538 2.225-18.75z" fill="#4f4f4f"/>
  <path d="m57.35 30.15c0.07672-1.7514-0.89317-3.6199-2.625-4.1875-2.0533-0.80648-4.2847-0.5018-6.4355-0.5625h-2.8395v15.6h3.4v-6.25h1.7c1.0833 2.0833 2.1667 4.1667 3.25 6.25h4.1c-1.3167-2.2-2.6333-4.4-3.95-6.6 2.0749-0.26442 3.4732-2.2193 3.4-4.25zm-6.25-1.85c1.0082 0.02877 2.4445 0.21576 2.6219 1.4352 0.27773 1.0398-0.5496 2.0538-1.6062 2.0836-1.0851 0.0689-2.1775 0.01318-3.2656 0.03125v-3.55h2.25zm8.8-0.45c-0.24944 0.5895-0.73105 1.7154-0.32474 2.1106 1.0416 0.06313 2.0832 0.12625 3.1247 0.18938-0.02949-1.3161 1.3243-2.2752 2.5648-1.8867 1.1599 0.18045 1.7053 1.6234 1.082 2.5742-0.97963 1.2697-2.2889 2.2273-3.4451 3.3278-1.2339 1.1116-2.4678 2.2231-3.7018 3.3347v3.5h10.85v-2.9h-6.9c1.6448-1.4233 3.3333-2.7997 4.95-4.2531 0.97294-0.90288 1.721-2.0981 1.7789-3.4555 0.14301-1.5372-0.2564-3.2578-1.5961-4.1867-1.7635-1.3311-4.2652-1.3171-6.2406-0.4875-0.92837 0.43516-1.733 1.183-2.1422 2.1328z" fill="#8c8c8c"/>
 </g>
 <g>
  <path d="m85.5 25q-4.9 22.75-1.35 45.8 1.2 6.85-3.9 13.85-5.1 4.7-13.15 5.95-15.9 2.5-26.65-6.65l-6.55-13.6q-3.2-11.35-10.25-16.6-6.3-3.4-7.65-10.4v-14.55q0.15-4.5 0.45-9.05 0.3-4.65 4.25-7 4.1-2.4 8.75-1.6 1.8 0.1 3.6 0.25 0.25 0 0.5 0.05 25.5 1.95 45.4 0.3 6.65 3.9 6.55 13.25z" fill="none" stroke="#1b1b1b" stroke-linecap="round" stroke-linejoin="round" stroke-width="5"/>
 </g>
 <path d="m42.25 18.9c-3.1129 1.6341-4.1399 5.4426-3.4781 8.7 0.11146 6.01 0.5035 12.039 1.6312 17.953 1.4397 7.9015 3.6889 15.729 7.5857 22.797 2.3353 4.228 4.7832 8.5862 8.7955 11.465 3.3906 2.8229 7.9796 4.1498 12.341 3.7531 4.2003-0.7721 7.7433-4.3802 7.9836-8.7203-0.070731-4.2385-0.77599-8.4559-0.95547-12.698-0.39487-6.3445-0.54082-12.708-0.51445-19.062 0.2778-6.4566 1.4428-12.839 2.2332-19.231-0.071517-2.6583-1.9243-6.0172-5.0197-4.7688-10.17 0.83682-20.441 0.7781-30.602-0.1875z" fill="none" stroke="#626262" stroke-linecap="round" stroke-linejoin="round" stroke-width="3"/>
</svg>
