<svg width="100px" height="100px" preserveAspectRatio="none" version="1.1" viewBox="0 0 100 100" xmlns="http://www.w3.org/2000/svg">
 <g>
  <path d="m65.3 43.7c-0.93333-4.8667-3.4333-8.7167-7.5-11.55-4.1-2.7667-8.6-3.6833-13.5-2.75-4.8667 0.9-8.6833 3.4-11.45 7.5-2.8 4.1-3.7333 8.5833-2.8 13.45l4.8 25.3c0.93333 4.8667 3.45 8.7 7.55 11.5 4.0667 2.8 8.5333 3.75 13.4 2.85 4.9-0.93333 8.75-3.4667 11.55-7.6 2.7667-4.0667 3.6833-8.5333 2.75-13.4l-4.8-25.3" fill="#96989d"/>
  <path d="m57.95 45.1q-0.8-4.3-4.35-6.7-3.6-2.45-7.9-1.6-4.25 0.8-6.65 4.35-2.45 3.55-1.65 7.85l4.8 25.3q0.8 4.25 4.4 6.65 3.55 2.45 7.8 1.65 4.3-0.85 6.75-4.4 2.4-3.55 1.6-7.8z" fill="#bcbfc4"/>
 </g>
 <path d="m47.7 19.65 0.2-13.25m10 14.75 5.55-9.4m-26.05 37.25q-0.8-4.3 1.65-7.85 2.4-3.55 6.65-4.35 4.3-0.85 7.9 1.6 3.55 2.4 4.35 6.7l4.8 25.3q0.8 4.25-1.6 7.8-2.45 3.55-6.75 4.4-4.25 0.8-7.8-1.65-3.6-2.4-4.4-6.65zm0.05-28.1-5.2-9.6" fill="none" stroke="#e3e7ed" stroke-linecap="round" stroke-linejoin="round" stroke-width="4"/>
 <path d="m30.05 50.35q-1.4-7.3 2.8-13.45 4.15-6.15 11.45-7.5 7.35-1.4 13.5 2.75 6.1 4.25 7.5 11.55l4.8 25.3q1.4 7.3-2.75 13.4-4.2 6.2-11.55 7.6-7.3 1.35-13.4-2.85-6.15-4.2-7.55-11.5z" fill="none" stroke="#434345" stroke-linecap="round" stroke-linejoin="round" stroke-width="4"/>
</svg>
