<?xml version="1.0" encoding="UTF-8"?>
<svg preserveAspectRatio="none" version="1.1" viewBox="0 0 100 100" xmlns="http://www.w3.org/2000/svg">
<defs>
<linearGradient id="a" x1="50.55" x2="50.55" y1="43.088" y2="32.712" gradientUnits="userSpaceOnUse">
<stop stop-color="#BCBFC4" offset="0"/>
<stop stop-color="#96989D" offset="1"/>
</linearGradient>
</defs>
<path d="m92.7 35.9q0.1-4.65-4.1-5.25-36.8-3.1543-70.8-0.55-3.1873 0.2543-6.35 0.55-4.2 0.6-4.1 5.25l6.15 29.6q2.45 7.65 9.35 8.5h54.35q6.9-0.85 9.35-8.5z" fill="url(#a)"/>
<path d="m88.6 30.65q4.2 0.6 4.1 5.25l-6.15 29.6q-2.45 7.65-9.35 8.5h-54.35q-6.9-0.85-9.35-8.5l-6.15-29.6q-0.1-4.65 4.1-5.25 3.1627-0.2957 6.35-0.55 34-2.6043 70.8 0.55z" fill="none" stroke="#434345" stroke-linecap="round" stroke-linejoin="round" stroke-width="5"/>
</svg>
