<?xml version="1.0" encoding="UTF-8"?>
<svg version="1.1" viewBox="0 0 64 64" xmlns="http://www.w3.org/2000/svg">
<g stroke-linecap="round" stroke-linejoin="round">
<path d="m16 4c-3.3333 0-6.552 0.89573-8.8281 3.1719s-3.1719 5.4948-3.1719 8.8281v32c0 3.3333 0.89573 6.552 3.1719 8.8281s5.4948 3.1719 8.8281 3.1719h32c3.3333 0 6.552-0.89574 8.8281-3.1719s3.1719-5.4948 3.1719-8.8281v-32c0-3.3333-0.89574-6.552-3.1719-8.8281s-5.4948-3.1719-8.8281-3.1719z" color="#000000" style="-inkscape-stroke:none;paint-order:stroke markers fill"/>
<path d="m16 8h32q8 0 8 8v32q0 8-8 8h-32q-8 0-8-8v-32q0-8 8-8m-5 8v32q0 5 5 5h32q5 0 5-5v-32q0-5-5-5h-32q-5 0-5 5m22.5 12.4q-0.4-0.4-1-0.4h-1.65q-0.3 0.05-0.55 0.3-0.3 0.3-0.3 0.7h-4l0.1-1q0.25-1.4 1.3-2.5l0.1-0.1q1.4-1.35 3.35-1.4h1.65q2.25 0 3.85 1.6l0.05 0.05 1 1.35q1.25 3.35-0.95 5.55l-4.45 4.45h6v4h-12v-4l7-6.55q1.25-1.3 0.5-2.05" color="#000000" fill="#fff" stroke-width="8" style="-inkscape-stroke:none;paint-order:stroke markers fill"/>
</g>
</svg>
