<?xml version="1.0" encoding="UTF-8"?>
<svg version="1.1" viewBox="0 0 64 64" xmlns="http://www.w3.org/2000/svg">
<g stroke-linecap="round" stroke-linejoin="round">
<path d="m16 4c-3.3333 0-6.552 0.89573-8.8281 3.1719s-3.1719 5.4948-3.1719 8.8281v32c0 3.3333 0.89573 6.552 3.1719 8.8281s5.4948 3.1719 8.8281 3.1719h32c3.3333 0 6.552-0.89574 8.8281-3.1719s3.1719-5.4948 3.1719-8.8281v-32c0-3.3333-0.89574-6.552-3.1719-8.8281s-5.4948-3.1719-8.8281-3.1719z" color="#000000" style="-inkscape-stroke:none;paint-order:stroke markers fill"/>
<path d="m16 8h32q8 0 8 8v32q0 8-8 8h-32q-8 0-8-8v-32q0-8 8-8m18.5 28.6 0.1-0.1q0.4-0.4 0.4-1t-0.45-1.05-1.05-0.45h-7.5v-10h13v4h-9v2h3.5q2.3 0 3.9 1.6t1.6 3.9v0.5q-0.2 1.95-1.6 3.35l-0.05 0.05q-1.6 1.6-3.85 1.6h-2.65q-1.95-0.05-3.35-1.4l-0.1-0.1q-1.05-1.1-1.3-2.5l-0.1-1h4q0 0.4 0.3 0.7t0.65 0.3h2.55q0.6 0 1-0.4m-23.5-20.6v32q0 5 5 5h32q5 0 5-5v-32q0-5-5-5h-32q-5 0-5 5" color="#000000" fill="#fff" stroke-width="8" style="-inkscape-stroke:none;paint-order:stroke markers fill"/>
</g>
</svg>
