<?xml version="1.0" encoding="UTF-8"?>
<svg version="1.1" viewBox="0 0 64 64" xmlns="http://www.w3.org/2000/svg">
<g stroke-linecap="round" stroke-linejoin="round">
<path d="m16 4c-3.3333 0-6.552 0.89573-8.8281 3.1719s-3.1719 5.4948-3.1719 8.8281v32c0 3.3333 0.89573 6.552 3.1719 8.8281s5.4948 3.1719 8.8281 3.1719h32c3.3333 0 6.552-0.89574 8.8281-3.1719s3.1719-5.4948 3.1719-8.8281v-32c0-3.3333-0.89574-6.552-3.1719-8.8281s-5.4948-3.1719-8.8281-3.1719z" color="#000000" style="-inkscape-stroke:none;paint-order:stroke markers fill"/>
<path d="m16 8h32c5.3333 0 8 2.6667 8 8v32c0 5.3333-2.6667 8-8 8h-32c-5.3333 0-8-2.6667-8-8v-32c0-5.3333 2.6667-8 8-8m17.5 28.6 0.1-0.1c0.26667-0.26667 0.4-0.6 0.4-1s-0.15-0.75-0.45-1.05-0.63333-0.45-1-0.45h-2.05c-0.4 0-0.75 0.15-1.05 0.45s-0.45 0.65-0.45 1.05 0.13333 0.73333 0.4 1l0.1 0.1c0.26667 0.26667 0.6 0.4 1 0.4h2c0.4 0 0.73333-0.13333 1-0.4m-0.5-6.6 0.7-0.3 0.3-0.7-0.3-0.7c-0.2-0.2-0.41667-0.3-0.65-0.3h-3.1c-0.23333 0-0.45 0.1-0.65 0.3s-0.3 0.43333-0.3 0.7 0.1 0.5 0.3 0.7l0.7 0.3zm-0.5 11h-2c-1.5 0-2.7833-0.53333-3.85-1.6l-0.05-0.05c-0.93333-0.93333-1.4667-2.05-1.6-3.35v-0.5c0-1.2667 0.36667-2.3667 1.1-3.3-0.73333-0.9-1.1-1.9667-1.1-3.2 0-1.3667 0.46667-2.5333 1.4-3.5l0.1-0.1c0.63333-0.6 1.35-1 2.15-1.2l1.3-0.2h3.1c1.3333 0 2.4833 0.46667 3.45 1.4l0.1 0.1c0.93333 0.96667 1.4 2.1333 1.4 3.5 0 1.2333-0.36667 2.3-1.1 3.2 0.73333 0.93333 1.1 2.0333 1.1 3.3v0.5c-0.13333 1.3-0.66667 2.4167-1.6 3.35l-0.05 0.05c-1.0667 1.0667-2.35 1.6-3.85 1.6m-21.5-25v32c0 3.3333 1.6667 5 5 5h32c3.3333 0 5-1.6667 5-5v-32c0-3.3333-1.6667-5-5-5h-32c-3.3333 0-5 1.6667-5 5" color="#000000" fill="#fff" stroke-width="8" style="-inkscape-stroke:none;paint-order:stroke markers fill"/>
</g>
</svg>
