<?xml version="1.0" encoding="UTF-8"?>
<svg version="1.1" viewBox="0 0 64 64" xmlns="http://www.w3.org/2000/svg">
<g stroke-linecap="round" stroke-linejoin="round">
<path d="m16 4c-3.3333 0-6.552 0.89573-8.8281 3.1719s-3.1719 5.4948-3.1719 8.8281v32c0 3.3333 0.89573 6.552 3.1719 8.8281s5.4948 3.1719 8.8281 3.1719h32c3.3333 0 6.552-0.89574 8.8281-3.1719s3.1719-5.4948 3.1719-8.8281v-32c0-3.3333-0.89574-6.552-3.1719-8.8281s-5.4948-3.1719-8.8281-3.1719z" color="#000000" style="-inkscape-stroke:none;paint-order:stroke markers fill"/>
<path d="m34 22h-9l-1 1v18l1 1h9c1.6333 0 3.0333-0.58333 4.2-1.75l0.05-0.05c1.1667-1.1667 1.75-2.5667 1.75-4.2 0-1.5667-0.51667-2.9-1.55-4 1.0333-1.1333 1.55-2.4667 1.55-4 0-1.6667-0.58333-3.0833-1.75-4.25l-0.05-0.05c-1.1667-1.1333-2.5667-1.7-4.2-1.7m0 4c0.53333 0 1 0.2 1.4 0.6h0.05c0.36667 0.36667 0.55 0.83333 0.55 1.4 0 0.53333-0.18333 0.98333-0.55 1.35l-0.1 0.1c-0.36667 0.33333-0.76667 0.51667-1.2 0.55h-6.15v-4zm-18-18h32c5.3333 0 8 2.6667 8 8v32c0 5.3333-2.6667 8-8 8h-32c-5.3333 0-8-2.6667-8-8v-32c0-5.3333 2.6667-8 8-8m12 26h6.15c0.46667 0.03333 0.88333 0.23333 1.25 0.6h0.05c0.36667 0.36667 0.55 0.83333 0.55 1.4 0 0.53333-0.18333 0.98333-0.55 1.35l-0.1 0.1c-0.36667 0.36667-0.81667 0.55-1.35 0.55h-6z" color="#000000" fill="#fff" stroke-width="8" style="-inkscape-stroke:none;paint-order:stroke markers fill"/>
</g>
</svg>
