<?xml version="1.0" encoding="UTF-8"?>
<svg version="1.1" viewBox="0 0 64 64" xmlns="http://www.w3.org/2000/svg">
<g stroke-linecap="round" stroke-linejoin="round">
<path d="m16 4c-3.3333 0-6.552 0.89573-8.8281 3.1719s-3.1719 5.4948-3.1719 8.8281v32c0 3.3333 0.89573 6.552 3.1719 8.8281s5.4948 3.1719 8.8281 3.1719h32c3.3333 0 6.552-0.89574 8.8281-3.1719s3.1719-5.4948 3.1719-8.8281v-32c0-3.3333-0.89574-6.552-3.1719-8.8281s-5.4948-3.1719-8.8281-3.1719z" color="#000000" style="-inkscape-stroke:none;paint-order:stroke markers fill"/>
<path d="m34 22c1.6333 0 3.0333 0.56667 4.2 1.7l0.05 0.05c1.1667 1.1667 1.75 2.5833 1.75 4.25 0 1.5333-0.51667 2.8667-1.55 4 1.0333 1.1 1.55 2.4333 1.55 4 0 1.6333-0.58333 3.0333-1.75 4.2l-0.05 0.05c-1.1667 1.1667-2.5667 1.75-4.2 1.75h-9l-1-1v-18l1-1h9m-23-6v32c0 3.3333 1.6667 5 5 5h32c3.3333 0 5-1.6667 5-5v-32c0-3.3333-1.6667-5-5-5h-32c-3.3333 0-5 1.6667-5 5m17 14h6.15c0.43333-0.03333 0.83333-0.21667 1.2-0.55l0.1-0.1c0.36667-0.36667 0.55-0.81667 0.55-1.35 0-0.56667-0.18333-1.0333-0.55-1.4h-0.05c-0.4-0.4-0.86667-0.6-1.4-0.6h-6zm-12-22h32c5.3333 0 8 2.6667 8 8v32c0 5.3333-2.6667 8-8 8h-32c-5.3333 0-8-2.6667-8-8v-32c0-5.3333 2.6667-8 8-8m18 30c0.53333 0 0.98333-0.18333 1.35-0.55l0.1-0.1c0.36667-0.36667 0.55-0.81667 0.55-1.35 0-0.56667-0.18333-1.0333-0.55-1.4h-0.05c-0.36667-0.36667-0.78333-0.56667-1.25-0.6h-6.15v4z" color="#000000" fill="#fff" stroke-width="8" style="-inkscape-stroke:none;paint-order:stroke markers fill"/>
</g>
</svg>
