<?xml version="1.0" encoding="UTF-8"?>
<svg version="1.1" viewBox="0 0 64 64" xmlns="http://www.w3.org/2000/svg">
<g stroke-linecap="round" stroke-linejoin="round">
<path d="m16 4c-3.3333 0-6.552 0.89573-8.8281 3.1719s-3.1719 5.4948-3.1719 8.8281v32c0 3.3333 0.89573 6.552 3.1719 8.8281s5.4948 3.1719 8.8281 3.1719h32c3.3333 0 6.552-0.89574 8.8281-3.1719s3.1719-5.4948 3.1719-8.8281v-32c0-3.3333-0.89574-6.552-3.1719-8.8281s-5.4948-3.1719-8.8281-3.1719z" color="#000000" style="-inkscape-stroke:none;paint-order:stroke markers fill"/>
<path d="m11 16v32q0 5 5 5h32q5 0 5-5v-32q0-5-5-5h-32q-5 0-5 5m5-8h32q8 0 8 8v32q0 8-8 8h-32q-8 0-8-8v-32q0-8 8-8m8 22q0-3.3 2.35-5.65t5.65-2.35 5.65 2.35q1.3 1.3 1.9 2.85l-3.75 1.5-0.95-1.5q-1.2-1.2-2.85-1.2t-2.8 1.2q-1.2 1.15-1.2 2.8v4.1q0.05 1.6 1.2 2.75t2.8 1.15 2.85-1.15l0.95-1.5 3.75 1.45q-0.6 1.55-1.9 2.85l-1.65 1.3q-1.8 1.05-4 1.05t-4-1.05l-1.65-1.3q-2.3-2.3-2.35-5.45v-4.2" color="#000000" fill="#fff" stroke-width="8" style="-inkscape-stroke:none;paint-order:stroke markers fill"/>
</g>
</svg>
