<?xml version="1.0" encoding="UTF-8"?>
<svg version="1.1" viewBox="0 0 64 64" xmlns="http://www.w3.org/2000/svg">
<g stroke-linecap="round" stroke-linejoin="round">
<path d="m16 10c-3.3333 0-6.552 0.89574-8.8281 3.1719s-3.1719 5.4948-3.1719 8.8281v19c0 3.3333 0.89573 6.552 3.1719 8.8281s5.4948 3.1719 8.8281 3.1719h32c3.3333 0 6.552-0.89574 8.8281-3.1719s3.1719-5.4948 3.1719-8.8281v-19c0-3.3333-0.89574-6.552-3.1719-8.8281s-5.4948-3.1719-8.8281-3.1719z" color="#000000" style="-inkscape-stroke:none;paint-order:stroke markers fill"/>
<path d="m42 23h2l0.7-0.3 0.3-0.7-0.3-0.7q-0.3-0.3-0.7-0.3h-2q-1.2 0-2.1 0.9t-0.9 2.1 0.9 2.1 2.05 0.9h0.1q0.35 0 0.65 0.3l0.3 0.7-0.3 0.7-0.7 0.3h-2q-0.4 0-0.7 0.3t-0.3 0.7 0.3 0.7 0.7 0.3h2q1.2 0 2.1-0.9t0.9-2.1-0.9-2.1-2.05-0.9h-0.1q-0.35 0-0.65-0.3t-0.3-0.7 0.3-0.7 0.7-0.3m-26-9h32q8 0 8 8v19q0 8-8 8h-32q-8 0-8-8v-19q0-8 8-8m23 19v8q0 0.4 0.3 0.7t0.7 0.3l0.7-0.3 0.3-0.7v-3h0.4l1.7 3.45q0.2 0.35 0.6 0.5l0.75-0.05 0.5-0.55q0.15-0.4-0.05-0.8l-1.75-3.55 1.75-3.55 0.05-0.75-0.5-0.6-0.75-0.05q-0.4 0.15-0.6 0.5l-1.7 3.45h-0.4v-3l-0.3-0.7q-0.3-0.3-0.7-0.3t-0.7 0.3-0.3 0.7m-15.9-2.75q0.9-0.9 0.9-2l-0.3-0.7q-0.3-0.3-0.7-0.3t-0.7 0.3-0.3 0.7l-0.25 0.55v-0.05l-0.75 0.25-0.8-0.25-0.2-0.5v-4.45q0-0.35 0.25-0.6l-0.05 0.1q0.35-0.3 0.8-0.3t0.75 0.3v-0.05l0.25 0.55q0 0.4 0.3 0.7t0.7 0.3l0.7-0.3 0.3-0.7q0-1.15-0.9-2l-0.05-0.05q-0.9-0.75-2.05-0.75-1.25 0-2.1 0.75l-0.05 0.05q-0.85 0.85-0.85 2v4.45q0 1.1 0.85 1.95l0.05 0.1q0.85 0.7 2.1 0.7 1.15 0 2.05-0.7l0.05-0.05m1.9-6.45v6.2q0 0.4 0.3 0.7t0.7 0.3l0.7-0.3 0.3-0.7v-2h2v2q0 0.4 0.3 0.7l0.7 0.3q0.4 0 0.7-0.3l0.3-0.7v-6.2q0-1.15-0.9-2l-0.05-0.05q-0.9-0.75-2.05-0.75-1.25 0-2.1 0.75l-0.05 0.05q-0.85 0.85-0.85 2m2 0 0.25-0.6-0.05 0.1q0.35-0.3 0.8-0.3t0.75 0.3v-0.05l0.25 0.55v2.2h-2v-2.2m8.1 3.2 1.25-0.3 0.1-0.05 0.65-0.5v-0.05q0.9-0.85 0.9-2.1t-0.9-2.15q-0.85-0.85-2.05-0.85h-2.05q-0.4 0-0.7 0.3t-0.3 0.7v8q0 0.4 0.3 0.7l0.7 0.3 0.7-0.3 0.3-0.7v-3h1.1m0-2h-1.1v-2h1.05l0.65 0.25 0.3 0.75-0.25 0.7h-0.05l-0.25 0.2-0.35 0.1m-17.1 8v8q0 0.4 0.3 0.7t0.7 0.3h4l0.7-0.3 0.3-0.7-0.3-0.7q-0.3-0.3-0.7-0.3h-3v-7l-0.3-0.7q-0.3-0.3-0.7-0.3t-0.7 0.3-0.3 0.7m19.1 8.25q0.9-0.9 0.9-2l-0.3-0.7q-0.3-0.3-0.7-0.3t-0.7 0.3-0.3 0.7l-0.25 0.55v-0.05l-0.75 0.25-0.8-0.25-0.2-0.5v-4.45q0-0.35 0.25-0.6l-0.05 0.1q0.35-0.3 0.8-0.3t0.75 0.3v-0.05l0.25 0.55q0 0.4 0.3 0.7l0.7 0.3 0.7-0.3 0.3-0.7q0-1.15-0.9-2l-0.05-0.05q-0.9-0.75-2.05-0.75-1.25 0-2.1 0.75l-0.05 0.05q-0.85 0.85-0.85 2v4.45q0 1.1 0.85 1.95l0.05 0.1q0.85 0.7 2.1 0.7 1.15 0 2.05-0.7l0.05-0.05m-11.25-8.45q-0.85 0.85-0.85 2v4.45q0 1.1 0.85 1.95l0.05 0.1q0.85 0.7 2.1 0.7 1.15 0 2.05-0.7l0.05-0.05q0.9-0.9 0.9-2v-4.45q0-1.15-0.9-2l-0.05-0.05q-0.9-0.75-2.05-0.75-1.25 0-2.1 0.75l-0.05 0.05m1.15 2 0.25-0.6-0.05 0.1q0.35-0.3 0.8-0.3t0.75 0.3v-0.05l0.25 0.55v4.45l-0.25 0.55v-0.05l-0.75 0.25-0.8-0.25-0.2-0.5v-4.45" color="#000000" fill="#fff" stroke-width="8" style="-inkscape-stroke:none;paint-order:stroke markers fill"/>
</g>
</svg>
