<?xml version="1.0" encoding="UTF-8"?>
<svg version="1.1" viewBox="0 0 64 64" xmlns="http://www.w3.org/2000/svg">
<g stroke-linecap="round" stroke-linejoin="round">
<path d="m16 4c-3.3333 0-6.552 0.89573-8.8281 3.1719s-3.1719 5.4948-3.1719 8.8281v32c0 3.3333 0.89573 6.552 3.1719 8.8281s5.4948 3.1719 8.8281 3.1719h32c3.3333 0 6.552-0.89574 8.8281-3.1719s3.1719-5.4948 3.1719-8.8281v-32c0-3.3333-0.89574-6.552-3.1719-8.8281s-5.4948-3.1719-8.8281-3.1719z" color="#000000" style="-inkscape-stroke:none;paint-order:stroke markers fill"/>
<path d="m24 22h6.25q4 0.1 6.85 2.95l0.95 1.05q1.95 2.55 1.95 6 0 3.4-1.95 6l-0.95 1.1q-2.85 2.8-6.85 2.9h-6.25v-20m-13-6v32q0 5 5 5h32q5 0 5-5v-32q0-5-5-5h-32q-5 0-5 5m5-8h32q8 0 8 8v32q0 8-8 8h-32q-8 0-8-8v-32q0-8 8-8m12 18v12h2.15q2.35-0.05 4.1-1.75 1.75-1.8 1.75-4.25t-1.75-4.2-4.1-1.8h-2.15" color="#000000" fill="#fff" stroke-width="8" style="-inkscape-stroke:none;paint-order:stroke markers fill"/>
</g>
</svg>
