<?xml version="1.0" encoding="UTF-8"?>
<svg version="1.1" viewBox="0 0 64 64" xmlns="http://www.w3.org/2000/svg">
<g stroke-linecap="round" stroke-linejoin="round">
<path d="m16 4c-3.3333 0-6.552 0.89573-8.8281 3.1719s-3.1719 5.4948-3.1719 8.8281v32c0 3.3333 0.89573 6.552 3.1719 8.8281s5.4948 3.1719 8.8281 3.1719h32c3.3333 0 6.552-0.89574 8.8281-3.1719s3.1719-5.4948 3.1719-8.8281v-32c0-3.3333-0.89574-6.552-3.1719-8.8281s-5.4948-3.1719-8.8281-3.1719z" color="#000000" style="-inkscape-stroke:none;paint-order:stroke markers fill"/>
<path d="m40 22v4h-12v4h12v4h-12v4h12v4h-16v-20zm-29-6v32c0 3.3333 1.6667 5 5 5h32c3.3333 0 5-1.6667 5-5v-32c0-3.3333-1.6667-5-5-5h-32c-3.3333 0-5 1.6667-5 5m5-8h32c5.3333 0 8 2.6667 8 8v32c0 5.3333-2.6667 8-8 8h-32c-5.3333 0-8-2.6667-8-8v-32c0-5.3333 2.6667-8 8-8" color="#000000" fill="#fff" stroke-width="8" style="-inkscape-stroke:none;paint-order:stroke markers fill"/>
</g>
</svg>
