<?xml version="1.0" encoding="UTF-8"?>
<svg version="1.1" viewBox="0 0 64 64" xmlns="http://www.w3.org/2000/svg">
<g stroke-linecap="round" stroke-linejoin="round">
<path d="m16 4c-3.3333 0-6.552 0.89573-8.8281 3.1719s-3.1719 5.4948-3.1719 8.8281v32c0 3.3333 0.89573 6.552 3.1719 8.8281s5.4948 3.1719 8.8281 3.1719h32c3.3333 0 6.552-0.89574 8.8281-3.1719s3.1719-5.4948 3.1719-8.8281v-32c0-3.3333-0.89574-6.552-3.1719-8.8281s-5.4948-3.1719-8.8281-3.1719z" color="#000000" style="-inkscape-stroke:none;paint-order:stroke markers fill"/>
<path d="m16 8h32q8 0 8 8v32q0 8-8 8h-32q-8 0-8-8v-32q0-8 8-8m23 17v13h2.5q2.3 0 3.85-1.6l0.05-0.05q1.6-1.55 1.6-3.85v-2q0-2.3-1.6-3.8l-0.05-0.1q-1.55-1.6-3.85-1.6h-2.5m3 3.05 1.2 0.7h0.05l0.05 0.05q0.7 0.65 0.7 1.7v2q0 1.05-0.7 1.7l-0.1 0.1q-0.5 0.5-1.2 0.65v-6.9m-25-3.05v13h8v-3h-5v-2h5v-3h-5v-2h5v-3h-8m20 13v-13h-3v7l-4-7h-3v13h3v-7l4 7h3" color="#000000" fill="#fff" stroke-width="8" style="-inkscape-stroke:none;paint-order:stroke markers fill"/>
</g>
</svg>
