<?xml version="1.0" encoding="UTF-8"?>
<svg version="1.1" viewBox="0 0 64 64" xmlns="http://www.w3.org/2000/svg">
<g stroke-linecap="round" stroke-linejoin="round">
<path d="m16 4c-3.3333 0-6.552 0.89573-8.8281 3.1719s-3.1719 5.4948-3.1719 8.8281v32c0 3.3333 0.89573 6.552 3.1719 8.8281s5.4948 3.1719 8.8281 3.1719h32c3.3333 0 6.552-0.89574 8.8281-3.1719s3.1719-5.4948 3.1719-8.8281v-32c0-3.3333-0.89574-6.552-3.1719-8.8281s-5.4948-3.1719-8.8281-3.1719z" color="#000000" style="-inkscape-stroke:none;paint-order:stroke markers fill"/>
<path d="m16 8h32q8 0 8 8v32q0 8-8 8h-32q-8 0-8-8v-32q0-8 8-8m27 20q1.2 0 2.1 0.9 0.9 0.85 0.9 2.1v3q0 1.2-0.9 2.05l-0.05 0.05q-0.85 0.9-2.05 0.9-1.25 0-2.1-0.9-0.9-0.9-0.9-2.1v-3q0-1.2 0.85-2.1l0.05-0.05q0.9-0.85 2.1-0.85m4.95-1.95q-2.05-2.05-4.95-2.05-2.85 0-4.95 2l-0.05 0.05q-2 2.1-2 4.95v3q0 2.9 2.05 4.95 2.1 2.05 4.95 2.05t4.9-2.05l0.05-0.05q2.05-2.05 2.05-4.9v-3q0-2.85-2.05-4.95m-13.95-2.05h-4l-3 3v1.95h3v12.05h4v-17m-16 17v-6h7v-4h-7v-3h7v-4h-11v17h4" color="#000000" fill="#fff" stroke-width="8" style="-inkscape-stroke:none;paint-order:stroke markers fill"/>
</g>
</svg>
