<?xml version="1.0" encoding="UTF-8"?>
<svg version="1.1" viewBox="0 0 64 64" xmlns="http://www.w3.org/2000/svg">
<g stroke-linecap="round" stroke-linejoin="round">
<path d="m16 4c-3.3333 0-6.552 0.89573-8.8281 3.1719s-3.1719 5.4948-3.1719 8.8281v32c0 3.3333 0.89573 6.552 3.1719 8.8281s5.4948 3.1719 8.8281 3.1719h32c3.0622 0 5.9997-0.72639 8.252-2.6387s3.4179-4.7904 3.6816-7.7578c0.0061-0.06433 0.01068-0.12881 0.01367-0.19336l0.04883-1.25c0.0024-0.05335 0.0037-0.10675 0.0039-0.16016v-32c-1.51e-4 -0.05536-0.0015-0.11071-0.0039-0.16602l-0.04883-1.2012c-0.0031-0.06129-0.0077-0.12251-0.01367-0.18359-0.26285-2.9789-1.4214-5.8642-3.6719-7.7891-2.2504-1.9249-5.1949-2.6602-8.2617-2.6602z" color="#000000" style="-inkscape-stroke:none;paint-order:stroke markers fill"/>
<path d="m44.5 28.4q-0.4-0.4-1-0.4h-1.65q-0.3 0.05-0.55 0.3-0.3 0.3-0.3 0.7h-4l0.1-1q0.25-1.4 1.3-2.5l0.1-0.1q1.4-1.35 3.35-1.4h1.65q2.25 0 3.85 1.6l0.05 0.05 1 1.35q1.25 3.35-0.95 5.55l-4.45 4.45h6v4h-12v-4l7-6.55q1.25-1.3 0.5-2.05m-28.5-20.4h32q7.35 0 7.95 6.8l0.05 1.2v32l-0.05 1.25q-0.6 6.75-7.95 6.75h-32q-8 0-8-8v-32q0-8 8-8m-5 8v32q0 5 5 5h32q5 0 5-5v-32q0-5-5-5h-32q-5 0-5 5m7 25h-4v-17h11v4h-7v3h7v4h-7v6m16-17v17h-4v-12.05h-3v-1.95l3-3h4" color="#000000" fill="#fff" stroke-width="8" style="-inkscape-stroke:none;paint-order:stroke markers fill"/>
</g>
</svg>
