<?xml version="1.0" encoding="UTF-8"?>
<svg version="1.1" viewBox="0 0 64 64" xmlns="http://www.w3.org/2000/svg">
<g stroke-linecap="round" stroke-linejoin="round">
<path d="m16 4c-3.3333 0-6.552 0.89573-8.8281 3.1719s-3.1719 5.4948-3.1719 8.8281v32c0 3.3333 0.89573 6.552 3.1719 8.8281s5.4948 3.1719 8.8281 3.1719h32c3.3333 0 6.552-0.89574 8.8281-3.1719s3.1719-5.4948 3.1719-8.8281v-32c0-3.3333-0.89574-6.552-3.1719-8.8281s-5.4948-3.1719-8.8281-3.1719z" color="#000000" style="-inkscape-stroke:none;paint-order:stroke markers fill"/>
<path d="m16 8h32c5.3333 0 8 2.6667 8 8v32c0 5.3333-2.6667 8-8 8h-32c-5.3333 0-8-2.6667-8-8v-32c0-5.3333 2.6667-8 8-8m29 27.75c0.03333 1.4667-0.61667 2.75-1.825 3.75s-2.575 1.5-4.175 1.5-2.9667-0.48333-4.1-1.45c-1.2333-1-1.8667-2.1833-1.9-3.55h4.1l0.35 0.45v0.05c0.43333 0.33333 0.95 0.5 1.55 0.5s1.1-0.16667 1.5-0.5l0.05-0.05 0.45-0.7-0.4-0.75c-0.26667-0.23333-0.56667-0.38333-0.9-0.45l-0.55-0.05h-2.15v-4h2.15c0.56667 0 1.05-0.16667 1.45-0.5l0.4-0.75-0.45-0.7-0.05-0.05c-0.4-0.33333-0.9-0.5-1.5-0.5s-1.1167 0.16667-1.55 0.5v0.05l-0.35 0.45h-4.1c0.03333-1.3667 0.66667-2.55 1.9-3.55 1.1333-0.96667 2.5-1.45 4.1-1.45s2.9667 0.5 4.175 1.5 1.8583 2.2833 1.825 3.75c0.03333 1.2333-0.38333 2.3167-1.25 3.25 0.86667 0.93333 1.2833 2.0167 1.25 3.25m-34-19.75v32c0 3.3333 1.6667 5 5 5h32c3.3333 0 5-1.6667 5-5v-32c0-3.3333-1.6667-5-5-5h-32c-3.3333 0-5 1.6667-5 5m12 25h-4v-17h11v4h-7v3h7v4h-7v6" color="#000000" fill="#fff" stroke-width="8" style="-inkscape-stroke:none;paint-order:stroke markers fill"/>
</g>
</svg>
