<?xml version="1.0" encoding="UTF-8"?>
<svg version="1.1" viewBox="0 0 64 64" xmlns="http://www.w3.org/2000/svg">
<g stroke-linecap="round" stroke-linejoin="round">
<path d="m16 4c-3.3333 0-6.552 0.89573-8.8281 3.1719s-3.1719 5.4948-3.1719 8.8281v32c0 3.3333 0.89573 6.552 3.1719 8.8281s5.4948 3.1719 8.8281 3.1719h32c3.3333 0 6.552-0.89574 8.8281-3.1719s3.1719-5.4948 3.1719-8.8281v-32c0-3.3333-0.89574-6.552-3.1719-8.8281s-5.4948-3.1719-8.8281-3.1719z" color="#000000" style="-inkscape-stroke:none;paint-order:stroke markers fill"/>
<path d="m44.25 30.75q-1.75-1.75-4.25-1.75l2-5h-5l-3.85 9.65-0.05 0.35-0.1 1q0 2.5 1.75 4.25t4.25 1.75h1q2.45 0 4.2-1.75l0.05-0.05q1.75-1.75 1.75-4.2 0-2.5-1.75-4.25m-28.25-22.75h32q8 0 8 8v32q0 8-8 8h-32q-8 0-8-8v-32q0-8 8-8m24 25q0.8 0 1.4 0.6t0.6 1.4-0.55 1.35l-0.1 0.1q-0.55 0.55-1.35 0.55h-1q-0.8 0-1.4-0.6t-0.6-1.4q0-0.55 0.25-1l0.3-0.4 0.05-0.05q0.35-0.3 0.75-0.45l0.65-0.1h1m-17 8v-6h7v-4h-7v-3h7v-4h-11v17h4" color="#000000" fill="#fff" stroke-width="8" style="-inkscape-stroke:none;paint-order:stroke markers fill"/>
</g>
</svg>
