<?xml version="1.0" encoding="UTF-8"?>
<svg version="1.1" viewBox="0 0 64 64" xmlns="http://www.w3.org/2000/svg">
<g stroke-linecap="round" stroke-linejoin="round">
<path d="m16 4c-3.3333 0-6.552 0.89573-8.8281 3.1719s-3.1719 5.4948-3.1719 8.8281v32c0 3.3333 0.89573 6.552 3.1719 8.8281s5.4948 3.1719 8.8281 3.1719h32c3.3333 0 6.552-0.89574 8.8281-3.1719s3.1719-5.4948 3.1719-8.8281v-32c0-3.3333-0.89574-6.552-3.1719-8.8281s-5.4948-3.1719-8.8281-3.1719z" color="#000000" style="-inkscape-stroke:none;paint-order:stroke markers fill"/>
<path d="m11 16v32q0 5 5 5h32q5 0 5-5v-32q0-5-5-5h-32q-5 0-5 5m5-8h32q8 0 8 8v32q0 8-8 8h-32q-8 0-8-8v-32q0-8 8-8m24 25h-1l-0.65 0.1q-0.4 0.15-0.75 0.45l-0.05 0.05-0.3 0.4q-0.25 0.45-0.25 1 0 0.8 0.6 1.4t1.4 0.6h1q0.8 0 1.35-0.55l0.1-0.1q0.55-0.55 0.55-1.35t-0.6-1.4-1.4-0.6m4.25-2.25q1.75 1.75 1.75 4.25 0 2.45-1.75 4.2l-0.05 0.05q-1.75 1.75-4.2 1.75h-1q-2.5 0-4.25-1.75t-1.75-4.25l0.1-1 0.05-0.35 3.85-9.65h5l-2 5q2.5 0 4.25 1.75m-21.25 10.25h-4v-17h11v4h-7v3h7v4h-7v6" color="#000000" fill="#fff" stroke-width="8" style="-inkscape-stroke:none;paint-order:stroke markers fill"/>
</g>
</svg>
