<?xml version="1.0" encoding="UTF-8"?>
<svg version="1.1" viewBox="0 0 64 64" xmlns="http://www.w3.org/2000/svg">
<g stroke-linecap="round" stroke-linejoin="round">
<path d="m16 4c-3.3333 0-6.552 0.89573-8.8281 3.1719s-3.1719 5.4948-3.1719 8.8281v32c0 3.3333 0.89573 6.552 3.1719 8.8281s5.4948 3.1719 8.8281 3.1719h32c3.3333 0 6.552-0.89574 8.8281-3.1719s3.1719-5.4948 3.1719-8.8281v-32c0-3.3333-0.89574-6.552-3.1719-8.8281s-5.4948-3.1719-8.8281-3.1719z" color="#000000" style="-inkscape-stroke:none;paint-order:stroke markers fill"/>
<path d="m16 8h32q8 0 8 8v32q0 8-8 8h-32q-8 0-8-8v-32q0-8 8-8m22 22q-0.4 0-0.7-0.3t-0.3-0.7 0.3-0.7 0.65-0.3h3.1q0.35 0 0.65 0.3l0.3 0.7-0.3 0.7-0.7 0.3h-3m2.5 11q2.25 0 3.85-1.6l0.05-0.05q1.4-1.4 1.6-3.35v-0.5q0-1.9-1.1-3.3 1.1-1.35 1.1-3.2 0-2.05-1.4-3.5l-0.1-0.1q-1.45-1.4-3.45-1.4h-3.1l-1.3 0.2q-1.2 0.3-2.15 1.2l-0.1 0.1q-1.4 1.45-1.4 3.5 0 1.85 1.1 3.2-1.1 1.4-1.1 3.3v0.5q0.2 1.95 1.6 3.35l0.05 0.05q1.6 1.6 3.85 1.6h2m1-4.4q-0.4 0.4-1 0.4h-2q-0.6 0-1-0.4l-0.1-0.1q-0.4-0.4-0.4-1t0.45-1.05 1.05-0.45h2.05q0.55 0 1 0.45t0.45 1.05-0.4 1l-0.1 0.1m-19.5 4.4v-6h7v-4h-7v-3h7v-4h-11v17h4" color="#000000" fill="#fff" stroke-width="8" style="-inkscape-stroke:none;paint-order:stroke markers fill"/>
</g>
</svg>
