<?xml version="1.0" encoding="UTF-8"?>
<svg version="1.1" viewBox="0 0 64 64" xmlns="http://www.w3.org/2000/svg">
<g stroke-linecap="round" stroke-linejoin="round">
<path d="m16 4c-3.3333 0-6.552 0.89573-8.8281 3.1719s-3.1719 5.4948-3.1719 8.8281v32c0 3.3333 0.89573 6.552 3.1719 8.8281s5.4948 3.1719 8.8281 3.1719h32c3.3333 0 6.552-0.89574 8.8281-3.1719s3.1719-5.4948 3.1719-8.8281v-32c0-3.3333-0.89574-6.552-3.1719-8.8281s-5.4948-3.1719-8.8281-3.1719z" color="#000000" style="-inkscape-stroke:none;paint-order:stroke markers fill"/>
<path d="m11 16v32q0 5 5 5h32q5 0 5-5v-32q0-5-5-5h-32q-5 0-5 5m5-8h32q8 0 8 8v32q0 8-8 8h-32q-8 0-8-8v-32q0-8 8-8m25.5 28.6 0.1-0.1q0.4-0.4 0.4-1t-0.45-1.05-1-0.45h-2.05q-0.6 0-1.05 0.45t-0.45 1.05 0.4 1l0.1 0.1q0.4 0.4 1 0.4h2q0.6 0 1-0.4m-1 4.4h-2q-2.25 0-3.85-1.6l-0.05-0.05q-1.4-1.4-1.6-3.35v-0.5q0-1.9 1.1-3.3-1.1-1.35-1.1-3.2 0-2.05 1.4-3.5l0.1-0.1q0.95-0.9 2.15-1.2l1.3-0.2h3.1q2 0 3.45 1.4l0.1 0.1q1.4 1.45 1.4 3.5 0 1.85-1.1 3.2 1.1 1.4 1.1 3.3v0.5q-0.2 1.95-1.6 3.35l-0.05 0.05q-1.6 1.6-3.85 1.6m-2.5-11h3l0.7-0.3 0.3-0.7-0.3-0.7q-0.3-0.3-0.65-0.3h-3.1q-0.35 0-0.65 0.3t-0.3 0.7 0.3 0.7 0.7 0.3m-16 11h-4v-17h11v4h-7v3h7v4h-7v6" color="#000000" fill="#fff" stroke-width="8" style="-inkscape-stroke:none;paint-order:stroke markers fill"/>
</g>
</svg>
