<?xml version="1.0" encoding="UTF-8"?>
<svg version="1.1" viewBox="0 0 64 64" xmlns="http://www.w3.org/2000/svg">
<g stroke-linecap="round" stroke-linejoin="round">
<path d="m16 4c-2.8735 0-5.621 0.63534-7.8223 2.3223-2.9104 2.1983-4.1777 5.8932-4.1777 9.6777v32c0 3.3333 0.89573 6.552 3.1719 8.8281s5.4948 3.1719 8.8281 3.1719h32c3.3333 0 6.552-0.89574 8.8281-3.1719s3.1719-5.4948 3.1719-8.8281v-32c0-3.7806-1.2286-7.4658-4.1211-9.6777-0.0097-0.00721-0.0195-0.014367-0.0293-0.021484-2.2165-1.6624-4.9699-2.3008-7.8496-2.3008z" color="#000000" style="-inkscape-stroke:none;paint-order:stroke markers fill"/>
<path d="m16 8h32q3.45 0 5.45 1.5 2.55 1.95 2.55 6.5v32q0 8-8 8h-32q-8 0-8-8v-32q0-4.55 2.6-6.5 1.95-1.5 5.4-1.5m8 14v20h4v-8h8v8h4v-20h-4v8h-8v-8h-4" color="#000000" fill="#fff" stroke-width="8" style="-inkscape-stroke:none;paint-order:stroke markers fill"/>
</g>
</svg>
