<?xml version="1.0" encoding="UTF-8"?>
<svg version="1.1" viewBox="0 0 64 64" xmlns="http://www.w3.org/2000/svg">
<g stroke-linecap="round" stroke-linejoin="round">
<path d="m16 4c-3.3333 0-6.552 0.89573-8.8281 3.1719s-3.1719 5.4948-3.1719 8.8281v32c0 3.3333 0.89573 6.552 3.1719 8.8281s5.4948 3.1719 8.8281 3.1719h32c3.3333 0 6.552-0.89574 8.8281-3.1719s3.1719-5.4948 3.1719-8.8281v-32c0-3.3333-0.89574-6.552-3.1719-8.8281s-5.4948-3.1719-8.8281-3.1719z" color="#000000" style="-inkscape-stroke:none;paint-order:stroke markers fill"/>
<path d="m11 16v32q0 5 5 5h32q5 0 5-5v-32q0-5-5-5h-32q-5 0-5 5m29 12q0-0.4 0.3-0.7 0.15-0.2 0.4-0.25l0.3-0.05h4q0.4 0 0.7 0.3l0.3 0.7-0.3 0.7-0.7 0.3h-3v2h3q0.4 0 0.7 0.3l0.3 0.7-0.3 0.7-0.7 0.3h-3v2h3q0.4 0 0.7 0.3l0.3 0.7-0.3 0.7-0.7 0.3h-4l-0.7-0.3q-0.3-0.3-0.3-0.7v-8m-1 8-0.3 0.7-0.7 0.3q-0.4 0-0.7-0.3t-0.3-0.7v-5.6l-1.3 1.3-0.7 0.3q-0.4 0-0.7-0.3l-1.3-1.3v5.6l-0.3 0.7-0.7 0.3q-0.4 0-0.7-0.3t-0.3-0.7v-8q0-0.4 0.3-0.7 0.15-0.2 0.4-0.25l0.3-0.05 0.3 0.05q0.25 0.05 0.4 0.25l2.3 2.3 2.3-2.3q0.15-0.2 0.4-0.25l0.3-0.05 0.3 0.05q0.25 0.05 0.4 0.25l0.3 0.7v8m-23-28h32q8 0 8 8v32q0 8-8 8h-32q-8 0-8-8v-32q0-8 8-8m10 21.8v4.45l0.2 0.5 0.8 0.25 0.75-0.25v0.05l0.25-0.55v-4.45l-0.25-0.55v0.05q-0.3-0.3-0.75-0.3t-0.8 0.3l0.05-0.1q-0.25 0.25-0.25 0.6m-1.15-2 0.05-0.05q0.65-0.55 1.5-0.7l0.6-0.05 0.6 0.05q0.8 0.15 1.45 0.7l0.05 0.05q0.9 0.85 0.9 2v4.45q0 1.1-0.9 2l-0.05 0.05q-0.9 0.7-2.05 0.7-1.25 0-2.1-0.7l-0.05-0.1q-0.85-0.85-0.85-1.95v-4.45q0-1.15 0.85-2m-1.85 8.2-0.3 0.7-0.7 0.3q-0.4 0-0.7-0.3t-0.3-0.7v-3h-2v3l-0.3 0.7q-0.3 0.3-0.7 0.3l-0.7-0.3q-0.3-0.3-0.3-0.7v-8q0-0.4 0.3-0.7 0.15-0.2 0.4-0.25l0.3-0.05 0.3 0.05q0.25 0.05 0.4 0.25l0.3 0.7v3h2v-3q0-0.4 0.3-0.7 0.15-0.2 0.4-0.25l0.3-0.05 0.3 0.05q0.25 0.05 0.4 0.25l0.3 0.7v8" color="#000000" fill="#fff" stroke-width="8" style="-inkscape-stroke:none;paint-order:stroke markers fill"/>
</g>
</svg>
