<?xml version="1.0" encoding="UTF-8"?>
<svg version="1.1" viewBox="0 0 64 64" xmlns="http://www.w3.org/2000/svg">
<g stroke-linecap="round" stroke-linejoin="round">
<path d="m16 4c-3.3333 0-6.552 0.89573-8.8281 3.1719s-3.1719 5.4948-3.1719 8.8281v32c0 3.3333 0.89573 6.552 3.1719 8.8281s5.4948 3.1719 8.8281 3.1719h32c3.3333 0 6.552-0.89574 8.8281-3.1719s3.1719-5.4948 3.1719-8.8281v-32c0-3.3333-0.89574-6.552-3.1719-8.8281s-5.4948-3.1719-8.8281-3.1719z" color="#000000" style="-inkscape-stroke:none;paint-order:stroke markers fill"/>
<path d="m16 8h32q8 0 8 8v32q0 8-8 8h-32q-8 0-8-8v-32q0-8 8-8m19 30h-3l-4-7v7h-3v-13h3l4 7v-7h3v13m-12 0h-3v-13h3v13m18-10q-0.4 0-0.7 0.3t-0.3 0.7 0.3 0.7l0.65 0.3h0.1q1.55 0 2.75 1.2t1.2 2.8-1.2 2.8-2.8 1.2h-4v-3h4l0.7-0.3 0.3-0.7-0.3-0.7q-0.3-0.3-0.65-0.3h-0.1q-1.55 0-2.75-1.2t-1.2-2.8 1.2-2.8 2.8-1.2h4v3h-4m-30-12v32q0 5 5 5h32q5 0 5-5v-32q0-5-5-5h-32q-5 0-5 5" color="#000000" fill="#fff" stroke-width="8" style="-inkscape-stroke:none;paint-order:stroke markers fill"/>
</g>
</svg>
