<?xml version="1.0" encoding="UTF-8"?>
<svg version="1.1" viewBox="0 0 64 64" xmlns="http://www.w3.org/2000/svg">
<g stroke-linecap="round" stroke-linejoin="round">
<path d="m23 4c-3.3333 0-6.552 0.89573-8.8281 3.1719s-3.1719 5.4948-3.1719 8.8281v32c0 4.083 1.5463 8.0814 4.8594 10.18l0.0039 2e-3c2.0971 1.3244 4.5539 1.8183 7.1367 1.8183h18c2.5828 0 5.0396-0.49388 7.1367-1.8184l0.0039-2e-3c3.3131-2.0983 4.8594-6.0967 4.8594-10.18v-32c0-3.3333-0.89574-6.552-3.1719-8.8281s-5.4948-3.1719-8.8281-3.1719z" color="#000000" style="-inkscape-stroke:none;paint-order:stroke markers fill"/>
<path d="m23 8h18q8 0 8 8v32q0 4.9-3 6.8-1.9 1.2-5 1.2h-18q-3.1 0-5-1.2-3-1.9-3-6.8v-32q0-8 8-8m17 22h-6v-6h-4v6h-6v4h6v6h4v-6h6v-4" color="#000000" fill="#fff" stroke-width="8" style="-inkscape-stroke:none;paint-order:stroke markers fill"/>
</g>
</svg>
