<?xml version="1.0" encoding="UTF-8"?>
<svg version="1.1" viewBox="0 0 64 64" xmlns="http://www.w3.org/2000/svg">
<g stroke-linecap="round" stroke-linejoin="round">
<path d="m16 10c-3.3333 0-6.552 0.89574-8.8281 3.1719s-3.1719 5.4948-3.1719 8.8281v20c0 4.083 1.5463 8.0814 4.8594 10.18l0.00391 2e-3c2.0971 1.3244 4.5539 1.8183 7.1367 1.8183h32c2.5828 0 5.0396-0.49388 7.1367-1.8184l0.0039-2e-3c3.3131-2.0983 4.8594-6.0967 4.8594-10.18v-20c0-3.3333-0.89574-6.552-3.1719-8.8281s-5.4948-3.1719-8.8281-3.1719z" color="#000000" style="-inkscape-stroke:none;paint-order:stroke markers fill"/>
<path d="m38.1 32.1q0.9-0.85 0.9-2.1t-0.9-2.15q-0.85-0.85-2.05-0.85h-2.05q-0.4 0-0.7 0.3t-0.3 0.7v8q0 0.4 0.3 0.7l0.7 0.3q0.4 0 0.7-0.3l0.3-0.7v-3h0.4l1.7 3.45q0.2 0.35 0.6 0.5l0.75-0.05 0.5-0.55-0.05-0.8-1.45-2.9 0.65-0.5v-0.05m-2-1.1h-1.1v-2h1.05q0.4 0 0.65 0.25l0.3 0.75-0.25 0.7h-0.05l-0.25 0.2-0.35 0.1m3.9-3v8q0 0.4 0.3 0.7l0.7 0.3h4l0.7-0.3 0.3-0.7-0.3-0.7q-0.3-0.3-0.7-0.3h-3v-7l-0.3-0.7q-0.3-0.3-0.7-0.3t-0.7 0.3-0.3 0.7m16-6v20q0 4.9-3 6.8-1.9 1.2-5 1.2h-32q-3.1 0-5-1.2-3-1.9-3-6.8v-20q0-8 8-8h32q8 0 8 8m-31.9 14.25q0.9-0.9 0.9-2l-0.3-0.7q-0.3-0.3-0.7-0.3t-0.7 0.3-0.3 0.7l-0.25 0.55v-0.05l-0.75 0.25-0.8-0.25-0.2-0.5v-4.45l0.25-0.6-0.05 0.1q0.35-0.3 0.8-0.3t0.75 0.3v-0.05l0.25 0.55q0 0.4 0.3 0.7t0.7 0.3l0.7-0.3 0.3-0.7q0-1.15-0.9-2l-0.05-0.05q-0.9-0.75-2.05-0.75-1.25 0-2.1 0.75l-0.05 0.05q-0.85 0.85-0.85 2v4.45q0 1.1 0.85 1.95l0.05 0.1q0.85 0.7 2.1 0.7 1.15 0 2.05-0.7l0.05-0.05m2.9-7.25h1v7q0 0.4 0.3 0.7t0.7 0.3l0.7-0.3 0.3-0.7v-7h1l0.7-0.3 0.3-0.7-0.3-0.7q-0.3-0.3-0.7-0.3h-4q-0.4 0-0.7 0.3t-0.3 0.7l0.3 0.7 0.7 0.3" color="#000000" fill="#fff" stroke-width="8" style="-inkscape-stroke:none;paint-order:stroke markers fill"/>
</g>
</svg>
