<?xml version="1.0" encoding="UTF-8"?>
<svg version="1.1" viewBox="0 0 64 64" xmlns="http://www.w3.org/2000/svg">
<g stroke-linecap="round" stroke-linejoin="round">
<path d="m16 10c-3.3333 0-6.552 0.89574-8.8281 3.1719s-3.1719 5.4948-3.1719 8.8281v20c0 4.083 1.5463 8.0814 4.8594 10.18l0.00391 2e-3c2.0971 1.3244 4.5539 1.8183 7.1367 1.8183h32c2.5828 0 5.0396-0.49388 7.1367-1.8184l0.0039-2e-3c3.3131-2.0983 4.8594-6.0967 4.8594-10.18v-20c0-3.3333-0.89574-6.552-3.1719-8.8281s-5.4948-3.1719-8.8281-3.1719z" color="#000000" style="-inkscape-stroke:none;paint-order:stroke markers fill"/>
<path d="m11 22v20q0 3 1.6 4.3 1.3 0.7 3.4 0.7h32q2.1 0 3.4-0.7 1.6-1.3 1.6-4.3v-20q0-5-5-5h-32q-5 0-5 5m45 0v20q0 4.9-3 6.8-1.9 1.2-5 1.2h-32q-3.1 0-5-1.2-3-1.9-3-6.8v-20q0-8 8-8h32q8 0 8 8m-34 6.75v2.25h2v-2.25l-0.2-0.45-0.8-0.3q-0.45 0-0.75 0.25l-0.05 0.05-0.2 0.45m7-3.75h3v10h5v3h-8v-13m-10 3.75q0-1.6 1.2-2.7h0.05q1.15-1.05 2.75-1.05 1.55 0 2.75 1.05 1.25 1.1 1.25 2.7v9.25h-3v-4h-2v4h-3v-9.25m24 9.25h-3v-10h-3v-3h9v3h-3v10" color="#000000" fill="#fff" stroke-width="8" style="-inkscape-stroke:none;paint-order:stroke markers fill"/>
</g>
</svg>
