<?xml version="1.0" encoding="UTF-8"?>
<svg version="1.1" viewBox="0 0 64 64" xmlns="http://www.w3.org/2000/svg">
<g stroke-linecap="round" stroke-linejoin="round">
<path d="m16 10c-3.3333 0-6.552 0.89574-8.8281 3.1719s-3.1719 5.4948-3.1719 8.8281v20c0 4.083 1.5463 8.0814 4.8594 10.18l0.00391 2e-3c2.0971 1.3244 4.5539 1.8183 7.1367 1.8183h32c2.5828 0 5.0396-0.49388 7.1367-1.8184l0.0039-2e-3c3.3131-2.0983 4.8594-6.0967 4.8594-10.18v-20c0-3.3333-0.89574-6.552-3.1719-8.8281s-5.4948-3.1719-8.8281-3.1719z" color="#000000" style="-inkscape-stroke:none;paint-order:stroke markers fill"/>
<path d="m40 28q0-0.4 0.3-0.7t0.7-0.3 0.7 0.3l0.3 0.7v7h3q0.4 0 0.7 0.3l0.3 0.7-0.3 0.7-0.7 0.3h-4l-0.7-0.3q-0.3-0.3-0.3-0.7v-8m-3.9 3 0.35-0.1 0.25-0.2h0.05l0.25-0.7-0.3-0.75q-0.25-0.25-0.65-0.25h-1.05v2h1.1m2 1.1v0.05l-0.65 0.5 1.45 2.9 0.05 0.8-0.5 0.55-0.75 0.05q-0.4-0.15-0.6-0.5l-1.7-3.45h-0.4v3l-0.3 0.7q-0.3 0.3-0.7 0.3l-0.7-0.3q-0.3-0.3-0.3-0.7v-8q0-0.4 0.3-0.7t0.7-0.3h2.05q1.2 0 2.05 0.85 0.9 0.9 0.9 2.15t-0.9 2.1m17.9-10.1v20q0 4.9-3 6.8-1.9 1.2-5 1.2h-32q-3.1 0-5-1.2-3-1.9-3-6.8v-20q0-8 8-8h32q8 0 8 8m-29 7-0.7-0.3-0.3-0.7q0-0.4 0.3-0.7t0.7-0.3h4q0.4 0 0.7 0.3l0.3 0.7-0.3 0.7-0.7 0.3h-1v7l-0.3 0.7-0.7 0.3q-0.4 0-0.7-0.3t-0.3-0.7v-7h-1m-2.9 7.25-0.05 0.05q-0.9 0.7-2.05 0.7-1.25 0-2.1-0.7l-0.05-0.1q-0.85-0.85-0.85-1.95v-4.45q0-1.15 0.85-2l0.05-0.05q0.85-0.75 2.1-0.75 1.15 0 2.05 0.75l0.05 0.05q0.9 0.85 0.9 2l-0.3 0.7-0.7 0.3q-0.4 0-0.7-0.3t-0.3-0.7l-0.25-0.55v0.05q-0.3-0.3-0.75-0.3t-0.8 0.3l0.05-0.1-0.25 0.6v4.45l0.2 0.5 0.8 0.25 0.75-0.25v0.05l0.25-0.55q0-0.4 0.3-0.7t0.7-0.3 0.7 0.3l0.3 0.7q0 1.1-0.9 2m-13.1-14.25v20q0 3 1.6 4.3 1.3 0.7 3.4 0.7h32q2.1 0 3.4-0.7 1.6-1.3 1.6-4.3v-20q0-5-5-5h-32q-5 0-5 5" color="#000000" fill="#fff" stroke-width="8" style="-inkscape-stroke:none;paint-order:stroke markers fill"/>
</g>
</svg>
