<?xml version="1.0" encoding="UTF-8"?>
<svg version="1.1" viewBox="0 0 64 64" xmlns="http://www.w3.org/2000/svg">
<g stroke-linecap="round" stroke-linejoin="round">
<path d="m16 4c-3.3333 0-6.552 0.89573-8.8281 3.1719s-3.1719 5.4948-3.1719 8.8281v32c0 3.3333 0.89573 6.552 3.1719 8.8281s5.4948 3.1719 8.8281 3.1719h32c3.3333 0 6.552-0.89574 8.8281-3.1719s3.1719-5.4948 3.1719-8.8281v-32c0-3.3333-0.89574-6.552-3.1719-8.8281s-5.4948-3.1719-8.8281-3.1719z" color="#000000" style="-inkscape-stroke:none;paint-order:stroke markers fill"/>
<path d="m48 8q8 0 8 8v32q0 8-8 8h-32q-8 0-8-8v-32q0-8 8-8h32m-5.55 16.4q0.55-0.6 0.55-1.4t-0.5-1.4l-0.1-0.05q-0.6-0.55-1.4-0.55t-1.35 0.6q-0.65 0.6-0.65 1.4v2h2q0.8 0 1.45-0.6m-7.45 0.6v-2q0-2.5 1.8-4.25 1.7-1.75 4.2-1.75 2.45 0 4.25 1.7l0.05 0.05v0.05q1.7 1.75 1.7 4.2 0 2.5-1.7 4.25-1.8 1.75-4.3 1.75h-2v6h2q2.5 0 4.3 1.8 1.7 1.7 1.7 4.2 0 2.45-1.7 4.25v0.05h-0.05q-1.8 1.7-4.25 1.7-2.5 0-4.2-1.7-1.8-1.8-1.8-4.3v-2h-6v2q0 2.5-1.75 4.3-1.75 1.7-4.25 1.7-2.45 0-4.2-1.7h-0.05l-0.05-0.05q-1.7-1.8-1.7-4.25 0-2.5 1.75-4.2 1.75-1.8 4.25-1.8h2v-6h-2q-2.5 0-4.25-1.75t-1.75-4.25q0-2.45 1.7-4.2l0.1-0.1q1.75-1.7 4.2-1.7 2.5 0 4.25 1.75t1.75 4.25v2h6m18-9q0-5-5-5h-32q-5 0-5 5v32q0 5 5 5h32q5 0 5-5v-32m-31.4 23.65q-0.6 0.55-0.6 1.35t0.55 1.4l0.05 0.1q0.6 0.5 1.4 0.5t1.4-0.55q0.6-0.65 0.6-1.45v-2h-2q-0.8 0-1.4 0.65m13.4-10.65h-6v6h6v-6m-12-4h2v-2q0-0.8-0.6-1.4t-1.4-0.6-1.4 0.55l-0.05 0.05q-0.55 0.6-0.55 1.4t0.6 1.4 1.4 0.6m18 14h-2v2q0 0.8 0.65 1.45 0.55 0.55 1.35 0.55t1.4-0.5l0.1-0.1q0.5-0.6 0.5-1.4t-0.55-1.35q-0.65-0.65-1.45-0.65" color="#000000" fill="#fff" stroke-width="8" style="-inkscape-stroke:none;paint-order:stroke markers fill"/>
</g>
</svg>
