<?xml version="1.0" encoding="UTF-8"?>
<svg version="1.1" viewBox="0 0 64 64" xmlns="http://www.w3.org/2000/svg">
<g stroke-linecap="round" stroke-linejoin="round">
<path d="m16 4c-3.3333 0-6.552 0.89573-8.8281 3.1719s-3.1719 5.4948-3.1719 8.8281v32c0 3.3333 0.89573 6.552 3.1719 8.8281s5.4948 3.1719 8.8281 3.1719h32c3.3333 0 6.552-0.89574 8.8281-3.1719s3.1719-5.4948 3.1719-8.8281v-32c0-3.3333-0.89574-6.552-3.1719-8.8281s-5.4948-3.1719-8.8281-3.1719z" color="#000000" style="-inkscape-stroke:none;paint-order:stroke markers fill"/>
<path d="m28 29.2 0.2 0.55 0.8 0.25 0.75-0.25v0.05l0.25-0.6v-6.2q0-0.4 0.3-0.7t0.7-0.3 0.7 0.3l0.3 0.7v6.2q0 1.15-0.9 2.05l-0.05 0.05q-0.9 0.7-2.05 0.7-1.25 0-2.1-0.7l-0.05-0.1q-0.85-0.85-0.85-2v-6.2q0-0.4 0.3-0.7t0.7-0.3 0.7 0.3l0.3 0.7v6.2m13 1.8-0.3 0.7-0.7 0.3q-0.4 0-0.7-0.3t-0.3-0.7v-5.6l-1.3 1.3-0.7 0.3-0.7-0.3-1.3-1.3v5.6l-0.3 0.7q-0.3 0.3-0.7 0.3l-0.7-0.3q-0.3-0.3-0.3-0.7v-8q0-0.4 0.3-0.7t0.7-0.3 0.7 0.3l2.3 2.3 2.3-2.3q0.3-0.3 0.7-0.3t0.7 0.3l0.3 0.7v8m-25-23h32q8 0 8 8v32q0 8-8 8h-32q-8 0-8-8v-32q0-8 8-8m3 26q0-0.4 0.3-0.7t0.7-0.3 0.7 0.3l0.3 0.7v7h3q0.4 0 0.7 0.3l0.3 0.7-0.3 0.7-0.7 0.3h-4l-0.7-0.3q-0.3-0.3-0.3-0.7v-8m9 1.8v4.45l0.2 0.5 0.8 0.25 0.75-0.25v0.05l0.25-0.55v-4.45l-0.25-0.55v0.05q-0.3-0.3-0.75-0.3t-0.8 0.3l0.05-0.1q-0.25 0.25-0.25 0.6m-9-11q0-1.15 0.85-2l0.05-0.05q0.85-0.75 2.1-0.75 1.15 0 2.05 0.75l0.05 0.05q0.9 0.85 0.9 2v6.2l-0.3 0.7-0.7 0.3q-0.4 0-0.7-0.3t-0.3-0.7v-6.2l-0.25-0.55v0.05q-0.3-0.3-0.75-0.3t-0.8 0.3l0.05-0.1-0.25 0.6v6.2l-0.3 0.7-0.7 0.3-0.7-0.3q-0.3-0.3-0.3-0.7v-6.2m7.85 9 0.05-0.05q0.85-0.75 2.1-0.75 1.15 0 2.05 0.75l0.05 0.05q0.9 0.85 0.9 2v4.45q0 1.1-0.9 2l-0.05 0.05q-0.9 0.7-2.05 0.7-1.25 0-2.1-0.7l-0.05-0.1q-0.85-0.85-0.85-1.95v-4.45q0-1.15 0.85-2m11.25 8.45-0.05 0.05q-0.9 0.7-2.05 0.7-1.25 0-2.1-0.7l-0.05-0.1q-0.85-0.85-0.85-1.95v-4.45q0-1.15 0.85-2l0.05-0.05q0.85-0.75 2.1-0.75 1.15 0 2.05 0.75l0.05 0.05q0.9 0.85 0.9 2l-0.3 0.7-0.7 0.3q-0.4 0-0.7-0.3t-0.3-0.7l-0.25-0.55v0.05q-0.3-0.3-0.75-0.3t-0.8 0.3l0.05-0.1q-0.25 0.25-0.25 0.6v4.45l0.2 0.5 0.8 0.25 0.75-0.25v0.05l0.25-0.55q0-0.4 0.3-0.7t0.7-0.3l0.7 0.3 0.3 0.7q0 1.1-0.9 2m1.9-8.25q0-0.4 0.3-0.7t0.7-0.3 0.7 0.3l0.3 0.7v3h0.4l1.7-3.45q0.2-0.35 0.6-0.5l0.75 0.05 0.5 0.6-0.05 0.75-1.75 3.55 1.75 3.55 0.05 0.8-0.5 0.55-0.75 0.05q-0.4-0.15-0.6-0.5l-1.7-3.45h-0.4v3l-0.3 0.7-0.7 0.3-0.7-0.3q-0.3-0.3-0.3-0.7v-8m-29-18v32q0 5 5 5h32q5 0 5-5v-32q0-5-5-5h-32q-5 0-5 5" color="#000000" fill="#fff" stroke-width="8" style="-inkscape-stroke:none;paint-order:stroke markers fill"/>
</g>
</svg>
