<?xml version="1.0" encoding="UTF-8"?>
<svg version="1.1" viewBox="0 0 64 64" xmlns="http://www.w3.org/2000/svg">
<g stroke-linecap="round" stroke-linejoin="round">
<path d="m16 4c-3.3333 0-6.552 0.89573-8.8281 3.1719s-3.1719 5.4948-3.1719 8.8281v32c0 3.3333 0.89573 6.552 3.1719 8.8281s5.4948 3.1719 8.8281 3.1719h32c3.3333 0 6.552-0.89574 8.8281-3.1719s3.1719-5.4948 3.1719-8.8281v-32c0-3.3333-0.89574-6.552-3.1719-8.8281s-5.4948-3.1719-8.8281-3.1719z" color="#000000" style="-inkscape-stroke:none;paint-order:stroke markers fill"/>
<path d="m11 16v32q0 5 5 5h32q5 0 5-5v-32q0-5-5-5h-32q-5 0-5 5m5-8h32q8 0 8 8v32q0 8-8 8h-32q-8 0-8-8v-32q0-8 8-8m18.55 19.4q-1.1-1.3-2.55-1.4-1.5 0.1-2.6 1.45-1.4 1.9-1.4 4.55t1.4 4.6q1.1 1.3 2.6 1.4 1.45-0.1 2.55-1.4 1.45-1.95 1.45-4.6t-1.45-4.55v-0.05m5.45 4.6q0 4.15-2.35 7.1-2.35 2.9-5.65 2.9-3.35 0-5.7-2.9-2.3-2.95-2.3-7.1t2.3-7.1q2.35-2.9 5.7-2.9 3.3 0 5.65 2.9 2.35 2.95 2.35 7.1" color="#000000" fill="#fff" stroke-width="8" style="-inkscape-stroke:none;paint-order:stroke markers fill"/>
</g>
</svg>
