<?xml version="1.0" encoding="UTF-8"?>
<svg version="1.1" viewBox="0 0 64 64" xmlns="http://www.w3.org/2000/svg">
<g stroke-linecap="round" stroke-linejoin="round">
<path d="m16 4c-3.3333 0-6.552 0.89573-8.8281 3.1719s-3.1719 5.4948-3.1719 8.8281v32c0 3.3333 0.89573 6.552 3.1719 8.8281s5.4948 3.1719 8.8281 3.1719h32c3.3333 0 6.552-0.89574 8.8281-3.1719s3.1719-5.4948 3.1719-8.8281v-32c0-3.3333-0.89574-6.552-3.1719-8.8281s-5.4948-3.1719-8.8281-3.1719z" color="#000000" style="-inkscape-stroke:none;paint-order:stroke markers fill"/>
<path d="m37 27h-1q-0.4 0-0.7 0.3t-0.3 0.7l0.3 0.7q0.3 0.3 0.7 0.3v0.25l-0.25 0.55v-0.05l-0.75 0.25-0.8-0.25-0.2-0.5v-4.45q0-0.35 0.25-0.6l-0.05 0.1q0.35-0.3 0.8-0.3t0.75 0.3v-0.05l0.25 0.55q0 0.4 0.3 0.7l0.7 0.3 0.7-0.3 0.3-0.7q0-1.15-0.9-2l-0.05-0.05q-0.9-0.75-2.05-0.75-1.25 0-2.1 0.75l-0.05 0.05q-0.85 0.85-0.85 2v4.45q0 1.1 0.85 1.95l0.05 0.1q0.85 0.7 2.1 0.7 1.15 0 2.05-0.7l0.05-0.05q0.9-0.9 0.9-2v-1.25l-0.3-0.7q-0.3-0.3-0.7-0.3m7-1h-3v-2h3l0.7-0.3 0.3-0.7-0.3-0.7q-0.3-0.3-0.7-0.3h-4q-0.4 0-0.7 0.3t-0.3 0.7v8q0 0.4 0.3 0.7t0.7 0.3h4l0.7-0.3 0.3-0.7-0.3-0.7q-0.3-0.3-0.7-0.3h-3v-2h3l0.7-0.3 0.3-0.7-0.3-0.7q-0.3-0.3-0.7-0.3m-28-18h32q8 0 8 8v32q0 8-8 8h-32q-8 0-8-8v-32q0-8 8-8m5.1 18h-1.1v-2h1.05l0.65 0.25 0.3 0.75-0.25 0.7h-0.05l-0.25 0.2-0.35 0.1m0 2 1.25-0.3 0.1-0.05 0.65-0.5v-0.05q0.9-0.85 0.9-2.1t-0.9-2.15q-0.85-0.85-2.05-0.85h-2.05q-0.4 0-0.7 0.3t-0.3 0.7v8q0 0.4 0.3 0.7t0.7 0.3l0.7-0.3 0.3-0.7v-3h1.1m5.9-3.2 0.25-0.6-0.05 0.1q0.35-0.3 0.8-0.3t0.75 0.3v-0.05l0.25 0.55v2.2h-2v-2.2m-2 0v6.2q0 0.4 0.3 0.7t0.7 0.3l0.7-0.3 0.3-0.7v-2h2v2q0 0.4 0.3 0.7l0.7 0.3q0.4 0 0.7-0.3l0.3-0.7v-6.2q0-1.15-0.9-2l-0.05-0.05q-0.9-0.75-2.05-0.75-1.25 0-2.1 0.75l-0.05 0.05q-0.85 0.85-0.85 2m3.1 12.2h-1.1v-2h1.05l0.65 0.25 0.3 0.75-0.25 0.7h-0.05l-0.25 0.2-0.35 0.1m0 2 1.25-0.3 0.1-0.05 0.65-0.5v-0.05q0.9-0.85 0.9-2.1t-0.9-2.15q-0.85-0.85-2.05-0.85h-2.05q-0.4 0-0.7 0.3t-0.3 0.7v8q0 0.4 0.3 0.7t0.7 0.3l0.7-0.3 0.3-0.7v-3h1.1m-8.1 1.2v-6.2l-0.3-0.7q-0.3-0.3-0.7-0.3t-0.7 0.3-0.3 0.7v6.2q0 1.15 0.85 2l0.05 0.1q0.85 0.7 2.1 0.7 1.15 0 2.05-0.7l0.05-0.05q0.9-0.9 0.9-2.05v-6.2l-0.3-0.7q-0.3-0.3-0.7-0.3t-0.7 0.3-0.3 0.7v6.2l-0.25 0.6v-0.05l-0.75 0.25-0.8-0.25-0.2-0.55" color="#000000" fill="#fff" stroke-width="8" style="-inkscape-stroke:none;paint-order:stroke markers fill"/>
</g>
</svg>
