<?xml version="1.0" encoding="UTF-8"?>
<svg version="1.1" viewBox="0 0 64 64" xmlns="http://www.w3.org/2000/svg">
<g stroke-linecap="round" stroke-linejoin="round">
<path d="m16 4c-3.3333 0-6.552 0.89573-8.8281 3.1719s-3.1719 5.4948-3.1719 8.8281v32c0 3.3333 0.89573 6.552 3.1719 8.8281s5.4948 3.1719 8.8281 3.1719h32c3.3333 0 6.552-0.89574 8.8281-3.1719s3.1719-5.4948 3.1719-8.8281v-32c0-3.3333-0.89574-6.552-3.1719-8.8281s-5.4948-3.1719-8.8281-3.1719z" color="#000000" style="-inkscape-stroke:none;paint-order:stroke markers fill"/>
<path d="m16 8h32q8 0 8 8v32q0 8-8 8h-32q-8 0-8-8v-32q0-8 8-8m12 22q0-1.65 1.2-2.8 1.15-1.2 2.8-1.2t2.85 1.2q1.15 1.15 1.15 2.8v4.1l-0.1 0.8-0.9-0.9h-3v3l0.9 0.9-0.9 0.1q-1.65 0-2.8-1.15t-1.2-2.75v-4.1m-4 0v4.2q0.05 3.15 2.35 5.45l1.65 1.3q1.8 1.05 4 1.05t4-1l1 1h3v-3l-1-1q0.95-1.75 1-3.8v-4.2q0-3.3-2.35-5.65t-5.65-2.35-5.65 2.35-2.35 5.65" color="#000000" fill="#fff" stroke-width="8" style="-inkscape-stroke:none;paint-order:stroke markers fill"/>
</g>
</svg>
