<?xml version="1.0" encoding="UTF-8"?>
<svg version="1.1" viewBox="0 0 64 64" xmlns="http://www.w3.org/2000/svg">
<g stroke-linecap="round" stroke-linejoin="round">
<path d="m16 4c-3.3333 0-6.552 0.89573-8.8281 3.1719s-3.1719 5.4948-3.1719 8.8281v32c0 3.3333 0.89573 6.552 3.1719 8.8281s5.4948 3.1719 8.8281 3.1719h32c3.3333 0 6.552-0.89574 8.8281-3.1719s3.1719-5.4948 3.1719-8.8281v-32c0-3.3333-0.89574-6.552-3.1719-8.8281s-5.4948-3.1719-8.8281-3.1719z" color="#000000" style="-inkscape-stroke:none;paint-order:stroke markers fill"/>
<path d="m25 22h9.2q1.55 0.05 2.8 0.8l1.2 0.9 0.05 0.05q1.75 1.75 1.75 4.25v2q0 2.45-1.75 4.2l-0.15 0.15 1.9 7.65h-4l-1.5-6h-6.5v6h-4v-19l1-1m3 4v6h6q0.8 0 1.35-0.55l0.1-0.1q0.55-0.55 0.55-1.35v-2q0-0.85-0.55-1.4h-0.05q-0.6-0.6-1.4-0.6h-6m-12-18h32q8 0 8 8v32q0 8-8 8h-32q-8 0-8-8v-32q0-8 8-8m-5 8v32q0 5 5 5h32q5 0 5-5v-32q0-5-5-5h-32q-5 0-5 5" color="#000000" fill="#fff" stroke-width="8" style="-inkscape-stroke:none;paint-order:stroke markers fill"/>
</g>
</svg>
