<?xml version="1.0" encoding="UTF-8"?>
<svg version="1.1" viewBox="0 0 64 64" xmlns="http://www.w3.org/2000/svg">
<g stroke-linecap="round" stroke-linejoin="round">
<path d="m36 4c-3.3333 0-6.552 0.89573-8.8281 3.1719s-3.1719 5.4948-3.1719 8.8281v8h-8c-3.3333 0-6.552 0.89574-8.8281 3.1719s-3.1719 5.4948-3.1719 8.8281v12c0 3.3333 0.89573 6.552 3.1719 8.8281s5.4948 3.1719 8.8281 3.1719h32c3.3333 0 6.552-0.89574 8.8281-3.1719s3.1719-5.4948 3.1719-8.8281v-32c0-3.3333-0.89574-6.552-3.1719-8.8281s-5.4948-3.1719-8.8281-3.1719z" color="#000000" style="-inkscape-stroke:none;paint-order:stroke markers fill"/>
<path d="m40 11h-4q-5 0-5 5v15h-15q-5 0-5 5v12q0 5 5 5h32q5 0 5-5v-32q0-5-5-5h-8m8-3q8 0 8 8v32q0 8-8 8h-32q-8 0-8-8v-12q0-8 8-8h12v-12q0-8 8-8h12m-28 35q0.4 0 0.7 0.3l0.3 0.7-0.3 0.7-0.7 0.3h-3v2h3q0.4 0 0.7 0.3l0.3 0.7-0.3 0.7-0.7 0.3h-4l-0.7-0.3q-0.3-0.3-0.3-0.7v-8q0-0.4 0.3-0.7t0.7-0.3h4q0.4 0 0.7 0.3l0.3 0.7-0.3 0.7-0.7 0.3h-3v2h3m2-1.2q0-1.15 0.85-2l0.05-0.05q0.85-0.75 2.1-0.75 1.15 0 2.05 0.75l0.05 0.05q0.9 0.85 0.9 2v6.2l-0.3 0.7q-0.3 0.3-0.7 0.3l-0.7-0.3-0.3-0.7v-6.2l-0.25-0.55v0.05q-0.3-0.3-0.75-0.3t-0.8 0.3l0.05-0.1-0.25 0.6v6.2l-0.3 0.7-0.7 0.3q-0.4 0-0.7-0.3t-0.3-0.7v-6.2m8-0.8-0.7-0.3q-0.3-0.3-0.3-0.7t0.3-0.7 0.7-0.3h4q0.4 0 0.7 0.3l0.3 0.7-0.3 0.7q-0.3 0.3-0.7 0.3h-1v7l-0.3 0.7-0.7 0.3q-0.4 0-0.7-0.3t-0.3-0.7v-7h-1m6-1q0-0.4 0.3-0.7t0.7-0.3h4q0.4 0 0.7 0.3l0.3 0.7-0.3 0.7-0.7 0.3h-3v2h3q0.4 0 0.7 0.3l0.3 0.7-0.3 0.7-0.7 0.3h-3v2h3q0.4 0 0.7 0.3l0.3 0.7-0.3 0.7-0.7 0.3h-4l-0.7-0.3q-0.3-0.3-0.3-0.7v-8m12.1 4.1v0.05l-0.65 0.5 1.45 2.9q0.2 0.4 0.05 0.8l-0.5 0.55-0.75 0.05q-0.4-0.15-0.6-0.5l-1.7-3.45h-0.4v3l-0.3 0.7-0.7 0.3q-0.4 0-0.7-0.3t-0.3-0.7v-8q0-0.4 0.3-0.7t0.7-0.3h2.05q1.2 0 2.05 0.85 0.9 0.9 0.9 2.15t-0.9 2.1m-2-1.1 0.35-0.1 0.25-0.2h0.05l0.25-0.7-0.3-0.75q-0.25-0.25-0.65-0.25h-1.05v2h1.1" color="#000000" fill="#fff" stroke-width="8" style="-inkscape-stroke:none;paint-order:stroke markers fill"/>
</g>
</svg>
