<?xml version="1.0" encoding="UTF-8"?>
<svg version="1.1" viewBox="0 0 64 64" xmlns="http://www.w3.org/2000/svg">
<g stroke-linecap="round" stroke-linejoin="round">
<path d="m16 10c-3.3333 0-6.552 0.89574-8.8281 3.1719s-3.1719 5.4948-3.1719 8.8281v20c0 4.083 1.5464 8.0814 4.8594 10.18l0.00391 2e-3c2.097 1.3244 4.5539 1.8183 7.1367 1.8183h32c2.5828 0 5.0397-0.49396 7.1367-1.8184l0.0039-2e-3c3.313-2.0983 4.8594-6.0966 4.8594-10.18v-20c0-3.3333-0.89574-6.552-3.1719-8.8281s-5.4948-3.1719-8.8281-3.1719z" color="#000000" style="-inkscape-stroke:none;paint-order:stroke markers fill"/>
<path d="m42.1 32.1c0.6-0.56667 0.9-1.2667 0.9-2.1s-0.3-1.55-0.9-2.15c-0.56667-0.56667-1.25-0.85-2.05-0.85h-2.05c-0.26667 0-0.5 0.1-0.7 0.3s-0.3 0.43333-0.3 0.7v8c0 0.26667 0.1 0.5 0.3 0.7l0.7 0.3c0.26667 0 0.5-0.1 0.7-0.3l0.3-0.7v-3h0.4l1.7 3.45c0.13333 0.23333 0.33333 0.4 0.6 0.5l0.75-0.05 0.5-0.55-0.05-0.8-1.45-2.9 0.65-0.5v-0.05m-2-1.1h-1.1v-2h1.05c0.26667 0 0.48333 0.08333 0.65 0.25l0.3 0.75-0.25 0.7h-0.05l-0.25 0.2-0.35 0.1m3.9-3v8c0 0.26667 0.1 0.5 0.3 0.7l0.7 0.3h4l0.7-0.3 0.3-0.7-0.3-0.7c-0.2-0.2-0.43333-0.3-0.7-0.3h-3v-7l-0.3-0.7c-0.2-0.2-0.43333-0.3-0.7-0.3s-0.5 0.1-0.7 0.3-0.3 0.43333-0.3 0.7m12-6v20c0 3.2667-1 5.5333-3 6.8-1.2667 0.8-2.9333 1.2-5 1.2h-32c-2.0667 0-3.7333-0.4-5-1.2-2-1.2667-3-3.5333-3-6.8v-20c0-5.3333 2.6667-8 8-8h32c5.3333 0 8 2.6667 8 8m-27.9 14.25c0.6-0.6 0.9-1.2667 0.9-2l-0.3-0.7c-0.2-0.2-0.43333-0.3-0.7-0.3s-0.5 0.1-0.7 0.3-0.3 0.43333-0.3 0.7l-0.25 0.55v-0.05l-0.75 0.25-0.8-0.25-0.2-0.5v-4.45l0.25-0.6-0.05 0.1c0.23333-0.2 0.5-0.3 0.8-0.3s0.55 0.1 0.75 0.3v-0.05l0.25 0.55c0 0.26667 0.1 0.5 0.3 0.7s0.43333 0.3 0.7 0.3l0.7-0.3 0.3-0.7c0-0.76667-0.3-1.4333-0.9-2l-0.05-0.05c-0.6-0.5-1.2833-0.75-2.05-0.75-0.83333 0-1.5333 0.25-2.1 0.75l-0.05 0.05c-0.56667 0.56667-0.85 1.2333-0.85 2v4.45c0 0.73333 0.28333 1.3833 0.85 1.95l0.05 0.1c0.56667 0.46667 1.2667 0.7 2.1 0.7 0.76667 0 1.45-0.23333 2.05-0.7l0.05-0.05m2.9-7.25h1v7c0 0.26667 0.1 0.5 0.3 0.7s0.43333 0.3 0.7 0.3l0.7-0.3 0.3-0.7v-7h1l0.7-0.3 0.3-0.7-0.3-0.7c-0.2-0.2-0.43333-0.3-0.7-0.3h-4c-0.26667 0-0.5 0.1-0.7 0.3s-0.3 0.43333-0.3 0.7l0.3 0.7 0.7 0.3m-10.9 3.1c0.6-0.56667 0.9-1.2667 0.9-2.1s-0.3-1.55-0.9-2.15c-0.56667-0.56667-1.25-0.85-2.05-0.85h-2.05c-0.26667 0-0.5 0.1-0.7 0.3s-0.3 0.43333-0.3 0.7v8c0 0.26667 0.1 0.5 0.3 0.7l0.7 0.3c0.26667 0 0.5-0.1 0.7-0.3l0.3-0.7v-3h0.4l1.7 3.45c0.13333 0.23333 0.33333 0.4 0.6 0.5l0.75-0.05 0.5-0.55-0.05-0.8-1.45-2.9 0.65-0.5v-0.05m-2-1.1h-1.1v-2h1.05c0.26667 0 0.48333 0.08333 0.65 0.25l0.3 0.75-0.25 0.7h-0.05l-0.25 0.2-0.35 0.1" color="#000000" fill="#fff" stroke-width="8" style="-inkscape-stroke:none;paint-order:stroke markers fill"/>
</g>
</svg>
