<?xml version="1.0" encoding="UTF-8"?>
<svg version="1.1" viewBox="0 0 64 64" xmlns="http://www.w3.org/2000/svg">
<g stroke-linecap="round" stroke-linejoin="round">
<path d="m16 10c-3.3333 0-6.552 0.89574-8.8281 3.1719s-3.1719 5.4948-3.1719 8.8281v20c0 4.083 1.5464 8.0814 4.8594 10.18l0.00391 2e-3c2.097 1.3244 4.5539 1.8183 7.1367 1.8183h32c2.5828 0 5.0397-0.49396 7.1367-1.8184l0.0039-2e-3c3.313-2.0983 4.8594-6.0966 4.8594-10.18v-20c0-3.3333-0.89574-6.552-3.1719-8.8281s-5.4948-3.1719-8.8281-3.1719z" color="#000000" style="-inkscape-stroke:none;paint-order:stroke markers fill"/>
<path d="m44 28c0-0.26667 0.1-0.5 0.3-0.7s0.43333-0.3 0.7-0.3 0.5 0.1 0.7 0.3l0.3 0.7v7h3c0.26667 0 0.5 0.1 0.7 0.3l0.3 0.7-0.3 0.7-0.7 0.3h-4l-0.7-0.3c-0.2-0.2-0.3-0.43333-0.3-0.7v-8m-3.9 3 0.35-0.1 0.25-0.2h0.05l0.25-0.7-0.3-0.75c-0.16667-0.16667-0.38333-0.25-0.65-0.25h-1.05v2h1.1m2 1.1v0.05l-0.65 0.5 1.45 2.9 0.05 0.8-0.5 0.55-0.75 0.05c-0.26667-0.1-0.46667-0.26667-0.6-0.5l-1.7-3.45h-0.4v3l-0.3 0.7c-0.2 0.2-0.43333 0.3-0.7 0.3l-0.7-0.3c-0.2-0.2-0.3-0.43333-0.3-0.7v-8c0-0.26667 0.1-0.5 0.3-0.7s0.43333-0.3 0.7-0.3h2.05c0.8 0 1.4833 0.28333 2.05 0.85 0.6 0.6 0.9 1.3167 0.9 2.15s-0.3 1.5333-0.9 2.1m13.9-10.1v20c0 3.2667-1 5.5333-3 6.8-1.2667 0.8-2.9333 1.2-5 1.2h-32c-2.0667 0-3.7333-0.4-5-1.2-2-1.2667-3-3.5333-3-6.8v-20c0-5.3333 2.6667-8 8-8h32c5.3333 0 8 2.6667 8 8m-25 7-0.7-0.3-0.3-0.7c0-0.26667 0.1-0.5 0.3-0.7s0.43333-0.3 0.7-0.3h4c0.26667 0 0.5 0.1 0.7 0.3l0.3 0.7-0.3 0.7-0.7 0.3h-1v7l-0.3 0.7-0.7 0.3c-0.26667 0-0.5-0.1-0.7-0.3s-0.3-0.43333-0.3-0.7v-7h-1m-2.9 7.25-0.05 0.05c-0.6 0.46667-1.2833 0.7-2.05 0.7-0.83333 0-1.5333-0.23333-2.1-0.7l-0.05-0.1c-0.56667-0.56667-0.85-1.2167-0.85-1.95v-4.45c0-0.76667 0.28333-1.4333 0.85-2l0.05-0.05c0.56667-0.5 1.2667-0.75 2.1-0.75 0.76667 0 1.45 0.25 2.05 0.75l0.05 0.05c0.6 0.56667 0.9 1.2333 0.9 2l-0.3 0.7-0.7 0.3c-0.26667 0-0.5-0.1-0.7-0.3s-0.3-0.43333-0.3-0.7l-0.25-0.55v0.05c-0.2-0.2-0.45-0.3-0.75-0.3s-0.56667 0.1-0.8 0.3l0.05-0.1-0.25 0.6v4.45l0.2 0.5 0.8 0.25 0.75-0.25v0.05l0.25-0.55c0-0.26667 0.1-0.5 0.3-0.7s0.43333-0.3 0.7-0.3 0.5 0.1 0.7 0.3l0.3 0.7c0 0.73333-0.3 1.4-0.9 2m-17.1-14.25v20c0 2 0.53333 3.4333 1.6 4.3 0.86667 0.46667 2 0.7 3.4 0.7h32c1.4 0 2.5333-0.23333 3.4-0.7 1.0667-0.86667 1.6-2.3 1.6-4.3v-20c0-3.3333-1.6667-5-5-5h-32c-3.3333 0-5 1.6667-5 5m7.1 9 0.35-0.1 0.25-0.2h0.05l0.25-0.7-0.3-0.75c-0.16667-0.16667-0.38333-0.25-0.65-0.25h-1.05v2h1.1m2 1.1v0.05l-0.65 0.5 1.45 2.9 0.05 0.8-0.5 0.55-0.75 0.05c-0.26667-0.1-0.46667-0.26667-0.6-0.5l-1.7-3.45h-0.4v3l-0.3 0.7c-0.2 0.2-0.43333 0.3-0.7 0.3l-0.7-0.3c-0.2-0.2-0.3-0.43333-0.3-0.7v-8c0-0.26667 0.1-0.5 0.3-0.7s0.43333-0.3 0.7-0.3h2.05c0.8 0 1.4833 0.28333 2.05 0.85 0.6 0.6 0.9 1.3167 0.9 2.15s-0.3 1.5333-0.9 2.1" color="#000000" fill="#fff" stroke-width="8" style="-inkscape-stroke:none;paint-order:stroke markers fill"/>
</g>
</svg>
