<?xml version="1.0" encoding="UTF-8"?>
<svg version="1.1" viewBox="0 0 64 64" xmlns="http://www.w3.org/2000/svg">
<g stroke-linecap="round" stroke-linejoin="round">
<path d="m16 12c-3.3333 0-6.552 0.89574-8.8281 3.1719s-3.1719 5.4948-3.1719 8.8281v16c0 4.083 1.5464 8.0814 4.8594 10.18l0.00391 2e-3c2.097 1.3244 4.5539 1.8183 7.1367 1.8183h32c2.5828 0 5.0397-0.49396 7.1367-1.8184l0.0039-2e-3c3.313-2.0983 4.8594-6.0966 4.8594-10.18v-16c0-3.3333-0.89574-6.552-3.1719-8.8281s-5.4948-3.1719-8.8281-3.1719z" color="#000000" style="-inkscape-stroke:none;paint-order:stroke markers fill"/>
<path d="m16 16h32c5.3333 0 8 2.6667 8 8v16c0 3.2667-1 5.5333-3 6.8-1.2667 0.8-2.9333 1.2-5 1.2h-32c-2.0667 0-3.7333-0.4-5-1.2-2-1.2667-3-3.5333-3-6.8v-16c0-5.3333 2.6667-8 8-8m18 20-0.3 0.7-0.7 0.3c-0.26667 0-0.5-0.1-0.7-0.3s-0.3-0.43333-0.3-0.7v-3h-2v3l-0.3 0.7-0.7 0.3-0.7-0.3c-0.2-0.2-0.3-0.43333-0.3-0.7v-8c0-0.26667 0.1-0.5 0.3-0.7s0.43333-0.3 0.7-0.3 0.5 0.1 0.7 0.3l0.3 0.7v3h2v-3c0-0.26667 0.1-0.5 0.3-0.7s0.43333-0.3 0.7-0.3l0.7 0.3 0.3 0.7v8m3 0-0.3 0.7-0.7 0.3c-0.26667 0-0.5-0.1-0.7-0.3s-0.3-0.43333-0.3-0.7v-8c0-0.26667 0.1-0.5 0.3-0.7s0.43333-0.3 0.7-0.3 0.5 0.1 0.7 0.3l0.3 0.7v8m3 0-0.3 0.7-0.7 0.3c-0.26667 0-0.5-0.1-0.7-0.3s-0.3-0.43333-0.3-0.7v-8c0-0.26667 0.1-0.5 0.3-0.7s0.43333-0.3 0.7-0.3h4c0.26667 0 0.5 0.1 0.7 0.3l0.3 0.7-0.3 0.7c-0.2 0.2-0.43333 0.3-0.7 0.3h-3v2h3c0.26667 0 0.5 0.1 0.7 0.3l0.3 0.7-0.3 0.7c-0.2 0.2-0.43333 0.3-0.7 0.3h-3v3m-16-7c-0.26667 0-0.5 0.1-0.7 0.3s-0.3 0.43333-0.3 0.7 0.1 0.5 0.3 0.7l0.65 0.3h0.1c0.76667 0 1.45 0.3 2.05 0.9s0.9 1.3 0.9 2.1-0.3 1.5-0.9 2.1-1.3 0.9-2.1 0.9h-2l-0.7-0.3c-0.2-0.2-0.3-0.43333-0.3-0.7s0.1-0.5 0.3-0.7 0.43333-0.3 0.7-0.3h2l0.7-0.3 0.3-0.7-0.3-0.7c-0.2-0.2-0.41667-0.3-0.65-0.3h-0.1c-0.76667 0-1.45-0.3-2.05-0.9s-0.9-1.3-0.9-2.1 0.3-1.5 0.9-2.1 1.3-0.9 2.1-0.9h2c0.26667 0 0.5 0.1 0.7 0.3l0.3 0.7-0.3 0.7-0.7 0.3h-2m22 0-0.7-0.3c-0.2-0.2-0.3-0.43333-0.3-0.7s0.1-0.5 0.3-0.7 0.43333-0.3 0.7-0.3h4c0.26667 0 0.5 0.1 0.7 0.3l0.3 0.7-0.3 0.7-0.7 0.3h-1v7l-0.3 0.7-0.7 0.3c-0.26667 0-0.5-0.1-0.7-0.3s-0.3-0.43333-0.3-0.7v-7h-1m-35-5v16c0 3.3333 1.6667 5 5 5h32c3.3333 0 5-1.6667 5-5v-16c0-3.3333-1.6667-5-5-5h-32c-3.3333 0-5 1.6667-5 5m7.1 8.1c0.6-0.56667 0.9-1.2667 0.9-2.1s-0.3-1.55-0.9-2.15c-0.56667-0.56667-1.25-0.85-2.05-0.85h-2.05c-0.26667 0-0.5 0.1-0.7 0.3s-0.3 0.43333-0.3 0.7v8c0 0.26667 0.1 0.5 0.3 0.7l0.7 0.3c0.26667 0 0.5-0.1 0.7-0.3l0.3-0.7v-3h0.4l1.7 3.45c0.13333 0.23333 0.33333 0.4 0.6 0.5l0.75-0.05 0.5-0.55-0.05-0.8-1.45-2.9 0.65-0.5v-0.05m-2-1.1h-1.1v-2h1.05c0.26667 0 0.48333 0.08333 0.65 0.25l0.3 0.75-0.25 0.7h-0.05l-0.25 0.2-0.35 0.1" color="#000000" fill="#fff" stroke-width="8" style="-inkscape-stroke:none;paint-order:stroke markers fill"/>
</g>
</svg>
