<?xml version="1.0" encoding="UTF-8"?>
<svg version="1.1" viewBox="0 0 64 64" xmlns="http://www.w3.org/2000/svg">
<g stroke-linecap="round" stroke-linejoin="round">
<path d="m16 4c-2.6875 0-5.2468 0.53789-7.3887 1.9844-2.1419 1.4465-3.6018 3.7878-4.2012 6.2812-0.28756 1.1982-0.41016 2.443-0.41016 3.7344v32c0 1.2914 0.1226 2.5362 0.41016 3.7344 0.59938 2.4934 2.0593 4.8348 4.2012 6.2812 2.1419 1.4465 4.7012 1.9844 7.3887 1.9844h32c3.3333 0 6.552-0.89574 8.8281-3.1719s3.1719-5.4948 3.1719-8.8281v-32c0-3.3333-0.89574-6.552-3.1719-8.8281s-5.4948-3.1719-8.8281-3.1719z" color="#000000" style="-inkscape-stroke:none;paint-order:stroke markers fill"/>
<path d="m16 8h32q8 0 8 8v32q0 8-8 8h-32q-6.45 0-7.7-5.2-0.3-1.25-0.3-2.8v-32q0-1.55 0.3-2.8 1.25-5.2 7.7-5.2m11.5 20q-3.5 0-5.95 2.65-0.6 0.6-0.55 1.45 0.05 0.8 0.65 1.4 0.6 0.55 1.45 0.5 0.8-0.05 1.4-0.65 1.2-1.35 3-1.35t3.05 1.35q2.45 2.65 5.95 2.65t6-2.65q0.55-0.6 0.5-1.4-0.05-0.85-0.65-1.4-0.6-0.6-1.4-0.55-0.85 0.05-1.4 0.65-1.25 1.35-3.05 1.35t-3-1.35q-2.5-2.65-6-2.65" color="#000000" fill="#fff" stroke-width="8" style="-inkscape-stroke:none;paint-order:stroke markers fill"/>
</g>
</svg>
