<?xml version="1.0" encoding="UTF-8"?>
<svg version="1.1" viewBox="0 0 64 64" xmlns="http://www.w3.org/2000/svg">
<g stroke-linecap="round" stroke-linejoin="round">
<path d="m16 4c-3.3333 0-6.552 0.89573-8.8281 3.1719s-3.1719 5.4948-3.1719 8.8281v32c0 3.3333 0.89573 6.552 3.1719 8.8281s5.4948 3.1719 8.8281 3.1719h32c3.3333 0 6.552-0.89574 8.8281-3.1719s3.1719-5.4948 3.1719-8.8281v-32c0-3.3333-0.89574-6.552-3.1719-8.8281s-5.4948-3.1719-8.8281-3.1719z" color="#000000" style="-inkscape-stroke:none;paint-order:stroke markers fill"/>
<path d="m33.95 40q0-0.85-0.6-1.45-0.55-0.55-1.4-0.55t-1.45 0.55q-0.55 0.6-0.55 1.45t0.55 1.4q0.6 0.6 1.45 0.6t1.4-0.6q0.6-0.55 0.6-1.4m-4-10v6h4v-2q2.5 0 4.25-1.75t1.75-4.25q0-2.45-1.75-4.2l-0.05-0.05q-1.75-1.75-4.2-1.75h-4.15q-2.35 0.05-4.05 1.75l-0.05 0.05q-1 1-1.45 2.2l-0.15 0.5 3.85 1.5q0-0.8 0.55-1.35l0.1-0.1q0.55-0.55 1.3-0.55h4.05q0.8 0 1.35 0.55l0.1 0.1q0.55 0.55 0.55 1.35t-0.6 1.4-1.4 0.6h-4m18.05-22q8 0 8 8v32q0 8-8 8h-32q-8 0-8-8v-32q0-8 8-8h32" color="#000000" fill="#fff" stroke-width="8" style="-inkscape-stroke:none;paint-order:stroke markers fill"/>
</g>
</svg>
