<?xml version="1.0" encoding="UTF-8"?>
<svg version="1.1" viewBox="0 0 64 64" xmlns="http://www.w3.org/2000/svg">
<g stroke-linecap="round" stroke-linejoin="round">
<path d="m16 4c-3.3333 0-6.552 0.89573-8.8281 3.1719s-3.1719 5.4948-3.1719 8.8281v32c0 3.3333 0.89573 6.552 3.1719 8.8281s5.4948 3.1719 8.8281 3.1719h32c3.3333 0 6.552-0.89574 8.8281-3.1719s3.1719-5.4948 3.1719-8.8281v-32c0-3.3333-0.89574-6.552-3.1719-8.8281s-5.4948-3.1719-8.8281-3.1719z" color="#000000" style="-inkscape-stroke:none;paint-order:stroke markers fill"/>
<path d="m53 16q0-5-5-5h-32q-5 0-5 5v32q0 5 5 5h32q5 0 5-5v-32m-5-8q8 0 8 8v32q0 8-8 8h-32q-8 0-8-8v-32q0-8 8-8h32m-18.05 22h4q0.8 0 1.4-0.6t0.6-1.4-0.55-1.35l-0.1-0.1q-0.55-0.55-1.35-0.55h-4.05q-0.75 0-1.3 0.55l-0.1 0.1q-0.55 0.55-0.55 1.35l-3.85-1.5 0.15-0.5q0.45-1.2 1.45-2.2l0.05-0.05q1.7-1.7 4.05-1.75h4.15q2.45 0 4.2 1.75l0.05 0.05q1.75 1.75 1.75 4.2 0 2.5-1.75 4.25t-4.25 1.75v2h-4v-6m4 10q0 0.85-0.6 1.4-0.55 0.6-1.4 0.6t-1.45-0.6q-0.55-0.55-0.55-1.4t0.55-1.45q0.6-0.55 1.45-0.55t1.4 0.55q0.6 0.6 0.6 1.45" color="#000000" fill="#fff" stroke-width="8" style="-inkscape-stroke:none;paint-order:stroke markers fill"/>
</g>
</svg>
