<?xml version="1.0" encoding="UTF-8"?>
<svg preserveAspectRatio="none" version="1.1" viewBox="0 0 100 100" xmlns="http://www.w3.org/2000/svg">
<defs>
<linearGradient id="a" x1="30.65" x2="30.65" y1="18.15" y2="43.15" gradientTransform="matrix(0,-1,-1,0,100,100)" gradientUnits="userSpaceOnUse">
<stop stop-opacity=".2" offset="0"/>
<stop stop-opacity="0" offset="1"/>
</linearGradient>
<linearGradient id="b" x1="50" x2="50" y1="10.412" y2="89.588" gradientTransform="rotate(-90,50,50)" gradientUnits="userSpaceOnUse">
<stop stop-color="#373737" offset="0"/>
<stop stop-color="#575757" offset="1"/>
</linearGradient>
</defs>
<g transform="rotate(90,50,50)">
<path d="m16.2 16.2c9.3333-9.2667 20.6-13.9 33.8-13.9s24.433 4.6333 33.7 13.9c3.147 3.147 5.7637 6.5137 7.85 10.1 4.1 7.0507 6.15 14.951 6.15 23.7 0 8.7656-2.05 16.666-6.15 23.7-2.0979 3.5536-4.7146 6.887-7.85 10-9.2667 9.3333-20.5 14-33.7 14s-24.467-4.6667-33.8-14c-9.2667-9.2667-13.9-20.5-13.9-33.7s4.6333-24.467 13.9-33.8" fill="#2a2a2a"/>
<path d="m83.6 75.9c-1.1194 1.3861-2.3361 2.7361-3.65 4.05-8.2667 8.2667-18.25 12.4-29.95 12.4s-21.7-4.1333-30-12.4c-8.2333-8.2667-12.35-18.25-12.35-29.95s4.1167-21.7 12.35-30c8.3-8.2333 18.3-12.35 30-12.35s21.683 4.1167 29.95 12.35c1.3111 1.3164 2.5277 2.6831 3.65 4.1z" fill="#464646"/>
<path d="m50.9 10.4h-0.9c-10.9 0-20.217 3.8667-27.95 11.6-0.62826 0.62552-1.2283 1.2589-1.8 1.9-6.5667 7.351-9.85 16.051-9.85 26.1 0 10.032 3.3 18.732 9.9 26.1 0.56992 0.60586 1.1533 1.2059 1.75 1.8 7.7333 7.8 17.05 11.7 27.95 11.7h0.9c10.533-0.23333 19.567-4.1333 27.1-11.7 7.7333-7.7333 11.6-17.033 11.6-27.9 0-10.933-3.8667-20.267-11.6-28-7.5333-7.5-16.567-11.367-27.1-11.6" fill="url(#b)"/>
<path d="m57.3 62.1c-1.1879-2.2513-2.0046-4.6513-2.45-7.2-0.0793-0.39323-0.14596-0.77656-0.2-1.15-0.08867-0.62357-0.15534-1.2402-0.2-1.85-0.03333-0.62865-0.05-1.262-0.05-1.9 0-0.58203 0.01667-1.1487 0.05-1.7 0.22044-3.7751 1.1704-7.2251 2.85-10.35m0 0c1.2065-2.2859 2.7898-4.4026 4.75-6.35 1.8-1.8 3.6833-3.2833 5.65-4.45 1.2-0.66667 2.4167-1.2333 3.65-1.7 0.1 0 0.18333-0.03333 0.25-0.1 2.5622-0.89518 5.361-1.3785 8.2321-1.45 6.5667 7.347 9.8465 16.047 9.8465 26.1 0 10.036-3.2965 18.736-9.8965 26.1-2.7628-0.07747-5.4449-0.52747-7.8821-1.35-1.2667-0.43333-2.4833-0.98333-3.65-1.65-2.2-1.1667-4.2667-2.7167-6.2-4.65-1.9641-1.9641-3.5474-4.0807-4.75-6.35z" fill="#f5f5f5"/>
<path d="m80.45 23.9q1.5898 0 3.15 0.2 8.75 11.133 8.75 25.9 0 14.76-8.75 25.9-1.5398 0.2-3.15 0.2-0.39141 0-0.75 0 9.9-11.046 9.9-26.1 0-15.079-9.85-26.1 0.35273 0 0.7 0z" fill="#fff"/>
<g fill="none" stroke-linecap="round" stroke-linejoin="round" stroke-width="3">
<path d="m57.3 62.1v-4.85m0-14.5v-16.9q0-3-2.1-5.1-2.15-2.15-5.15-2.15t-5.1 2.15q-2.15 2.1-2.15 5.1v16.9h-16.9q-3 0-5.1 2.1-2.15 2.15-2.15 5.15t2.15 5.1q2.1 2.15 5.1 2.15h16.9v16.85q0 2.6 1.6 4.55 0.3 0.35 0.55 0.6 2.1 2.1 5.1 2.1t5.15-2.1q0.25-0.25 0.5-0.55 1.6-1.95 1.6-4.6v-12" stroke="#fff" stroke-opacity=".10196"/>
<path d="m57.3 57.25h16.85q3 0 5.15-2.15 2.1-2.1 2.1-5.1t-2.1-5.15q-2.15-2.1-5.15-2.1h-16.85" stroke="url(#a)"/>
</g>
</g>
</svg>
