<?xml version="1.0" encoding="UTF-8"?>
<svg preserveAspectRatio="none" version="1.1" viewBox="0 0 100 100" xmlns="http://www.w3.org/2000/svg">
<defs>
<linearGradient id="a" x1="30.65" x2="30.65" y1="18.15" y2="43.15" gradientUnits="userSpaceOnUse">
<stop stop-opacity=".2" offset="0"/>
<stop stop-opacity="0" offset="1"/>
</linearGradient>
<linearGradient id="b" x1="50" x2="50" y1="10.412" y2="89.588" gradientTransform="rotate(-90,50,50)" gradientUnits="userSpaceOnUse">
<stop stop-color="#373737" offset="0"/>
<stop stop-color="#575757" offset="1"/>
</linearGradient>
</defs>
<g transform="rotate(90,50,50)">
<path d="m83.8 83.8c9.2667-9.3333 13.9-20.6 13.9-33.8s-4.6333-24.433-13.9-33.7c-3.147-3.147-6.5137-5.7637-10.1-7.85-7.0507-4.1-14.951-6.15-23.7-6.15-8.7656 0-16.666 2.05-23.7 6.15-3.5536 2.0979-6.887 4.7146-10 7.85-9.3333 9.2667-14 20.5-14 33.7s4.6667 24.467 14 33.8c9.2667 9.2667 20.5 13.9 33.7 13.9s24.467-4.6333 33.8-13.9" fill="#2a2a2a"/>
<path d="m24.1 16.4c-1.3861 1.1194-2.7361 2.3361-4.05 3.65-8.2667 8.2667-12.4 18.25-12.4 29.95s4.1333 21.7 12.4 30c8.2667 8.2333 18.25 12.35 29.95 12.35s21.7-4.1167 30-12.35c8.2333-8.3 12.35-18.3 12.35-30s-4.1167-21.683-12.35-29.95c-1.3164-1.3111-2.6831-2.5277-4.1-3.65z" fill="#464646"/>
<path d="m50.9 10.4h-0.9c-10.9 0-20.217 3.8667-27.95 11.6-0.62826 0.62552-1.2283 1.2589-1.8 1.9-6.5667 7.351-9.85 16.051-9.85 26.1 0 10.032 3.3 18.732 9.9 26.1 0.56992 0.60586 1.1533 1.2059 1.75 1.8 7.7333 7.8 17.05 11.7 27.95 11.7h0.9c10.533-0.23333 19.567-4.1333 27.1-11.7 7.7333-7.7333 11.6-17.033 11.6-27.9 0-10.933-3.8667-20.267-11.6-28-7.5333-7.5-16.567-11.367-27.1-11.6" fill="url(#b)"/>
<path d="m37.9 42.7c2.2513 1.1879 4.6513 2.0046 7.2 2.45 0.39323 0.0793 0.77656 0.14596 1.15 0.2 0.62357 0.08867 1.2402 0.15534 1.85 0.2 0.62865 0.03333 1.262 0.05 1.9 0.05 0.58203 0 1.1487-0.01667 1.7-0.05 3.7751-0.22044 7.2251-1.1704 10.35-2.85m0 0c2.2859-1.2065 4.4026-2.7898 6.35-4.75 1.8-1.8 3.2833-3.6833 4.45-5.65 0.66667-1.2 1.2333-2.4167 1.7-3.65 0-0.1 0.03333-0.18333 0.1-0.25 0.89518-2.5622 1.3785-5.361 1.45-8.2321-7.347-6.5667-16.047-9.8465-26.1-9.8465-10.036 0-18.736 3.2965-26.1 9.8965 0.07747 2.7628 0.52747 5.4449 1.35 7.8821 0.43333 1.2667 0.98333 2.4833 1.65 3.65 1.1667 2.2 2.7167 4.2667 4.65 6.2 1.9641 1.9641 4.0807 3.5474 6.35 4.75z" fill="#f5f5f5"/>
<path d="m76.1 19.55q0-1.5898-0.2-3.15-11.133-8.75-25.9-8.75-14.76 0-25.9 8.75-0.2 1.5398-0.2 3.15 0 0.39141 0 0.75 11.046-9.9 26.1-9.9 15.079 0 26.1 9.85 0-0.35273 0-0.7z" fill="#fff"/>
<g fill="none" stroke-linecap="round" stroke-linejoin="round" stroke-width="3">
<path d="m37.9 42.7h4.85m14.5 0h16.9q3 0 5.1 2.1 2.15 2.15 2.15 5.15t-2.15 5.1q-2.1 2.15-5.1 2.15h-16.9v16.9q0 3-2.1 5.1-2.15 2.15-5.15 2.15t-5.1-2.15q-2.15-2.1-2.15-5.1v-16.9h-16.85q-2.6 0-4.55-1.6-0.35-0.3-0.6-0.55-2.1-2.1-2.1-5.1t2.1-5.15q0.25-0.25 0.55-0.5 1.95-1.6 4.6-1.6h12" stroke="#fff" stroke-opacity=".10196"/>
<path d="m42.75 42.7v-16.85q0-3 2.15-5.15 2.1-2.1 5.1-2.1t5.15 2.1q2.1 2.15 2.1 5.15v16.85" stroke="url(#a)"/>
</g>
</g>
</svg>
