<?xml version="1.0" encoding="UTF-8"?>
<svg preserveAspectRatio="xMinYMin meet" version="1.1" viewBox="0 0 100 100" xmlns="http://www.w3.org/2000/svg">
<g stroke-width="2">
<ellipse cx="49.942" cy="50.058" rx="40.508" ry="40.458" fill="#1b1b1b" style="paint-order:markers fill stroke"/>
<ellipse cx="49.942" cy="50.058" rx="36.508" ry="36.458" fill="#313131" style="paint-order:markers fill stroke"/>
<circle cx="49.942" cy="50.058" r="31.058" fill="#626262" style="paint-order:markers fill stroke"/>
</g>
<circle cx="49.942" cy="50.058" r="27.058" fill="#4f4f4f" stroke-width="1.8905" style="paint-order:markers fill stroke"/>
<path d="m59.3 34.7q1.65 0.9 2.7 2.45 1 1.6 1 4.2 0 2.7-1.5 4.5-1.5 1.75-3.95 2.5v0.1q1.55 0.25 2.85 0.85 1.25 0.7 2.15 1.7 0.95 1 1.45 2.35t0.5 2.9q0 2.5-1.1 4.2-1.05 1.7-2.8 2.7-1.7 1.05-3.85 1.5l-4.2 0.45h-13.05v-31.85h11.85l4.15 0.3q2.15 0.3 3.8 1.15m-12.8 11.3h5.1l1.6-0.2 1.4-0.6 1.05-1.05q0.35-0.7 0.35-1.65 0-1-0.4-1.65l-1.15-1-1.5-0.5-1.65-0.2h-4.8v6.85m10.55 11.2q0.45-0.75 0.45-1.75 0-1.15-0.6-1.85l-1.4-1.05-1.85-0.5-1.85-0.15h-5.3v7.25h6.3l1.65-0.15 1.5-0.65 1.1-1.15" fill="#e33535"/>
</svg>
