<?xml version="1.0" encoding="UTF-8"?>
<svg preserveAspectRatio="none" version="1.1" viewBox="0 0 100 100" xmlns="http://www.w3.org/2000/svg">
<path d="m82.05 17.85h0.1c-8.8667-8.8333-19.583-13.25-32.15-13.25s-23.3 4.4167-32.2 13.25c-8.8333 8.8667-13.25 19.583-13.25 32.15 0 12.533 4.4167 23.25 13.25 32.15v0.05c8.9 8.8333 19.633 13.25 32.2 13.25 12.533 0 23.217-4.4167 32.05-13.25l0.1-0.05c8.8667-8.9 13.3-19.617 13.3-32.15 0-12.6-4.4667-23.317-13.4-32.15" fill="#1b1b1b"/>
<path d="m78.95 21.05q-12-11.95-28.95-11.95-17 0-29 11.9l-0.05 0.05q-11.9 11.95-11.9 28.95 0 16.95 11.9 29h0.05q12 11.95 29 11.95 16.95 0 28.95-11.95 12-12.05 12-29 0-17-12-28.95m-2.25 2.15h0.1q11 11.05 11 26.8 0 15.7-11 26.8-11.1 11-26.8 11-15.75 0-26.8-11v-0.1q-11.05-11.1-11.05-26.7 0-15.7 11.05-26.8 11.1-11.05 26.8-11.05 15.6 0 26.7 11.05z" fill="#313131"/>
<path d="m76.8 23.2h-0.1c-7.4-7.3667-16.3-11.05-26.7-11.05-10.467 0-19.4 3.6833-26.8 11.05-7.3667 7.4-11.05 16.333-11.05 26.8 0 10.4 3.6833 19.3 11.05 26.7v0.1c7.3667 7.3333 16.3 11 26.8 11 10.467 0 19.4-3.6667 26.8-11 7.3333-7.4 11-16.333 11-26.8 0-10.5-3.6667-19.433-11-26.8" fill="#626262"/>
<path d="m73.3 26.65c-6.4333-6.4-14.2-9.6-23.3-9.6-9.1333 0-16.917 3.1833-23.35 9.55l-0.05 0.05c-6.3667 6.4333-9.55 14.217-9.55 23.35 0 9.1 3.2 16.867 9.6 23.3 6.4333 6.4333 14.217 9.65 23.35 9.65 9.0667 0 16.833-3.2167 23.3-9.65 6.4333-6.4667 9.65-14.233 9.65-23.3 0-9.1333-3.2167-16.917-9.65-23.35" fill="#4f4f4f"/>
<path d="m60.35 24.9q-5.6 0-9.6 3.85-3.85 4-3.85 9.6 0 1.6949 0.35 3.2l-6 13.3q-0.06797 0.0096-0.15 0-3.1172 0.50684-5.5 2.85-0.17754 0.18047-0.35 0.35l-12.4-2.55q1.6082 8.0922 5.7 12.3l4.8 0.8q0.73184 1.9057 2.25 3.45 3 3 7.2 3 4.25 0 7.15-3 3-2.95 3-7.15 0-1.6256-0.45-3.05l9.9-10.15q0.14277-0.01973 0.25-0.05 4.1719-0.65391 7.2-3.8 4-3.85 4-9.5 0-5.6-4-9.6-3.85-3.85-9.5-3.85m-6.6 6.95q2.75-2.7 6.6-2.7t6.5 2.7q2.75 2.7 2.75 6.55t-2.75 6.55q-2.65 2.7-6.5 2.7t-6.6-2.7q-2.65-2.7-2.65-6.55t2.65-6.55m-16.3 38.35q-0.48906-0.48906-0.9-1.05l5.15 0.9q0.07598 0.01641 0.1 0 0.08789 0.04023 0.15 0.05 0.41211 0.05 0.85 0.05 2.15 0 3.65-1.55 1.55-1.5 1.55-3.65t-1.55-3.7q-0.96953-0.96953-2.2-1.3-0.33984-0.09863-0.7-0.15l-5.05-1.1q1.8658-1.25 4.3-1.25 3.1 0 5.25 2.15 2.25 2.2 2.25 5.35 0 3.1-2.25 5.25-2.15 2.2-5.25 2.2-3.15 0-5.35-2.2m22.9-38.3q-2.7 0-4.65 1.9-1.85 1.9-1.85 4.6t1.85 4.6q1.95 1.9 4.65 1.9t4.6-1.9 1.9-4.6-1.9-4.6-4.6-1.9z" fill="#ccc"/>
</svg>
