<svg width="100px" height="100px" preserveAspectRatio="none" version="1.1" viewBox="0 0 100 100" xmlns="http://www.w3.org/2000/svg">
 <circle cx="50" cy="50" r="42.2" fill="#272727" style="paint-order:markers fill stroke"/>
 <circle cx="50.025" cy="50.025" r="34.075" fill="#373737" style="paint-order:markers fill stroke"/>
 <circle cx="50.1" cy="50.1" r="23.9" fill="#3f3f3f" style="paint-order:markers fill stroke"/>
 <path d="m58.2 77.3c-0.4 0.83333-0.43333 1.6833-0.1 2.55 0.36667 0.83333 0.96667 1.4333 1.8 1.8 0.8 0.36667 1.6167 0.38333 2.45 0.05 0.86667-0.36667 1.5-0.95 1.9-1.75 0.33333-0.83333 0.35-1.6667 0.05-2.5-0.33333-0.86667-0.91667-1.4833-1.75-1.85-0.86667-0.36667-1.7333-0.4-2.6-0.1-0.83333 0.33333-1.4167 0.93333-1.75 1.8m-4.85 3.4c0-0.9-0.33333-1.7-1-2.4-0.63333-0.6-1.4-0.9-2.3-0.9-0.93333 0-1.7167 0.3-2.35 0.9-0.66667 0.7-1 1.5-1 2.4 0 0.93333 0.33333 1.7 1 2.3 0.63333 0.66667 1.4167 1 2.35 1 0.9 0 1.6667-0.33333 2.3-1 0.66667-0.6 1-1.3667 1-2.3m16-11.35c-0.63333 0.66667-0.91667 1.45-0.85 2.35-0.03333 0.9 0.26667 1.6667 0.9 2.3 0.66667 0.7 1.45 1.05 2.35 1.05 0.86667 0 1.6167-0.35 2.25-1.05 0.7-0.63333 1.0667-1.4 1.1-2.3-0.03333-0.86667-0.4-1.6333-1.1-2.3-0.63333-0.63333-1.3833-0.95-2.25-0.95-0.93333-0.03333-1.7333 0.26667-2.4 0.9m-32.95 11.75c0.8 0.4 1.6333 0.4 2.5 0 0.83333-0.26667 1.45-0.81667 1.85-1.65 0.33333-0.86667 0.35-1.7333 0.05-2.6-0.36667-0.83333-0.95-1.4167-1.75-1.75-0.86667-0.36667-1.7167-0.4-2.55-0.1-0.86667 0.33333-1.4833 0.91667-1.85 1.75-0.33333 0.86667-0.35 1.7167-0.05 2.55 0.33333 0.86667 0.93333 1.4667 1.8 1.8m-8.1-12.65c-0.86667 0.03333-1.6333 0.36667-2.3 1-0.63333 0.63333-0.96667 1.3833-1 2.25 0 0.93333 0.33333 1.7167 1 2.35 0.66667 0.7 1.4333 1.0333 2.3 1 0.93333 0 1.7167-0.33333 2.35-1 0.63333-0.63333 0.95-1.4167 0.95-2.35 0.03333-0.86667-0.28333-1.6333-0.95-2.3-0.63333-0.63333-1.4167-0.95-2.35-0.95m-3.85-8.45c-0.33333-0.83333-0.9-1.4667-1.7-1.9-0.83333-0.36667-1.6667-0.38333-2.5-0.05-0.86667 0.36667-1.4833 0.95-1.85 1.75-0.4 0.9-0.43333 1.7667-0.1 2.6 0.33333 0.86667 0.93333 1.45 1.8 1.75 0.83333 0.4 1.6833 0.43333 2.55 0.1 0.83333-0.33333 1.4167-0.93333 1.75-1.8 0.36667-0.76667 0.38333-1.5833 0.05-2.45m6.2-29.35c0.66667-0.63333 1-1.4167 1-2.35-0.03333-0.86667-0.38333-1.6333-1.05-2.3-0.63333-0.66667-1.3833-1-2.25-1-0.9 0-1.6833 0.33333-2.35 1s-0.98333 1.4333-0.95 2.3c-0.03333 0.9 0.28333 1.6667 0.95 2.3 0.66667 0.66667 1.45 1 2.35 1 0.9 0.03333 1.6667-0.28333 2.3-0.95m-11.75 5.7c-0.36667 0.83333-0.38333 1.6667-0.05 2.5 0.3 0.8 0.86667 1.4167 1.7 1.85 0.86667 0.33333 1.7333 0.35 2.6 0.05 0.83333-0.36667 1.4333-0.96667 1.8-1.8 0.36667-0.86667 0.4-1.7 0.1-2.5-0.36667-0.83333-0.96667-1.4333-1.8-1.8-0.86667-0.36667-1.7-0.4-2.5-0.1-0.9 0.33333-1.5167 0.93333-1.85 1.8m0.4 10.3c-0.9 0-1.6667 0.33333-2.3 1-0.63333 0.63333-0.95 1.4167-0.95 2.35 0 0.9 0.31667 1.6667 0.95 2.3 0.63333 0.66667 1.4 1 2.3 1 0.93333 0 1.7333-0.33333 2.4-1 0.63333-0.63333 0.95-1.4 0.95-2.3 0-0.93333-0.31667-1.7167-0.95-2.35-0.66667-0.66667-1.4667-1-2.4-1m55.75-18.35c0-0.83333-0.35-1.6-1.05-2.3-0.63333-0.63333-1.4-0.96667-2.3-1-0.86667 0.03333-1.6333 0.36667-2.3 1-0.63333 0.7-0.95 1.4667-0.95 2.3-0.03333 0.96667 0.26667 1.7667 0.9 2.4 0.66667 0.66667 1.45 0.96667 2.35 0.9 0.9 0.03333 1.6667-0.28333 2.3-0.95 0.7-0.63333 1.05-1.4167 1.05-2.35m-27.35-11.35c-0.66667 0.66667-1 1.45-1 2.35 0 0.93333 0.33333 1.7167 1 2.35 0.63333 0.66667 1.4167 1 2.35 1 0.9 0 1.6667-0.33333 2.3-1 0.66667-0.63333 1-1.4167 1-2.35 0-0.9-0.33333-1.6833-1-2.35-0.63333-0.6-1.4-0.9-2.3-0.9-0.93333 0-1.7167 0.3-2.35 0.9m-5.8 5.85c0.33333-0.86667 0.33333-1.7167 0-2.55-0.33333-0.86667-0.91667-1.4667-1.75-1.8-0.83333-0.4-1.6833-0.43333-2.55-0.1-0.83333 0.33333-1.4333 0.93333-1.8 1.8-0.36667 0.8-0.4 1.6333-0.1 2.5 0.36667 0.83333 0.98333 1.4333 1.85 1.8 0.8 0.36667 1.6167 0.38333 2.45 0.05 0.86667-0.33333 1.5-0.9 1.9-1.7m23.5 0.45c0.36667-0.86667 0.4-1.7333 0.1-2.6-0.4-0.83333-1-1.4167-1.8-1.75-0.86667-0.36667-1.7-0.4-2.5-0.1-0.86667 0.33333-1.5 0.91667-1.9 1.75-0.33333 0.86667-0.35 1.7167-0.05 2.55 0.33333 0.86667 0.93333 1.4833 1.8 1.85 0.8 0.36667 1.6333 0.36667 2.5 0 0.83333-0.3 1.45-0.86667 1.85-1.7m15.7 40.4c0.4-0.86667 0.45-1.7167 0.15-2.55-0.36667-0.83333-0.96667-1.4333-1.8-1.8-0.86667-0.33333-1.7-0.36667-2.5-0.1-0.9 0.33333-1.5167 0.93333-1.85 1.8-0.36667 0.83333-0.38333 1.6667-0.05 2.5 0.3 0.83333 0.86667 1.4333 1.7 1.8 0.86667 0.36667 1.7333 0.38333 2.6 0.05 0.83333-0.3 1.4167-0.86667 1.75-1.7m1.95-11.35c0.63333-0.63333 0.95-1.4 0.95-2.3 0-0.93333-0.31667-1.7167-0.95-2.35-0.63333-0.66667-1.4167-1-2.35-1-0.9 0-1.6833 0.33333-2.35 1-0.63333 0.63333-0.95 1.4167-0.95 2.35 0 0.9 0.31667 1.6667 0.95 2.3 0.66667 0.66667 1.45 1 2.35 1 0.93333 0 1.7167-0.33333 2.35-1m-1.45-12.15c0.36667-0.76667 0.38333-1.5833 0.05-2.45-0.36667-0.83333-0.95-1.4667-1.75-1.9-0.83333-0.33333-1.6667-0.35-2.5-0.05-0.86667 0.36667-1.4833 0.95-1.85 1.75-0.36667 0.9-0.4 1.7667-0.1 2.6 0.33333 0.86667 0.93333 1.45 1.8 1.75 0.83333 0.4 1.6833 0.43333 2.55 0.1 0.83333-0.33333 1.4333-0.93333 1.8-1.8z" fill="#272727"/>
 <path d="m57.5 72.8q-0.29844-0.54141-0.85-0.9-1.05-0.7-2.25-0.45-1.25 0.25-1.9 1.3-0.35781 0.51113-0.5 1.1-0.07227 0.53887 0.05 1.15 0.25 1.2 1.3 1.9 1 0.65 2.25 0.4 1.2-0.25 1.9-1.25 0.65-1.05 0.4-2.25-0.11211-0.56055-0.4-1m-12.55-1.45q-1.25-0.3-2.3 0.3h0.05q-0.57676 0.34082-0.95 0.85-0.30723 0.45527-0.45 1.05-0.3 1.15 0.4 2.25 0.65 1.05 1.9 1.4 1.15 0.25 2.2-0.4t1.4-1.85q0.12305-0.61504 0-1.2-0.06992-0.59121-0.4-1.15v0.05q-0.65-1-1.85-1.3m17.35-3.1q-1.05 0.65-1.3 1.85-0.1041 0.65039 0 1.25 0.16426 0.54648 0.5 1.05 0.65 1 1.85 1.2 1.25 0.25 2.3-0.4 1-0.7 1.2-1.9v-0.05q0.25-1.2-0.4-2.2-0.34707-0.5207-0.85-0.85-0.46992-0.32402-1.1-0.45-1.2-0.2-2.2 0.5m9.95-6.65q-0.45371-0.30254-0.95-0.45-0.64004-0.14199-1.35 0-1.2 0.2-1.85 1.25h-0.05q-0.75 1.05-0.55 2.25v-0.05q0.16191 0.675 0.55 1.2 0.31699 0.42793 0.8 0.75 1 0.7 2.15 0.45h0.05q1.2-0.2 1.95-1.2 0.65-1.05 0.45-2.25-0.2-1.25-1.2-1.95m4.6-7.4v0.05q-0.7-1.1-1.9-1.35-0.62227-0.14941-1.2-0.1-0.57266 0.12363-1.1 0.45-1.05 0.65-1.35 1.9-0.3 1.15 0.4 2.2 0.31738 0.58203 0.8 0.95 0.46133 0.33516 1.05 0.5l-0.05-0.05q1.2 0.25 2.35-0.4 1-0.65 1.3-1.8 0.3-1.25-0.3-2.35m-39.3 13.85-0.05-0.05q-1.05-0.75-2.2-0.55h0.05q-0.6543 0.15098-1.15 0.5-0.47715 0.32852-0.8 0.85h-0.05q-0.7 1-0.45 2.15v0.05q0.2 1.2 1.25 1.95 1 0.65 2.2 0.45h0.05q1.2-0.2 1.95-1.2 0.30195-0.48789 0.4-1.05 0.13379-0.58086 0-1.25-0.2-1.2-1.2-1.85m-7.6-7.05h-0.05q-0.60644-0.09707-1.15 0-0.58516 0.13965-1.1 0.5-1.05 0.65-1.25 1.85-0.25 1.25 0.45 2.3 0.65 1 1.9 1.2 1.2 0.25 2.25-0.4 0.54316-0.38027 0.85-0.95 0.28574-0.42891 0.4-1 0.2-1.2-0.45-2.2-0.7-1.05-1.85-1.3m-1.4-6.6q-0.25-1.25-1.25-1.9-0.49297-0.32852-1.05-0.45-0.58672-0.13262-1.25 0-1.2 0.25-1.85 1.3-0.7 1-0.45 2.25 0.25 1.2 1.3 1.9 1 0.65 2.2 0.4 0.62754-0.12559 1.1-0.45 0.50137-0.30215 0.85-0.8 0.65-1.05 0.4-2.25m-0.95-12.65q-0.46504-0.30371-1.05-0.45-1.2-0.3-2.25 0.4h-0.05q-1.05 0.65-1.35 1.9-0.3 1.15 0.4 2.2 0.6 1.05 1.85 1.4 0.61289 0.12773 1.2 0 0.56191-0.08203 1.1-0.4 0.95-0.65 1.3-1.85 0.25-1.25-0.3-2.3v0.05q-0.35879-0.56387-0.85-0.95m4.85-6.4q-0.091406-0.5709-0.35-1.05-0.30664-0.51973-0.85-0.9-1.05-0.7-2.25-0.45-1.25 0.2-1.9 1.25h-0.05q-0.7 1-0.5 2.2 0.25 1.25 1.3 1.95 0.52539 0.36777 1.1 0.45 0.5041 0.11875 1.05 0h0.05q1.25-0.2 2-1.2 0.65-1.05 0.4-2.25m6.6-5.3v-0.05q0.13242-0.63594 0-1.25-0.09453-0.48008-0.4-0.95-0.75-1.05-1.95-1.3-1.25-0.2-2.25 0.5-1.05 0.65-1.25 1.85-0.25 1.25 0.45 2.25l0.05 0.05q0.32656 0.50234 0.8 0.8 0.45273 0.30039 1.05 0.4 1.25 0.25 2.3-0.4 1-0.7 1.2-1.9m34.75 12.05q-0.57578 0.11523-1.05 0.4-0.49941 0.33359-0.85 0.9-0.7 1-0.45 2.25 0.25 1.2 1.3 1.9 0.50996 0.33144 1.05 0.4 0.5875 0.12246 1.2 0 1.2-0.25 1.9-1.25 0.65-1.05 0.4-2.25-0.25-1.25-1.25-1.9-1.05-0.7-2.25-0.45m-8-15-0.05-0.05q-1-0.7-2.2-0.5-1.25 0.25-1.9 1.3h-0.05q-0.33164 0.47383-0.45 0.95-0.13144 0.59492 0 1.2v0.05q0.2 1.2 1.25 1.95 1 0.65 2.2 0.45h0.05q0.59941-0.09981 1.05-0.4 0.52461-0.29941 0.9-0.8 0.65-1.05 0.4-2.25-0.2-1.25-1.2-1.9m5.4 6.1h-0.05q-1.2-0.25-2.2 0.45v0.05q-0.48809 0.30215-0.8 0.7-0.36621 0.50801-0.5 1.15-0.2 1.25 0.5 2.3 0.65 1 1.85 1.2 0.7002 0.14004 1.35 0 0.48809-0.11406 0.95-0.4 1-0.75 1.2-1.95 0.25-1.25-0.4-2.25-0.7-1.05-1.9-1.25m-14.65-10.25q-1.25-0.3-2.35 0.35-1.05 0.6-1.3 1.8v0.05q-0.15352 0.61387-0.05 1.2 0.08242 0.53711 0.4 1.05 0.65 1.05 1.9 1.4 1.15 0.25 2.2-0.4 0.57617-0.34043 0.95-0.85 0.3334-0.42852 0.5-1h-0.05q0.25-1.2-0.4-2.25v-0.05q-0.65-1-1.8-1.3m-9.85 0.2q-1.05-0.7-2.25-0.45-1.25 0.25-1.9 1.3-0.7 1-0.45 2.25 0.12402 0.59531 0.45 1.05 0.3209 0.49727 0.85 0.85 1 0.7 2.25 0.45 1.2-0.25 1.9-1.3 0.3082-0.49785 0.4-1.05 0.13144-0.56894 0-1.2-0.25-1.25-1.25-1.9z" fill="#4d4d4d"/>
 <path d="m50 7.8q17.5 0 29.85 12.35t12.35 29.85-12.35 29.85-29.85 12.35-29.85-12.35-12.35-29.85 12.35-29.85 29.85-12.35zm0 8.15q14.2 0 24.1 10 10 9.95 10 24.05 0 14.2-10 24.1-9.9 10-24.1 10-14.1 0-24.05-10-10-9.9-10-24.1 0-14.1 10-24.05 9.95-10 24.05-10z" fill="none" stroke="#151515" stroke-linecap="round" stroke-linejoin="round" stroke-width="4"/>
</svg>
