<svg width="100px" height="100px" preserveAspectRatio="none" version="1.1" viewBox="0 0 100 100" xmlns="http://www.w3.org/2000/svg">
 <g id="Steam_Controller">
  <g>
   <path d="m87 75.55 5.95-20.4c-2.2-8.2-3.85-14.717-4.95-19.55-5.3 1.2667-10.233 1.2667-14.8 0l-54.2-13.95c-4.1-0.8-7.0167 0.86667-8.75 5-3.0333 11.6-4.3667 23.333-4 35.2 1.0333 4.3 3.4167 7.45 7.15 9.45l59.8 7.45c4.6 0.36667 9.2-0.7 13.8-3.2" fill="#464646"/>
   <path d="m21.75 32.4c-3.3667-0.53333-5.3833 0.9-6.05 4.3-1.5 7.5333-2.1667 15.55-2 24.05 0.46667 1.3667 1.2167 2.4667 2.25 3.3l57.85 7.25c6.1333-6.7 7.3833-15.7 3.75-27l-55.8-11.9" fill="#585858"/>
   <path d="m26.3 40.85-3.9-0.6v17.7l11.1 1.6v-3.6l-7.2-1v-14.1m18.3 2.75q-1.15-0.25-2.3-0.45l-6.6-0.95v17.7l7.25 1.05q1.15 0.15 2.35 0.1 1.2-0.1 2.15-0.5 0.95-0.5 1.55-1.3 0.6-0.9 0.6-2.25 0-0.85-0.3-1.65-0.25-0.8-0.8-1.45-0.5-0.65-1.2-1.1t-1.55-0.7v-0.05q1.35-0.25 2.2-1.1 0.8-0.9 0.8-2.4 0-1.45-0.55-2.4-0.6-0.9-1.5-1.55-0.9-0.6-2.1-1m-1.4 3.05q0.45 0.15 0.8 0.4 0.4 0.25 0.65 0.65 0.2 0.45 0.2 1t-0.2 0.8q-0.2 0.4-0.55 0.55-0.35 0.2-0.8 0.2-0.45 0.05-0.9 0l-2.8-0.4v-3.8l2.65 0.4q0.45 0.05 0.95 0.2m-3.6 10.5v-4l2.95 0.45q0.45 0.05 1 0.2 0.55 0.1 1.05 0.4 0.45 0.3 0.75 0.7 0.35 0.4 0.35 1.05 0 0.55-0.25 0.95-0.25 0.35-0.6 0.6-0.4 0.15-0.85 0.2t-0.9-0.05l-3.5-0.5z" fill="#9A9A9A"/>
  </g>
  <path d="m87 75.55 5.95-20.4q-3.3-12.3-4.95-19.55-7.95 1.9-14.8 0l-54.2-13.95q-6.15-1.2-8.75 5-4.55 17.4-4 35.2 1.55 6.45 7.15 9.45l59.8 7.45q6.9 0.55 13.8-3.2z" fill="none" stroke="#2A2A2A" stroke-linecap="round" stroke-linejoin="round" stroke-width="5"/>
  <path d="m21.75 32.4q-5.05-0.8-6.05 4.3-2.25 11.3-2 24.05 0.7 2.05 2.25 3.3l57.85 7.25q9.2-10.05 3.75-27l-55.8-11.9z" fill="none" stroke="#666" stroke-linecap="round" stroke-linejoin="round" stroke-width="4"/>
 </g>
</svg>
