<svg width="100px" height="100px" preserveAspectRatio="none" version="1.1" viewBox="0 0 100 100" xmlns="http://www.w3.org/2000/svg">
 <g id="Steam_Controller">
  <g>
   <path d="m86.85 40.25v-0.2c0.36667-6.8333-2.5167-11.333-8.65-13.5l-58.6-10.1c-3.2667 0.53333-5.3 2.3-6.1 5.3 0.36667 16.133 1.75 29.917 4.15 41.35 2.4667 11.4 9.3167 18.317 20.55 20.75 11.2 2.4667 20.7 1.8833 28.5-1.75 1.4-0.9 2.7333-1.8167 4-2.75 5.1-4.0667 8.7833-9.0167 11.05-14.85 0.33333-1 0.61667-2 0.85-3 0.76667-3.0667 1.5-6.1 2.2-9.1 0.46667-2.0333 0.86667-4.05 1.2-6.05 0.33333-2.0667 0.61667-4.1 0.85-6.1" fill="#464646"/>
   <path d="m24 61.35c0.9 6.7 4.1 11.383 9.6 14.05 5.5333 2.6333 12.333 0.98333 20.4-4.95 8.9667-9.2 14.167-21.717 15.6-37.55l-49.2-8.75c-0.13333 12.4 1.0667 24.8 3.6 37.2" fill="#585858"/>
   <path d="m33.8 48.85v-14.95l-4.15-0.65v18.8l11.8 1.8v-3.85l-7.65-1.15m7.9-10 5.35 0.8v15.1l4.15 0.6v-15.1l5.35 0.85v-3.65l-14.85-2.25v3.65z" fill="#9A9A9A"/>
  </g>
  <path d="m66.7 82.1q2.1-1.35 4-2.75 7.65-6.1 11.05-14.85 0.5-1.5 0.85-3 1.15-4.6 2.2-9.1 0.7-3.05 1.2-6.05 0.5-3.1 0.85-6.1 0-0.05 0-0.2 0.55-10.25-8.65-13.5l-58.6-10.1q-4.9 0.8-6.1 5.3 0.55 24.2 4.15 41.35 3.7 17.1 20.55 20.75 16.8 3.7 28.5-1.75z" fill="none" stroke="#2A2A2A" stroke-linecap="round" stroke-linejoin="round" stroke-width="5"/>
  <path d="m24 61.35q1.35 10.05 9.6 14.05 8.3 3.95 20.4-4.95 13.45-13.8 15.6-37.55l-49.2-8.75q-0.2 18.6 3.6 37.2z" fill="none" stroke="#666" stroke-linecap="round" stroke-linejoin="round" stroke-width="4"/>
 </g>
</svg>
