<?xml version="1.0" encoding="UTF-8"?>
<svg preserveAspectRatio="none" version="1.1" viewBox="0 0 100 100" xml:space="preserve" xmlns="http://www.w3.org/2000/svg"><defs><linearGradient id="a" x1="30.775" x2="67.225" y1="47.112" y2="56.888" gradientTransform="matrix(-1 0 0 1 102.85 0)" gradientUnits="userSpaceOnUse"><stop stop-color="#666" offset=".10196"/><stop stop-color="#585858" offset="1"/></linearGradient></defs><path d="m18.646 13.45c84.2-15.45 84.2-15.45 0 0zm-0.05 3.95c-0.63667-3.9945 4.5098-1.9281 6.6606-1.9594 3.261 0.9725 7.0493 2.153 10.039 2.7594 4.1998 0.73446 8.4991 1.4178 12.738 0.66201 2.8613-0.481 5.5801 2.7972 7.2247 5.0034 11.346 11.995 21.223 27.095 25.895 42.9 1.4509 5.2734 0.56991 13.369-2.3191 18.359-2.4872 2.716-6.4614 3.4241-9.995 3.3786-6.1514-0.073976-12.179-1.7692-17.993-3.6531-4.9041-2.088-9.9562-3.8308-14.789-6.0644l-17.311-59.236c-0.08387-0.71376-0.13496-1.4315-0.15-2.15z" fill="url(#a)"/><path d="m19.546 24c-0.5756-2.2534-1.7047-5.7038 1.6232-3.6794 7.7555 2.4584 15.668 5.0261 23.9 4.9101 2.8648-0.71964 5.7519-0.60968 7.606 2.32 10.533 11.408 18.183 25.404 22.61 40.258 1.1185 4.122 2.1331 8.7538 0.46121 12.692-2.2565 2.1833-5.7574 2.0581-8.7066 1.9635-6.6622-0.66857-13.482-2.6274-19.393-5.2135-3.9013-1.657-7.961-2.929-12-4.2-1.362-1.1021-2.914-0.86642-2.8926-3.1594-4.4106-15.294-8.8037-30.594-13.207-45.891z" fill="#585858"/><path d="m19.196 15.55c-1.1332-1.3336 0.51579-6.1216 2.2281-6.6964 6.3927 3.6479 13.401 6.3779 20.823 6.7667 4.5986 0.32049 10.053-1.5861 13.899 1.9297 7.1067 6.0962 12.162 14.157 17.106 22.009 6.077 10.407 10.798 21.784 12.844 33.691 0.81601 6.6351-1.5856 14.475-8.1 17.4-8.3618 2.9484-17.406 0.7541-25.648-1.5174-5.6138-2.0764-12.186-3.4949-15.937-8.5643-1.9165-2.0727-2.0815-5.5275 1.2847-3.0183 7.0906 2.7594 14.004 6.0997 21.486 7.6783 5.8584 1.2349 12.435 2.4495 17.954-0.63171 3.2456-2.0839 3.5076-6.4573 3.4949-9.9622-1.2023-10.421-5.5803-20.181-10.422-29.38-4.8338-8.7323-10.695-17.033-18.063-23.804-3.7063-1.4707-7.6484 0.4276-11.455-0.46256-3.6403-0.39466-6.6058-0.90724-10.081-1.9681-3.8264-1.0832-7.6232-2.2678-11.414-3.4693z" fill="#464646"/><path d="m18.746 19.575c-0.15606-1.368-0.20637-2.7512-0.1-4.125m16.075 61.3c-0.43667-1.5072-0.91429-3.0049-1.3-4.525m-14.775-56.775c0.31142-2.1832 1.0113-8.309 4.0119-5.9321 7.8568 4.4105 17.012 7.074 26.051 5.8258 3.4326-0.23144 6.7952 1.0332 9.0742 3.6438 6.7922 6.6126 11.975 14.703 16.769 22.827 5.4093 9.7915 9.6642 20.381 11.544 31.435 0.86542 6.8443-1.8176 15.123-8.8039 17.65-8.4622 2.6085-17.451 0.35924-25.696-2-6.4485-2.405-15.08-4.3712-16.875-12.15m-1.3-4.525c-4.6935-16.465-9.5499-32.887-14.141-49.378-0.23166-1.0809-0.41586-2.1725-0.53408-3.2717" fill="none" stroke="#2a2a2a" stroke-linecap="round" stroke-linejoin="round" stroke-width="5"/><path d="m58.65 51.9q-0.9-0.65-2.15-0.9-1.2-0.25-2.55-0.25h-6.85v17.7h3.9v-7.1h1.9l3.7 7.1h4.7l-4.5-7.5q1.85-0.3 2.85-1.65 0.95-1.3 0.95-3.2 0-1.55-0.5-2.55-0.55-1.05-1.45-1.65m-4 2.2q0.5 0.1 0.95 0.3 0.4 0.2 0.7 0.6 0.25 0.45 0.25 1.1 0 0.75-0.3 1.1-0.3 0.4-0.8 0.6-0.45 0.2-1.05 0.25-0.6 0-1.1 0h-2.3v-4h2.55q0.55 0 1.1 0.05z" fill="#8f8f8f"/></svg>
