<?xml version="1.0" encoding="UTF-8"?>
<svg preserveAspectRatio="none" version="1.1" viewBox="0 0 100 100" xmlns="http://www.w3.org/2000/svg">
<defs>
<linearGradient id="a" x1="50" x2="50" y1="10.412" y2="89.588" gradientUnits="userSpaceOnUse">
<stop stop-color="#373737" offset="0"/>
<stop stop-color="#575757" offset="1"/>
</linearGradient>
</defs>
<path d="m83.8 83.8c9.2667-9.3333 13.9-20.6 13.9-33.8s-4.6333-24.433-13.9-33.7c-9.3333-9.3333-20.6-14-33.8-14s-24.433 4.6667-33.7 14c-9.3333 9.2667-14 20.5-14 33.7s4.6667 24.467 14 33.8c9.2667 9.2667 20.5 13.9 33.7 13.9s24.467-4.6333 33.8-13.9" fill="#2a2a2a"/>
<path d="m80 20.05c-8.3-8.2667-18.3-12.4-30-12.4s-21.683 4.1333-29.95 12.4-12.4 18.25-12.4 29.95 4.1333 21.7 12.4 30c8.2667 8.2333 18.25 12.35 29.95 12.35s21.7-4.1167 30-12.35c8.2333-8.3 12.35-18.3 12.35-30s-4.1167-21.683-12.35-29.95" fill="#464646"/>
<path d="m89.6 50.1q0-0.05 0-0.1 0-16.35-11.6-27.95-11.6-11.65-28-11.65-16.3 0-27.9 11.65-11.7 11.6-11.7 27.95 0 0.05 0 0.1v0.4q0 0.2 0 0.4 0.35 15.8 11.7 27.1 11.6 11.6 27.9 11.6 16.4 0 28-11.6 11.25-11.3 11.6-27.1v-0.8z" fill="url(#a)"/>
</svg>
