<?xml version="1.0" encoding="UTF-8"?>
<svg preserveAspectRatio="none" version="1.1" viewBox="0 0 100 100" xmlns="http://www.w3.org/2000/svg">
<path d="m85.8 71.3c3.7333-2 6.1167-5.15 7.15-9.45 0.36667-11.867-0.96667-23.6-4-35.2-1.7333-4.1333-4.65-5.8-8.75-5l-54.2 13.95c-4.5667 1.2667-9.5 1.2667-14.8 0-1.1 4.8333-2.75 11.35-4.95 19.55l5.95 20.4c4.6 2.5 9.2 3.5667 13.8 3.2l59.8-7.45" fill="#464646"/>
<path d="m83.2 64.05c1.0747-0.8388 1.8247-1.9555 2.25-3.35 0.21523-8.4811-0.43477-16.481-1.95-24-0.6599-3.397-2.6766-4.8303-6.05-4.3l-55.8 11.9c-3.6348 11.292-2.3848 20.276 3.75 26.95l57.8-7.2" fill="#585858"/>
<path d="m73.7 41.05q-1.15 0-2.3 0.15l-6.6 1v17.7l7.25-1.05q1.15-0.2 2.35-0.6 1.2-0.45 2.15-1.15t1.55-1.75q0.6-1.1 0.6-2.45 0-0.85-0.3-1.55-0.25-0.75-0.8-1.25-0.5-0.45-1.2-0.7-0.7-0.2-1.55-0.25v-0.05q1.35-0.6 2.2-1.75 0.8-1.1 0.8-2.6 0-1.45-0.55-2.25-0.6-0.75-1.5-1.15-0.9-0.3-2.1-0.3m-5 7.65v-3.8l2.65-0.35q0.45-0.1 0.95-0.1 0.45 0.05 0.8 0.15 0.4 0.15 0.65 0.5 0.2 0.3 0.2 0.85t-0.2 0.95q-0.2 0.45-0.55 0.7-0.35 0.3-0.8 0.45-0.45 0.2-0.9 0.25l-2.8 0.4m5.25 6.1q-0.4 0.3-0.85 0.45-0.45 0.2-0.9 0.2l-3.5 0.55v-4l2.95-0.45q0.45 0 1-0.05t1.05 0.15q0.45 0.1 0.75 0.45 0.35 0.3 0.35 0.95 0 0.55-0.25 0.95-0.25 0.5-0.6 0.8m-18.5-11.2-6.85 1.05v17.7l3.9-0.6v-7.1l1.9-0.25 3.7 6.55 4.7-0.7-4.5-6.85q1.85-0.6 2.85-2.05 0.95-1.45 0.95-3.35 0-1.55-0.5-2.5-0.55-0.95-1.45-1.45t-2.15-0.55q-1.2-0.1-2.55 0.1m2.35 3.9q0.25 0.45 0.25 1.1 0 0.75-0.3 1.1-0.3 0.5-0.8 0.75-0.45 0.3-1.05 0.45-0.6 0.05-1.1 0.1l-2.3 0.35v-4l2.55-0.35q0.55-0.1 1.1-0.15 0.5 0.05 0.95 0.2 0.4 0.1 0.7 0.45z" fill="#9a9a9a"/>
<path d="m92.95 61.85q-1.55 6.45-7.15 9.45l-59.8 7.45q-6.9 0.55-13.8-3.2l-5.95-20.4q3.3-12.3 4.95-19.55 7.95 1.9 14.8 0l54.2-13.95q6.15-1.2 8.75 5 4.55 17.4 4 35.2z" fill="none" stroke="#2A2A2A" stroke-linecap="round" stroke-linejoin="round" stroke-width="5"/>
<path d="m25.4 71.275q-9.2021-10.036-3.75-26.975l55.8-11.9q5.0602-0.79551 6.05 4.3 2.2729 11.278 1.975 24.025-0.66289 2.0668-2.25 3.325l-57.825 7.225v0.025l-0.075-0.025q0.04316 2e-3 0.075 0z" fill="none" stroke="#666" stroke-linecap="round" stroke-linejoin="round" stroke-width="4"/>
</svg>
