<svg width="100px" height="100px" preserveAspectRatio="none" version="1.1" viewBox="0 0 100 100" xmlns="http://www.w3.org/2000/svg">
 <g id="Steam_Controller">
  <g>
   <path d="m82.75 63.1c2.4-11.433 3.7833-25.217 4.15-41.35-0.8-3-2.8333-4.7667-6.1-5.3l-58.6 10.1c-6.1333 2.1667-9.0167 6.6667-8.65 13.5v0.2c0.23333 2 0.51667 4.0333 0.85 6.1 0.33333 2 0.73333 4.0167 1.2 6.05 0.7 3 1.4333 6.0333 2.2 9.1 0.23333 1 0.51667 2 0.85 3 2.2667 5.8333 5.95 10.783 11.05 14.85 1.2667 0.93333 2.6 1.85 4 2.75 7.8 3.6333 17.3 4.2167 28.5 1.75 11.233-2.4333 18.083-9.35 20.55-20.75" fill="#464646"/>
   <path d="m46.4 70.45c8.0667 5.9333 14.867 7.5833 20.4 4.95 5.5-2.6667 8.7-7.35 9.6-14.05 2.5333-12.4 3.7333-24.8 3.6-37.2l-49.2 8.75c1.4333 15.833 6.6333 28.35 15.6 37.55" fill="#585858"/>
   <path d="m59.8 34.8v3.65l5.4-0.95v15.2l4.15-0.75v-15.2l5.4-1v-3.65l-14.95 2.7m-3.75 1.9q-0.95-0.45-2.3-0.5-1.3-0.05-2.7 0.2l-7.3 1.35v18.85l4.15-0.75v-7.55l2-0.4 3.95 6.9 5-1-4.8-7.05q2-0.7 3.05-2.35 1-1.55 1-3.6 0-1.65-0.5-2.6-0.6-1-1.55-1.5m-8.15 8.05v-4.25l2.7-0.5q0.6-0.1 1.2-0.15 0.5 0 1 0.1 0.4 0.15 0.75 0.55 0.25 0.4 0.25 1.1 0 0.8-0.3 1.25-0.35 0.45-0.85 0.8-0.5 0.3-1.15 0.45t-1.15 0.25l-2.45 0.4z" fill="#9A9A9A"/>
  </g>
  <path d="m86.9 21.75q-0.55 24.2-4.15 41.35-3.7 17.1-20.55 20.75-16.8 3.7-28.5-1.75-2.1-1.35-4-2.75-7.65-6.1-11.05-14.85-0.5-1.5-0.85-3-1.15-4.6-2.2-9.1-0.7-3.05-1.2-6.05-0.5-3.1-0.85-6.1 0-0.05 0-0.2-0.55-10.25 8.65-13.5l58.6-10.1q4.9 0.8 6.1 5.3z" fill="none" stroke="#2A2A2A" stroke-linecap="round" stroke-linejoin="round" stroke-width="5"/>
  <path d="m76.4 61.35q-1.35 10.05-9.6 14.05-8.3 3.95-20.4-4.95-13.45-13.8-15.6-37.55l49.2-8.75q0.2 18.6-3.6 37.2z" fill="none" stroke="#666" stroke-linecap="round" stroke-linejoin="round" stroke-width="4"/>
 </g>
</svg>
