<svg width="100px" height="100px" preserveAspectRatio="none" version="1.1" viewBox="0 0 100 100" xmlns="http://www.w3.org/2000/svg">
 <g id="Steam_Controller">
  <g>
   <path d="m93.05 46.85c0-6.9333-2.45-12.833-7.35-17.7-4.8667-4.9-10.783-7.35-17.75-7.35h-35.95c-6.9333 0-12.833 2.45-17.7 7.35-4.9 4.8667-7.35 10.767-7.35 17.7v6.35c0.033333 6.9 2.4833 12.783 7.35 17.65 4.8667 4.9 10.767 7.35 17.7 7.35h35.95c5.4 0 10.2-1.5 14.4-4.5 1.1667-0.83333 2.2833-1.7833 3.35-2.85 4.8667-4.8667 7.3167-10.75 7.35-17.65v-6.35" fill="#313131"/>
   <path d="m82.55 53.2v-6.35c0-4.0333-1.4167-7.4667-4.25-10.3s-6.2833-4.25-10.35-4.25h-35.95c-4.0333 0-7.4667 1.4167-10.3 4.25s-4.25 6.2667-4.25 10.3v6.35c0.03333 4.0333 1.45 7.45 4.25 10.25 2.8333 2.8333 6.2667 4.25 10.3 4.25h35.95c4.0667 0 7.5167-1.4167 10.35-4.25 2.8-2.8 4.2167-6.2167 4.25-10.25" fill="#4f4f4f"/>
   <path d="m39.6 39v22l24.25-11-24.25-11z" fill="#9A9A9A"/>
  </g>
  <path d="m67.95 32.3q6.1 0 10.35 4.25t4.25 10.3q0 0.05 0 6.35-0.05 6.05-4.25 10.25-4.25 4.25-10.35 4.25h-35.95q-6.05 0-10.3-4.25-4.2-4.2-4.25-10.25 0-6.3 0-6.35 0-6.05 4.25-10.3t10.3-4.25h35.95z" fill="none" stroke="#626262" stroke-linecap="round" stroke-linejoin="round" stroke-width="4"/>
  <path d="m67.95 21.8q10.45 0 17.75 7.35 7.35 7.3 7.35 17.7 0 0.05 0 6.35-0.05 10.35-7.35 17.65-1.6 1.6-3.35 2.85-6.3 4.5-14.4 4.5h-35.95q-10.4 0-17.7-7.35-7.3-7.3-7.35-17.65 0-6.3 0-6.35 0-10.4 7.35-17.7 7.3-7.35 17.7-7.35h35.95z" fill="none" stroke="#202020" stroke-linecap="round" stroke-linejoin="round" stroke-width="4"/>
 </g>
</svg>
