<?xml version="1.0" encoding="UTF-8" standalone="no"?>
<svg
   width="64"
   height="64"
   version="1.1"
   id="svg175841"
   xmlns="http://www.w3.org/2000/svg"
   xmlns:svg="http://www.w3.org/2000/svg">
  <defs
     id="defs175835" />
  <g
     id="g175839"
     transform="matrix(1.2,0,0,1.2,-6.4,-6.4)">
    <path
       stroke="none"
       fill="#ffffff"
       d="m 22.9,22 h 18.2 q 4.5,0 7.7,2.9 3.2,2.95 3.2,7.1 0,4.1 -3.2,7.05 Q 45.6,42 41.1,42 H 22.9 Q 18.4,42 15.2,39.05 12,36.1 12,32 12,27.85 15.2,24.9 18.4,22 22.9,22 m 3.1,5 v 2 H 38 V 27 H 26 m 0,8 v 2 H 38 V 35 H 26 m 0,-4 v 2 H 38 V 31 H 26"
       id="path175837" />
  </g>
</svg>
