
<svg xmlns="http://www.w3.org/2000/svg" version="1.1" xmlns:xlink="http://www.w3.org/1999/xlink" preserveAspectRatio="none" x="0px" y="0px" width="100px" height="100px" viewBox="0 0 100 100">
<defs/>

<g id="Luna">
<g>
<g>
<g>
<path fill="#313131" stroke="none" d="
M 75.25 24.7
Q 64.85 14.3 50 14.3 35.2 14.3 24.75 24.7 14.3 35.15 14.3 50 14.3 64.8 24.75 75.25 35.2 85.7 50 85.7 64.85 85.7 75.25 75.25 85.7 64.8 85.7 50 85.7 35.15 75.25 24.7
M 50 22.8
Q 61.3 22.8 69.25 30.75 77.2 38.7 77.2 50 77.2 61.3 69.25 69.25 61.3 77.2 50 77.2 38.75 77.2 30.75 69.25 22.8 61.3 22.8 50 22.8 38.7 30.75 30.75 38.75 22.8 50 22.8 Z"/>

<path fill="#4F4F4F" stroke="none" d="
M 69.25 30.75
Q 61.3 22.8 50 22.8 38.75 22.8 30.75 30.75 22.8 38.7 22.8 50 22.8 61.3 30.75 69.25 38.75 77.2 50 77.2 61.3 77.2 69.25 69.25 77.2 61.3 77.2 50 77.2 38.7 69.25 30.75
M 50 35.55
Q 56 35.55 60.2 39.75 64.45 44 64.45 50 64.45 56 60.2 60.2 56 64.45 50 64.45 44 64.45 39.75 60.2 35.55 56 35.55 50 35.55 44 39.75 39.75 44 35.55 50 35.55
M 60.2 39.75
Q 56 35.55 50 35.55 44 35.55 39.75 39.75 35.55 44 35.55 50 35.55 56 39.75 60.2 44 64.45 50 64.45 56 64.45 60.2 60.2 64.45 56 64.45 50 64.45 44 60.2 39.75 Z"/>
</g>
</g>

<g>
<path stroke="#626262" stroke-width="4" stroke-linejoin="round" stroke-linecap="round" fill="none" d="
M 50 22.8
Q 61.3 22.8 69.25 30.75 77.2 38.7 77.2 50 77.2 61.3 69.25 69.25 61.3 77.2 50 77.2 38.75 77.2 30.75 69.25 22.8 61.3 22.8 50 22.8 38.7 30.75 30.75 38.75 22.8 50 22.8 Z"/>
</g>

<g>
<path stroke="#1B1B1B" stroke-width="5" stroke-linejoin="round" stroke-linecap="round" fill="none" d="
M 50 14.3
Q 64.85 14.3 75.25 24.7 85.7 35.15 85.7 50 85.7 64.8 75.25 75.25 64.85 85.7 50 85.7 35.2 85.7 24.75 75.25 14.3 64.8 14.3 50 14.3 35.15 24.75 24.7 35.2 14.3 50 14.3 Z"/>
</g>

<g>
<path stroke="#999999" stroke-width="4" stroke-linejoin="round" stroke-linecap="round" fill="none" d="
M 50 35.55
Q 56 35.55 60.2 39.75 64.45 44 64.45 50 64.45 56 60.2 60.2 56 64.45 50 64.45 44 64.45 39.75 60.2 35.55 56 35.55 50 35.55 44 39.75 39.75 44 35.55 50 35.55 Z"/>
</g>
</g>
</g>
</svg>
