<?xml version="1.0" encoding="UTF-8"?>
<svg preserveAspectRatio="none" version="1.1" viewBox="0 0 100 100" xmlns="http://www.w3.org/2000/svg">
<defs>
<linearGradient id="d" x1="27.5" x2="38" y1="51" y2="51" gradientUnits="userSpaceOnUse">
<stop stop-color="#D7D7D7" offset="0"/>
<stop stop-color="#313131" offset="1"/>
</linearGradient>
<linearGradient id="c" x1="42.488" x2="29.012" y1="51" y2="51" gradientUnits="userSpaceOnUse">
<stop stop-color="#4F4F4F" offset="0"/>
<stop stop-color="#F5F5F5" offset="1"/>
</linearGradient>
<linearGradient id="b" x1="32.262" x2="40.238" y1="50.5" y2="50.5" gradientUnits="userSpaceOnUse">
<stop stop-color="#fff" offset="0"/>
<stop stop-color="#626262" offset="1"/>
</linearGradient>
<linearGradient id="a" x1="20.512" x2="32.488" y1="51" y2="51" gradientUnits="userSpaceOnUse">
<stop stop-color="#404040" offset="0"/>
<stop stop-color="#1B1B1B" offset="1"/>
</linearGradient>
</defs>
<path d="m92.85 40.2c-0.46667-2.8333-2.25-4.6167-5.35-5.35h-22.35v-22.35c-0.66667-3.1667-2.45-4.95-5.35-5.35h-19.6c-2.8333 0.46667-4.6167 2.25-5.35 5.35v22.35h-22.35c-3.1 0.73333-4.8833 2.5167-5.35 5.35v19.6c0.4 2.9 2.1833 4.6833 5.35 5.35h22.35v22.35c0.73333 3.1 2.5167 4.8833 5.35 5.35h19.6c2.9-0.4 4.6833-2.1833 5.35-5.35v-22.35h22.35c3.1667-0.66667 4.95-2.45 5.35-5.35v-19.6" fill="url(#d)"/>
<path d="m85.35 57.65v-15.3h-20.2q-3.1 0-5.3-2.2t-2.2-5.3v-20.2h-15.3v20.2q0 3.1-2.2 5.3t-5.3 2.2h-20.2v15.3h20.2q3.1 0 5.3 2.2t2.2 5.3v20.2h15.3v-20.2q0-3.1 2.2-5.3t5.3-2.2h20.2m-35.35-35.75v8.35-8.35m-28.35 28.1h8.35-8.35m47.9 0h8.35-8.35m-19.55 19.8v8.35-8.35z" fill="url(#c)"/>
<path d="m34.85 34.85v-22.35q1.1-4.65 5.35-5.35h19.6q4.35 0.6 5.35 5.35v22.35h22.35q4.65 1.1 5.35 5.35v19.6q-0.6 4.35-5.35 5.35h-22.35v22.35q-1 4.75-5.35 5.35h-19.6q-4.25-0.7-5.35-5.35v-22.35" fill="none" stroke="#1B1B1B" stroke-linecap="round" stroke-linejoin="round" stroke-width="5"/>
<path d="m85.35 42.35v15.3h-20.2q-3.1 0-5.3 2.2t-2.2 5.3v20.2h-15.3v-20.2q0-3.1-2.2-5.3t-5.3-2.2h-20.2v-15.3h20.2q3.1 0 5.3-2.2t2.2-5.3v-20.2h15.3v20.2q0 3.1 2.2 5.3t5.3 2.2h20.2z" fill="none" stroke="url(#b)" stroke-linecap="round" stroke-linejoin="round" stroke-width="4"/>
<path d="m34.85 65.15h-22.35q-4.75-1-5.35-5.35v-19.6q0.7-4.25 5.35-5.35h22.35" fill="none" stroke="url(#a)" stroke-linecap="round" stroke-linejoin="round" stroke-width="5"/>
<path d="m50 21.9v8.35m19.55 19.75h8.35m-27.9 19.8v8.35" fill="none" stroke="#313131" stroke-linecap="round" stroke-linejoin="round" stroke-width="5"/>
<path d="m21.65 50h8.35" fill="none" stroke="#fff" stroke-linecap="round" stroke-linejoin="round" stroke-width="5"/>
</svg>
