<svg width="100px" height="100px" preserveAspectRatio="none" version="1.1" viewBox="0 0 100 100" xmlns="http://www.w3.org/2000/svg">
 <circle cx="50" cy="50" r="44" fill="#1b1b1b"/>
 <circle cx="50" cy="50" r="41" fill="#8336ff"/>
 <circle cx="50" cy="50" r="38" fill="#313131"/>
 <circle cx="50" cy="50" r="34" fill="#626262"/>
 <circle cx="50" cy="50" r="29" fill="#4f4f4f"/>
 <path d="m66.109 53.421c-2.4335-1.0034-5.1163-1.9546-6.6437-4.2621-1.4229-2.2678-2.7604-4.6544-4.083-7.0123-1.2132-2.7081-0.76654-5.735-0.67876-8.5899-0.24347-3.5243-4.1551-6.1092-7.4931-4.9456-2.7927 0.80442-4.5809 3.8872-3.9723 6.7166 0.26025 2.8822 0.0877 6.0005-1.6569 8.4348-2.1779 3.6162-4.0559 7.4226-6.4814 10.883-0.97624 1.485-2.6912 2.1418-3.9363 3.3191-2.0275 2.1218-0.72156 6.0826 2.1864 6.5556 2.3251 0.31692 4.4014-1.1989 6.6768-1.4682 4.0318-0.61739 8.2287-0.78306 12.232 0.12697 2.343 0.53771 4.5424 1.5993 6.4365 3.0741 3.6066 2.2357 8.8518 0.54037 10.469-3.3829 1.5803-3.3521 0.18561-7.6532-3.0558-9.4494zm-8.3135 3.7486c-0.94729 1.9334-3.2654 2.1011-5.1522 2.1718-3.3901 0.13848-6.8324 0.25049-10.186-0.32808-2.5279-0.56946-3.7007-3.7639-2.4022-5.9356 1.7632-3.5668 3.5909-7.1784 6.172-10.231 1.6586-1.7082 4.7811-1.2445 6.0343 0.73878 2.3046 3.1052 4.1251 6.5542 5.7745 10.043 0.48057 1.1426 0.41858 2.4794-0.23996 3.5406z" fill="#999"/>
</svg>
