<?xml version="1.0" encoding="UTF-8"?>
<svg preserveAspectRatio="none" version="1.1" viewBox="0 0 100 100" xmlns="http://www.w3.org/2000/svg">
<g transform="matrix(-1 0 0 1 100.04 0)">
<path d="m90.05 58.1c3.5333-11.667 2.7-21.967-2.5-30.9-2.2667-3.9-5.85-5.85-10.75-5.85-15.633 4.3333-35.5 7.4-59.6 9.2-6.8 0.9-9.8833 5-9.25 12.3 0.36667 4.4 0.55 13.233 0.55 26.5 0.46667 6.5333 3.7167 9.6167 9.75 9.25 23.333-1.6667 43.917-4.8 61.75-9.4 5.1-2.1 8.45-5.8 10.05-11.1" fill="#313131"/>
<path d="m77.892 30.038s-30.732 7.6646-57.794 9.0583l0.5 30.931s19.276 0.98308 58.882-9.0053c8.5229-13.749 3.9981-23.636-1.5877-30.984z" fill="#4f4f4f"/>
<path transform="matrix(-1 0 0 1 100.04 0)" d="m40.25 42.2-2.85-0.45v14.85l8.2 1.3v-3l-5.35-0.85v-11.85m13.4 2.3q-0.85-0.25-1.7-0.4l-4.85-0.8v14.85l5.35 0.9q0.85 0.15 1.75 0.05 0.8-0.05 1.5-0.45 0.7-0.35 1.15-1.05 0.5-0.7 0.5-1.9 0-0.7-0.2-1.4-0.25-0.65-0.6-1.2-0.4-0.5-0.9-0.9-0.55-0.4-1.15-0.6v-0.05q1-0.15 1.6-0.9 0.65-0.7 0.65-2 0-1.2-0.45-2.05-0.4-0.75-1.1-1.3-0.65-0.5-1.55-0.8m0.2 4.2q0 0.45-0.15 0.75t-0.45 0.4q-0.25 0.2-0.55 0.25t-0.65-0.05l-2.05-0.3v-3.2l1.9 0.3q0.35 0.05 0.7 0.15 0.35 0.15 0.6 0.35 0.3 0.25 0.45 0.6 0.2 0.3 0.2 0.75m-1.7 4.15q0.35 0.05 0.7 0.15 0.45 0.15 0.8 0.4 0.35 0.2 0.6 0.6 0.2 0.3 0.2 0.85 0 0.45-0.15 0.8-0.2 0.3-0.45 0.45-0.3 0.15-0.65 0.2t-0.7 0l-2.5-0.4v-3.4l2.15 0.35z" fill="#999"/>
<path d="m20.25 68.75-0.5-26.75c-0.03333-1.7333 0.8-2.7167 2.5-2.95 22.367-1.7667 40.933-4.8 55.7-9.1 1.9975 2.1252 3.3756 4.6941 4.35 7.45 1.2667 3.4 1.6333 7.3833 1.1 11.95-0.75494 6.417-2.6948 10.7-5.25 11.6-16.3 4.4667-35.033 7.5-56.2 9.1-1.0882 0.04106-1.5768-0.5814-1.7-1.3z" fill="none" stroke="#626262" stroke-linecap="round" stroke-linejoin="round" stroke-width="4"/>
<path d="m76.8 21.35q7.35 0 10.75 5.85 7.8 13.4 2.5 30.9-2.4 7.95-10.05 11.1-26.75 6.9-61.75 9.4-9.05 0.55-9.75-9.25 0-19.9-0.55-26.5-0.95-10.95 9.25-12.3 36.15-2.7 59.6-9.2z" fill="none" stroke="#1b1b1b" stroke-linecap="round" stroke-linejoin="round" stroke-width="5"/>
</g>
</svg>
