<svg width="100" height="100" preserveAspectRatio="xMinYMin meet" version="1.1" viewBox="0 0 100 100" xmlns="http://www.w3.org/2000/svg">
 <defs>
  <radialGradient id="gradient0" cx="0" cy="0" r="819.2" gradientTransform="matrix(.040039 0 0 .040039 50 50.05)" gradientUnits="userSpaceOnUse">
   <stop stop-color="#6c6c6c" offset=".83137"/>
   <stop stop-color="#151515" offset=".97647"/>
  </radialGradient>
 </defs>
 <circle cx="49.942" cy="50.174" r="35.308" fill="#3c3c3c" stroke-width="2" style="paint-order:markers fill stroke"/>
 <g>
  <path d="m82.15 52.5h-4.3c-0.2 2.1333-0.6 4.1833-1.2 6.15l4 1.65c-0.53333 1.6-1.1833 3.1333-1.95 4.6l-3.95-1.65-3.25 4.75 3 3-1.7 1.8-1.85 1.75-3-3-5.15 3.4 1.6 4c-1.5 0.76667-3.0333 1.4-4.6 1.9l-1.65-4.05-5.65 1.05v4.35l-2.5 0.05-2.5-0.05v-4.35c-2.1333-0.2-4.1667-0.61667-6.1-1.25l-1.7 4.1c-1.6-0.53333-3.1333-1.1833-4.6-1.95l1.7-4.05c-1.6333-0.9-3.1667-1.9667-4.6-3.2l-3.15 3.05-1.85-1.75-1.65-1.8 3.1-3.05c-1.4-1.6333-2.5667-3.3667-3.5-5.2l-4.05 1.65c-0.76667-1.5-1.3833-3.0333-1.85-4.6l4.1-1.65c-0.56667-1.8333-0.91667-3.7167-1.05-5.65h-4.4l-0.1-2.5 0.1-2.5h4.4c0.16667-2.1 0.56667-4.1 1.2-6l-4.15-1.75c0.53333-1.6 1.1833-3.1333 1.95-4.6l4.15 1.75c0.83333-1.6333 1.9-3.1833 3.2-4.65l-3.15-3.15 1.7-1.85 1.85-1.7 3.15 3.15c1.5667-1.4 3.25-2.5667 5.05-3.5l-1.65-4.1c1.4667-0.76667 3.0167-1.4 4.65-1.9l1.65 4.15c1.7667-0.53333 3.6333-0.88333 5.6-1.05v-4.4l2.5-0.1 2.5 0.1v4.4c2.1 0.16667 4.1167 0.55 6.05 1.15l1.7-4.05c1.6 0.5 3.1333 1.15 4.6 1.95l-1.7 4.05c1.6667 0.86667 3.25 1.95 4.75 3.25l3.1-3.1 1.8 1.7 1.75 1.85-3.1 3.05c1.3333 1.6 2.4833 3.3167 3.45 5.15l4.05-1.7c0.73333 1.5 1.35 3.05 1.85 4.65l-4 1.65c0.53333 1.8 0.88333 3.6667 1.05 5.6h4.3l0.05 2.5-0.05 2.5" fill="url(#gradient0)"/>
  <path d="m57.8 27.4 3.05 1.3c1.7 0.83333 3.3 1.9167 4.8 3.25v0.05l1.3 1.2 1.25 1.25c1.3333 1.5667 2.4667 3.25 3.4 5.05h-0.05l1.3 3.25v-0.05c0.53333 1.7333 0.86667 3.5667 1 5.5l0.05 1.8-0.05 1.8c-0.16667 2.1-0.55 4.1-1.15 6l-1.35 3.3 0.05-0.1c-0.86667 1.6-1.9167 3.1333-3.15 4.6l-0.05 0.05-1.25 1.3-1.35 1.3-0.05 0.05-4.9 3.25-0.05 0.05-3.2 1.25c-1.7667 0.53333-3.6167 0.86667-5.55 1l-1.85 0.05-1.75-0.05c-2.1333-0.16667-4.15-0.56667-6.05-1.2l-3.1-1.3 0.05 0.05c-1.6667-0.86667-3.2333-1.9333-4.7-3.2v-0.05l-1.25-1.2-1.15-1.25-0.05-0.05c-1.4333-1.6-2.6-3.3-3.5-5.1l-1.15-3.05-0.05-0.05c-0.56667-1.8333-0.91667-3.7333-1.05-5.7l-0.05-1.75 0.05-1.7c0.16667-2.1333 0.56667-4.15 1.2-6.05 0.33333-1.0333 0.76667-2.0333 1.3-3v-0.05c0.83333-1.7 1.95-3.3167 3.35-4.85l0.05-0.05 1.05-1.1 1.05-1 0.05-0.05c1.6333-1.5 3.3833-2.7 5.25-3.6 0.96667-0.5 1.9833-0.91667 3.05-1.25h0.05c1.7667-0.56667 3.65-0.91667 5.65-1.05l1.7-0.05 1.75 0.05c2.1 0.13333 4.1333 0.51667 6.1 1.15h-0.05" fill="#555"/>
  <path d="m63.25 36.9c3.6333 3.6 5.45 7.9667 5.45 13.1 0 5.2-1.8167 9.6167-5.45 13.25s-8.05 5.45-13.25 5.45c-5.1333 0-9.5-1.8167-13.1-5.45-3.6667-3.6333-5.5-8.05-5.5-13.25 0-5.1333 1.8333-9.5 5.5-13.1 3.6-3.6667 7.9667-5.5 13.1-5.5 5.2 0 9.6167 1.8333 13.25 5.5" fill="#3f3f3f"/>
  <path d="m50 15.95q-14.1 0-24.05 10-10 9.95-10 24.05 0 14.2 10 24.1 9.95 10 24.05 10 14.2 0 24.1-10 10-9.9 10-24.1 0-14.1-10-24.05-9.9-10-24.1-10m0-8.15q17.5 0 29.85 12.35t12.35 29.85-12.35 29.85-29.85 12.35-29.85-12.35-12.35-29.85 12.35-29.85 29.85-12.35" fill="#272727"/>
 </g>
 <path d="m50 15.95q14.2 0 24.1 10 10 9.95 10 24.05 0 14.2-10 24.1-9.9 10-24.1 10-14.1 0-24.05-10-10-9.9-10-24.1 0-14.1 10-24.05 9.95-10 24.05-10m0-8.15q17.5 0 29.85 12.35t12.35 29.85-12.35 29.85-29.85 12.35-29.85-12.35-12.35-29.85 12.35-29.85 29.85-12.35" fill="none" stroke="#151515" stroke-linecap="round" stroke-linejoin="round" stroke-width="4"/>
 <path d="m49 37.7v19.75h10.1v5.05h-15.55v-24.8h5.45" fill="#8c8c8c"/>
</svg>
