<?xml version="1.0" encoding="UTF-8"?>
<svg preserveAspectRatio="xMinYMin meet" version="1.1" viewBox="0 0 100 100" xmlns="http://www.w3.org/2000/svg">
<path d="m30.7 68.8v-8.25c-0.1-3.7-1.8333-6.2-5.2-7.5-2.7333-0.66667-5.75-1.75-9.05-3.25-5.8667-2.7667-8.1167-6.85-6.75-12.25 0.7-2.3667 1.7333-4.25 3.1-5.65 1.2667-1.7667 4.7333-3.3 10.4-4.6 7.4-1.7333 16.333-2.6 26.8-2.6 9.6333 0 18 0.73333 25.1 2.2l1.8 0.4c4.2 0.96667 7.15 2.0833 8.85 3.35 2.1 1.4 3.6333 3.7 4.6 6.9 1.3667 5.4-0.88333 9.4833-6.75 12.25-3.3 1.5-6.3167 2.5833-9.05 3.25-3.3667 1.3-5.1 3.8-5.2 7.5v15.75c0 1.8667-1.8833 3.45-5.65 4.75-3.8 1.3333-8.3833 2-13.75 2s-9.9667-0.66667-13.8-2c-3.7333-1.3-5.55-2.8833-5.45-4.75v-7.5" fill="#555"/>
<path d="m81.55 34.75 0.1 0.3 0.05 0.25v0.2q0 2.8-9.25 4.75-9.35 2-22.55 2-13.15 0-22.55-2-9.2-1.95-8.95-4.75l0.1-0.75q0.9-2.3 8.85-4 9.4-2 22.55-2 13.2 0 22.55 2 8 1.7 9.1 4" fill="#3f3f3f"/>
<path d="m49.25 50.35v17.75h9.1v4.55h-14v-22.3h4.9" fill="#8c8c8c"/>
<path d="m69.35 68.85 1.95 0.75 0.15 0.05q8.9 3.9 8.9 9.45t-8.9 9.4q-8.9 3.9-21.45 3.9t-21.45-3.9q-8.9-3.85-8.9-9.4t8.9-9.45l2.15-0.85v7.5q-0.15 2.8 5.45 4.75 5.75 2 13.8 2t13.75-2q5.65-1.95 5.65-4.75v-7.45" fill="#272727"/>
<path d="m50.1 17.15-10.5-10.5h21l-10.5 10.5" fill="#fff"/>
<g fill="none" stroke-linecap="round" stroke-linejoin="round">
<path d="m30.7 68.8v-8.25q-0.15-5.55-5.2-7.5-4.1-1-9.05-3.25-8.8-4.15-6.75-12.25 1.05-3.55 3.1-5.65 1.9-2.65 10.4-4.6 11.1-2.6 26.8-2.6 14.45 0 25.1 2.2l1.8 0.4q6.3 1.45 8.85 3.35 3.15 2.1 4.6 6.9 2.05 8.1-6.75 12.25-4.95 2.25-9.05 3.25-5.05 1.95-5.2 7.5v8.3l1.95 0.75 0.15 0.05q8.9 3.9 8.9 9.45t-8.9 9.4q-8.9 3.9-21.45 3.9t-21.45-3.9q-8.9-3.85-8.9-9.4t8.9-9.45l2.15-0.85v7.5q-0.15 2.8 5.45 4.75 5.75 2 13.8 2t13.75-2q5.65-1.95 5.65-4.75v-7.45" stroke="#151515" stroke-width="4"/>
<path d="m81.7 35.3-0.05-0.25-0.1-0.3m-63.05 0-0.1 0.75" stroke="#6c6c6c" stroke-width=".1"/>
<path d="m18.4 35.5q-0.25 2.8 8.95 4.75 9.4 2 22.55 2 13.2 0 22.55-2 9.25-1.95 9.25-4.75" stroke="#6c6c6c" stroke-width="3"/>
</g>
</svg>
