
<svg xmlns="http://www.w3.org/2000/svg" version="1.1" xmlns:xlink="http://www.w3.org/1999/xlink" preserveAspectRatio="none" x="0px" y="0px" width="100px" height="100px" viewBox="0 0 100 100">
<defs/>

<g id="Luna">
<g>
<g>
<g>
<path fill="#313131" stroke="none" d="
M 92.05 42.85
Q 93 31.9 82.8 30.55 46.65 27.85 23.2 21.35 15.85 21.35 12.45 27.2 4.65 40.6 9.95 58.1 12.35 66.05 20 69.2 46.75 76.1 81.75 78.6 90.8 79.15 91.5 69.35 91.5 49.45 92.05 42.85
M 77.75 39.05
Q 80.3 39.4 80.25 42
L 80.25 42.05
Q 79.75 48.75 79.75 68.75 79.6 69.45 79.05 69.8 78.65 70.05 78 70
L 78.05 70.05
Q 46.3 67.65 21.85 60.95 19.65 59.75 19.7 59.05 17.45 56.2 16.6 49.35 15.8 42.5 17.7 37.4 19.5 32.65 21.55 30.45 22 29.95 22.05 29.95 44.2 36.4 77.75 39.05
M 19.7 59.05
Q 19.65 59.75 21.85 60.95 46.3 67.65 78.05 70.05
L 78 70
Q 78.65 70.05 79.05 69.8 47 67.3 22.05 60.95 19.75 59.7 19.7 59.05 Z"/>

<path fill="#4F4F4F" stroke="none" d="
M 80.25 42
Q 80.3 39.4 77.75 39.05 44.2 36.4 22.05 29.95 22 29.95 21.55 30.45 19.5 32.65 17.7 37.4 15.8 42.5 16.6 49.35 17.45 56.2 19.7 59.05 19.75 59.7 22.05 60.95 47 67.3 79.05 69.8 79.6 69.45 79.75 68.75 79.75 48.75 80.25 42.05
L 80.25 42
M 51.95 44.1
Q 52.8 44.25 53.65 44.5 54.55 44.8 55.2 45.3 55.9 45.85 56.3 46.6 56.75 47.45 56.75 48.65 56.75 49.95 56.1 50.65 55.5 51.4 54.5 51.55
L 54.5 51.6
Q 55.1 51.8 55.65 52.2 56.15 52.6 56.55 53.1 56.9 53.65 57.15 54.3 57.35 55 57.35 55.7 57.35 56.9 56.85 57.6 56.4 58.3 55.7 58.65 55 59.05 54.2 59.1 53.3 59.2 52.45 59.05
L 47.1 58.15 47.1 43.3 51.95 44.1
M 37.4 41.75
L 40.25 42.2 40.25 54.05 45.6 54.9 45.6 57.9 37.4 56.6 37.4 41.75
M 52.85 53
Q 52.5 52.9 52.15 52.85
L 50 52.5 50 55.9 52.5 56.3
Q 52.85 56.35 53.2 56.3 53.55 56.25 53.85 56.1 54.1 55.95 54.3 55.65 54.45 55.3 54.45 54.85 54.45 54.3 54.25 54 54 53.6 53.65 53.4 53.3 53.15 52.85 53
M 53.7 49.45
Q 53.85 49.15 53.85 48.7 53.85 48.25 53.65 47.95 53.5 47.6 53.2 47.35 52.95 47.15 52.6 47 52.25 46.9 51.9 46.85
L 50 46.55 50 49.75 52.05 50.05
Q 52.4 50.15 52.7 50.1 53 50.05 53.25 49.85 53.55 49.75 53.7 49.45 Z"/>

<path fill="#999999" stroke="none" d="
M 40.25 42.2
L 37.4 41.75 37.4 56.6 45.6 57.9 45.6 54.9 40.25 54.05 40.25 42.2
M 53.65 44.5
Q 52.8 44.25 51.95 44.1
L 47.1 43.3 47.1 58.15 52.45 59.05
Q 53.3 59.2 54.2 59.1 55 59.05 55.7 58.65 56.4 58.3 56.85 57.6 57.35 56.9 57.35 55.7 57.35 55 57.15 54.3 56.9 53.65 56.55 53.1 56.15 52.6 55.65 52.2 55.1 51.8 54.5 51.6
L 54.5 51.55
Q 55.5 51.4 56.1 50.65 56.75 49.95 56.75 48.65 56.75 47.45 56.3 46.6 55.9 45.85 55.2 45.3 54.55 44.8 53.65 44.5
M 53.85 48.7
Q 53.85 49.15 53.7 49.45 53.55 49.75 53.25 49.85 53 50.05 52.7 50.1 52.4 50.15 52.05 50.05
L 50 49.75 50 46.55 51.9 46.85
Q 52.25 46.9 52.6 47 52.95 47.15 53.2 47.35 53.5 47.6 53.65 47.95 53.85 48.25 53.85 48.7
M 52.15 52.85
Q 52.5 52.9 52.85 53 53.3 53.15 53.65 53.4 54 53.6 54.25 54 54.45 54.3 54.45 54.85 54.45 55.3 54.3 55.65 54.1 55.95 53.85 56.1 53.55 56.25 53.2 56.3 52.85 56.35 52.5 56.3
L 50 55.9 50 52.5 52.15 52.85 Z"/>
</g>
</g>

<g>
<path stroke="#626262" stroke-width="4" stroke-linejoin="round" stroke-linecap="round" fill="none" d="
M 19.7 59.05
Q 17.45 56.2 16.6 49.35 15.8 42.5 17.7 37.4 19.5 32.65 21.55 30.45 22 29.95 22.05 29.95 44.2 36.4 77.75 39.05 80.3 39.4 80.25 42
L 80.25 42.05
Q 79.75 48.75 79.75 68.75 79.6 69.45 79.05 69.8 78.65 70.05 78 70
L 78.05 70.05
Q 46.3 67.65 21.85 60.95 19.65 59.75 19.7 59.05 Z"/>
</g>

<g>
<path stroke="#1B1B1B" stroke-width="5" stroke-linejoin="round" stroke-linecap="round" fill="none" d="
M 91.5 69.35
Q 91.5 49.45 92.05 42.85 93 31.9 82.8 30.55 46.65 27.85 23.2 21.35 15.85 21.35 12.45 27.2 4.65 40.6 9.95 58.1 12.35 66.05 20 69.2 46.75 76.1 81.75 78.6 90.8 79.15 91.5 69.35 Z"/>
</g>
</g>
</g>
</svg>
