<svg width="100px" height="100px" preserveAspectRatio="none" version="1.1" viewBox="0 0 100 100" xmlns="http://www.w3.org/2000/svg">
 <path d="m15.903 37.15v-6.4c0.6-10.933 6.5833-17.083 17.95-18.45h43.25c5.241 1.5673 7.5577 6.234 6.95 14-2.3667 14.167-2.3667 28.933 0 44.3 0.8 4.5667-0.5 9.1833-3.9 13.85-3.4 3.1333-7.7833 5.1167-13.15 5.95-6.9348 1.0904-13.135 0.50703-18.6-1.75-5.4-2.4333-9.25-6.45-11.55-12.05-0.3-0.7-0.61667-1.4-0.95-2.1-3.382-6.4339-7.132-10.901-11.25-13.4-4.146-2.4686-6.546-5.152-7.2-8.05-0.01133-0.05-0.01133-0.1 0-0.15-0.7-2.6667-1.15-5.4-1.35-8.2-0.2-2.4333-0.26667-4.95-0.2-7.55" fill="#313131"/>
 <path d="m40.603 46.55c-1.346-6.3988-1.6129-12.938-1.8764-19.449-0.1796-2.5657-0.64357-6.1461 2.1945-7.4304 2.5023-1.456 5.4053-0.84323 8.1449-0.97053h24.587c2.6233 0.43863 4.6154 2.9459 3.8742 5.6117-0.92399 8.4012-2.2668 16.807-1.8484 25.288 0.08528 7.0639 0.88663 14.085 1.7602 21.085 0.46112 3.4777 0.21302 7.5394-2.7762 9.8945-4.6616 3.9607-11.838 4.1581-17.003 1.0879-2.7762-2.2516-4.5506-5.4762-6.6189-8.342-5.6468-7.9427-8.6378-17.286-10.438-26.775z" fill="#4f4f4f" stop-color="#000000" stroke="#626262" stroke-linecap="round" stroke-linejoin="round" stroke-width="4" style="-inkscape-stroke:none;font-variation-settings:normal"/>
 <path d="m48.403 88.675q-8.1-3.675-11.55-12.075-0.45-1.05-0.95-2.1-5.073-9.6508-11.275-13.375-6.1939-3.7279-7.175-8.075-0.01699-0.075-0.025-0.15-1.025-4-1.325-8.2-0.3-3.65-0.2-7.55v-6.4q0.9-16.4 17.95-18.45h43.25q7.8615 2.351 6.95 14-3.55 21.25 0 44.3 1.2 6.85-3.9 13.85-5.1 4.7-13.15 5.95-10.402 1.6355-18.6-1.725z" fill="none" stroke="#1b1b1b" stroke-linecap="round" stroke-linejoin="round" stroke-width="5"/>
 <path d="m59.1 25.5v2.9h4.25v11.95h3.25v-11.95h4.25v-2.9h-11.75m-0.5 4.5q0-1.3-0.45-2.2-0.45-0.85-1.2-1.35-0.75-0.55-1.8-0.75-1-0.2-2.15-0.2h-5.75v14.85h3.3v-5.95h1.6l3.1 5.95h3.95l-3.8-6.3q1.6-0.25 2.4-1.4 0.8-1.1 0.8-2.65m-5.9-1.75q0.4 0 0.9 0.05 0.45 0.05 0.8 0.25t0.6 0.5q0.2 0.35 0.2 0.9 0 0.65-0.25 0.95-0.25 0.35-0.65 0.5t-0.9 0.2-0.95 0.05h-1.9v-3.4h2.15z" fill="#999"/>
</svg>
