
<svg xmlns="http://www.w3.org/2000/svg" version="1.1" xmlns:xlink="http://www.w3.org/1999/xlink" preserveAspectRatio="none" x="0px" y="0px" width="100px" height="100px" viewBox="0 0 100 100">
<defs/>

<g id="Luna">
<g>
<g>
<g>
<path fill="#FFFFFF" stroke="none" d="
M 50.1 17.15
L 60.6 6.65 39.6 6.65 50.1 17.15 Z"/>

<path fill="#272727" stroke="none" d="
M 36.15 81.05
Q 30.55 79.1 30.7 76.3
L 30.7 68.8
Q 29.6 69.2 28.55 69.65 19.65 73.55 19.65 79.1 19.65 84.65 28.55 88.5 37.45 92.4 50 92.4 62.55 92.4 71.45 88.5 80.35 84.65 80.35 79.1 80.35 73.55 71.45 69.65 71.4 69.6 71.3 69.6 70.35 69.2 69.35 68.85
L 69.35 76.3
Q 69.35 79.1 63.7 81.05 58 83.05 49.95 83.05 41.9 83.05 36.15 81.05 Z"/>

<path fill="#555555" stroke="none" d="
M 90.35 37.55
Q 88.9 32.75 85.75 30.65 83.2 28.75 76.9 27.3 76 27.1 75.1 26.9 64.45 24.7 50 24.7 34.3 24.7 23.2 27.3 14.7 29.25 12.8 31.9 10.75 34 9.7 37.55 7.65 45.65 16.45 49.8 21.4 52.05 25.5 53.05 30.55 55 30.7 60.55
L 30.7 68.8 30.7 76.3
Q 30.55 79.1 36.15 81.05 41.9 83.05 49.95 83.05 58 83.05 63.7 81.05 69.35 79.1 69.35 76.3
L 69.35 68.85 69.35 60.55
Q 69.5 55 74.55 53.05 78.65 52.05 83.6 49.8 92.4 45.65 90.35 37.55
M 81.7 35.3
L 81.7 35.5
Q 81.7 38.3 72.45 40.25 63.1 42.25 49.9 42.25 36.75 42.25 27.35 40.25 18.15 38.3 18.4 35.5 18.35 35.1 18.5 34.75 19.4 32.45 27.35 30.75 36.75 28.75 49.9 28.75 63.1 28.75 72.45 30.75 80.45 32.45 81.55 34.75 81.6 34.9 81.65 35.05 81.7 35.15 81.7 35.3
M 56.75 51.8
Q 57.95 52.55 58.6 53.85 59.3 55.15 59.3 57.15 59.3 59.5 58.05 61.15 56.8 62.8 54.5 63.2
L 60.15 72.65 54.25 72.65 49.6 63.75 47.2 63.75 47.2 72.65 42.3 72.65 42.3 50.35 50.9 50.35
Q 52.6 50.35 54.1 50.7 55.65 51.05 56.75 51.8
M 52.95 55
Q 52.4 54.7 51.75 54.6 51.05 54.55 50.4 54.55
L 47.2 54.55 47.2 59.55 50.05 59.55
Q 50.75 59.55 51.45 59.5 52.2 59.5 52.8 59.25 53.4 59.05 53.8 58.55 54.15 58.05 54.15 57.1 54.15 56.25 53.85 55.75 53.5 55.25 52.95 55 Z"/>

<path fill="#8C8C8C" stroke="none" d="
M 58.6 53.85
Q 57.95 52.55 56.75 51.8 55.65 51.05 54.1 50.7 52.6 50.35 50.9 50.35
L 42.3 50.35 42.3 72.65 47.2 72.65 47.2 63.75 49.6 63.75 54.25 72.65 60.15 72.65 54.5 63.2
Q 56.8 62.8 58.05 61.15 59.3 59.5 59.3 57.15 59.3 55.15 58.6 53.85
M 51.75 54.6
Q 52.4 54.7 52.95 55 53.5 55.25 53.85 55.75 54.15 56.25 54.15 57.1 54.15 58.05 53.8 58.55 53.4 59.05 52.8 59.25 52.2 59.5 51.45 59.5 50.75 59.55 50.05 59.55
L 47.2 59.55 47.2 54.55 50.4 54.55
Q 51.05 54.55 51.75 54.6 Z"/>

<path fill="#3F3F3F" stroke="none" d="
M 81.7 35.5
L 81.7 35.3
Q 81.7 35.15 81.65 35.05 81.6 34.9 81.55 34.75 80.45 32.45 72.45 30.75 63.1 28.75 49.9 28.75 36.75 28.75 27.35 30.75 19.4 32.45 18.5 34.75 18.35 35.1 18.4 35.5 18.15 38.3 27.35 40.25 36.75 42.25 49.9 42.25 63.1 42.25 72.45 40.25 81.7 38.3 81.7 35.5 Z"/>
</g>
</g>

<g>
<path stroke="#151515" stroke-width="4" stroke-linejoin="round" stroke-linecap="round" fill="none" d="
M 30.7 68.8
L 30.7 60.55
Q 30.55 55 25.5 53.05 21.4 52.05 16.45 49.8 7.65 45.65 9.7 37.55 10.75 34 12.8 31.9 14.7 29.25 23.2 27.3 34.3 24.7 50 24.7 64.45 24.7 75.1 26.9 76 27.1 76.9 27.3 83.2 28.75 85.75 30.65 88.9 32.75 90.35 37.55 92.4 45.65 83.6 49.8 78.65 52.05 74.55 53.05 69.5 55 69.35 60.55
L 69.35 68.85
Q 70.35 69.2 71.3 69.6 71.4 69.6 71.45 69.65 80.35 73.55 80.35 79.1 80.35 84.65 71.45 88.5 62.55 92.4 50 92.4 37.45 92.4 28.55 88.5 19.65 84.65 19.65 79.1 19.65 73.55 28.55 69.65 29.6 69.2 30.7 68.8
L 30.7 76.3
Q 30.55 79.1 36.15 81.05 41.9 83.05 49.95 83.05 58 83.05 63.7 81.05 69.35 79.1 69.35 76.3
L 69.35 68.85"/>
</g>

<g>
<path stroke="#6C6C6C" stroke-width="0.1" stroke-linejoin="round" stroke-linecap="round" fill="none" d="
M 81.7 35.3
Q 81.7 35.15 81.65 35.05 81.6 34.9 81.55 34.75
M 18.5 34.75
Q 18.35 35.1 18.4 35.5"/>
</g>

<g>
<path stroke="#6C6C6C" stroke-width="3" stroke-linejoin="round" stroke-linecap="round" fill="none" d="
M 18.4 35.5
Q 18.15 38.3 27.35 40.25 36.75 42.25 49.9 42.25 63.1 42.25 72.45 40.25 81.7 38.3 81.7 35.5"/>
</g>
</g>
</g>
</svg>
