<?xml version="1.0" encoding="UTF-8"?>
<svg preserveAspectRatio="xMinYMin meet" version="1.1" viewBox="0 0 100 100" xmlns="http://www.w3.org/2000/svg">
<path d="m90.4 67.4q-0.3 10.7-12.45 11.2h-58.6q-5.35-0.6-6.25-6.25v-16.4q0.5-23.65 26.1-28.25 25.7-4.55 38.05-6.1 12.45-1.6 13.15 9.6v36.2m-35.4-33.75q-7.15-0.2-20.2 3.95-13.05 4.05-14.25 16.4l0.1 17.15h36.95q5.45 0.05 5.6-4.8v-26.05q-0.4-7.05-8.2-6.65" fill="#313131"/>
<path d="m55 33.65c5.2-0.26667 7.9333 1.95 8.2 6.65v26.05c-0.1 3.2333-1.9667 4.8333-5.6 4.8h-36.95l-0.1-17.15c0.8-8.2333 5.55-13.7 14.25-16.4 8.7-2.7667 15.433-4.0833 20.2-3.95" fill="#4f4f4f"/>
<path d="m33.35 49.7v13h6.65v3.25h-10.2v-16.25h3.55m19 0.7q0.9 0.45 1.45 1.25 0.45 0.8 0.45 2.1 0 1.45-0.75 2.35t-2 1.25v0.05l1.45 0.45 1.1 0.9 0.75 1.25 0.3 1.45q0 1.3-0.6 2.15-0.55 0.9-1.45 1.4l-2 0.75-2.1 0.2h-6.7v-16.3h6.05l2.15 0.15 1.9 0.6m-1.15 11.55 0.3-0.95-0.35-0.9-0.7-0.55-0.95-0.3-0.95-0.05h-2.7v3.7h3.2l0.85-0.05 0.8-0.3 0.5-0.6m-5.35-5.8h2.6l0.8-0.1 0.7-0.25 0.55-0.55 0.2-0.9-0.2-0.8-0.6-0.55-0.75-0.2-0.85-0.1h-2.45v3.45" fill="#999"/>
<path d="m90.4 67.4v-36.2q-0.7-11.2-13.15-9.6-12.35 1.55-38.05 6.1-25.6 4.6-26.1 28.25v16.4q0.9 5.65 6.25 6.25h58.6q12.15-0.5 12.45-11.2" fill="none" stroke="#1b1b1b" stroke-linecap="round" stroke-linejoin="round" stroke-width="5"/>
<path d="m55 33.65q7.8-0.4 8.2 6.65v26.05q-0.15 4.85-5.6 4.8h-36.95l-0.1-17.15q1.2-12.35 14.25-16.4 13.05-4.15 20.2-3.95" fill="none" stroke="#626262" stroke-linecap="round" stroke-linejoin="round" stroke-width="4"/>
</svg>
