<svg width="100" height="100" preserveAspectRatio="xMinYMin meet" version="1.1" viewBox="0 0 100 100" xmlns="http://www.w3.org/2000/svg">
 <g>
  <path d="m51.75 88.7q-8.2 3.35-18.6 1.7-8.05-1.25-13.15-5.95-5.1-7-3.9-13.85 3.55-23.05 0-44.3-0.9-11.65 6.95-14h43.25q17.05 2.05 17.95 18.45v6.4q0.1 3.9-0.2 7.55-0.3 4.2-1.3 8.2l-0.05 0.15q-1 4.35-7.15 8.1-6.25 3.7-11.3 13.35l-0.95 2.1q-3.45 8.4-11.55 12.1m4.65-70h-29.9q-2.45 0.8-3.2 1.85-0.95 1.45-0.75 3.05l0.65 5.65 1.05 9.8 0.25 5.05-0.1 8-0.45 7.6-0.8 7.2q-0.5 3.35-0.6 6.75-0.1 5.3 4.5 8.05 3.9 2.35 8.4 2.05 2.3-0.15 4.5-0.9 2.5-0.7 4.15-2.65l3.15-4.15 3.65-5.5q2.5-4 4.25-8.35 1.75-4.45 2.9-9l1.5-6.65 1.05-6.7 0.55-6.85 0.4-7q0.2-2.8-0.5-4.6t-4.65-2.7" fill="#313131"/>
  <path d="m56.4 18.7c2.6333 0.6 4.1833 1.5 4.65 2.7s0.63333 2.7333 0.5 4.6l-0.4 7-0.55 6.85-1.05 6.7-1.5 6.65c-0.76667 3.0333-1.7333 6.0333-2.9 9-1.1667 2.9-2.5833 5.6833-4.25 8.35l-3.65 5.5-3.15 4.15c-1.1 1.3-2.4833 2.1833-4.15 2.65-1.4667 0.5-2.9667 0.8-4.5 0.9-3 0.2-5.8-0.48333-8.4-2.05-3.0667-1.8333-4.5667-4.5167-4.5-8.05 0.06667-2.2667 0.26667-4.5167 0.6-6.75l0.8-7.2 0.45-7.6 0.1-8-0.25-5.05-1.05-9.8-0.65-5.65c-0.13333-1.0667 0.11667-2.0833 0.75-3.05 0.5-0.7 1.5667-1.3167 3.2-1.85h29.9" fill="#4f4f4f"/>
  <path d="m42.1 28.4v-2.9h11.75v2.9h-4.25v11.95h-3.25v-11.95h-4.25m-6.6-2.9v11.85h6.1v3h-9.35v-14.85h3.25" fill="#999"/>
 </g>
 <path d="m56.4 18.7q3.95 0.9 4.65 2.7t0.5 4.6l-0.4 7-0.55 6.85-1.05 6.7-1.5 6.65q-1.15 4.55-2.9 9-1.75 4.35-4.25 8.35l-3.65 5.5-3.15 4.15q-1.65 1.95-4.15 2.65-2.2 0.75-4.5 0.9-4.5 0.3-8.4-2.05-4.6-2.75-4.5-8.05 0.1-3.4 0.6-6.75l0.8-7.2 0.45-7.6 0.1-8-0.25-5.05-1.05-9.8-0.65-5.65q-0.2-1.6 0.75-3.05 0.75-1.05 3.2-1.85h29.9" fill="none" stroke="#626262" stroke-linecap="round" stroke-linejoin="round" stroke-width="4"/>
 <path d="m51.75 88.7q8.1-3.7 11.55-12.1l0.95-2.1q5.05-9.65 11.3-13.35 6.15-3.75 7.15-8.1l0.05-0.15q1-4 1.3-8.2 0.3-3.65 0.2-7.55v-6.4q-0.9-16.4-17.95-18.45h-43.25q-7.85 2.35-6.95 14 3.55 21.25 0 44.3-1.2 6.85 3.9 13.85 5.1 4.7 13.15 5.95 10.4 1.65 18.6-1.7" fill="none" stroke="#1b1b1b" stroke-linecap="round" stroke-linejoin="round" stroke-width="5"/>
</svg>
