<?xml version="1.0" encoding="UTF-8"?>
<svg preserveAspectRatio="xMinYMin meet" version="1.1" viewBox="0 0 100 100" xmlns="http://www.w3.org/2000/svg">
<path d="m84 26.3q-3.55 21.25 0 44.3 1.2 6.85-3.9 13.85-5.1 4.7-13.15 5.95-10.4 1.65-18.6-1.7-8.1-3.7-11.55-12.1l-0.95-2.1q-5.05-9.65-11.3-13.35-6.15-3.75-7.15-8.1l-0.05-0.15q-1-4-1.3-8.2-0.3-3.65-0.2-7.55v-6.4q0.9-16.4 17.95-18.45h43.25q7.85 2.35 6.95 14m-40.3-7.6q-3.95 0.9-4.65 2.7t-0.5 4.6l0.4 7q0.1 3.4 0.55 6.85l1.05 6.7 1.5 6.65q1.15 4.55 2.9 9 1.75 4.35 4.25 8.35l3.65 5.5 3.15 4.15q1.65 1.95 4.15 2.65 2.2 0.75 4.5 0.9 4.5 0.3 8.4-2.05 4.6-2.75 4.5-8.05-0.1-3.4-0.6-6.75l-0.8-7.2q-0.3-3.8-0.45-7.6l-0.1-8q0-2.55 0.25-5.05 0.45-4.9 1.05-9.8l0.65-5.65q0.2-1.6-0.75-3.05-0.75-1.05-3.2-1.85h-29.9" fill="#313131"/>
<path d="m43.7 18.7h29.9c1.6333 0.53333 2.7 1.15 3.2 1.85 0.63333 0.96667 0.88333 1.9833 0.75 3.05l-0.65 5.65c-0.4 3.2667-0.75 6.5333-1.05 9.8-0.16667 1.6667-0.25 3.35-0.25 5.05l0.1 8c0.1 2.5333 0.25 5.0667 0.45 7.6l0.8 7.2c0.33333 2.2333 0.53333 4.4833 0.6 6.75 0.06667 3.5333-1.4333 6.2167-4.5 8.05-2.6 1.5667-5.4 2.25-8.4 2.05-1.5333-0.1-3.0333-0.4-4.5-0.9-1.6667-0.46667-3.05-1.35-4.15-2.65l-3.15-4.15-3.65-5.5c-1.6667-2.6667-3.0833-5.45-4.25-8.35-1.1667-2.9667-2.1333-5.9667-2.9-9l-1.5-6.65-1.05-6.7c-0.3-2.3-0.48333-4.5833-0.55-6.85l-0.4-7c-0.13333-1.8667 0.03333-3.4 0.5-4.6s2.0167-2.1 4.65-2.7" fill="#4f4f4f"/>
<path d="m50.55 34.4v5.95h-3.3v-14.85h5.75l2.15 0.2q1.05 0.2 1.8 0.75 0.75 0.5 1.2 1.35 0.45 0.9 0.45 2.2 0 1.55-0.8 2.65-0.8 1.15-2.4 1.4l3.8 6.3h-3.95l-3.1-5.95h-1.6m8.55-8.9h11.75v2.9h-4.25v11.95h-3.25v-11.95h-4.25v-2.9m-8.55 6.15h1.9l0.95-0.05 0.9-0.2 0.65-0.5 0.25-0.95-0.2-0.9-0.6-0.5-0.8-0.25-0.9-0.05h-2.15v3.4" fill="#999"/>
<path d="m43.7 18.7q-3.95 0.9-4.65 2.7t-0.5 4.6l0.4 7q0.1 3.4 0.55 6.85l1.05 6.7 1.5 6.65q1.15 4.55 2.9 9 1.75 4.35 4.25 8.35l3.65 5.5 3.15 4.15q1.65 1.95 4.15 2.65 2.2 0.75 4.5 0.9 4.5 0.3 8.4-2.05 4.6-2.75 4.5-8.05-0.1-3.4-0.6-6.75l-0.8-7.2q-0.3-3.8-0.45-7.6l-0.1-8q0-2.55 0.25-5.05 0.45-4.9 1.05-9.8l0.65-5.65q0.2-1.6-0.75-3.05-0.75-1.05-3.2-1.85h-29.9" fill="none" stroke="#626262" stroke-linecap="round" stroke-linejoin="round" stroke-width="4"/>
<path d="m84 26.3q-3.55 21.25 0 44.3 1.2 6.85-3.9 13.85-5.1 4.7-13.15 5.95-10.4 1.65-18.6-1.7-8.1-3.7-11.55-12.1l-0.95-2.1q-5.05-9.65-11.3-13.35-6.15-3.75-7.15-8.1l-0.05-0.15q-1-4-1.3-8.2-0.3-3.65-0.2-7.55v-6.4q0.9-16.4 17.95-18.45h43.25q7.85 2.35 6.95 14" fill="none" stroke="#1b1b1b" stroke-linecap="round" stroke-linejoin="round" stroke-width="5"/>
</svg>
