<svg width="100" height="100" preserveAspectRatio="xMinYMin meet" version="1.1" viewBox="0 0 100 100" xmlns="http://www.w3.org/2000/svg">
 <g>
  <path d="m82.95 54-0.1 17.15h-36.95c-3.6333 0.03333-5.5-1.5667-5.6-4.8v-26.05c0.26667-4.7 3-6.9167 8.2-6.65 4.7667-0.13333 11.5 1.1833 20.2 3.95 8.7 2.7 13.45 8.1667 14.25 16.4" fill="#4f4f4f"/>
  <path d="m82.95 54q-1.2-12.35-14.25-16.4-13.05-4.15-20.2-3.95-7.8-0.4-8.2 6.65v26.05q0.15 4.85 5.6 4.8h36.95l0.1-17.15m7.45 18.35q-0.9 5.65-6.25 6.25h-58.6q-12.15-0.5-12.45-11.2v-36.2q0.7-11.2 13.15-9.6 12.35 1.55 38.05 6.1 25.6 4.6 26.1 28.25v16.4" fill="#313131"/>
  <path d="m73.85 50.4q0.9 0.45 1.45 1.25 0.45 0.8 0.45 2.1 0 1.45-0.75 2.35t-2 1.25v0.05l1.45 0.45q0.65 0.4 1.1 0.9l0.75 1.25 0.3 1.45q0 1.3-0.6 2.15l-1.45 1.4q-0.85 0.55-2 0.75l-2.1 0.2h-6.7v-16.3h6.05l2.15 0.15q1.1 0.15 1.9 0.6m-6.5 5.75h2.6l0.8-0.1 0.7-0.25 0.55-0.55 0.2-0.9-0.2-0.8-0.6-0.55-0.75-0.2-0.85-0.1h-2.45v3.45m5.35 5.8 0.3-0.95q0-0.55-0.35-0.9-0.25-0.4-0.7-0.55l-0.95-0.3-0.95-0.05h-2.7v3.7h3.2l0.85-0.05 0.8-0.3 0.5-0.6m-20.4-2.55v6.45h-3.6v-16.15h6.25l2.35 0.2q1.15 0.2 1.95 0.8 0.85 0.55 1.35 1.5 0.45 0.95 0.45 2.4 0 1.7-0.85 2.85-0.85 1.3-2.6 1.55l4.1 6.85h-4.3l-3.35-6.45h-1.75m0-3h2.1l1-0.05 1-0.25 0.7-0.55 0.25-1-0.2-1-0.65-0.55q-0.4-0.2-0.85-0.25l-1-0.05h-2.35v3.7" fill="#999"/>
 </g>
 <path d="m90.4 72.35v-16.4q-0.5-23.65-26.1-28.25-25.7-4.55-38.05-6.1-12.45-1.6-13.15 9.6v36.2q0.3 10.7 12.45 11.2h58.6q5.35-0.6 6.25-6.25" fill="none" stroke="#1b1b1b" stroke-linecap="round" stroke-linejoin="round" stroke-width="5"/>
 <path d="m82.95 54-0.1 17.15h-36.95q-5.45 0.05-5.6-4.8v-26.05q0.4-7.05 8.2-6.65 7.15-0.2 20.2 3.95 13.05 4.05 14.25 16.4" fill="none" stroke="#626262" stroke-linecap="round" stroke-linejoin="round" stroke-width="4"/>
</svg>
