<?xml version="1.0" encoding="UTF-8"?>
<svg preserveAspectRatio="none" version="1.1" viewBox="0 0 100 100" xmlns="http://www.w3.org/2000/svg">
<path d="m75.25 24.7q-10.4-10.4-25.25-10.4-14.8 0-25.25 10.4-10.45 10.45-10.45 25.3 0 14.8 10.45 25.25t25.25 10.45q14.85 0 25.25-10.45 10.45-10.45 10.45-25.25 0-14.85-10.45-25.3m-25.25-1.9q11.3 0 19.25 7.95t7.95 19.25-7.95 19.25-19.25 7.95q-11.25 0-19.25-7.95-7.95-7.95-7.95-19.25t7.95-19.25q8-7.95 19.25-7.95z" fill="#313131"/>
<path d="m69.25 30.75c-5.3-5.3-11.717-7.95-19.25-7.95-7.5 0-13.917 2.65-19.25 7.95-5.3 5.3-7.95 11.717-7.95 19.25s2.65 13.95 7.95 19.25c5.3333 5.3 11.75 7.95 19.25 7.95 7.5333 0 13.95-2.65 19.25-7.95s7.95-11.717 7.95-19.25-2.65-13.95-7.95-19.25" fill="#4f4f4f"/>
<path d="m50 14.3q14.85 0 25.25 10.4 10.45 10.45 10.45 25.3 0 14.8-10.45 25.25-10.4 10.45-25.25 10.45-14.8 0-25.25-10.45t-10.45-25.25q0-14.85 10.45-25.3 10.45-10.4 25.25-10.4z" fill="none" stroke="#1B1B1B" stroke-linecap="round" stroke-linejoin="round" stroke-width="5"/>
<path d="m63.15 59.05h-26.2m26.2-8.8h-26.2m26.2-8.8h-26.2" fill="none" stroke="#999" stroke-linecap="round" stroke-linejoin="round" stroke-width="5"/>
<path d="m50 22.8q11.3 0 19.25 7.95t7.95 19.25-7.95 19.25-19.25 7.95q-11.25 0-19.25-7.95-7.95-7.95-7.95-19.25t7.95-19.25q8-7.95 19.25-7.95z" fill="none" stroke="#626262" stroke-linecap="round" stroke-linejoin="round" stroke-width="4"/>
</svg>
