<?xml version="1.0" encoding="UTF-8"?>
<svg viewBox="0 0 64 64" xmlns="http://www.w3.org/2000/svg">
<path d="m23 23v-11q0-4 4-4h10q4 0 4 4v11h11q4 0 4 4v10q0 4-4 4h-11v11q0 4-4 4h-10q-4 0-4-4v-29m25 5.3q-0.6-0.4-1.3-0.25-0.75 0.05-1.2 0.6-0.5 0.55-0.5 1.25v4.15q0 0.75 0.5 1.3 0.45 0.55 1.2 0.65l1.3-0.3 3.15-2.05 0.75-1.05q0.2-0.6 0-1.25l-0.75-0.95-3.15-2.1m-12.3-12.3-2.1-3.15-0.95-0.75q-0.65-0.2-1.25 0-0.65 0.25-1.05 0.75l-2.05 3.15q-0.4 0.6-0.3 1.3 0.1 0.75 0.65 1.2 0.55 0.5 1.3 0.5h4.15q0.7 0 1.25-0.5 0.55-0.45 0.6-1.2 0.15-0.7-0.25-1.3m-19.7 12.3q0.6-0.4 1.3-0.25 0.75 0.05 1.2 0.6 0.5 0.55 0.5 1.25v4.15q0 0.75-0.5 1.3-0.45 0.55-1.2 0.65-0.7 0.1-1.3-0.3l-3.15-2.05-0.75-1.05q-0.2-0.6 0-1.25 0.25-0.6 0.75-0.95l3.15-2.1m19.7 19.7q0.4-0.6 0.25-1.3-0.05-0.75-0.6-1.2-0.55-0.5-1.25-0.5h-4.15q-0.75 0-1.3 0.5-0.55 0.45-0.65 1.2-0.1 0.7 0.3 1.3l2.05 3.15q0.4 0.5 1.05 0.75 0.6 0.2 1.25 0l0.95-0.75 2.1-3.15" fill="#fff"/>
<path d="m23 41h-11q-4 0-4-4v-10q0-4 4-4h11v18m-7-12.7-3.15 2.1q-0.5 0.35-0.75 0.95-0.2 0.65 0 1.25l0.75 1.05 3.15 2.05q0.6 0.4 1.3 0.3 0.75-0.1 1.2-0.65 0.5-0.55 0.5-1.3v-4.15q0-0.7-0.5-1.25-0.45-0.55-1.2-0.6-0.7-0.15-1.3 0.25" fill="#E73246"/>
</svg>
