<?xml version="1.0" encoding="UTF-8"?>
<svg viewBox="0 0 64 64" xmlns="http://www.w3.org/2000/svg">
<path d="m20 20h24q4.95 0 8.45 3.5 3.55 3.55 3.55 8.5t-3.55 8.45q-3.5 3.55-8.45 3.55h-24q-4.95 0-8.5-3.55-3.5-3.5-3.5-8.45t3.5-8.5q3.55-3.5 8.5-3.5m4 12q0-1.65-1.2-2.85-1.15-1.15-2.8-1.15t-2.85 1.15q-1.15 1.2-1.15 2.85t1.15 2.8q1.2 1.2 2.85 1.2t2.8-1.2q1.2-1.15 1.2-2.8m12 0q0-1.65-1.2-2.85-1.15-1.15-2.8-1.15t-2.85 1.15q-1.15 1.2-1.15 2.85t1.15 2.8q1.2 1.2 2.85 1.2t2.8-1.2q1.2-1.15 1.2-2.8m12 0q0-1.65-1.2-2.85-1.15-1.15-2.8-1.15t-2.85 1.15q-1.15 1.2-1.15 2.85t1.15 2.8q1.2 1.2 2.85 1.2t2.8-1.2q1.2-1.15 1.2-2.8" fill="#fff"/>
</svg>
