<?xml version="1.0" encoding="UTF-8"?>
<svg viewBox="0 0 64 64" xmlns="http://www.w3.org/2000/svg">
<path d="m16 8h32q8 0 8 8v32q0 8-8 8h-32q-8 0-8-8v-32q0-8 8-8m26.5 28.6q-0.4 0.4-1 0.4h-2.55q-0.35 0-0.65-0.3t-0.3-0.7h-4l0.1 1q0.25 1.4 1.3 2.5l0.1 0.1q1.4 1.35 3.35 1.4h2.65q2.25 0 3.85-1.6l0.05-0.05q1.4-1.4 1.6-3.35v-0.5q0-2.3-1.6-3.9t-3.9-1.6h-3.5v-2h9v-4h-13v10h7.5q0.6 0 1.05 0.45t0.45 1.05-0.4 1l-0.1 0.1m-18.5-8.6q0.8 0 1.4 0.6t0.6 1.4-0.55 1.35l-0.1 0.1q-0.55 0.55-1.35 0.55h-3v-4h3m-7-4v17h4v-5h3l2.5 5h4l-3.05-6.1 0.75-0.65 0.05-0.05q1.75-1.75 1.75-4.2 0-2.5-1.75-4.25t-4.25-1.75h-7" fill="#fff"/>
</svg>
