<?xml version="1.0" encoding="UTF-8"?>
<svg viewBox="0 0 64 64" xmlns="http://www.w3.org/2000/svg">
<path d="m56 30v6.5q-0.2 8-5.85 13.65t-13.65 5.85h-20.5q-8 0-8-8v-32q0-8 8-8h32q8 0 8 8v14m-14.5-1.6q0.75 0.75-0.5 2.05l-7 6.55v4h12v-4h-6l4.45-4.45q2.2-2.2 0.95-5.55l-1-1.35-0.05-0.05q-1.6-1.6-3.85-1.6h-1.65q-1.95 0.05-3.35 1.4l-0.1 0.1q-1.05 1.1-1.3 2.5l-0.1 1h4q0-0.4 0.3-0.7l0.55-0.3h1.65q0.6 0 1 0.4m-23.5-4.4v17h4v-5h3l2.5 5h4l-3.05-6.1 0.75-0.65 0.05-0.05q1.75-1.75 1.75-4.2 0-2.5-1.75-4.25t-4.25-1.75h-7m7 4q0.8 0 1.4 0.6t0.6 1.4-0.55 1.35l-0.1 0.1q-0.55 0.55-1.35 0.55h-3v-4h3" fill="#fff"/>
</svg>
