<?xml version="1.0" encoding="UTF-8" standalone="no"?>
<svg
   width="100px"
   height="100px"
   preserveAspectRatio="none"
   version="1.1"
   viewBox="0 0 100 100"
   id="svg16"
   xml:space="preserve"
   xmlns="http://www.w3.org/2000/svg"
   xmlns:svg="http://www.w3.org/2000/svg"><defs
     id="defs20" /><path
     id="path11906"
     style="fill:#d3d7cf;fill-opacity:1;stroke:#151515;stroke-width:4;stroke-linecap:round;stroke-opacity:1;stroke-dasharray:none"
     d="M 4.2105464,43.165399 C -0.16659361,54.920424 13.303236,58.262525 43.270836,70.500656 67.137146,80.247147 100.8599,84.172769 95.49448,65.581594 92.625969,55.642215 81.919594,24.24803 48.307166,23.294135 23.426216,22.588033 6.9854464,35.713267 4.2105464,43.165399 Z" /><path
     d="m 64.232803,41.14485 c 0,-1.857777 -0.321539,-3.429741 -0.964616,-4.715893 -0.643077,-1.214702 -1.500512,-2.179317 -2.572306,-2.893846 -1.071794,-0.785983 -2.357947,-1.32188 -3.85846,-1.607691 -1.429059,-0.285812 -2.965298,-0.428718 -4.608717,-0.428718 H 39.90307 v 31.832293 h 7.073842 V 50.576642 h 3.429743 l 6.645125,12.754353 h 8.467176 L 57.373318,49.826386 c 2.286495,-0.357264 4.001366,-1.357606 5.144613,-3.001025 1.143248,-1.571965 1.714872,-3.465469 1.714872,-5.68051 m -12.647174,-3.75128 c 0.571623,0 1.214699,0.03573 1.929229,0.107184 0.643077,0.07146 1.214701,0.250088 1.714873,0.535897 0.500171,0.285813 0.928888,0.643078 1.286151,1.071795 0.285813,0.500171 0.428719,1.143247 0.428719,1.92923 0,0.928888 -0.178632,1.607691 -0.535897,2.036408 -0.357265,0.500171 -0.82171,0.857436 -1.393334,1.071795 -0.571623,0.214359 -1.2147,0.357265 -1.929229,0.428717 -0.71453,0.07145 -1.393333,0.107173 -2.036409,0.107173 h -4.07282 v -7.2882 z"
     fill="#999999"
     id="path20293"
     style="stroke-width:2.14359;fill:#888a85" /></svg>
