<?xml version="1.0" encoding="UTF-8" standalone="no"?>
<svg
   width="100px"
   height="100px"
   preserveAspectRatio="none"
   version="1.1"
   viewBox="0 0 100 100"
   id="svg16"
   xmlns="http://www.w3.org/2000/svg"
   xmlns:svg="http://www.w3.org/2000/svg">
  <defs
     id="defs20" />
  <path
     style="fill:#c4a000;stroke:#151515;stroke-width:2.25159142;stroke-linecap:round;stroke-dasharray:none;stroke-opacity:1"
     id="path232"
     d="m -33.555269,53.388225 -17.464927,-7.007811 -7.394297,-17.304839 7.007811,-17.464927 17.304839,-7.3942969 17.464927,7.0078109 7.3942969,17.304839 -7.0078109,17.464927 z"
     transform="matrix(1.7765217,0,0,1.7765208,110.09717,-1.167879)" />
  <path
     d="m 66.810225,33.239775 c -4.616976,-4.641324 -10.218393,-6.96195 -16.80345,-6.96195 -6.561,0 -12.150243,2.320626 -16.767,6.96195 -2.771439,2.756932 -4.715464,5.855182 -5.832,9.29475 -0.753276,2.338195 -1.12995,4.828969 -1.12995,7.47225 0,2.65305 0.376653,5.143824 1.12995,7.47225 1.116536,3.463916 3.060561,6.574268 5.832,9.3312 4.616976,4.641324 10.206,6.96195 16.767,6.96195 6.585276,0 12.186693,-2.320626 16.80345,-6.96195 4.641324,-4.616976 6.96195,-10.218393 6.96195,-16.80345 0,-6.561 -2.320626,-12.150243 -6.96195,-16.767"
     fill="#4e4e4e"
     id="path4"
     style="fill:#fce94f;stroke-width:3;stroke:#edd400;stroke-dasharray:none" />
  <path
     id="path11348"
     style="color:#000000;fill:#c4a000;stroke-width:0.81;stroke-linecap:round;-inkscape-stroke:none"
     d="m 54.058383,35.007178 c -0.551847,-0.01154 -1.128799,-0.0084 -1.709058,-0.0084 -7.645337,-5e-6 -13.418789,6.991664 -13.418789,15.00398 0,8.012316 5.773452,15.003985 13.418789,15.003985 0.580259,0 1.162558,0.0059 1.708807,0.0061 l -0.0012,-6.481611 c -0.508498,-0.0062 -1.12727,-0.0045 -1.707654,-0.0045 -3.597704,7.2e-5 -6.938808,-3.541581 -6.938808,-8.523913 0,-4.982333 3.341104,-8.523984 6.938789,-8.523985 0.580385,0 1.153486,0.0046 1.706519,-6.2e-5 z" />
</svg>
