<?xml version="1.0" encoding="UTF-8" standalone="no"?>
<svg
   width="100px"
   height="100px"
   preserveAspectRatio="none"
   version="1.1"
   viewBox="0 0 100 100"
   id="svg24074"
   xmlns="http://www.w3.org/2000/svg"
   xmlns:svg="http://www.w3.org/2000/svg">
  <defs
     id="defs24078" />
  <g
     id="g24068" />
  <path
     d="m 46.47641,16.5 -7.65,17.7 h 4.25 l 1.5,-3.75 h 6.85 l 1.55,3.75 h 4.4 l -7.7,-17.7 z m -0.7,10.65 2.2,-5.5 2.15,5.5 z m 22.8,-10.4 c -0.8,-0.166667 -1.65,-0.25 -2.55,-0.25 h -6.85 v 17.7 h 3.9 v -7.1 h 1.9 l 3.7,7.1 h 4.7 l -4.5,-7.5 c 1.233333,-0.2 2.183333,-0.75 2.85,-1.65 0.633333,-0.866667 0.95,-1.933333 0.95,-3.2 0,-1.033333 -0.166667,-1.883333 -0.5,-2.55 -0.366667,-0.7 -0.85,-1.25 -1.45,-1.65 -0.6,-0.433333 -1.316667,-0.733333 -2.15,-0.9 m -5.5,7.05 v -4 h 2.55 c 0.366667,0 0.733333,0.01667 1.1,0.05 0.333333,0.06667 0.65,0.166667 0.95,0.3 0.266667,0.133333 0.5,0.333333 0.7,0.6 0.166667,0.3 0.25,0.666667 0.25,1.1 0,0.5 -0.1,0.866667 -0.3,1.1 -0.2,0.266667 -0.466667,0.466667 -0.8,0.6 -0.3,0.133333 -0.65,0.216667 -1.05,0.25 l -1.1,0 z m -36.15,-3.85 h 5.05 V 34.2 h 3.9 V 19.95 h 5.05 V 16.5 h -14 z m -1.25,-2.05 c -0.766667,-0.666667 -1.616667,-1.133333 -2.55,-1.4 -0.933333,-0.3 -1.9,-0.45 -2.9,-0.45 -0.866667,0 -1.716667,0.116667 -2.55,0.35 -0.8,0.233333 -1.516667,0.6 -2.15,1.1 -0.633333,0.466667 -1.133333,1.066667 -1.5,1.8 -0.366667,0.7 -0.55,1.533333 -0.55,2.5 0,0.966667 0.2,1.766667 0.6,2.4 0.433333,0.566667 0.95,1.05 1.55,1.45 0.633333,0.366667 1.3,0.65 2,0.85 0.733333,0.233333 1.4,0.45 2,0.65 0.633333,0.2 1.15,0.466667 1.55,0.8 0.4,0.3 0.6,0.716667 0.6,1.25 0,0.3 -0.06667,0.583333 -0.2,0.85 -0.166667,0.233333 -0.383333,0.416667 -0.65,0.55 -0.266667,0.166667 -0.55,0.283333 -0.85,0.35 -0.333333,0.06667 -0.666667,0.1 -1,0.1 -0.633333,0 -1.266667,-0.15 -1.9,-0.45 -0.6,-0.3 -1.1,-0.7 -1.5,-1.2 l -2.75,3.05 c 0.833333,0.766667 1.75,1.333333 2.75,1.7 0.966667,0.333333 2.033333,0.5 3.2,0.5 0.9,0 1.766667,-0.116667 2.6,-0.35 0.833333,-0.233333 1.55,-0.6 2.15,-1.1 0.633333,-0.466667 1.133333,-1.066667 1.5,-1.8 0.366667,-0.733333 0.55,-1.583333 0.55,-2.55 0,-1.033333 -0.2,-1.866667 -0.6,-2.5 -0.4,-0.633333 -0.9,-1.133333 -1.5,-1.5 -0.6,-0.366667 -1.25,-0.65 -1.95,-0.85 -0.7,-0.166667 -1.366667,-0.366667 -2,-0.6 -0.6,-0.166667 -1.1,-0.4 -1.5,-0.7 -0.4,-0.3 -0.6,-0.7 -0.6,-1.2 0,-0.333333 0.08333,-0.616667 0.25,-0.85 0.166667,-0.266667 0.383333,-0.466667 0.65,-0.6 0.266667,-0.133333 0.55,-0.233333 0.85,-0.3 0.3,-0.06667 0.6,-0.1 0.9,-0.1 0.466667,0 0.966667,0.1 1.5,0.3 0.566667,0.166667 1,0.45 1.3,0.85 z m 56.55,16.3 V 19.95 h 5.05 V 16.5 h -14 v 3.45 h 5.05 V 34.2 Z"
     fill="#1B1B1B"
     id="path24062"
     style="fill:#ffffff;stroke:#000000;stroke-opacity:1" />
  <ellipse
     style="fill:#d3d7cf;stroke:#888a85;stroke-width:4.19999;stroke-linecap:round;stroke-opacity:1"
     id="path24135"
     cx="50"
     cy="64.773003"
     rx="19.923506"
     ry="20.328007" />
</svg>
