<svg width="100" height="100" preserveAspectRatio="xMinYMin meet" version="1.1" viewBox="0 0 100 100" xmlns="http://www.w3.org/2000/svg">
 <path d="m54.35 41.1v-3.1 3.1m-10 5.9v14.4h19.5v-14.4h-19.5 19.5v14.4h-19.5v-14.4m5.65-24.2q11.3 0 19.25 7.95t7.95 19.25-7.95 19.25-19.25 7.95q-11.25 0-19.25-7.95-7.95-7.95-7.95-19.25t7.95-19.25q8-7.95 19.25-7.95m-11.7 29.6h-3.45 3.45m16.05-14.4h-19.5v14.4-14.4h19.5" fill="#4f4f4f"/>
 <path d="m50 22.8q-11.25 0-19.25 7.95-7.95 7.95-7.95 19.25t7.95 19.25q8 7.95 19.25 7.95 11.3 0 19.25-7.95t7.95-19.25-7.95-19.25-19.25-7.95m0-8.5q14.85 0 25.25 10.4 10.45 10.45 10.45 25.3 0 14.8-10.45 25.25-10.4 10.45-25.25 10.45-14.8 0-25.25-10.45t-10.45-25.25q0-14.85 10.45-25.3 10.45-10.4 25.25-10.4" fill="#313131"/>
 <g fill="none">
  <g stroke-linecap="round">
   <path d="m50 14.3q14.85 0 25.25 10.4 10.45 10.45 10.45 25.3 0 14.8-10.45 25.25-10.4 10.45-25.25 10.45-14.8 0-25.25-10.45t-10.45-25.25q0-14.85 10.45-25.3 10.45-10.4 25.25-10.4" stroke="#1b1b1b" stroke-linejoin="round" stroke-width="5"/>
   <path d="m50 22.8q11.3 0 19.25 7.95t7.95 19.25-7.95 19.25-19.25 7.95q-11.25 0-19.25-7.95-7.95-7.95-7.95-19.25t7.95-19.25q8-7.95 19.25-7.95" stroke="#626262" stroke-linejoin="round" stroke-width="4"/>
   <path d="m44.35 47h19.5v14.4h-19.5v-14.4m-9.5 5.4v-14.4h19.5" stroke="#999" stroke-miterlimit="3" stroke-width="4"/>
  </g>
  <path d="m54.35 38v3.1m-19.5 11.3h3.45" stroke="#999" stroke-linecap="square" stroke-miterlimit="3" stroke-width="4"/>
 </g>
</svg>
