<?xml version="1.0" encoding="UTF-8" standalone="no"?>
<svg
   width="100"
   height="100"
   viewBox="0 0 100 100"
   preserveAspectRatio="xMinYMin meet"
   version="1.1"
   id="svg14"
   sodipodi:docname="XboxSeriesX_Dpad_Left.svg"
   inkscape:version="1.3 (0e150ed6c4, 2023-07-21)"
   xmlns:inkscape="http://www.inkscape.org/namespaces/inkscape"
   xmlns:sodipodi="http://sodipodi.sourceforge.net/DTD/sodipodi-0.dtd"
   xmlns="http://www.w3.org/2000/svg"
   xmlns:svg="http://www.w3.org/2000/svg">
  <sodipodi:namedview
     id="namedview14"
     pagecolor="#ffffff"
     bordercolor="#666666"
     borderopacity="1.0"
     inkscape:showpageshadow="2"
     inkscape:pageopacity="0.0"
     inkscape:pagecheckerboard="0"
     inkscape:deskcolor="#d1d1d1"
     showguides="true"
     inkscape:lockguides="false"
     inkscape:zoom="8.61"
     inkscape:cx="55.574913"
     inkscape:cy="48.83856"
     inkscape:window-width="1920"
     inkscape:window-height="1057"
     inkscape:window-x="-8"
     inkscape:window-y="-8"
     inkscape:window-maximized="1"
     inkscape:current-layer="svg14">
    <sodipodi:guide
       position="49.941928,100.23229"
       orientation="1,0"
       id="guide14"
       inkscape:locked="false" />
    <sodipodi:guide
       position="99.767712,50.058072"
       orientation="0,-1"
       id="guide15"
       inkscape:locked="false" />
  </sodipodi:namedview>
  <defs
     id="defs8">
    <linearGradient
       gradientUnits="userSpaceOnUse"
       x1="-819.2"
       x2="819.2"
       spreadMethod="pad"
       gradientTransform="matrix(0,0.00523376,-0.05511475,0,50.5,69.45)"
       id="gradient0">
      <stop
         offset="0"
         stop-color="#313131"
         id="stop1" />
      <stop
         offset="1"
         stop-color="#d7d7d7"
         id="stop2" />
    </linearGradient>
    <linearGradient
       gradientUnits="userSpaceOnUse"
       x1="-819.2"
       x2="819.2"
       spreadMethod="pad"
       gradientTransform="matrix(0,0.00524902,-0.04595947,0,49.9,62.7)"
       id="gradient1">
      <stop
         offset="0"
         stop-color="#4f4f4f"
         id="stop3" />
      <stop
         offset="1"
         stop-color="#f5f5f5"
         id="stop4" />
    </linearGradient>
    <linearGradient
       gradientUnits="userSpaceOnUse"
       x1="-819.2"
       x2="819.2"
       spreadMethod="pad"
       gradientTransform="matrix(0,0.00382996,-0.06408691,0,45.3,65.1)"
       id="gradient2">
      <stop
         offset="0"
         stop-color="#626262"
         id="stop5" />
      <stop
         offset="1"
         stop-color="#ffffff"
         id="stop6" />
    </linearGradient>
    <linearGradient
       gradientUnits="userSpaceOnUse"
       x1="-819.2"
       x2="819.2"
       spreadMethod="pad"
       gradientTransform="matrix(0,0.01074219,-0.06408691,0,45.65,78.95)"
       id="gradient3">
      <stop
         offset="0"
         stop-color="#1b1b1b"
         id="stop7" />
      <stop
         offset="1"
         stop-color="#404040"
         id="stop8" />
    </linearGradient>
  </defs>
  <g
     id="g14"
     transform="rotate(90,50,50.075)">
    <circle
       style="opacity:1;fill:#282828;fill-opacity:1;stroke:none;stroke-width:2;stroke-dasharray:none;stroke-opacity:1;paint-order:markers fill stroke"
       id="path15"
       cx="50.058071"
       cy="49.941929"
       r="44.947735"
       inkscape:label="path15" />
    <path
       stroke="none"
       fill="#1b1b1b"
       d="m 67.6,8.35 q 7.85,3.25 14.35,9.75 6.5,6.5 9.75,14.35 H 67.6 V 8.35 M 91.8,67.6 q -3.3,7.9 -9.85,14.45 -6.5,6.5 -14.35,9.8 V 67.6 H 91.8 M 32.45,91.85 q -7.9,-3.3 -14.4,-9.8 Q 11.5,75.5 8.2,67.6 H 32.45 V 91.85 M 8.25,32.45 q 3.3,-7.85 9.8,-14.35 6.5,-6.5 14.4,-9.75 v 24.1 H 8.25 M 20.5,20.6 q -3.9,3.9 -6.55,8.35 h 15 V 14 q -4.5,2.65 -8.45,6.6 m 58.95,0 Q 75.55,16.65 71.1,14 V 28.95 H 86.05 Q 83.4,24.5 79.45,20.6 M 28.95,86.15 V 71.1 h -15.1 q 2.7,4.5 6.65,8.5 3.95,3.9 8.45,6.55 m 50.5,-6.55 q 4,-4 6.65,-8.5 h -15 v 15.05 q 4.45,-2.65 8.35,-6.55"
       id="path8" />
    <path
       stroke="none"
       fill="url(#gradient0)"
       d="m 91.7,32.45 q 3.45,8.1 3.45,17.65 0,9.45 -3.35,17.5 H 67.6 V 91.85 Q 59.5,95.2 50,95.2 40.5,95.2 32.45,91.85 V 67.6 H 8.2 Q 4.85,59.55 4.85,50.1 q 0,-9.55 3.4,-17.65 h 24.2 V 8.35 Q 40.5,4.95 50,4.95 q 9.5,0 17.6,3.4 v 24.1 h 24.1 m -5.3,7.5 H 67.6 q -3.1,0 -5.3,-2.2 -2.2,-2.2 -2.2,-5.3 V 13.7 Q 55.3,12.45 50,12.45 q -5.3,0 -10.05,1.25 v 18.75 q 0,3.1 -2.2,5.3 -2.2,2.2 -5.3,2.2 H 13.6 q -1.25,4.8 -1.25,10.15 0,5.25 1.2,10 h 18.9 q 3.1,0 5.3,2.2 2.2,2.2 2.2,5.3 V 86.45 Q 44.7,87.7 50,87.7 q 5.3,0 10.1,-1.25 V 67.6 q 0,-3.1 2.2,-5.3 2.2,-2.2 5.3,-2.2 h 18.8 q 1.25,-4.75 1.25,-10 0,-5.35 -1.25,-10.15"
       id="path10"
       style="fill:url(#gradient0)" />
    <path
       stroke="none"
       fill="url(#gradient1)"
       d="m 86.4,39.95 q 1.25,4.8 1.25,10.15 0,5.25 -1.25,10 H 67.6 q -3.1,0 -5.3,2.2 -2.2,2.2 -2.2,5.3 V 86.45 Q 55.3,87.7 50,87.7 44.7,87.7 39.95,86.45 V 67.6 q 0,-3.1 -2.2,-5.3 -2.2,-2.2 -5.3,-2.2 h -18.9 q -1.2,-4.75 -1.2,-10 0,-5.35 1.25,-10.15 h 18.85 q 3.1,0 5.3,-2.2 2.2,-2.2 2.2,-5.3 V 13.7 Q 44.7,12.45 50,12.45 q 5.3,0 10.1,1.25 v 18.75 q 0,3.1 2.2,5.3 2.2,2.2 5.3,2.2 h 18.8"
       id="path11"
       style="fill:url(#gradient1)" />
    <path
       fill="none"
       stroke="#1b1b1b"
       stroke-width="5"
       stroke-linecap="round"
       stroke-linejoin="round"
       d="m 67.6,8.35 q 7.85,3.25 14.35,9.75 6.5,6.5 9.75,14.35 3.45,8.1 3.45,17.65 0,9.45 -3.35,17.5 -3.3,7.9 -9.85,14.45 -6.5,6.5 -14.35,9.8 m -35.15,0 q -7.9,-3.3 -14.4,-9.8 Q 11.5,75.5 8.2,67.6 4.85,59.55 4.85,50.1 q 0,-9.55 3.4,-17.65 3.3,-7.85 9.8,-14.35 6.5,-6.5 14.4,-9.75 8.05,-3.4 17.55,-3.4 9.5,0 17.6,3.4 v 24.1 H 91.7 M 32.45,8.35 v 24.1 H 8.25 M 32.45,67.6 H 8.2 m 59.4,0 h 24.2"
       id="path12" />
    <path
       fill="none"
       stroke="url(#gradient2)"
       stroke-width="4"
       stroke-linecap="round"
       stroke-linejoin="round"
       d="m 86.4,39.95 q 1.25,4.8 1.25,10.15 0,5.25 -1.25,10 H 67.6 q -3.1,0 -5.3,2.2 -2.2,2.2 -2.2,5.3 V 86.45 Q 55.3,87.7 50,87.7 44.7,87.7 39.95,86.45 V 67.6 q 0,-3.1 -2.2,-5.3 -2.2,-2.2 -5.3,-2.2 h -18.9 q -1.2,-4.75 -1.2,-10 0,-5.35 1.25,-10.15 h 18.85 q 3.1,0 5.3,-2.2 2.2,-2.2 2.2,-5.3 V 13.7 Q 44.7,12.45 50,12.45 q 5.3,0 10.1,1.25 v 18.75 q 0,3.1 2.2,5.3 2.2,2.2 5.3,2.2 h 18.8"
       id="path13"
       style="display:inline;stroke:url(#gradient2)" />
    <path
       fill="none"
       stroke="url(#gradient3)"
       stroke-width="5"
       stroke-linecap="round"
       stroke-linejoin="round"
       d="M 67.6,91.85 Q 59.5,95.2 50,95.2 40.5,95.2 32.45,91.85 V 67.6 M 67.6,91.85 V 67.6"
       id="path14"
       style="stroke:url(#gradient3)" />
  </g>
</svg>
