<svg width="100" height="100" preserveAspectRatio="xMinYMin meet" version="1.1" viewBox="0 0 100 100" xmlns="http://www.w3.org/2000/svg">
 <defs>
  <linearGradient id="gradient0" x1="-819.2" x2="819.2" gradientTransform="matrix(0 .0052338 -.055115 0 50.5 69.45)" gradientUnits="userSpaceOnUse">
   <stop stop-color="#313131" offset="0"/>
   <stop stop-color="#d7d7d7" offset="1"/>
  </linearGradient>
  <linearGradient id="gradient1" x1="-819.2" x2="819.2" gradientTransform="matrix(0 .005249 -.045959 0 49.9 62.7)" gradientUnits="userSpaceOnUse">
   <stop stop-color="#4f4f4f" offset="0"/>
   <stop stop-color="#f5f5f5" offset="1"/>
  </linearGradient>
  <linearGradient id="gradient2" x1="-819.2" x2="819.2" gradientTransform="matrix(0 .00383 -.064087 0 45.3 65.1)" gradientUnits="userSpaceOnUse">
   <stop stop-color="#626262" offset="0"/>
   <stop stop-color="#fff" offset="1"/>
  </linearGradient>
  <linearGradient id="gradient3" x1="-819.2" x2="819.2" gradientTransform="matrix(0 .010742 -.064087 0 45.65 78.95)" gradientUnits="userSpaceOnUse">
   <stop stop-color="#1b1b1b" offset="0"/>
   <stop stop-color="#404040" offset="1"/>
  </linearGradient>
 </defs>
 <g transform="matrix(0 1 1 0 -.075 .075)">
  <circle cx="50.058" cy="49.942" r="44.948" fill="#282828" style="paint-order:markers fill stroke"/>
  <g>
   <path d="m67.6 8.35q7.85 3.25 14.35 9.75t9.75 14.35h-24.1v-24.1m24.2 59.25q-3.3 7.9-9.85 14.45-6.5 6.5-14.35 9.8v-24.25h24.2m-59.35 24.25q-7.9-3.3-14.4-9.8-6.55-6.55-9.85-14.45h24.25v24.25m-24.2-59.4q3.3-7.85 9.8-14.35t14.4-9.75v24.1h-24.2m12.25-11.85q-3.9 3.9-6.55 8.35h15v-14.95q-4.5 2.65-8.45 6.6m58.95 0q-3.9-3.95-8.35-6.6v14.95h14.95q-2.65-4.45-6.6-8.35m-50.5 65.55v-15.05h-15.1q2.7 4.5 6.65 8.5 3.95 3.9 8.45 6.55m50.5-6.55q4-4 6.65-8.5h-15v15.05q4.45-2.65 8.35-6.55" fill="#1b1b1b"/>
   <path d="m91.7 32.45q3.45 8.1 3.45 17.65 0 9.45-3.35 17.5h-24.2v24.25q-8.1 3.35-17.6 3.35t-17.55-3.35v-24.25h-24.25q-3.35-8.05-3.35-17.5 0-9.55 3.4-17.65h24.2v-24.1q8.05-3.4 17.55-3.4t17.6 3.4v24.1h24.1m-5.3 7.5h-18.8q-3.1 0-5.3-2.2t-2.2-5.3v-18.75q-4.8-1.25-10.1-1.25t-10.05 1.25v18.75q0 3.1-2.2 5.3t-5.3 2.2h-18.85q-1.25 4.8-1.25 10.15 0 5.25 1.2 10h18.9q3.1 0 5.3 2.2t2.2 5.3v18.85q4.75 1.25 10.05 1.25t10.1-1.25v-18.85q0-3.1 2.2-5.3t5.3-2.2h18.8q1.25-4.75 1.25-10 0-5.35-1.25-10.15" fill="url(#gradient0)"/>
   <path d="m86.4 39.95q1.25 4.8 1.25 10.15 0 5.25-1.25 10h-18.8q-3.1 0-5.3 2.2t-2.2 5.3v18.85q-4.8 1.25-10.1 1.25t-10.05-1.25v-18.85q0-3.1-2.2-5.3t-5.3-2.2h-18.9q-1.2-4.75-1.2-10 0-5.35 1.25-10.15h18.85q3.1 0 5.3-2.2t2.2-5.3v-18.75q4.75-1.25 10.05-1.25t10.1 1.25v18.75q0 3.1 2.2 5.3t5.3 2.2h18.8" fill="url(#gradient1)"/>
  </g>
  <g fill="none" stroke-linecap="round" stroke-linejoin="round">
   <path d="m67.6 8.35q7.85 3.25 14.35 9.75t9.75 14.35q3.45 8.1 3.45 17.65 0 9.45-3.35 17.5-3.3 7.9-9.85 14.45-6.5 6.5-14.35 9.8m-35.15 0q-7.9-3.3-14.4-9.8-6.55-6.55-9.85-14.45-3.35-8.05-3.35-17.5 0-9.55 3.4-17.65 3.3-7.85 9.8-14.35t14.4-9.75q8.05-3.4 17.55-3.4t17.6 3.4v24.1h24.1m-59.25-24.1v24.1h-24.2m24.2 35.15h-24.25m59.4 0h24.2" stroke="#1b1b1b" stroke-width="5"/>
   <path d="m86.4 39.95q1.25 4.8 1.25 10.15 0 5.25-1.25 10h-18.8q-3.1 0-5.3 2.2t-2.2 5.3v18.85q-4.8 1.25-10.1 1.25t-10.05-1.25v-18.85q0-3.1-2.2-5.3t-5.3-2.2h-18.9q-1.2-4.75-1.2-10 0-5.35 1.25-10.15h18.85q3.1 0 5.3-2.2t2.2-5.3v-18.75q4.75-1.25 10.05-1.25t10.1 1.25v18.75q0 3.1 2.2 5.3t5.3 2.2h18.8" stroke="url(#gradient2)" stroke-width="4"/>
   <path d="m67.6 91.85q-8.1 3.35-17.6 3.35t-17.55-3.35v-24.25m35.15 24.25v-24.25" stroke="url(#gradient3)" stroke-width="5"/>
  </g>
 </g>
</svg>
