<?xml version="1.0" encoding="UTF-8"?>
<svg preserveAspectRatio="xMinYMin meet" version="1.1" viewBox="0 0 100 100" xmlns="http://www.w3.org/2000/svg">
<path d="m65.55 22.85q8.75 0 15.5 4.75l3.75 3.2q7.9 7.95 7.9 19.2 0 11.3-7.9 19.25l-3.75 3.2q-6.75 4.75-15.5 4.75h-31.15q-11.2-0.05-19.1-7.95-2.85-2.85-4.65-6.1-3.35-5.85-3.35-13.15t3.35-13.15q1.8-3.25 4.65-6.05 7.9-7.9 19.1-7.95h31.15m-0.1 6.5h-31.05q-8.5 0-14.55 6.05t-6.05 14.6q0 8.6 6.05 14.65t14.55 6.05h31.15q8.6 0 14.65-6.05l0.85-0.9q5.2-5.75 5.2-13.75 0-7.95-5.2-13.7l-0.85-0.9q-6.05-6.05-14.65-6.05h-0.1" fill="#313131"/>
<path d="m65.45 29.35h0.1c5.7333 0 10.617 2.0167 14.65 6.05l0.85 0.9c3.4667 3.8333 5.2 8.4 5.2 13.7 0 5.3333-1.7333 9.9167-5.2 13.75l-0.85 0.9c-4.0333 4.0333-8.9167 6.05-14.65 6.05h-31.15c-5.6667 0-10.517-2.0167-14.55-6.05s-6.05-8.9167-6.05-14.65c0-5.7 2.0167-10.567 6.05-14.6s8.8833-6.05 14.55-6.05h31.05" fill="#4f4f4f"/>
<g fill="none">
<path d="m65.45 29.35h0.1q8.6 0 14.65 6.05l0.85 0.9q5.2 5.75 5.2 13.7 0 8-5.2 13.75l-0.85 0.9q-6.05 6.05-14.65 6.05h-31.15q-8.5 0-14.55-6.05t-6.05-14.65q0-8.55 6.05-14.6t14.55-6.05h31.05" stroke="#626262" stroke-linecap="round" stroke-linejoin="round" stroke-width="4"/>
<path d="m65.55 22.85q8.75 0 15.5 4.75l3.75 3.2q7.9 7.95 7.9 19.2 0 11.3-7.9 19.25l-3.75 3.2q-6.75 4.75-15.5 4.75m-0.1 0h-31.05q-11.2-0.05-19.1-7.95-2.85-2.85-4.65-6.1-3.35-5.85-3.35-13.15t3.35-13.15q1.8-3.25 4.65-6.05 7.9-7.9 19.1-7.95h31.05" stroke="#1b1b1b" stroke-linecap="round" stroke-linejoin="round" stroke-width="5"/>
<path d="m55.65 43.75-5.6-5.65-5.65 5.65m-11.25 6.4v10.8h33.8v-10.8m-16.95 1.95v-9.3" stroke="#999" stroke-linecap="square" stroke-miterlimit="3" stroke-width="4"/>
</g>
</svg>
