<?xml version="1.0" encoding="UTF-8"?>
<svg preserveAspectRatio="xMinYMin meet" version="1.1" viewBox="0 0 100 100" xmlns="http://www.w3.org/2000/svg">
<path d="m50 22.8q-11.25 0-19.25 7.95-7.95 7.95-7.95 19.25t7.95 19.25q8 7.95 19.25 7.95 11.3 0 19.25-7.95t7.95-19.25-7.95-19.25-19.25-7.95m0-8.5q14.85 0 25.25 10.4 10.45 10.45 10.45 25.3 0 14.8-10.45 25.25-10.4 10.45-25.25 10.45-14.8 0-25.25-10.45t-10.45-25.25q0-14.85 10.45-25.3 10.45-10.4 25.25-10.4" fill="#313131"/>
<path d="m50 22.8q11.3 0 19.25 7.95t7.95 19.25-7.95 19.25-19.25 7.95q-11.25 0-19.25-7.95-7.95-7.95-7.95-19.25t7.95-19.25q8-7.95 19.25-7.95m-12.1 17.1h24.35-24.35m0 20.7h24.35-24.35m0-10.45h24.35-24.35" fill="#4f4f4f"/>
<g fill="none" stroke-linejoin="round">
<path d="m50 14.3q14.85 0 25.25 10.4 10.45 10.45 10.45 25.3 0 14.8-10.45 25.25-10.4 10.45-25.25 10.45-14.8 0-25.25-10.45t-10.45-25.25q0-14.85 10.45-25.3 10.45-10.4 25.25-10.4" stroke="#1b1b1b" stroke-linecap="round" stroke-width="5"/>
<path d="m50 22.8q11.3 0 19.25 7.95t7.95 19.25-7.95 19.25-19.25 7.95q-11.25 0-19.25-7.95-7.95-7.95-7.95-19.25t7.95-19.25q8-7.95 19.25-7.95" stroke="#626262" stroke-linecap="round" stroke-width="4"/>
<path d="m62.25 50.15h-24.35m24.35 10.45h-24.35m24.35-20.7h-24.35" stroke="#999" stroke-linecap="square" stroke-width="5"/>
</g>
</svg>
