<svg width="64" height="64" xmlns="http://www.w3.org/2000/svg" xmlns:xlink="http://www.w3.org/1999/xlink">
  <defs/>
  <g>
    <path stroke="none" fill="#FFFFFF" d="M23.45 47.35 Q22.35 42.95 20.1 39.1 17.85 35.25 14.65 32.05 11.1 28.45 11.2 23.45 11.3 18.35 14.8 14.85 L16.8 13.35 22.3 10.15 Q24.75 8.9 27.85 8.85 32.8 8.8 36.45 12.4 41.85 17.9 45.6 24.4 49.4 30.85 51.4 38.35 52.7 43.2 50.15 47.55 48.6 50.15 46.25 51.7 L40.75 54.9 38.45 55.8 Q33.65 57.1 29.25 54.7 24.85 52.2 23.45 47.35 M27.8 24 L25 26.8 29.7 31.5 25 36.2 27.8 39 32 34.8 36.2 39 39 36.2 34.3 31.5 39 26.8 36.2 24 32 28.2 27.8 24"/>
  </g>
</svg>