<svg width="64" height="64" xmlns="http://www.w3.org/2000/svg" xmlns:xlink="http://www.w3.org/1999/xlink">
  <defs/>
  <g>
    <path stroke="none" fill="#FFFFFF" d="M44.8 44.1 Q40.2 44.1 35.95 45.25 31.6 46.4 27.7 48.7 23.3 51.1 18.45 49.8 13.6 48.35 11.15 44.05 L10.15 41.75 8.5 35.6 Q7.95 32.95 8.65 29.95 9.95 25.15 14.3 22.55 21.05 18.7 28.25 16.85 35.5 14.85 43.25 14.8 48.35 14.85 51.85 18.35 53.95 20.55 54.8 23.2 L56.45 29.35 56.75 31.85 Q56.75 36.8 53.3 40.45 49.8 44 44.8 44.1 M31 39 L35 39 35 31.8 40 26.8 37.2 24 33 28.2 28.8 24 26 26.8 31 31.8 31 39"/>
  </g>
</svg>