<svg width="64" height="64" xmlns="http://www.w3.org/2000/svg" xmlns:xlink="http://www.w3.org/1999/xlink">
  <defs/>
  <g>
    <path stroke="none" fill="#FFFFFF" d="M31.35 10 L32.65 10 Q42.15 10.2 48.95 17 55.65 23.7 56 32.95 L56 46 Q56 54 48 54 L16 54 Q8 54 8 46 L8 32.95 Q8.35 23.7 15.05 17 21.85 10.2 31.35 10 M26 25 L26 42 30 42 30 37 33 37 35.5 42 39.5 42 36.45 35.9 37.2 35.25 37.25 35.2 38.2 34 Q39 32.65 39 31 39 28.5 37.25 26.75 L36.35 26 Q34.9 25 33 25 L26 25 M33 29 Q33.8 29 34.4 29.6 35 30.2 35 31 35 31.8 34.45 32.35 L34.35 32.45 Q33.8 33 33 33 L30 33 30 29 33 29"/>
  </g>
</svg>