<?xml version="1.0" encoding="UTF-8"?>
<svg preserveAspectRatio="none" version="1.1" viewBox="0 0 100 100" xmlns="http://www.w3.org/2000/svg">
<defs>
<linearGradient id="a" x1="50" x2="50" y1="8.5" y2="33" gradientUnits="userSpaceOnUse">
<stop stop-color="#404040" offset="0"/>
<stop stop-color="#1B1B1B" offset="1"/>
</linearGradient>
</defs>
<g transform="rotate(90 49.997 49.997)">
<path d="m87.9 32.35c-0.21927-0.0181-0.43594-0.0181-0.65 0h-74.5c-0.21471-0.02305-0.44805-0.02305-0.7 0-0.01719 0.02643-0.05052 0.0431-0.1 0.05-0.05221 0.0112-0.11888 0.02787-0.2 0.05-4.1793 0.93867-6.5293 3.3553-7.05 7.25l-0.05 0.15c0.010287 0.04453 0.010287 0.07787 0 0.1-0.013021 0.17109-0.013021 0.32109 0 0.45v19.15c-0.017187 0.22031-0.017187 0.43698 0 0.65 0.022787 0.04089 0.039453 0.07422 0.05 0.1 0.60573 3.7556 2.9057 6.1556 6.9 7.2 0.27409 0.10104 0.57409 0.15104 0.9 0.15h19.85v19.55c-0.02318 0.24753-0.02318 0.48086 0 0.7 0.02643 0.05078 0.0431 0.08411 0.05 0.1 0.0112 0.08542 0.02787 0.15208 0.05 0.2 0.93542 4.1992 3.3354 6.5659 7.2 7.1 0.07852 0.0099 0.14518 0.0099 0.2 0 0.11875 0.03359 0.23542 0.05026 0.35 0.05 0.02123 3.91e-4 0.03789 3.91e-4 0.05 0h19.3c0.22253 0.01693 0.43919 2.6e-4 0.65-0.05h0.1c3.7555-0.60586 6.1555-2.9059 7.2-6.9 0.10104-0.27409 0.15104-0.57409 0.15-0.9v-19.85h19.85c0.32552 0.0011 0.62552-0.04893 0.9-0.15 3.9941-1.0443 6.2941-3.4443 6.9-7.2v-0.1c0.05026-0.21081 0.06693-0.42747 0.05-0.65v-19.3c3.91e-4 -0.01211 3.91e-4 -0.02877 0-0.05 2.61e-4 -0.11458-0.01641-0.23125-0.05-0.35v-0.15c-0.52226-3.9055-2.8889-6.3221-7.1-7.25-0.03242-0.0095-0.06575-0.02617-0.1-0.05-0.02761 0.0047-0.06094 0.0047-0.1 0z" fill="#1b1b1b"/>
<path d="m36.35 36.85c-0.42878 0.33529-0.92878 0.50195-1.5 0.5h-22.05c-1.7794 0.43607-2.8294 1.4527-3.15 3.05v19.1c0.34805 1.6094 1.3814 2.6594 3.1 3.15h22.1c0.69271-0.0025 1.276 0.23087 1.75 0.7 0.50234 0.50716 0.75234 1.1072 0.75 1.8v22.05c0.4362 1.7801 1.4529 2.8301 3.05 3.15h19.1c1.6091-0.34753 2.6591-1.3975 3.15-3.15v-22.05c-0.0025-0.69284 0.23087-1.2928 0.7-1.8 0.50716-0.46914 1.1072-0.70247 1.8-0.7h22.05c1.7526-0.49076 2.8026-1.5408 3.15-3.15v-19.1c-0.32018-1.5971-1.3702-2.6138-3.15-3.05h-22.05c-0.57135 0.0019-1.0714-0.16473-1.5-0.5z" fill="#313131"/>
<path d="m67.65 12.5q0.0016-0.48887-0.15-0.9-1.5666-5.9914-7.2-6.9-0.03867-0.01582-0.1-0.05-0.31953-0.025781-0.65 0h-19.25q-0.05527-7.813e-4 -0.1 0-0.17188-3.906e-4 -0.35 0l-0.15 0.05q-5.8641 0.78418-7.25 7.1l-0.05 0.1q0.0072 0.0375 0 0.05l-0.05 0.15q-0.02715 0.3291 0 0.65v19.6h-2.5q3.0525 2.7459 6.5 4.5 0.1459-0.09727 0.25-0.25 0.75352-0.71094 0.75-1.75v-22.05q0.6541-2.6691 3.05-3.15h19.1q2.4141 0.52207 3.15 3.1v22.1q-0.0037 1.0391 0.7 1.75 0.1541 0.15273 0.3 0.25 3.4473-1.7539 6.45-4.5h-2.45z" fill="url(#a)"/>
<path d="m86.85 42.35c-0.0022-0.40768-0.15221-0.75768-0.45-1.05v-0.05c-0.29219-0.26458-0.64219-0.39792-1.05-0.4h-20.2c-1.6594 0.002213-3.076-0.58112-4.25-1.75-0.24883-0.24987-0.48216-0.51654-0.7-0.8-3.1564 1.1333-6.5564 1.7-10.2 1.7-3.6438 0-7.0604-0.56667-10.25-1.7-0.18464 0.28346-0.4013 0.55013-0.65 0.8-1.1742 1.169-2.5909 1.7523-4.25 1.75h-20.2c-0.40781 0.0021-0.75781 0.1354-1.05 0.4l-0.05 0.05c-0.26458 0.29219-0.39792 0.64219-0.4 1.05v15.3c0.0021 0.40781 0.1354 0.75781 0.4 1.05h0.05c0.29232 0.29779 0.64232 0.44779 1.05 0.45h20.2c1.6591-0.0026 3.0758 0.58073 4.25 1.75 1.1689 1.174 1.7522 2.5906 1.75 4.25v20.2c0.0021 0.40781 0.1354 0.75781 0.4 1.05h0.05c0.29232 0.29779 0.64232 0.44779 1.05 0.45h15.3c0.40781-0.0022 0.75781-0.1522 1.05-0.45 0.29779-0.29219 0.44779-0.64219 0.45-1.05v-20.2c-0.0025-1.6595 0.58087-3.0762 1.75-4.25 1.1738-1.1691 2.5905-1.7525 4.25-1.75h20.2c0.40781-0.0022 0.75781-0.1522 1.05-0.45 0.29779-0.29219 0.44779-0.64219 0.45-1.05v-15.3" fill="#4f4f4f"/>
<path d="m74.05 44.95v10.15l8.95-5.1-8.95-5.05m-19 29.1h-10.15l5.1 8.95 5.05-8.95m-38.05-24.05 8.95 5.1v-10.15z" fill="#9a9a9a"/>
<path d="m60.2 38.3c1.1927-0.40156 2.3427-0.8849 3.45-1.45-0.09727-0.06485-0.19726-0.14818-0.3-0.25-0.46914-0.47396-0.70247-1.0573-0.7-1.75v-22.1c-0.49062-1.7186-1.5406-2.752-3.15-3.1h-19.1c-1.5973 0.32057-2.6139 1.3706-3.05 3.15v22.05c0.0023 0.69271-0.24767 1.276-0.75 1.75-0.0694 0.10182-0.15274 0.18516-0.25 0.25 1.1073 0.5651 2.2406 1.0484 3.4 1.45z" fill="#d7d7d7"/>
<path d="m41.25 13.6c-0.26458 0.29219-0.39792 0.64219-0.4 1.05v20.2c0.0018 1.3061-0.36487 2.4561-1.1 3.45 3.1896 1.1333 6.6062 1.7 10.25 1.7 3.6436 0 7.0436-0.56667 10.2-1.7-0.70208-0.99388-1.0521-2.1439-1.05-3.45v-20.2c-0.0022-0.40768-0.15221-0.75768-0.45-1.05v-0.05c-0.29219-0.26458-0.64219-0.39792-1.05-0.4h-15.3c-0.40781 0.0021-0.75781 0.1354-1.05 0.4l-0.05 0.05" fill="#f5f5f5"/>
<path d="m44.9 25.95h10.15l-5.05-8.95-5.1 8.95" fill="#1b1b1b"/>
</g>
</svg>
