<?xml version="1.0" encoding="UTF-8"?>
<svg version="1.1" viewBox="0 0 64 64" xmlns="http://www.w3.org/2000/svg">
<g stroke-linecap="round" stroke-linejoin="round">
<path d="m32 4c-7.3904 0-14.085 2.1884-19.502 6.5293-0.01243 0.0097-0.0248 0.01946-0.03711 0.0293-5.3697 4.4109-8.4609 10.342-8.4609 16.842v3.25c0 6.5229 3.1022 12.451 8.4941 16.768 0.0018 0.0015 4e-3 0.0024 0.0059 0.0039 7.39e-4 5.91e-4 0.0012 0.0014 2e-3 2e-3 1.4329 1.1507 2.9753 2.0997 4.5645 2.9531 0.18218 3.2247 2.5314 5.9107 5.2871 7.3945 2.8451 1.532 6.1279 2.2285 9.6464 2.2285 3.5407 0 6.8256-0.68975 9.6562-2.2344 2.7532-1.4858 5.098-4.1711 5.2773-7.3945 1.5791-0.85271 3.1073-1.8005 4.5176-2.9512 5.422-4.313 8.5488-10.241 8.5488-16.77v-3.25c0-6.5083-3.1174-12.442-8.5215-16.85l-0.0059-0.0039c-5.3619-4.359-12.053-6.5469-19.473-6.5469z" color="#000000" style="-inkscape-stroke:none;paint-order:stroke markers fill"/>
<path d="m44.15 19c2.3667 2 3.65 4.3167 3.85 6.95v0.1c-0.2 2.6333-1.4667 4.9167-3.8 6.85l-0.2 0.15c-3.3 2.6333-7.3 3.95-12 3.95-4.7667 0-8.8333-1.35-12.2-4.05l-0.1-0.05c-2.2667-1.9333-3.5-4.2-3.7-6.8v-0.05c0.16667-2.7 1.45-5.05 3.85-7.05l0.1-0.1c3.3667-2.6 7.3833-3.9 12.05-3.9 4.7667 0 8.8333 1.3333 12.2 4h-0.05m-1.15 31c0 1.6667-1.0833 3.0833-3.25 4.25-2.1333 1.1667-4.7167 1.75-7.75 1.75-3 0-5.5833-0.58333-7.75-1.75s-3.25-2.5833-3.25-4.25v-2.1c-2.1333-0.9-4.1333-2.1-6-3.6-4.6667-3.7333-7-8.2833-7-13.65v-3.25c0-5.3333 2.3333-9.9167 7-13.75 4.7-3.7667 10.367-5.65 17-5.65 6.6667 0 12.317 1.8833 16.95 5.65 4.7 3.8333 7.05 8.4167 7.05 13.75v3.25c0 5.3667-2.35 9.9167-7.05 13.65-1.8333 1.5-3.8167 2.7-5.95 3.6v2.1m-12-30h-3v13h9v-3h-6zm-19 7.4c0.06667 4.0333 1.8667 7.45 5.4 10.25 4.0333 3.2333 8.9 4.85 14.6 4.85s10.55-1.6 14.55-4.8l0.05-0.05c3.5333-2.8333 5.3333-6.25 5.4-10.25-0.1-4-1.9167-7.4333-5.45-10.3-4-3.2-8.85-4.8-14.55-4.8s-10.567 1.6-14.6 4.8h0.05c-3.5333 2.8667-5.35 6.3-5.45 10.3" color="#000000" fill="#fff" stroke-width="8" style="-inkscape-stroke:none;paint-order:stroke markers fill"/>
<path d="m32 0c-0.91552 0-1.9178 0.43286-2.5664 1.1133-0.0085-5.37e-5 -0.01693-5.37e-5 -0.02539 0l-6.3984 6.6504c-0.0159 0.016011-0.03153 0.032289-0.04687 0.048828-0.61046 0.67829-0.9629 1.6419-0.9629 2.5371 0 0.87782 0.36356 1.8513 1.0059 2.5176 0.64741 0.69455 1.6675 1.1328 2.5938 1.1328h12.801c0.94615 0 1.9247-0.44619 2.5645-1.0859 0.66665-0.66665 1.0352-1.6692 1.0352-2.5645 0-0.89524-0.35243-1.8588-0.96289-2.5371-0.015347-0.016539-0.030972-0.032818-0.04687-0.048828l-6.3984-6.6504c-9e-3 -0.0092-0.01814-0.018318-0.02734-0.027344-0.63975-0.63975-1.6183-1.0859-2.5645-1.0859z" color="#000000" style="-inkscape-stroke:none;paint-order:stroke markers fill"/>
<path d="m30.85 2.5c0.3-0.33333 0.68333-0.5 1.15-0.5 0.43333 0 0.81667 0.16667 1.15 0.5l6.4 6.65c0.3 0.33333 0.45 0.73333 0.45 1.2s-0.15 0.85-0.45 1.15c-0.33333 0.33333-0.71667 0.5-1.15 0.5h-12.8c-0.46667 0-0.85-0.16667-1.15-0.5-0.3-0.3-0.45-0.68333-0.45-1.15s0.15-0.86667 0.45-1.2l6.4-6.65" color="#000000" fill="#fff" stroke-width="4" style="-inkscape-stroke:none;paint-order:stroke markers fill"/>
</g>
</svg>
