<?xml version="1.0" encoding="UTF-8"?>
<svg version="1.1" viewBox="0 0 64 64" xmlns="http://www.w3.org/2000/svg">
<path d="m25.6 4c-1.3872 0-3.0381 0.70708-4.0371 1.7656-0.98607 1.0356-1.5625 2.5938-1.5625 3.8848 0 1.3238 0.55564 2.8518 1.4766 3.875l0.04492 0.05078 6.1836 6.4238h-15.705c-2 0-4.2187 0.5624-5.8281 2.1719s-2.1719 3.8281-2.1719 5.8281v4.2129c0.048388 3.0968 1.3737 6.1179 3.5723 8.3164 2.1202 2.1202 5.0505 3.3735 8.0508 3.4688l0.064453 0.001953h0.3125v8c0 1.9327 0.51863 4.0592 2.0195 5.6602 1.5009 1.601 3.6375 2.2586 5.5703 2.3359l0.080078 0.003906h16.66l0.08008-0.0039c1.9328-0.07731 4.0694-0.73498 5.5703-2.3359 1.5009-1.601 2.0195-3.7275 2.0195-5.6602v-8h0.3125l0.06445-2e-3c2.9989-0.0952 5.9173-1.332 8.0879-3.4082l0.06445-0.06055 0.06055-0.06445c2.0662-2.1601 3.3121-5.0556 3.4082-8.0352l0.001956-0.064406v-4.3652c0-2-0.5624-4.2187-2.1719-5.8281s-3.8281-2.1719-5.8281-2.1719h-15.705l6.1836-6.4238 0.04492-0.05078c0.92092-1.0232 1.4766-2.5512 1.4766-3.875s-0.5878-2.9452-1.6211-3.9785c-0.94616-0.94616-2.5195-1.6719-3.9785-1.6719zm5.5078 8h1.7852l-0.89258 0.92578zm2.584 2.7656c0.03331 0.03049 0.10291 0.02754 0.13086 0.05859l-2.957 2.6621zm-21.691 13.234h12v8h-8.1328c-1.192-0.039564-1.8283-0.31849-2.6387-1.1289-0.93478-0.93478-1.2102-1.6134-1.2285-2.7832zm23 0h17v4.1816c-0.03762 1.1132-0.33253 1.8118-1.1387 2.6777-0.85817 0.79926-1.5686 1.1021-2.7285 1.1406h-8.1328v2h-5zm-11 21h16v3h-16z" color="#000000" style="-inkscape-stroke:none;paint-order:stroke markers fill"/>
<path d="m12 24h40c2.6667 0 4 1.3333 4 4v4.3c-0.06667 2.0667-0.83333 3.8667-2.3 5.4-1.5333 1.4667-3.35 2.2333-5.45 2.3h-4.25v12c0 2.5667-1.25 3.9-3.75 4h-16.5c-2.5-0.1-3.75-1.4333-3.75-4v-12h-4.25c-2.1-0.066667-3.8833-0.83333-5.35-2.3-1.5667-1.5667-2.3667-3.4167-2.4-5.55v-4.15c0-2.6667 1.3333-4 4-4m18.85-6.5-6.4-6.65c-0.3-0.33333-0.45-0.73333-0.45-1.2s0.15-0.85 0.45-1.15c0.3-0.33333 0.68333-0.5 1.15-0.5h12.8c0.43333 0 0.81667 0.16667 1.15 0.5 0.3 0.3 0.45 0.68333 0.45 1.15s-0.15 0.86667-0.45 1.2l-6.4 6.65c-0.33333 0.33333-0.71667 0.5-1.15 0.5-0.46667 0-0.85-0.16667-1.15-0.5m0.15 14.5h-3v13h9v-3h-6z" color="#000000" fill="#fff" stroke-width="8" style="-inkscape-stroke:none;paint-order:stroke markers fill"/>
</svg>
