<?xml version="1.0" encoding="UTF-8"?>
<svg version="1.1" viewBox="0 0 64 64" xmlns="http://www.w3.org/2000/svg">
<g stroke-linecap="round" stroke-linejoin="round">
<path d="m32 4c-7.3904 0-14.085 2.1884-19.502 6.5293-0.01243 0.0097-0.0248 0.01946-0.03711 0.0293-5.3697 4.4109-8.4609 10.342-8.4609 16.842v3.25c0 6.5229 3.1022 12.451 8.4941 16.768 0.0018 0.0015 4e-3 0.0024 0.0059 0.0039 7.39e-4 5.91e-4 0.0012 0.0014 2e-3 2e-3 1.4329 1.1507 2.9753 2.0997 4.5645 2.9531 0.18218 3.2247 2.5314 5.9107 5.2871 7.3945 2.8451 1.532 6.1279 2.2285 9.6464 2.2285 3.5407 0 6.8256-0.68975 9.6562-2.2344 2.7532-1.4858 5.098-4.1711 5.2773-7.3945 1.5791-0.85271 3.1073-1.8005 4.5176-2.9512 5.422-4.313 8.5488-10.241 8.5488-16.77v-3.25c0-6.5083-3.1174-12.442-8.5215-16.85l-0.0059-0.0039c-5.3619-4.359-12.053-6.5469-19.473-6.5469z" color="#000000" style="-inkscape-stroke:none;paint-order:stroke markers fill"/>
<path d="m48 25.95v0.1c-0.2 2.6333-1.4667 4.9167-3.8 6.85l-0.2 0.15c-3.3 2.6333-7.3 3.95-12 3.95-4.7667 0-8.8333-1.35-12.2-4.05l-0.1-0.05c-2.2667-1.9333-3.5-4.2-3.7-6.8v-0.05c0.16667-2.7 1.45-5.05 3.85-7.05l0.1-0.1c3.3667-2.6 7.3833-3.9 12.05-3.9 4.7667 0 8.8333 1.3333 11.675 3.6667 2.8417 2.3333 4.125 4.65 4.325 7.2833zm-5 24.05c0 1.6667-1.0833 3.0833-3.25 4.25-2.1333 1.1667-4.7167 1.75-7.75 1.75-3 0-5.5833-0.58333-7.75-1.75s-3.25-2.5833-3.25-4.25v-2.1c-2.1333-0.9-4.1333-2.1-6-3.6-4.6667-3.7333-7-8.2833-7-13.65v-3.25c0-5.3333 2.3333-9.9167 7-13.75 4.7-3.7667 10.367-5.65 17-5.65 6.6667 0 12.317 1.8833 16.95 5.65 4.7 3.8333 7.05 8.4167 7.05 13.75v3.25c0 5.3667-2.35 9.9167-7.05 13.65-1.8333 1.5-3.8167 2.7-5.95 3.6v2.1m-9-20.05 1 3.05h3l-1.5-4.5c1-0.96667 1.5-2.1333 1.5-3.5s-0.5-2.55-1.5-3.55c-0.96667-0.96667-2.1333-1.45-3.5-1.45h-6v13h3v-3h3zm-4-6.95h3c0.56667 0 1.0333 0.18333 1.4 0.55 0.4 0.4 0.6 0.88333 0.6 1.45s-0.2 1.0333-0.6 1.4c-0.36667 0.4-0.81667 0.6-1.35 0.6h-3.05zm-18 4.4c0.06667 4.0333 1.8667 7.45 5.4 10.25 4.0333 3.2333 8.9 4.85 14.6 4.85s10.55-1.6 14.55-4.8l0.05-0.05c3.5333-2.8333 5.3333-6.25 5.4-10.25-0.1-4-1.9167-7.4333-5.45-10.3-4-3.2-8.85-4.8-14.55-4.8s-10.567 1.6-14.325 4.6333c-3.7583 3.0333-5.575 6.4667-5.675 10.467" color="#000000" fill="#fff" stroke-width="8" style="-inkscape-stroke:none;paint-order:stroke markers fill"/>
<path d="m11.35 15c-0.11026-2.1e-4 -0.22046 0.0057-0.33008 0.01758l-0.45117 0.05078c-0.10699 0.01185-0.21326 0.02946-0.31836 0.05273-0.78235 0.17386-1.6082 0.59455-2.2207 1.207l-6.6094 6.3594c-0.013804 0.01354-0.027477 0.02722-0.041016 0.04102-0.79295 0.79295-1.3789 2.0689-1.3789 3.2715 0 1.1185 0.54985 2.3862 1.377 3.2148 0.013743 0.0328 0.028068 0.06536 0.042969 0.09766l6.6504 6.3984c0.023709 0.02318 0.047801 0.04597 0.072266 0.06836 0.85076 0.76568 2.0975 1.2207 3.207 1.2207 0.37431-1.8e-4 0.74527-0.0704 1.0938-0.20703l1.1504-0.44922c0.33617-0.13163 0.64582-0.32284 0.91406-0.56445 0.90825-0.81743 1.4922-2.198 1.4922-3.3789v-12.801c0-1.2026-0.58595-2.4785-1.3789-3.2715-0.84997-0.84997-2.162-1.3281-3.2715-1.3281zm41.301 0c-1.1095 0-2.4215 0.47816-3.2715 1.3281-0.79295 0.79295-1.3789 2.0689-1.3789 3.2715v12.801c0 1.157 0.57043 2.4934 1.4473 3.3164 0.85083 0.81462 2.1185 1.2832 3.2031 1.2832 0.35954-2.09e-4 0.71613-0.06504 1.0527-0.19141l1.2012-0.44922c0.38239-0.14406 0.73132-0.36472 1.0254-0.64844l6.6504-6.3984c0.05871-0.08695 0.11282-0.17692 0.16211-0.26953 0.745-0.82986 1.2578-1.9897 1.2578-3.043 0-1.2026-0.58595-2.4785-1.3789-3.2715-0.01354-0.0138-0.02721-0.02748-0.04102-0.04102l-6.6504-6.3984c-0.04118-0.04027-0.08352-0.07935-0.12695-0.11719-0.53705-0.46033-1.2229-0.84527-1.9746-1.0332-0.13044-0.03229-0.2629-0.05578-0.39648-0.07031l-0.45117-0.05078c-0.10962-0.01192-0.21981-0.017788-0.33007-0.017578z" color="#000000" style="-inkscape-stroke:none;paint-order:stroke markers fill"/>
<path d="m3.5 27.15c-0.33333-0.3-0.5-0.68333-0.5-1.15 0-0.43333 0.16667-0.81667 0.5-1.15l6.65-6.4c0.2-0.2 0.45-0.33333 0.75-0.4l0.45-0.05c0.46667 0 0.85 0.15 1.15 0.45 0.33333 0.33333 0.5 0.71667 0.5 1.15v12.8c0 0.46667-0.16667 0.85-0.5 1.15l-1.15 0.45c-0.46667 0-0.86667-0.15-1.2-0.45l-6.65-6.4m57 0-6.65 6.4-1.2 0.45c-0.46667 0-0.85-0.15-1.15-0.45-0.33333-0.3-0.5-0.68333-0.5-1.15v-12.8c0-0.43333 0.16667-0.81667 0.5-1.15 0.3-0.3 0.68333-0.45 1.15-0.45l0.45 0.05c0.26667 0.06667 0.51667 0.2 0.75 0.4l6.65 6.4c0.33333 0.33333 0.5 0.71667 0.5 1.15 0 0.46667-0.16667 0.85-0.5 1.15" color="#000000" fill="#fff" stroke-width="6" style="-inkscape-stroke:none;paint-order:stroke markers fill"/>
</g>
</svg>
