<?xml version="1.0" encoding="UTF-8"?>
<svg version="1.1" viewBox="0 0 64 64" xmlns="http://www.w3.org/2000/svg">
<path d="m25.6 4c-1.3872 0-3.0381 0.70708-4.0371 1.7656-0.98607 1.0356-1.5625 2.5938-1.5625 3.8848 0 1.3238 0.55564 2.8518 1.4766 3.875l0.04492 0.05078 6.1836 6.4238h-12.018l-0.06445 2e-3c-3.0003 0.095201-5.9306 1.3485-8.0508 3.4687-2.1585 2.1585-3.4738 5.1111-3.5703 8.1523l-0.0019531 0.064453v2.6172l0.00195 0.05469c0.051564 1.8821 0.63873 3.9649 2.1562 5.4824 1.5175 1.5175 3.6003 2.1047 5.4824 2.1562l0.054691 0.001951h2.3047v10c0 1.9327 0.51863 4.0592 2.0195 5.6602 1.5009 1.601 3.6375 2.2586 5.5703 2.3359l0.080078 0.003906h20.66l0.08008-0.0039c1.9328-0.07731 4.0694-0.73498 5.5703-2.3359 1.5009-1.601 2.0195-3.7275 2.0195-5.6602v-10h2.3047l0.05469-2e-3c1.8821-0.05156 3.9649-0.63873 5.4824-2.1562s2.1047-3.6003 2.1562-5.4824l0.001951-0.054641v-2.6699l-2e-3 -0.06445c-0.096069-2.9796-1.3419-5.875-3.4082-8.0352l-0.06055-0.06445-0.06445-0.06055c-2.1706-2.0762-5.089-3.313-8.0879-3.4082l-0.0625-0.001953h-12.02l6.1836-6.4238 0.04492-0.05078c0.92092-1.0232 1.4766-2.5512 1.4766-3.875s-0.5878-2.9452-1.6211-3.9785c-0.94616-0.94616-2.5195-1.6719-3.9785-1.6719zm5.5078 8h1.7852l-0.89258 0.92578zm2.584 2.7656c0.03331 0.03049 0.10291 0.02754 0.13086 0.05859l-2.957 2.6621zm-17.824 13.234h6.1328v6h-10v-2.1328c0.03832-1.1518 0.32333-1.8331 1.2285-2.7383 0.81042-0.81042 1.4467-1.0893 2.6387-1.1289zm16.133 0h16.133c1.1599 0.03854 1.8704 0.34137 2.7285 1.1406 0.80614 0.86591 1.1011 1.5646 1.1387 2.6777v2.1816h-10v13.354l-2.1113-6.3359c0.65383-1.2631 1.1113-2.6222 1.1113-4.0176 0-2.3423-1.0276-4.7347-2.6719-6.3789-1.6331-1.6331-4.0184-2.6211-6.3281-2.6211zm-1.6895 8.3105 0.68945 0.68945-0.70703 0.70703c-0.11389-0.27023-0.29297-0.51505-0.29297-0.70703 0-0.16672 0.2042-0.42298 0.31055-0.68945zm-8.3105 12.689h20v3h-20z" color="#000000" style="-inkscape-stroke:none;paint-order:stroke markers fill"/>
<path d="m8 34.25v-2.5c0.066667-2.1 0.86667-3.9167 2.4-5.45 1.4667-1.4667 3.25-2.2333 5.35-2.3h32.5c2.1 0.06667 3.9167 0.83333 5.45 2.3 1.4667 1.5333 2.2333 3.3333 2.3 5.4v2.55c-0.06667 2.4333-1.3167 3.6833-3.75 3.75h-6.25v14c0 2.5667-1.25 3.9-3.75 4h-20.5c-2.5-0.1-3.75-1.4333-3.75-4v-14h-6.25c-2.4333-0.066667-3.6833-1.3167-3.75-3.75zm22.85-16.75-6.4-6.65c-0.3-0.33333-0.45-0.73333-0.45-1.2s0.15-0.85 0.45-1.15c0.3-0.33333 0.68333-0.5 1.15-0.5h12.8c0.43333 0 0.81667 0.16667 1.15 0.5 0.3 0.3 0.45 0.68333 0.45 1.15s-0.15 0.86667-0.45 1.2l-6.4 6.65c-0.33333 0.33333-0.71667 0.5-1.15 0.5-0.46667 0-0.85-0.16667-1.15-0.5m-1.85 17.5h3c0.56667 0 1.0333 0.18333 1.4 0.55 0.4 0.4 0.6 0.88333 0.6 1.45s-0.2 1.0333-0.6 1.4c-0.36667 0.4-0.81667 0.6-1.35 0.6h-3.05zm4 6.9v0.1l1 3h3l-1.5-4.5c1-0.96667 1.5-2.1333 1.5-3.5s-0.5-2.55-1.5-3.55c-0.96667-0.96667-2.1333-1.45-3.5-1.45h-6v13h3v-3h3z" color="#000000" fill="#fff" stroke-width="8" style="-inkscape-stroke:none;paint-order:stroke markers fill"/>
</svg>
