<svg width="100px" height="100px" preserveAspectRatio="none" version="1.1" viewBox="0 0 100 100" xmlns="http://www.w3.org/2000/svg">
 <g id="Nintendo_Switch">
  <g fill-rule="evenodd">
   <circle cx="50" cy="50" r="44.65" fill="#4f4f4f"/>
   <circle cx="50" cy="50" r="40.3" fill="#9a9a9a"/>
   <circle cx="50" cy="50" r="32" fill="#4f4f4f"/>
  </g>
  <path d="m84.25 50q0-4.4541-1-8.5-2.1367-8.8523-9-15.75-10.05-10-24.25-10-14.15 0-24.2 10h-0.05q-10 10-10 24.25 0 14.2 10 24.25 10.05 10 24.25 10 14.25 0 24.25-10v-0.05q2.2361-2.2473 3.95-4.7 6.05-8.5143 6.05-19.5m-13.15-21.15 0.05 0.05q5.5387 5.5705 7.55 12.6 1.15 4.0123 1.15 8.5 0 11.281-7.25 19.5-0.71074 0.81523-1.5 1.6-8.7 8.75-21.1 8.75-12.3 0-21.1-8.75-8.75-8.75-8.75-21.1t8.75-21.1 21.1-8.75q12.4 0 21.1 8.7m-17.75 0.4q-2.85-2.15-6.65 0l-16.15 11.75q-3.75 2.65 0.05 5.4l1.85 1.3v14.35q0 5.3 5.35 5.3h24.45q5.35 0 5.35-5.3v-14.35l1.85-1.3q3.8-2.75 0.05-5.4l-16.15-11.75m-12.2 17.45q0-3.1 3.1-3.1h11.5q3.05 0 3.05 3.1v8.1q0 3.1-3.05 3.1h-11.5q-3.1 0-3.1-3.1z" fill="#1b1b1b"/>
 </g>
</svg>
