<?xml version="1.0" encoding="UTF-8"?>
<svg preserveAspectRatio="none" version="1.1" viewBox="0 0 100 100" xmlns="http://www.w3.org/2000/svg">
<path d="m88.5 34.35c-0.56667-2.8333-2.4833-4.75-5.75-5.75l-49.15-13.45c-4.5333 0-9.35 1.5167-14.45 4.55-0.7 15.8-3.3833 32.233-8.05 49.3-0.33333 4 0.86667 7.1333 3.6 9.4 8.4667 4.5333 18.767 6.1667 30.9 4.9 2.4-0.16667 4.7833-0.6 7.15-1.3 2.1667-0.76667 4.2833-1.6 6.35-2.5 2.2667-0.96667 4.4667-2.0333 6.6-3.2 2.4-1.2333 4.65-2.7 6.75-4.4 1.4-1.1667 2.7333-2.3833 4-3.65 1.9667-2 3.6833-4.1667 5.15-6.5 1.6-2.6333 2.85-5.3833 3.75-8.25 1.8333-5.5 2.8833-11.883 3.15-19.15" fill="#4f4f4f"/>
<path d="m33.25 23.65q-0.75 0.7-0.8 1.75-1.1 22.15-9.85 44.8 13.75-22.6 14.85-44.55 0.05-1.05-0.65-1.8-0.7-0.8-1.75-0.85-1-0.05-1.8 0.65z" fill="#626262"/>
<path d="m67.45 34.5-4.15-1.1v18.8l11.8 3.1v-3.85l-7.65-2v-14.95m-15.45 10.85 8.05-9.25v-3.8l-12.5-3.6v3.8l8.1 2.3-8.25 9.2v3.95l13.05 3.75v-3.95l-8.45-2.4z" fill="#9A9A9A"/>
<path d="m88.5 34.35q-0.85-4.25-5.75-5.75l-49.15-13.45q-6.8 0-14.45 4.55-1.05 23.7-8.05 49.3-0.5 6 3.6 9.4 12.7 6.8 30.9 4.9 3.6-0.25 7.15-1.3 3.25-1.15 6.35-2.5 3.4-1.45 6.6-3.2 3.6-1.85 6.75-4.4 2.1-1.75 4-3.65 2.95-3 5.15-6.5 2.4-3.95 3.75-8.25 2.75-8.25 3.15-19.15z" fill="none" stroke="#1B1B1B" stroke-linecap="round" stroke-linejoin="round" stroke-width="5"/>
</svg>
