<?xml version="1.0" encoding="UTF-8"?>
<svg preserveAspectRatio="none" version="1.1" viewBox="0 0 100 100" xmlns="http://www.w3.org/2000/svg">
<path d="m50.1 17.15 10.5-10.5h-21l10.5 10.5z" fill="#fff"/>
<path d="m36.15 81.05q-5.6-1.95-5.45-4.75v-7.5q-1.1 0.4-2.15 0.85-8.9 3.9-8.9 9.45t8.9 9.4q8.9 3.9 21.45 3.9t21.45-3.9q8.9-3.85 8.9-9.4t-8.9-9.45q-0.05-0.05-0.15-0.05-0.95-0.4-1.95-0.75v7.45q0 2.8-5.65 4.75-5.7 2-13.75 2t-13.8-2z" fill="#272727"/>
<path d="m90.35 37.55c-0.96667-3.2-2.5-5.5-4.6-6.9-1.7-1.2667-4.65-2.3833-8.85-3.35l-1.8-0.4c-7.1-1.4667-15.467-2.2-25.1-2.2-10.467 0-19.4 0.86667-26.8 2.6-5.6667 1.3-9.1333 2.8333-10.4 4.6-1.3667 1.4-2.4 3.2833-3.1 5.65-1.3667 5.4 0.88333 9.4833 6.75 12.25 3.3 1.5 6.3167 2.5833 9.05 3.25 3.3667 1.3 5.1 3.8 5.2 7.5v15.75c-0.1 1.8667 1.7167 3.45 5.45 4.75 3.8333 1.3333 8.4333 2 13.8 2s9.95-0.66667 13.75-2c3.7667-1.3 5.65-2.8833 5.65-4.75v-15.75c0.1-3.7 1.8333-6.2 5.2-7.5 2.7333-0.66667 5.75-1.75 9.05-3.25 5.8667-2.7667 8.1167-6.85 6.75-12.25" fill="#3f3f3f"/>
<path d="m49.25 50.35h-4.9v22.3h14v-4.55h-9.1v-17.75z" fill="#8C8C8C"/>
<path d="m81.7 35.5v-0.2q0-0.15-0.05-0.25-0.05-0.15-0.1-0.3-1.1-2.3-9.1-4-9.35-2-22.55-2-13.15 0-22.55 2-7.95 1.7-8.85 4-0.15 0.35-0.1 0.75-0.25 2.8 8.95 4.75 9.4 2 22.55 2 13.2 0 22.55-2 9.25-1.95 9.25-4.75z" fill="#555"/>
<path d="m30.7 68.8v-8.25q-0.15-5.55-5.2-7.5-4.1-1-9.05-3.25-8.8-4.15-6.75-12.25 1.05-3.55 3.1-5.65 1.9-2.65 10.4-4.6 11.1-2.6 26.8-2.6 14.45 0 25.1 2.2 0.9 0.2 1.8 0.4 6.3 1.45 8.85 3.35 3.15 2.1 4.6 6.9 2.05 8.1-6.75 12.25-4.95 2.25-9.05 3.25-5.05 1.95-5.2 7.5v8.3q1 0.35 1.95 0.75 0.1 0 0.15 0.05 8.9 3.9 8.9 9.45t-8.9 9.4q-8.9 3.9-21.45 3.9t-21.45-3.9q-8.9-3.85-8.9-9.4t8.9-9.45q1.05-0.45 2.15-0.85v7.5q-0.15 2.8 5.45 4.75 5.75 2 13.8 2t13.75-2q5.65-1.95 5.65-4.75v-7.45" fill="none" stroke="#151515" stroke-linecap="round" stroke-linejoin="round" stroke-width="4"/>
<path d="m81.7 35.3q0-0.15-0.05-0.25-0.05-0.15-0.1-0.3m-63.05 0q-0.15 0.35-0.1 0.75" fill="none" stroke="#6C6C6C" stroke-linecap="round" stroke-linejoin="round" stroke-width=".1"/>
<path d="m18.4 35.5q-0.25 2.8 8.95 4.75 9.4 2 22.55 2 13.2 0 22.55-2 9.25-1.95 9.25-4.75" fill="none" stroke="#6C6C6C" stroke-linecap="round" stroke-linejoin="round" stroke-width="3"/>
</svg>
