<?xml version="1.0" encoding="UTF-8"?>
<svg preserveAspectRatio="none" version="1.1" viewBox="0 0 100 100" xmlns="http://www.w3.org/2000/svg">
<path d="m86.5 76.7v-53.4q0-9.8-9.8-9.8h-53.4q-9.8 0-9.8 9.8v53.4q0 9.8 9.8 9.8h53.4q9.8 0 9.8-9.8m-36.45-49.95q9.6 0 16.4 6.7 6.85 6.85 6.85 16.6 0 9.6-6.85 16.4-6.8 6.85-16.4 6.85-9.75 0-16.6-6.85-6.7-6.8-6.7-16.4 0-9.75 6.7-16.6 6.85-6.7 16.6-6.7z" fill="#4F4F4F"/>
<path d="m66.45 33.45q-6.8-6.7-16.4-6.7-9.75 0-16.6 6.7-6.7 6.85-6.7 16.6 0 9.6 6.7 16.4 6.85 6.85 16.6 6.85 9.6 0 16.4-6.85 6.85-6.8 6.85-16.4 0-9.75-6.85-16.6z" fill="#1B1B1B"/>
<path d="m86.5 76.7v-53.4q0-9.8-9.8-9.8h-53.4q-9.8 0-9.8 9.8v53.4q0 9.8 9.8 9.8h53.4q9.8 0 9.8-9.8z" fill="none" stroke="#1B1B1B" stroke-linecap="round" stroke-linejoin="round" stroke-width="5"/>
<path d="m33.45 33.45q6.85-6.7 16.6-6.7 9.6 0 16.4 6.7 6.85 6.85 6.85 16.6 0 9.6-6.85 16.4-6.8 6.85-16.4 6.85-9.75 0-16.6-6.85-6.7-6.8-6.7-16.4 0-9.75 6.7-16.6z" fill="none" stroke="#3B3B3B" stroke-linecap="round" stroke-linejoin="round" stroke-width="5"/>
</svg>
