<?xml version="1.0" encoding="UTF-8"?>
<svg preserveAspectRatio="none" version="1.1" viewBox="0 0 100 100" xmlns="http://www.w3.org/2000/svg">
<path d="m88.5 69c-0.96445-3.5271-1.8478-7.0271-2.65-10.5-1.9995-8.7552-3.4661-17.339-4.4-25.75-0.47604-4.397-0.80938-8.747-1-13.05-5.1-3.0333-9.9167-4.55-14.45-4.55l-49.15 13.45c-3.2667 1-5.1833 2.9167-5.75 5.75 0.27266 7.2534 1.3227 13.637 3.15 19.15 0.9 2.8667 2.15 5.6167 3.75 8.25 1.4667 2.3333 3.1833 4.5 5.15 6.5 1.2667 1.2667 2.6 2.4833 4 3.65 2.1 1.7 4.35 3.1667 6.75 4.4 2.1333 1.1667 4.3333 2.2333 6.6 3.2 2.0667 0.9 4.1833 1.7333 6.35 2.5 2.3667 0.7 4.75 1.1333 7.15 1.3 12.13 1.2612 22.43-0.37214 30.9-4.9 2.7333-2.2667 3.9333-5.4 3.6-9.4" fill="#4f4f4f"/>
<path d="m37.4 34.45-12.5 3.35v3.8l8.1-2.2-8.25 13.8v3.95l13.05-3.5v-3.95l-8.45 2.3 8.05-13.75v-3.8m16.95-1.4q-0.55-0.95-1.5-1.35t-2.25-0.35-2.65 0.45l-7.2 1.9v18.85l4.1-1.05v-7.55l1.95-0.6 3.9 6.6 4.9-1.4-4.7-6.65q1.95-0.85 3-2.6 0.95-1.65 0.95-3.7 0-1.65-0.5-2.55m-4.7 2.15q0.4 0.1 0.75 0.5 0.25 0.35 0.25 1.05 0 0.8-0.3 1.3-0.35 0.45-0.85 0.85-0.5 0.35-1.15 0.55-0.6 0.2-1.1 0.35l-2.4 0.6v-4.25l2.65-0.75q0.6-0.15 1.15-0.25 0.5 0 1 0.05z" fill="#9A9A9A"/>
<path d="m64.5 23q-1.0047 0.053906-1.7 0.8-0.69824 0.79414-0.65 1.8 0.18125 3.5797 0.7 7.15 1.8213 12.776 7.85 25.75 2.7314 5.8301 6.3 11.7-2.2596-5.867-4-11.7-3.8945-12.959-5.3-25.75-0.36387-3.6943-0.55-7.4-0.054883-1.0043-0.85-1.7-0.74453-0.69902-1.8-0.65z" fill="#626262"/>
<path d="m88.5 69q0.5 6-3.6 9.4-12.704 6.7918-30.9 4.9-3.6-0.25-7.15-1.3-3.25-1.15-6.35-2.5-3.4-1.45-6.6-3.2-3.6-1.85-6.75-4.4-2.1-1.75-4-3.65-2.95-3-5.15-6.5-2.4-3.95-3.75-8.25-2.741-8.2699-3.15-19.15 0.85-4.25 5.75-5.75l49.15-13.45q6.8 0 14.45 4.55 0.28594 6.4545 1 13.05 1.4008 12.617 4.4 25.75 1.2033 5.2094 2.65 10.5z" fill="none" stroke="#1B1B1B" stroke-linecap="round" stroke-linejoin="round" stroke-width="5"/>
</svg>
