<?xml version="1.0" encoding="UTF-8"?>
<svg viewBox="0 0 64 64" xmlns="http://www.w3.org/2000/svg">
<g fill="#fff">
<path d="m50.85 15.35q0.8-0.35 1.8-0.35 1.85 0 3.2 1.2l0.1 0.1 6.65 6.4h0.05q1.4 1.45 1.35 3.3 0 2-1.4 3.3l-6.65 6.4-0.1 0.05-0.85 0.65q-1.05 0.6-2.35 0.6-1.9 0-3.15-1.25l-0.45-0.45q-1.05-1.2-1.05-2.9v-12.8l0.1-1.05q0.3-1.25 1.3-2.25 0.6-0.65 1.45-0.95m-41.85 21.05-0.85-0.65-0.1-0.05-6.65-6.4q-1.4-1.3-1.4-3.3-0.05-1.85 1.35-3.3h0.05l6.65-6.4 0.1-0.1q1.35-1.2 3.2-1.2 1 0 1.8 0.35 0.8 0.3 1.45 0.95 1 1 1.3 2.25l0.1 1.05v12.8q0 1.7-1.05 2.9l-0.45 0.45q-1.25 1.25-3.15 1.25-1.3 0-2.35-0.6m51.5-9.25q0.5-0.45 0.5-1.15 0-0.65-0.5-1.15l-6.65-6.4q-0.35-0.3-0.75-0.4l-0.45-0.05q-0.7 0-1.15 0.45-0.5 0.5-0.5 1.15v12.8q0 0.7 0.5 1.15 0.45 0.45 1.15 0.45l1.2-0.45 6.65-6.4m-57 0 6.65 6.4q0.5 0.45 1.2 0.45l1.15-0.45q0.5-0.45 0.5-1.15v-12.8q0-0.65-0.5-1.15-0.45-0.45-1.15-0.45l-0.45 0.05q-0.45 0.1-0.75 0.4l-6.65 6.4q-0.5 0.5-0.5 1.15 0 0.7 0.5 1.15" fill-opacity="0"/>
<path d="m3.5 27.15q-0.5-0.45-0.5-1.15 0-0.65 0.5-1.15l6.65-6.4q0.3-0.3 0.75-0.4l0.45-0.05q0.7 0 1.15 0.45 0.5 0.5 0.5 1.15v12.8q0 0.7-0.5 1.15l-1.15 0.45q-0.7 0-1.2-0.45l-6.65-6.4m51.5 9.25q-1.65 4.4-6.05 7.9-2.75 2.25-5.95 3.6v2.1q0 2.5-3.25 4.25-3.2 1.75-7.75 1.75-4.5 0-7.75-1.75t-3.25-4.25v-2.1q-3.2-1.35-6-3.6-4.35-3.5-6-7.9 1.05 0.6 2.35 0.6 1.9 0 3.15-1.25l0.45-0.45q1.05 1.25 2.45 2.35 6.05 4.85 14.6 4.85t14.55-4.8l0.05-0.05 2.45-2.35 0.45 0.45q1.25 1.25 3.15 1.25 1.3 0 2.35-0.6m-41.85-21.05 1.85-1.7q7.05-5.65 17-5.65 10 0 16.95 5.65l1.9 1.7q-0.85 0.3-1.45 0.95-1 1-1.3 2.25l-1.55-1.45q-6-4.8-14.55-4.8t-14.6 4.8h0.05l-1.55 1.45q-0.3-1.25-1.3-2.25-0.65-0.65-1.45-0.95m34.85 10.6v0.1q-0.3 3.95-3.8 6.85l-0.2 0.15q-4.95 3.95-12 3.95-7.15 0-12.2-4.05l-0.1-0.05q-3.4-2.9-3.7-6.8v-0.05q0.25-4.05 3.85-7.05l0.1-0.1q5.05-3.9 12.05-3.9 7.15 0 12.2 4h-0.05q3.55 3 3.85 6.95m12.5 1.2-6.65 6.4-1.2 0.45q-0.7 0-1.15-0.45-0.5-0.45-0.5-1.15v-12.8q0-0.65 0.5-1.15 0.45-0.45 1.15-0.45l0.45 0.05q0.4 0.1 0.75 0.4l6.65 6.4q0.5 0.5 0.5 1.15 0 0.7-0.5 1.15m-29.5 2.85v-10h-3v13h9v-3h-6"/>
</g>
</svg>
