<?xml version="1.0" encoding="UTF-8"?>
<svg viewBox="0 0 64 64" xmlns="http://www.w3.org/2000/svg">
<path d="m11.75 38q-3.65-0.1-3.75-3.75v-2.5q0.1-3.15 2.4-5.45 2.2-2.2 5.35-2.3h32.5q3.15 0.1 5.45 2.3 2.2 2.3 2.3 5.4v2.55q-0.1 3.65-3.75 3.75h-6.25v14q0 3.85-3.75 4h-20.5q-3.75-0.15-3.75-4v-14h-6.25m19.1-20.5-6.4-6.65q-0.45-0.5-0.45-1.2t0.45-1.15q0.45-0.5 1.15-0.5h12.8q0.65 0 1.15 0.5 0.45 0.45 0.45 1.15t-0.45 1.2l-6.4 6.65q-0.5 0.5-1.15 0.5-0.7 0-1.15-0.5m-1.85 21.5v-4h3q0.85 0 1.4 0.55 0.6 0.6 0.6 1.45t-0.6 1.4q-0.55 0.6-1.35 0.6h-3.05m3 3 1-0.1v0.1l1 3h3l-1.5-4.5q1.5-1.45 1.5-3.5t-1.5-3.55q-1.45-1.45-3.5-1.45h-6v13h3v-3h3" fill="#fff"/>
</svg>
