<?xml version="1.0" encoding="UTF-8"?>
<svg viewBox="0 0 64 64" xmlns="http://www.w3.org/2000/svg">
<g fill="#fff">
<path d="m43 10.1v0.25q0 2-1.3 3.25l-0.4 0.4q-1.3 1.05-2.9 1h-12.8q-1.7 0-2.85-1l-0.5-0.5q-1.25-1.25-1.25-3.15v-0.25q0.1-1.7 1.25-2.95l0.05-0.1 6.4-6.65q1.3-1.4 3.3-1.4 1.85-0.05 3.3 1.35v0.05l6.4 6.65 0.1 0.1q1.1 1.25 1.2 2.95m-0.2 30.05 0.2 1.5q0 1.85-1.2 3.2l-0.1 0.1-6.4 6.65v0.05q-1.45 1.4-3.3 1.35-2 0-3.3-1.4l-6.4-6.65-0.05-0.1q-1.25-1.35-1.25-3.2 0-0.85 0.25-1.5 0.3-0.95 1-1.65 1.3-1.5 3.35-1.5h12.8q1.85-0.05 3.3 1.4 0.75 0.75 1.1 1.75m-11.95-37.65-6.4 6.65q-0.45 0.5-0.45 1.2t0.45 1.15q0.45 0.5 1.15 0.5h12.8q0.65 0 1.15-0.5 0.45-0.45 0.45-1.15t-0.45-1.2l-6.4-6.65q-0.5-0.5-1.15-0.5-0.7 0-1.15 0.5m0 47q0.45 0.5 1.15 0.5 0.65 0 1.15-0.5l6.4-6.65q0.45-0.5 0.45-1.2v-0.35l-0.45-0.8q-0.5-0.5-1.15-0.5h-12.8q-0.7 0-1.15 0.5l-0.4 0.8-0.05 0.35q0 0.7 0.45 1.2l6.4 6.65" fill-opacity="0"/>
<path d="m30.85 49.5-6.4-6.65q-0.45-0.5-0.45-1.2l0.05-0.35 0.4-0.8q0.45-0.5 1.15-0.5h12.8q0.65 0 1.15 0.5l0.45 0.8v0.35q0 0.7-0.45 1.2l-6.4 6.65q-0.5 0.5-1.15 0.5-0.7 0-1.15-0.5m10.45-35.5 0.4-0.4q1.3-1.25 1.3-3.25v-0.25q3.2 1.3 5.95 3.55 7.05 5.75 7.05 13.75v3.25q0 8.05-7.05 13.65-2.75 2.25-5.95 3.6v2.1q0 2.5-3.25 4.25-3.2 1.75-7.75 1.75-4.5 0-7.75-1.75t-3.25-4.25v-2.1q-3.2-1.35-6-3.6-7-5.6-7-13.65v-3.25q0-8 7-13.75 2.8-2.25 6-3.55v0.25q0 1.9 1.25 3.15l0.5 0.5q-2.9 1.15-5.35 3.1h0.05q-5.3 4.3-5.45 10.3 0.1 6.05 5.4 10.25l3.85 2.5q-0.25 0.65-0.25 1.5 0 1.85 1.25 3.2l0.05 0.1 6.4 6.65q1.3 1.4 3.3 1.4 1.85 0.05 3.3-1.35v-0.05l6.4-6.65 0.1-0.1q1.2-1.35 1.2-3.2l-0.2-1.5 3.75-2.45 0.05-0.05q5.3-4.25 5.4-10.25-0.15-6-5.45-10.3-2.45-1.95-5.25-3.1m-10.1 1h1.6q6.65 0.25 11.4 4h-0.05q3.55 3 3.85 6.95v0.1q-0.3 3.95-3.8 6.85l-0.2 0.15q-4.65 3.7-11.2 3.95h-1.6q-6.65-0.25-11.4-4.05l-0.1-0.05q-3.4-2.9-3.7-6.8v-0.05q0.25-4.05 3.85-7.05l0.1-0.1q4.75-3.7 11.25-3.9m-0.35-12.5q0.45-0.5 1.15-0.5 0.65 0 1.15 0.5l6.4 6.65q0.45 0.5 0.45 1.2t-0.45 1.15q-0.5 0.5-1.15 0.5h-12.8q-0.7 0-1.15-0.5-0.45-0.45-0.45-1.15t0.45-1.2l6.4-6.65m-0.85 24.5v-4h3q0.85 0 1.4 0.55 0.6 0.6 0.6 1.45t-0.6 1.4q-0.55 0.6-1.35 0.6h-3.05m3 3 1-0.1v0.1l1 3h3l-1.5-4.5q1.5-1.45 1.5-3.5t-1.5-3.55q-1.45-1.45-3.5-1.45h-6v13h3v-3h3"/>
</g>
</svg>
