<?xml version="1.0" encoding="UTF-8"?>
<svg version="1.1" viewBox="0 0 64 64" xmlns="http://www.w3.org/2000/svg">
<g stroke-linecap="round" stroke-linejoin="round">
<path d="m22.9 18c-3.8593 0-7.5621 1.3757-10.387 3.9355a4.0004 4.0004 0 0 0-0.02539 0.02344c-2.8206 2.6002-4.4883 6.2462-4.4883 10.041 0 3.774 1.676 7.3976 4.4883 9.9902 2.8203 2.6 6.538 4.0098 10.412 4.0098h18.199c3.8741 0 7.5918-1.4098 10.412-4.0098 2.8123-2.5926 4.4883-6.2163 4.4883-9.9902 0-3.7948-1.6677-7.4408-4.4883-10.041a4.0004 4.0004 0 0 0-0.02539-0.02344c-2.8247-2.5598-6.5275-3.9355-10.387-3.9355zm0 11h18.199c1.3313 0 2.1099 0.30354 3.0312 1.1289a4.0004 4.0004 0 0 0 0.02734 0.0039c0.67761 0.65806 0.8418 1.0456 0.8418 1.8672 0 0.80541-0.13559 1.1701-0.90234 1.8926-0.90673 0.80272-1.683 1.1074-2.998 1.1074h-18.199c-1.3313 0-2.0725-0.29766-2.9512-1.1016a4.0004 4.0004 0 0 0-0.0059-0.0059c-0.82978-0.75601-0.94332-1.0973-0.94332-1.8925 0-0.84737 0.10932-1.173 0.95312-1.9297 0.83562-0.74933 1.616-1.0703 2.9473-1.0703z" color="#000000" style="-inkscape-stroke:none;paint-order:stroke markers fill"/>
<path d="m22.9 22h18.2c3 0 5.5667 0.96667 7.7 2.9 2.1333 1.9667 3.2 4.3333 3.2 7.1 0 2.7333-1.0667 5.0833-3.2 7.05s-4.7 2.95-7.7 2.95h-18.2c-3 0-5.5667-0.98333-7.7-2.95s-3.2-4.3167-3.2-7.05c0-2.7667 1.0667-5.1333 3.2-7.1 2.1333-1.9333 4.7-2.9 7.7-2.9m-7.9 10c0 1.8667 0.75 3.4833 2.25 4.85 1.5667 1.4333 3.45 2.15 5.65 2.15h18.2c2.2 0 4.1-0.71667 5.7-2.15 1.4667-1.3667 2.2-2.9833 2.2-4.85 0-1.9-0.73333-3.5333-2.2-4.9v0.05c-1.6-1.4333-3.5-2.15-5.7-2.15h-18.2c-2.2 0-4.0833 0.71667-5.6167 2.0917-1.5333 1.375-2.2833 3.0083-2.2833 4.9083z" color="#000000" fill="#fff" stroke-width="8" style="-inkscape-stroke:none;paint-order:stroke markers fill"/>
<path d="m24 23a4.0004 4.0004 0 0 0-4 4v7a4.0004 4.0004 0 0 0 4 4h1.4141a4.0004 4.0004 0 0 0 3.5859 3h11a4.0004 4.0004 0 0 0 4-4v-7a4.0004 4.0004 0 0 0-4-4h-1.4141a4.0004 4.0004 0 0 0-3.5859-3z" color="#000000" style="-inkscape-stroke:none;paint-order:stroke markers fill"/>
<path d="m35 27v2h-9v3h2v2h-4v-7zm5 3v7h-11v-7z" color="#000000" fill="#fff" stroke-width="8" style="-inkscape-stroke:none;paint-order:stroke markers fill"/>
</g>
</svg>
