<?xml version="1.0" encoding="UTF-8"?>
<svg version="1.1" viewBox="0 0 64 64" xmlns="http://www.w3.org/2000/svg">
<path d="m32 4c-7.5713 0-14.451 2.8325-19.818 8.1621l-0.0196 0.0196c-5.3295 5.3676-8.162 12.247-8.162 19.818 0 7.5953 2.831 14.471 8.1719 19.779 0.0017 0.0017 0.0042 0.0022 0.0059 0.0039s0.0022 0.0042 0.0039 0.0059c5.3638 5.3589 12.245 8.2109 19.818 8.2109 7.5967 0 14.473-2.8532 19.777-8.2227 5.3694-5.3039 8.2227-12.181 8.2227-19.777 0-7.5734-2.852-14.454-8.2109-19.818l-0.0059-0.0039c-5.3084-5.3441-12.186-8.1777-19.783-8.1777zm0 8c5.7333 0 10.154 1.8324 14.111 5.8184l0.0098 0.0098c4.0346 4.0346 5.8789 8.4832 5.8789 14.172 0 5.7267-1.8405 10.142-5.8574 14.102l-0.02148 0.01953-0.01953 0.02148c-3.96 4.017-8.3749 5.8574-14.102 5.8574-5.6886 0-10.137-1.8442-14.172-5.8789l-0.0098-0.0098c-3.9859-3.9575-5.8183-8.378-5.8183-14.111 0-5.6905 1.8315-10.142 5.8281-14.172 4.0296-3.9967 8.4814-5.8281 14.172-5.8281zm-11 6v28h14c2.5857 0 5.2027-1.0952 7.0293-2.9219l0.04883-0.04883c1.8266-1.8266 2.9219-4.4436 2.9219-7.0293 0-1.377-0.3675-2.7255-0.92188-4 0.55437-1.2745 0.92188-2.623 0.92188-4 0-2.5857-1.0952-5.2027-2.9219-7.0293l-0.04883-0.04883c-1.8266-1.8266-4.4436-2.9219-7.0293-2.9219z" color="#000000" style="-inkscape-stroke:none;paint-order:stroke markers fill"/>
<path d="m56 32q0 10-7.05 16.95-6.95 7.05-16.95 7.05-9.95 0-17-7.05-7-6.95-7-16.95 0-9.95 7-17 7.05-7 17-7 10 0 16.95 7 7.05 7.05 7.05 17m-19-4q0 0.85-0.55 1.4h-0.05q-0.6 0.6-1.4 0.6h-6v-4h6q0.8 0 1.35 0.55l0.1 0.1q0.55 0.55 0.55 1.35m4 8q0-2.3-1.5-4 1.5-1.7 1.5-4 0-2.45-1.75-4.2l-0.05-0.05q-1.75-1.75-4.2-1.75h-10v20h10q2.45 0 4.2-1.75l0.05-0.05q1.75-1.75 1.75-4.2m-4 0q0 0.8-0.55 1.35l-0.1 0.1q-0.55 0.55-1.35 0.55h-6v-4h6q0.8 0 1.4 0.6h0.05q0.55 0.55 0.55 1.4" color="#000000" fill="#fff" stroke-width="8" style="-inkscape-stroke:none;paint-order:stroke markers fill"/>
</svg>
