<?xml version="1.0" encoding="UTF-8"?>
<svg version="1.1" viewBox="0 0 64 64" xmlns="http://www.w3.org/2000/svg">
<path d="m20 16c-4.2428 0-8.28 1.6664-11.309 4.6523l-0.039062 0.03906c-2.9859 3.0286-4.6523 7.0658-4.6523 11.309s1.6718 8.2793 4.6719 11.279c3.024 3.024 7.0719 4.7207 11.328 4.7207h24c4.2465 0 8.2842-1.6977 11.277-4.7227 3.0249-2.9932 4.7227-7.0309 4.7227-11.277 0-4.2562-1.6967-8.3042-4.7207-11.328-3-3-7.0365-4.6719-11.279-4.6719z" color="#000000" style="-inkscape-stroke:none;paint-order:stroke markers fill"/>
<path d="m20 20h24q4.95 0 8.45 3.5 3.55 3.55 3.55 8.5t-3.55 8.45q-3.5 3.55-8.45 3.55h-24q-4.95 0-8.5-3.55-3.5-3.5-3.5-8.45t3.5-8.5q3.55-3.5 8.5-3.5m4.15 14.9h1.25v-4.75h1.8v-1.05h-4.85v1.05h1.8v4.75m12.35-4.4 0.85 2.3h-1.65l0.8-2.3m-4.3 0.95h-2.4v-1.3h2.75v-1.05h-4v5.8h4v-1.05h-2.75v-1.35h2.4v-1.05m3.15 2.35h2.3l0.45 1.1h1.35l-2.3-5.8h-1.25l-2.25 5.8h1.3l0.4-1.1m-14.1-4.25-0.8-0.35-1.2-0.2q-0.95 0-1.55 0.45t-0.6 1.25q0 0.7 0.45 1.1 0.35 0.35 1.2 0.6l1 0.35q0.35 0.2 0.35 0.5l-0.25 0.45-0.8 0.2q-0.85 0-1.65-0.45l-0.4 1.05q0.9 0.5 2.1 0.5l1.65-0.45q0.65-0.5 0.65-1.4 0-0.6-0.4-1-0.3-0.3-1.1-0.55l-1.1-0.4q-0.4-0.2-0.4-0.55 0-0.3 0.25-0.45l0.65-0.15 0.75 0.1 0.65 0.35 0.55-0.95m22.25 5.2h0.7l1.6-3.4v3.55h1.2v-5.8h-1.2l-1.9 4.2-2-4.2h-1.2v5.8h1.2v-3.5l1.6 3.35" color="#000000" fill="#fff" stroke-width="8" style="-inkscape-stroke:none;paint-order:stroke markers fill"/>
</svg>
