<?xml version="1.0" encoding="UTF-8"?>
<svg version="1.1" viewBox="0 0 64 64" xmlns="http://www.w3.org/2000/svg">
<g stroke-linecap="round" stroke-linejoin="round">
<path d="m20 16c-4.2428 0-8.28 1.6664-11.309 4.6523-0.013111 0.01293-0.026132 0.02595-0.039063 0.03906-2.9859 3.0286-4.6523 7.0658-4.6523 11.309s1.6718 8.2793 4.6719 11.279c3.024 3.024 7.0719 4.7207 11.328 4.7207h24c4.2465 0 8.2842-1.6977 11.277-4.7227 3.0249-2.9932 4.7227-7.0309 4.7227-11.277 0-4.2562-1.6967-8.3042-4.7207-11.328-3-3-7.0365-4.6719-11.279-4.6719z" color="#000000" style="-inkscape-stroke:none;paint-order:stroke markers fill"/>
<path d="m20 20h24q4.95 0 8.45 3.5 3.55 3.55 3.55 8.5t-3.55 8.45q-3.5 3.55-8.45 3.55h-24q-4.95 0-8.5-3.55-3.5-3.5-3.5-8.45t3.5-8.5q3.55-3.5 8.5-3.5m23.5 14.75-1.6-3.35v3.5h-1.2v-5.8h1.2l2 4.2 1.9-4.2h1.2v5.8h-1.2v-3.55l-1.6 3.4h-0.7m-29.9-9.1q-2.6 2.65-2.6 6.35t2.65 6.35 6.35 2.65h24q3.7 0 6.35-2.65t2.65-6.35-2.65-6.35-6.35-2.65h-24q-3.7 0-6.35 2.6l-0.05 0.05m7.65 3.9-0.55 0.95-0.65-0.35-0.75-0.1-0.65 0.15q-0.25 0.15-0.25 0.45 0 0.35 0.4 0.55l1.1 0.4q0.8 0.25 1.1 0.55 0.4 0.4 0.4 1 0 0.9-0.65 1.4l-1.65 0.45q-1.2 0-2.1-0.5l0.4-1.05q0.8 0.45 1.65 0.45l0.8-0.2 0.25-0.45q0-0.3-0.35-0.5l-1-0.35q-0.85-0.25-1.2-0.6-0.45-0.4-0.45-1.1 0-0.8 0.6-1.25t1.55-0.45l1.2 0.2 0.8 0.35m14.1 4.25-0.4 1.1h-1.3l2.25-5.8h1.25l2.3 5.8h-1.35l-0.45-1.1h-2.3m-3.15-2.35v1.05h-2.4v1.35h2.75v1.05h-4v-5.8h4v1.05h-2.75v1.3h2.4m4.3-0.95-0.8 2.3h1.65l-0.85-2.3m-12.35 4.4v-4.75h-1.8v-1.05h4.85v1.05h-1.8v4.75h-1.25" color="#000000" fill="#fff" stroke-width="8" style="-inkscape-stroke:none;paint-order:stroke markers fill"/>
</g>
</svg>
