<?xml version="1.0" encoding="UTF-8"?>
<svg version="1.1" viewBox="0 0 64 64" xmlns="http://www.w3.org/2000/svg">
<g stroke-linecap="round" stroke-linejoin="round">
<path d="m16 4c-3.3333 0-6.552 0.89573-8.8281 3.1719s-3.1719 5.4948-3.1719 8.8281v20.5c2.365e-4 0.03321 8.865e-4 0.06642 0.00195 0.09961 0.15626 6.2506 2.6021 11.961 7.0195 16.379 4.4175 4.4175 10.128 6.8633 16.379 7.0195 0.03319 0.0011 0.0664 0.0017 0.09961 2e-3h20.5c3.3333 0 6.552-0.89574 8.8281-3.1719 2.2761-2.2762 3.1719-5.4948 3.1719-8.8282v-32c0-3.3333-0.89574-6.552-3.1719-8.8281s-5.4948-3.1719-8.8281-3.1719zm0 11h32c1 0 1.0314 0.1876 0.92188 0.07813-0.10948-0.10948 0.078125-0.078129 0.078125 0.92187v9.3281c-0.10466-0.24877-0.23423-0.48631-0.38672-0.70898l-1-1.3496c-0.11707-0.15836-0.24568-0.30785-0.38476-0.44726l-0.05078-0.05078c-1.7296-1.7296-4.2296-2.7715-6.6777-2.7715h-1.6504c-0.03386 2.37e-4 -0.06772 9.04e-4 -0.10156 2e-3 -2.1976 0.05635-4.4418 0.99253-6.0254 2.5195-0.01708 0.01677-0.03401 0.0337-0.05078 0.05078l-0.09961 0.09961c-0.0224 0.02188-0.04453 0.04401-0.06641 0.06641-1.1757 1.2317-2.0386 2.8497-2.3438 4.5586-0.01823 0.10097-0.03256 0.20261-0.04297 0.30469l-0.09961 1c-0.03392 1.8172 1.1614 3.4288 2.9102 3.9238l-0.94336 0.88281c-0.30906-0.17954-0.64079-0.31684-0.98632-0.40825h-4v-9c-2.21e-4 -2.209-1.791-3.9998-4-4h-4c-2.209 2.21e-4 -3.9998 1.791-4 4v-8c0-1 0.1876-1.0314 0.07813-0.92188-0.10948 0.10948-0.078129-0.078125 0.92187-0.078125zm33 28.414v4.5859c0 1-0.1876 1.0314-0.07813 0.92188 0.10948-0.10948 0.078129 0.078125-0.92187 0.078125h-20.391c-3.5754-0.10814-6.2483-1.2707-8.7656-3.8145-0.0097-0.0098-0.01948-0.01958-0.0293-0.0293-0.10549-0.10441-0.13165-0.22514-0.23242-0.33008 0.13593 0.065785 0.27548 0.12382 0.41797 0.17383h12c0.5372-0.10233 1.0477-0.31371 1.5-0.62109 0.45229 0.30738 0.9628 0.51876 1.5 0.62109h12c1.1858-0.05731 2.2849-0.63834 3-1.5859z" color="#000000" style="-inkscape-stroke:none;paint-order:stroke markers fill"/>
<path d="m27.5 53h20.5c3.3333 0 5-1.6667 5-5v-32c0-3.3333-1.6667-5-5-5h-32c-3.3333 0-5 1.6667-5 5v20.4c0.1 4.5333 1.7667 8.4 5 11.6 3.1667 3.2 7 4.8667 11.5 5m-19.5-23v-14c0-5.3333 2.6667-8 8-8h32c5.3333 0 8 2.6667 8 8v32c0 5.3333-2.6667 8-8 8h-20.5c-5.3333-0.13333-9.8833-2.0833-13.65-5.85s-5.7167-8.3167-5.85-13.65v-6.5m33.5-1.6c-0.26667-0.26667-0.6-0.4-1-0.4h-1.65l-0.55 0.3c-0.2 0.2-0.3 0.43333-0.3 0.7h-4l0.1-1c0.16667-0.93333 0.6-1.7667 1.3-2.5l0.1-0.1c0.93333-0.9 2.05-1.3667 3.35-1.4h1.65c1.5 0 2.7833 0.53333 3.85 1.6l0.05 0.05 1 1.35c0.83333 2.2333 0.51667 4.0833-0.95 5.55l-4.45 4.45h6v4h-12v-4l7-6.55c0.83333-0.86667 1-1.55 0.5-2.05m-18.5-4.4v13h8v4h-12v-17z" color="#000000" fill="#fff" stroke-width="8" style="-inkscape-stroke:none;paint-order:stroke markers fill"/>
</g>
</svg>
