<?xml version="1.0" encoding="UTF-8"?>
<svg version="1.1" viewBox="0 0 64 64" xmlns="http://www.w3.org/2000/svg">
<path d="m27.449 4-0.04883 0.00195c-6.2506 0.15627-11.961 2.6021-16.379 7.0195-4.4175 4.4175-6.8633 10.128-7.0195 16.379l-0.0019531 0.048828v20.551c0 3.3333 0.89573 6.552 3.1719 8.8281s5.4948 3.1719 8.8281 3.1719h32c3.3333 0 6.552-0.89574 8.8281-3.1719s3.1719-5.4948 3.1719-8.8281v-32c0-3.3333-0.89574-6.552-3.1719-8.8281s-5.4948-3.1719-8.8281-3.1719zm0.13281 8h20.418c2 0 2.7814 0.4376 3.1719 0.82812s0.82812 1.1719 0.82812 3.1719v32c0 2-0.4376 2.7814-0.82812 3.1719s-1.1719 0.82812-3.1719 0.82812h-32c-2 0-2.7814-0.4376-3.1719-0.82812s-0.82812-1.1719-0.82812-3.1719v-20.418c0.11401-4.407 1.5662-7.7928 4.6777-10.904 3.1115-3.1115 6.4973-4.5637 10.904-4.6777zm-9.582 8v25h28v-25h-9.6562l-5.3438 5.3438v7.6055h3v0.050781h-4v-13z" color="#000000" style="-inkscape-stroke:none;paint-order:stroke markers fill"/>
<path d="m22 41h12v-4h-8v-13h-4zm16-17-3 3v1.95h3v12.05h4v-17zm-30 10v-6.5c0.13333-5.3333 2.0833-9.8833 5.85-13.65s8.3167-5.7167 13.65-5.85h20.5c5.3333 0 8 2.6667 8 8v32c0 5.3333-2.6667 8-8 8h-32c-5.3333 0-8-2.6667-8-8v-14" color="#000000" fill="#fff" stroke-width="8" style="-inkscape-stroke:none;paint-order:stroke markers fill"/>
</svg>
