<?xml version="1.0" encoding="UTF-8"?>
<svg version="1.1" viewBox="0 0 64 64" xmlns="http://www.w3.org/2000/svg">
<path d="m16 4c-3.3333 0-6.552 0.89573-8.8281 3.1719s-3.1719 5.4948-3.1719 8.8281v20.551l0.00195 0.04883c0.15626 6.2506 2.6021 11.961 7.0195 16.379 4.4175 4.4175 10.128 6.8633 16.379 7.0195l0.048831 0.001951h20.551c3.3333 0 6.552-0.89574 8.8281-3.1719s3.1719-5.4948 3.1719-8.8281v-32c0-3.3333-0.89574-6.552-3.1719-8.8281s-5.4948-3.1719-8.8281-3.1719z" color="#000000" style="-inkscape-stroke:none;paint-order:stroke markers fill"/>
<path d="m41.5 28.4c0.5 0.5 0.33333 1.1833-0.5 2.05l-7 6.55v4h12v-4h-6l4.45-4.45c1.4667-1.4667 1.7833-3.3167 0.95-5.55l-1-1.35-0.05-0.05c-1.0667-1.0667-2.35-1.6-3.85-1.6h-1.65c-1.3 0.03333-2.4167 0.5-3.35 1.4l-0.1 0.1c-0.7 0.73333-1.1333 1.5667-1.3 2.5l-0.1 1h4c0-0.26667 0.1-0.5 0.3-0.7l0.55-0.3h1.65c0.4 0 0.73333 0.13333 1 0.4m-33.5 1.6v-14c0-5.3333 2.6667-8 8-8h32c5.3333 0 8 2.6667 8 8v32c0 5.3333-2.6667 8-8 8h-20.5c-5.3333-0.13333-9.8833-2.0833-13.65-5.85s-5.7167-8.3167-5.85-13.65v-6.5m11 11h12v-4h-8v-13h-4z" color="#000000" fill="#fff" stroke-width="8" style="-inkscape-stroke:none;paint-order:stroke markers fill"/>
</svg>
