<?xml version="1.0" encoding="UTF-8"?>
<svg version="1.1" viewBox="0 0 64 64" xmlns="http://www.w3.org/2000/svg">
<g stroke-linecap="round" stroke-linejoin="round">
<path d="m27.5 4a4.0004 4.0004 0 0 0-0.09961 0.00195c-6.2506 0.15627-11.961 2.6021-16.379 7.0195-4.4175 4.4175-6.8633 10.128-7.0195 16.379a4.0004 4.0004 0 0 0-0.0019531 0.099609v20.5c0 3.3333 0.89573 6.552 3.1719 8.8281s5.4948 3.1719 8.8281 3.1719h32c3.3333 0 6.552-0.89574 8.8281-3.1719s3.1719-5.4948 3.1719-8.8281v-32c0-3.3333-0.89574-6.552-3.1719-8.8281s-5.4948-3.1719-8.8281-3.1719zm0.10938 11h20.391c1 0 1.0314 0.1876 0.92188 0.07813-0.10948-0.10948 0.078125-0.078129 0.078125 0.92187v32c0 1-0.1876 1.0314-0.07813 0.92188 0.10948-0.10948 0.078129 0.078125-0.92187 0.078125h-32c-1 0-1.0314-0.1876-0.92188-0.078125s-0.078125 0.078124-0.078125-0.92188v-20.312c0.07949-3.6038 1.2377-6.2936 3.8145-8.8438a4.0004 4.0004 0 0 0 0.0293-0.0293c2.5173-2.5438 5.1903-3.7063 8.7656-3.8144zm-5.6094 5a4.0004 4.0004 0 0 0-4 4v17a4.0004 4.0004 0 0 0 4 4h12a4.0004 4.0004 0 0 0 2-0.82812 4.0004 4.0004 0 0 0 2 0.82812h4a4.0004 4.0004 0 0 0 4-4v-17a4.0004 4.0004 0 0 0-4-4h-4a4.0004 4.0004 0 0 0-2.8281 1.1719l-3 3a4.0004 4.0004 0 0 0-1.1719 2.8281v1.9492a4.0004 4.0004 0 0 0 3 3.5859v0.46484h-4v-9a4.0004 4.0004 0 0 0-4-4z" color="#000000" style="-inkscape-stroke:none;paint-order:stroke markers fill"/>
<path d="m27.5 11c-4.5 0.13333-8.3333 1.8-11.5 5-3.2333 3.2-4.9 7.0667-5 11.6v20.4c0 3.3333 1.6667 5 5 5h32c3.3333 0 5-1.6667 5-5v-32c0-3.3333-1.6667-5-5-5h-20.5m-19.5 23v-6.5c0.13333-5.3333 2.0833-9.8833 5.85-13.65s8.3167-5.7167 13.65-5.85h20.5c5.3333 0 8 2.6667 8 8v32c0 5.3333-2.6667 8-8 8h-32c-5.3333 0-8-2.6667-8-8v-14m34 7h-4v-12.05h-3v-1.95l3-3h4zm-16-17v13h8v4h-12v-17z" color="#000000" fill="#fff" stroke-width="8" style="-inkscape-stroke:none;paint-order:stroke markers fill"/>
</g>
</svg>
