<?xml version="1.0" encoding="UTF-8"?>
<svg version="1.1" viewBox="0 0 64 64" xmlns="http://www.w3.org/2000/svg">
<path d="m20 16c-4.2428 0-8.28 1.6664-11.309 4.6523l-0.039062 0.03906c-2.9859 3.0286-4.6523 7.0658-4.6523 11.309s1.6718 8.2793 4.6719 11.279c3.024 3.024 7.0719 4.7207 11.328 4.7207h24c4.2465 0 8.2842-1.6977 11.277-4.7227 3.0249-2.9932 4.7227-7.0309 4.7227-11.277 0-4.2562-1.6967-8.3042-4.7207-11.328-3-3-7.0365-4.6719-11.279-4.6719z" color="#000000" style="-inkscape-stroke:none;paint-order:stroke markers fill"/>
<path d="m20 20h24q4.95 0 8.45 3.5 3.55 3.55 3.55 8.5t-3.55 8.45q-3.5 3.55-8.45 3.55h-24q-4.95 0-8.5-3.55-3.5-3.5-3.5-8.45t3.5-8.5q3.55-3.5 8.5-3.5m4 12q0-1.65-1.2-2.85-1.15-1.15-2.8-1.15t-2.85 1.15q-1.15 1.2-1.15 2.85t1.15 2.8q1.2 1.2 2.85 1.2t2.8-1.2q1.2-1.15 1.2-2.8m12 0q0-1.65-1.2-2.85-1.15-1.15-2.8-1.15t-2.85 1.15q-1.15 1.2-1.15 2.85t1.15 2.8q1.2 1.2 2.85 1.2t2.8-1.2q1.2-1.15 1.2-2.8m12 0q0-1.65-1.2-2.85-1.15-1.15-2.8-1.15t-2.85 1.15q-1.15 1.2-1.15 2.85t1.15 2.8q1.2 1.2 2.85 1.2t2.8-1.2q1.2-1.15 1.2-2.8" color="#000000" fill="#fff" stroke-width="8" style="-inkscape-stroke:none;paint-order:stroke markers fill"/>
</svg>
