<?xml version="1.0" encoding="UTF-8"?>
<svg version="1.1" viewBox="0 0 64 64" xmlns="http://www.w3.org/2000/svg">
<g stroke-linecap="round" stroke-linejoin="round">
<path d="m20 16c-4.2428 0-8.28 1.6664-11.309 4.6523-0.013111 0.01293-0.026132 0.02595-0.039063 0.03906-2.9859 3.0286-4.6523 7.0658-4.6523 11.309s1.6718 8.2793 4.6719 11.279c3.024 3.024 7.0719 4.7207 11.328 4.7207h24c4.2465 0 8.2842-1.6977 11.277-4.7227 3.0249-2.9932 4.7227-7.0309 4.7227-11.277 0-4.2562-1.6967-8.3042-4.7207-11.328-3-3-7.0365-4.6719-11.279-4.6719z" color="#000000" style="-inkscape-stroke:none;paint-order:stroke markers fill"/>
<path d="m20 20h24q4.95 0 8.45 3.5 3.55 3.55 3.55 8.5t-3.55 8.45q-3.5 3.55-8.45 3.55h-24q-4.95 0-8.5-3.55-3.5-3.5-3.5-8.45t3.5-8.5q3.55-3.5 8.5-3.5m28 12q0 1.65-1.2 2.8-1.15 1.2-2.8 1.2t-2.85-1.2q-1.15-1.15-1.15-2.8t1.15-2.85q1.2-1.15 2.85-1.15t2.8 1.15q1.2 1.2 1.2 2.85m-34.4-6.35q-2.6 2.65-2.6 6.35t2.65 6.35 6.35 2.65h24q3.7 0 6.35-2.65t2.65-6.35-2.65-6.35-6.35-2.65h-24q-3.7 0-6.35 2.6l-0.05 0.05m22.4 6.35q0 1.65-1.2 2.8-1.15 1.2-2.8 1.2t-2.85-1.2q-1.15-1.15-1.15-2.8t1.15-2.85q1.2-1.15 2.85-1.15t2.8 1.15q1.2 1.2 1.2 2.85m-12 0q0 1.65-1.2 2.8-1.15 1.2-2.8 1.2t-2.85-1.2q-1.15-1.15-1.15-2.8t1.15-2.85q1.2-1.15 2.85-1.15t2.8 1.15q1.2 1.2 1.2 2.85" color="#000000" fill="#fff" stroke-width="8" style="-inkscape-stroke:none;paint-order:stroke markers fill"/>
</g>
</svg>
