<?xml version="1.0" encoding="UTF-8"?>
<svg version="1.1" viewBox="0 0 64 64" xmlns="http://www.w3.org/2000/svg">
<path d="m16 4c-3.3333 0-6.552 0.89573-8.8281 3.1719s-3.1719 5.4948-3.1719 8.8281v32c0 3.3333 0.89573 6.552 3.1719 8.8281s5.4948 3.1719 8.8281 3.1719h32c3.3333 0 6.552-0.89574 8.8281-3.1719s3.1719-5.4948 3.1719-8.8281v-32c0-3.3333-0.89574-6.552-3.1719-8.8281s-5.4948-3.1719-8.8281-3.1719z" color="#000000" style="-inkscape-stroke:none;paint-order:stroke markers fill"/>
<path d="m16 8h32q8 0 8 8v32q0 8-8 8h-32q-8 0-8-8v-32q0-8 8-8m25.5 28.6q-0.4 0.4-1 0.4h-2.55l-0.65-0.3q-0.3-0.3-0.3-0.7h-4l0.1 1q0.25 1.4 1.3 2.5l0.1 0.1q1.4 1.35 3.35 1.4h2.65q2.25 0 3.85-1.6l0.05-0.05q1.4-1.4 1.6-3.35v-0.5q0-2.3-1.6-3.9t-3.9-1.6h-3.5v-2h9v-4h-13v10h7.5q0.6 0 1.05 0.45t0.45 1.05-0.4 1l-0.1 0.1m-23.5-12.6v17h12v-4h-8v-13h-4" color="#000000" fill="#fff" stroke-width="8" style="-inkscape-stroke:none;paint-order:stroke markers fill"/>
</svg>
