<?xml version="1.0" encoding="UTF-8"?>
<svg version="1.1" viewBox="0 0 64 64" xmlns="http://www.w3.org/2000/svg">
<g stroke-linecap="round" stroke-linejoin="round">
<path d="m16 4c-3.3333 0-6.552 0.89573-8.8281 3.1719s-3.1719 5.4948-3.1719 8.8281v32c0 3.3333 0.89573 6.552 3.1719 8.8281s5.4948 3.1719 8.8281 3.1719h32c3.3333 0 6.552-0.89574 8.8281-3.1719s3.1719-5.4948 3.1719-8.8281v-32c0-3.3333-0.89574-6.552-3.1719-8.8281s-5.4948-3.1719-8.8281-3.1719zm0 11h32c1 0 1.0314 0.1876 0.92188 0.07813-0.10948-0.10948 0.078125-0.078129 0.078125 0.92187v4.8281a4.0004 4.0004 0 0 0-2-0.82812h-13a4.0004 4.0004 0 0 0-3.418 2.5938c-1.8077-1.5912-4.1803-2.5938-6.582-2.5938h-7a4.0004 4.0004 0 0 0-2 0.82812v-4.8281c0-1 0.1876-1.0314 0.07813-0.92188-0.10948 0.10948-0.078129-0.078125 0.92187-0.078125zm33 26.08v6.9199c0 1-0.1876 1.0314-0.07813 0.92188 0.10948-0.10948 0.078129 0.078125-0.92187 0.078125h-32c-1 0-1.0314-0.1876-0.92188-0.078125s-0.078125 0.078124-0.078125-0.92188v-3.8281a4.0004 4.0004 0 0 0 2 0.82812h4a4.0004 4.0004 0 0 0 2.9863-1.5527 4.0004 4.0004 0 0 0 2.5137 1.5527h4a4.0004 4.0004 0 0 0 3.1484-1.918c1.4867 1.1024 3.2676 1.869 5.0996 1.916a4.0004 4.0004 0 0 0 0.10156 0.001953h2.6504c2.4481 0 4.9482-1.0419 6.6777-2.7715l0.05078-0.05078c0.31526-0.31526 0.50277-0.73747 0.77149-1.0977z" color="#000000" style="-inkscape-stroke:none;paint-order:stroke markers fill"/>
<path d="m11 16v32c0 3.3333 1.6667 5 5 5h32c3.3333 0 5-1.6667 5-5v-32c0-3.3333-1.6667-5-5-5h-32c-3.3333 0-5 1.6667-5 5m5-8h32c5.3333 0 8 2.6667 8 8v32c0 5.3333-2.6667 8-8 8h-32c-5.3333 0-8-2.6667-8-8v-32c0-5.3333 2.6667-8 8-8m8 20h-3v4h3c0.53333 0 0.98333-0.18333 1.35-0.55l0.1-0.1c0.36667-0.36667 0.55-0.81667 0.55-1.35s-0.2-1-0.6-1.4-0.86667-0.6-1.4-0.6m0-4c1.6667 0 3.0833 0.58333 4.25 1.75s1.75 2.5833 1.75 4.25c0 1.6333-0.58333 3.0333-1.75 4.2l-0.05 0.05-0.75 0.65 3.05 6.1h-4l-2.5-5h-3v5h-4v-17zm18.5 12.6 0.1-0.1c0.26667-0.26667 0.4-0.6 0.4-1s-0.15-0.75-0.45-1.05-0.65-0.45-1.05-0.45h-7.5v-10h13v4h-9v2h3.5c1.5333 0 2.8333 0.53333 3.9 1.6s1.6 2.3667 1.6 3.9v0.5c-0.13333 1.3-0.66667 2.4167-1.6 3.35l-0.05 0.05c-1.0667 1.0667-2.35 1.6-3.85 1.6h-2.65c-1.3-0.03333-2.4167-0.5-3.35-1.4l-0.1-0.1c-0.7-0.73333-1.1333-1.5667-1.3-2.5l-0.1-1h4c0 0.26667 0.1 0.5 0.3 0.7s0.41667 0.3 0.65 0.3h2.55c0.4 0 0.73333-0.13333 1-0.4" color="#000000" fill="#fff" stroke-width="8" style="-inkscape-stroke:none;paint-order:stroke markers fill"/>
</g>
</svg>
