<?xml version="1.0" encoding="UTF-8"?>
<svg version="1.1" viewBox="0 0 64 64" xmlns="http://www.w3.org/2000/svg">
<g stroke-linecap="round" stroke-linejoin="round">
<path d="m16 4c-3.3333 0-6.552 0.89573-8.8281 3.1719s-3.1719 5.4948-3.1719 8.8281v32c0 3.3333 0.89573 6.552 3.1719 8.8281s5.4948 3.1719 8.8281 3.1719h32c3.3333 0 6.552-0.89574 8.8281-3.1719s3.1719-5.4948 3.1719-8.8281v-32c0-3.3333-0.89574-6.552-3.1719-8.8281s-5.4948-3.1719-8.8281-3.1719zm0 11h32c1 0 1.0314 0.1876 0.92188 0.07813-0.10948-0.10948 0.078125-0.078129 0.078125 0.92187v5.5859c-0.71514-0.9476-1.8142-1.5286-3-1.5859h-13c-2.209 2.21e-4 -3.9998 1.791-4 4v9h-3v-9c-2.21e-4 -2.209-1.791-3.9998-4-4h-4c-1.1858 0.05731-2.2849 0.63834-3 1.5859v-5.5859c0-1 0.1876-1.0314 0.07813-0.92188-0.10948 0.10948-0.078129-0.078125 0.92187-0.078125zm33 24.658v8.3418c0 1-0.1876 1.0314-0.07813 0.92188 0.10948-0.10948 0.078129 0.078125-0.92187 0.078125h-32c-1 0-1.0314-0.1876-0.92188-0.078125s-0.078125 0.078124-0.078125-0.92188v-4.5859c0.71514 0.9476 1.8142 1.5286 3 1.5859h12c1.2117-0.06712 2.3275-0.68068 3.0332-1.668 1.4182 0.94246 3.0346 1.6229 4.7148 1.666 0.03384 0.0011 0.0677 0.0017 0.10156 2e-3h2.6504c2.4481 0 4.9482-1.0419 6.6777-2.7715l0.05078-0.05078c0.72373-0.72378 1.3096-1.5916 1.7715-2.5196z" color="#000000" style="-inkscape-stroke:none;paint-order:stroke markers fill"/>
<path d="m16 8h32c5.3333 0 8 2.6667 8 8v32c0 5.3333-2.6667 8-8 8h-32c-5.3333 0-8-2.6667-8-8v-32c0-5.3333 2.6667-8 8-8m25.5 28.6 0.1-0.1c0.26667-0.26667 0.4-0.6 0.4-1s-0.15-0.75-0.45-1.05-0.65-0.45-1.05-0.45h-7.5v-10h13v4h-9v2h3.5c1.5333 0 2.8333 0.53333 3.9 1.6s1.6 2.3667 1.6 3.9v0.5c-0.13333 1.3-0.66667 2.4167-1.6 3.35l-0.05 0.05c-1.0667 1.0667-2.35 1.6-3.85 1.6h-2.65c-1.3-0.03333-2.4167-0.5-3.35-1.4l-0.1-0.1c-0.7-0.73333-1.1333-1.5667-1.3-2.5l-0.1-1h4c0 0.26667 0.1 0.5 0.3 0.7l0.65 0.3h2.55c0.4 0 0.73333-0.13333 1-0.4m-30.5-20.6v32c0 3.3333 1.6667 5 5 5h32c3.3333 0 5-1.6667 5-5v-32c0-3.3333-1.6667-5-5-5h-32c-3.3333 0-5 1.6667-5 5m11 8v13h8v4h-12v-17z" color="#000000" fill="#fff" stroke-width="8" style="-inkscape-stroke:none;paint-order:stroke markers fill"/>
</g>
</svg>
