<?xml version="1.0" encoding="UTF-8"?>
<svg version="1.1" viewBox="0 0 64 64" xmlns="http://www.w3.org/2000/svg">
<g stroke-linecap="round" stroke-linejoin="round">
<path d="m16 4c-3.3333 0-6.552 0.89573-8.8281 3.1719s-3.1719 5.4948-3.1719 8.8281v32c0 3.3333 0.89573 6.552 3.1719 8.8281s5.4948 3.1719 8.8281 3.1719h32c3.3333 0 6.552-0.89574 8.8281-3.1719s3.1719-5.4948 3.1719-8.8281v-32c0-3.3333-0.89574-6.552-3.1719-8.8281s-5.4948-3.1719-8.8281-3.1719zm0 11h32c1 0 1.0314 0.1876 0.92188 0.07813-0.10948-0.10948 0.078125-0.078129 0.078125 0.92187v8a4.0004 4.0004 0 0 0-4-4h-4a4.0004 4.0004 0 0 0-2 0.82812 4.0004 4.0004 0 0 0-2-0.82812h-4a4.0004 4.0004 0 0 0-4 4v8.0508c0 0.30742 0.13983 0.62958 0.19727 0.94922h-1.1973v-9a4.0004 4.0004 0 0 0-4-4h-4a4.0004 4.0004 0 0 0-4 4v17a4.0004 4.0004 0 0 0 4 4h12a4.0004 4.0004 0 0 0 4-4v-3h1v3a4.0004 4.0004 0 0 0 4 4h4a4.0004 4.0004 0 0 0 4-4v7c0 1-0.1876 1.0314-0.07813 0.92188 0.10948-0.10948 0.078129 0.078125-0.92187 0.078125h-32c-1 0-1.0314-0.1876-0.92188-0.078125s-0.078125 0.078124-0.078125-0.92188v-32c0-1 0.1876-1.0314 0.07813-0.92188-0.10948 0.10948-0.078129-0.078125 0.92187-0.078125z" color="#000000" style="-inkscape-stroke:none;paint-order:stroke markers fill"/>
<path d="m16 8h32c5.3333 0 8 2.6667 8 8v32c0 5.3333-2.6667 8-8 8h-32c-5.3333 0-8-2.6667-8-8v-32c0-5.3333 2.6667-8 8-8m-5 8v32c0 3.3333 1.6667 5 5 5h32c3.3333 0 5-1.6667 5-5v-32c0-3.3333-1.6667-5-5-5h-32c-3.3333 0-5 1.6667-5 5m34 25h-4v-7h-6.05c-0.53333 0-1-0.2-1.4-0.6-0.36667-0.36667-0.55-0.81667-0.55-1.35v-8.05h4v6h4v-6h4zm-21-17v13h8v4h-12v-17z" color="#000000" fill="#fff" stroke-width="8" style="-inkscape-stroke:none;paint-order:stroke markers fill"/>
</g>
</svg>
