<?xml version="1.0" encoding="UTF-8"?>
<svg version="1.1" viewBox="0 0 64 64" xmlns="http://www.w3.org/2000/svg">
<g stroke-linecap="round" stroke-linejoin="round">
<path d="m16 4c-3.3333 0-6.552 0.89573-8.8281 3.1719s-3.1719 5.4948-3.1719 8.8281v32c0 3.3333 0.89573 6.552 3.1719 8.8281s5.4948 3.1719 8.8281 3.1719h32c3.3333 0 6.552-0.89574 8.8281-3.1719s3.1719-5.4948 3.1719-8.8281v-32c0-3.3333-0.89574-6.552-3.1719-8.8281s-5.4948-3.1719-8.8281-3.1719zm0 11h32c1 0 1.0314 0.1876 0.92188 0.07813-0.10948-0.10948 0.078125-0.078129 0.078125 0.92187v5.5859c-0.71514-0.9476-1.8142-1.5286-3-1.5859h-4c-0.7301 0.087-1.4221 0.37353-2 0.82812-0.57789-0.4546-1.2699-0.74113-2-0.82812h-4c-1.3503 0.10519-2.5557 0.8865-3.2031 2.0762-1.7043-1.2281-3.7086-2.0762-5.7969-2.0762h-7c-1.1858 0.05731-2.2849 0.63834-3 1.5859v-5.5859c0-1 0.1876-1.0314 0.07813-0.92188-0.10948 0.10948-0.078129-0.078125 0.92187-0.078125zm18.293 22.641c0.55 0.1709 1.1048 0.35938 1.6562 0.35938h2.0508v3c2.21e-4 2.209 1.791 3.9998 4 4h4c1.1858-0.05731 2.2849-0.63834 3-1.5859v4.5859c0 1-0.1876 1.0314-0.07813 0.92188 0.10948-0.10948 0.078129 0.078125-0.92187 0.078125h-32c-1 0-1.0314-0.1876-0.92188-0.078125s-0.078125 0.078124-0.078125-0.92188v-4.5859c0.71514 0.9476 1.8142 1.5286 3 1.5859h4c1.1753-0.05324 2.2677-0.62119 2.9863-1.5527 0.60906 0.81937 1.5083 1.3749 2.5137 1.5527h4c2.9736-9.4e-5 4.9077-3.1293 3.5781-5.7891z" color="#000000" style="-inkscape-stroke:none;paint-order:stroke markers fill"/>
<path d="m11 16v32c0 3.3333 1.6667 5 5 5h32c3.3333 0 5-1.6667 5-5v-32c0-3.3333-1.6667-5-5-5h-32c-3.3333 0-5 1.6667-5 5m5-8h32c5.3333 0 8 2.6667 8 8v32c0 5.3333-2.6667 8-8 8h-32c-5.3333 0-8-2.6667-8-8v-32c0-5.3333 2.6667-8 8-8m30 33h-4v-7h-6.05c-0.53333 0-1-0.2-1.4-0.6-0.36667-0.36667-0.55-0.81667-0.55-1.35v-8.05h4v6h4v-6h4zm-21-17c1.6667 0 3.0833 0.58333 4.25 1.75s1.75 2.5833 1.75 4.25c0 1.6333-0.58333 3.0333-1.75 4.2l-0.05 0.05-0.75 0.65 3.05 6.1h-4l-2.5-5h-3v5h-4v-17zm0 4h-3v4h3c0.53333 0 0.98333-0.18333 1.35-0.55l0.1-0.1c0.36667-0.36667 0.55-0.81667 0.55-1.35s-0.2-1-0.6-1.4-0.86667-0.6-1.4-0.6" color="#000000" fill="#fff" stroke-width="8" style="-inkscape-stroke:none;paint-order:stroke markers fill"/>
</g>
</svg>
