<?xml version="1.0" encoding="UTF-8"?>
<svg version="1.1" viewBox="0 0 64 64" xmlns="http://www.w3.org/2000/svg">
<g stroke-linecap="round" stroke-linejoin="round">
<path d="m16 4c-3.3333 0-6.552 0.89573-8.8281 3.1719s-3.1719 5.4948-3.1719 8.8281v32c0 3.3333 0.89573 6.552 3.1719 8.8281s5.4948 3.1719 8.8281 3.1719h32c3.3333 0 6.552-0.89574 8.8281-3.1719s3.1719-5.4948 3.1719-8.8281v-20.5c-2.53e-4 -0.03321-9.2e-4 -0.06642-2e-3 -0.09961-0.15622-6.2506-2.602-11.961-7.0195-16.379-4.4175-4.4175-10.128-6.8633-16.379-7.0195-0.033194-0.0010645-0.066399-0.0017156-0.099609-0.0019531zm0 11h20.391c3.5754 0.10814 6.2483 1.2707 8.7656 3.8145 0.0097 0.0098 0.01948 0.01958 0.0293 0.0293 2.5767 2.5502 3.735 5.24 3.8144 8.8437v20.312c0 1-0.1876 1.0314-0.07813 0.92188 0.10948-0.10948 0.078129 0.078125-0.92187 0.078125h-32c-1 0-1.0314-0.1876-0.92188-0.078125s-0.078125 0.078124-0.078125-0.92188v-7c2.21e-4 2.209 1.791 3.9998 4 4h4c1.1753-0.05324 2.2677-0.62119 2.9863-1.5527 0.60906 0.81937 1.5083 1.3749 2.5137 1.5527h4c1.3875-0.09062 2.6284-0.89523 3.2773-2.125 0.6388 1.214 1.8551 2.0161 3.2227 2.125h4c2.209-2.21e-4 3.9998-1.791 4-4v-17c-2.21e-4 -2.209-1.791-3.9998-4-4h-4c-1.0608 2.04e-4 -2.0781 0.42173-2.8281 1.1719l-2.5586 2.5586c-0.20467-0.2518-0.30642-0.57986-0.53516-0.80859-1.8401-1.8401-4.4781-2.9219-7.0781-2.9219h-7c-2.209 2.21e-4 -3.9998 1.791-4 4v-8c0-1 0.1876-1.0314 0.07813-0.92188-0.10948 0.10948-0.078129-0.078125 0.92187-0.078125z" color="#000000" style="-inkscape-stroke:none;paint-order:stroke markers fill"/>
<path d="m43 41h-4v-12.05h-3v-1.95l3-3h4zm13-7v14c0 5.3333-2.6667 8-8 8h-32c-5.3333 0-8-2.6667-8-8v-32c0-5.3333 2.6667-8 8-8h20.5c5.3333 0.13333 9.8833 2.0833 13.65 5.85s5.7167 8.3167 5.85 13.65v6.5m-19.5-23h-20.5c-3.3333 0-5 1.6667-5 5v32c0 3.3333 1.6667 5 5 5h32c3.3333 0 5-1.6667 5-5v-20.4c-0.1-4.5333-1.7667-8.4-5-11.6-3.1667-3.2-7-4.8667-11.5-5m-10.5 13c1.6667 0 3.0833 0.58333 4.25 1.75s1.75 2.5833 1.75 4.25c0 1.6333-0.58333 3.0333-1.75 4.2l-0.05 0.05-0.75 0.65 3.05 6.1h-4l-2.5-5h-3v5h-4v-17zm0 4h-3v4h3c0.53333 0 0.98333-0.18333 1.35-0.55l0.1-0.1c0.36667-0.36667 0.55-0.81667 0.55-1.35s-0.2-1-0.6-1.4-0.86667-0.6-1.4-0.6" color="#000000" fill="#fff" stroke-width="8" style="-inkscape-stroke:none;paint-order:stroke markers fill"/>
</g>
</svg>
