<?xml version="1.0" encoding="UTF-8"?>
<svg version="1.1" viewBox="0 0 64 64" xmlns="http://www.w3.org/2000/svg">
<g stroke-linecap="round" stroke-linejoin="round">
<path d="m16 4c-3.3333 0-6.552 0.89573-8.8281 3.1719s-3.1719 5.4948-3.1719 8.8281v32c0 3.3333 0.89573 6.552 3.1719 8.8281s5.4948 3.1719 8.8281 3.1719h20.5c0.03321-2.53e-4 0.06642-9.2e-4 0.09961-2e-3 6.2506-0.15626 11.961-2.6021 16.379-7.0195s6.8633-10.128 7.0195-16.379c0.0011-0.03318 0.0017-0.06637 2e-3 -0.09956v-20.5c-4.8e-5 -3.3333-0.89578-6.552-3.1719-8.8281s-5.4948-3.1719-8.8281-3.1719zm0 11h32c1 0 1.0314 0.1876 0.92188 0.07813-0.10948-0.10948 0.078125-0.078129 0.078125 0.92187v9.3281c-0.10466-0.24877-0.23423-0.48631-0.38672-0.70898l-1-1.3496c-0.11707-0.15836-0.24568-0.30785-0.38476-0.44726l-0.05078-0.05078c-1.7296-1.7296-4.2296-2.7715-6.6777-2.7715h-1.6504c-0.03386 2.37e-4 -0.06772 9.04e-4 -0.10156 2e-3 -2.1976 0.05635-4.4418 0.99253-6.0254 2.5195-0.01708 0.01677-0.03401 0.0337-0.05078 0.05078l-0.09961 0.09961c-0.0224 0.02188-0.04453 0.04401-0.06641 0.06641-0.11204 0.11737-0.179 0.27626-0.28516 0.40039-0.05952-0.06294-0.08137-0.15559-0.14258-0.2168-1.8401-1.8402-4.4781-2.9219-7.0781-2.9219h-7c-1.1858 0.05731-2.2849 0.63834-3 1.5859v-5.5859c0-1 0.1876-1.0314 0.07813-0.92188-0.10948 0.10948-0.078129-0.078125 0.92187-0.078125zm-1 28.414c0.71514 0.9476 1.8142 1.5286 3 1.5859h4c1.1753-0.05324 2.2677-0.62119 2.9863-1.5527 0.60906 0.81937 1.5083 1.3749 2.5137 1.5527h4c0.47553-0.0762 0.9334-0.23765 1.3516-0.47656 0.35564 0.21774 0.74313 0.37854 1.1484 0.47656h11.295c-0.04878 0.04944-0.05953 0.10692-0.10938 0.15625-0.0098 0.0097-0.01958 0.01948-0.0293 0.0293-2.5173 2.5438-5.1903 3.7063-8.7656 3.8144h-20.391c-1 0-1.0314-0.1876-0.92188-0.078125s-0.078125 0.078124-0.078125-0.92188z" color="#000000" style="-inkscape-stroke:none;paint-order:stroke markers fill"/>
<path d="m36.5 53c4.5-0.13333 8.3333-1.8 11.5-5 3.2333-3.2 4.9-7.0667 5-11.6v-20.4c0-3.3333-1.6667-5-5-5h-32c-3.3333 0-5 1.6667-5 5v32c0 3.3333 1.6667 5 5 5h20.5m19.5-23v6.5c-0.13333 5.3333-2.0833 9.8833-5.85 13.65s-8.3167 5.7167-13.65 5.85h-20.5c-5.3333 0-8-2.6667-8-8v-32c0-5.3333 2.6667-8 8-8h32c5.3333 0 8 2.6667 8 8v14m-14.5-1.6c-0.26667-0.26667-0.6-0.4-1-0.4h-1.65l-0.55 0.3c-0.2 0.2-0.3 0.43333-0.3 0.7h-4l0.1-1c0.16667-0.93333 0.6-1.7667 1.3-2.5l0.1-0.1c0.93333-0.9 2.05-1.3667 3.35-1.4h1.65c1.5 0 2.7833 0.53333 3.85 1.6l0.05 0.05 1 1.35c0.83333 2.2333 0.51667 4.0833-0.95 5.55l-4.45 4.45h6v4h-12v-4l7-6.55c0.83333-0.86667 1-1.55 0.5-2.05m-16.5-4.4c1.6667 0 3.0833 0.58333 4.25 1.75s1.75 2.5833 1.75 4.25c0 1.6333-0.58333 3.0333-1.75 4.2l-0.05 0.05-0.75 0.65 3.05 6.1h-4l-2.5-5h-3v5h-4v-17zm0 4h-3v4h3c0.53333 0 0.98333-0.18333 1.35-0.55l0.1-0.1c0.36667-0.36667 0.55-0.81667 0.55-1.35s-0.2-1-0.6-1.4-0.86667-0.6-1.4-0.6" color="#000000" fill="#fff" stroke-width="8" style="-inkscape-stroke:none;paint-order:stroke markers fill"/>
</g>
</svg>
