<?xml version="1.0" encoding="UTF-8"?>
<svg version="1.1" viewBox="0 0 64 64" xmlns="http://www.w3.org/2000/svg">
<path d="m16 4c-3.3333 0-6.552 0.89573-8.8281 3.1719s-3.1719 5.4948-3.1719 8.8281v32c0 3.3333 0.89573 6.552 3.1719 8.8281s5.4948 3.1719 8.8281 3.1719h32c3.3333 0 6.552-0.89574 8.8281-3.1719s3.1719-5.4948 3.1719-8.8281v-20.551l-2e-3 -0.04883c-0.15622-6.2506-2.602-11.961-7.0195-16.379-4.4175-4.4175-10.128-6.8633-16.379-7.0195l-0.048828-0.0019531z" color="#000000" style="-inkscape-stroke:none;paint-order:stroke markers fill"/>
<path d="m43 24h-4l-3 3v1.95h3v12.05h4v-17m13 10v14q0 8-8 8h-32q-8 0-8-8v-32q0-8 8-8h20.5q8 0.2 13.65 5.85t5.85 13.65v6.5m-37-10v17h4v-5h3l2.5 5h4l-3.05-6.1 0.75-0.65 0.05-0.05q1.75-1.75 1.75-4.2 0-2.5-1.75-4.25t-4.25-1.75h-7m7 4q0.8 0 1.4 0.6t0.6 1.4-0.55 1.35l-0.1 0.1q-0.55 0.55-1.35 0.55h-3v-4h3" color="#000000" fill="#fff" stroke-width="8" style="-inkscape-stroke:none;paint-order:stroke markers fill"/>
</svg>
