<?xml version="1.0" encoding="UTF-8"?>
<svg version="1.1" viewBox="0 0 64 64" xmlns="http://www.w3.org/2000/svg">
<g stroke-linecap="round" stroke-linejoin="round">
<path d="m32 4c-7.5713 0-14.451 2.8325-19.818 8.1621-0.0065 0.0065-0.01304 0.013-0.01953 0.01953-5.3296 5.3677-8.1621 12.247-8.1621 19.818 0 7.5953 2.831 14.471 8.1719 19.779 0.0017 0.0017 0.0042 0.0022 0.0059 0.0039s0.0022 0.0042 0.0039 0.0059c5.3638 5.3589 12.245 8.2109 19.818 8.2109 7.5967 0 14.473-2.8532 19.777-8.2227 5.3694-5.3039 8.2227-12.181 8.2227-19.777 0-7.5734-2.852-14.454-8.2109-19.818l-0.0059-0.0039c-5.3084-5.3441-12.186-8.1777-19.783-8.1777zm0 11c4.8962 0 8.6165 1.5457 12.01 4.9668l0.0078 0.0039 0.0039 0.0078c3.4332 3.4332 4.9785 7.164 4.9785 12.022 0 3.9251-1.0504 7.0805-2.1678 7.7971 0.058732-0.47353-9.1174-19.283-9.1174-19.283-0.60791-1.5186-2.0791-2.5141-3.7148-2.5137h-4c-1.6357-3.98e-4 -3.1069 0.99509-3.7148 2.5137l-9.0701 19.399c-1.0701-0.60062-2.215-3.8411-2.215-7.9131 0-4.8575 1.5454-8.5884 4.9785-12.021 3.4331-3.4331 7.164-4.9785 12.021-4.9785zm-1.6914 27h3.3828l0.59375 1.4863c0.60791 1.5186 2.0791 2.5141 3.7148 2.5137h3.6875c-2.7865 2.0284-5.8765 3-9.6875 3-3.7785 0-6.8685-0.96866-9.6738-3h3.6738c1.6357 3.98e-4 3.1069-0.99509 3.7148-2.5137zm19.381 7.666-0.02344 0.02344c4e-3 -4e-3 0.0057-0.0097 0.0098-0.01367 4e-3 -4e-3 0.0097-0.0057 0.01367-0.0098z" color="#000000" style="-inkscape-stroke:none;paint-order:stroke markers fill"/>
<path d="m56 32c0 6.6667-2.35 12.317-7.05 16.95-4.6333 4.7-10.283 7.05-16.95 7.05-6.6333 0-12.3-2.35-17-7.05-4.6667-4.6333-7-10.283-7-16.95 0-6.6333 2.3333-12.3 7-17 4.7-4.6667 10.367-7 17-7 6.6667 0 12.317 2.3333 16.95 7 4.7 4.7 7.05 10.367 7.05 17m-26.8 2h5.6l-2.8-7zm7.2 4h-8.8l-1.6 4h-4l8-20h4l8 20h-4zm10.45-20.85c-4.0667-4.1-9.0167-6.15-14.85-6.15-5.8 0-10.75 2.05-14.85 6.15s-6.15 9.05-6.15 14.85c0 5.8333 2.05 10.783 6.15 14.85 4.1 4.1 9.05 6.15 14.85 6.15 5.8333 0 10.783-2.05 14.85-6.15 4.1-4.0667 6.15-9.0167 6.15-14.85 0-5.8-2.05-10.75-6.15-14.85" color="#000000" fill="#fff" stroke-width="8" style="-inkscape-stroke:none;paint-order:stroke markers fill"/>
</g>
</svg>
