<?xml version="1.0" encoding="UTF-8"?>
<svg version="1.1" viewBox="0 0 64 64" xmlns="http://www.w3.org/2000/svg">
<g stroke-linecap="round" stroke-linejoin="round">
<path d="m22.9 18c-3.8593 0-7.5621 1.3757-10.387 3.9355a4.0004 4.0004 0 0 0-0.02539 0.02344c-2.8206 2.6002-4.4883 6.2462-4.4883 10.041 0 3.774 1.676 7.3976 4.4883 9.9902 2.8203 2.6 6.538 4.0098 10.412 4.0098h18.199c3.8741 0 7.5918-1.4098 10.412-4.0098 2.8123-2.5926 4.4883-6.2163 4.4883-9.9902 0-3.7948-1.6677-7.4408-4.4883-10.041a4.0004 4.0004 0 0 0-0.02539-0.02344c-2.8247-2.5598-6.5275-3.9355-10.387-3.9355zm-0.90039 11.137v0.86328a4.0004 4.0004 0 0 0 0.20703 0.5 4.0004 4.0004 0 0 0-0.20703 0.5v2a4.0004 4.0004 0 0 0 0.20703 0.5 4.0004 4.0004 0 0 0-0.20703 0.5v0.86328c-0.77147-0.12961-1.4126-0.38101-2.0508-0.96484a4.0004 4.0004 0 0 0-0.0059-0.0059c-0.82978-0.75601-0.94332-1.0973-0.94332-1.8925 0-0.81641 0.14673-1.1837 0.88672-1.875a4 4 0 0 0 0.0625-0.02344c0.63814-0.58383 1.2793-0.83523 2.0508-0.96484zm20 2e-3c0.79153 0.13126 1.4579 0.3874 2.1309 0.99023a4.0004 4.0004 0 0 0 0.02734 0.0039c0.67761 0.65801 0.8418 1.0455 0.8418 1.8671 0 0.80541-0.13559 1.1701-0.90234 1.8926-0.65923 0.58361-1.3194 0.83968-2.0977 0.96875v-0.86133a4.0004 4.0004 0 0 0-0.20703-0.5 4.0004 4.0004 0 0 0 0.20703-0.5v-2a4.0004 4.0004 0 0 0-0.20703-0.5 4.0004 4.0004 0 0 0 0.20703-0.5z" color="#000000" style="-inkscape-stroke:none;paint-order:stroke markers fill"/>
<path d="m22.9 22h18.2c3 0 5.5667 0.96667 7.7 2.9 2.1333 1.9667 3.2 4.3333 3.2 7.1 0 2.7333-1.0667 5.0833-3.2 7.05s-4.7 2.95-7.7 2.95h-18.2c-3 0-5.5667-0.98333-7.7-2.95s-3.2-4.3167-3.2-7.05c0-2.7667 1.0667-5.1333 3.2-7.1 2.1333-1.9333 4.7-2.9 7.7-2.9m-5.65 5.15v-0.05c-1.5 1.3667-2.25 3-2.25 4.9 0 1.8667 0.75 3.4833 2.25 4.85 1.5667 1.4333 3.45 2.15 5.65 2.15h18.2c2.2 0 4.1-0.71667 5.7-2.15 1.4667-1.3667 2.2-2.9833 2.2-4.85 0-1.9-0.73333-3.5333-2.2-4.9v0.05c-1.6-1.4333-3.5-2.15-5.7-2.15h-18.2c-2.2 0-4.0833 0.71667-5.65 2.15m20.75 3.85v2h-12v-2zm0 3v2h-12v-2zm0-6v2h-12v-2z" color="#000000" fill="#fff" stroke-width="8" style="-inkscape-stroke:none;paint-order:stroke markers fill"/>
</g>
</svg>
