<?xml version="1.0" encoding="UTF-8"?>
<svg version="1.1" viewBox="0 0 64 64" xmlns="http://www.w3.org/2000/svg">
<path d="m22.9 18c-3.8593 0-7.5621 1.3757-10.387 3.9355l-0.01172 0.01172-0.01367 0.01172c-2.8206 2.6002-4.4883 6.2462-4.4883 10.041 0 3.774 1.676 7.3976 4.4883 9.9902 2.8203 2.6 6.538 4.0098 10.412 4.0098h18.199c3.8741 0 7.5918-1.4098 10.412-4.0098 2.8123-2.5926 4.4883-6.2163 4.4883-9.9902 0-3.7948-1.6677-7.4408-4.4883-10.041l-0.01367-0.01172-0.01172-0.01172c-2.8247-2.5598-6.5275-3.9355-10.387-3.9355z" color="#000000" style="-inkscape-stroke:none;paint-order:stroke markers fill"/>
<path d="m22.9 22h18.2c3 0 5.5667 0.96667 7.7 2.9 2.1333 1.9667 3.2 4.3333 3.2 7.1 0 2.7333-1.0667 5.0833-3.2 7.05s-4.7 2.95-7.7 2.95h-18.2c-3 0-5.5667-0.98333-7.7-2.95s-3.2-4.3167-3.2-7.05c0-2.7667 1.0667-5.1333 3.2-7.1 2.1333-1.9333 4.7-2.9 7.7-2.9m3.1 7h12v-2h-12zm0 8h12v-2h-12zm0-4h12v-2h-12z" color="#000000" fill="#fff" stroke-width="8" style="-inkscape-stroke:none;paint-order:stroke markers fill"/>
</svg>
