<?xml version="1.0" encoding="UTF-8" standalone="no"?>
<svg
   version="1.1"
   width="96"
   height="96"
   id="svg68"
   sodipodi:docname="w.svg"
   inkscape:version="1.2.2 (b0a8486541, 2022-12-01)"
   xmlns:inkscape="http://www.inkscape.org/namespaces/inkscape"
   xmlns:sodipodi="http://sodipodi.sourceforge.net/DTD/sodipodi-0.dtd"
   xmlns="http://www.w3.org/2000/svg"
   xmlns:svg="http://www.w3.org/2000/svg">
  <defs
     id="defs72" />
  <sodipodi:namedview
     id="namedview70"
     pagecolor="#ffffff"
     bordercolor="#000000"
     borderopacity="0.25"
     inkscape:showpageshadow="2"
     inkscape:pageopacity="0.0"
     inkscape:pagecheckerboard="0"
     inkscape:deskcolor="#d1d1d1"
     showgrid="false"
     inkscape:zoom="8.8541667"
     inkscape:cx="48.056471"
     inkscape:cy="48.056471"
     inkscape:window-width="1452"
     inkscape:window-height="752"
     inkscape:window-x="170"
     inkscape:window-y="114"
     inkscape:window-maximized="0"
     inkscape:current-layer="svg68" />
  <path
     d="M0 0 C10.23906578 7.73254248 18.72711365 17.59665562 20.6875 30.6875 C22.11678455 48.13329299 19.50517553 61.04058775 8.03125 74.65234375 C0.02533375 83.28136197 -10.26078398 88.35475631 -21.96875 89.00390625 C-38.65548452 89.56319388 -50.64291019 85.89777041 -63.0625 74.375 C-73.05541038 63.81645319 -75.82689781 52.26922077 -75.73217773 38.15722656 C-75.32139743 24.03483761 -69.475381 12.95884274 -59.25 3.28125 C-42.59283172 -10.42061423 -18.05009418 -11.9794347 0 0 Z "
     fill="#3E3F41"
     transform="translate(75.3125,7.3125)"
     id="path50" />
  <path
     d="M0 0 C10.23906578 7.73254248 18.72711365 17.59665562 20.6875 30.6875 C22.11678455 48.13329299 19.50517553 61.04058775 8.03125 74.65234375 C0.02533375 83.28136197 -10.26078398 88.35475631 -21.96875 89.00390625 C-38.65548452 89.56319388 -50.64291019 85.89777041 -63.0625 74.375 C-73.05541038 63.81645319 -75.82689781 52.26922077 -75.73217773 38.15722656 C-75.32139743 24.03483761 -69.475381 12.95884274 -59.25 3.28125 C-42.59283172 -10.42061423 -18.05009418 -11.9794347 0 0 Z M-62.38671875 11.20703125 C-70.25954352 21.34748506 -73.1481554 32.03111905 -72.3125 44.6875 C-70.22899038 57.69713093 -64.71166532 69.57173256 -53.85546875 77.4765625 C-42.04838097 84.84012262 -29.92941914 87.58440406 -16.25 84.5 C-7.92762601 82.21668201 -0.19583871 78.13836334 5.6875 71.6875 C5.6875 71.0275 5.6875 70.3675 5.6875 69.6875 C6.3475 69.6875 7.0075 69.6875 7.6875 69.6875 C15.94609146 58.66837658 18.61415304 46.24409072 17.6875 32.6875 C15.67071074 21.09950748 8.89393058 10.8746269 -0.3125 3.6875 C-21.47903613 -9.35340786 -44.97015425 -6.83778608 -62.38671875 11.20703125 Z "
     fill="#292A2C"
     transform="translate(75.3125,7.3125)"
     id="path54" />
  <path
     d="M0 0 C5.18469923 3.67132757 11.25750083 8.08500249 13.3125 14.25 C12.6525 14.25 11.9925 14.25 11.3125 14.25 C10.8175 15.735 10.8175 15.735 10.3125 17.25 C7.3125 12.5 7.3125 12.5 7.3125 10.25 C6.77625 10.023125 6.24 9.79625 5.6875 9.5625 C3.3125 8.25 3.3125 8.25 0.75 5.9375 C-7.54227094 -1.15512768 -18.00547544 -3.48270205 -28.6875 -2.75 C-41.59429714 -1.28806505 -50.6995697 5.51214547 -59.2890625 15.0234375 C-60.6875 16.25 -60.6875 16.25 -63.6875 16.25 C-60.88372571 7.86850451 -53.8328814 2.09432422 -46.17675781 -1.89697266 C-30.91640676 -9.39125192 -14.5374769 -9.01816363 0 0 Z "
     fill="#646568"
     transform="translate(72.6875,9.75)"
     id="path56" />
  <path
     d="M0 0 C0.66 0.33 1.32 0.66 2 1 C1.67 1.33 1.34 1.66 1 2 C1.66 2.66 2.32 3.32 3 4 C2.46890625 4.45890625 1.9378125 4.9178125 1.390625 5.390625 C-3.09259108 9.27441688 -3.09259108 9.27441688 -7.3125 13.4375 C-9 15 -9 15 -12 15 C-10.57641609 10.45925821 -8.27867927 7.96026853 -4.875 4.6875 C-3.96492188 3.80449219 -3.05484375 2.92148438 -2.1171875 2.01171875 C-1.41851562 1.34785156 -0.71984375 0.68398437 0 0 Z "
     fill="#5C5D60"
     transform="translate(21,11)"
     id="path58" />
  <path
     d="M0 0 C1.051875 0.5878125 1.051875 0.5878125 2.125 1.1875 C-0.49801226 2.93617484 -3.08151868 4.42421878 -5.875 5.875 C-6.74125 6.33261719 -7.6075 6.79023438 -8.5 7.26171875 C-10.875 8.1875 -10.875 8.1875 -13.875 7.1875 C-5.77145522 -1.63106343 -5.77145522 -1.63106343 0 0 Z "
     fill="#636466"
     transform="translate(34.875,5.8125)"
     id="path60" />
  <path
     d="M0 0 C0.33 0.66 0.66 1.32 1 2 C1.66 2.33 2.32 2.66 3 3 C1.1875 5 1.1875 5 -1 7 C-1.99 7 -2.98 7 -4 7 C-2.92598892 4.08482708 -2.22189824 2.22189824 0 0 Z "
     fill="#545557"
     transform="translate(13,19)"
     id="path62" />
  <path
     d="M0 0 C1.32 1.32 2.64 2.64 4 4 C3.01 4.495 3.01 4.495 2 5 C1.67 5.99 1.34 6.98 1 8 C-2 3.25 -2 3.25 -2 1 C-1.34 0.67 -0.68 0.34 0 0 Z "
     fill="#545557"
     transform="translate(82,19)"
     id="path64" />
  <path
     d="M0 0 C2.3828125 -0.29296875 2.3828125 -0.29296875 5.125 -0.1875 C6.03507812 -0.16042969 6.94515625 -0.13335937 7.8828125 -0.10546875 C8.58148438 -0.07066406 9.28015625 -0.03585937 10 0 C5.96707255 2.2344598 2.55032566 2.54496743 -2 3 C-1.34 2.01 -0.68 1.02 0 0 Z "
     fill="#707173"
     transform="translate(35,4)"
     id="path66" />
  <path
     d="m 20.532319,20.925365 c 17.82,0 35.64,0 54,0 0,17.82 0,35.64 0,54 -17.82,0 -35.64,0 -54,0 0,-17.82 0,-35.64 0,-54 z m 6,6 c 0,13.53 0,27.06 0,41 13.86,0 27.72,0 42,0 0,-13.53 0,-27.06 0,-41 -13.86,0 -27.72,0 -42,0 z"
     fill="#cca3be"
     id="path34" />
</svg>
