<?xml version="1.0" encoding="UTF-8"?>
<svg viewBox="0 0 64 64" xmlns="http://www.w3.org/2000/svg">
<path d="m21.5 10h21q7.5 0.25 7.5 8v20q0 6.6-4.7 11.3t-11.3 4.7h-4q-6.6 0-11.3-4.7t-4.7-11.3v-20q0-7.75 7.5-8m-4.5 8v10h9v-6q0-2.5 1.75-4.25 1-1 2.25-1.4v-3.35h-8q-5 0-5 5m30 20v-7h-9.05q-0.3 1.85-1.7 3.25-1.75 1.75-4.25 1.75t-4.25-1.75q-1.4-1.4-1.65-3.25h-9.1v7q0 5.35 3.85 9.2 3.8 3.8 9.15 3.8h4q5.35 0 9.2-3.8 3.8-3.85 3.8-9.2m-5-25h-8v3.35q1.25 0.4 2.25 1.4 1.75 1.75 1.75 4.25v6h9v-10q0-5-5-5" fill="#fff"/>
</svg>
