<?xml version="1.0" encoding="UTF-8"?>
<svg viewBox="0 0 64 64" xmlns="http://www.w3.org/2000/svg">
<g fill="#fff">
<path d="m39.8 18 1.85 0.45q1.35 0.85 1.35 3.3v5.25h-6v-1q0-2.1-1.45-3.55-1.1-1.1-2.55-1.35v-3.1h6.8m-7.8 5q1.25 0 2.1 0.85 0.9 0.9 0.9 2.15v4.1q0 1.15-0.9 2-0.8 0.85-1.95 0.9h-0.3q-1.15-0.05-2-0.9t-0.85-2v-4.1q0-1.25 0.85-2.15 0.9-0.85 2.15-0.85m11 12.65v0.35q-0.2 4-3.2 6.85-3.1 3-7.45 3.15h-0.65q-4.35-0.15-7.5-3.15-2.95-2.85-3.15-6.85l-0.05-0.3v-6.7h6.1v2q0.25 1.45 1.35 2.55 1.45 1.45 3.55 1.45 2.05 0 3.5-1.45l0.05-0.05q1.1-1.1 1.35-2.5v-2h6.1v6.65m-22-13.9q0-2.45 1.4-3.3 0.7-0.45 1.85-0.45h6.75v3.1q-1.4 0.25-2.5 1.3l-0.1 0.1q-1.4 1.45-1.4 3.5v1h-6v-5.25"/>
<path d="m32 6 6 6v2h-12v-2l6-6"/>
<path d="m9 32 6-6h2v12h-2l-6-6"/>
<path d="m32 58-6-6v-2h12v2l-6 6"/>
<path d="m55 32-6 6h-2v-12h2l6 6"/>
</g>
</svg>
