<?xml version="1.0" encoding="UTF-8"?>
<svg viewBox="0 0 64 64" xmlns="http://www.w3.org/2000/svg">
<path d="m34 10h10q1.75 0 2.9 0.6 2.1 1.15 2.1 4.4v10h-11v-6q0-2.5-1.75-4.25-1-1-2.25-1.4v-3.35m-4.1 6.9q0.85-0.9 2.1-0.9t2.15 0.9q0.85 0.85 0.85 2.1v8l-0.15 1-0.7 1.15q-0.9 0.85-2.15 0.85t-2.1-0.85q-0.5-0.5-0.7-1.15l-0.2-1v-8q0-1.25 0.9-2.1m-14.9 11.1h11.1q0.25 1.85 1.65 3.25 1.75 1.75 4.25 1.75t4.25-1.75q1.4-1.4 1.7-3.25h11.05v9.5q-0.2 6.75-5 11.5-4.75 4.8-11.5 5h-1q-6.75-0.2-11.55-5-4.75-4.75-4.95-11.5v-9.5m5-18h10v3.35q-1.25 0.4-2.25 1.4-1.75 1.75-1.75 4.25v6h-11v-10q0-3.25 2.15-4.4 1.1-0.6 2.85-0.6" fill="#fff"/>
</svg>
