<?xml version="1.0" encoding="UTF-8"?>
<svg viewBox="0 0 64 64" xmlns="http://www.w3.org/2000/svg">
<g fill="#fff">
<path d="m21.5 10h21q7.5 0.25 7.5 8v20q0 6.6-4.7 11.3t-11.3 4.7h-4q-6.6 0-11.3-4.7t-4.7-11.3v-20q0-7.75 7.5-8m20.5 3h-8v3.35q1.25 0.4 2.25 1.4 1.75 1.75 1.75 4.25v6h9v-10q0-5-5-5m-7.05 38q4.75-0.35 8.25-3.8 3.8-3.85 3.8-9.2v-7h-9.05q-0.3 1.85-1.7 3.25-1.7 1.7-4.1 1.75h-0.3q-2.4-0.05-4.1-1.75-1.4-1.4-1.65-3.25h-9.1v7q0 5.35 3.85 9.2 3.45 3.45 8.25 3.8 1.2 1 2.9 1 1.6 0.05 2.95-1m-17.95-33v10h9v-6q0-2.5 1.75-4.25 1-1 2.25-1.4v-3.35h-8q-5 0-5 5m13.85 30.5-6.4-6.65q-0.45-0.5-0.45-1.2t0.45-1.15q0.45-0.5 1.15-0.5h12.8q0.65 0 1.15 0.5 0.45 0.45 0.45 1.15t-0.45 1.2l-6.4 6.65q-0.5 0.5-1.15 0.5-0.7 0-1.15-0.5"/>
<path d="m30.85 48.5q0.45 0.5 1.15 0.5 0.65 0 1.15-0.5l6.4-6.65q0.45-0.5 0.45-1.2t-0.45-1.15q-0.5-0.5-1.15-0.5h-12.8q-0.7 0-1.15 0.5-0.45 0.45-0.45 1.15t0.45 1.2l6.4 6.65m1.3-12.5h6.25q1.85-0.05 3.3 1.4 1.3 1.25 1.3 3.25 0 1.85-1.2 3.2l-0.1 0.1-6.4 6.65v0.05l-0.35 0.35q-1.35 1.05-2.95 1-1.7 0-2.9-1l-0.4-0.4-6.4-6.65-0.05-0.1q-1.25-1.35-1.25-3.2 0-1.9 1.25-3.15 1.3-1.5 3.35-1.5h6.55" fill-opacity="0"/>
</g>
</svg>
