<?xml version="1.0" encoding="UTF-8"?>
<svg viewBox="0 0 64 64" xmlns="http://www.w3.org/2000/svg">
<g fill="#fff">
<path d="m42.85 10.05 0.15 1.3-0.25 1.7-1.05 1.55q-1.45 1.45-3.3 1.4h-12.8q-2.05 0-3.35-1.5-0.65-0.65-0.95-1.45t-0.3-1.7l0.2-1.3q0.3-1.05 1.05-1.9l0.05-0.1 6.4-6.65q1.3-1.4 3.3-1.4 1.85-0.05 3.3 1.35v0.05l6.4 6.65 0.1 0.1 1.05 1.9m-17.3 2.95h12.9q0.6 0 1.1-0.5 0.45-0.45 0.45-1.15t-0.45-1.2l-6.4-6.65q-0.5-0.5-1.15-0.5-0.7 0-1.15 0.5l-6.4 6.65q-0.45 0.5-0.45 1.2t0.45 1.15q0.45 0.5 1.1 0.5" fill-opacity="0"/>
<path d="m25.55 13q-0.65 0-1.1-0.5-0.45-0.45-0.45-1.15t0.45-1.2l6.4-6.65q0.45-0.5 1.15-0.5 0.65 0 1.15 0.5l6.4 6.65q0.45 0.5 0.45 1.2t-0.45 1.15q-0.5 0.5-1.1 0.5h-12.9m17.2 0.05 0.25-1.7-0.15-1.3q7.15 0.35 7.15 7.95v20q0 6.6-4.7 11.3t-11.3 4.7h-4q-6.6 0-11.3-4.7t-4.7-11.3v-20q0-7.6 7.2-7.95l-0.2 1.3q0 0.9 0.3 1.7-4.3 0.3-4.3 4.95v10h9v-6q0-2.5 1.75-4.25 1-1 2.25-1.4v-0.35h4v0.35q1.25 0.4 2.25 1.4 1.75 1.75 1.75 4.25v6h9v-10q0-4.6-4.25-4.95m4.25 24.95v-7h-9.05q-0.3 1.85-1.7 3.25-1.75 1.75-4.25 1.75t-4.25-1.75q-1.4-1.4-1.65-3.25h-9.1v7q0 5.35 3.85 9.2 3.8 3.8 9.15 3.8h4q5.35 0 9.2-3.8 3.8-3.85 3.8-9.2"/>
</g>
</svg>
