<?xml version="1.0" encoding="UTF-8"?>
<svg version="1.1" viewBox="0 0 64 64" xmlns="http://www.w3.org/2000/svg">
<path d="m9.5 14c-0.82839 8.3e-5 -1.4999 0.67161-1.5 1.5v14c8.28e-5 0.82839 0.67161 1.4999 1.5 1.5h5.5v-13l5-4z" fill="#e73246"/>
<path d="m34 10h10c1.1667 0 2.1333 0.2 2.9 0.6 1.4 0.76667 2.1 2.2333 2.1 4.4v10h-11v-6c0-1.6667-0.58333-3.0833-1.75-4.25-0.66667-0.66667-1.4167-1.1333-2.25-1.4v-3.35m-4.1 6.9c0.56667-0.6 1.2667-0.9 2.1-0.9s1.55 0.3 2.15 0.9c0.56667 0.56667 0.85 1.2667 0.85 2.1v8l-0.15 1-0.7 1.15c-0.6 0.56667-1.3167 0.85-2.15 0.85s-1.5333-0.28333-2.1-0.85c-0.33333-0.33333-0.56667-0.71667-0.7-1.15l-0.2-1v-8c0-0.83333 0.3-1.5333 0.9-2.1m-14.9 11.1h11.1c0.16667 1.2333 0.71667 2.3167 1.65 3.25 1.1667 1.1667 2.5833 1.75 4.25 1.75s3.0833-0.58333 4.25-1.75c0.93333-0.93333 1.5-2.0167 1.7-3.25h11.05v9.5c-0.13333 4.5-1.8 8.3333-5 11.5-3.1667 3.2-7 4.8667-11.5 5h-1c-4.5-0.13333-8.35-1.8-11.55-5-3.1667-3.1667-4.8167-7-4.95-11.5v-9.5m5-18h10v3.35c-0.83333 0.26667-1.5833 0.73333-2.25 1.4-1.1667 1.1667-1.75 2.5833-1.75 4.25v6h-11v-10c0-2.1667 0.71667-3.6333 2.15-4.4 0.73333-0.4 1.6833-0.6 2.85-0.6" fill="#fff"/>
</svg>
