<?xml version="1.0" encoding="UTF-8"?>
<svg version="1.1" viewBox="0 0 64 64" xmlns="http://www.w3.org/2000/svg">
<path d="m27 4c-2 0-4.2187 0.5624-5.8281 2.1719s-2.1719 3.8281-2.1719 5.8281v7h-7c-2 0-4.2187 0.5624-5.8281 2.1719s-2.1719 3.8281-2.1719 5.8281v10c0 2 0.5624 4.2187 2.1719 5.8281s3.8281 2.1719 5.8281 2.1719h12.43c-0.14182 0.38754-0.33645 0.77233-0.38867 1.1523-0.18941 1.3605 0.18448 2.9457 0.93164 4.0664l2.1309 3.2773 0.12305 0.15234c0.72376 0.9047 1.7276 1.5957 2.7383 1.9844l0.08398 0.0332 0.08594 0.0293c1.1906 0.39686 2.5692 0.37263 3.6914 0.02734l0.71484-0.21875 2.0352-1.6074 2.4512-3.6777c0.74191-1.1129 1.0395-2.7103 0.83398-4.0664-0.048353-0.38044-0.19519-0.76422-0.33203-1.1523h12.471c2 0 4.2187-0.5624 5.8281-2.1719s2.1719-3.8281 2.1719-5.8281v-10c0-2-0.5624-4.2187-2.1719-5.8281s-3.8281-2.1719-5.8281-2.1719h-7v-7c0-2-0.5624-4.2187-2.1719-5.8281s-3.8281-2.1719-5.8281-2.1719zm12.941 13.566-0.08008 0.57227c0.01941-0.09058-0.01413-0.19777 0-0.29102 0.01179-0.09277 0.07401-0.19022 0.08008-0.28125zm-15.906 0.26172c8.48e-4 0.0064 5e-3 0.01316 0.0059 0.01953 7.82e-4 0.0056-8.02e-4 0.01197 0 0.01758zm1.9238 3.6309c0.02607 0.0237 0.06702 0.03338 0.09375 0.05664 0.02559 0.02186 0.0385 0.05885 0.06445 0.08008zm12.082 0-0.1582 0.13672c0.024-0.01963 0.03491-0.05595 0.05859-0.07617 0.02802-0.02434 0.07239-0.0358 0.09961-0.06055zm-11.041 0.62891c0.92015 0.52608 1.9484 0.91211 2.9492 0.91211h4.1504c1.0109 0 2.0116-0.38992 2.9004-0.90234v4.9023h4.9023c-0.51242 0.8888-0.90234 1.8894-0.90234 2.9004v4.1504c0 1.0008 0.38603 2.0291 0.91211 2.9492h-19.824c0.52608-0.92015 0.91211-1.9484 0.91211-2.9492v-4.1504c0-1.0109-0.38992-2.0116-0.90234-2.9004h4.9023zm-9.4336 1.9707 0.57227 0.08008c-0.09058-0.01941-0.19777 0.01413-0.29102 0-0.09277-0.01179-0.19022-0.07401-0.28125-0.08008zm28.867 0c-0.09103 0.0061-0.18848 0.06829-0.28125 0.08008-0.09324 0.01413-0.20044-0.01941-0.29102 0zm-24.975 1.9004 0.13672 0.1582c-0.01963-0.024-0.05595-0.03491-0.07617-0.05859-0.02434-0.02802-0.0358-0.07239-0.06055-0.09961zm21.082 0c-0.02474 0.02722-0.03621 0.07159-0.06055 0.09961-0.02023 0.02368-0.05654 0.0346-0.07617 0.05859zm-20.945 11.924-0.13672 0.1582c0.0237-0.02607 0.03338-0.06702 0.05664-0.09375 0.02186-0.02559 0.05885-0.0385 0.08008-0.06445zm20.809 0c0.02123 0.02595 0.05822 0.03887 0.08008 0.06445 0.02327 0.02673 0.03294 0.06768 0.05664 0.09375zm-24.557 2.0762c0.0056-7.82e-4 0.01197 8.02e-4 0.01758 0l-0.03711 0.0059c0.0064-8.48e-4 0.01316-5e-3 0.01953-0.0059zm8.2695 2.4453c-0.02595 0.02123-0.03887 0.05822-0.06445 0.08008-0.02673 0.02327-0.06768 0.03294-0.09375 0.05664zm11.766 0 0.1582 0.13672c-0.02722-0.02474-0.07159-0.03621-0.09961-0.06055-0.02368-0.02023-0.0346-0.05654-0.05859-0.07617z" color="#000000" style="-inkscape-stroke:none;paint-order:stroke markers fill"/>
<path d="m19 37v15c0 2 0.5624 4.2187 2.1719 5.8281s3.8281 2.1719 5.8281 2.1719h10c2 0 4.2187-0.5624 5.8281-2.1719s2.1719-3.8281 2.1719-5.8281v-15zm20.861 8.8613 0.08008 0.57227c-0.0061-0.09104-0.06829-0.18848-0.08008-0.28125-0.01413-0.09324 0.01941-0.20044 0-0.29102zm-15.82 0.27344c-8.02e-4 0.0056 7.82e-4 0.01196 0 0.01758-8.75e-4 0.0064-5e-3 0.01317-0.0059 0.01953z" color="#000000" style="-inkscape-stroke:none;paint-order:stroke markers fill"/>
<path d="m23 41h-11q-4 0-4-4v-10q0-4 4-4h11v-11q0-4 4-4h10q4 0 4 4v11h11q4 0 4 4v10q0 4-4 4h-29m25-12.7q-0.6-0.4-1.3-0.25-0.75 0.05-1.2 0.6-0.5 0.55-0.5 1.25v4.15q0 0.75 0.5 1.3 0.45 0.55 1.2 0.65l1.3-0.3 3.15-2.05 0.75-1.05q0.2-0.6 0-1.25l-0.75-0.95-3.15-2.1m-12.3-12.3-2.1-3.15-0.95-0.75q-0.65-0.2-1.25 0-0.65 0.25-1.05 0.75l-2.05 3.15q-0.4 0.6-0.3 1.3 0.1 0.75 0.65 1.2 0.55 0.5 1.3 0.5h4.15q0.7 0 1.25-0.5 0.55-0.45 0.6-1.2 0.15-0.7-0.25-1.3m-19.7 12.3-3.15 2.1q-0.5 0.35-0.75 0.95-0.2 0.65 0 1.25l0.75 1.05 3.15 2.05q0.6 0.4 1.3 0.3 0.75-0.1 1.2-0.65 0.5-0.55 0.5-1.3v-4.15q0-0.7-0.5-1.25-0.45-0.55-1.2-0.6-0.7-0.15-1.3 0.25m19.7 19.7-2.1 3.15-0.95 0.75q-0.65 0.2-1.25 0-0.65-0.25-1.05-0.75l-2.05-3.15q-0.4-0.6-0.3-1.3 0.1-0.75 0.65-1.2 0.55-0.5 1.3-0.5h4.15q0.7 0 1.25 0.5 0.55 0.45 0.6 1.2 0.15 0.7-0.25 1.3" color="#000000" fill="#fff" stroke-width="8" style="-inkscape-stroke:none;paint-order:stroke markers fill"/>
<path d="m35.7 48c0.26667-0.4 0.35-0.83333 0.25-1.3-0.03333-0.5-0.23333-0.9-0.6-1.2-0.36667-0.33333-0.78333-0.5-1.25-0.5h-4.15c-0.5 0-0.93333 0.16667-1.3 0.5-0.36667 0.3-0.58333 0.7-0.65 1.2-0.06667 0.46667 0.03333 0.9 0.3 1.3l2.05 3.15c0.26667 0.33333 0.61667 0.58333 1.05 0.75 0.4 0.13333 0.81667 0.13333 1.25 0l0.95-0.75 2.1-3.15m5.3 4c0 2.6667-1.3333 4-4 4h-10c-2.6667 0-4-1.3333-4-4v-11h18z" color="#000000" fill="#e73246" stroke-width="8" style="-inkscape-stroke:none;paint-order:stroke markers fill"/>
</svg>
