<?xml version="1.0" encoding="UTF-8"?>
<svg version="1.1" viewBox="0 0 64 64" xmlns="http://www.w3.org/2000/svg">
<g stroke-linecap="round" stroke-linejoin="round">
<path d="m27 4c-2 0-4.2187 0.5624-5.8281 2.1719s-2.1719 3.8281-2.1719 5.8281v7h-7c-2 0-4.2187 0.5624-5.8281 2.1719s-2.1719 3.8281-2.1719 5.8281v10c0 2 0.5624 4.2187 2.1719 5.8281s3.8281 2.1719 5.8281 2.1719h7v7c0 2 0.5624 4.2187 2.1719 5.8281s3.8281 2.1719 5.8281 2.1719h10c2 0 4.2187-0.5624 5.8281-2.1719s2.1719-3.8281 2.1719-5.8281v-7h7c2 0 4.2187-0.5624 5.8281-2.1719s2.1719-3.8281 2.1719-5.8281v-10c0-2-0.5624-4.2187-2.1719-5.8281s-3.8281-2.1719-5.8281-2.1719h-7v-7c0-2-0.5624-4.2187-2.1719-5.8281s-3.8281-2.1719-5.8281-2.1719z" color="#000000" style="-inkscape-stroke:none;paint-order:stroke markers fill"/>
<path d="m27 8h10q4 0 4 4v11h11q4 0 4 4v10q0 4-4 4h-11v11q0 4-4 4h-10q-4 0-4-4v-11h-11q-4 0-4-4v-10q0-4 4-4h11v-11q0-4 4-4m10 3h-10q-1 0-1 1v14h-14q-1 0-1 1v10q0 1 1 1h14v14q0 1 1 1h10q1 0 1-1v-40q0-1-1-1m11 17.3q-0.6-0.4-1.3-0.25-0.75 0.05-1.2 0.6-0.5 0.55-0.5 1.25v4.15q0 0.75 0.5 1.3 0.45 0.55 1.2 0.65l1.3-0.3 3.15-2.05 0.75-1.05q0.2-0.6 0-1.25l-0.75-0.95-3.15-2.1" color="#000000" fill="#fff" stroke-width="8" style="-inkscape-stroke:none;paint-order:stroke markers fill"/>
</g>
</svg>
