<?xml version="1.0" encoding="UTF-8"?>
<svg version="1.1" viewBox="0 0 64 64" xmlns="http://www.w3.org/2000/svg">
<path d="m27 4c-2 0-4.2187 0.5624-5.8281 2.1719s-2.1719 3.8281-2.1719 5.8281v11h4v4h22v-15c0-2-0.5624-4.2187-2.1719-5.8281s-3.8281-2.1719-5.8281-2.1719zm12.941 13.566-0.08008 0.57227c0.01941-0.09058-0.01413-0.19777 0-0.29102 0.01179-0.09277 0.07401-0.19022 0.08008-0.28125zm-15.906 0.26172c8.48e-4 0.0064 5e-3 0.01316 0.0059 0.01953 7.82e-4 0.0056-8.02e-4 0.01197 0 0.01758z" color="#000000" style="-inkscape-stroke:none;paint-order:stroke markers fill"/>
<path d="m32.006 8.0137c-0.63372 6.495e-4 -1.2758 0.092588-1.8711 0.29102l-0.08594 0.029297-0.08398 0.033203c-1.0107 0.38872-2.0145 1.0797-2.7383 1.9844l-0.12305 0.15234-2.1309 3.2773c-0.74716 1.1207-1.1211 2.7059-0.93164 4.0664 0.052217 0.38002 0.24685 0.7648 0.38867 1.1523h-12.43c-2 0-4.2187 0.5624-5.8281 2.1719s-2.1719 3.8281-2.1719 5.8281v10c0 2 0.5624 4.2187 2.1719 5.8281s3.8281 2.1719 5.8281 2.1719h7v7c0 2 0.5624 4.2187 2.1719 5.8281s3.8281 2.1719 5.8281 2.1719h10c2 0 4.2187-0.5624 5.8281-2.1719s2.1719-3.8281 2.1719-5.8281v-7h7c2 0 4.2187-0.5624 5.8281-2.1719s2.1719-3.8281 2.1719-5.8281v-10c0-2-0.5624-4.2187-2.1719-5.8281s-3.8281-2.1719-5.8281-2.1719h-12.471c0.13684-0.38812 0.28368-0.7719 0.33203-1.1523 0.20556-1.3561-0.09208-2.9535-0.83398-4.0664l-2.4512-3.6777-2.0352-1.6074-0.71484-0.21875c-0.56109-0.17264-1.1866-0.26432-1.8203-0.26367zm-6.0469 13.445c0.02607 0.0237 0.06702 0.03338 0.09375 0.05664 0.02559 0.02186 0.0385 0.05885 0.06445 0.08008zm12.082 0-0.1582 0.13672c0.024-0.01963 0.03491-0.05595 0.05859-0.07617 0.02802-0.02434 0.07239-0.0358 0.09961-0.06055zm-20.475 2.5996 0.57227 0.08008c-0.09058-0.01941-0.19777 0.01413-0.29102 0-0.09277-0.01179-0.19022-0.07401-0.28125-0.08008zm28.867 0c-0.09103 0.0061-0.18848 0.06829-0.28125 0.08008-0.09324 0.01413-0.20044-0.01941-0.29102 0zm-24.975 1.9004 0.13672 0.1582c-0.01963-0.024-0.05595-0.03491-0.07617-0.05859-0.02434-0.02802-0.0358-0.07239-0.06055-0.09961zm21.082 0c-0.02474 0.02722-0.03621 0.07159-0.06055 0.09961-0.02023 0.02368-0.05654 0.0346-0.07617 0.05859zm-20.443 1.041h19.805c-0.51242 0.8888-0.90234 1.8894-0.90234 2.9004v4.1504c0 1.0008 0.38603 2.0291 0.91211 2.9492h-4.9121v4.9023c-0.8888-0.51242-1.8894-0.90234-2.9004-0.90234h-4.1504c-1.0008 0-2.0291 0.38603-2.9492 0.91211v-4.9121h-4.9121c0.52608-0.92015 0.91211-1.9484 0.91211-2.9492v-4.1504c0-1.0109-0.38992-2.0116-0.90234-2.9004zm-0.50195 10.883-0.13672 0.1582c0.0237-0.02607 0.03338-0.06702 0.05664-0.09375 0.02186-0.02559 0.05885-0.0385 0.08008-0.06445zm20.809 0c0.02123 0.02595 0.05822 0.03887 0.08008 0.06445 0.02327 0.02673 0.03294 0.06768 0.05664 0.09375zm-24.557 2.0762c0.0056-7.82e-4 0.01197 8.02e-4 0.01758 0l-0.03711 0.0059c0.0064-8.48e-4 0.01316-5e-3 0.01953-0.0059zm8.2695 2.4453c-0.02595 0.02123-0.03887 0.05822-0.06445 0.08008-0.02673 0.02327-0.06768 0.03294-0.09375 0.05664zm11.766 0 0.1582 0.13672c-0.02722-0.02474-0.07159-0.03621-0.09961-0.06055-0.02368-0.02023-0.0346-0.05654-0.05859-0.07617zm1.9785 3.457 0.08008 0.57227c-0.0061-0.09103-0.06829-0.18848-0.08008-0.28125-0.01413-0.09324 0.01941-0.20044 0-0.29102zm-15.82 0.27344c-8.02e-4 0.0056 7.82e-4 0.01196 0 0.01758-8.75e-4 0.0064-5e-3 0.01317-0.0059 0.01953z" color="#000000" style="-inkscape-stroke:none;paint-order:stroke markers fill"/>
<path d="m23 23v-11q0-4 4-4h10q4 0 4 4v11h-18m12.7-7-2.1-3.15-0.95-0.75q-0.65-0.2-1.25 0-0.65 0.25-1.05 0.75l-2.05 3.15q-0.4 0.6-0.3 1.3 0.1 0.75 0.65 1.2 0.55 0.5 1.3 0.5h4.15q0.7 0 1.25-0.5 0.55-0.45 0.6-1.2 0.15-0.7-0.25-1.3" color="#000000" fill="#e73246" stroke-width="8" style="-inkscape-stroke:none;paint-order:stroke markers fill"/>
<path d="m35.7 16q0.4 0.6 0.25 1.3-0.05 0.75-0.6 1.2-0.55 0.5-1.25 0.5h-4.15q-0.75 0-1.3-0.5-0.55-0.45-0.65-1.2-0.1-0.7 0.3-1.3l2.05-3.15q0.4-0.5 1.05-0.75 0.6-0.2 1.25 0l0.95 0.75 2.1 3.15m5.3 7h11q4 0 4 4v10q0 4-4 4h-11v11q0 4-4 4h-10q-4 0-4-4v-11h-11q-4 0-4-4v-10q0-4 4-4h29m7 5.3q-0.6-0.4-1.3-0.25-0.75 0.05-1.2 0.6-0.5 0.55-0.5 1.25v4.15q0 0.75 0.5 1.3 0.45 0.55 1.2 0.65l1.3-0.3 3.15-2.05 0.75-1.05q0.2-0.6 0-1.25l-0.75-0.95-3.15-2.1m-32 0-3.15 2.1q-0.5 0.35-0.75 0.95-0.2 0.65 0 1.25l0.75 1.05 3.15 2.05q0.6 0.4 1.3 0.3 0.75-0.1 1.2-0.65 0.5-0.55 0.5-1.3v-4.15q0-0.7-0.5-1.25-0.45-0.55-1.2-0.6-0.7-0.15-1.3 0.25m19.7 19.7q0.4-0.6 0.25-1.3-0.05-0.75-0.6-1.2-0.55-0.5-1.25-0.5h-4.15q-0.75 0-1.3 0.5-0.55 0.45-0.65 1.2-0.1 0.7 0.3 1.3l2.05 3.15q0.4 0.5 1.05 0.75 0.6 0.2 1.25 0l0.95-0.75 2.1-3.15" color="#000000" fill="#fff" stroke-width="8" style="-inkscape-stroke:none;paint-order:stroke markers fill"/>
</svg>
