<svg xmlns="http://www.w3.org/2000/svg" width="64" height="64">
    <path fill="none" d="M50.85 15.35q.8-.35 1.8-.35 1.85 0 3.2 1.2l.1.1 6.65 6.4h.05q1.4 1.45 1.35 3.3 0 2-1.4 3.3l-6.65 6.4-.1.05-.85.65q-1.05.6-2.35.6-1.9 0-3.15-1.25l-.45-.45Q48 34.1 48 32.4V19.6l.1-1.05q.3-1.25 1.3-2.25.6-.65 1.45-.95M9 36.4l-.85-.65-.1-.05-6.65-6.4Q0 28 0 26q-.05-1.85 1.35-3.3h.05l6.65-6.4.1-.1Q9.5 15 11.35 15q1 0 1.8.35.8.3 1.45.95 1 1 1.3 2.25l.1 1.05v12.8q0 1.7-1.05 2.9l-.45.45Q13.25 37 11.35 37q-1.3 0-2.35-.6m51.5-9.25q.5-.45.5-1.15 0-.65-.5-1.15l-6.65-6.4q-.35-.3-.75-.4l-.45-.05q-.7 0-1.15.45-.5.5-.5 1.15v12.8q0 .7.5 1.15.45.45 1.15.45l1.2-.45zm-57 0 6.65 6.4q.5.45 1.2.45l1.15-.45q.5-.45.5-1.15V19.6q0-.65-.5-1.15-.45-.45-1.15-.45l-.45.05q-.45.1-.75.4l-6.65 6.4Q3 25.35 3 26q0 .7.5 1.15"/>
    <path fill="#FFF" d="M3.5 27.15Q3 26.7 3 26q0-.65.5-1.15l6.65-6.4q.3-.3.75-.4l.45-.05q.7 0 1.15.45.5.5.5 1.15v12.8q0 .7-.5 1.15l-1.15.45q-.7 0-1.2-.45zM55 36.4q-1.65 4.4-6.05 7.9-2.75 2.25-5.95 3.6V50q0 2.5-3.25 4.25Q36.55 56 32 56q-4.5 0-7.75-1.75T21 50v-2.1q-3.2-1.35-6-3.6-4.35-3.5-6-7.9 1.05.6 2.35.6 1.9 0 3.15-1.25l.45-.45q1.05 1.25 2.45 2.35Q23.45 42.5 32 42.5t14.55-4.8l.05-.05 2.45-2.35.45.45Q50.75 37 52.65 37q1.3 0 2.35-.6M13.15 15.35l1.85-1.7Q22.05 8 32 8q10 0 16.95 5.65l1.9 1.7q-.85.3-1.45.95-1 1-1.3 2.25l-1.55-1.45q-6-4.8-14.55-4.8t-14.6 4.8h.05l-1.55 1.45q-.3-1.25-1.3-2.25-.65-.65-1.45-.95M48 25.95v.1q-.3 3.95-3.8 6.85l-.2.15Q39.05 37 32 37q-7.15 0-12.2-4.05l-.1-.05Q16.3 30 16 26.1v-.05Q16.25 22 19.85 19l.1-.1Q25 15 32 15q7.15 0 12.2 4h-.05q3.55 3 3.85 6.95m12.5 1.2-6.65 6.4-1.2.45q-.7 0-1.15-.45-.5-.45-.5-1.15V19.6q0-.65.5-1.15.45-.45 1.15-.45l.45.05q.4.1.75.4l6.65 6.4q.5.5.5 1.15 0 .7-.5 1.15M33 30l1-.1v.1l1 3h3l-1.5-4.5Q38 27.05 38 25t-1.5-3.55Q35.05 20 33 20h-6v13h3v-3zm-3-3v-4h3q.85 0 1.4.55.6.6.6 1.45t-.6 1.4q-.55.6-1.35.6z"/>
</svg>
