<?xml version="1.0" encoding="UTF-8" standalone="no"?>
<svg
   width="64"
   height="64"
   version="1.1"
   id="svg175712"
   xmlns="http://www.w3.org/2000/svg"
   xmlns:svg="http://www.w3.org/2000/svg">
  <defs
     id="defs175706" />
  <path
     id="path175708"
     d="M 32 8 C 25.366674 8 19.699995 10.333338 15 15 C 10.333338 19.699995 8 25.366674 8 32 C 8 38.66666 10.333338 44.31589 15 48.949219 C 19.699995 53.649214 25.366674 56 32 56 C 38.66666 56 44.31589 53.649214 48.949219 48.949219 C 53.649214 44.31589 56 38.66666 56 32 C 56 25.366674 53.649214 19.699995 48.949219 15 C 44.31589 10.333338 38.66666 8 32 8 z M 24 22 L 28 22 L 28 34.099609 C 28.03333 35.166275 28.432554 36.082943 29.199219 36.849609 C 29.965886 37.616276 30.900001 38 32 38 C 33.1 38 34.049609 37.616276 34.849609 36.849609 C 35.582942 36.082943 35.966668 35.166275 36 34.099609 L 36 22 L 40 22 L 40 34.199219 C 39.96667 36.299217 39.183722 38.117059 37.650391 39.650391 L 36 40.949219 C 34.800001 41.649218 33.466667 42 32 42 C 30.533334 42 29.199999 41.649218 28 40.949219 L 26.349609 39.650391 C 24.816277 38.117059 24.033333 36.299217 24 34.199219 L 24 22 z "
     style="fill:#ffffff" />
</svg>
