<?xml version="1.0" encoding="UTF-8"?>
<svg preserveAspectRatio="none" version="1.1" viewBox="0 0 100 100" xmlns="http://www.w3.org/2000/svg">
<path d="m57.55 65.05q0-2.75 1.7-4.75l-0.25-0.25q-9.25-5.6-18.5 0.05 1.9 2.1 1.9 4.95v20.75q7.55 1.2 15.15 0v-20.75z" fill="#F5F5F5"/>
<path d="m65.05 65.05v22.6q7.45-2.95 13.55-9.05t9.05-13.55h-22.6m-30.15 0h-22.55q2.95 7.45 9.05 13.55t13.5 9.05v-22.6m0-52.65q-7.4 2.95-13.5 9.05-6.05 6.05-9.05 13.45h22.55v-22.5m43.7 9.05q-6.1-6.1-13.55-9.1v22.55h22.6q-2.95-7.4-9.05-13.45z" fill="#151515"/>
<path d="m34.9 65.05v26.8q15.05 4.1 30.15 0v-25.75l-5.8-5.8q-1.7 2-1.7 4.75v20.75q-7.6 1.2-15.15 0v-20.75q0-2.85-1.9-4.95v-0.05l-5.6 5z" fill="#D7D7D7"/>
<path d="m85.8 57.55q1.2-7.6 0-15.15h-20.75q-3.1 0-5.3-2.2t-2.2-5.3v-20.7q-7.6-1.2-15.15 0v20.7q0 3.1-2.2 5.3t-5.3 2.2h-20.7q-1.2 7.55 0 15.15h20.7q3.1 0 5.3 2.2 0.15 0.15 0.3 0.3v0.05q9.25-5.65 18.5-0.05l0.25 0.25q0.25-0.3 0.5-0.55 2.2-2.2 5.3-2.2h20.75z" fill="#3B3B3B"/>
<path d="m91.85 34.9h-26.8v-26.75q-15.1-4.1-30.15 0v26.75h-26.75q-4.1 15.05 0 30.15h26.75l5.6-5q-0.15-0.15-0.3-0.3-2.2-2.2-5.3-2.2h-20.7q-1.2-7.6 0-15.15h20.7q3.1 0 5.3-2.2t2.2-5.3v-20.7q7.55-1.2 15.15 0v20.7q0 3.1 2.2 5.3t5.3 2.2h20.75q1.2 7.55 0 15.15h-20.75q-3.1 0-5.3 2.2-0.25 0.25-0.5 0.55l5.8 5.8v-1.05h26.8q4.1-15.1 0-30.15z" fill="#242424"/>
<path d="m87.65 34.9h4.2q4.1 15.05 0 30.15h-4.2q-2.95 7.45-9.05 13.55t-13.55 9.05m-30.15 0q-7.4-2.95-13.5-9.05t-9.05-13.55h-4.2q-4.1-15.1 0-30.15h4.2q3-7.4 9.05-13.45 6.1-6.1 13.5-9.05v-4.25q15.05-4.1 30.15 0v4.2q7.45 3 13.55 9.1 6.1 6.05 9.05 13.45h-12.9m-1.55 0h-8.15v-22.55m0 53.75v-1.05h22.6m-52.75-52.65v22.5h-8.1m-1.55 0h-12.9m0 30.15h22.55" fill="none" stroke="#000" stroke-linecap="round" stroke-linejoin="round" stroke-width="5"/>
<path d="m59.25 60.3q0.25-0.3 0.5-0.55 2.2-2.2 5.3-2.2h20.75q1.2-7.6 0-15.15h-20.75q-3.1 0-5.3-2.2t-2.2-5.3v-20.7q-7.6-1.2-15.15 0v20.7q0 3.1-2.2 5.3t-5.3 2.2h-20.7q-1.2 7.55 0 15.15h20.7q3.1 0 5.3 2.2 0.15 0.15 0.3 0.3v0.05" fill="none" stroke="#535353" stroke-linecap="round" stroke-linejoin="round" stroke-width="4"/>
<path d="m65.05 87.65v4.2q-15.1 4.1-30.15 0v-26.8m30.15 1.05v21.55" fill="none" stroke="#404040" stroke-linecap="round" stroke-linejoin="round" stroke-width="5"/>
<path d="m59.25 60.3q-1.7 2-1.7 4.75m-15.15 0q0-2.85-1.9-4.95" fill="none" stroke="#fff" stroke-linejoin="round" stroke-width="4"/>
<path d="m57.55 65.05v20.75q-7.6 1.2-15.15 0v-20.75" fill="none" stroke="#fff" stroke-linecap="round" stroke-linejoin="round" stroke-width="4"/>
</svg>
