
<svg xmlns="http://www.w3.org/2000/svg" version="1.1" xmlns:xlink="http://www.w3.org/1999/xlink" preserveAspectRatio="none" x="0px" y="0px" width="100px" height="100px" viewBox="0 0 100 100">
<defs/>

<g id="OUYA">
<g>
<g>
<g>
<path fill="#F5F5F5" stroke="none" d="
M 57.55 65.05
Q 57.55 62.3 59.25 60.3
L 59 60.05
Q 49.75 54.45 40.5 60.1 42.4 62.2 42.4 65.05
L 42.4 85.8
Q 49.95 87 57.55 85.8
L 57.55 65.05 Z"/>

<path fill="#151515" stroke="none" d="
M 65.05 65.05
L 65.05 66.1 65.05 87.65
Q 72.5 84.7 78.6 78.6 84.7 72.5 87.65 65.05
L 65.05 65.05
M 34.9 65.05
L 12.35 65.05
Q 15.3 72.5 21.4 78.6 27.5 84.7 34.9 87.65
L 34.9 65.05
M 34.9 12.4
Q 27.5 15.35 21.4 21.45 15.35 27.5 12.35 34.9
L 25.25 34.9 26.8 34.9 34.9 34.9 34.9 12.4
M 78.6 21.45
Q 72.5 15.35 65.05 12.35
L 65.05 34.9 73.2 34.9 74.75 34.9 87.65 34.9
Q 84.7 27.5 78.6 21.45 Z"/>

<path fill="#D7D7D7" stroke="none" d="
M 34.9 65.05
L 34.9 87.65 34.9 91.85
Q 49.95 95.95 65.05 91.85
L 65.05 87.65 65.05 66.1 59.25 60.3
Q 57.55 62.3 57.55 65.05
L 57.55 85.8
Q 49.95 87 42.4 85.8
L 42.4 65.05
Q 42.4 62.2 40.5 60.1
L 40.5 60.05 34.9 65.05 Z"/>

<path fill="#3B3B3B" stroke="none" d="
M 85.8 57.55
Q 87 49.95 85.8 42.4
L 65.05 42.4
Q 61.95 42.4 59.75 40.2 57.55 38 57.55 34.9
L 57.55 14.2
Q 49.95 13 42.4 14.2
L 42.4 34.9
Q 42.4 38 40.2 40.2 38 42.4 34.9 42.4
L 14.2 42.4
Q 13 49.95 14.2 57.55
L 34.9 57.55
Q 38 57.55 40.2 59.75 40.35 59.9 40.5 60.05
L 40.5 60.1
Q 49.75 54.45 59 60.05
L 59.25 60.3
Q 59.5 60 59.75 59.75 61.95 57.55 65.05 57.55
L 85.8 57.55 Z"/>

<path fill="#242424" stroke="none" d="
M 91.85 34.9
L 87.65 34.9 74.75 34.9 73.2 34.9 65.05 34.9 65.05 12.35 65.05 8.15
Q 49.95 4.05 34.9 8.15
L 34.9 12.4 34.9 34.9 26.8 34.9 25.25 34.9 12.35 34.9 8.15 34.9
Q 4.05 49.95 8.15 65.05
L 12.35 65.05 34.9 65.05 40.5 60.05
Q 40.35 59.9 40.2 59.75 38 57.55 34.9 57.55
L 14.2 57.55
Q 13 49.95 14.2 42.4
L 34.9 42.4
Q 38 42.4 40.2 40.2 42.4 38 42.4 34.9
L 42.4 14.2
Q 49.95 13 57.55 14.2
L 57.55 34.9
Q 57.55 38 59.75 40.2 61.95 42.4 65.05 42.4
L 85.8 42.4
Q 87 49.95 85.8 57.55
L 65.05 57.55
Q 61.95 57.55 59.75 59.75 59.5 60 59.25 60.3
L 65.05 66.1 65.05 65.05 87.65 65.05 91.85 65.05
Q 95.95 49.95 91.85 34.9 Z"/>
</g>
</g>

<g>
<path stroke="#000000" stroke-width="5" stroke-linejoin="round" stroke-linecap="round" fill="none" d="
M 87.65 34.9
L 91.85 34.9
Q 95.95 49.95 91.85 65.05
L 87.65 65.05
Q 84.7 72.5 78.6 78.6 72.5 84.7 65.05 87.65
M 34.9 87.65
Q 27.5 84.7 21.4 78.6 15.3 72.5 12.35 65.05
L 8.15 65.05
Q 4.05 49.95 8.15 34.9
L 12.35 34.9
Q 15.35 27.5 21.4 21.45 27.5 15.35 34.9 12.4
L 34.9 8.15
Q 49.95 4.05 65.05 8.15
L 65.05 12.35
Q 72.5 15.35 78.6 21.45 84.7 27.5 87.65 34.9
L 74.75 34.9
M 73.2 34.9
L 65.05 34.9 65.05 12.35
M 65.05 66.1
L 65.05 65.05 87.65 65.05
M 34.9 12.4
L 34.9 34.9 26.8 34.9
M 25.25 34.9
L 12.35 34.9
M 12.35 65.05
L 34.9 65.05"/>
</g>

<g>
<path stroke="#535353" stroke-width="4" stroke-linejoin="round" stroke-linecap="round" fill="none" d="
M 59.25 60.3
Q 59.5 60 59.75 59.75 61.95 57.55 65.05 57.55
L 85.8 57.55
Q 87 49.95 85.8 42.4
L 65.05 42.4
Q 61.95 42.4 59.75 40.2 57.55 38 57.55 34.9
L 57.55 14.2
Q 49.95 13 42.4 14.2
L 42.4 34.9
Q 42.4 38 40.2 40.2 38 42.4 34.9 42.4
L 14.2 42.4
Q 13 49.95 14.2 57.55
L 34.9 57.55
Q 38 57.55 40.2 59.75 40.35 59.9 40.5 60.05
L 40.5 60.1"/>
</g>

<g>
<path stroke="#404040" stroke-width="5" stroke-linejoin="round" stroke-linecap="round" fill="none" d="
M 65.05 87.65
L 65.05 91.85
Q 49.95 95.95 34.9 91.85
L 34.9 87.65 34.9 65.05
M 65.05 66.1
L 65.05 87.65"/>
</g>

<g>
<path stroke="#FFFFFF" stroke-width="4" stroke-linejoin="round" stroke-linecap="butt" fill="none" d="
M 59.25 60.3
Q 57.55 62.3 57.55 65.05
M 42.4 65.05
Q 42.4 62.2 40.5 60.1"/>
</g>

<g>
<path stroke="#FFFFFF" stroke-width="4" stroke-linejoin="round" stroke-linecap="round" fill="none" d="
M 57.55 65.05
L 57.55 85.8
Q 49.95 87 42.4 85.8
L 42.4 65.05"/>
</g>
</g>
</g>
</svg>
