<?xml version="1.0" encoding="UTF-8"?>
<svg preserveAspectRatio="none" version="1.1" viewBox="0 0 100 100" xmlns="http://www.w3.org/2000/svg">
<path d="m65.1 65.05v22.6q7.4-2.95 13.45-9.05 6.1-6.1 9.1-13.55h-22.55m-30.15 0h-22.6q2.95 7.45 9.05 13.55t13.55 9.05v-22.6m0-52.7q-7.45 2.95-13.55 9.05t-9.05 13.5h22.6v-22.55m43.6 9.05q-6.05-6.05-13.45-9.05v22.55h22.5q-2.95-7.4-9.05-13.5z" fill="#151515"/>
<path d="m39.9 40.5q-2.1 1.9-4.95 1.9h-20.75q-1.2 7.55 0 15.15h20.75q2.75 0 4.75 1.7l0.25-0.25q5.6-9.25-0.05-18.5z" fill="#F5F5F5"/>
<path d="m12.35 34.9h-4.2q-4.1 15.05 0 30.15h25.75l5.8-5.8q-2-1.7-4.75-1.7h-20.75q-1.2-7.6 0-15.15h20.75q2.85 0 4.95-1.9h0.05l-5-5.6h-22.6z" fill="#D7D7D7"/>
<path d="m85.8 57.55q1.2-7.6 0-15.15h-20.7q-3.1 0-5.3-2.2t-2.2-5.3v-20.7q-7.55-1.2-15.15 0v20.7q0 3.1-2.2 5.3-0.15 0.15-0.3 0.3h-0.05q5.65 9.25 0.05 18.5l-0.25 0.25q0.3 0.25 0.55 0.5 2.2 2.2 2.2 5.3v20.75q7.6 1.2 15.15 0v-20.75q0-3.1 2.2-5.3t5.3-2.2h20.7z" fill="#3B3B3B"/>
<path d="m91.85 34.9h-26.75v-26.75q-15.05-4.1-30.15 0v26.75l5 5.6q0.15-0.15 0.3-0.3 2.2-2.2 2.2-5.3v-20.7q7.6-1.2 15.15 0v20.7q0 3.1 2.2 5.3t5.3 2.2h20.7q1.2 7.55 0 15.15h-20.7q-3.1 0-5.3 2.2t-2.2 5.3v20.75q-7.55 1.2-15.15 0v-20.75q0-3.1-2.2-5.3-0.25-0.25-0.55-0.5l-5.8 5.8h1.05v26.8q15.1 4.1 30.15 0v-26.8h26.75q4.1-15.1 0-30.15z" fill="#242424"/>
<path d="m87.6 34.9h4.25q4.1 15.05 0 30.15h-4.2q-3 7.45-9.1 13.55-6.05 6.1-13.45 9.05v4.2q-15.05 4.1-30.15 0v-4.2q-7.45-2.95-13.55-9.05t-9.05-13.55m0-30.15q2.95-7.4 9.05-13.5t13.55-9.05v-4.2q15.1-4.1 30.15 0v4.2q7.4 3 13.45 9.05 6.1 6.1 9.05 13.5h-22.5v-8.1m0-1.55v-12.9m-30.15 22.55v-22.55m0 75.3v-22.6h-1.05m53.75 0h-22.55v8.15m0 1.55v12.9" fill="none" stroke="#000" stroke-linecap="round" stroke-linejoin="round" stroke-width="5"/>
<path d="m39.7 59.25q0.3 0.25 0.55 0.5 2.2 2.2 2.2 5.3v20.75q7.6 1.2 15.15 0v-20.75q0-3.1 2.2-5.3t5.3-2.2h20.7q1.2-7.6 0-15.15h-20.7q-3.1 0-5.3-2.2t-2.2-5.3v-20.7q-7.55-1.2-15.15 0v20.7q0 3.1-2.2 5.3-0.15 0.15-0.3 0.3h-0.05" fill="none" stroke="#535353" stroke-linecap="round" stroke-linejoin="round" stroke-width="4"/>
<path d="m12.35 65.05h-4.2q-4.1-15.1 0-30.15h26.8m-1.05 30.15h-21.55" fill="none" stroke="#404040" stroke-linecap="round" stroke-linejoin="round" stroke-width="5"/>
<path d="m39.7 59.25q-2-1.7-4.75-1.7m0-15.15q2.85 0 4.95-1.9" fill="none" stroke="#fff" stroke-linejoin="round" stroke-width="4"/>
<path d="m34.95 57.55h-20.75q-1.2-7.6 0-15.15h20.75" fill="none" stroke="#fff" stroke-linecap="round" stroke-linejoin="round" stroke-width="4"/>
</svg>
