
<svg xmlns="http://www.w3.org/2000/svg" version="1.1" xmlns:xlink="http://www.w3.org/1999/xlink" preserveAspectRatio="none" x="0px" y="0px" width="100px" height="100px" viewBox="0 0 100 100">
<defs/>

<g id="OUYA">
<g>
<g>
<g>
<path fill="#151515" stroke="none" d="
M 65.1 65.05
L 65.1 73.2 65.1 74.75 65.1 87.65
Q 72.5 84.7 78.55 78.6 84.65 72.5 87.65 65.05
L 65.1 65.05
M 34.95 65.05
L 33.9 65.05 12.35 65.05
Q 15.3 72.5 21.4 78.6 27.5 84.7 34.95 87.65
L 34.95 65.05
M 34.95 12.35
Q 27.5 15.3 21.4 21.4 15.3 27.5 12.35 34.9
L 34.95 34.9 34.95 12.35
M 78.55 21.4
Q 72.5 15.35 65.1 12.35
L 65.1 25.25 65.1 26.8 65.1 34.9 87.6 34.9
Q 84.65 27.5 78.55 21.4 Z"/>

<path fill="#F5F5F5" stroke="none" d="
M 39.9 40.5
Q 37.8 42.4 34.95 42.4
L 14.2 42.4
Q 13 49.95 14.2 57.55
L 34.95 57.55
Q 37.7 57.55 39.7 59.25
L 39.95 59
Q 45.55 49.75 39.9 40.5 Z"/>

<path fill="#D7D7D7" stroke="none" d="
M 12.35 34.9
L 8.15 34.9
Q 4.05 49.95 8.15 65.05
L 12.35 65.05 33.9 65.05 39.7 59.25
Q 37.7 57.55 34.95 57.55
L 14.2 57.55
Q 13 49.95 14.2 42.4
L 34.95 42.4
Q 37.8 42.4 39.9 40.5
L 39.95 40.5 34.95 34.9 12.35 34.9 Z"/>

<path fill="#3B3B3B" stroke="none" d="
M 85.8 57.55
Q 87 49.95 85.8 42.4
L 65.1 42.4
Q 62 42.4 59.8 40.2 57.6 38 57.6 34.9
L 57.6 14.2
Q 50.05 13 42.45 14.2
L 42.45 34.9
Q 42.45 38 40.25 40.2 40.1 40.35 39.95 40.5
L 39.9 40.5
Q 45.55 49.75 39.95 59
L 39.7 59.25
Q 40 59.5 40.25 59.75 42.45 61.95 42.45 65.05
L 42.45 85.8
Q 50.05 87 57.6 85.8
L 57.6 65.05
Q 57.6 61.95 59.8 59.75 62 57.55 65.1 57.55
L 85.8 57.55 Z"/>

<path fill="#242424" stroke="none" d="
M 91.85 34.9
L 87.6 34.9 65.1 34.9 65.1 26.8 65.1 25.25 65.1 12.35 65.1 8.15
Q 50.05 4.05 34.95 8.15
L 34.95 12.35 34.95 34.9 39.95 40.5
Q 40.1 40.35 40.25 40.2 42.45 38 42.45 34.9
L 42.45 14.2
Q 50.05 13 57.6 14.2
L 57.6 34.9
Q 57.6 38 59.8 40.2 62 42.4 65.1 42.4
L 85.8 42.4
Q 87 49.95 85.8 57.55
L 65.1 57.55
Q 62 57.55 59.8 59.75 57.6 61.95 57.6 65.05
L 57.6 85.8
Q 50.05 87 42.45 85.8
L 42.45 65.05
Q 42.45 61.95 40.25 59.75 40 59.5 39.7 59.25
L 33.9 65.05 34.95 65.05 34.95 87.65 34.95 91.85
Q 50.05 95.95 65.1 91.85
L 65.1 87.65 65.1 74.75 65.1 73.2 65.1 65.05 87.65 65.05 91.85 65.05
Q 95.95 49.95 91.85 34.9 Z"/>
</g>
</g>

<g>
<path stroke="#000000" stroke-width="5" stroke-linejoin="round" stroke-linecap="round" fill="none" d="
M 87.6 34.9
L 91.85 34.9
Q 95.95 49.95 91.85 65.05
L 87.65 65.05
Q 84.65 72.5 78.55 78.6 72.5 84.7 65.1 87.65
L 65.1 91.85
Q 50.05 95.95 34.95 91.85
L 34.95 87.65
Q 27.5 84.7 21.4 78.6 15.3 72.5 12.35 65.05
M 12.35 34.9
Q 15.3 27.5 21.4 21.4 27.5 15.3 34.95 12.35
L 34.95 8.15
Q 50.05 4.05 65.1 8.15
L 65.1 12.35
Q 72.5 15.35 78.55 21.4 84.65 27.5 87.6 34.9
L 65.1 34.9 65.1 26.8
M 65.1 25.25
L 65.1 12.35
M 34.95 34.9
L 34.95 12.35
M 34.95 87.65
L 34.95 65.05 33.9 65.05
M 87.65 65.05
L 65.1 65.05 65.1 73.2
M 65.1 74.75
L 65.1 87.65"/>
</g>

<g>
<path stroke="#535353" stroke-width="4" stroke-linejoin="round" stroke-linecap="round" fill="none" d="
M 39.7 59.25
Q 40 59.5 40.25 59.75 42.45 61.95 42.45 65.05
L 42.45 85.8
Q 50.05 87 57.6 85.8
L 57.6 65.05
Q 57.6 61.95 59.8 59.75 62 57.55 65.1 57.55
L 85.8 57.55
Q 87 49.95 85.8 42.4
L 65.1 42.4
Q 62 42.4 59.8 40.2 57.6 38 57.6 34.9
L 57.6 14.2
Q 50.05 13 42.45 14.2
L 42.45 34.9
Q 42.45 38 40.25 40.2 40.1 40.35 39.95 40.5
L 39.9 40.5"/>
</g>

<g>
<path stroke="#404040" stroke-width="5" stroke-linejoin="round" stroke-linecap="round" fill="none" d="
M 12.35 65.05
L 8.15 65.05
Q 4.05 49.95 8.15 34.9
L 12.35 34.9 34.95 34.9
M 33.9 65.05
L 12.35 65.05"/>
</g>

<g>
<path stroke="#FFFFFF" stroke-width="4" stroke-linejoin="round" stroke-linecap="butt" fill="none" d="
M 39.7 59.25
Q 37.7 57.55 34.95 57.55
M 34.95 42.4
Q 37.8 42.4 39.9 40.5"/>
</g>

<g>
<path stroke="#FFFFFF" stroke-width="4" stroke-linejoin="round" stroke-linecap="round" fill="none" d="
M 34.95 57.55
L 14.2 57.55
Q 13 49.95 14.2 42.4
L 34.95 42.4"/>
</g>
</g>
</g>
</svg>
