
<svg xmlns="http://www.w3.org/2000/svg" version="1.1" xmlns:xlink="http://www.w3.org/1999/xlink" preserveAspectRatio="none" x="0px" y="0px" width="100px" height="100px" viewBox="0 0 100 100">
<defs/>

<g id="OUYA">
<g>
<g>
<g>
<path fill="#151515" stroke="none" d="
M 65.05 87.65
Q 72.5 84.7 78.6 78.6 84.7 72.5 87.65 65.1
L 65.05 65.1 65.05 87.65
M 34.9 73.2
L 34.9 65.1 12.4 65.1
Q 15.35 72.5 21.45 78.6 27.5 84.65 34.9 87.65
L 34.9 74.75 34.9 73.2
M 34.9 12.35
Q 27.5 15.3 21.45 21.4 15.35 27.5 12.35 34.95
L 34.9 34.95 34.9 26.8 34.9 25.25 34.9 12.35
M 78.6 21.4
Q 72.5 15.3 65.05 12.35
L 65.05 34.95 66.1 34.95 87.65 34.95
Q 84.7 27.5 78.6 21.4 Z"/>

<path fill="#3B3B3B" stroke="none" d="
M 57.55 14.2
Q 49.95 13 42.4 14.2
L 42.4 34.95
Q 42.4 38.05 40.2 40.25 38 42.45 34.9 42.45
L 14.2 42.45
Q 13 50.05 14.2 57.6
L 34.9 57.6
Q 38 57.6 40.2 59.8 42.4 62 42.4 65.1
L 42.4 85.8
Q 49.95 87 57.55 85.8
L 57.55 65.1
Q 57.55 62 59.75 59.8 59.9 59.65 60.05 59.5
L 60.1 59.5
Q 54.45 50.25 60.05 41
L 60.3 40.75
Q 60 40.5 59.75 40.25 57.55 38.05 57.55 34.95
L 57.55 14.2 Z"/>

<path fill="#242424" stroke="none" d="
M 65.05 12.35
L 65.05 8.15
Q 49.95 4.05 34.9 8.15
L 34.9 12.35 34.9 25.25 34.9 26.8 34.9 34.95 12.35 34.95 8.15 34.95
Q 4.05 50.05 8.15 65.1
L 12.4 65.1 34.9 65.1 34.9 73.2 34.9 74.75 34.9 87.65 34.9 91.85
Q 49.95 95.95 65.05 91.85
L 65.05 87.65 65.05 65.1 60.05 59.5
Q 59.9 59.65 59.75 59.8 57.55 62 57.55 65.1
L 57.55 85.8
Q 49.95 87 42.4 85.8
L 42.4 65.1
Q 42.4 62 40.2 59.8 38 57.6 34.9 57.6
L 14.2 57.6
Q 13 50.05 14.2 42.45
L 34.9 42.45
Q 38 42.45 40.2 40.25 42.4 38.05 42.4 34.95
L 42.4 14.2
Q 49.95 13 57.55 14.2
L 57.55 34.95
Q 57.55 38.05 59.75 40.25 60 40.5 60.3 40.75
L 66.1 34.95 65.05 34.95 65.05 12.35 Z"/>

<path fill="#F5F5F5" stroke="none" d="
M 85.8 57.6
Q 87 50.05 85.8 42.45
L 65.05 42.45
Q 62.3 42.45 60.3 40.75
L 60.05 41
Q 54.45 50.25 60.1 59.5 62.2 57.6 65.05 57.6
L 85.8 57.6 Z"/>

<path fill="#D7D7D7" stroke="none" d="
M 91.85 34.95
L 87.65 34.95 66.1 34.95 60.3 40.75
Q 62.3 42.45 65.05 42.45
L 85.8 42.45
Q 87 50.05 85.8 57.6
L 65.05 57.6
Q 62.2 57.6 60.1 59.5
L 60.05 59.5 65.05 65.1 87.65 65.1 91.85 65.1
Q 95.95 50.05 91.85 34.95 Z"/>
</g>
</g>

<g>
<path stroke="#404040" stroke-width="5" stroke-linejoin="round" stroke-linecap="round" fill="none" d="
M 87.65 34.95
L 91.85 34.95
Q 95.95 50.05 91.85 65.1
L 87.65 65.1
M 66.1 34.95
L 87.65 34.95
M 65.05 65.1
L 87.65 65.1"/>
</g>

<g>
<path stroke="#FFFFFF" stroke-width="4" stroke-linejoin="round" stroke-linecap="round" fill="none" d="
M 65.05 42.45
L 85.8 42.45
Q 87 50.05 85.8 57.6
L 65.05 57.6"/>
</g>

<g>
<path stroke="#000000" stroke-width="5" stroke-linejoin="round" stroke-linecap="round" fill="none" d="
M 87.65 65.1
Q 84.7 72.5 78.6 78.6 72.5 84.7 65.05 87.65
L 65.05 91.85
Q 49.95 95.95 34.9 91.85
L 34.9 87.65
Q 27.5 84.65 21.45 78.6 15.35 72.5 12.4 65.1
L 8.15 65.1
Q 4.05 50.05 8.15 34.95
L 12.35 34.95
Q 15.35 27.5 21.45 21.4 27.5 15.3 34.9 12.35
L 34.9 8.15
Q 49.95 4.05 65.05 8.15
L 65.05 12.35
Q 72.5 15.3 78.6 21.4 84.7 27.5 87.65 34.95
M 65.05 12.35
L 65.05 34.95 66.1 34.95
M 12.35 34.95
L 34.9 34.95 34.9 26.8
M 34.9 25.25
L 34.9 12.35
M 34.9 73.2
L 34.9 65.1 12.4 65.1
M 34.9 87.65
L 34.9 74.75
M 65.05 65.1
L 65.05 87.65"/>
</g>

<g>
<path stroke="#535353" stroke-width="4" stroke-linejoin="round" stroke-linecap="round" fill="none" d="
M 60.05 59.5
L 60.1 59.5
M 60.3 40.75
Q 60 40.5 59.75 40.25 57.55 38.05 57.55 34.95
L 57.55 14.2
Q 49.95 13 42.4 14.2
L 42.4 34.95
Q 42.4 38.05 40.2 40.25 38 42.45 34.9 42.45
L 14.2 42.45
Q 13 50.05 14.2 57.6
L 34.9 57.6
Q 38 57.6 40.2 59.8 42.4 62 42.4 65.1
L 42.4 85.8
Q 49.95 87 57.55 85.8
L 57.55 65.1
Q 57.55 62 59.75 59.8 59.9 59.65 60.05 59.5"/>
</g>

<g>
<path stroke="#FFFFFF" stroke-width="4" stroke-linejoin="round" stroke-linecap="butt" fill="none" d="
M 65.05 42.45
Q 62.3 42.45 60.3 40.75
M 60.1 59.5
Q 62.2 57.6 65.05 57.6"/>
</g>
</g>
</g>
</svg>
