<?xml version="1.0" encoding="UTF-8"?>
<svg preserveAspectRatio="none" version="1.1" viewBox="0 0 100 100" xmlns="http://www.w3.org/2000/svg">
<path d="m65.05 87.65q7.45-2.95 13.55-9.05t9.05-13.5h-22.6v22.55m-30.15-14.45v-8.1h-22.5q2.95 7.4 9.05 13.5 6.05 6.05 13.45 9.05v-14.45m0-60.85q-7.4 2.95-13.45 9.05-6.1 6.1-9.1 13.55h22.55v-22.6m43.7 9.05q-6.1-6.1-13.55-9.05v22.6h22.6q-2.95-7.45-9.05-13.55z" fill="#151515"/>
<path d="m57.55 14.2q-7.6-1.2-15.15 0v20.75q0 3.1-2.2 5.3t-5.3 2.2h-20.7q-1.2 7.6 0 15.15h20.7q3.1 0 5.3 2.2t2.2 5.3v20.7q7.55 1.2 15.15 0v-20.7q0-3.1 2.2-5.3 0.15-0.15 0.3-0.3h0.05q-5.65-9.25-0.05-18.5l0.25-0.25q-0.3-0.25-0.55-0.5-2.2-2.2-2.2-5.3v-20.75z" fill="#3B3B3B"/>
<path d="m65.05 12.35v-4.2q-15.1-4.1-30.15 0v26.8h-26.75q-4.1 15.1 0 30.15h26.75v26.75q15.05 4.1 30.15 0v-26.75l-5-5.6q-0.15 0.15-0.3 0.3-2.2 2.2-2.2 5.3v20.7q-7.6 1.2-15.15 0v-20.7q0-3.1-2.2-5.3t-5.3-2.2h-20.7q-1.2-7.55 0-15.15h20.7q3.1 0 5.3-2.2t2.2-5.3v-20.75q7.55-1.2 15.15 0v20.75q0 3.1 2.2 5.3 0.25 0.25 0.55 0.5l5.8-5.8h-1.05v-22.6z" fill="#242424"/>
<path d="m85.8 57.6q1.2-7.55 0-15.15h-20.75q-2.75 0-4.75-1.7l-0.25 0.25q-5.6 9.25 0.05 18.5 2.1-1.9 4.95-1.9h20.75z" fill="#F5F5F5"/>
<path d="m91.85 34.95h-25.75l-5.8 5.8q2 1.7 4.75 1.7h20.75q1.2 7.6 0 15.15h-20.75q-2.85 0-4.95 1.9h-0.05l5 5.6h26.8q4.1-15.05 0-30.15z" fill="#D7D7D7"/>
<path d="m87.65 34.95h4.2q4.1 15.1 0 30.15h-4.2m-21.55-30.15h21.55m-22.6 30.15h22.6" fill="none" stroke="#404040" stroke-linecap="round" stroke-linejoin="round" stroke-width="5"/>
<path d="m65.05 42.45h20.75q1.2 7.6 0 15.15h-20.75" fill="none" stroke="#fff" stroke-linecap="round" stroke-linejoin="round" stroke-width="4"/>
<path d="m87.65 65.1q-2.95 7.4-9.05 13.5t-13.55 9.05v4.2q-15.1 4.1-30.15 0v-4.2q-7.4-3-13.45-9.05-6.1-6.1-9.05-13.5h-4.25q-4.1-15.05 0-30.15h4.2q3-7.45 9.1-13.55 6.05-6.1 13.45-9.05v-4.2q15.05-4.1 30.15 0v4.2q7.45 2.95 13.55 9.05t9.05 13.55m-22.6-22.6v22.6h1.05m-53.75 0h22.55v-8.15m0-1.55v-12.9m0 60.85v-8.1h-22.5m22.5 22.55v-12.9m30.15-9.65v22.55" fill="none" stroke="#000" stroke-linecap="round" stroke-linejoin="round" stroke-width="5"/>
<path d="m60.05 59.5h0.05m0.2-18.75q-0.3-0.25-0.55-0.5-2.2-2.2-2.2-5.3v-20.75q-7.6-1.2-15.15 0v20.75q0 3.1-2.2 5.3t-5.3 2.2h-20.7q-1.2 7.6 0 15.15h20.7q3.1 0 5.3 2.2t2.2 5.3v20.7q7.55 1.2 15.15 0v-20.7q0-3.1 2.2-5.3 0.15-0.15 0.3-0.3" fill="none" stroke="#535353" stroke-linecap="round" stroke-linejoin="round" stroke-width="4"/>
<path d="m65.05 42.45q-2.75 0-4.75-1.7m-0.2 18.75q2.1-1.9 4.95-1.9" fill="none" stroke="#fff" stroke-linejoin="round" stroke-width="4"/>
</svg>
