
<svg xmlns="http://www.w3.org/2000/svg" version="1.1" xmlns:xlink="http://www.w3.org/1999/xlink" preserveAspectRatio="none" x="0px" y="0px" width="100px" height="100px" viewBox="0 0 100 100">
<defs/>

<g id="OUYA">
<g>
<g>
<g>
<path fill="#151515" stroke="none" d="
M 74.75 65.1
L 73.2 65.1 65.1 65.1 65.1 87.6
Q 72.4994140625 84.6505859375 78.6 78.55 84.669921875 72.480078125 87.6 65.1
L 74.75 65.1
M 34.95 65.1
L 26.8 65.1 25.25 65.1 12.35 65.1
Q 15.304296875 72.480078125 21.4 78.55 27.52109375 84.67109375 34.95 87.6
L 34.95 65.1
M 34.95 12.3
Q 27.52109375 15.27890625 21.4 21.4 15.27890625 27.52109375 12.3 34.95
L 34.95 34.95 34.95 33.9 34.95 12.3
M 78.6 21.4
Q 72.4994140625 15.2994140625 65.1 12.35
L 65.1 34.95 87.65 34.95
Q 84.6953125 27.52109375 78.6 21.4 Z"/>

<path fill="#F5F5F5" stroke="none" d="
M 57.6 14.2
Q 50.032421875 13.0115234375 42.45 14.2
L 42.45 34.95
Q 42.4484375 37.6771484375 40.75 39.7
L 41 39.95
Q 50.2375 45.54375 59.45 39.9 57.6013671875 37.807421875 57.6 34.95
L 57.6 14.2 Z"/>

<path fill="#D7D7D7" stroke="none" d="
M 65.1 12.35
L 65.1 8.15
Q 50.05 4.05 34.95 8.15
L 34.95 12.3 34.95 33.9 40.75 39.7
Q 42.4484375 37.6771484375 42.45 34.95
L 42.45 14.2
Q 50.032421875 13.0115234375 57.6 14.2
L 57.6 34.95
Q 57.6013671875 37.807421875 59.45 39.9 59.4802734375 39.90625 59.45 39.9
L 65.1 34.95 65.1 12.35 Z"/>

<path fill="#3B3B3B" stroke="none" d="
M 85.8 57.6
Q 86.9927734375 50.032421875 85.8 42.45
L 65.1 42.45
Q 61.994921875 42.4482421875 59.8 40.25 59.6310546875 40.08125 59.45 39.9 59.4802734375 39.90625 59.45 39.9 50.2375 45.54375 41 39.95
L 40.75 39.7
Q 40.517578125 39.9828125 40.25 40.25 38.0548828125 42.4482421875 34.95 42.45
L 14.2 42.45
Q 13.0072265625 50.032421875 14.2 57.6
L 34.95 57.6
Q 38.0548828125 57.6015625 40.25 59.8 42.4482421875 61.994921875 42.45 65.1
L 42.45 85.8
Q 50.032421875 86.9927734375 57.6 85.8
L 57.6 65.1
Q 57.6015625 61.994921875 59.8 59.8 61.994921875 57.6015625 65.1 57.6
L 85.8 57.6 Z"/>

<path fill="#242424" stroke="none" d="
M 91.85 34.95
L 87.65 34.95 65.1 34.95 59.45 39.9
Q 59.6310546875 40.08125 59.8 40.25 61.994921875 42.4482421875 65.1 42.45
L 85.8 42.45
Q 86.9927734375 50.032421875 85.8 57.6
L 65.1 57.6
Q 61.994921875 57.6015625 59.8 59.8 57.6015625 61.994921875 57.6 65.1
L 57.6 85.8
Q 50.032421875 86.9927734375 42.45 85.8
L 42.45 65.1
Q 42.4482421875 61.994921875 40.25 59.8 38.0548828125 57.6015625 34.95 57.6
L 14.2 57.6
Q 13.0072265625 50.032421875 14.2 42.45
L 34.95 42.45
Q 38.0548828125 42.4482421875 40.25 40.25 40.517578125 39.9828125 40.75 39.7
L 34.95 33.9 34.95 34.95 12.3 34.95 8.15 34.95
Q 4.05 50.05 8.15 65.1
L 12.35 65.1 25.25 65.1 26.8 65.1 34.95 65.1 34.95 87.6 34.95 91.85
Q 50.05 95.95 65.1 91.85
L 65.1 87.6 65.1 65.1 73.2 65.1 74.75 65.1 87.6 65.1 91.85 65.1
Q 95.95 50.05 91.85 34.95 Z"/>
</g>
</g>

<g>
<path stroke="#000000" stroke-width="5" stroke-linejoin="round" stroke-linecap="round" fill="none" d="
M 87.65 34.95
L 91.85 34.95
Q 95.95 50.05 91.85 65.1
L 87.625 65.1
Q 84.669921875 72.480078125 78.6 78.55 72.4994140625 84.6505859375 65.1 87.6
L 65.1 91.85
Q 50.05 95.95 34.95 91.85
L 34.95 87.625
Q 27.52109375 84.67109375 21.4 78.55 15.304296875 72.480078125 12.35 65.1
L 8.15 65.1
Q 4.05 50.05 8.15 34.95
L 12.325 34.95
Q 15.27890625 27.52109375 21.4 21.4 27.52109375 15.27890625 34.95 12.325
M 65.1 12.35
Q 72.4994140625 15.2994140625 78.6 21.4 84.6953125 27.52109375 87.65 34.95
L 65.1 34.95
M 34.95 33.9
L 34.95 34.95 12.325 34.95
M 34.95 87.625
L 34.95 65.1 26.8 65.1
M 25.25 65.1
L 12.35 65.1
M 73.2 65.1
L 65.1 65.1 65.1 87.6
M 87.625 65.1
L 74.75 65.1"/>
</g>

<g>
<path stroke="#535353" stroke-width="4" stroke-linejoin="round" stroke-linecap="round" fill="none" d="
M 59.475 39.925
Q 59.6310546875 40.08125 59.8 40.25 61.994921875 42.4482421875 65.1 42.45
L 85.8 42.45
Q 86.9927734375 50.032421875 85.8 57.6
L 65.1 57.6
Q 61.994921875 57.6015625 59.8 59.8 57.6015625 61.994921875 57.6 65.1
L 57.6 85.8
Q 50.032421875 86.9927734375 42.45 85.8
L 42.45 65.1
Q 42.4482421875 61.994921875 40.25 59.8 38.0548828125 57.6015625 34.95 57.6
L 14.2 57.6
Q 13.0072265625 50.032421875 14.2 42.45
L 34.95 42.45
Q 38.0548828125 42.4482421875 40.25 40.25 40.517578125 39.9828125 40.75 39.7
M 59.475 39.925
Q 59.4802734375 39.90625 59.475 39.9"/>
</g>

<g>
<path stroke="#FFFFFF" stroke-width="4" stroke-linejoin="round" stroke-linecap="round" fill="none" d="
M 57.6 34.95
L 57.6 14.2
Q 50.032421875 13.0115234375 42.45 14.2
L 42.45 34.95"/>
</g>

<g>
<path stroke="#404040" stroke-width="5" stroke-linejoin="round" stroke-linecap="round" fill="none" d="
M 34.95 12.325
L 34.95 8.15
Q 50.05 4.05 65.1 8.15
L 65.1 12.35 65.1 34.95
M 34.95 33.9
L 34.95 12.325"/>
</g>

<g>
<path stroke="#FFFFFF" stroke-width="4" stroke-linejoin="round" stroke-linecap="butt" fill="none" d="
M 42.45 34.95
Q 42.4484375 37.6771484375 40.75 39.7
M 59.475 39.9
Q 57.6013671875 37.807421875 57.6 34.95"/>
</g>
</g>
</g>
</svg>
