<?xml version="1.0" encoding="UTF-8"?>
<svg preserveAspectRatio="none" version="1.1" viewBox="0 0 100 100" xmlns="http://www.w3.org/2000/svg">
<path d="m74.75 65.1h-9.65v22.5q7.3994-2.9494 13.5-9.05 6.0699-6.0699 9-13.45h-12.85m-39.8 0h-22.6q2.9543 7.3801 9.05 13.45 6.1211 6.1211 13.55 9.05v-22.5m0-52.8q-7.4289 2.9789-13.55 9.1t-9.1 13.55h22.65v-22.65m43.65 9.1q-6.1006-6.1006-13.5-9.05v22.6h22.55q-2.9547-7.4289-9.05-13.55z" fill="#151515"/>
<path d="m57.6 14.2q-7.5676-1.1885-15.15 0v20.75q-0.0015625 2.7271-1.7 4.75l0.25 0.25q9.2375 5.5938 18.45-0.05-1.8486-2.0926-1.85-4.95v-20.75z" fill="#F5F5F5"/>
<path d="m65.1 12.35v-4.2q-15.05-4.1-30.15 0v25.75l5.8 5.8q1.6984-2.0229 1.7-4.75v-20.75q7.5824-1.1885 15.15 0v20.75q0.0013672 2.8574 1.85 4.95 0.030273 0.00625 0 0l5.65-4.95v-22.6z" fill="#D7D7D7"/>
<path d="m85.8 57.6q1.1928-7.5676 0-15.15h-20.7q-3.1051-0.0017578-5.3-2.2-0.16895-0.16875-0.35-0.35 0.030273 0.00625 0 0-9.2125 5.6438-18.45 0.05l-0.25-0.25q-0.23242 0.28281-0.5 0.55-2.1951 2.1982-5.3 2.2h-20.75q-1.1928 7.5824 0 15.15h20.75q3.1049 0.0015625 5.3 2.2 2.1982 2.1949 2.2 5.3v20.7q7.5824 1.1928 15.15 0v-20.7q0.0015625-3.1051 2.2-5.3 2.1949-2.1984 5.3-2.2h20.7z" fill="#3B3B3B"/>
<path d="m91.85 34.95h-26.75l-5.65 4.95q0.18105 0.18125 0.35 0.35 2.1949 2.1982 5.3 2.2h20.7q1.1928 7.5824 0 15.15h-20.7q-3.1051 0.0015625-5.3 2.2-2.1984 2.1949-2.2 5.3v20.7q-7.5676 1.1928-15.15 0v-20.7q-0.0017578-3.1051-2.2-5.3-2.1951-2.1984-5.3-2.2h-20.75q-1.1928-7.5676 0-15.15h20.75q3.1049-0.0017578 5.3-2.2 0.26758-0.26719 0.5-0.55l-5.8-5.8v1.05h-26.8q-4.1 15.1 0 30.15h26.8v26.75q15.1 4.1 30.15 0v-26.75h26.75q4.1-15.05 0-30.15z" fill="#242424"/>
<path d="m87.65 34.95h4.2q4.1 15.1 0 30.15h-4.225q-2.9551 7.3801-9.025 13.45-6.1006 6.1006-13.5 9.05v4.25q-15.05 4.1-30.15 0v-4.225q-7.4289-2.9539-13.55-9.075-6.0957-6.0699-9.05-13.45h-4.2q-4.1-15.05 0-30.15h4.175q2.9539-7.4289 9.075-13.55t13.55-9.075m30.15 0.025q7.3994 2.9494 13.5 9.05 6.0953 6.1211 9.05 13.55h-22.55m-30.15-1.05v1.05h-22.625m22.625 52.675v-22.525h-8.15m-1.55 0h-12.9m60.85 0h-8.1v22.5m22.525-22.5h-12.875" fill="none" stroke="#000" stroke-linecap="round" stroke-linejoin="round" stroke-width="5"/>
<path d="m59.475 39.925q0.15605 0.15625 0.325 0.325 2.1949 2.1982 5.3 2.2h20.7q1.1928 7.5824 0 15.15h-20.7q-3.1051 0.0015625-5.3 2.2-2.1984 2.1949-2.2 5.3v20.7q-7.5676 1.1928-15.15 0v-20.7q-0.0017578-3.1051-2.2-5.3-2.1951-2.1984-5.3-2.2h-20.75q-1.1928-7.5676 0-15.15h20.75q3.1049-0.0017578 5.3-2.2 0.26758-0.26719 0.5-0.55m18.725 0.225q0.0052734-0.01875 0-0.025" fill="none" stroke="#535353" stroke-linecap="round" stroke-linejoin="round" stroke-width="4"/>
<path d="m57.6 34.95v-20.75q-7.5676-1.1885-15.15 0v20.75" fill="none" stroke="#fff" stroke-linecap="round" stroke-linejoin="round" stroke-width="4"/>
<path d="m34.95 12.325v-4.175q15.1-4.1 30.15 0v26.8m-30.15-1.05v-21.575" fill="none" stroke="#404040" stroke-linecap="round" stroke-linejoin="round" stroke-width="5"/>
<path d="m42.45 34.95q-0.0015625 2.7271-1.7 4.75m18.725 0.2q-1.8736-2.0926-1.875-4.95" fill="none" stroke="#fff" stroke-linejoin="round" stroke-width="4"/>
</svg>
