
<svg xmlns="http://www.w3.org/2000/svg" version="1.1" xmlns:xlink="http://www.w3.org/1999/xlink" preserveAspectRatio="none" x="0px" y="0px" width="100px" height="100px" viewBox="0 0 100 100">
<defs/>

<g id="OUYA">
<g>
<g>
<g>
<path fill="#000000" stroke="none" d="
M 91.95 52.45
Q 92.0001953125 51.2380859375 92 50 92.000390625 44.5794921875 90.8 39.65 88.14765625 28.7162109375 79.6 20.2 79.4958984375 20.0982421875 79.45 19.95 67.325390625 8.046875 50 8.05 32.5546875 8.0458984375 20.15 20.2 7.9466796875 32.5548828125 7.95 50 7.947265625 67.394921875 20.15 79.7 20.223046875 79.772265625 20.25 79.85 32.632421875 92.0029296875 50 92 67.394140625 92.0015625 79.6 79.75 79.655078125 79.68984375 79.7 79.65
L 79.75 79.6
Q 91.12890625 68.219140625 91.95 52.45
M 87.35 50
Q 87.35 51.239453125 87.25 52.45 86.466796875 66.3365234375 76.35 76.45 65.4556640625 87.3478515625 50 87.35 34.5453125 87.3474609375 23.55 76.45 12.65234375 65.4546875 12.65 50 12.65234375 34.6255859375 23.4 23.7 23.4736328125 23.62421875 23.55 23.55 34.5453125 12.65234375 50 12.65 65.4556640625 12.6515625 76.35 23.6 83.466015625 30.6810546875 85.95 39.65 87.349609375 44.544140625 87.35 50 Z"/>

<path fill="#1E1E1E" stroke="none" d="
M 87.25 52.45
Q 87.35 51.239453125 87.35 50 87.349609375 44.544140625 85.95 39.65 83.466015625 30.6810546875 76.35 23.6 65.4556640625 12.6515625 50 12.65 34.5453125 12.65234375 23.55 23.55 23.4736328125 23.62421875 23.4 23.7 12.65234375 34.6255859375 12.65 50 12.65234375 65.4546875 23.55 76.45 34.5453125 87.3474609375 50 87.35 65.4556640625 87.3478515625 76.35 76.45 86.466796875 66.3365234375 87.25 52.45
M 82.35 50
Q 82.35 51.3 82.3 52.55 81.45 64.3 72.9 72.9 63.4 82.35 50 82.35 36.65 82.35 27.25 73 27.15 72.9 27.1 72.85 17.7 63.3 17.7 50 17.7 36.55 27.1 27.1 36.55 17.7 50 17.7 63.3 17.7 72.85 27.1 72.9 27.15 73 27.25 78.3 32.55 80.6 39.15 82.35 44.15 82.35 50 Z"/>

<path fill="#3B3B3B" stroke="none" d="
M 82.3 52.55
Q 82.35 51.3 82.35 50 82.35 44.15 80.6 39.15 78.3 32.55 73 27.25 72.9 27.15 72.85 27.1 63.3 17.7 50 17.7 36.55 17.7 27.1 27.1 17.7 36.55 17.7 50 17.7 63.3 27.1 72.85 27.15 72.9 27.25 73 36.65 82.35 50 82.35 63.4 82.35 72.9 72.9 81.45 64.3 82.3 52.55
M 49.95 24
Q 60.7 24 68.2 31.55 75.85 39.15 75.85 49.9 75.85 60.65 68.2 68.2 60.7 75.8 49.95 75.8 39.2 75.8 31.55 68.2 24.05 60.65 24.05 49.9 24.05 39.15 31.55 31.55 39.2 24 49.95 24
M 68.2 31.55
Q 60.7 24 49.95 24 39.2 24 31.55 31.55 24.05 39.15 24.05 49.9 24.05 60.65 31.55 68.2 39.2 75.8 49.95 75.8 60.7 75.8 68.2 68.2 75.85 60.65 75.85 49.9 75.85 39.15 68.2 31.55
M 35.05 49.9
Q 35.05 49.7244140625 35.05 49.55
L 35.05 43.75 35.05 49.55
Q 35.05 49.7244140625 35.05 49.9 35.05 56.1 39.4 60.45 43.8 64.85 50 64.85 56.2 64.85 60.5 60.45 64.9 56.1 64.9 49.9 64.9 49.7244140625 64.9 49.55
L 64.9 43.75 64.9 49.55
Q 64.9 49.7244140625 64.9 49.9 64.9 56.1 60.5 60.45 56.2 64.85 50 64.85 43.8 64.85 39.4 60.45 35.05 56.1 35.05 49.9 Z"/>
</g>
</g>

<g>
<path stroke="#FFFFFF" stroke-width="5" stroke-linejoin="round" stroke-linecap="round" fill="none" d="
M 49.95 24
Q 60.7 24 68.2 31.55 75.85 39.15 75.85 49.9 75.85 60.65 68.2 68.2 60.7 75.8 49.95 75.8 39.2 75.8 31.55 68.2 24.05 60.65 24.05 49.9 24.05 39.15 31.55 31.55 39.2 24 49.95 24 Z
M 64.9 43.75
L 64.9 49.55
Q 64.9 49.7244140625 64.9 49.9 64.9 56.1 60.5 60.45 56.2 64.85 50 64.85 43.8 64.85 39.4 60.45 35.05 56.1 35.05 49.9 35.05 49.7244140625 35.05 49.55
L 35.05 43.75"/>
</g>
</g>
</g>
</svg>
