<svg width="100px" height="100px" preserveAspectRatio="none" version="1.1" viewBox="0 0 100 100" xmlns="http://www.w3.org/2000/svg">
 <g id="OUYA">
  <g>
   <path d="m92.4 41.55c-0.56667-3.3667-2.1667-5.95-4.8-7.75-14.233-4.2333-28.733-6.85-43.5-7.85-11.233 0.3-19.367 1.7167-24.4 4.25-7.3667 5.5-11.717 12.367-13.05 20.6-0.36667 4.6333 2.8167 8.55 9.55 11.75 17.033 5.6333 38.333 9.4833 63.9 11.55 6.4667-0.03333 10.567-3.3333 12.3-9.9 1.2667-8.0333 1.2667-15.583 0-22.65" fill="#1e1e1e"/>
   <path d="m80.25 48.25c-0.66667-2.4333-2.1333-4.4-4.4-5.9-18.4-3.9667-35.5-6.4833-51.3-7.55-3.1333 1.2-5.75 3.45-7.85 6.75-2.0333 3.1-3.4167 6.45-4.15 10.05-0.33333 1.8667 1.4833 3.8167 5.45 5.85 17.767 4.6333 36.783 8 57.05 10.1 2.8-0.1 4.5333-1.85 5.2-5.25v-14.05" fill="#3b3b3b"/>
   <path d="m56.6 45.5-3.15-0.4v14.15l8.9 1.2v-2.9l-5.75-0.8v-11.25m15.7 2.1-2.8-0.4-4.65 3.3 1.7 2.2 2.85-2.15v10.8l2.9 0.4v-14.15z" fill="#8C8C8C"/>
  </g>
  <path d="m92.4 64.2q1.9-12.05 0-22.65-0.85-5.05-4.8-7.75-21.35-6.35-43.5-7.85-16.85 0.45-24.4 4.25-11.05 8.25-13.05 20.6-0.55 6.95 9.55 11.75 25.55 8.45 63.9 11.55 9.7-0.05 12.3-9.9z" fill="none" stroke="#000" stroke-linecap="round" stroke-linejoin="round" stroke-width="5"/>
  <path d="m75.85 42.35q3.4 2.25 4.4 5.9v14.05q-1 5.1-5.2 5.25-30.4-3.15-57.05-10.1-5.95-3.05-5.45-5.85 1.1-5.4 4.15-10.05 3.15-4.95 7.85-6.75 23.7 1.6 51.3 7.55z" fill="none" stroke="#4F4F4F" stroke-linecap="round" stroke-linejoin="round" stroke-width="4"/>
 </g>
</svg>
