
<svg xmlns="http://www.w3.org/2000/svg" version="1.1" xmlns:xlink="http://www.w3.org/1999/xlink" preserveAspectRatio="none" x="0px" y="0px" width="100px" height="100px" viewBox="0 0 100 100">
<defs/>

<g id="OUYA">
<g>
<g>
<g>
<path fill="#1E1E1E" stroke="none" d="
M 92.75 46.8
Q 92.45 31.65 83.1 28.05 45.55 18.7 19.1 21.8 8.35 24.2 7.3 40.2 6.3 56.15 14.05 64.6 21.8 73.1 37.9 76.4 59.55 79.9 81.5 78.55 85.85 76.75 87.8 71.95 90.9 64.45 92.15 55.5 92.55 51.3 92.75 46.8
M 76 33.9
Q 80.05 35.6 79.85 43.4
L 78.15 54.4 76.75 60.75
Q 75.8 64.85 71.25 65.55 43.4 65.15 35.15 63.4 26.95 61.6 22.75 58 18.55 54.3 15.75 49 13 43.65 13.2 37.2 13.35 30.75 18.95 27.9 46.7 25.85 76 33.9 Z"/>

<path fill="#3B3B3B" stroke="none" d="
M 79.85 43.4
Q 80.05 35.6 76 33.9 46.7 25.85 18.95 27.9 13.35 30.75 13.2 37.2 13 43.65 15.75 49 18.55 54.3 22.75 58 26.95 61.6 35.15 63.4 43.4 65.15 71.25 65.55 75.8 64.85 76.75 60.75
L 78.15 54.4 79.85 43.4
M 55.15 36.65
L 54.1 47.9 59.8 48.45 59.5 51.35 50.7 50.55 52.05 36.4 55.15 36.65
M 67.85 40.4
Q 67 40.3 66.5 40.8 66 41.3 65.85 42
L 62.9 41.55
Q 63.05 40.45 63.55 39.7 64 38.9 64.75 38.45 65.45 37.95 66.35 37.75 67.3 37.55 68.3 37.65 69.25 37.75 70.05 38.05 70.85 38.45 71.4 39 72 39.6 72.25 40.45 72.55 41.25 72.45 42.3 72.35 43 72.15 43.55 71.95 44.1 71.65 44.5 71.35 44.95 71 45.25 70.65 45.65 70.25 45.95
L 65.6 49.25 71.8 49.85 71.55 52.5 61.8 51.6 62.1 48.4 68 44
Q 68.45 43.6 68.9 43.15 69.4 42.75 69.45 42.1 69.5 41.4 69.05 40.9 68.55 40.45 67.85 40.4 Z"/>

<path fill="#8C8C8C" stroke="none" d="
M 66.5 40.8
Q 67 40.3 67.85 40.4 68.55 40.45 69.05 40.9 69.5 41.4 69.45 42.1 69.4 42.75 68.9 43.15 68.45 43.6 68 44
L 62.1 48.4 61.8 51.6 71.55 52.5 71.8 49.85 65.6 49.25 70.25 45.95
Q 70.65 45.65 71 45.25 71.35 44.95 71.65 44.5 71.95 44.1 72.15 43.55 72.35 43 72.45 42.3 72.55 41.25 72.25 40.45 72 39.6 71.4 39 70.85 38.45 70.05 38.05 69.25 37.75 68.3 37.65 67.3 37.55 66.35 37.75 65.45 37.95 64.75 38.45 64 38.9 63.55 39.7 63.05 40.45 62.9 41.55
L 65.85 42
Q 66 41.3 66.5 40.8
M 54.1 47.9
L 55.15 36.65 52.05 36.4 50.7 50.55 59.5 51.35 59.8 48.45 54.1 47.9 Z"/>
</g>
</g>

<g>
<path stroke="#000000" stroke-width="5" stroke-linejoin="round" stroke-linecap="round" fill="none" d="
M 83.1 28.05
Q 92.45 31.65 92.75 46.8 92.55 51.3 92.15 55.5 90.9 64.45 87.8 71.95 85.85 76.75 81.5 78.55 59.55 79.9 37.9 76.4 21.8 73.1 14.05 64.6 6.3 56.15 7.3 40.2 8.35 24.2 19.1 21.8 45.55 18.7 83.1 28.05 Z"/>
</g>

<g>
<path stroke="#4F4F4F" stroke-width="4" stroke-linejoin="round" stroke-linecap="round" fill="none" d="
M 79.85 43.4
Q 80.05 35.6 76 33.9 46.7 25.85 18.95 27.9 13.35 30.75 13.2 37.2 13 43.65 15.75 49 18.55 54.3 22.75 58 26.95 61.6 35.15 63.4 43.4 65.15 71.25 65.55 75.8 64.85 76.75 60.75
L 78.15 54.4 79.85 43.4 Z"/>
</g>
</g>
</g>
</svg>
