
<svg xmlns="http://www.w3.org/2000/svg" version="1.1" xmlns:xlink="http://www.w3.org/1999/xlink" preserveAspectRatio="none" x="0px" y="0px" width="100px" height="100px" viewBox="0 0 100 100">
<defs/>

<g id="OUYA">
<g>
<g>
<g>
<path fill="#1E1E1E" stroke="none" d="
M 92.4 41.55
Q 91.55 36.5 87.6 33.8 66.25 27.45 44.1 25.95 27.25 26.4 19.7 30.2 8.65 38.45 6.65 50.8 6.1 57.75 16.2 62.55 41.75 71 80.1 74.1 89.8 74.05 92.4 64.2 94.3 52.15 92.4 41.55
M 75.85 42.35
Q 79.25 44.6 80.25 48.25
L 80.25 62.3
Q 79.25 67.4 75.05 67.55 44.65 64.4 18 57.45 12.05 54.4 12.55 51.6 13.65 46.2 16.7 41.55 19.85 36.6 24.55 34.8 48.25 36.4 75.85 42.35 Z"/>

<path fill="#3B3B3B" stroke="none" d="
M 80.25 48.25
Q 79.25 44.6 75.85 42.35 48.25 36.4 24.55 34.8 19.85 36.6 16.7 41.55 13.65 46.2 12.55 51.6 12.05 54.4 18 57.45 44.65 64.4 75.05 67.55 79.25 67.4 80.25 62.3
L 80.25 48.25
M 69.5 47.2
L 72.3 47.6 72.3 61.75 69.4 61.35 69.4 50.55 66.55 52.7 64.85 50.5 69.5 47.2
M 53.45 45.1
L 56.6 45.5 56.6 56.75 62.35 57.55 62.35 60.45 53.45 59.25 53.45 45.1 Z"/>

<path fill="#8C8C8C" stroke="none" d="
M 56.6 45.5
L 53.45 45.1 53.45 59.25 62.35 60.45 62.35 57.55 56.6 56.75 56.6 45.5
M 72.3 47.6
L 69.5 47.2 64.85 50.5 66.55 52.7 69.4 50.55 69.4 61.35 72.3 61.75 72.3 47.6 Z"/>
</g>
</g>

<g>
<path stroke="#000000" stroke-width="5" stroke-linejoin="round" stroke-linecap="round" fill="none" d="
M 92.4 64.2
Q 94.3 52.15 92.4 41.55 91.55 36.5 87.6 33.8 66.25 27.45 44.1 25.95 27.25 26.4 19.7 30.2 8.65 38.45 6.65 50.8 6.1 57.75 16.2 62.55 41.75 71 80.1 74.1 89.8 74.05 92.4 64.2 Z"/>
</g>

<g>
<path stroke="#4F4F4F" stroke-width="4" stroke-linejoin="round" stroke-linecap="round" fill="none" d="
M 75.85 42.35
Q 79.25 44.6 80.25 48.25
L 80.25 62.3
Q 79.25 67.4 75.05 67.55 44.65 64.4 18 57.45 12.05 54.4 12.55 51.6 13.65 46.2 16.7 41.55 19.85 36.6 24.55 34.8 48.25 36.4 75.85 42.35 Z"/>
</g>
</g>
</g>
</svg>
