<?xml version="1.0" encoding="UTF-8"?>
<svg preserveAspectRatio="none" version="1.1" viewBox="0 0 100 100" xmlns="http://www.w3.org/2000/svg">
<path d="m92.75 46.8c-0.2-10.1-3.4167-16.35-9.65-18.75-25.033-6.2333-46.367-8.3167-64-6.25-7.1667 1.6-11.1 7.7333-11.8 18.4-0.66667 10.633 1.5833 18.767 6.75 24.4 5.1667 5.6667 13.117 9.6 23.85 11.8 14.433 2.3333 28.967 3.05 43.6 2.15 2.9-1.2 5-3.4 6.3-6.6 2.0667-5 3.5167-10.483 4.35-16.45 0.26667-2.8 0.46667-5.7 0.6-8.7" fill="#1e1e1e"/>
<path d="m79.85 43.4c0.13333-5.2-1.15-8.3667-3.85-9.5-19.533-5.3667-38.55-7.3667-57.05-6-3.7333 1.9-5.65 5-5.75 9.3-0.13333 4.3 0.71667 8.2333 2.55 11.8 1.8667 3.5333 4.2 6.5333 7 9 2.8 2.4 6.9333 4.2 12.4 5.4 5.5 1.1667 17.533 1.8833 36.1 2.15 3.0333-0.46667 4.8667-2.0667 5.5-4.8l1.4-6.35 1.7-11" fill="#3b3b3b"/>
<path d="m66.5 40.8q0.5-0.5 1.35-0.4 0.7 0.05 1.2 0.5 0.45 0.5 0.4 1.2-0.05 0.65-0.55 1.05-0.45 0.45-0.9 0.85l-5.9 4.4-0.3 3.2 9.75 0.9 0.25-2.65-6.2-0.6 4.65-3.3q0.4-0.3 0.75-0.7 0.35-0.3 0.65-0.75 0.3-0.4 0.5-0.95t0.3-1.25q0.1-1.05-0.2-1.85-0.25-0.85-0.85-1.45-0.55-0.55-1.35-0.95-0.8-0.3-1.75-0.4-1-0.1-1.95 0.1-0.9 0.2-1.6 0.7-0.75 0.45-1.2 1.25-0.5 0.75-0.65 1.85l2.95 0.45q0.15-0.7 0.65-1.2m-12.4 7.1 1.05-11.25-3.1-0.25-1.35 14.15 8.8 0.8 0.3-2.9-5.7-0.55z" fill="#8C8C8C"/>
<path d="m83.1 28.05q9.35 3.6 9.65 18.75-0.2 4.5-0.6 8.7-1.25 8.95-4.35 16.45-1.95 4.8-6.3 6.6-21.95 1.35-43.6-2.15-16.1-3.3-23.85-11.8-7.75-8.45-6.75-24.4 1.05-16 11.8-18.4 26.45-3.1 64 6.25z" fill="none" stroke="#000" stroke-linecap="round" stroke-linejoin="round" stroke-width="5"/>
<path d="m79.85 43.4q0.2-7.8-3.85-9.5-29.3-8.05-57.05-6-5.6 2.85-5.75 9.3-0.2 6.45 2.55 11.8 2.8 5.3 7 9 4.2 3.6 12.4 5.4 8.25 1.75 36.1 2.15 4.55-0.7 5.5-4.8l1.4-6.35 1.7-11z" fill="none" stroke="#4F4F4F" stroke-linecap="round" stroke-linejoin="round" stroke-width="4"/>
</svg>
