
<svg xmlns="http://www.w3.org/2000/svg" version="1.1" xmlns:xlink="http://www.w3.org/1999/xlink" preserveAspectRatio="none" x="0px" y="0px" width="100px" height="100px" viewBox="0 0 100 100">
<defs/>

<g id="OUYA">
<g>
<g>
<g>
<path fill="#242424" stroke="none" d="
M 80.95 19.05
Q 68.1 6.25 50 6.25 31.9 6.25 19.1 19.05 6.3 31.9 6.3 50 6.3 68.1 19.1 80.9 31.9 93.7 50 93.7 68.1 93.7 80.95 80.9 93.75 68.1 93.75 50 93.75 31.9 80.95 19.05
M 50 16.9
Q 63.65 16.9 73.35 26.6 83.05 36.3 83.05 50 83.05 63.65 73.35 73.35 63.65 83 50 83 36.3 83 26.65 73.35 16.95 63.65 16.95 50 16.95 36.3 26.65 26.6 36.3 16.9 50 16.9 Z"/>

<path fill="#3B3B3B" stroke="none" d="
M 73.35 26.6
Q 63.65 16.9 50 16.9 36.3 16.9 26.65 26.6 16.95 36.3 16.95 50 16.95 63.65 26.65 73.35 36.3 83 50 83 63.65 83 73.35 73.35 83.05 63.65 83.05 50 83.05 36.3 73.35 26.6
M 50 25
Q 60.3 25 67.6 32.35 74.95 39.65 74.95 50 74.95 60.3 67.6 67.6 60.3 74.9 50 74.9 39.65 74.9 32.35 67.6 25.05 60.3 25.05 50 25.05 39.65 32.35 32.35 39.65 25 50 25 Z"/>

<path fill="#535353" stroke="none" d="
M 67.6 32.35
Q 60.3 25 50 25 39.65 25 32.35 32.35 25.05 39.65 25.05 50 25.05 60.3 32.35 67.6 39.65 74.9 50 74.9 60.3 74.9 67.6 67.6 74.95 60.3 74.95 50 74.95 39.65 67.6 32.35
M 43.85 37.2
L 48.3 37.2 48.3 58 58.8 58 58.8 62 43.85 62 43.85 37.2 Z"/>

<path fill="#8C8C8C" stroke="none" d="
M 48.3 37.2
L 43.85 37.2 43.85 62 58.8 62 58.8 58 48.3 58 48.3 37.2 Z"/>
</g>
</g>

<g>
<path stroke="#000000" stroke-width="5" stroke-linejoin="round" stroke-linecap="round" fill="none" d="
M 50 6.25
Q 68.1 6.25 80.95 19.05 93.75 31.9 93.75 50 93.75 68.1 80.95 80.9 68.1 93.7 50 93.7 31.9 93.7 19.1 80.9 6.3 68.1 6.3 50 6.3 31.9 19.1 19.05 31.9 6.25 50 6.25 Z"/>
</g>

<g>
<path stroke="#1D1D1D" stroke-width="5" stroke-linejoin="round" stroke-linecap="round" fill="none" d="
M 50 16.9
Q 63.65 16.9 73.35 26.6 83.05 36.3 83.05 50 83.05 63.65 73.35 73.35 63.65 83 50 83 36.3 83 26.65 73.35 16.95 63.65 16.95 50 16.95 36.3 26.65 26.6 36.3 16.9 50 16.9 Z"/>
</g>
</g>
</g>
</svg>
