
<svg xmlns="http://www.w3.org/2000/svg" version="1.1" xmlns:xlink="http://www.w3.org/1999/xlink" preserveAspectRatio="none" x="0px" y="0px" width="100px" height="100px" viewBox="0 0 100 100">
<defs/>

<g id="OUYA">
<g>
<g>
<g>
<path fill="#000000" stroke="none" d="
M 91.95 52.45
Q 92.0001953125 51.2380859375 92 50 92.000390625 44.5794921875 90.8 39.65 88.14765625 28.7162109375 79.6 20.2 79.4958984375 20.0982421875 79.45 19.95 69.5236328125 10.205078125 56.1 8.45 53.134765625 8.0494140625 50 8.05 47.367578125 8.0494140625 44.85 8.3 30.6828125 9.8798828125 20.15 20.2 7.9466796875 32.5548828125 7.95 50 7.947265625 67.394921875 20.15 79.7 20.223046875 79.772265625 20.25 79.85 32.632421875 92.0029296875 50 92 67.394140625 92.0015625 79.6 79.75 79.655078125 79.68984375 79.7 79.65
L 79.75 79.6
Q 91.12890625 68.219140625 91.95 52.45
M 87.35 50
Q 87.35 51.239453125 87.25 52.45 86.466796875 66.3365234375 76.35 76.45 65.4556640625 87.3478515625 50 87.35 34.5453125 87.3474609375 23.55 76.45 12.65234375 65.4546875 12.65 50 12.65234375 34.6255859375 23.4 23.7 23.4736328125 23.62421875 23.55 23.55 32.6669921875 14.5138671875 44.85 12.95 47.3599609375 12.650390625 50 12.65 53.14453125 12.650390625 56.1 13.1 67.672265625 14.8791015625 76.35 23.6 83.466015625 30.6810546875 85.95 39.65 87.349609375 44.544140625 87.35 50 Z"/>

<path fill="#1E1E1E" stroke="none" d="
M 87.25 52.45
Q 87.35 51.239453125 87.35 50 87.349609375 44.544140625 85.95 39.65 83.466015625 30.6810546875 76.35 23.6 67.672265625 14.8791015625 56.1 13.1 53.14453125 12.650390625 50 12.65 47.3599609375 12.650390625 44.85 12.95 32.6669921875 14.5138671875 23.55 23.55 23.4736328125 23.62421875 23.4 23.7 12.65234375 34.6255859375 12.65 50 12.65234375 65.4546875 23.55 76.45 34.5453125 87.3474609375 50 87.35 65.4556640625 87.3478515625 76.35 76.45 86.466796875 66.3365234375 87.25 52.45
M 44.85 19.55
Q 47.3435546875 19.199609375 50 19.2 53.1615234375 19.1994140625 56.1 19.75 64.962890625 21.439453125 71.8 28.2 71.873046875 28.273828125 71.95 28.3 76.9822265625 33.3791015625 79.15 39.65 80.8509765625 44.47265625 80.85 50 80.8501953125 51.2427734375 80.75 52.45 79.9779296875 63.6744140625 71.85 71.85 62.7947265625 80.85234375 50 80.85 37.284765625 80.8521484375 28.3 71.95 28.273828125 71.873046875 28.2 71.8 19.19765625 62.695703125 19.2 50 19.1978515625 37.2056640625 28.2 28.2 35.3359375 21.0669921875 44.85 19.55 Z"/>

<path fill="#4F4F4F" stroke="none" d="
M 50 19.2
Q 47.3435546875 19.199609375 44.85 19.55 35.3359375 21.0669921875 28.2 28.2 19.1978515625 37.2056640625 19.2 50 19.19765625 62.695703125 28.2 71.8 28.273828125 71.873046875 28.3 71.95 37.284765625 80.8521484375 50 80.85 62.7947265625 80.85234375 71.85 71.85 79.9779296875 63.6744140625 80.75 52.45 80.8501953125 51.2427734375 80.85 50 80.8509765625 44.47265625 79.15 39.65 76.9822265625 33.3791015625 71.95 28.3 71.873046875 28.273828125 71.8 28.2 64.962890625 21.439453125 56.1 19.75 53.1615234375 19.1994140625 50 19.2
M 44.85 23.25
Q 47.3298828125 22.800390625 50 22.8 53.18046875 22.800390625 56.1 23.45 63.5140625 25.0615234375 69.25 30.8 73.241015625 34.7892578125 75.2 39.65 77.1486328125 44.4076171875 77.15 50 77.149609375 51.2451171875 77.05 52.45 76.2732421875 62.1392578125 69.25 69.25 61.2546875 77.146875 50 77.15 38.69375 77.147265625 30.8 69.25 22.8013671875 61.2548828125 22.8 50 22.801953125 38.6935546875 30.75 30.8
L 30.8 30.75
Q 36.8294921875 24.67890625 44.85 23.25 Z"/>

<path fill="#3B3B3B" stroke="none" d="
M 50 22.8
Q 47.3298828125 22.800390625 44.85 23.25 36.8294921875 24.67890625 30.8 30.75
L 30.75 30.8
Q 22.801953125 38.6935546875 22.8 50 22.8013671875 61.2548828125 30.8 69.25 38.69375 77.147265625 50 77.15 61.2546875 77.146875 69.25 69.25 76.2732421875 62.1392578125 77.05 52.45 77.149609375 51.2451171875 77.15 50 77.1486328125 44.4076171875 75.2 39.65 73.241015625 34.7892578125 69.25 30.8 63.5140625 25.0615234375 56.1 23.45 53.18046875 22.800390625 50 22.8
M 68.75 39.85
Q 68.75 40.05 68.75 40.3 68.75 42.1 68.45 43.8 67.45 49.35 63.25 53.55 57.75 59.05 50 59.05
L 50 70.25 50 59.05
Q 42.25 59.05 36.75 53.55 32.55 49.35 31.55 43.8 31.25 42.1 31.25 40.3 31.25 40.05 31.25 39.85 31.25 40.05 31.25 40.3 31.25 42.1 31.55 43.8 32.55 49.35 36.75 53.55 42.25 59.05 50 59.05 57.75 59.05 63.25 53.55 67.45 49.35 68.45 43.8 68.75 42.1 68.75 40.3 68.75 40.05 68.75 39.85 Z"/>
</g>
</g>

<g>
<path stroke="#EEB135" stroke-width="6" stroke-linejoin="round" stroke-linecap="round" fill="none" d="
M 68.75 39.85
Q 68.75 40.05 68.75 40.3 68.75 42.1 68.45 43.8 67.45 49.35 63.25 53.55 57.75 59.05 50 59.05
L 50 70.25
M 50 59.05
Q 42.25 59.05 36.75 53.55 32.55 49.35 31.55 43.8 31.25 42.1 31.25 40.3 31.25 40.05 31.25 39.85"/>
</g>
</g>
</g>
</svg>
