<?xml version="1.0" encoding="UTF-8"?>
<svg preserveAspectRatio="none" version="1.1" viewBox="0 0 100 100" xmlns="http://www.w3.org/2000/svg">
<g fill-rule="evenodd">
<circle cx="50" cy="50" r="46.25"/>
<circle cx="50" cy="50" r="41.4" fill="#242424"/>
<circle cx="50" cy="50" r="35.6" fill="#1d1d1d"/>
<circle cx="50" cy="50" r="30.6" fill="#3b3b3b" stop-color="#000000" style="-inkscape-stroke:none;font-variation-settings:normal"/>
<circle cx="50" cy="50" r="25" fill="#535353"/>
</g>
<path d="m50.55 37.2h-8.65v24.8h4.45v-10.5h3.2l5.75 10.5h5.3l-6.6-10.95q2.8-0.4 4.25-2.2 1.5-1.8 1.5-4.5 0-2.1-0.75-3.5-0.8-1.35-2.1-2.15t-2.95-1.15-3.4-0.35m-0.8 10.55h-3.4v-6.75h3.8q0.85 0 1.75 0.1 0.85 0.1 1.6 0.45 0.75 0.3 1.2 0.95t0.45 1.8q0 1.2-0.5 1.9t-1.25 1q-0.8 0.35-1.75 0.45t-1.9 0.1z" fill="#8c8c8c"/>
</svg>
