<svg width="100px" height="100px" preserveAspectRatio="none" version="1.1" viewBox="0 0 100 100" xmlns="http://www.w3.org/2000/svg">
 <g id="OUYA">
  <g>
   <path d="m85.95 64.6c5.1667-5.6333 7.4167-13.767 6.75-24.4-0.7-10.667-4.6333-16.8-11.8-18.4-17.633-2.0667-38.967 0.01667-64 6.25-6.2333 2.4-9.45 8.65-9.65 18.75 0.13333 3 0.33333 5.9 0.6 8.7 0.83333 5.9667 2.2833 11.45 4.35 16.45 1.3 3.2 3.4 5.4 6.3 6.6 14.633 0.9 29.167 0.18333 43.6-2.15 10.733-2.2 18.683-6.1333 23.85-11.8" fill="#1e1e1e"/>
   <path d="m84.25 49c1.8333-3.5667 2.6833-7.5 2.55-11.8-0.1-4.3-2.0167-7.4-5.75-9.3-18.5-1.3667-37.517 0.63333-57.05 6-2.7 1.1333-3.9833 4.3-3.85 9.5l1.7 11 1.4 6.35c0.63333 2.7333 2.4667 4.3333 5.5 4.8 18.567-0.26667 30.6-0.98333 36.1-2.15 5.4667-1.2 9.6-3 12.4-5.4 2.8-2.4667 5.1333-5.4667 7-9" fill="#3b3b3b"/>
   <path d="m38.9 39.3q-0.55-0.75-1.35-1.1-0.7-0.35-1.7-0.35-1-0.05-2.05 0.2l-5.35 1 1.45 14.15 3.05-0.55-0.6-5.65 1.55-0.3 3.45 5.05 3.7-0.7-4.15-5.3q1.45-0.55 2.05-1.75 0.7-1.2 0.55-2.7-0.15-1.25-0.6-2m-2.6 2.6q0.05 0.6-0.15 0.9-0.2 0.4-0.55 0.65-0.4 0.2-0.8 0.3-0.5 0.15-0.9 0.25l-1.8 0.35-0.35-3.2 2.05-0.4q0.35-0.1 0.8-0.15 0.45 0 0.8 0.1t0.6 0.35q0.25 0.35 0.3 0.85m8.6-6q-0.85 0.45-1.45 1.15-0.65 0.6-0.95 1.55-0.3 0.85-0.25 2l2.95-0.4q0.05-0.75 0.45-1.35 0.35-0.65 1.2-0.8 0.7-0.15 1.25 0.15 0.55 0.35 0.6 1.05 0.1 0.65-0.3 1.2-0.35 0.6-0.7 1.05l-4.9 5.95 0.35 3.2 9.65-1.9-0.3-2.65-6.1 1.2 3.85-4.5q0.35-0.4 0.6-0.9 0.3-0.4 0.5-0.9t0.3-1.1q0.1-0.55 0-1.25-0.1-1.05-0.5-1.8-0.45-0.7-1.15-1.15-0.65-0.4-1.5-0.5-0.8-0.1-1.8 0.05-0.95 0.2-1.8 0.65z" fill="#8C8C8C"/>
  </g>
  <path d="m81.05 27.9q5.6 2.85 5.75 9.3 0.2 6.45-2.55 11.8-2.8 5.3-7 9-4.2 3.6-12.4 5.4-8.25 1.75-36.1 2.15-4.55-0.7-5.5-4.8l-1.4-6.35-1.7-11q-0.2-7.8 3.85-9.5 29.3-8.05 57.05-6z" fill="none" stroke="#4F4F4F" stroke-linecap="round" stroke-linejoin="round" stroke-width="4"/>
  <path d="m62.1 76.4q16.1-3.3 23.85-11.8 7.75-8.45 6.75-24.4-1.05-16-11.8-18.4-26.45-3.1-64 6.25-9.35 3.6-9.65 18.75 0.2 4.5 0.6 8.7 1.25 8.95 4.35 16.45 1.95 4.8 6.3 6.6 21.95 1.35 43.6-2.15z" fill="none" stroke="#000" stroke-linecap="round" stroke-linejoin="round" stroke-width="5"/>
 </g>
</svg>
