
<svg xmlns="http://www.w3.org/2000/svg" version="1.1" xmlns:xlink="http://www.w3.org/1999/xlink" preserveAspectRatio="none" x="0px" y="0px" width="100px" height="100px" viewBox="0 0 100 100">
<defs/>

<g id="OUYA">
<g>
<g>
<g>
<path fill="#1E1E1E" stroke="none" d="
M 83.8 62.55
Q 93.9 57.75 93.35 50.8 91.35 38.45 80.3 30.2 72.75 26.4 55.9 25.95 33.75 27.45 12.4 33.8 8.45 36.5 7.6 41.55 5.7 52.15 7.6 64.2 10.2 74.05 19.9 74.1 58.2470703125 71.0236328125 83.8 62.55
M 87.45 51.6
Q 87.9373046875 54.4177734375 82 57.45 55.355078125 64.380078125 24.95 67.55 20.7263671875 67.4080078125 19.75 62.3
L 19.75 48.25
Q 20.77421875 44.5763671875 24.15 42.35 51.7353515625 36.3986328125 75.45 34.8 80.1578125 36.6099609375 83.3 41.55 86.366796875 46.205859375 87.45 51.6 Z"/>

<path fill="#3B3B3B" stroke="none" d="
M 82 57.45
Q 87.9373046875 54.4177734375 87.45 51.6 86.366796875 46.205859375 83.3 41.55 80.1578125 36.6099609375 75.45 34.8 51.7353515625 36.3986328125 24.15 42.35 20.77421875 44.5763671875 19.75 48.25
L 19.75 62.3
Q 20.7263671875 67.4080078125 24.95 67.55 55.355078125 64.380078125 82 57.45
M 46.05 44.5
L 48.85 44.05 48.85 58.2 45.95 58.65 45.95 47.85 43.1 50.8 41.4 49.1 46.05 44.5
M 36.9 46.8
Q 37.65 47.15 38.1 47.9 38.5 48.7 38.5 49.95 38.5 51.45 37.7 52.6 36.95 53.8 35.45 54.25
L 39.05 59.7 35.3 60.3 32.35 55.1 30.8 55.35 30.8 61 27.7 61.45 27.7 47.3 33.15 46.45
Q 34.25 46.3 35.2 46.35 36.2 46.4 36.9 46.8
M 33.7 49.1
Q 33.25 49.1 32.85 49.15
L 30.8 49.5 30.8 52.7 32.65 52.4
Q 33.05 52.35 33.55 52.2 34 52.15 34.4 51.95 34.75 51.7 35 51.35 35.25 51 35.25 50.4 35.25 49.9 35.05 49.6 34.8 49.3 34.5 49.15 34.15 49.05 33.7 49.1 Z"/>

<path fill="#8C8C8C" stroke="none" d="
M 38.1 47.9
Q 37.65 47.15 36.9 46.8 36.2 46.4 35.2 46.35 34.25 46.3 33.15 46.45
L 27.7 47.3 27.7 61.45 30.8 61 30.8 55.35 32.35 55.1 35.3 60.3 39.05 59.7 35.45 54.25
Q 36.95 53.8 37.7 52.6 38.5 51.45 38.5 49.95 38.5 48.7 38.1 47.9
M 32.85 49.15
Q 33.25 49.1 33.7 49.1 34.15 49.05 34.5 49.15 34.8 49.3 35.05 49.6 35.25 49.9 35.25 50.4 35.25 51 35 51.35 34.75 51.7 34.4 51.95 34 52.15 33.55 52.2 33.05 52.35 32.65 52.4
L 30.8 52.7 30.8 49.5 32.85 49.15
M 48.85 44.05
L 46.05 44.5 41.4 49.1 43.1 50.8 45.95 47.85 45.95 58.65 48.85 58.2 48.85 44.05 Z"/>
</g>
</g>

<g>
<path stroke="#000000" stroke-width="5" stroke-linejoin="round" stroke-linecap="round" fill="none" d="
M 93.35 50.8
Q 93.9 57.75 83.8 62.55 58.2470703125 71.0236328125 19.9 74.1 10.2 74.05 7.6 64.2 5.7 52.15 7.6 41.55 8.45 36.5 12.4 33.8 33.75 27.45 55.9 25.95 72.75 26.4 80.3 30.2 91.35 38.45 93.35 50.8 Z"/>
</g>

<g>
<path stroke="#4F4F4F" stroke-width="4" stroke-linejoin="round" stroke-linecap="round" fill="none" d="
M 82 57.45
Q 87.9373046875 54.4177734375 87.45 51.6 86.366796875 46.205859375 83.3 41.55 80.1578125 36.6099609375 75.45 34.8 51.7353515625 36.3986328125 24.15 42.35 20.77421875 44.5763671875 19.75 48.25
L 19.75 62.3
Q 20.7263671875 67.4080078125 24.95 67.55 55.355078125 64.380078125 82 57.45 Z"/>
</g>
</g>
</g>
</svg>
