<?xml version="1.0" encoding="UTF-8"?>
<svg preserveAspectRatio="none" version="1.1" viewBox="0 0 100 100" xmlns="http://www.w3.org/2000/svg">
<path d="m83.8 62.55c6.7333-3.2 9.9167-7.1167 9.55-11.75-1.3333-8.2333-5.6833-15.1-13.05-20.6-5.0333-2.5333-13.167-3.95-24.4-4.25-14.767 1-29.267 3.6167-43.5 7.85-2.6333 1.8-4.2333 4.3833-4.8 7.75-1.2667 7.0667-1.2667 14.617 0 22.65 1.7333 6.5667 5.8333 9.8667 12.3 9.9 25.565-2.0509 46.865-5.9009 63.9-11.55" fill="#1e1e1e"/>
<path d="m82 57.45c3.9582-2.0215 5.7749-3.9715 5.45-5.85-0.72214-3.5961-2.1055-6.9461-4.15-10.05-2.0948-3.2934-4.7115-5.5434-7.85-6.75-15.81 1.0658-32.91 3.5824-51.3 7.55-2.2505 1.4842-3.7172 3.4509-4.4 5.9v14.05c0.65091 3.4053 2.3842 5.1553 5.2 5.25 20.27-2.1133 39.287-5.4799 57.05-10.1" fill="#3b3b3b"/>
<path d="m38.1 47.9q-0.45-0.75-1.2-1.1-0.7-0.4-1.7-0.45-0.95-0.05-2.05 0.1l-5.45 0.85v14.15l3.1-0.45v-5.65l1.55-0.25 2.95 5.2 3.75-0.6-3.6-5.45q1.5-0.45 2.25-1.65 0.8-1.15 0.8-2.65 0-1.25-0.4-2.05m-5.25 1.25q0.4-0.05 0.85-0.05 0.45-0.05 0.8 0.05 0.3 0.15 0.55 0.45 0.2 0.3 0.2 0.8 0 0.6-0.25 0.95t-0.6 0.6q-0.4 0.2-0.85 0.25-0.5 0.15-0.9 0.2l-1.85 0.3v-3.2l2.05-0.35m16-5.1-2.8 0.45-4.65 4.6 1.7 1.7 2.85-2.95v10.8l2.9-0.45v-14.15z" fill="#8C8C8C"/>
<path d="m93.35 50.8q0.55 6.95-9.55 11.75-25.553 8.4736-63.9 11.55-9.7-0.05-12.3-9.9-1.9-12.05 0-22.65 0.85-5.05 4.8-7.75 21.35-6.35 43.5-7.85 16.85 0.45 24.4 4.25 11.05 8.25 13.05 20.6z" fill="none" stroke="#000" stroke-linecap="round" stroke-linejoin="round" stroke-width="5"/>
<path d="m82 57.45q5.9373-3.0322 5.45-5.85-1.0832-5.3941-4.15-10.05-3.1422-4.94-7.85-6.75-23.715 1.5986-51.3 7.55-3.3758 2.2264-4.4 5.9v14.05q0.97637 5.108 5.2 5.25 30.405-3.1699 57.05-10.1z" fill="none" stroke="#4F4F4F" stroke-linecap="round" stroke-linejoin="round" stroke-width="4"/>
</svg>
