<svg width="100px" height="100px" preserveAspectRatio="none" version="1.1" viewBox="0 0 100 100" xmlns="http://www.w3.org/2000/svg">
 <defs>
  <linearGradient id="Gradient_1" x1="42.262" x2="86.138" y1="95.875" y2="3.225" gradientUnits="userSpaceOnUse">
   <stop stop-color="#272727" offset="0"/>
   <stop stop-color="#727272" offset="1"/>
  </linearGradient>
  <linearGradient id="Gradient_2" x1="120.35" x2="120.35" y1="16.5" y2="80.9" gradientUnits="userSpaceOnUse">
   <stop stop-color="#272727" offset=".31765"/>
   <stop stop-color="#575757" offset="1"/>
  </linearGradient>
 </defs>
 <rect x="9" y="9" width="82" height="82" ry="3" fill="#272727"/>
 <path d="m12 9h8l60 82h-68c-1.662 0-3-1.338-3-3v-76c0-1.662 1.338-3 3-3z" fill="url(#Gradient_1)" stop-color="#000000"/>
 <path d="m90.975 88.75q0.15586-0.57969 0.175-1.3v-74.85q-0.01914-0.72031-0.175-1.3m-81.9 0q-0.15586 0.5793-0.175 1.3v74.85q0.019141 0.7207 0.175 1.3" fill="none" stroke="#000" stroke-linecap="round" stroke-linejoin="round" stroke-width="5"/>
 <path d="m83.05 18.35q0.0035-1.0393-0.75-1.8-0.71094-0.70371-1.75-0.7-1.0393-0.0037-1.8 0.7-0.70371 0.76074-0.7 1.8v28.95q0 0.64062 0 1.25-0.0053 11.608-8.25 19.75-1.682 1.7336-3.55 3.05-7.0521 5.1969-16.25 5.2-11.608-0.005273-19.8-8.25-8.1947-8.1416-8.2-19.75 0.0037-0.55 0.05-1.1 0.01543-0.20723 0-0.4v-28.7q0.0035-1.0393-0.75-1.8-0.71094-0.70371-1.75-0.7-1.0393-0.0037-1.8 0.7-0.70371 0.76074-0.7 1.8v28.7q-0.05371 0.75-0.05 1.5-0.0053 13.692 9.65 23.3 9.6584 9.7053 23.35 9.7 10.877 0.0031 19.2-6.1 2.1854-1.5869 4.15-3.6 9.7053-9.6084 9.7-23.3 0-0.60938 0-1.25z" fill="url(#Gradient_2)"/>
</svg>
