<svg xmlns="http://www.w3.org/2000/svg" xml:space="preserve" width="64" height="64" viewBox="0 0 16.933 16.933">
    <path fill="#d7d7d7" d="M192.352 50.922q-.053-1.006-.86-1.257-1.8-.367-3.453-.675-.193-.031-.384-.066-.568-.106-1.11-.198-1.609-.291-3.057-.53-4.733-.766-7.752-.939-5.265-.317-5.345 2.779v5.212q.16 3.122 3.625 3.188l17.476-.304q.807-.159.86-1.164zm-1.985.542v4.71l-16.35.278q-1.496-.04-1.641-1.297v-5.12q.013-.33.304-.476.992-.436 2.937-.317 3.043.173 7.871.966 1.448.236 3.056.529.543.106 1.111.211.191.035.384.067 1.13.212 2.328.45"/>
    <path fill="#f5f5f5" d="M190.367 56.174v-4.71q-1.198-.237-2.328-.45-.193-.031-.384-.066-.568-.105-1.11-.211-1.61-.293-3.057-.53-4.828-.792-7.871-.965-1.945-.12-2.937.317-.291.146-.304.477v5.12q.145 1.256 1.64 1.296zm-13.507-5.292v.768l-1.958 2.368h2.025v.793h-3.11v-.793l1.985-2.368h-1.918v-.768zm.702 0h.86v3.136h1.613v.793h-2.473Z"/>
    <path fill="#999" d="M178.421 50.882h-.86v3.93h2.474v-.794h-1.614zm-1.56.768v-.768h-2.977v.768h1.918l-1.984 2.368v.793h3.109v-.793h-2.025z"/>
    <path fill="none" stroke="#fff" stroke-linecap="round" stroke-linejoin="round" stroke-width="1.058" d="M190.367 56.174v-4.71q-1.198-.237-2.328-.443-.193-.038-.384-.073-.568-.105-1.11-.211-1.61-.293-3.057-.53-4.828-.792-7.871-.965-1.945-.12-2.937.317-.291.146-.304.477v5.12q.145 1.256 1.64 1.296z"/>
    <path fill="none" stroke="#404040" stroke-linecap="round" stroke-linejoin="round" stroke-width="1.058" d="M191.492 49.665q.807.251.86 1.257v6.046q-.053 1.005-.86 1.164l-17.476.304q-3.466-.066-3.625-3.188v-5.212q.08-3.096 5.345-2.779 3.019.173 7.752.94 1.448.238 3.056.529.543.092 1.111.198.191.035.384.073 1.652.3 3.453.668"/>
    <path fill="#d7d7d7" d="M165.364 55.248v-5.212q-.08-3.096-5.344-2.779-3.94.228-10.809 1.456-.546.107-1.11.211-1.823.337-3.837.741-.807.251-.86 1.257v6.046q.053 1.005.86 1.164l17.475.304q3.466-.066 3.625-3.188m-2.288-5.689q.29.146.304.477v5.12q-.146 1.256-1.64 1.296l-16.352-.278v-4.71q1.406-.278 2.712-.529.565-.099 1.111-.198 6.969-1.264 10.928-1.495 1.944-.12 2.937.317"/>
    <path fill="#f5f5f5" d="M163.38 50.036q-.013-.331-.304-.477-.993-.436-2.937-.317-3.96.23-10.928 1.495-.546.1-1.11.198-1.307.251-2.713.53v4.709l16.351.278q1.495-.04 1.64-1.297zm-8.003 1.615v-.768h2.977v.768l-1.958 2.368h2.024v.793h-3.109v-.793l1.984-2.368zm5.16-.768q.304 0 .568.053.278.053.477.199.198.132.317.357.12.238.12.582 0 .41-.212.701-.212.304-.635.37l1.005 1.667h-1.045l-.82-1.574h-.424v1.574h-.873v-3.929zm-.649.728v.9h.503q.12 0 .251-.014.133-.013.239-.053t.172-.132q.066-.08.066-.251 0-.146-.053-.239-.066-.079-.159-.132t-.212-.066q-.132-.013-.238-.013z"/>
    <path fill="#999" d="M161.104 50.935q-.264-.053-.568-.053h-1.522v3.93h.873v-1.575h.424l.82 1.574h1.045l-1.005-1.667q.423-.066.635-.37.211-.291.211-.701 0-.344-.119-.582-.119-.225-.317-.357-.199-.146-.477-.199m-1.217 1.574v-.9h.57q.105 0 .237.014.12.013.212.066.093.053.159.132.053.093.053.239 0 .172-.066.251-.067.093-.172.132-.106.04-.239.053-.132.013-.25.013zm-4.51-1.627v.768h1.917l-1.984 2.368v.793h3.109v-.793h-2.024l1.958-2.368v-.768z"/>
    <path fill="none" stroke="#fff" stroke-linecap="round" stroke-linejoin="round" stroke-width="1.058" d="M145.388 51.464q1.406-.278 2.712-.522.565-.106 1.111-.205 6.969-1.264 10.928-1.495 1.944-.12 2.937.317.29.146.304.477v5.12q-.146 1.256-1.64 1.296l-16.352-.278Z"/>
    <path fill="none" stroke="#404040" stroke-linecap="round" stroke-linejoin="round" stroke-width="1.058" d="M165.364 55.248v-5.212q-.08-3.096-5.344-2.779-3.94.228-10.809 1.462l-1.11.205q-1.823.337-3.837.741-.807.251-.86 1.257v6.046q.053 1.005.86 1.164l17.475.304q3.466-.066 3.625-3.188"/>
    <path fill="#d7d7d7" d="m138.244 60.18-.582-14.01q-1.349-2.844-3.982-3.307l-14.036 1.031q-.873.516-.926 1.482.582 7.7-.992 14.883.397 2.606 2.633 2.54h13.321q2.726-.33 4.564-2.62m-6.111-15.08q1.005.184 1.137.991.503 5.874.133 11.748-.45 1.243-1.72 1.614-5.45.41-10.61.119-1.19-.251-1.336-1.336 1.177-4.935.847-12.37Z"/>
    <path fill="#f5f5f5" d="M133.27 46.09q-.132-.807-1.137-.992l-11.55.768q.331 7.434-.846 12.369.145 1.085 1.336 1.336 5.16.291 10.61-.12 1.27-.37 1.72-1.613.37-5.874-.133-11.748m-4.114 5.954h2.672v1.336h-4.114v-6.562h1.442z"/>
    <path fill="#9a9a9a" d="M131.828 52.044h-2.672v-5.226h-1.442v6.562h4.114Z"/>
    <path fill="none" stroke="#404040" stroke-linecap="round" stroke-linejoin="round" stroke-width="1.323" d="m138.244 60.18-.582-14.01q-1.349-2.844-3.982-3.307l-14.036 1.031q-.873.516-.926 1.482.582 7.7-.992 14.883.397 2.606 2.633 2.54h13.321q2.726-.33 4.564-2.62"/>
    <path fill="none" stroke="#fff" stroke-linecap="round" stroke-linejoin="round" stroke-width="1.058" d="M132.133 45.098q1.005.185 1.137.992.503 5.874.133 11.748-.45 1.243-1.72 1.614-5.45.41-10.61.119-1.19-.251-1.336-1.336 1.177-4.935.847-12.37Z"/>
    <path fill="#d7d7d7" d="M111.442 45.376q-.053-.966-.926-1.482L96.48 42.863q-2.633.463-3.982 3.307l-.582 14.01q1.839 2.288 4.564 2.619h13.322q2.236.066 2.632-2.54-1.574-7.184-.992-14.883m-14.552.714q.132-.807 1.138-.992l11.549.768q-.33 7.434.847 12.369-.146 1.085-1.337 1.336-5.159.291-10.61-.12-1.27-.37-1.72-1.613-.37-5.874.133-11.748"/>
    <path fill="#f5f5f5" d="M98.028 45.098q-1.006.185-1.138.992-.503 5.874-.132 11.748.45 1.243 1.72 1.614 5.45.41 10.61.119 1.19-.251 1.336-1.336-1.178-4.935-.847-12.37zm5.24 2.752q.198.384.198.966 0 .688-.357 1.177-.37.49-1.058.609l1.666 2.778h-1.733l-1.375-2.62h-.702v2.62h-1.442v-6.562h2.527q.503 0 .953.106.45.092.78.317.344.225.543.609m-2.421.198h-.94v1.482h.847q.199 0 .41-.013.212-.013.397-.08.172-.066.291-.211.106-.146.106-.424 0-.25-.093-.396-.106-.146-.264-.225t-.357-.106-.397-.027"/>
    <path fill="#9a9a9a" d="M103.465 48.816q0-.582-.198-.966-.199-.384-.543-.609-.33-.225-.78-.317-.45-.106-.953-.106h-2.527v6.562h1.442v-2.62h.702l1.375 2.62h1.733l-1.666-2.778q.687-.12 1.058-.609.357-.49.357-1.177m-3.559-.768h.94q.198 0 .397.027.198.026.357.106.158.079.264.225.093.145.093.396 0 .278-.106.424-.119.145-.291.211-.185.067-.397.08-.211.013-.41.013h-.847z"/>
    <path fill="none" stroke="#404040" stroke-linecap="round" stroke-linejoin="round" stroke-width="1.323" d="M110.516 43.894q.873.516.926 1.482-.582 7.7.992 14.883-.396 2.606-2.632 2.54H96.48q-2.725-.33-4.564-2.62l.582-14.01q1.35-2.843 3.982-3.306Z"/>
    <path fill="none" stroke="#fff" stroke-linecap="round" stroke-linejoin="round" stroke-width="1.058" d="M98.028 45.098q-1.006.185-1.138.992-.503 5.874-.132 11.748.45 1.243 1.72 1.614 5.45.41 10.61.119 1.19-.251 1.336-1.336-1.178-4.935-.847-12.37Z"/>
    <path fill="#404040" d="M87.273 53.473q.013-.32.013-.648 0-1.434-.318-2.739-.701-2.892-2.963-5.146-.028-.027-.04-.066-3.208-3.15-7.792-3.148-4.615-.002-7.898 3.214-3.228 3.27-3.227 7.885-.001 4.602 3.227 7.858.02.02.027.04 3.276 3.215 7.871 3.214 4.602 0 7.832-3.24l.026-.027.014-.014q3.01-3.01 3.228-7.183m-1.218-.648q0 .328-.026.648-.207 3.674-2.884 6.35-2.882 2.883-6.972 2.884t-6.998-2.884q-2.883-2.91-2.884-6.998 0-4.068 2.844-6.959l.04-.04q2.91-2.883 6.998-2.883 4.09 0 6.972 2.897 1.883 1.873 2.54 4.246.37 1.295.37 2.739"/>
    <path fill="#d7d7d7" d="M86.029 53.473q.026-.32.026-.648 0-1.444-.37-2.739-.657-2.373-2.54-4.246-2.882-2.897-6.972-2.897t-6.998 2.884l-.04.04q-2.843 2.89-2.844 6.958 0 4.089 2.884 6.998 2.91 2.883 6.998 2.884 4.09 0 6.972-2.884 2.677-2.676 2.884-6.35m-4.048-6.39q1.331 1.344 1.905 3.003.45 1.276.45 2.739 0 .329-.027.648-.204 2.97-2.355 5.133-2.395 2.382-5.78 2.381-3.365 0-5.742-2.355-.007-.02-.027-.04-2.381-2.408-2.38-5.767-.001-3.385 2.38-5.768 2.383-2.382 5.768-2.381 3.36 0 5.768 2.38.02.02.04.027"/>
    <path fill="#fff" d="M83.886 50.086q-.574-1.659-1.905-3.003-.02-.007-.04-.026-2.409-2.382-5.768-2.381-3.385 0-5.768 2.38-2.381 2.384-2.38 5.769-.001 3.359 2.38 5.768.02.02.027.04 2.377 2.355 5.741 2.354 3.386 0 5.781-2.381 2.151-2.163 2.355-5.133.027-.32.027-.648 0-1.463-.45-2.739m-2.62-2.341q1.056 1.055 1.575 2.341.515 1.26.516 2.739 0 .33-.027.648-.205 2.564-2.063 4.445-2.116 2.09-5.094 2.09-2.991 0-5.08-2.09-2.116-2.115-2.116-5.093 0-2.992 2.103-5.08l.013-.013q2.089-2.103 5.08-2.104 2.978 0 5.094 2.117"/>
    <path fill="#f5f5f5" d="M82.84 50.086q-.518-1.286-1.573-2.341-2.116-2.116-5.094-2.117-2.991 0-5.08 2.104l-.013.013q-2.103 2.088-2.103 5.08 0 2.978 2.116 5.093 2.089 2.09 5.08 2.09 2.978 0 5.094-2.09 1.858-1.881 2.063-4.445.027-.319.027-.648 0-1.48-.516-2.739m-10.716 8.229V53.05H69.56l6.614-6.35 6.615 6.35H80.22v5.265zm5.86-5.966h-3.637v3.624h3.638z"/>
    <path fill="#9a9a9a" d="M72.125 53.05v5.265h8.096V53.05h2.567l-6.615-6.35-6.614 6.35zm2.223-.701h3.638v3.624h-3.638Z"/>
    <path fill="#404040" d="M61.066 53.473q.013-.32.013-.648 0-1.434-.318-2.739-.701-2.892-2.963-5.146-.028-.027-.04-.066-3.208-3.15-7.792-3.148-4.615-.002-7.897 3.214-3.23 3.27-3.228 7.885-.001 4.602 3.228 7.858.019.02.026.04 3.276 3.215 7.871 3.214 4.603 0 7.832-3.24l.026-.027.014-.014q3.01-3.01 3.228-7.183m-1.217-.648q0 .328-.027.648-.207 3.674-2.884 6.35-2.882 2.883-6.972 2.884t-6.998-2.884q-2.883-2.91-2.884-6.998 0-4.068 2.844-6.959l.04-.04q2.91-2.883 6.998-2.883 4.09 0 6.972 2.897 1.883 1.873 2.54 4.246.37 1.295.37 2.739"/>
    <path fill="#d7d7d7" d="M59.822 53.473q.027-.32.027-.648 0-1.444-.37-2.739-.658-2.373-2.54-4.246-2.883-2.897-6.973-2.897t-6.998 2.884l-.04.04q-2.843 2.89-2.844 6.958 0 4.089 2.884 6.998 2.91 2.883 6.998 2.884 4.09 0 6.972-2.884 2.677-2.676 2.884-6.35m-4.088-6.416q.02.02.04.026 1.331 1.344 1.905 3.003.45 1.276.45 2.739 0 .329-.027.648-.204 2.97-2.355 5.133-2.395 2.382-5.78 2.381-3.365 0-5.742-2.355-.007-.02-.027-.04-2.381-2.408-2.38-5.767-.001-3.385 2.38-5.768 2.383-2.382 5.768-2.381 3.36 0 5.768 2.38"/>
    <path fill="#fff" d="M55.774 47.083q-.02-.007-.04-.026-2.409-2.382-5.768-2.381-3.385 0-5.768 2.38-2.381 2.384-2.38 5.769-.001 3.359 2.38 5.768.02.02.027.04 2.377 2.355 5.741 2.354 3.386 0 5.781-2.381 2.151-2.163 2.355-5.133.027-.32.027-.648 0-1.463-.45-2.739-.574-1.659-1.905-3.003m-.714.662q1.056 1.055 1.574 2.341.515 1.26.516 2.739 0 .33-.027.648-.205 2.564-2.063 4.445-2.116 2.09-5.094 2.09-2.991 0-5.08-2.09-2.116-2.115-2.116-5.093 0-2.992 2.103-5.08l.013-.013q2.089-2.103 5.08-2.104 2.978 0 5.094 2.117"/>
    <path fill="#f5f5f5" d="M56.634 50.086q-.518-1.286-1.574-2.341-2.116-2.116-5.094-2.117-2.991 0-5.08 2.104l-.013.013q-2.103 2.088-2.103 5.08 0 2.978 2.116 5.093 2.089 2.09 5.08 2.09 2.978 0 5.094-2.09 1.858-1.881 2.063-4.445.027-.319.027-.648 0-1.48-.516-2.739m-8.454-1.098 1.786 3.149 1.892-3.149h2.196l-3.162 4.829v3.598h-1.865v-3.598l-3.162-4.829Z"/>
    <path fill="#9a9a9a" d="m49.966 52.137-1.786-3.149h-2.315l3.162 4.829v3.598h1.865v-3.598l3.162-4.829h-2.196z"/>
    <path fill="#404040" d="M34.859 53.473q.013-.32.013-.648 0-1.434-.318-2.739-.701-2.892-2.963-5.146-.027-.027-.04-.066-3.208-3.15-7.792-3.148-4.615-.002-7.897 3.214-3.23 3.27-3.228 7.885-.001 4.602 3.228 7.858.019.02.026.04 3.276 3.215 7.871 3.214 4.603 0 7.832-3.24.015-.017.027-.027l.013-.014q3.01-3.01 3.228-7.183m-1.217-.648q0 .328-.027.648-.207 3.674-2.884 6.35-2.882 2.883-6.972 2.884t-6.998-2.884q-2.883-2.91-2.884-6.998 0-4.068 2.844-6.959l.04-.04q2.91-2.883 6.998-2.883 4.09 0 6.972 2.897 1.883 1.873 2.54 4.246.37 1.295.37 2.739"/>
    <path fill="#d7d7d7" d="M33.615 53.473q.027-.32.027-.648 0-1.444-.37-2.739-.658-2.373-2.54-4.246-2.883-2.897-6.973-2.897t-6.998 2.884l-.04.04q-2.843 2.89-2.844 6.958 0 4.089 2.884 6.998 2.91 2.883 6.998 2.884 4.09 0 6.972-2.884 2.677-2.676 2.884-6.35m-4.088-6.416q.02.02.04.026 1.331 1.344 1.905 3.003.45 1.276.45 2.739 0 .329-.027.648-.204 2.97-2.354 5.133-2.396 2.382-5.782 2.381-3.364 0-5.741-2.355-.007-.02-.027-.04-2.381-2.408-2.38-5.767-.001-3.385 2.38-5.768 2.383-2.382 5.768-2.381 3.36 0 5.768 2.38"/>
    <path fill="#fff" d="M29.567 47.083q-.02-.007-.04-.026-2.409-2.382-5.768-2.381-3.385 0-5.768 2.38-2.381 2.384-2.38 5.769-.001 3.359 2.38 5.768.02.02.027.04 2.377 2.355 5.741 2.354 3.386 0 5.782-2.381 2.15-2.163 2.354-5.133.027-.32.027-.648 0-1.463-.45-2.739-.574-1.659-1.905-3.003m-.714.662q1.056 1.055 1.574 2.341.515 1.26.516 2.739 0 .33-.027.648-.205 2.564-2.063 4.445-2.116 2.09-5.094 2.09-2.991 0-5.08-2.09-2.116-2.115-2.116-5.093 0-2.992 2.103-5.08l.013-.013q2.089-2.103 5.08-2.104 2.978 0 5.094 2.117"/>
    <path fill="#f5f5f5" d="M30.427 50.086q-.518-1.286-1.574-2.341-2.116-2.116-5.094-2.117-2.991 0-5.08 2.104l-.013.013q-2.103 2.088-2.103 5.08 0 2.978 2.116 5.093 2.089 2.09 5.08 2.09 2.978 0 5.094-2.09 1.858-1.881 2.063-4.445.027-.319.027-.648 0-1.48-.516-2.739m-8.467-1.31 1.8 2.95 1.72-2.95h2.248l-2.725 3.983 3.056 4.445h-2.342l-2.05-3.4-1.998 3.4h-2.21l2.951-4.406-2.778-4.021Z"/>
    <path fill="#9a9a9a" d="m23.76 51.727-1.8-2.95h-2.328l2.778 4.021-2.95 4.406h2.21l1.997-3.4 2.05 3.4h2.342l-3.056-4.445 2.725-3.982H25.48z"/>
    <path fill="#404040" d="M8.652 53.473q.013-.32.013-.648 0-1.434-.318-2.739-.701-2.892-2.963-5.146-.027-.027-.04-.066-3.208-3.15-7.792-3.148-4.615-.002-7.897 3.214-3.23 3.27-3.228 7.885-.001 4.602 3.228 7.858.019.02.026.04 3.276 3.215 7.871 3.214 4.603 0 7.832-3.24.015-.017.027-.027l.013-.014q3.01-3.01 3.228-7.183m-1.217-.648q0 .328-.027.648-.207 3.674-2.884 6.35-2.882 2.883-6.972 2.884t-6.998-2.884q-2.883-2.91-2.884-6.998 0-4.068 2.845-6.959l.04-.04q2.908-2.883 6.997-2.883t6.972 2.897q1.883 1.873 2.54 4.246.37 1.295.37 2.739"/>
    <path fill="#d7d7d7" d="M7.408 53.473q.027-.32.027-.648 0-1.444-.37-2.739-.658-2.373-2.54-4.246-2.883-2.897-6.973-2.897t-6.998 2.884l-.04.04q-2.843 2.89-2.844 6.958 0 4.089 2.884 6.998 2.91 2.883 6.998 2.884 4.09 0 6.972-2.884 2.677-2.676 2.884-6.35m-4.048-6.39q1.331 1.344 1.905 3.003.45 1.276.45 2.739 0 .329-.027.648-.204 2.97-2.354 5.133-2.396 2.382-5.782 2.381-3.364 0-5.741-2.355-.007-.02-.026-.04-2.382-2.408-2.382-5.767 0-3.385 2.382-5.768t5.767-2.381q3.36 0 5.768 2.38.02.02.04.027"/>
    <path fill="#fff" d="M5.265 50.086q-.574-1.659-1.905-3.003-.02-.007-.04-.026-2.408-2.382-5.768-2.381-3.385 0-5.767 2.38-2.382 2.384-2.382 5.769 0 3.359 2.382 5.768.02.02.026.04 2.377 2.355 5.741 2.354 3.386 0 5.782-2.381 2.15-2.163 2.354-5.133.027-.32.027-.648 0-1.463-.45-2.739m-2.62-2.341Q3.703 48.8 4.22 50.086q.516 1.26.516 2.739 0 .33-.027.648-.205 2.564-2.063 4.445-2.116 2.09-5.094 2.09-2.991 0-5.08-2.09-2.116-2.115-2.116-5.093 0-2.992 2.103-5.08l.013-.013q2.089-2.103 5.08-2.104 2.978 0 5.094 2.117"/>
    <path fill="#f5f5f5" d="M4.22 50.086q-.518-1.286-1.574-2.341-2.116-2.116-5.094-2.117-2.991 0-5.08 2.104l-.013.013q-2.103 2.088-2.103 5.08 0 2.978 2.116 5.093 2.089 2.09 5.08 2.09 2.978 0 5.094-2.09 1.858-1.881 2.063-4.445.027-.319.027-.648 0-1.48-.516-2.739m-5.437-1.547q.569.079 1.005.304.437.238.715.648.264.423.264 1.111 0 .715-.397 1.191-.397.463-1.045.661v.027q.41.066.754.225.33.185.57.45.25.264.383.621.132.358.132.768 0 .661-.291 1.11-.278.45-.74.715-.45.278-1.02.397-.555.12-1.11.12h-3.454v-8.428h3.136q.555 0 1.098.08m.119 6.561q.172-.119.29-.304.12-.198.12-.463 0-.304-.159-.49-.145-.185-.37-.277t-.49-.133-.49-.04h-1.401v1.919h1.666q.212 0 .437-.04.225-.053.397-.172m-1.23-5.08h-1.27v1.813h1.349q.212 0 .423-.053.212-.04.37-.159.173-.106.278-.278.093-.185.093-.436 0-.265-.106-.437-.119-.172-.304-.265-.172-.092-.397-.132-.225-.053-.436-.053"/>
    <path fill="#9a9a9a" d="M-.212 48.843q-.436-.225-1.005-.304-.543-.08-1.098-.08h-3.136v8.427h3.453q.556 0 1.111-.119.57-.119 1.02-.397.462-.264.74-.714.291-.45.291-1.111 0-.41-.132-.768-.133-.357-.384-.621-.238-.265-.569-.45-.344-.159-.754-.225v-.027q.648-.198 1.045-.661.397-.476.397-1.19 0-.689-.264-1.112-.278-.41-.715-.648m-3.386 1.177h1.27q.211 0 .436.053.225.04.397.132.185.093.304.265.106.172.106.437 0 .251-.093.436-.105.172-.277.278-.16.119-.37.159-.212.053-.424.053H-3.6zm2.792 4.776q-.12.185-.291.304-.172.12-.397.172-.225.04-.437.04h-1.666v-1.918h1.402q.225 0 .49.04.264.04.489.132t.37.277q.159.186.159.49 0 .265-.12.463"/>
    <path fill="#404040" d="M-21.273 43.842q-.026-.026-.026-.053-3.665-3.585-8.877-3.585-5.265 0-8.996 3.638-3.664 3.718-3.664 8.983 0 5.225 3.664 8.916.014.014.04.053 3.717 3.665 8.956 3.665 5.226 0 8.903-3.704 0-.014.027-.027h.026q3.413-3.44 3.665-8.176.013-.357.013-.727 0-1.627-.357-3.122-.807-3.308-3.374-5.86m2.315 8.982q0 .37-.013.727-.251 4.18-3.28 7.224-3.281 3.267-7.925 3.267-4.657 0-7.964-3.267-3.28-3.308-3.28-7.951 0-4.63 3.254-7.911 0-.053.026-.053 3.307-3.28 7.964-3.28 4.644 0 7.924 3.28 2.13 2.143 2.898 4.842.396 1.468.396 3.122m-1.005.595q.013-.29.013-.595 0-1.323-.29-2.527-.649-2.672-2.726-4.736-.026-.026-.026-.053-2.964-2.91-7.197-2.91-4.26 0-7.276 2.963-2.977 3.003-2.977 7.263 0 4.246 2.977 7.236.013.013.026.04 3.017 2.963 7.25 2.963 4.246 0 7.223-2.99 0-.013.026-.026h.014q2.765-2.791 2.963-6.628m-1.124-.595q0 .304-.014.595-.198 3.387-2.672 5.847-2.646 2.66-6.416 2.66t-6.443-2.66q-2.672-2.672-2.672-6.442 0-3.744 2.646-6.403 0-.04.026-.04 2.673-2.672 6.443-2.672t6.416 2.672q1.733 1.733 2.355 3.916.33 1.19.33 2.527"/>
    <path fill="#5d5d5d" d="M-18.97 53.552q.012-.357.012-.727 0-1.654-.396-3.122-.768-2.699-2.898-4.842-3.28-3.28-7.924-3.28-4.657 0-7.964 3.28-.026 0-.026.053-3.255 3.28-3.255 7.91 0 4.644 3.281 7.952 3.307 3.267 7.964 3.267 4.644 0 7.924-3.267 3.03-3.043 3.281-7.224m-.979-.727q0 .304-.013.595-.198 3.837-2.963 6.628h-.014q-.026.013-.026.026-2.977 2.99-7.223 2.99-4.233 0-7.25-2.963-.013-.027-.026-.04-2.977-2.99-2.977-7.236 0-4.26 2.977-7.263 3.016-2.963 7.276-2.963 4.233 0 7.197 2.91 0 .027.026.053 2.077 2.064 2.725 4.736.291 1.204.291 2.527"/>
    <path fill="#d7d7d7" d="M-21.1 53.42q.013-.29.013-.595 0-1.336-.331-2.527-.622-2.183-2.355-3.916-2.646-2.672-6.416-2.672t-6.443 2.672q-.026 0-.026.04-2.646 2.659-2.646 6.403 0 3.77 2.672 6.442 2.673 2.66 6.443 2.66t6.416-2.66q2.474-2.46 2.672-5.847m-3.73-5.887q1.23 1.244 1.76 2.765.41 1.177.41 2.527 0 .304-.014.595-.198 2.725-2.183 4.736-2.209 2.196-5.331 2.196-3.096 0-5.292-2.17-.013-.026-.026-.04-2.196-2.222-2.196-5.317 0-3.122 2.196-5.318t5.318-2.196q3.096 0 5.318 2.196.013.013.04.026"/>
    <path fill="#fff" d="M-23.072 50.298q-.529-1.521-1.76-2.765-.026-.013-.039-.026-2.222-2.196-5.318-2.196-3.122 0-5.318 2.196t-2.196 5.318q0 3.095 2.196 5.318.013.013.026.04 2.196 2.17 5.292 2.17 3.122 0 5.331-2.197 1.985-2.01 2.183-4.736.013-.29.013-.595 0-1.35-.41-2.527m-2.42-2.156q.978.979 1.454 2.156.463 1.164.463 2.527 0 .304-.013.595-.198 2.368-1.905 4.101-1.958 1.918-4.696 1.918-2.752 0-4.683-1.918-1.945-1.958-1.945-4.696 0-2.752 1.932-4.683l.013-.014q1.931-1.931 4.683-1.931 2.738 0 4.696 1.945"/>
    <path fill="#f5f5f5" d="M-24.038 50.298q-.476-1.177-1.455-2.156-1.958-1.945-4.696-1.945-2.752 0-4.683 1.931l-.013.014q-1.932 1.931-1.932 4.683 0 2.738 1.945 4.696 1.931 1.918 4.683 1.918 2.738 0 4.696-1.918 1.707-1.733 1.905-4.1.013-.292.013-.596 0-1.363-.463-2.527m-4.22-.132q.344.225.543.608.198.384.198.966 0 .688-.357 1.177-.37.49-1.058.609l1.667 2.778h-1.733l-1.376-2.62h-.701v2.62h-1.442v-6.562h2.526q.503 0 .953.106.45.093.78.318m-2.817 2.288h.846q.199 0 .41-.013.212-.013.397-.08.172-.065.291-.21.106-.146.106-.424 0-.252-.093-.397-.105-.146-.264-.225t-.357-.106q-.199-.026-.397-.026h-.94z"/>
    <path fill="#9a9a9a" d="M-27.715 50.774q-.199-.383-.543-.608-.33-.225-.78-.318-.45-.106-.953-.106h-2.526v6.562h1.442v-2.62h.7l1.377 2.62h1.733l-1.667-2.778q.688-.12 1.058-.609.357-.489.357-1.177 0-.582-.198-.966m-2.514 1.68h-.846v-1.481h.939q.198 0 .397.026.198.027.357.106.159.08.264.225.093.145.093.397 0 .278-.106.423-.119.146-.29.212-.186.066-.398.08-.211.012-.41.012"/>
    <path fill="#404040" d="M-47.162 49.703q-.807-3.308-3.374-5.86-.026-.027-.026-.054-3.664-3.585-8.877-3.585-5.265 0-8.996 3.638-3.664 3.718-3.664 8.983 0 5.225 3.664 8.916.014.014.04.053 3.718 3.665 8.956 3.665 5.226 0 8.903-3.704 0-.014.027-.027h.026q3.414-3.44 3.665-8.176.013-.357.013-.727 0-1.627-.357-3.122m-1.058 3.122q0 .37-.014.727-.251 4.18-3.28 7.224-3.281 3.267-7.925 3.267-4.656 0-7.964-3.267-3.28-3.308-3.28-7.951 0-4.63 3.254-7.911 0-.053.026-.053 3.308-3.28 7.964-3.28 4.644 0 7.925 3.28 2.13 2.143 2.897 4.842.397 1.468.397 3.122m-1.006.595q.013-.29.013-.595 0-1.323-.29-2.527-.649-2.672-2.726-4.736-.026-.026-.026-.053-2.964-2.91-7.197-2.91-4.26 0-7.276 2.963-2.977 3.003-2.977 7.263 0 4.246 2.977 7.236.013.013.026.04 3.017 2.963 7.25 2.963 4.247 0 7.223-2.99 0-.013.027-.026h.013q2.765-2.791 2.963-6.628m-1.124-.595q0 .304-.014.595-.198 3.387-2.672 5.847-2.646 2.66-6.416 2.66t-6.443-2.66q-2.672-2.672-2.672-6.442 0-3.744 2.646-6.403 0-.04.026-.04 2.673-2.672 6.443-2.672t6.416 2.672q1.733 1.733 2.355 3.916.33 1.19.33 2.527"/>
    <path fill="#5d5d5d" d="M-48.234 53.552q.014-.357.014-.727 0-1.654-.397-3.122-.768-2.699-2.897-4.842-3.281-3.28-7.925-3.28-4.656 0-7.964 3.28-.026 0-.026.053-3.255 3.28-3.255 7.91 0 4.644 3.281 7.952 3.308 3.267 7.964 3.267 4.644 0 7.925-3.267 3.029-3.043 3.28-7.224m-.979-.727q0 .304-.013.595-.198 3.837-2.963 6.628h-.013q-.027.013-.027.026-2.976 2.99-7.223 2.99-4.233 0-7.25-2.963-.013-.027-.026-.04-2.977-2.99-2.977-7.236 0-4.26 2.977-7.263 3.016-2.963 7.276-2.963 4.233 0 7.197 2.91 0 .027.026.053 2.077 2.064 2.725 4.736.291 1.204.291 2.527"/>
    <path fill="#d7d7d7" d="M-50.364 53.42q.014-.29.014-.595 0-1.336-.331-2.527-.622-2.183-2.355-3.916-2.646-2.672-6.416-2.672t-6.443 2.672q-.026 0-.026.04-2.646 2.659-2.646 6.403 0 3.77 2.672 6.442 2.673 2.66 6.443 2.66t6.416-2.66q2.474-2.46 2.672-5.847m-3.73-5.887q1.23 1.244 1.76 2.765.41 1.177.41 2.527 0 .304-.014.595-.198 2.725-2.183 4.736-2.209 2.196-5.331 2.196-3.096 0-5.292-2.17-.013-.026-.026-.04-2.196-2.222-2.196-5.317 0-3.122 2.196-5.318t5.318-2.196q3.096 0 5.318 2.196.013.013.04.026"/>
    <path fill="#fff" d="M-52.335 50.298q-.529-1.521-1.76-2.765-.026-.013-.039-.026-2.222-2.196-5.318-2.196-3.122 0-5.318 2.196t-2.196 5.318q0 3.095 2.196 5.318.013.013.026.04 2.196 2.17 5.292 2.17 3.122 0 5.331-2.197 1.985-2.01 2.183-4.736.013-.29.013-.595 0-1.35-.41-2.527m-2.42-2.156q.978.979 1.455 2.156.463 1.164.463 2.527 0 .304-.014.595-.198 2.368-1.905 4.101-1.958 1.918-4.696 1.918-2.752 0-4.683-1.918-1.945-1.958-1.945-4.696 0-2.752 1.932-4.683l.013-.014q1.931-1.931 4.683-1.931 2.738 0 4.696 1.945"/>
    <path fill="#f5f5f5" d="M-53.3 50.298q-.477-1.177-1.456-2.156-1.958-1.945-4.696-1.945-2.752 0-4.683 1.931l-.013.014q-1.932 1.931-1.932 4.683 0 2.738 1.945 4.696 1.931 1.918 4.683 1.918 2.738 0 4.696-1.918 1.707-1.733 1.905-4.1.014-.292.014-.596 0-1.363-.463-2.527m-7.911-.556h1.442v5.226h2.672v1.336h-4.114Z"/>
    <path fill="#9a9a9a" d="M-59.77 49.742h-1.441v6.562h4.114v-1.336h-2.672Z"/>
    <path fill="#d7d7d7" d="M-77.946 46.065q-3.956.344-7.911.383-3.97-.04-7.925-.383-1.058.224-1.203 1.018l1.005 11.02q.172.609 1.005.94 3.003.568 7.118.555 4.127.013 7.117-.556.833-.33 1.005-.939l1.006-11.02q-.146-.794-1.217-1.018m-7.885 2.235q3.572-.04 7.157-.304l-.847 9.313q-2.712.45-6.323.437h-.013q-3.625.013-6.324-.437l-.86-9.313q3.572.265 7.17.304z"/>
    <path fill="#f5f5f5" d="M-78.674 47.996q-3.585.265-7.157.304h-.04q-3.598-.04-7.17-.304l.86 9.313q2.699.45 6.324.437h.013q3.611.013 6.323-.437zm-5.45 2.421v1.045l-2.673 3.228h2.765v1.085h-4.246V54.69l2.725-3.228h-2.633v-1.045z"/>
    <path fill="#9a9a9a" d="M-84.124 51.462v-1.045h-4.062v1.045h2.633l-2.725 3.228v1.085h4.246V54.69h-2.765Z"/>
    <path fill="none" stroke="#fff" stroke-linecap="round" stroke-linejoin="round" stroke-width="1.058" d="M-93.04 47.996q3.571.265 7.17.304h.04q3.571-.04 7.156-.304l-.847 9.313q-2.712.45-6.323.437h-.013q-3.625.013-6.324-.437Z"/>
    <path fill="none" stroke="#404040" stroke-linecap="round" stroke-linejoin="round" stroke-width="1.323" d="M-85.857 46.448q3.955-.04 7.91-.383 1.072.224 1.218 1.018l-1.006 11.02q-.172.609-1.005.94-2.99.568-7.117.555-4.115.013-7.118-.556-.833-.33-1.005-.939l-1.005-11.02q.145-.794 1.203-1.018 3.956.344 7.925.383"/>
    <path fill="#d7d7d7" d="M-102.79 48.274q-2.501-1.879-6.033-1.879t-6.046 1.879q-2.5 1.892-2.5 4.55 0 2.673 2.5 4.552 2.514 1.891 6.046 1.891t6.032-1.891q2.514-1.879 2.514-4.551 0-2.66-2.514-4.551m-6.032.013q2.87 0 4.908 1.495 1.68 1.283 1.746 3.043-.066 1.773-1.746 3.03v.013q-2.037 1.508-4.908 1.508-2.858 0-4.895-1.522h-.013q-1.68-1.256-1.746-3.03.066-1.759 1.746-3.042h.013q2.037-1.495 4.895-1.495"/>
    <path fill="#f5f5f5" d="M-103.915 49.782q-2.037-1.495-4.908-1.495-2.858 0-4.895 1.495h-.013q-1.68 1.283-1.746 3.043.066 1.773 1.746 3.03h.013q2.037 1.52 4.895 1.52 2.87 0 4.908-1.507v-.014q1.68-1.256 1.746-3.03-.066-1.759-1.746-3.042m-6.72 1.019q.396-.37.925-.57.53-.198 1.151-.198.239 0 .477.04.251.053.49.132.237.093.462.252.212.145.384.37l-.913.741q-.172-.212-.423-.33-.252-.107-.582-.107-.331 0-.622.133-.278.119-.49.357-.211.225-.33.542t-.12.688q0 .384.12.701.119.305.33.543.199.225.477.357t.595.132q.357 0 .648-.158.278-.146.463-.424l.98.741q-.345.476-.86.701-.53.225-1.086.225-.621 0-1.15-.185-.53-.212-.927-.569-.383-.37-.595-.9-.212-.515-.212-1.164 0-.635.212-1.164.212-.516.595-.886"/>
    <path fill="#9a9a9a" d="M-109.71 50.232q-.529.198-.926.569-.383.37-.595.886-.212.53-.212 1.164 0 .649.212 1.164.212.53.595.9.397.357.926.569.53.185 1.151.185.556 0 1.085-.225.516-.225.86-.7l-.979-.742q-.185.278-.463.424-.29.158-.648.158-.318 0-.595-.132-.278-.132-.477-.357-.211-.238-.33-.543-.12-.317-.12-.7 0-.371.12-.689.119-.317.33-.542.212-.238.49-.357.29-.133.622-.133.33 0 .582.106.251.12.423.331l.913-.74q-.172-.226-.384-.371-.225-.159-.463-.252-.238-.079-.49-.132-.237-.04-.476-.04-.621 0-1.15.199"/>
    <path fill="none" stroke="#404040" stroke-linecap="round" stroke-linejoin="round" stroke-width="1.323" d="M-108.823 46.395q3.532 0 6.032 1.879 2.514 1.892 2.514 4.55 0 2.673-2.514 4.552-2.5 1.891-6.032 1.891t-6.046-1.891q-2.5-1.879-2.5-4.551 0-2.66 2.5-4.551 2.514-1.879 6.046-1.879"/>
    <path fill="none" stroke="#fff" stroke-linecap="round" stroke-linejoin="round" stroke-width="1.058" d="M-113.718 49.782q2.037-1.495 4.895-1.495 2.87 0 4.908 1.495 1.68 1.283 1.746 3.043-.066 1.773-1.746 3.03v.013q-2.037 1.508-4.908 1.508-2.858 0-4.895-1.522h-.013q-1.68-1.256-1.746-3.03.066-1.759 1.746-3.042Z"/>
    <path fill="#5d5d5d" d="m-126.153 61.258 3.492-8.44-3.506-8.44-8.44-3.48-8.427 3.493-3.505 8.44 3.505 8.44 8.44 3.493zm-2.037-14.962q0 .027.027.04 2.699 2.699 2.699 6.495 0 3.77-2.66 6.456h-.013q-.013.013-.026.013-2.66 2.673-6.443 2.673t-6.482-2.646l-.013-.027q-2.66-2.685-2.66-6.469 0-3.796 2.66-6.495 2.698-2.646 6.495-2.646 3.77 0 6.416 2.606"/>
    <path fill="#404040" d="M-128.164 46.336q-.027-.013-.027-.04-2.645-2.606-6.416-2.606-3.797 0-6.495 2.646-2.66 2.699-2.66 6.495 0 3.784 2.66 6.47l.013.026q2.699 2.646 6.482 2.646t6.443-2.673q.013 0 .026-.013h.014q2.659-2.685 2.659-6.456 0-3.796-2.7-6.495m-6.442-1.64q3.36 0 5.728 2.38 2.395 2.395 2.395 5.755t-2.395 5.755q-2.368 2.368-5.728 2.368t-5.754-2.368q-2.382-2.394-2.382-5.755 0-3.347 2.355-5.715 0-.04.027-.04 2.394-2.38 5.754-2.38"/>
    <path fill="#d7d7d7" d="M-128.879 47.077q-2.368-2.381-5.728-2.381t-5.754 2.38q-.027 0-.027.04-2.355 2.368-2.355 5.715 0 3.36 2.382 5.755 2.394 2.368 5.754 2.368t5.728-2.368q2.395-2.394 2.395-5.755t-2.395-5.754m-1.283 1.31q0 .013.027.013 1.825 1.839 1.825 4.431 0 2.607-1.852 4.445-1.839 1.853-4.445 1.853-2.593 0-4.432-1.826 0-.027-.013-.027-1.839-1.852-1.839-4.445 0-2.619 1.84-4.445 1.825-1.838 4.444-1.838 2.593 0 4.445 1.838"/>
    <path fill="#fff" d="M-130.135 48.4q-.027 0-.027-.014-1.852-1.838-4.445-1.838-2.62 0-4.445 1.838-1.839 1.826-1.839 4.445 0 2.593 1.84 4.445.012 0 .012.027 1.84 1.826 4.432 1.826 2.606 0 4.445-1.853 1.852-1.838 1.852-4.445 0-2.592-1.825-4.431m-4.472-1.125q2.289 0 3.93 1.64 1.613 1.615 1.613 3.916 0 2.29-1.614 3.93-1.64 1.613-3.929 1.613-2.302 0-3.916-1.614-1.64-1.64-1.64-3.929 0-2.301 1.627-3.915l.013-.014q1.614-1.627 3.916-1.627"/>
    <path fill="#f5f5f5" d="M-130.678 48.916q-1.64-1.64-3.929-1.64-2.302 0-3.916 1.626l-.013.014q-1.627 1.614-1.627 3.915 0 2.29 1.64 3.93 1.614 1.613 3.916 1.613 2.289 0 3.93-1.614 1.613-1.64 1.613-3.929 0-2.301-1.614-3.915"/>
    <path fill="none" stroke="#404040" stroke-linecap="round" stroke-linejoin="round" stroke-width="1.323" d="m-122.66 52.818-3.493 8.44-8.44 3.506-8.44-3.492-3.506-8.44 3.505-8.44 8.427-3.493 8.44 3.479Z"/>
    <path fill="#d7d7d7" d="M-197.705 50.807h5.344q.82 0 1.403-.582.066-.066.119-.132l-1.746-1.27h-5.689q-1.23.291-1.415 1.416v5.185q.158 1.151 1.415 1.416h5.913v.172l1.575-1.376q-.08-.106-.172-.198-.582-.583-1.403-.583h-5.344z"/>
    <path fill="#f5f5f5" d="m-190.786 50.146-.053-.053q-.053.066-.12.132-.581.582-1.402.582h-5.344v4.048h5.344q.82 0 1.403.583.092.092.172.198 1.548-2.831 0-5.49m-5.53 2.685h3.48z"/>
    <path fill="#9f9f9f" d="M-179 54.855v-4.048h-5.344q-.82 0-1.402-.582t-.582-1.402v-5.345h-4.048v5.345q0 .74-.463 1.27l.053.053q1.548 2.659 0 5.49.41.516.41 1.204v5.344h4.048V56.84q0-.82.582-1.402.582-.583 1.402-.583zm-9.353-6.508v-3.48zm4.485 4.484h3.479zm-4.484 7.964v-3.479Z"/>
    <path fill="#747474" d="M-177.015 50.239q-.185-1.125-1.415-1.416h-5.914V42.91q-.29-1.23-1.415-1.416h-5.186q-1.151.159-1.416 1.416v5.913h-.224l1.746 1.27q.463-.53.463-1.27v-5.345h4.048v5.345q0 .82.582 1.402t1.402.582h5.345v4.048h-5.345q-.82 0-1.402.583-.582.582-.582 1.402v5.344h-4.048V56.84q0-.688-.41-1.204l-1.575 1.376v5.741q.265 1.257 1.416 1.416h5.186q1.124-.185 1.415-1.416V56.84h5.914q1.257-.265 1.415-1.416z"/>
    <path fill="none" stroke="#404040" stroke-linecap="round" stroke-linejoin="round" stroke-width="1.323" d="M-192.585 48.823h.224V42.91q.265-1.257 1.416-1.416h5.186q1.124.185 1.415 1.416v5.913h5.914q1.23.291 1.415 1.416v5.185q-.158 1.151-1.415 1.416h-5.914v5.913q-.29 1.23-1.415 1.416h-5.186q-1.151-.159-1.416-1.416V56.84h-5.913q-1.257-.265-1.415-1.416V50.24q.185-1.125 1.415-1.416z"/>
    <path fill="none" stroke="#b5b5b5" stroke-linecap="round" stroke-linejoin="round" stroke-width="1.058" d="M-190.84 50.093q.464-.53.464-1.27v-5.345h4.048v5.345q0 .82.582 1.402t1.402.582h5.345v4.048h-5.345q-.82 0-1.402.583-.582.582-.582 1.402v5.344h-4.048V56.84q0-.688-.41-1.204"/>
    <path fill="none" stroke="#747474" stroke-linecap="round" stroke-linejoin="round" stroke-width="1.058" d="M-188.352 48.347v-3.48m4.485 7.964h3.479m-7.964 7.964v-3.479"/>
    <path fill="none" stroke="#fff" stroke-linejoin="round" stroke-width="1.058" d="M-190.786 55.636q-.08-.106-.172-.198-.582-.583-1.403-.583m0-4.048q.82 0 1.403-.582.066-.066.119-.132"/>
    <path fill="none" stroke="#fff" stroke-linecap="round" stroke-linejoin="round" stroke-width="1.058" d="M-192.36 54.855h-5.345v-4.048h5.344"/>
    <path fill="none" stroke="#d7d7d7" stroke-linecap="round" stroke-linejoin="round" stroke-width="1.058" d="M-196.316 52.831h3.48"/>
    <path fill="#d7d7d7" d="M6.628 10.306q-.047-.047-.094-.084l-.896 1.232v4.014q.206.868.999.999h3.66q.811-.112.998-1v-4.172h.121l-.97-1.11q-.075.055-.14.12-.411.411-.411.99v3.771H7.038v-3.77q0-.58-.41-.99"/>
    <path fill="#f5f5f5" d="M6.534 10.222q.047.037.094.084.41.41.41.99v3.77h2.857v-3.77q0-.58.41-.99.066-.066.14-.122-1.997-1.092-3.873 0zm1.933 3.864v-2.455Z"/>
    <path fill="#9f9f9f" d="M15.066 9.895V7.038h-3.77q-.58 0-.99-.41-.411-.411-.411-.99V1.867H7.038v3.771q0 .579-.41.99-.411.41-.99.41H1.867v2.857h3.771q.523 0 .896.327l.038-.038q1.876-1.092 3.874 0 .364-.29.85-.29zm-6.6-4.592V2.847zM5.303 8.467H2.847zm8.784 0h-2.455Z"/>
    <path fill="#747474" d="M16.467 6.637q-.131-.793-1-.999h-4.172V1.466q-.187-.887-.999-1H6.637q-.793.131-.999 1v4.172H1.466q-.869.206-1 .999v3.66q.113.811 1 .998h4.172v.159l.896-1.232q-.373-.327-.896-.327H1.867V7.038h3.771q.579 0 .99-.41.41-.411.41-.99V1.867h2.857v3.771q0 .579.41.99.411.41.99.41h3.771v2.857h-3.77q-.486 0-.85.29l.97 1.11h4.052q.887-.187.999-.999z"/>
    <path fill="none" stroke="#404040" stroke-linecap="round" stroke-linejoin="round" stroke-width=".933" d="M5.638 11.454v-.159H1.466q-.887-.187-1-.999V6.637q.131-.793 1-.999h4.172V1.466q.206-.869.999-1h3.66q.811.113.998 1v4.172h4.173q.868.206.999.999v3.66q-.112.811-1 .998h-4.172v4.173q-.187.887-.999.999H6.637q-.793-.131-.999-1z"/>
    <path fill="none" stroke="#fff" stroke-linecap="round" stroke-linejoin="round" stroke-width=".747" d="M7.038 11.295v3.771h2.857v-3.77"/>
    <path fill="none" stroke="#b5b5b5" stroke-linecap="round" stroke-linejoin="round" stroke-width=".747" d="M6.534 10.222q-.373-.327-.896-.327H1.867V7.038h3.771q.579 0 .99-.41.41-.411.41-.99V1.867h2.857v3.771q0 .579.41.99.411.41.99.41h3.771v2.857h-3.77q-.486 0-.85.29"/>
    <path fill="none" stroke="#fff" stroke-linejoin="round" stroke-width=".747" d="M6.534 10.222q.047.037.094.084.41.41.41.99m2.857 0q0-.58.41-.99.066-.066.14-.122"/>
    <path fill="none" stroke="#747474" stroke-linecap="round" stroke-linejoin="round" stroke-width=".747" d="M8.467 5.302V2.847m-3.165 5.62H2.847m11.24 0H11.63"/>
    <path fill="none" stroke="#d7d7d7" stroke-linecap="round" stroke-linejoin="round" stroke-width=".747" d="M8.467 14.086v-2.455"/>
    <path fill="#9f9f9f" d="M-242.26 43.478h-4.049v5.345q0 .82-.582 1.402t-1.402.582h-5.345v4.048h5.345q.82 0 1.402.583.582.582.582 1.402v5.344h4.048V56.84q0-.741.463-1.27l-.053-.053q-1.548-2.66 0-5.49-.41-.516-.41-1.204zm-2.024 1.39v3.479zm-4.485 7.964h-3.479zm4.484 4.485v3.48Z"/>
    <path fill="#747474" d="M-246.309 43.478h4.048v5.345q0 .688.41 1.204l1.574-1.376V42.91q-.264-1.257-1.415-1.416h-5.186q-1.124.185-1.415 1.416v5.913h-5.914q-1.257.265-1.415 1.416v5.185q.185 1.125 1.415 1.416h5.914v5.913q.29 1.23 1.415 1.416h5.186q1.15-.159 1.415-1.416V56.84h.225l-1.746-1.27q-.463.529-.463 1.27v5.344h-4.048V56.84q0-.82-.582-1.402-.582-.583-1.402-.583h-5.345v-4.048h5.345q.82 0 1.402-.582t.582-1.402z"/>
    <path fill="#f5f5f5" d="M-234.932 54.855v-4.048h-5.345q-.82 0-1.402-.582-.092-.092-.172-.198-1.548 2.83 0 5.49l.053.053q.053-.066.12-.132.581-.583 1.401-.583zm-1.389-2.024h-3.48Z"/>
    <path fill="#d7d7d7" d="M-232.948 50.239q-.158-1.151-1.415-1.416h-5.914v-.172l-1.574 1.376q.08.106.172.198.582.582 1.402.582h5.345v4.048h-5.345q-.82 0-1.402.583-.066.066-.119.132l1.746 1.27h5.689q1.23-.291 1.415-1.416z"/>
    <path fill="none" stroke="#404040" stroke-linecap="round" stroke-linejoin="round" stroke-width="1.323" d="M-240.277 48.651v.172h5.914q1.257.265 1.415 1.416v5.185q-.185 1.125-1.415 1.416h-5.914v5.913q-.264 1.257-1.415 1.416h-5.186q-1.124-.185-1.415-1.416V56.84h-5.914q-1.23-.291-1.415-1.416V50.24q.158-1.151 1.415-1.416h5.914V42.91q.29-1.23 1.415-1.416h5.186q1.15.159 1.415 1.416z"/>
    <path fill="none" stroke="#b5b5b5" stroke-linecap="round" stroke-linejoin="round" stroke-width="1.058" d="M-241.798 55.57q-.463.529-.463 1.27v5.344h-4.048V56.84q0-.82-.582-1.402-.582-.583-1.402-.583h-5.345v-4.048h5.345q.82 0 1.402-.582t.582-1.402v-5.345h4.048v5.345q0 .688.41 1.204"/>
    <path fill="none" stroke="#fff" stroke-linecap="round" stroke-linejoin="round" stroke-width="1.058" d="M-240.277 50.807h5.345v4.048h-5.345"/>
    <path fill="none" stroke="#fff" stroke-linejoin="round" stroke-width="1.058" d="M-241.85 50.027q.079.106.171.198.582.582 1.402.582m0 4.048q-.82 0-1.402.583-.066.066-.119.132"/>
    <path fill="none" stroke="#d7d7d7" stroke-linecap="round" stroke-linejoin="round" stroke-width="1.058" d="M-236.321 52.831h-3.48"/>
    <path fill="none" stroke="#747474" stroke-linecap="round" stroke-linejoin="round" stroke-width="1.058" d="M-244.285 44.867v3.48m-4.485 4.484h-3.479m7.964 4.485v3.48"/>
    <path fill="#f5f5f5" d="M-270.227 43.478h-4.048v5.345q0 .822-.583 1.402-.094.095-.198.172 2.829 1.544 5.49 0l.04-.066q-.06-.046-.12-.106-.58-.58-.581-1.402zm-2.024 1.39v3.479z"/>
    <path fill="#d7d7d7" d="M-274.275 43.478h4.048v5.345q0 .822.582 1.402.06.06.119.106l1.283-1.733V42.91q-.291-1.23-1.415-1.416h-5.186q-1.151.159-1.416 1.416v5.913h-.172l1.376 1.574q.104-.077.198-.172.582-.58.583-1.402z"/>
    <path fill="#9f9f9f" d="M-262.898 54.855v-4.048h-5.345q-.737 0-1.283-.476l-.04.066q-2.661 1.544-5.49 0-.517.41-1.204.41h-5.344v4.048h5.344q.822 0 1.402.583.582.58.583 1.402v5.344h4.048V56.84q0-.822.582-1.402.58-.582 1.402-.583zm-17.317-2.024h3.479zm12.45 0h3.479zm-4.484 4.485v3.48Z"/>
    <path fill="#747474" d="M-260.914 50.239q-.159-1.151-1.416-1.416h-5.913v-.225l-1.283 1.733q.546.476 1.283.476h5.345v4.048h-5.345q-.822 0-1.402.583-.582.58-.582 1.402v5.344h-4.048V56.84q0-.822-.583-1.402-.58-.582-1.402-.583h-5.344v-4.048h5.344q.687 0 1.204-.41l-1.376-1.574h-5.741q-1.257.265-1.416 1.416v5.185q.185 1.125 1.416 1.416h5.913v5.913q.265 1.257 1.416 1.416h5.186q1.124-.185 1.415-1.416V56.84h5.913q1.23-.291 1.416-1.416z"/>
    <path fill="none" stroke="#404040" stroke-linecap="round" stroke-linejoin="round" stroke-width="1.323" d="M-268.243 48.598v.225h5.913q1.257.265 1.416 1.416v5.185q-.185 1.125-1.416 1.416h-5.913v5.913q-.291 1.23-1.415 1.416h-5.186q-1.151-.159-1.416-1.416V56.84h-5.913q-1.23-.291-1.416-1.416V50.24q.159-1.151 1.416-1.416h5.913V42.91q.265-1.257 1.416-1.416h5.186q1.124.185 1.415 1.416z"/>
    <path fill="none" stroke="#fff" stroke-linecap="round" stroke-linejoin="round" stroke-width="1.058" d="M-274.275 48.823v-5.345h4.048v5.345"/>
    <path fill="none" stroke="#d7d7d7" stroke-linecap="round" stroke-linejoin="round" stroke-width="1.058" d="M-272.251 44.867v3.48"/>
    <path fill="none" stroke="#b5b5b5" stroke-linecap="round" stroke-linejoin="round" stroke-width="1.058" d="M-269.52 50.338q.54.469 1.277.47h5.345v4.047h-5.345q-.822 0-1.402.583-.582.58-.582 1.402v5.344h-4.048V56.84q0-.822-.583-1.402-.58-.582-1.402-.583h-5.344v-4.048h5.344q.687 0 1.204-.41"/>
    <path fill="none" stroke="#747474" stroke-linecap="round" stroke-linejoin="round" stroke-width="1.058" d="M-280.215 52.831h3.479m8.97 0h3.479m-7.964 4.485v3.48"/>
    <path fill="none" stroke="#fff" stroke-linejoin="round" stroke-width="1.058" d="M-270.227 48.823q0 .822.582 1.402.06.06.125.113m-5.536.06q.104-.078.198-.173.582-.58.583-1.402"/>
    <path fill="#d7d7d7" d="M-288.88 50.239q-.16-1.151-1.416-1.416h-5.913V42.91q-.291-1.23-1.416-1.416h-5.186q-1.15.159-1.415 1.416v5.913h-5.914q-1.256.265-1.415 1.416v5.185q.185 1.125 1.415 1.416h5.914v5.913q.264 1.257 1.415 1.416h5.186q1.125-.185 1.416-1.416V56.84h5.913q1.23-.291 1.416-1.416zm-1.985.568v4.048h-5.344q-.822 0-1.403.583-.581.58-.582 1.402v5.344h-4.048V56.84q0-.822-.582-1.402-.58-.582-1.402-.583h-5.345v-4.048h5.345q.821 0 1.402-.582.582-.58.582-1.402v-5.345h4.048v5.345q0 .822.582 1.402.581.582 1.403.582z"/>
    <path fill="#f5f5f5" d="M-290.865 54.855v-4.048h-5.344q-.822 0-1.403-.582-.581-.58-.582-1.402v-5.345h-4.048v5.345q0 .822-.582 1.402-.58.582-1.402.582h-5.345v4.048h5.345q.821 0 1.402.583.582.58.582 1.402v5.344h4.048V56.84q0-.822.582-1.402.581-.582 1.403-.583zm-9.353-9.988v3.48zm-7.964 7.964h3.48zm12.449 0h3.48zm-4.485 4.485v3.48Z"/>
    <path fill="none" stroke="#404040" stroke-linecap="round" stroke-linejoin="round" stroke-width="1.323" d="M-290.296 48.823q1.257.265 1.416 1.416v5.185q-.186 1.125-1.416 1.416h-5.913v5.913q-.291 1.23-1.416 1.416h-5.186q-1.15-.159-1.415-1.416V56.84h-5.914q-1.23-.291-1.415-1.416V50.24q.159-1.151 1.415-1.416h5.914V42.91q.264-1.257 1.415-1.416h5.186q1.125.185 1.416 1.416v5.913z"/>
    <path fill="none" stroke="#fff" stroke-linecap="round" stroke-linejoin="round" stroke-width="1.058" d="M-290.865 50.807v4.048h-5.344q-.822 0-1.403.583-.581.58-.582 1.402v5.344h-4.048V56.84q0-.822-.582-1.402-.58-.582-1.402-.583h-5.345v-4.048h5.345q.821 0 1.402-.582.582-.58.582-1.402v-5.345h4.048v5.345q0 .822.582 1.402.581.582 1.403.582z"/>
    <path fill="none" stroke="#d7d7d7" stroke-linecap="round" stroke-linejoin="round" stroke-width="1.058" d="M-300.218 44.867v3.48m-7.964 4.484h3.48m8.969 0h3.48m-7.965 4.485v3.48"/>
    <path fill="#404040" d="M-395.19 50.146q-.14-.459-.33-.9-.393-.895-1.006-1.706-.409-.557-.926-1.072h.013q-2.606-2.606-6.337-2.606t-6.376 2.606q-.51.515-.926 1.072-.881 1.205-1.31 2.606-.09.325-.172.661-.198.968-.198 2.024 0 3.718 2.606 6.337v.013q2.646 2.62 6.376 2.62 3.718 0 6.324-2.62l.013-.013q2.633-2.62 2.633-6.337 0-1.422-.384-2.685m-1.27 0q.125.324.212.661.251.96.251 2.024 0 3.215-2.289 5.504-2.275 2.275-5.49 2.275-3.228 0-5.516-2.275-2.262-2.289-2.262-5.504 0-1.063.238-2.024.095-.337.211-.661.512-1.426 1.601-2.606l.212-.212v-.013q2.288-2.262 5.516-2.262 3.215 0 5.49 2.275.106.105.199.212 1.118 1.18 1.627 2.606"/>
    <path fill="#d7d7d7" d="M-396.248 50.807q-.087-.337-.212-.661-.51-1.426-1.627-2.606-.093-.107-.199-.212-2.275-2.275-5.49-2.275-3.228 0-5.516 2.262v.013l-.212.212q-1.09 1.18-1.6 2.606-.117.324-.212.661-.238.96-.238 2.024 0 3.215 2.262 5.504 2.288 2.275 5.516 2.275 3.215 0 5.49-2.275 2.29-2.289 2.29-5.504 0-1.063-.252-2.024m-3.559-3.267q.366.275.701.608h.013q.909.908 1.39 1.998.142.323.238.661.304.95.304 2.024 0 2.739-1.932 4.684-1.944 1.931-4.683 1.931-2.751 0-4.683-1.931V57.5q-1.931-1.944-1.931-4.67 0-1.074.29-2.024.11-.338.252-.661.481-1.09 1.39-1.998.332-.333.687-.608 1.718-1.323 3.995-1.323 2.256 0 3.97 1.323"/>
    <path fill="#fff" d="M-399.106 48.148q-.335-.333-.7-.608-1.714-1.323-3.97-1.323-2.277 0-3.995 1.323-.355.275-.688.608-.908.908-1.389 1.998-.142.323-.251.661-.291.95-.291 2.024 0 2.726 1.931 4.67v.014q1.932 1.931 4.683 1.931 2.739 0 4.683-1.931 1.932-1.945 1.932-4.684 0-1.074-.304-2.024-.096-.338-.238-.661-.481-1.09-1.39-1.998zm-6.667-.608q.925-.344 1.997-.344 1.062 0 1.985.344 1.098.41 1.997 1.31.601.6.98 1.296.176.32.304.661.357.937.357 2.024 0 2.329-1.64 3.982-1.654 1.64-3.983 1.64-2.341 0-3.982-1.64-1.653-1.653-1.653-3.982 0-1.087.357-2.024.128-.34.304-.661.378-.695.98-1.297l.012-.013q.89-.889 1.985-1.296"/>
    <path fill="#f5f5f5" d="M-403.776 47.196q-1.072 0-1.997.344-1.095.407-1.985 1.296l-.013.013q-.601.602-.979 1.297-.176.32-.304.661-.357.937-.357 2.024 0 2.329 1.653 3.982 1.64 1.64 3.982 1.64 2.329 0 3.982-1.64 1.64-1.653 1.64-3.982 0-1.087-.356-2.024-.128-.34-.305-.661-.378-.695-.979-1.297-.9-.899-1.997-1.31-.923-.343-1.985-.343m0 2.17v3.307zm0 6.628q-1.31 0-2.235-.926-.926-.926-.926-2.236 0-1.163.727-2.024-.727.861-.727 2.024 0 1.31.926 2.236t2.235.926 2.236-.926.926-2.236q0-1.163-.727-2.024.727.861.727 2.024 0 1.31-.926 2.236t-2.236.926"/>
    <path fill="none" stroke="#a91818" stroke-linecap="round" stroke-linejoin="round" stroke-width="1.323" d="M-403.776 49.365v3.308m2.435-1.866q.727.861.727 2.024 0 1.31-.926 2.236t-2.236.926-2.235-.926-.926-2.236q0-1.163.727-2.024"/>
    <path fill="#404040" d="M-419.36 46.468q-2.606-2.606-6.336-2.606t-6.377 2.606q-2.606 2.633-2.606 6.363 0 3.718 2.606 6.337v.013q2.646 2.62 6.377 2.62 3.717 0 6.323-2.62l.013-.013q2.633-2.62 2.633-6.337 0-3.73-2.646-6.363zm-6.336-1.415q3.214 0 5.49 2.275 2.288 2.276 2.288 5.503 0 3.215-2.288 5.504-2.276 2.275-5.49 2.275-3.228 0-5.517-2.275-2.262-2.289-2.262-5.504 0-3.227 2.262-5.503v-.013q2.289-2.262 5.517-2.262"/>
    <path fill="#d7d7d7" d="M-420.206 47.328q-2.276-2.275-5.49-2.275-3.228 0-5.517 2.262v.013q-2.262 2.276-2.262 5.503 0 3.215 2.262 5.504 2.289 2.275 5.517 2.275 3.214 0 5.49-2.275 2.288-2.289 2.288-5.504 0-3.227-2.288-5.503m-5.49-1.111q2.725 0 4.67 1.931h.013q1.931 1.932 1.931 4.683 0 2.739-1.931 4.684-1.945 1.931-4.683 1.931-2.752 0-4.683-1.931V57.5q-1.932-1.944-1.932-4.67 0-2.751 1.932-4.683t4.683-1.931"/>
    <path fill="#fff" d="M-421.026 48.148q-1.945-1.931-4.67-1.931-2.752 0-4.683 1.931t-1.932 4.683q0 2.726 1.932 4.67v.014q1.931 1.931 4.683 1.931 2.738 0 4.683-1.931 1.931-1.945 1.931-4.684 0-2.751-1.931-4.683zm-4.67-.952q2.328 0 3.982 1.653 1.64 1.64 1.64 3.982 0 2.329-1.64 3.982-1.654 1.64-3.982 1.64-2.342 0-3.982-1.64-1.654-1.653-1.654-3.982 0-2.341 1.64-3.982l.014-.013q1.64-1.64 3.982-1.64"/>
    <path fill="#f5f5f5" d="M-421.714 48.85q-1.654-1.654-3.982-1.654-2.342 0-3.982 1.64l-.014.013q-1.64 1.64-1.64 3.982 0 2.329 1.654 3.982 1.64 1.64 3.982 1.64 2.328 0 3.982-1.64 1.64-1.653 1.64-3.982 0-2.341-1.64-3.982m-6.588 7.396v-3.387h-1.654l4.26-4.088 4.26 4.088h-1.654v3.387zm3.77-3.837h-2.342v2.328h2.342z"/>
    <path fill="#4196f3" d="M-428.302 52.858v3.387h5.212v-3.387h1.653l-4.26-4.088-4.26 4.088zm1.428-.45h2.342v2.328h-2.342z"/>
</svg>
