<?xml version="1.0" encoding="UTF-8"?>
<svg version="1.1" viewBox="0 0 64 64" xmlns="http://www.w3.org/2000/svg">
<g stroke-linecap="round" stroke-linejoin="round">
<path d="m32 4c-7.5713 0-14.451 2.8325-19.818 8.1621-0.0065 0.0065-0.01304 0.013-0.01953 0.01953-5.3296 5.3677-8.1621 12.247-8.1621 19.818 0 7.5953 2.831 14.471 8.1719 19.779 0.0017 0.0017 0.0042 0.0022 0.0059 0.0039s0.0022 0.0042 0.0039 0.0059c5.3638 5.3589 12.245 8.2109 19.818 8.2109 7.5967 0 14.473-2.8532 19.777-8.2227 5.3694-5.3039 8.2227-12.181 8.2227-19.777 0-7.5734-2.852-14.454-8.2109-19.818l-0.0059-0.0039c-5.3084-5.3441-12.186-8.1777-19.783-8.1777zm0 11c4.8962 0 8.6165 1.5457 12.01 4.9668l0.0078 0.0039 0.0039 0.0078c3.4332 3.4332 4.9785 7.164 4.9785 12.022 0 4.8962-1.5457 8.6165-4.9668 12.01-0.0078 0.0078-0.01566 0.01559-0.02344 0.02344-3.3933 3.4211-7.1136 4.9668-12.01 4.9668-4.8575 0-8.5884-1.5454-12.021-4.9785l-0.01172-0.01172c-3.4211-3.3933-4.9668-7.1136-4.9668-12.01 0-4.8575 1.5454-8.5884 4.9785-12.021 3.4331-3.4331 7.164-4.9785 12.021-4.9785zm-9.1504 6c-1.2891 0-2.7575 0.54189-3.7793 1.4199-1.018 0.85693-1.7321 2.1228-1.9824 3.291-0.03734 0.17582-0.06279 0.35396-0.07617 0.5332-0.09469 1.231 0.25123 2.6127 0.91406 3.6543l9.0938 14.389c2e-3 0.0033 0.0039 0.0065 0.0059 0.0098 0.67126 1.0548 1.8384 1.991 3.0605 2.3984 1.1589 0.38631 2.5696 0.38631 3.7285 0 1.0957-0.36523 2.1458-1.1041 2.8594-1.9961 0.08809-0.1108 0.17024-0.2262 0.24609-0.3457l9.2012-14.4c0.02891-0.04501 0.0569-0.09059 0.08398-0.13672 0.62466-1.0709 0.85912-2.5479 0.65039-3.8418-0.17456-1.292-0.863-2.7604-1.9473-3.6348-0.96384-0.78005-2.3625-1.3399-3.709-1.3399zm26.84 28.666-0.02344 0.02344c4e-3 -4e-3 0.0057-0.0097 0.0098-0.01367 4e-3 -4e-3 0.0097-0.0057 0.01367-0.0098z" color="#000000" style="-inkscape-stroke:none;paint-order:stroke markers fill"/>
<path d="m56 32c0 6.6667-2.35 12.317-7.05 16.95-4.6333 4.7-10.283 7.05-16.95 7.05-6.6333 0-12.3-2.35-17-7.05-4.6667-4.6333-7-10.283-7-16.95 0-6.6333 2.3333-12.3 7-17 4.7-4.6667 10.367-7 17-7 6.6667 0 12.317 2.3333 16.95 7 4.7 4.7 7.05 10.367 7.05 17m-9.15-14.85c-4.0667-4.1-9.0167-6.15-14.85-6.15-5.8 0-10.75 2.05-14.85 6.15s-6.15 9.05-6.15 14.85c0 5.8333 2.05 10.783 6.15 14.85 4.1 4.1 9.05 6.15 14.85 6.15 5.8333 0 10.783-2.05 14.85-6.15 4.1-4.0667 6.15-9.0167 6.15-14.85 0-5.8-2.05-10.75-6.15-14.85m-13.3 25.05c-0.26667 0.33333-0.6 0.56667-1 0.7s-0.8 0.13333-1.2 0-0.71667-0.38333-0.95-0.75l-9.1-14.4c-0.23333-0.36667-0.33333-0.76667-0.3-1.2 0.1-0.46667 0.31667-0.83333 0.65-1.1 0.33333-0.3 0.73333-0.45 1.2-0.45h18.35c0.43333 0 0.83333 0.15 1.2 0.45 0.33333 0.26667 0.51667 0.63333 0.55 1.1 0.1 0.43333 0.03333 0.85-0.2 1.25z" color="#000000" fill="#fff" stroke-width="8" style="-inkscape-stroke:none;paint-order:stroke markers fill"/>
</g>
</svg>
