<?xml version="1.0" encoding="UTF-8"?>
<svg version="1.1" viewBox="0 0 64 64" xmlns="http://www.w3.org/2000/svg">
<path d="m32 4c-7.5713 0-14.451 2.8325-19.818 8.1621l-0.0196 0.0196c-5.3295 5.3676-8.162 12.247-8.162 19.818 0 7.5953 2.831 14.471 8.1719 19.779 0.0017 0.0017 0.0042 0.0022 0.0059 0.0039s0.0022 0.0042 0.0039 0.0059c5.3638 5.3589 12.245 8.2109 19.818 8.2109 7.5967 0 14.473-2.8532 19.777-8.2227 5.3694-5.3039 8.2227-12.181 8.2227-19.777 0-7.5734-2.852-14.454-8.2109-19.818l-0.0059-0.0039c-5.3084-5.3441-12.186-8.1777-19.783-8.1777zm0 8c5.7333 0 10.154 1.8324 14.111 5.8184l0.0098 0.0098c4.0346 4.0346 5.8789 8.4832 5.8789 14.172 0 5.7267-1.8405 10.142-5.8574 14.102l-0.02148 0.01953-0.01953 0.02148c-3.96 4.017-8.3749 5.8574-14.102 5.8574-5.6886 0-10.137-1.8442-14.172-5.8789l-0.0098-0.0098c-3.9859-3.9575-5.8183-8.378-5.8183-14.111 0-5.6905 1.8315-10.142 5.8281-14.172 4.0296-3.9967 8.4814-5.8281 14.172-5.8281zm-9.1504 9c-1.2891 0-2.7575 0.54189-3.7793 1.4199-1.018 0.85693-1.7321 2.1228-1.9824 3.291l-0.02344 0.11524-0.01758 0.11523c-0.21434 1.3932 0.21678 3.061 1.0176 4.1621l-0.14648-0.2168 9.1035 14.406 0.0039 0.0039c0.67126 1.0548 1.8384 1.991 3.0605 2.3984 1.1589 0.38631 2.5696 0.38631 3.7285 0 1.0957-0.36523 2.1458-1.1041 2.8594-1.9961l0.13281-0.16602 9.3574-14.648 0.04102-0.06836c0.62102-1.0646 0.85211-2.5298 0.65039-3.8184-0.17949-1.3345-0.95832-2.7902-2.0352-3.6445-0.97238-0.79468-2.3432-1.3535-3.6211-1.3535zm3.9727 8h10.414l-5.2363 8.1953z" color="#000000" style="-inkscape-stroke:none;paint-order:stroke markers fill"/>
<path d="m56 32c0 6.6667-2.35 12.317-7.05 16.95-4.6333 4.7-10.283 7.05-16.95 7.05-6.6333 0-12.3-2.35-17-7.05-4.6667-4.6333-7-10.283-7-16.95 0-6.6333 2.3333-12.3 7-17 4.7-4.6667 10.367-7 17-7 6.6667 0 12.317 2.3333 16.95 7 4.7 4.7 7.05 10.367 7.05 17m-13.05-5.45c-0.03333-0.46667-0.23333-0.83333-0.6-1.1-0.33333-0.3-0.71667-0.45-1.15-0.45h-18.35c-0.46667 0-0.86667 0.15-1.2 0.45-0.33333 0.26667-0.55 0.63333-0.65 1.1-0.06667 0.43333 0.03333 0.83333 0.3 1.2l9.1 14.4c0.23333 0.36667 0.55 0.61667 0.95 0.75s0.8 0.13333 1.2 0 0.73333-0.36667 1-0.7l9.2-14.4c0.23333-0.4 0.3-0.81667 0.2-1.25z" color="#000000" fill="#fff" stroke-width="8" style="-inkscape-stroke:none;paint-order:stroke markers fill"/>
</svg>
