<?xml version="1.0" encoding="UTF-8"?>
<svg version="1.1" viewBox="0 0 64 64" xmlns="http://www.w3.org/2000/svg">
<g stroke-linecap="round" stroke-linejoin="round">
<path d="m32 4c-7.5713 0-14.451 2.8325-19.818 8.1621-0.0065 0.0065-0.01304 0.013-0.01953 0.01953-5.3296 5.3677-8.1621 12.247-8.1621 19.818 0 7.5953 2.831 14.471 8.1719 19.779 0.0017 0.0017 0.0042 0.0022 0.0059 0.0039s0.0022 0.0042 0.0039 0.0059c5.3638 5.3589 12.245 8.2109 19.818 8.2109 7.5967 0 14.473-2.8532 19.777-8.2227 5.3694-5.3039 8.2227-12.181 8.2227-19.777 0-7.5734-2.852-14.454-8.2109-19.818l-0.0059-0.0039c-5.3084-5.3441-12.186-8.1777-19.783-8.1777zm0 11c4.8962 0 8.6165 1.5457 12.01 4.9668l0.0078 0.0039 0.0039 0.0078c3.4332 3.4332 4.9785 7.164 4.9785 12.022 0 4.8962-1.5457 8.6165-4.9668 12.01-0.0078 0.0078-0.01566 0.01559-0.02344 0.02344-3.3933 3.4211-7.1136 4.9668-12.01 4.9668-4.8575 0-8.5884-1.5454-12.021-4.9785l-0.01172-0.01172c-3.4211-3.3933-4.9668-7.1136-4.9668-12.01 0-4.8575 1.5454-8.5884 4.9785-12.021 3.4331-3.4331 7.164-4.9785 12.021-4.9785zm6.0586 2.0469c-1.3931-0.21433-3.061 0.21679-4.1621 1.0176l0.2168-0.14648-14.4 9.1016 0.22266-0.13086c-1.1719 0.6392-2.2129 1.8927-2.6309 3.1465-0.0095 0.02919-0.01856 0.05849-0.02734 0.08789-0.34529 1.1222-0.36951 2.5008 0.02734 3.6914 0.37578 1.1273 1.1934 2.2574 2.2012 2.9629 0.04368 0.03017 0.08796 0.05948 0.13281 0.08789l14.4 9.25c0.46406 0.298 0.98473 0.49682 1.5293 0.58398l1.25 0.20117c0.39634 0.06331 0.79994 0.06661 1.1973 0.0098 1.2506-0.1787 2.6662-0.91489 3.5684-1.9864 0.87534-1.0216 1.416-2.4865 1.416-3.7734v-18.301c0-1.2891-0.54189-2.7575-1.4199-3.7793-0.85693-1.018-2.1228-1.7321-3.291-1.9824-0.07641-0.01592-0.15326-0.0296-0.23047-0.04102zm11.631 32.619-0.02344 0.02344c4e-3 -4e-3 0.0057-0.0097 0.0098-0.01367 4e-3 -4e-3 0.0097-0.0057 0.01367-0.0098z" color="#000000" style="-inkscape-stroke:none;paint-order:stroke markers fill"/>
<path d="m56 32c0 6.6667-2.35 12.317-7.05 16.95-4.6333 4.7-10.283 7.05-16.95 7.05-6.6333 0-12.3-2.35-17-7.05-4.6667-4.6333-7-10.283-7-16.95 0-6.6333 2.3333-12.3 7-17 4.7-4.6667 10.367-7 17-7 6.6667 0 12.317 2.3333 16.95 7 4.7 4.7 7.05 10.367 7.05 17m-9.15-14.85c-4.0667-4.1-9.0167-6.15-14.85-6.15-5.8 0-10.75 2.05-14.85 6.15s-6.15 9.05-6.15 14.85c0 5.8333 2.05 10.783 6.15 14.85 4.1 4.1 9.05 6.15 14.85 6.15 5.8333 0 10.783-2.05 14.85-6.15 4.1-4.0667 6.15-9.0167 6.15-14.85 0-5.8-2.05-10.75-6.15-14.85m-25.05 16.35c-0.33333-0.23333-0.56667-0.55-0.7-0.95s-0.13333-0.81667 0-1.25c0.13333-0.4 0.38333-0.7 0.75-0.9l14.4-9.1c0.36667-0.26667 0.76667-0.36667 1.2-0.3 0.46667 0.1 0.83333 0.31667 1.1 0.65 0.3 0.33333 0.45 0.73333 0.45 1.2v18.3c0 0.46667-0.15 0.86667-0.45 1.2-0.26667 0.33333-0.63333 0.53333-1.1 0.6l-1.25-0.2z" color="#000000" fill="#fff" stroke-width="8" style="-inkscape-stroke:none;paint-order:stroke markers fill"/>
</g>
</svg>
