<?xml version="1.0" encoding="UTF-8"?>
<svg version="1.1" viewBox="0 0 64 64" xmlns="http://www.w3.org/2000/svg">
<path d="m32 4c-7.5713 0-14.451 2.8325-19.818 8.1621l-0.0196 0.0196c-5.3295 5.3676-8.162 12.247-8.162 19.818 0 7.5953 2.831 14.471 8.1719 19.779 0.0017 0.0017 0.0042 0.0022 0.0059 0.0039s0.0022 0.0042 0.0039 0.0059c5.3638 5.3589 12.245 8.2109 19.818 8.2109 7.5967 0 14.473-2.8532 19.777-8.2227 5.3694-5.3039 8.2227-12.181 8.2227-19.777 0-7.5734-2.852-14.454-8.2109-19.818l-0.0059-0.0039c-5.3084-5.3441-12.186-8.1777-19.783-8.1777zm0 8c5.7333 0 10.154 1.8324 14.111 5.8184l0.0098 0.0098c4.0346 4.0346 5.8789 8.4832 5.8789 14.172 0 5.7267-1.8405 10.142-5.8574 14.102l-0.02148 0.01953-0.01953 0.02148c-3.96 4.017-8.3749 5.8574-14.102 5.8574-5.6886 0-10.137-1.8442-14.172-5.8789l-0.0098-0.0098c-3.9859-3.9575-5.8183-8.378-5.8183-14.111 0-5.6905 1.8315-10.142 5.8281-14.172 4.0296-3.9967 8.4814-5.8281 14.172-5.8281zm-5.2734 5.0273-0.46094 0.0332c-1.3968 0.09976-3.0012 0.97094-3.9121 2.1191-0.79468 0.97239-1.3535 2.3432-1.3535 3.6211v18.35c0 1.3238 0.55564 2.8518 1.4766 3.875l0.41016 0.45703 3.041 1.7969 3.416-0.85547 15.521-9.8086 1.6074-2.0371 0.22266-0.66406c0.38631-1.1589 0.38631-2.5696 0-3.7285l-0.18555-0.55274-1.4883-2.127-15.768-10.074zm2.2734 9.7363 8.1953 5.2344-8.1953 5.1797z" color="#000000" style="-inkscape-stroke:none;paint-order:stroke markers fill"/>
<path d="m56 32c0 6.6667-2.35 12.317-7.05 16.95-4.6333 4.7-10.283 7.05-16.95 7.05-6.6333 0-12.3-2.35-17-7.05-4.6667-4.6333-7-10.283-7-16.95 0-6.6333 2.3333-12.3 7-17 4.7-4.6667 10.367-7 17-7 6.6667 0 12.317 2.3333 16.95 7 4.7 4.7 7.05 10.367 7.05 17m-29.45-10.95c-0.46667 0.03333-0.83333 0.23333-1.1 0.6-0.3 0.33333-0.45 0.71667-0.45 1.15v18.35c0 0.46667 0.15 0.86667 0.45 1.2l1.1 0.65 1.2-0.3 14.4-9.1 0.75-0.95c0.13333-0.4 0.13333-0.8 0-1.2l-0.7-1-14.4-9.2z" color="#000000" fill="#fff" stroke-width="8" style="-inkscape-stroke:none;paint-order:stroke markers fill"/>
</svg>
