<?xml version="1.0" encoding="UTF-8"?>
<svg version="1.1" viewBox="0 0 64 64" xmlns="http://www.w3.org/2000/svg">
<g stroke-linecap="round" stroke-linejoin="round">
<path d="m32 4c-7.5713 0-14.451 2.8325-19.818 8.1621-0.0065 0.0065-0.01304 0.013-0.01953 0.01953-5.3296 5.3677-8.1621 12.247-8.1621 19.818 0 7.5953 2.831 14.471 8.1719 19.779 0.0017 0.0017 0.0042 0.0022 0.0059 0.0039s0.0022 0.0042 0.0039 0.0059c5.3638 5.3589 12.245 8.2109 19.818 8.2109 7.5967 0 14.473-2.8532 19.777-8.2227 5.3694-5.3039 8.2227-12.181 8.2227-19.777 0-7.5734-2.852-14.454-8.2109-19.818l-0.0059-0.0039c-5.3084-5.3441-12.186-8.1777-19.783-8.1777zm0 11c4.8962 0 8.6165 1.5457 12.01 4.9668l0.0078 0.0039 0.0039 0.0078c3.4332 3.4332 4.9785 7.164 4.9785 12.022 0 4.8962-1.5457 8.6165-4.9668 12.01-0.0078 0.0078-0.01566 0.01559-0.02344 0.02344-3.3933 3.4211-7.1136 4.9668-12.01 4.9668-4.8575 0-8.5884-1.5454-12.021-4.9785l-0.01172-0.01172c-3.4211-3.3933-4.9668-7.1136-4.9668-12.01 0-4.8575 1.5454-8.5884 4.9785-12.021 3.4331-3.4331 7.164-4.9785 12.021-4.9785zm-4.0488 2.1504c-0.71605-0.14124-1.4599-0.13255-2.1484 2e-3 -1.2063 0.21871-2.5272 0.90299-3.3867 1.9238-0.87534 1.0215-1.416 2.4865-1.416 3.7734v18.301c0 1.3238 0.55565 2.8518 1.4766 3.875 0.27231 0.30213 0.5891 0.56097 0.93945 0.76758l1.0996 0.65039c0.85785 0.50696 1.874 0.6755 2.8496 0.47266l1.2012-0.25c0.47155-0.09826 0.92148-0.28088 1.3281-0.53906l14.4-9.1504c0.34967-0.22244 0.66264-0.49786 0.92773-0.81641l0.75-0.90039c0.33906-0.40676 0.59399-0.87678 0.75-1.3828 0.34529-1.1222 0.36951-2.5008-0.02734-3.6914-0.13232-0.3969-0.32608-0.77058-0.57422-1.1074l-0.70117-0.95117c-0.29121-0.39531-0.6527-0.73363-1.0664-0.99805l-14.334-9.1562-0.06641-0.04297c-0.02535-0.0048-0.05074-0.0094-0.07617-0.01367-0.55321-0.3437-1.2118-0.62479-1.9258-0.76562zm21.738 32.516-0.02344 0.02344c4e-3 -4e-3 0.0057-0.0097 0.0098-0.01367 4e-3 -4e-3 0.0097-0.0057 0.01367-0.0098z" color="#000000" style="-inkscape-stroke:none;paint-order:stroke markers fill"/>
<path d="m56 32q0 10-7.05 16.95-6.95 7.05-16.95 7.05-9.95 0-17-7.05-7-6.95-7-16.95 0-9.95 7-17 7.05-7 17-7 10 0 16.95 7 7.05 7.05 7.05 17m-9.15-14.85q-6.1-6.15-14.85-6.15-8.7 0-14.85 6.15t-6.15 14.85q0 8.75 6.15 14.85 6.15 6.15 14.85 6.15 8.75 0 14.85-6.15 6.15-6.1 6.15-14.85 0-8.7-6.15-14.85m-19.05 4.15 14.4 9.2 0.7 0.95q0.2 0.6 0 1.25l-0.75 0.9-14.4 9.15-1.2 0.25-1.1-0.65q-0.45-0.5-0.45-1.2v-18.3q0-0.7 0.45-1.2 0.4-0.5 1.1-0.6 0.65-0.15 1.25 0.25" color="#000000" fill="#fff" stroke-width="8" style="-inkscape-stroke:none;paint-order:stroke markers fill"/>
</g>
</svg>
