<?xml version="1.0" encoding="UTF-8"?>
<svg version="1.1" viewBox="0 0 64 64" xmlns="http://www.w3.org/2000/svg">
<path d="m32 4c-7.5713 0-14.451 2.8325-19.818 8.1621l-0.0196 0.0196c-5.3295 5.3676-8.162 12.247-8.162 19.818 0 7.5953 2.831 14.471 8.1719 19.779 0.0017 0.0017 0.0042 0.0022 0.0059 0.0039s0.0022 0.0042 0.0039 0.0059c5.3638 5.3589 12.245 8.2109 19.818 8.2109 7.5967 0 14.473-2.8532 19.777-8.2227 5.3694-5.3039 8.2227-12.181 8.2227-19.777 0-7.5734-2.852-14.454-8.2109-19.818l-0.0059-0.0039c-5.3084-5.3441-12.186-8.1777-19.783-8.1777zm0 8c5.7333 0 10.154 1.8324 14.111 5.8184l0.0098 0.0098c4.0346 4.0346 5.8789 8.4832 5.8789 14.172 0 5.7267-1.8405 10.142-5.8574 14.102l-0.02148 0.01953-0.01953 0.02148c-3.96 4.017-8.3749 5.8574-14.102 5.8574-5.6886 0-10.137-1.8442-14.172-5.8789l-0.0098-0.0098c-3.9859-3.9575-5.8183-8.378-5.8183-14.111 0-5.6905 1.8315-10.142 5.8281-14.172 4.0296-3.9967 8.4814-5.8281 14.172-5.8281zm1.5996 5.2031c-0.98074-0.22633-2.0851-0.2429-3.1191 0.01563l-0.29102 0.07422-0.27734 0.11523c-1.019 0.42459-2.0199 1.192-2.6895 2.1484l-0.04297 0.0625-9.3398 14.488-0.04492 0.07617c-0.64974 1.1138-0.90524 2.6735-0.64648 4.002 0.22253 1.2441 0.92962 2.6304 2.002 3.4883l0.49804 0.39843 2.4766 0.92773h19.025c1.2891 0 2.7575-0.54189 3.7793-1.4199 1.018-0.85693 1.7321-2.1228 1.9824-3.291l0.02344-0.11523 0.01758-0.11523c0.21434-1.3932-0.21678-3.061-1.0176-4.1621l0.14258 0.21094-9.0996-14.35 0.13281 0.22656c-0.61481-1.1271-1.7302-2.1-2.8731-2.5762l-0.31055-0.13086zm-1.5801 9.6719 5.1523 8.125h-10.391z" color="#000000" style="-inkscape-stroke:none;paint-order:stroke markers fill"/>
<path d="m56 32c0 6.6667-2.35 12.317-7.05 16.95-4.6333 4.7-10.283 7.05-16.95 7.05-6.6333 0-12.3-2.35-17-7.05-4.6667-4.6333-7-10.283-7-16.95 0-6.6333 2.3333-12.3 7-17 4.7-4.6667 10.367-7 17-7 6.6667 0 12.317 2.3333 16.95 7 4.7 4.7 7.05 10.367 7.05 17m-34.95 5.45c0.06667 0.46667 0.26667 0.83333 0.6 1.1l1.2 0.45h18.3c0.46667 0 0.86667-0.15 1.2-0.45 0.33333-0.26667 0.55-0.63333 0.65-1.1 0.06667-0.43333-0.03333-0.83333-0.3-1.2l-9.1-14.35c-0.2-0.36667-0.5-0.63333-0.9-0.8-0.43333-0.1-0.85-0.1-1.25 0-0.4 0.16667-0.71667 0.41667-0.95 0.75l-9.25 14.35c-0.23333 0.4-0.3 0.81667-0.2 1.25z" color="#000000" fill="#fff" stroke-width="8" style="-inkscape-stroke:none;paint-order:stroke markers fill"/>
</svg>
