<?xml version="1.0" encoding="UTF-8"?>
<svg version="1.1" viewBox="0 0 64 64" xmlns="http://www.w3.org/2000/svg">
<g stroke-linejoin="round">
<path d="m32 4c-7.5713 0-14.451 2.8325-19.818 8.1621-0.0065 0.0065-0.01304 0.013-0.01953 0.01953-5.3296 5.3677-8.1621 12.247-8.1621 19.818 0 7.5953 2.831 14.471 8.1719 19.779 0.0017 0.0017 0.0042 0.0022 0.0059 0.0039s0.0022 0.0042 0.0039 0.0059c5.3638 5.3589 12.245 8.2109 19.818 8.2109 7.5967 0 14.473-2.8532 19.777-8.2227 5.3694-5.3039 8.2227-12.181 8.2227-19.777 0-7.5734-2.852-14.454-8.2109-19.818l-0.0059-0.0039c-5.3084-5.3441-12.186-8.1777-19.783-8.1777zm0 11c4.8962 0 8.6165 1.5457 12.01 4.9668l0.01172 0.01172c3.4331 3.4331 4.9785 7.164 4.9785 12.021 0 4.8962-1.5457 8.6165-4.9668 12.01-0.0078 0.0078-0.01566 0.01559-0.02344 0.02344-3.3933 3.4211-7.1136 4.9668-12.01 4.9668-4.8575 0-8.5884-1.5454-12.021-4.9785l-0.01172-0.01172c-3.4211-3.3933-4.9668-7.1136-4.9668-12.01 0-4.8575 1.5454-8.5884 4.9785-12.021 3.4331-3.4331 7.164-4.9785 12.021-4.9785zm0.05664 2.0137c-0.63372 6.49e-4 -1.2758 0.09259-1.8711 0.29102-0.3969 0.13232-0.77058 0.32608-1.1074 0.57422l-0.95117 0.70117c-0.39531 0.29121-0.73363 0.6527-0.99805 1.0664l-9.1562 14.334-0.04297 0.06641 0.01367 0.0078c-0.71266 1.109-1.0644 2.7431-0.79102 4.1426 0.22502 1.2412 0.92904 2.6214 1.998 3.4766 0.33015 0.26359 0.69996 0.47322 1.0957 0.62109l1.1992 0.45117c0.4491 0.16812 0.92477 0.25413 1.4043 0.25391h18.301c1.2891 0 2.7575-0.54189 3.7793-1.4199 1.018-0.85693 1.7321-2.1228 1.9824-3.291 0.01592-0.07641 0.0296-0.15326 0.04102-0.23047 0.19888-1.2927-0.1186-2.839-0.82617-3.9531l-2e-3 -2e-3 -9.1484-14.398 0.13477 0.23047c-0.6392-1.1719-1.8927-2.2129-3.1465-2.6309-0.02919-0.0094-0.05849-0.01856-0.08789-0.02734-0.56105-0.1726-1.1866-0.26428-1.8203-0.26363zm17.633 32.652-0.02344 0.02344c4e-3 -4e-3 0.0057-0.0097 0.0098-0.01367 4e-3 -4e-3 0.0097-0.0057 0.01367-0.0098z" color="#000000" style="-inkscape-stroke:none;paint-order:stroke markers fill"/>
<path d="m56 32c0 6.6667-2.35 12.317-7.05 16.95-4.6333 4.7-10.283 7.05-16.95 7.05-6.6333 0-12.3-2.35-17-7.05-4.6667-4.6333-7-10.283-7-16.95 0-6.6333 2.3333-12.3 7-17 4.7-4.6667 10.367-7 17-7 6.6667 0 12.317 2.3333 16.95 7 4.7 4.7 7.05 10.367 7.05 17m-24-21c-5.8 0-10.75 2.05-14.85 6.15s-6.15 9.05-6.15 14.85c0 5.8333 2.05 10.783 6.15 14.85 4.1 4.1 9.05 6.15 14.85 6.15 5.8333 0 10.783-2.05 14.85-6.15 4.1-4.0667 6.15-9.0167 6.15-14.85 0-5.8-2.05-10.75-6.15-14.85-4.0667-4.1-9.0167-6.15-14.85-6.15zm-10.7 25.2 9.2-14.4 0.95-0.7c0.4-0.13333 0.81667-0.13333 1.25 0 0.4 0.13333 0.7 0.38333 0.9 0.75l9.15 14.4c0.23333 0.36667 0.31667 0.76667 0.25 1.2-0.1 0.46667-0.31667 0.83333-0.65 1.1-0.33333 0.3-0.73333 0.45-1.2 0.45h-18.3l-1.2-0.45c-0.33333-0.26667-0.53333-0.63333-0.6-1.1-0.1-0.43333-0.01667-0.85 0.25-1.25" color="#000000" fill="#fff" stroke-width="8" style="-inkscape-stroke:none;paint-order:stroke markers fill"/>
</g>
</svg>
