<?xml version="1.0" encoding="UTF-8"?>
<svg version="1.1" viewBox="0 0 64 64" xmlns="http://www.w3.org/2000/svg">
<g stroke-linecap="round" stroke-linejoin="round">
<path d="m32 4c-7.5713 0-14.451 2.8325-19.818 8.1621-0.0065 0.0065-0.01304 0.013-0.01953 0.01953-5.3296 5.3677-8.1621 12.247-8.1621 19.818 0 7.5953 2.831 14.471 8.1719 19.779 0.0017 0.0017 0.0042 0.0022 0.0059 0.0039s0.0022 0.0042 0.0039 0.0059c5.3638 5.3589 12.245 8.2109 19.818 8.2109 7.5967 0 14.473-2.8532 19.777-8.2227 5.3694-5.3039 8.2227-12.181 8.2227-19.777 0-7.5734-2.852-14.454-8.2109-19.818l-0.0059-0.0039c-5.3084-5.3441-12.186-8.1777-19.783-8.1777zm0 11c4.8962 0 8.6165 1.5457 12.01 4.9668l0.01172 0.01172c3.4331 3.4331 4.9785 7.164 4.9785 12.021 0 4.8962-1.5457 8.6165-4.9668 12.01-0.0078 0.0078-0.01566 0.01559-0.02344 0.02344-3.3933 3.4211-7.1136 4.9668-12.01 4.9668-4.8575 0-8.5884-1.5454-12.021-4.9785l-0.01172-0.01172c-3.4211-3.3933-4.9668-7.1136-4.9668-12.01 0-4.8575 1.5454-8.5884 4.9785-12.021 3.4331-3.4331 7.164-4.9785 12.021-4.9785zm0 1c-1.5078 0-3.2874 0.73986-4.3477 1.8965l0.12695-0.13281-10 9.9512 0.11719-0.11328c-1.1566 1.0602-1.8965 2.8398-1.8965 4.3477v1.1016c0 1.5078 0.70366 3.2095 1.7715 4.2773 0.60634 0.60634 1.3989 1.0281 2.2285 1.3203v2.3516c0 1.5078 0.70366 3.2115 1.7715 4.2793 1.0952 1.0952 2.7991 1.7207 4.2285 1.7207h12c1.4294 0 3.0588-0.59912 4.1523-1.6016 0.08556-0.07842 0.16767-0.16053 0.24609-0.24609 1.0024-1.0936 1.6016-2.7229 1.6016-4.1523v-2.3359c0.79708-0.27494 1.5552-0.66742 2.1523-1.2148 0.08556-0.07842 0.16767-0.16053 0.24609-0.24609 1.0024-1.0936 1.6016-2.7229 1.6016-4.1523v-1.1016c0-1.4294-0.6255-3.1333-1.7207-4.2285-0.0026-2e-3 -0.0052-0.0039-0.0078-0.0059l-9.9922-9.9434c-1.0678-1.0678-2.7715-1.7714-4.2793-1.7714zm17.689 33.666-0.02344 0.02344c4e-3 -4e-3 0.0057-0.0097 0.0098-0.01367 4e-3 -4e-3 0.0097-0.0057 0.01367-0.0098z" color="#000000" style="-inkscape-stroke:none;paint-order:stroke markers fill"/>
<path d="m56 32c0 6.6667-2.35 12.317-7.05 16.95-4.6333 4.7-10.283 7.05-16.95 7.05-6.6333 0-12.3-2.35-17-7.05-4.6667-4.6333-7-10.283-7-16.95 0-6.6333 2.3333-12.3 7-17 4.7-4.6667 10.367-7 17-7 6.6667 0 12.317 2.3333 16.95 7 4.7 4.7 7.05 10.367 7.05 17m-24-21c-5.8 0-10.75 2.05-14.85 6.15s-6.15 9.05-6.15 14.85c0 5.8333 2.05 10.783 6.15 14.85 4.1 4.1 9.05 6.15 14.85 6.15 5.8333 0 10.783-2.05 14.85-6.15 4.1-4.0667 6.15-9.0167 6.15-14.85 0-5.8-2.05-10.75-6.15-14.85-4.0667-4.1-9.0167-6.15-14.85-6.15m-1.4 9.6c0.36667-0.4 0.83333-0.6 1.4-0.6s1.05 0.2 1.45 0.6l10 9.95c0.36667 0.36667 0.55 0.83333 0.55 1.4v1.1c0 0.56667-0.18333 1.05-0.55 1.45-0.4 0.36667-0.88333 0.55-1.45 0.55h-2v5.95c0 0.56667-0.18333 1.05-0.55 1.45-0.4 0.36667-0.88333 0.55-1.45 0.55h-12c-0.56667 0-1.0333-0.18333-1.4-0.55-0.4-0.4-0.6-0.88333-0.6-1.45v-5.95h-2c-0.56667 0-1.0333-0.18333-1.4-0.55-0.4-0.4-0.6-0.88333-0.6-1.45v-1.1c0-0.56667 0.2-1.0333 0.6-1.4zm5.4 18.4v-8h-8v8z" color="#000000" fill="#fff" stroke-width="8" style="-inkscape-stroke:none;paint-order:stroke markers fill"/>
</g>
</svg>
