<?xml version="1.0" encoding="UTF-8"?>
<svg version="1.1" viewBox="0 0 64 64" xmlns="http://www.w3.org/2000/svg">
<path d="m32 4c-7.0745 0-13.554 2.4534-18.732 7.1328l-0.03516 0.03125-1.0273 0.97461-0.04297 0.04297c-5.3296 5.3677-8.1621 12.247-8.1621 19.818 0 7.3314 2.623 13.998 7.6094 19.215l0.03125 0.03125 0.53125 0.5332c5.3653 5.3653 12.25 8.2207 19.828 8.2207 7.6067 0 14.492-2.8592 19.799-8.2422l0.50586-0.50586 0.02539-0.02734c5.0225-5.2142 7.6699-11.886 7.6699-19.225 0-7.578-2.8554-14.463-8.2207-19.828l-0.03906-0.03906-1.0117-0.95898-0.02539-0.02148c-5.1215-4.6979-11.6-7.1524-18.703-7.1524zm0 8c5.3553 0 9.5385 1.6086 13.279 5.0332l0.85156 0.80664c4.0268 4.0317 5.8691 8.4769 5.8691 14.16 0 5.5238-1.7193 9.816-5.4238 13.666-3e-3 0.0031-0.0048 0.0066-0.0078 0.0098l-0.45703 0.45508-0.0098 0.01172c-3.96 4.0169-8.3749 5.8574-14.102 5.8574-5.6886 0-10.137-1.8442-14.172-5.8789l-0.4375-0.43555-0.0078-0.0098c-3.6741-3.8477-5.3828-8.145-5.3828-13.676 0-5.6856 1.8308-10.133 5.8203-14.16l0.8125-0.77148 2e-3 -2e-3c3.8214-3.4526 8.0407-5.0664 13.365-5.0664zm0 4c-1.5078 0-3.2874 0.73986-4.3477 1.8965l0.12695-0.13281-10 9.9512 0.11719-0.11328c-1.1566 1.0602-1.8965 2.8398-1.8965 4.3477v1.2012c0 1.5333 0.74294 3.2 1.7715 4.2285 0.60635 0.60635 1.3989 1.0281 2.2285 1.3203v2.5762l0.0078 0.125c0.08672 1.3877 0.75419 2.9183 1.7637 3.9277l0.06836 0.06836 0.07031 0.0625c1.1256 1.0232 2.7389 1.541 4.0899 1.541h12c1.351 0 2.8961-0.4997 4.0098-1.4277l0.76758-0.63867 1.2227-3v-3.2188c0.7971-0.27494 1.5551-0.66936 2.1523-1.2168l0.12891-0.11719 0.11719-0.12891c0.96505-1.0528 1.6016-2.6516 1.6016-4.1016v-1.2012c0-1.4294-0.6255-3.1333-1.7207-4.2285l-0.0039-2e-3 -9.9961-9.9473c-1.0678-1.0678-2.7715-1.7714-4.2793-1.7714z" color="#000000" style="-inkscape-stroke:none;paint-order:stroke markers fill"/>
<path d="m56 32c0 6.4333-2.1833 11.917-6.55 16.45l-0.5 0.5c-4.6333 4.7-10.283 7.05-16.95 7.05-6.6333 0-12.3-2.35-17-7.05l-0.5-0.5c-4.3333-4.5333-6.5-10.017-6.5-16.45 0-6.6333 2.3333-12.3 7-17l0.95-0.9c4.5-4.0667 9.85-6.1 16.05-6.1 6.2333 0 11.567 2.0333 16 6.1l0.95 0.9c4.7 4.7 7.05 10.367 7.05 17m-36-0.05v1.2c0 0.53333 0.2 1 0.6 1.4 0.36667 0.36667 0.83333 0.55 1.4 0.55h2v6.05c0.03333 0.53333 0.23333 0.98333 0.6 1.35 0.36667 0.33333 0.83333 0.5 1.4 0.5h12c0.56667 0 1.05-0.16667 1.45-0.5l0.55-1.35v-6.05h2c0.56667 0 1.05-0.18333 1.45-0.55 0.36667-0.4 0.55-0.86667 0.55-1.4v-1.2c0-0.56667-0.18333-1.0333-0.55-1.4l-10-9.95c-0.4-0.4-0.88333-0.6-1.45-0.6s-1.0333 0.2-1.4 0.6l-10 9.95c-0.4 0.36667-0.6 0.83333-0.6 1.4zm9 0h6v6.05h-6z" color="#000000" fill="#fff" stroke-width="8" style="-inkscape-stroke:none;paint-order:stroke markers fill"/>
</svg>
