<?xml version="1.0" encoding="UTF-8"?>
<svg version="1.1" viewBox="0 0 64 64" xmlns="http://www.w3.org/2000/svg">
<g stroke-linejoin="round">
<path d="m36 6c-7.5713 0-14.443 2.8351-19.779 8.1719-5.362 5.362-8.2207 12.228-8.2207 19.777v12.051c0 3.3333 0.89573 6.552 3.1719 8.8281 2.2761 2.2761 5.4948 3.1719 8.8281 3.1719h24c3.3333 0 6.552-0.89574 8.8281-3.1719s3.1719-5.4948 3.1719-8.8281v-28c0-3.3333-0.89574-6.552-3.1719-8.8281-2.2761-2.2761-5.4948-3.1719-8.8281-3.1719zm0 8h8c2 0 2.7814 0.4376 3.1719 0.82812s0.82812 1.1719 0.82812 3.1719v23.586a4.0004 4.0004 0 0 0-3-1.5859h-2v-6a4.0004 4.0004 0 0 0-4-4h-2a4.0004 4.0004 0 0 0-4-4h-13a4.0004 4.0004 0 0 0-2.8535 1.2363c0.94269-2.6835 2.4499-5.1257 4.7324-7.4082 3.9966-3.9966 8.4258-5.8281 14.121-5.8281zm-19.932 19.166a4.0004 4.0004 0 0 0 3.9316 3.834h0.01953l-2.9922 3.3242a4.0004 4.0004 0 0 0-1.0273 2.6758v-9.0508c0-0.27511 0.05959-0.51377 0.06836-0.7832zm0.10547 14.252a4.0004 4.0004 0 0 0 0.74805 1.8066c-0.02042-0.01873-0.07518-0.03417-0.09375-0.05273-0.26406-0.26406-0.49694-0.87665-0.6543-1.7539z" color="#000000" style="-inkscape-stroke:none;paint-order:stroke markers fill"/>
<path d="m39 34h-3v13h9v-3h-6zm13-16v28c0 5.3333-2.6667 8-8 8h-24c-5.3333 0-8-2.6667-8-8v-12.05c0-6.6 2.35-12.25 7.05-16.95 4.6667-4.6667 10.317-7 16.95-7h8c5.3333 0 8 2.6667 8 8zm-23 15-9 10v4h13v-3h-9l9-10v-4h-13v3z" color="#000000" fill="#fff" stroke-width="8" style="-inkscape-stroke:none;paint-order:stroke markers fill"/>
</g>
</svg>
