<?xml version="1.0" encoding="UTF-8"?>
<svg version="1.1" viewBox="0 0 64 64" xmlns="http://www.w3.org/2000/svg">
<g stroke-linecap="round" stroke-linejoin="round">
<path d="m26 8c-5.3495 0-10.334 2.0758-14.129 5.8711-3.7953 3.7953-5.8711 8.7794-5.8711 14.129v16c0 3.3333 0.89573 6.552 3.1719 8.8281 2.2761 2.2761 5.4948 3.1719 8.8281 3.1719h28c3.3333 0 6.552-0.89574 8.8281-3.1719s3.1719-5.4948 3.1719-8.8281v-24c0-2.9676-0.6887-5.814-2.4766-8.0488a4.0004 4.0004 0 0 0-0.0078-0.0098c-1.6536-2.0527-4.1456-3.276-6.7305-3.6914a4.0004 4.0004 0 0 0-0.26562-0.033203l-2.1484-0.19922a4 4 0 0 0-0.11133 0.035156 4 4 0 0 0-0.25977-0.052734zm5.4141 11h14.586c1 0 1.0314 0.1876 0.92188 0.07813-0.10948-0.10948 0.078125-0.078129 0.078125 0.92187v24c0 1-0.1876 1.0314-0.07813 0.92188 0.10948-0.10948 0.078129 0.078125-0.92187 0.078125h-4.5859a4.0004 4.0004 0 0 0 1.5859-3v-4a4.0004 4.0004 0 0 0-4-4h-6v-12a4.0004 4.0004 0 0 0-1.5859-3zm-9.6621 1.1855a4.0004 4.0004 0 0 0-0.75195 1.8145v20a4.0004 4.0004 0 0 0 1.5859 3h-4.5859c-1 0-1.0314-0.1876-0.92188-0.078125s-0.078125 0.078124-0.078125-0.92188v-16c0-2.6196 0.75926-4.4526 2.6289-6.3223 0.69406-0.69406 1.4056-1.0819 2.123-1.4922z" color="#000000" style="-inkscape-stroke:none;paint-order:stroke markers fill"/>
<path d="m46 15h-20c-3.5667 0-6.6333 1.2833-9.2 3.85-2.5333 2.5333-3.8 5.5833-3.8 9.15v16c0 3.3333 1.6667 5 5 5h28c3.3333 0 5-1.6667 5-5v-24c0-3.3333-1.6667-5-5-5m-21 7h4v16h10v4h-14zm21-10 2.15 0.2c1.8667 0.3 3.2833 1.05 4.25 2.25 1.0667 1.3333 1.6 3.1833 1.6 5.55v24c0 5.3333-2.6667 8-8 8h-28c-5.3333 0-8-2.6667-8-8v-16c0-4.4 1.5667-8.1667 4.7-11.3s6.9-4.7 11.3-4.7h20" color="#000000" fill="#fff" stroke-width="8" style="-inkscape-stroke:none;paint-order:stroke markers fill"/>
</g>
</svg>
