<?xml version="1.0" encoding="UTF-8"?>
<svg version="1.1" viewBox="0 0 64 64" xmlns="http://www.w3.org/2000/svg">
<path d="m26 8c-5.3495 0-10.334 2.0758-14.129 5.8711-3.7953 3.7953-5.8711 8.7794-5.8711 14.129v16c0 3.3333 0.89573 6.552 3.1719 8.8281 2.2761 2.2761 5.4948 3.1719 8.8281 3.1719h28c3.3333 0 6.552-0.89574 8.8281-3.1719s3.1719-5.4948 3.1719-8.8281v-24c0-2.9676-0.6887-5.814-2.4766-8.0488l-0.0039-0.0059-0.0039-0.0039c-1.6536-2.0527-4.1456-3.276-6.7305-3.6914l-0.13281-0.019531-0.13281-0.013672-2.334-0.2168zm0 8h19.814l1.7305 0.16211c1.1007 0.18414 1.4616 0.4545 1.7363 0.79492 0.34439 0.43342 0.71875 1.284 0.71875 3.043v24c0 2-0.4376 2.7814-0.82812 3.1719s-1.1719 0.82812-3.1719 0.82812h-28c-2 0-2.7814-0.4376-3.1719-0.82812s-0.82812-1.1719-0.82812-3.1719v-16c0-3.4505 1.0579-5.9993 3.5293-8.4707s5.0202-3.5293 8.4707-3.5293zm-5 2v28h22v-12h-10v-16z" color="#000000" style="-inkscape-stroke:none;paint-order:stroke markers fill"/>
<path d="m48.15 12.2c1.8667 0.3 3.2833 1.05 4.25 2.25 1.0667 1.3333 1.6 3.1833 1.6 5.55v24c0 5.3333-2.6667 8-8 8h-28c-5.3333 0-8-2.6667-8-8v-16c0-4.4 1.5667-8.1667 4.7-11.3s6.9-4.7 11.3-4.7h20zm-9.15 29.8v-4h-10v-16h-4v20z" color="#000000" fill="#fff" stroke-width="8" style="-inkscape-stroke:none;paint-order:stroke markers fill"/>
</svg>
