<?xml version="1.0" encoding="UTF-8"?>
<svg version="1.1" viewBox="0 0 64 64" xmlns="http://www.w3.org/2000/svg">
<g stroke-linecap="round" stroke-linejoin="round">
<path d="m36 6c-7.5713 0-14.443 2.8351-19.779 8.1719-5.362 5.362-8.2207 12.228-8.2207 19.777v12.051c0 3.3333 0.89573 6.552 3.1719 8.8281 2.2761 2.2761 5.4948 3.1719 8.8281 3.1719h24c3.3333 0 6.552-0.89574 8.8281-3.1719s3.1719-5.4948 3.1719-8.8281v-28c0-3.3333-0.89574-6.552-3.1719-8.8281-2.2761-2.2761-5.4948-3.1719-8.8281-3.1719zm-17.617 10.311c-4e-3 4e-3 -0.0057 0.0097-0.0098 0.01367-4e-3 4e-3 -0.0097 0.0057-0.01367 0.0098zm17.617 0.68945h8c1 0 1.0314 0.1876 0.92188 0.07813-0.10948-0.10948 0.078125-0.078129 0.078125 0.92187v22h-2v-6c-2.21e-4 -2.209-1.791-3.9998-4-4h-2c-2.21e-4 -2.209-1.791-3.9998-4-4h-11.986c0.77734-1.3933 1.7171-2.7333 3.0039-4.0098 0.0072-0.0078 0.01435-0.0156 0.02148-0.02344 3.3971-3.4249 7.1035-4.9668 11.961-4.9668z" color="#000000" style="-inkscape-stroke:none;paint-order:stroke markers fill"/>
<path d="m44 10c5.3333 0 8 2.6667 8 8v28c0 5.3333-2.6667 8-8 8h-24c-5.3333 0-8-2.6667-8-8v-12.05c0-6.6 2.35-12.25 7.05-16.95 4.6667-4.6667 10.317-7 16.95-7h8m0 3h-8c-5.8 0-10.733 2.05-14.8 6.15-4.1333 4.1-6.2 9.0333-6.2 14.8v12.05c0 3.3333 1.6667 5 5 5h24c3.3333 0 5-1.6667 5-5v-28c0-3.3333-1.6667-5-5-5m1 31v3h-9v-13h3v10zm-25-14h13v4l-9 10h9v3h-13v-4l9-10h-9z" color="#000000" fill="#fff" stroke-width="8" style="-inkscape-stroke:none;paint-order:stroke markers fill"/>
</g>
</svg>
