<?xml version="1.0" encoding="UTF-8"?>
<svg version="1.1" viewBox="0 0 64 64" xmlns="http://www.w3.org/2000/svg">
<path d="m16 4c-3.3333 0-6.552 0.89573-8.8281 3.1719s-3.1719 5.4948-3.1719 8.8281v32c0 3.3333 0.89573 6.552 3.1719 8.8281s5.4948 3.1719 8.8281 3.1719h32c3.3333 0 6.552-0.89574 8.8281-3.1719s3.1719-5.4948 3.1719-8.8281v-32c0-3.3333-0.89574-6.552-3.1719-8.8281s-5.4948-3.1719-8.8281-3.1719zm0 8h32c2 0 2.7814 0.4376 3.1719 0.82812s0.82812 1.1719 0.82812 3.1719v32c0 2-0.4376 2.7814-0.82812 3.1719s-1.1719 0.82812-3.1719 0.82812h-32c-2 0-2.7814-0.4376-3.1719-0.82812s-0.82812-1.1719-0.82812-3.1719v-32c0-2 0.4376-2.7814 0.82812-3.1719s1.1719-0.82812 3.1719-0.82812zm-4 20c0 5.3657 2.0481 10.355 5.8223 14.129 3.8003 3.8003 8.802 5.8711 14.178 5.8711 5.3686 0 10.358-2.0715 14.127-5.873 3.8015-3.7688 5.873-8.7583 5.873-14.127 0-5.3757-2.0708-10.377-5.8711-14.178-3.7742-3.7742-8.7632-5.8223-14.129-5.8223s-10.36 2.0433-14.164 5.8066l-0.01367 0.01563-0.01563 0.01367c-3.7634 3.8038-5.8066 8.7984-5.8066 14.164zm11.469-8.5h0.03125l2.7441 2.7441-3.627-1.502c0.31867-0.40367 0.46357-0.84772 0.85156-1.2422zm8.5312 0.5c2.4 0 4.012 0.66823 5.6719 2.3281s2.3281 3.2719 2.3281 5.6719-0.66823 4.012-2.3281 5.6719-3.2719 2.3281-5.6719 2.3281-4.012-0.66823-5.6719-2.3281-2.3281-3.2719-2.3281-5.6719 0.66823-4.012 2.3281-5.6719 3.2719-2.3281 5.6719-2.3281z" color="#000000" style="-inkscape-stroke:none;paint-order:stroke markers fill"/>
<path d="m48 32q0-6.65-4.7-11.35-4.65-4.65-11.3-4.65t-11.35 4.65q-4.65 4.7-4.65 11.35t4.65 11.3q4.7 4.7 11.35 4.7t11.3-4.7q4.7-4.65 4.7-11.3m-24.5-8.5q3.5-3.5 8.5-3.5t8.5 3.5 3.5 8.5-3.5 8.5-8.5 3.5-8.5-3.5-3.5-8.5 3.5-8.5h-0.05l0.05-0.05v0.05m-7.5-15.5h32q8 0 8 8v32q0 8-8 8h-32q-8 0-8-8v-32q0-8 8-8" color="#000000" fill="#fff" stroke-width="8" style="-inkscape-stroke:none;paint-order:stroke markers fill"/>
</svg>
