<?xml version="1.0" encoding="UTF-8"?>
<svg version="1.1" viewBox="0 0 64 64" xmlns="http://www.w3.org/2000/svg">
<g stroke-linecap="round" stroke-linejoin="round">
<path d="m16 4c-3.3333 0-6.552 0.89573-8.8281 3.1719s-3.1719 5.4948-3.1719 8.8281v32c0 3.3333 0.89573 6.552 3.1719 8.8281s5.4948 3.1719 8.8281 3.1719h32c3.3333 0 6.552-0.89574 8.8281-3.1719s3.1719-5.4948 3.1719-8.8281v-32c0-3.3333-0.89574-6.552-3.1719-8.8281s-5.4948-3.1719-8.8281-3.1719zm0 11h10.252c-2.5866 0.85946-4.9887 2.2285-6.9961 4.1875a4.0004 4.0004 0 0 0-0.06836 0.06836c-1.959 2.0074-3.328 4.4094-4.1875 6.9961v-10.252c0-1 0.1876-1.0314 0.07813-0.92188-0.10948 0.10948-0.078129-0.078125 0.92187-0.078125zm21.736 0h10.264c1 0 1.0314 0.1876 0.92188 0.07813-0.10948-0.10948 0.078125-0.078129 0.078125 0.92187v10.285c-0.86981-2.6091-2.2612-5.0299-4.2539-7.0469a4.0004 4.0004 0 0 0-0.03516-0.0332c-1.9926-1.9683-4.3887-3.3434-6.9746-4.2051zm-5.7363 7c2.9261 0 5.0124 0.85982 7.0684 2.8828 2.0641 2.0972 2.9316 4.2024 2.9316 7.1172 0 2.9241-0.86127 5.0058-2.9277 7.0723-2.0665 2.0665-4.1481 2.9277-7.0723 2.9277-2.9147 0-5.02-0.86751-7.1172-2.9316-2.023-2.0559-2.8828-4.1423-2.8828-7.0684 0-2.9173 0.8628-5.028 2.8848-7.1152 2.0872-2.022 4.1979-2.8848 7.1152-2.8848zm17 15.699v10.301c0 1-0.1876 1.0314-0.07813 0.92188 0.10948-0.10948 0.078129 0.078125-0.92187 0.078125h-10.301c2.6095-0.87198 5.0267-2.2689 7.0293-4.2715s3.3995-4.4198 4.2715-7.0293zm-34 0.03711c0.86172 2.5859 2.2368 4.982 4.2051 6.9746a4.0004 4.0004 0 0 0 0.0332 0.03516c2.017 1.9927 4.4377 3.3841 7.0469 4.2539h-10.285c-1 0-1.0314-0.1876-0.92188-0.078125s-0.078125 0.078124-0.078125-0.92188z" color="#000000" style="-inkscape-stroke:none;paint-order:stroke markers fill"/>
<path d="m16 11q-5 0-5 5v32q0 5 5 5h32q5 0 5-5v-32q0-5-5-5h-32m0-3h32q8 0 8 8v32q0 8-8 8h-32q-8 0-8-8v-32q0-8 8-8m30 24q0 5.8-4.1 9.9t-9.9 4.1-9.95-4.1q-4.05-4.1-4.05-9.9t4.05-9.95q4.15-4.05 9.95-4.05t9.9 4.05q4.1 4.15 4.1 9.95" color="#000000" fill="#fff" stroke-width="8" style="-inkscape-stroke:none;paint-order:stroke markers fill"/>
</g>
</svg>
