<?xml version="1.0" encoding="UTF-8"?>
<svg version="1.1" viewBox="0 0 64 64" xmlns="http://www.w3.org/2000/svg">
<g stroke-linejoin="round">
<path d="m18 8a4.0004 4.0004 0 0 0-0.37109 0.017578l-2.1484 0.19922a4.0004 4.0004 0 0 0-0.26562 0.033203c-2.5848 0.41542-5.0769 1.6387-6.7305 3.6914a4.0004 4.0004 0 0 0-0.00781 0.0098c-1.7879 2.2348-2.4766 5.0812-2.4766 8.0488v24c0 3.3333 0.89573 6.552 3.1719 8.8281 2.2761 2.2761 5.4948 3.1719 8.8281 3.1719h28c3.3333 0 6.552-0.89574 8.8281-3.1719s3.1719-5.4948 3.1719-8.8281v-16c0-5.3495-2.0758-10.334-5.8711-14.129-3.7953-3.7953-8.7794-5.8711-14.129-5.8711zm0.18555 8h19.814c3.4505 0 5.9993 1.0579 8.4707 3.5293s3.5293 5.0202 3.5293 8.4707v16c0 2-0.4376 2.7814-0.82812 3.1719s-1.1719 0.82812-3.1719 0.82812h-28c-2 0-2.7814-0.4376-3.1719-0.82812s-0.82812-1.1719-0.82812-3.1719v-24c0-1.7589 0.37436-2.6096 0.71875-3.043 0.27475-0.34042 0.63559-0.61078 1.7363-0.79492zm5.8145 2a4.0004 4.0004 0 0 0-4 4v20a4.0004 4.0004 0 0 0 4 4h4a4.0004 4.0004 0 0 0 3.9238-3.8145l0.19531 0.78516a4.0004 4.0004 0 0 0 3.8809 3.0293h4a4.0004 4.0004 0 0 0 3.8828-4.9648l-1.3555-5.4551-1.4492 1.4492c1.8266-1.8266 2.9219-4.4436 2.9219-7.0293v-2c0-2.6-1.0818-5.238-2.9219-7.0781l-0.04883-0.05078a4.0004 4.0004 0 0 0-0.42969-0.3711l-1.1992-0.90039a4.0004 4.0004 0 0 0-0.3418-0.23047c-1.4252-0.8551-3.0876-1.3142-4.7305-1.3672a4.0004 4.0004 0 0 0-0.12891-0.001953z" color="#000000" style="-inkscape-stroke:none;paint-order:stroke markers fill"/>
<path d="m24 42h4v-6h6.5l1.5 6h4l-1.9-7.65 0.15-0.15c1.1667-1.1667 1.75-2.5667 1.75-4.2v-2c0-1.6667-0.58333-3.0833-1.75-4.25l-0.05-0.05-1.2-0.9c-0.83333-0.5-1.7667-0.76667-2.8-0.8h-10.2zm10-16c0.53333 0 1 0.2 1.4 0.6h0.05c0.36667 0.36667 0.55 0.83333 0.55 1.4v2c0 0.53333-0.18333 0.98333-0.55 1.35l-0.1 0.1c-0.36667 0.36667-0.81667 0.55-1.35 0.55h-6v-6zm4-14c4.4 0 8.1667 1.5667 11.3 4.7s4.7 6.9 4.7 11.3v16c0 5.3333-2.6667 8-8 8h-28c-5.3333 0-8-2.6667-8-8v-24c0-2.3667 0.53333-4.2167 1.6-5.55 0.96667-1.2 2.3833-1.95 4.25-2.25l2.15-0.2z" color="#000000" fill="#fff" stroke-width="8" style="-inkscape-stroke:none;paint-order:stroke markers fill"/>
</g>
</svg>
