<?xml version="1.0" encoding="UTF-8"?>
<svg version="1.1" viewBox="0 0 64 64" xmlns="http://www.w3.org/2000/svg">
<g stroke-linecap="round" stroke-linejoin="round">
<path d="m20 6c-3.3333 0-6.552 0.89573-8.8281 3.1719-2.2761 2.2761-3.1719 5.4948-3.1719 8.8281v28c0 3.3333 0.89573 6.552 3.1719 8.8281 2.2761 2.2761 5.4948 3.1719 8.8281 3.1719h24c3.3333 0 6.552-0.89574 8.8281-3.1719s3.1719-5.4948 3.1719-8.8281v-12.051c0-7.5495-2.8587-14.415-8.2207-19.777-5.3367-5.3367-12.208-8.1719-19.779-8.1719zm25.617 10.311 0.02344 0.02344c-4e-3 -4e-3 -0.0097-0.0057-0.01367-0.0098-4e-3 -4e-3 -0.0057-0.0097-0.0098-0.01367zm-25.617 0.68945h8c4.8575 0 8.5638 1.5418 11.961 4.9668 0.0071 0.0078 0.01429 0.01565 0.02148 0.02344 2.6955 2.6737 4.2033 5.5276 4.7539 8.918-1.1863-0.54941-2.4553-0.90821-3.7363-0.90821h-5c-2.21e-4 -2.209-1.791-3.9998-4-4h-13v-8c0-1 0.1876-1.0314 0.07813-0.92188-0.10948 0.10948-0.078129-0.078125 0.92187-0.078125z" color="#000000" style="-inkscape-stroke:none;paint-order:stroke markers fill"/>
<path d="m38 44v3h-3v-13h6c1.3667 0 2.5333 0.48333 3.5 1.45 1 1 1.5 2.1833 1.5 3.55s-0.5 2.5333-1.5 3.5l1.5 4.5h-3l-1-3v-0.1l-1 0.1zm3.05-3c0.53333 0 0.98333-0.2 1.35-0.6 0.4-0.36667 0.6-0.83333 0.6-1.4s-0.2-1.05-0.6-1.45c-0.36667-0.36667-0.83333-0.55-1.4-0.55h-3v4zm-21.05-28c-3.3333 0-5 1.6667-5 5v28c0 3.3333 1.6667 5 5 5h24c3.3333 0 5-1.6667 5-5v-12.05c0-5.7667-2.0667-10.7-6.2-14.8-4.0667-4.1-9-6.15-14.8-6.15h-8m0-3h8c6.6333 0 12.283 2.3333 16.95 7 4.7 4.7 7.05 10.35 7.05 16.95v12.05c0 5.3333-2.6667 8-8 8h-24c-5.3333 0-8-2.6667-8-8v-28c0-5.3333 2.6667-8 8-8m-1 20h13v4l-9 10h9v3h-13v-4l9-10h-9z" color="#000000" fill="#fff" stroke-width="8" style="-inkscape-stroke:none;paint-order:stroke markers fill"/>
</g>
</svg>
