<?xml version="1.0" encoding="UTF-8"?>
<svg version="1.1" viewBox="0 0 64 64" xmlns="http://www.w3.org/2000/svg">
<g stroke-linecap="round" stroke-linejoin="round">
<path d="m18 8c-0.1239 1.093e-4 -0.24774 0.00597-0.37109 0.017578l-2.1484 0.19922c-0.08889 0.0081-0.17748 0.019175-0.26562 0.033203-2.5848 0.41542-5.0769 1.6387-6.7305 3.6914-0.00261 0.0033-0.00521 0.0065-0.00781 0.0098-1.7879 2.2348-2.4766 5.0812-2.4766 8.0488v24c0 3.3333 0.89573 6.552 3.1719 8.8281 2.2761 2.2761 5.4948 3.1719 8.8281 3.1719h28c3.3333 0 6.552-0.89574 8.8281-3.1719s3.1719-5.4948 3.1719-8.8281v-16c0-5.3495-2.0758-10.334-5.8711-14.129-3.7953-3.7953-8.7794-5.8711-14.129-5.8711zm0 11h3.5859c-0.9476 0.71514-1.5286 1.8142-1.5859 3v20c0.05731 1.1858 0.63834 2.2849 1.5859 3h-3.5859c-1 0-1.0314-0.1876-0.92188-0.078125s-0.078125 0.078124-0.078125-0.92188v-24c0-1 0.1876-1.0314 0.07813-0.92188-0.10948 0.10948-0.078129-0.078125 0.92187-0.078125zm20.348 0.0625c2.4055 0.07434 4.2082 0.80001 6.0234 2.6152 1.8696 1.8696 2.6289 3.7026 2.6289 6.3223v16c0 1-0.1876 1.0314-0.07813 0.92188 0.10948-0.10948 0.078129 0.078125-0.92187 0.078125h-3.5117c1.1776-0.9513 1.7173-2.4858 1.3945-3.9648l-1.3555-5.4551c0.69052-1.5107 1.3126-3.1411 1.4727-5.5801v-2c0-2.6-1.0818-5.238-2.9219-7.0781l-0.04883-0.05078c-0.13426-0.13372-0.27785-0.25773-0.42969-0.3711l-1.1992-0.90039c-0.1099-0.08265-0.22398-0.15957-0.3418-0.23047-0.2219-0.13314-0.47857-0.19271-0.71094-0.30664zm-6.4238 23.123 0.19531 0.78516c0.53443 1.0188 1.4816 1.7581 2.5996 2.0293h-4.3047c0.87217-0.68786 1.4191-1.7074 1.5098-2.8145z" color="#000000" style="-inkscape-stroke:none;paint-order:stroke markers fill"/>
<path d="m13 20v24c0 3.3333 1.6667 5 5 5h28c3.3333 0 5-1.6667 5-5v-16c0-3.5667-1.2667-6.6167-3.8-9.15-2.5667-2.5667-5.6333-3.85-9.2-3.85h-20c-3.3333 0-5 1.6667-5 5zm25-8c4.4 0 8.1667 1.5667 11.3 4.7s4.7 6.9 4.7 11.3v16c0 5.3333-2.6667 8-8 8h-28c-5.3333 0-8-2.6667-8-8v-24c0-2.3667 0.53333-4.2167 1.6-5.55 0.96667-1.2 2.3833-1.95 4.25-2.25l2.15-0.2zm-3.8 10c1.0333 0.03333 1.9667 0.3 2.8 0.8l1.2 0.9 0.05 0.05c1.1667 1.1667 1.75 2.5833 1.75 4.25v2c0 1.6333-0.58333 3.0333-1.75 4.2l-0.15 0.15 1.9 7.65h-4l-1.5-6h-6.5v6h-4v-20zm-6.2 10h6c0.53333 0 0.98333-0.18333 1.35-0.55l0.1-0.1c0.36667-0.36667 0.55-0.81667 0.55-1.35v-2c0-0.56667-0.18333-1.0333-0.55-1.4h-0.05c-0.4-0.4-0.86667-0.6-1.4-0.6h-6z" color="#000000" fill="#fff" stroke-width="8" style="-inkscape-stroke:none;paint-order:stroke markers fill"/>
</g>
</svg>
