<?xml version="1.0" encoding="UTF-8"?>
<svg version="1.1" viewBox="0 0 64 64" xmlns="http://www.w3.org/2000/svg">
<path d="m20 6c-3.3333 0-6.552 0.89573-8.8281 3.1719-2.2761 2.2761-3.1719 5.4948-3.1719 8.8281v28c0 3.3333 0.89573 6.552 3.1719 8.8281 2.2761 2.2761 5.4948 3.1719 8.8281 3.1719h24c3.3333 0 6.552-0.89574 8.8281-3.1719s3.1719-5.4948 3.1719-8.8281v-12.051c0-7.5495-2.8587-14.415-8.2207-19.777-5.3367-5.3367-12.208-8.1719-19.779-8.1719zm0 8h8c5.6953 0 10.124 1.8315 14.121 5.8281 3.9453 3.9453 5.763 8.2853 5.8457 13.752-0.23429-0.30572-0.36952-0.68984-0.63867-0.95898-1.6331-1.6331-4.0184-2.6211-6.3281-2.6211h-4.918l0.90039-1h-0.98242v-3h-20v-8c0-2 0.4376-2.7814 0.82812-3.1719s1.1719-0.82812 3.1719-0.82812zm-4 23h3.0195l-3.0195 3.3535zm23.311 1.3105 0.68945 0.68945-0.70703 0.70703c-0.11389-0.27023-0.29297-0.51505-0.29297-0.70703 0-0.16672 0.2042-0.42298 0.31055-0.68945z" color="#000000" style="-inkscape-stroke:none;paint-order:stroke markers fill"/>
<path d="m38 37h3c0.56667 0 1.0333 0.18333 1.4 0.55 0.4 0.4 0.6 0.88333 0.6 1.45s-0.2 1.0333-0.6 1.4c-0.36667 0.4-0.81667 0.6-1.35 0.6h-3.05zm4 6.9v0.1l1 3h3l-1.5-4.5c1-0.96667 1.5-2.1333 1.5-3.5s-0.5-2.55-1.5-3.55c-0.96667-0.96667-2.1333-1.45-3.5-1.45h-6v13h3v-3h3zm-14-33.9c6.6333 0 12.283 2.3333 16.95 7 4.7 4.7 7.05 10.35 7.05 16.95v12.05c0 5.3333-2.6667 8-8 8h-24c-5.3333 0-8-2.6667-8-8v-28c0-5.3333 2.6667-8 8-8zm0 23-9 10v4h13v-3h-9l9-10v-4h-13v3z" color="#000000" fill="#fff" stroke-width="8" style="-inkscape-stroke:none;paint-order:stroke markers fill"/>
</svg>
