<?xml version="1.0" encoding="UTF-8"?>
<svg version="1.1" viewBox="0 0 64 64" xmlns="http://www.w3.org/2000/svg">
<g stroke-linecap="round" stroke-linejoin="round">
<path d="m32 4c-7.5713 0-14.451 2.8325-19.818 8.1621a4.0004 4.0004 0 0 0-0.01953 0.01953c-5.3296 5.3677-8.1621 12.247-8.1621 19.818 0 7.5953 2.831 14.471 8.1719 19.779 0.0017 0.0017 0.0042 0.0022 0.0059 0.0039s0.0022 0.0042 0.0039 0.0059c5.3638 5.3589 12.245 8.2109 19.818 8.2109 7.5967 0 14.473-2.8532 19.777-8.2227 5.3694-5.3039 8.2227-12.181 8.2227-19.777 0-7.5734-2.852-14.454-8.2109-19.818l-0.0059-0.0039c-5.3084-5.3441-12.186-8.1777-19.783-8.1777zm0 11c4.8962 0 8.6165 1.5457 12.01 4.9668a4.0004 4.0004 0 0 0 0.01172 0.01172c3.4331 3.4331 4.9785 7.164 4.9785 12.021 0 4.8962-1.5457 8.6165-4.9668 12.01a4.0004 4.0004 0 0 0-0.02344 0.02344c-3.3933 3.4211-7.1136 4.9668-12.01 4.9668-4.8575 0-8.5884-1.5454-12.021-4.9785a4.0004 4.0004 0 0 0-0.01172-0.01172c-3.4211-3.3933-4.9668-7.1136-4.9668-12.01 0-4.8575 1.5454-8.5884 4.9785-12.021 3.4331-3.4331 7.164-4.9785 12.021-4.9785zm-7 3a4.0004 4.0004 0 0 0-4 4v20a4.0004 4.0004 0 0 0 4 4h10c2.5857 0 5.2027-1.0952 7.0293-2.9219l0.04883-0.04883c1.8266-1.8266 2.9219-4.4436 2.9219-7.0293 0-1.377-0.3675-2.7255-0.92188-4 0.55437-1.2745 0.92188-2.623 0.92188-4 0-2.5857-1.0952-5.2027-2.9219-7.0293l-0.04883-0.04883c-1.8266-1.8266-4.4436-2.9219-7.0293-2.9219zm24.689 31.666-0.02344 0.02344c4e-3 -4e-3 0.0057-0.0097 0.0098-0.01367 4e-3 -4e-3 0.0097-0.0057 0.01367-0.0098z" color="#000000" style="-inkscape-stroke:none;paint-order:stroke markers fill"/>
<path d="m32 11c-5.8 0-10.75 2.05-14.85 6.15s-6.15 9.05-6.15 14.85c0 5.8333 2.05 10.783 6.15 14.85 4.1 4.1 9.05 6.15 14.85 6.15 5.8333 0 10.783-2.05 14.85-6.15 4.1-4.0667 6.15-9.0167 6.15-14.85 0-5.8-2.05-10.75-6.15-14.85-4.0667-4.1-9.0167-6.15-14.85-6.15zm24 21c0 6.6667-2.35 12.317-7.05 16.95-4.6333 4.7-10.283 7.05-16.95 7.05-6.6333 0-12.3-2.35-17-7.05-4.6667-4.6333-7-10.283-7-16.95 0-6.6333 2.3333-12.3 7-17 4.7-4.6667 10.367-7 17-7 6.6667 0 12.317 2.3333 16.95 7 4.7 4.7 7.05 10.367 7.05 17m-15 4c0 1.6333-0.58333 3.0333-1.75 4.2l-0.05 0.05c-1.1667 1.1667-2.5667 1.75-4.2 1.75h-10v-20h10c1.6333 0 3.0333 0.58333 4.2 1.75l0.05 0.05c1.1667 1.1667 1.75 2.5667 1.75 4.2 0 1.5333-0.5 2.8667-1.5 4 1 1.1333 1.5 2.4667 1.5 4m-4-8c0-0.53333-0.18333-0.98333-0.55-1.35l-0.1-0.1c-0.36667-0.36667-0.81667-0.55-1.35-0.55h-6v4h6c0.53333 0 1-0.2 1.4-0.6h0.05c0.36667-0.36667 0.55-0.83333 0.55-1.4m0 8c0-0.56667-0.18333-1.0333-0.55-1.4h-0.05c-0.4-0.4-0.86667-0.6-1.4-0.6h-6v4h6c0.53333 0 0.98333-0.18333 1.35-0.55l0.1-0.1c0.36667-0.36667 0.55-0.81667 0.55-1.35" color="#000000" fill="#fff" stroke-width="8" style="-inkscape-stroke:none;paint-order:stroke markers fill"/>
</g>
</svg>
