<?xml version="1.0" encoding="UTF-8"?>
<svg version="1.1" viewBox="0 0 64 64" xmlns="http://www.w3.org/2000/svg">
<g stroke-linejoin="round">
<path d="m32 4c-7.5713 0-14.451 2.8325-19.818 8.1621a4.0004 4.0004 0 0 0-0.01953 0.01953c-5.3296 5.3677-8.1621 12.247-8.1621 19.818 0 7.5953 2.831 14.471 8.1719 19.779 0.0017 0.0017 0.0042 0.0022 0.0059 0.0039s0.0022 0.0042 0.0039 0.0059c5.3638 5.3589 12.245 8.2109 19.818 8.2109 7.5967 0 14.473-2.8532 19.777-8.2227 5.3694-5.3039 8.2227-12.181 8.2227-19.777 0-7.5734-2.852-14.454-8.2109-19.818l-0.0059-0.0039c-5.3084-5.3441-12.186-8.1777-19.783-8.1777zm0 8c5.7333 0 10.154 1.8324 14.111 5.8184a4.0004 4.0004 0 0 0 0.0098 0.0098c4.0346 4.0346 5.8789 8.4832 5.8789 14.172 0 5.7267-1.8405 10.142-5.8574 14.102a4.0004 4.0004 0 0 0-0.04102 0.04102c-3.96 4.017-8.3749 5.8574-14.102 5.8574-5.6886 0-10.137-1.8442-14.172-5.8789a4.0004 4.0004 0 0 0-0.0098-0.0098c-3.9859-3.9575-5.8183-8.378-5.8183-14.111 0-5.6905 1.8315-10.142 5.8281-14.172 4.0296-3.9967 8.4814-5.8281 14.172-5.8281zm-6.75 6a4.0004 4.0004 0 0 0-2.6582 1.0098l-2.25 2a4.0004 4.0004 0 0 0-1.3418 2.9902v1a4.0004 4.0004 0 0 0 1.0059 2.6523l5.9941 6.7656v7.582a4.0004 4.0004 0 0 0 4 4h4a4.0004 4.0004 0 0 0 4-4v-7.582l5.9941-6.7656a4.0004 4.0004 0 0 0 1.0059-2.6523v-1a4.0004 4.0004 0 0 0-1.3418-2.9902l-2.25-2a4.0004 4.0004 0 0 0-2.6582-1.0098h-1.0996a4.0004 4.0004 0 0 0-3.0293 1.3867l-2.6074 3.0234-2.5742-3.0098a4.0004 4.0004 0 0 0-3.0391-1.4004z" color="#000000" style="-inkscape-stroke:none;paint-order:stroke markers fill"/>
<path d="m56 32c0 6.6667-2.35 12.317-7.05 16.95-4.6333 4.7-10.283 7.05-16.95 7.05-6.6333 0-12.3-2.35-17-7.05-4.6667-4.6333-7-10.283-7-16.95 0-6.6333 2.3333-12.3 7-17 4.7-4.6667 10.367-7 17-7 6.6667 0 12.317 2.3333 16.95 7 4.7 4.7 7.05 10.367 7.05 17m-26 0.9v9.1h4v-9.1l7-7.9v-1l-2.25-2h-1.1l-5.65 6.55-5.6-6.55h-1.15l-2.25 2v1z" color="#000000" fill="#fff" stroke-width="8" style="-inkscape-stroke:none;paint-order:stroke markers fill"/>
</g>
</svg>
