<?xml version="1.0" encoding="UTF-8"?>
<svg version="1.1" viewBox="0 0 64 64" xmlns="http://www.w3.org/2000/svg">
<g stroke-linecap="round" stroke-linejoin="round">
<path d="m32 4c-7.5713 0-14.451 2.8325-19.818 8.1621a4.0004 4.0004 0 0 0-0.01953 0.01953c-5.3296 5.3677-8.1621 12.247-8.1621 19.818 0 7.5953 2.831 14.471 8.1719 19.779 0.0017 0.0017 0.0042 0.0022 0.0059 0.0039s0.0022 0.0042 0.0039 0.0059c5.3638 5.3589 12.245 8.2109 19.818 8.2109 7.5967 0 14.473-2.8532 19.777-8.2227 5.3694-5.3039 8.2227-12.181 8.2227-19.777 0-7.5734-2.852-14.454-8.2109-19.818l-0.0059-0.0039c-5.3084-5.3441-12.186-8.1777-19.783-8.1777zm0 11c4.8962 0 8.6165 1.5457 12.01 4.9668a4.0004 4.0004 0 0 0 0.01172 0.01172c3.4331 3.4331 4.9785 7.164 4.9785 12.021 0 4.8962-1.5457 8.6165-4.9668 12.01a4.0004 4.0004 0 0 0-0.02344 0.02344c-3.3933 3.4211-7.1136 4.9668-12.01 4.9668-4.8575 0-8.5884-1.5454-12.021-4.9785a4.0004 4.0004 0 0 0-0.01172-0.01172c-3.4211-3.3933-4.9668-7.1136-4.9668-12.01 0-4.8575 1.5454-8.5884 4.9785-12.021 3.4331-3.4331 7.164-4.9785 12.021-4.9785zm-6.75 3a4.0004 4.0004 0 0 0-2.6582 1.0098l-2.25 2a4.0004 4.0004 0 0 0-1.3418 2.9902v1a4.0004 4.0004 0 0 0 1.0059 2.6523l5.9941 6.7656v7.582a4.0004 4.0004 0 0 0 4 4h4a4.0004 4.0004 0 0 0 4-4v-7.582l5.9941-6.7656a4.0004 4.0004 0 0 0 1.0059-2.6523v-1a4.0004 4.0004 0 0 0-1.3418-2.9902l-2.25-2a4.0004 4.0004 0 0 0-2.6582-1.0098h-1.0996a4.0004 4.0004 0 0 0-3.0293 1.3867l-2.6074 3.0234-2.5742-3.0098a4.0004 4.0004 0 0 0-3.0391-1.4004zm24.439 31.666-0.02344 0.02344c4e-3 -4e-3 0.0057-0.0097 0.0098-0.01367 4e-3 -4e-3 0.0097-0.0057 0.01367-0.0098z" color="#000000" style="-inkscape-stroke:none;paint-order:stroke markers fill"/>
<path d="m56 32c0 6.6667-2.35 12.317-7.05 16.95-4.6333 4.7-10.283 7.05-16.95 7.05-6.6333 0-12.3-2.35-17-7.05-4.6667-4.6333-7-10.283-7-16.95 0-6.6333 2.3333-12.3 7-17 4.7-4.6667 10.367-7 17-7 6.6667 0 12.317 2.3333 16.95 7 4.7 4.7 7.05 10.367 7.05 17m-24-21c-5.8 0-10.75 2.05-14.85 6.15s-6.15 9.05-6.15 14.85c0 5.8333 2.05 10.783 6.15 14.85 4.1 4.1 9.05 6.15 14.85 6.15 5.8333 0 10.783-2.05 14.85-6.15 4.1-4.0667 6.15-9.0167 6.15-14.85 0-5.8-2.05-10.75-6.15-14.85-4.0667-4.1-9.0167-6.15-14.85-6.15zm-9 13 2.25-2h1.15l5.6 6.55 5.65-6.55h1.1l2.25 2v1l-7 7.9v9.1h-4v-9.1l-7-7.9z" color="#000000" fill="#fff" stroke-width="8" style="-inkscape-stroke:none;paint-order:stroke markers fill"/>
</g>
</svg>
