<?xml version="1.0" encoding="UTF-8"?>
<svg viewBox="0 0 64 64" xmlns="http://www.w3.org/2000/svg">
<path d="m56 32q0 10-7.05 16.95-6.95 7.05-16.95 7.05-9.95 0-17-7.05-7-6.95-7-16.95 0-9.95 7-17 7.05-7 17-7 10 0 16.95 7 7.05 7.05 7.05 17m-19-4q0 0.85-0.55 1.4h-0.05q-0.6 0.6-1.4 0.6h-6v-4h6q0.8 0 1.35 0.55l0.1 0.1q0.55 0.55 0.55 1.35m4 8q0-2.3-1.5-4 1.5-1.7 1.5-4 0-2.45-1.75-4.2l-0.05-0.05q-1.75-1.75-4.2-1.75h-10v20h10q2.45 0 4.2-1.75l0.05-0.05q1.75-1.75 1.75-4.2m-4 0q0 0.8-0.55 1.35l-0.1 0.1q-0.55 0.55-1.35 0.55h-6v-4h6q0.8 0 1.4 0.6h0.05q0.55 0.55 0.55 1.4" fill="#fff"/>
</svg>
