<?xml version="1.0" encoding="UTF-8"?>
<svg viewBox="0 0 64 64" xmlns="http://www.w3.org/2000/svg">
<path d="m40 39q1.6 0 2.8-1.2 1.2-1.15 1.2-2.8 0-1.4-0.9-2.5 0.9-1.05 0.9-2.5 0-1.6-1.2-2.8t-2.8-1.2h-7v13h7m0-8h-4v-2h4q0.45 0 0.7 0.3l0.3 0.7-0.3 0.7q-0.25 0.3-0.7 0.3m-24-15h24q6.6 0 11.3 4.7t4.7 11.3v8q0 8-8 8h-32q-8 0-8-8v-16q0-8 8-8m24 20h-4v-2h4q0.45 0 0.7 0.3l0.3 0.7-0.3 0.7q-0.25 0.3-0.7 0.3m-15 0 1-0.1v0.1l1 3h3l-1.5-4.5q1.5-1.45 1.5-3.5t-1.5-3.55q-1.45-1.45-3.5-1.45h-6v13h3v-3h3m-3-3v-4h3q0.85 0 1.4 0.55 0.6 0.6 0.6 1.45t-0.6 1.4q-0.55 0.6-1.35 0.6h-3.05" fill="#fff"/>
</svg>
