<svg width="100px" height="100px" preserveAspectRatio="none" version="1.1" viewBox="0 0 100 100" xmlns="http://www.w3.org/2000/svg">
 <g>
  <path d="m79.6 66.65-6.85 7.35v-7.35h-3.9v17.7h3.9v-8.4l7.2 8.4h5.45l-8.55-9.45 7.85-8.25h-5.1m-17.85 3.55q0.8 0.35 1.4 1.05l3-2.45q-0.6-0.7-1.3-1.2-0.75-0.5-1.55-0.85-0.75-0.25-1.55-0.4-0.85-0.15-1.6-0.15-2.05 0-3.8 0.65t-3.05 1.85q-1.25 1.2-2 2.95-0.7 1.75-0.7 3.85t0.7 3.85q0.75 1.75 2 2.95 1.3 1.2 3.05 1.85t3.8 0.65q1.85 0 3.55-0.75 1.75-0.75 2.85-2.3l-3.25-2.45q-0.6 0.9-1.5 1.4-0.95 0.5-2.15 0.5-1.05 0-1.95-0.45-0.9-0.4-1.6-1.15-0.65-0.8-1.05-1.8-0.4-1.05-0.4-2.3 0-1.2 0.4-2.25t1.05-1.85q0.7-0.75 1.65-1.15 0.95-0.45 2.05-0.45t1.95 0.4m-30.55 14.15h4.25l1.5-3.75h6.85l1.55 3.75h4.4l-7.7-17.7h-3.2l-7.65 17.7m6.95-7.05 2.2-5.5 2.15 5.5h-4.35m-10.35-9.85q-0.9-0.45-2.1-0.65-1.15-0.15-2.3-0.15h-6.6v17.7h7.25q1.15 0 2.35-0.25t2.15-0.8q0.95-0.6 1.55-1.55t0.6-2.3q0-0.85-0.3-1.6-0.25-0.8-0.8-1.35-0.5-0.55-1.2-0.9t-1.55-0.5v-0.05q1.35-0.4 2.2-1.4 0.8-1 0.8-2.5 0-1.45-0.55-2.35-0.6-0.85-1.5-1.35m-7.1 6.3v-3.8h2.65q0.45 0 0.95 0.1 0.45 0.05 0.8 0.25 0.4 0.2 0.65 0.6 0.2 0.35 0.2 0.9t-0.2 0.9q-0.2 0.4-0.55 0.6-0.35 0.25-0.8 0.35t-0.9 0.1h-2.8m6.1 5.25q0 0.55-0.25 0.95t-0.6 0.65q-0.4 0.25-0.85 0.35t-0.9 0.1h-3.5v-4h2.95q0.45 0 1 0.05t1.05 0.3q0.45 0.2 0.75 0.55 0.35 0.4 0.35 1.05z" fill="#fff"/>
  <path d="m59.05 19.35q-17.9 0-18 0-8.8 0-15.05 5.7-6.2 5.7-6.2 13.75t6.2 13.75q6.25 5.7 15.05 5.7 0.05 0 18 0 8.7-0.05 14.9-5.7 6.25-5.7 6.25-13.75t-6.25-13.75q-6.2-5.65-14.9-5.7m-0.05 7.5h0.05q5.75 0 9.85 3.75 3.75 3.4 3.8 8.2-0.05 4.8-3.8 8.2-4.1 3.75-9.85 3.75h-0.05q-17.9 0-17.95 0-5.85 0.05-10-3.7v-0.05q-3.7-3.4-3.75-8.2 0.05-4.8 3.75-8.2 4.15-3.8 10-3.75 0.1 0 17.95 0z" fill="#d7d7d7"/>
  <path d="m59.05 26.85h-18c-3.9-0.03333-7.2333 1.2167-10 3.75-2.4667 2.2667-3.7167 5-3.75 8.2 0.03333 3.2 1.2833 5.9333 3.75 8.2v0.05c2.7667 2.5 6.1 3.7333 10 3.7h18c3.8333 0 7.1167-1.25 9.85-3.75 2.5-2.2667 3.7667-5 3.8-8.2-0.03333-3.2-1.3-5.9333-3.8-8.2-2.7333-2.5-6.0167-3.75-9.85-3.75" fill="#f5f5f5"/>
  <path d="m56.75 46.45v-15.2l-17.2 7.6z" fill="#9a9a9a"/>
 </g>
 <path d="m59.05 19.35q-17.9 0-18 0-8.8 0-15.05 5.7-6.2 5.7-6.2 13.75t6.2 13.75q6.25 5.7 15.05 5.7 0.05 0 18 0 8.7-0.05 14.9-5.7 6.25-5.7 6.25-13.75t-6.25-13.75q-6.2-5.65-14.9-5.7z" fill="none" stroke="#404040" stroke-linecap="round" stroke-linejoin="round" stroke-width="5.0003"/>
 <path d="m59.05 26.85h-0.05q-17.85 0-17.95 0-5.85-0.05-10 3.75-3.7 3.4-3.75 8.2 0.05 4.8 3.75 8.2v0.05q4.15 3.75 10 3.7 0.05 0 17.95 0h0.05q5.75 0 9.85-3.75 3.75-3.4 3.8-8.2-0.05-4.8-3.8-8.2-4.1-3.75-9.85-3.75z" fill="none" stroke="#fff" stroke-linecap="round" stroke-linejoin="round" stroke-width="4"/>
</svg>
