<svg width="100px" height="100px" preserveAspectRatio="none" version="1.1" viewBox="0 0 100 100" xmlns="http://www.w3.org/2000/svg">
 <g transform="matrix(-1 0 0 1 100.06 0)">
  <g>
   <ellipse cx="50" cy="50" rx="42.915" ry="42.375" fill="#4d4d4d" stroke-width="5.0003" style="paint-order:markers fill stroke"/>
   <g>
    <path d="m62.75 90.35q9.5281-2.9281 17.1-10.5 7.6145-7.6145 10.5-17.2l-22.95 4.6-4.65 23.1m13.9-13.7q-3.6154 3.6617-7.75 6.1l2.3-11.7 11.6-2.3q-2.4314 4.2318-6.15 7.9m-43.75-9.35-23.3-4.65q2.9312 9.5812 10.55 17.2 7.657 7.657 17.3 10.55l-4.55-23.1m-1.55 15.6q-4.2664-2.4674-8.05-6.25-3.6768-3.6773-6.15-7.9l11.9 2.35 2.3 11.8m6.1-73.3q1.2465-0.36211 2.45-0.7-11.12 2.6203-19.75 11.25-7.6189 7.6189-10.55 17.2l23.3-4.6 4.55-23.15m-14.15 13.7q3.7859-3.7334 8.05-6.2l-2.3 11.8-11.9 2.35q2.465-4.2145 6.15-7.95m56.55-3.15q-7.5764-7.5764-17.1-10.5l4.65 23.1 22.95 4.55q-2.8855-9.5355-10.5-17.15m-11-2.95q4.1684 2.4729 7.8 6.1 3.7174 3.717 6.15 7.9l-11.6-2.3z" fill="#353535"/>
    <path d="m62.75 9.65v-0.05q-5.4777-1.7502-11.2-1.9-3.6016-0.10684-7.3 0.4l-4.35 0.8q-1.2035 0.33789-2.45 0.7l-4.55 23.15-23.3 4.6q-3.85 13.2 0 25.3l23.3 4.65 4.55 23.1v0.05q13.25 3.85 25.3 0v-0.1l4.65-23.1-5.45-6.3q-0.20098 0.1959-0.4 0.4-2 1.95-2.55 4.75l-3.65 18.2q-5.1 0.75-10.4-0.05l-3.6-18.1q-0.55-2.75-2.55-4.7-1.95-2.05-4.7-2.55l-18.3-3.65q-0.75-5.1 0.05-10.45l18.2-3.6q2.8-0.5 4.75-2.5 2-2 2.55-4.75l3.6-18.1q3.3398-0.5041 6.6-0.4 1.9137 0.07266 3.8 0.35l3.65 18.2q0.55 2.7 2.55 4.7 0.36172 0.37109 0.75 0.7l5.1-6.65-4.65-23.1m21.55 45.6q0.38848-2.6414 0.35-5.35-0.01426-2.5209-0.4-5.1l-17.95-3.6q-2.2805-0.40723-4-1.8-0.38828-0.32891-0.75-0.7-2-2-2.55-4.7l-3.65-18.2q-1.8863-0.27734-3.8-0.35-3.2602-0.1041-6.6 0.4l-3.6 18.1q-0.55 2.75-2.55 4.75-1.95 2-4.75 2.5l-18.2 3.6q-0.8 5.35-0.05 10.45l18.3 3.65q2.75 0.5 4.7 2.55 2 1.95 2.55 4.7l3.6 18.1q5.3 0.8 10.4 0.05l3.65-18.2q0.55-2.8 2.55-4.75 0.19902-0.2041 0.4-0.4 1.8357-1.651 4.35-2.1l18-3.6m-0.95-5.35q0.06035 2.6016-0.3 5.15l-17.35 3.45q-2.1221 0.39297-3.75 1.65-0.44336 0.34336-0.85 0.75-1.9 1.9-2.45 4.6l-3.5 17.55q-4.95 0.7-10.05-0.05l-3.45-17.45q-0.55-2.65-2.45-4.55-1.9-1.95-4.55-2.45l-17.65-3.5q-0.7-4.95 0.05-10.1l17.55-3.45q2.7-0.5 4.6-2.4 1.9-1.95 2.45-4.6l3.45-17.45q3.2557-0.47871 6.45-0.4 1.8098 0.09688 3.6 0.35l3.5 17.55q0.55 2.6 2.45 4.55 0.40684 0.40684 0.85 0.75 1.6283 1.257 3.75 1.65l17.3 3.45q0.36387 2.4986 0.35 4.95z" fill="#6e6e6e"/>
    <path d="m55.15 17q-1.7902-0.25312-3.6-0.35-3.1943-0.07871-6.45 0.4l-3.45 17.45q-0.55 2.65-2.45 4.6-1.9 1.9-4.6 2.4l-17.55 3.45q-0.75 5.15-0.05 10.1l17.65 3.5q2.65 0.5 4.55 2.45 1.9 1.9 2.45 4.55l3.45 17.45q5.1 0.75 10.05 0.05l3.5-17.55q0.55-2.7 2.45-4.6 0.40664-0.40664 0.85-0.75-3.5629-5.0955-3.5-10.25 0.04551-4.9973 3.5-10.05-0.44316-0.34316-0.85-0.75-1.9-1.95-2.45-4.55z" fill="#888"/>
    <path d="m83.05 55.05q0.36035-2.5484 0.3-5.15 0.01387-2.4514-0.35-4.95l-17.3-3.45q-2.1217-0.39297-3.75-1.65-3.4545 5.0527-3.5 10.05-0.06289 5.1545 3.5 10.25 1.6279-1.257 3.75-1.65z" fill="#f5f5f5"/>
    <path d="m90.45 37.35-0.1-0.05-22.95-4.55-5.1 6.65q1.7195 1.3928 4 1.8l17.95 3.6q0.38574 2.5791 0.4 5.1 0.03848 2.7086-0.35 5.35l-18 3.6q-2.5143 0.44902-4.35 2.1l5.45 6.3 22.95-4.6h0.1q1.982-6.2291 1.9-12.75-0.03203-6.1453-1.9-12.55z" fill="#d7d7d7"/>
   </g>
   <g fill="none" stroke-linejoin="round" stroke-width="4">
    <g stroke-linecap="round">
     <path d="m90.375 37.325 0.075 0.025m0 25.3-0.075 0.025q-2.9105 9.5605-10.525 17.175-7.5719 7.5719-17.075 10.5l-0.025 0.1q-12.05 3.85-25.3 0v-0.025q-9.643-2.918-17.3-10.575-7.6188-7.6188-10.525-17.2h-0.025q-3.85-12.1 0-25.3h0.025q2.9061-9.5811 10.525-17.2 8.6297-8.6297 19.775-11.225l4.325-0.8q3.6984-0.53184 7.3-0.425 5.7223 0.1498 11.2 1.9v0.05q9.5236 2.9236 17.1 10.5 7.6145 7.6145 10.525 17.175m-22.975-4.575-4.65-23.1m-53.125 27.7 23.275-4.6 4.55-23.15q1.2465-0.36211 2.475-0.675m-2.475 81.5-4.55-23.125-23.275-4.65m57.775 4.6-4.625 23.1" stroke="#1f1f1f"/>
     <path d="m61.95 60.95q-0.20098 0.1959-0.4 0.4-2 1.95-2.55 4.75l-3.65 18.2q-5.1 0.75-10.4-0.05l-3.6-18.1q-0.55-2.75-2.55-4.7-1.95-2.05-4.7-2.55l-18.3-3.65q-0.75-5.1 0.05-10.45l18.2-3.6q2.8-0.5 4.75-2.5 2-2 2.55-4.75l3.6-18.1q3.3398-0.5041 6.6-0.4 1.9137 0.07266 3.8 0.35l3.65 18.2q0.55 2.7 2.55 4.7 0.36172 0.37109 0.75 0.7" stroke="#a0a0a0"/>
     <path d="m66.3 41.2 17.95 3.6q0.38574 2.5791 0.4 5.1 0.03848 2.7086-0.35 5.35l-18 3.6" stroke="#fff"/>
     <path d="m90.45 37.35q1.868 6.4047 1.925 12.55 0.05703 6.5209-1.925 12.75m-0.075-25.325-22.975-4.575m0 34.5 22.975-4.575" stroke="#404040"/>
    </g>
    <path d="m62.3 39.4q1.7195 1.3928 4 1.8m0 17.65q-2.5143 0.44902-4.35 2.1" stroke="#fff"/>
   </g>
  </g>
 </g>
</svg>
