<?xml version="1.0" encoding="UTF-8"?>
<svg preserveAspectRatio="none" version="1.1" viewBox="0 0 100 100" xmlns="http://www.w3.org/2000/svg">
<path d="m90.4 67.4v-36.2q-0.7-11.2-13.15-9.6-12.35 1.55-38.05 6.1-25.6 4.6-26.1 28.25v16.4q0.9 5.65 6.25 6.25h58.6q12.15-0.5 12.45-11.2m-35.4-33.75q7.8-0.4 8.2 6.65v26.05q-0.15 4.85-5.6 4.8h-36.95l-0.1-17.15q1.2-12.35 14.25-16.4 13.05-4.15 20.2-3.95z" fill="#D7D7D7"/>
<path d="m63.2 40.3c-0.26667-4.7-3-6.9167-8.2-6.65-4.7667-0.13333-11.5 1.1833-20.2 3.95-8.7 2.7-13.45 8.1667-14.25 16.4l0.1 17.15h36.95c3.6333 0.03333 5.5-1.5667 5.6-4.8v-26.05" fill="#f5f5f5"/>
<path d="m53.8 51.65q-0.55-0.8-1.45-1.25-0.8-0.45-1.9-0.6t-2.15-0.15h-6.05v16.3h6.7q1.05 0 2.1-0.2 1.15-0.2 2-0.75 0.9-0.5 1.45-1.4 0.6-0.85 0.6-2.15 0-0.8-0.3-1.45-0.25-0.75-0.75-1.25-0.45-0.5-1.1-0.9-0.65-0.25-1.45-0.45v-0.05q1.25-0.35 2-1.25t0.75-2.35q0-1.3-0.45-2.1m-2.65 8.45q0.35 0.35 0.35 0.9t-0.3 0.95q-0.2 0.35-0.5 0.6-0.35 0.2-0.8 0.3-0.4 0.05-0.85 0.05h-3.2v-3.7h2.7q0.45 0 0.95 0.05 0.5 0.15 0.95 0.3t0.7 0.55m-5.3-7.4h2.45q0.4 0 0.85 0.1 0.45 0.05 0.75 0.2 0.35 0.25 0.6 0.55 0.2 0.35 0.2 0.8 0 0.5-0.2 0.9-0.2 0.3-0.55 0.55-0.3 0.2-0.7 0.25-0.4 0.1-0.8 0.1h-2.6v-3.45m-12.5 10v-13h-3.55v16.25h10.2v-3.25h-6.65z" fill="#999"/>
<path d="m55 33.65q7.8-0.4 8.2 6.65v26.05q-0.15 4.85-5.6 4.8h-36.95l-0.1-17.15q1.2-12.35 14.25-16.4 13.05-4.15 20.2-3.95z" fill="none" stroke="#fff" stroke-linecap="round" stroke-linejoin="round" stroke-width="4"/>
<path d="m90.4 67.4v-36.2q-0.7-11.2-13.15-9.6-12.35 1.55-38.05 6.1-25.6 4.6-26.1 28.25v16.4q0.9 5.65 6.25 6.25h58.6q12.15-0.5 12.45-11.2z" fill="none" stroke="#404040" stroke-linecap="round" stroke-linejoin="round" stroke-width="5"/>
</svg>
