<svg width="100px" height="100px" preserveAspectRatio="none" version="1.1" viewBox="0 0 100 100" xmlns="http://www.w3.org/2000/svg">
 <g>
  <path d="m79.85 20.15q-12.35-12.35-29.85-12.35t-29.85 12.35q-0.58887 0.58887-1.15 1.2-11.2 11.984-11.2 28.65t11.2 28.65q0.56113 0.61113 1.15 1.2 12.35 12.35 29.85 12.35t29.85-12.35 12.35-29.85-12.35-29.85m-29.85-2.7q13.55 0 23.05 9.55 9.55 9.5 9.55 23 0 13.55-9.55 23.05-9.5 9.55-23.05 9.55-13.5 0-23-9.55-5.7025-5.6727-8-12.8-1.55-4.791-1.55-10.25 0-5.4389 1.55-10.25 2.2975-7.0773 8-12.75 9.5-9.55 23-9.55z" fill="#272727"/>
  <path d="m73.05 27c-6.3333-6.3667-14.017-9.55-23.05-9.55-9 0-16.667 3.1833-23 9.55-3.8017 3.7818-6.4684 8.0318-8 12.75-1.0333 3.2074-1.55 6.6241-1.55 10.25 0 3.6393 0.51667 7.056 1.55 10.25 1.5316 4.7516 4.1983 9.0182 8 12.8 6.3333 6.3667 14 9.55 23 9.55 9.0333 0 16.717-3.1833 23.05-9.55 6.3667-6.3333 9.55-14.017 9.55-23.05 0-9-3.1833-16.667-9.55-23" fill="#4e4e4e"/>
  <path d="m53.1 73.2q0-1.3-0.9-2.2t-2.2-0.9-2.2 0.9-0.9 2.2 0.9 2.2 2.2 0.9 2.2-0.9 0.9-2.2m-24.05-25.4q-0.9-0.9-2.2-0.9t-2.2 0.9-0.9 2.2 0.9 2.2 2.2 0.9 2.2-0.9 0.9-2.2-0.9-2.2m46.35 0q-0.9-0.9-2.2-0.9t-2.2 0.9-0.9 2.2 0.9 2.2 2.2 0.9 2.2-0.9 0.9-2.2-0.9-2.2m-23.2-23.15q-0.9-0.9-2.2-0.9t-2.2 0.9-0.9 2.2 0.9 2.2 2.2 0.9 2.2-0.9 0.9-2.2-0.9-2.2z" fill="#606060"/>
  <path d="m49 37.7h-5.45v24.8h15.55v-5.05h-10.1v-19.75z" fill="#8C8C8C"/>
 </g>
 <path d="m50 7.8q17.5 0 29.85 12.35t12.35 29.85-12.35 29.85-29.85 12.35-29.85-12.35q-0.58887-0.58887-1.15-1.2-11.2-11.984-11.2-28.65t11.2-28.65q0.56113-0.61113 1.15-1.2 12.35-12.35 29.85-12.35z" fill="none" stroke="#151515" stroke-linecap="round" stroke-linejoin="round" stroke-width="4"/>
 <path d="m50 17.45q13.55 0 23.05 9.55 9.55 9.5 9.55 23 0 13.55-9.55 23.05-9.5 9.55-23.05 9.55-13.5 0-23-9.55-5.7025-5.6727-8-12.8-1.55-4.791-1.55-10.25 0-5.4389 1.55-10.225 2.2975-7.1023 8-12.775 9.5-9.55 23-9.55z" fill="none" stroke="#606060" stroke-linecap="round" stroke-linejoin="round" stroke-width="4"/>
</svg>
