<svg width="100px" height="100px" preserveAspectRatio="none" version="1.1" viewBox="0 0 100 100" xmlns="http://www.w3.org/2000/svg">
 <g>
  <path d="m84.25 37.15v-6.4q-0.9-16.4-17.95-18.45h-43.25q-7.8615 2.351-6.95 14 3.55 21.25 0 44.3-1.2 6.85 3.9 13.85 5.1 4.7 13.15 5.95 10.402 1.6355 18.6-1.75 8.1-3.65 11.55-12.05 0.45-1.05 0.95-2.1 5.073-9.6508 11.25-13.4 6.2189-3.7029 7.2-8.05 0.016992-0.075 0-0.15 1.05-4 1.35-8.2 0.3-3.65 0.2-7.55m-23.65 2.7q-0.4 3.35-1.05 6.7t-1.5 6.65q-1.15 4.55-2.9 9-1.75 4.35-4.25 8.35-1.75 2.8-3.65 5.5-1.5 2.15-3.15 4.15-1.65 1.95-4.15 2.65-2.2 0.75-4.5 0.9-4.5 0.3-8.4-2.05-4.6-2.75-4.5-8.05 0.1-3.4 0.6-6.75 0.5-3.6 0.8-7.2 0.3-3.8 0.45-7.6 0.15-4 0.1-8 0-2.55-0.25-5.05-0.45-4.9-1.05-9.8-0.35-2.8-0.65-5.65-0.2-1.6 0.75-3.05 0.75-1.05 3.2-1.85h29.9q3.9453 0.92188 4.65 2.7 0.70352 1.7836 0.45 4.6-0.20117 2.8055-0.35 7-0.1 3.4-0.55 6.85z" fill="#D7D7D7"/>
  <path d="m59.55 46.55c0.43333-2.2333 0.78333-4.4667 1.05-6.7 0.3-2.3 0.48333-4.5833 0.55-6.85 0.09922-2.7964 0.21588-5.1297 0.35-7 0.16901-1.8776 0.01901-3.4109-0.45-4.6-0.46979-1.1854-2.0198-2.0854-4.65-2.7h-29.9c-1.6333 0.53333-2.7 1.15-3.2 1.85-0.63333 0.96667-0.88333 1.9833-0.75 3.05 0.2 1.9 0.41667 3.7833 0.65 5.65 0.4 3.2667 0.75 6.5333 1.05 9.8 0.16667 1.6667 0.25 3.35 0.25 5.05 0.03333 2.6667 0 5.3333-0.1 8-0.1 2.5333-0.25 5.0667-0.45 7.6-0.2 2.4-0.46667 4.8-0.8 7.2-0.33333 2.2333-0.53333 4.4833-0.6 6.75-0.06667 3.5333 1.4333 6.2167 4.5 8.05 2.6 1.5667 5.4 2.25 8.4 2.05 1.5333-0.1 3.0333-0.4 4.5-0.9 1.6667-0.46667 3.05-1.35 4.15-2.65 1.1-1.3333 2.15-2.7167 3.15-4.15 1.2667-1.8 2.4833-3.6333 3.65-5.5 1.6667-2.6667 3.0833-5.45 4.25-8.35 1.1667-2.9667 2.1333-5.9667 2.9-9 0.56667-2.2 1.0667-4.4167 1.5-6.65" fill="#f5f5f5"/>
  <path d="m41.6 40.35v-3h-6.1v-11.85h-3.25v14.85h9.35m12.25-11.95v-2.9h-11.75v2.9h4.25v11.95h3.25v-11.95h4.25z" fill="#999"/>
 </g>
 <path d="m56.4 18.7q3.9453 0.92188 4.65 2.7 0.70352 1.7836 0.475 4.6-0.22617 2.8055-0.375 7-0.1 3.4-0.55 6.85-0.4 3.35-1.05 6.7t-1.5 6.65q-1.15 4.55-2.9 9-1.75 4.35-4.25 8.35-1.75 2.8-3.65 5.5-1.5 2.15-3.15 4.15-1.65 1.95-4.15 2.65-2.2 0.75-4.5 0.9-4.5 0.3-8.4-2.05-4.6-2.75-4.5-8.05 0.1-3.4 0.6-6.75 0.5-3.6 0.8-7.2 0.3-3.8 0.45-7.6 0.15-4 0.1-8 0-2.55-0.25-5.05-0.45-4.9-1.05-9.8-0.35-2.8-0.65-5.65-0.2-1.6 0.75-3.05 0.75-1.05 3.2-1.85h29.9z" fill="none" stroke="#fff" stroke-linecap="round" stroke-linejoin="round" stroke-width="4"/>
 <path d="m51.75 88.675q8.1-3.675 11.55-12.075 0.45-1.05 0.95-2.1 5.073-9.6508 11.275-13.375 6.1939-3.7279 7.175-8.075 0.016992-0.075 0.025-0.15 1.025-4 1.325-8.2 0.3-3.65 0.2-7.55v-6.4q-0.9-16.4-17.95-18.45h-43.25q-7.8615 2.351-6.95 14 3.55 21.25 0 44.3-1.2 6.85 3.9 13.85 5.1 4.7 13.15 5.95 10.402 1.6355 18.6-1.725z" fill="none" stroke="#404040" stroke-linecap="round" stroke-linejoin="round" stroke-width="5"/>
</svg>
