<svg width="100px" height="100px" preserveAspectRatio="none" version="1.1" viewBox="0 0 100 100" xmlns="http://www.w3.org/2000/svg">
 <g>
  <path d="m84 70.6q-3.55-23.05 0-44.3 0.9-11.65-6.95-14h-43.25q-17.05 2.05-17.95 18.45v6.4q-0.1 3.9 0.2 7.55 0.3 4.2 1.3 8.2 0.05 0.1 0.05 0.15 1 4.35 7.15 8.1 6.25 3.7 11.3 13.35 0.5 1.05 0.95 2.1 3.45 8.4 11.55 12.1 8.2 3.35 18.6 1.7 8.05-1.25 13.15-5.95 5.1-7 3.9-13.85m-7.2-50.05q0.95 1.45 0.75 3.05-0.3 2.85-0.65 5.65-0.6 4.9-1.05 9.8-0.25 2.5-0.25 5.05-0.05 4 0.1 8 0.15 3.8 0.45 7.6 0.3 3.6 0.8 7.2 0.5 3.35 0.6 6.75 0.1 5.3-4.5 8.05-3.9 2.35-8.4 2.05-2.3-0.15-4.5-0.9-2.5-0.7-4.15-2.65-1.65-2-3.15-4.15-1.9-2.7-3.65-5.5-2.5-4-4.25-8.35-1.75-4.45-2.9-9-0.85-3.3-1.5-6.65t-1.05-6.7q-0.45-3.45-0.55-6.85-0.15-4.2-0.4-7-0.2-2.8 0.5-4.6t4.65-2.7h29.9q2.45 0.8 3.2 1.85z" fill="#D7D7D7"/>
  <path d="m77.55 23.6c0.13333-1.0667-0.11667-2.0833-0.75-3.05-0.5-0.7-1.5667-1.3167-3.2-1.85h-29.9c-2.6333 0.6-4.1833 1.5-4.65 2.7s-0.63333 2.7333-0.5 4.6c0.16667 1.8667 0.3 4.2 0.4 7 0.06667 2.2667 0.25 4.55 0.55 6.85 0.26667 2.2333 0.61667 4.4667 1.05 6.7s0.93333 4.45 1.5 6.65c0.76667 3.0333 1.7333 6.0333 2.9 9 1.1667 2.9 2.5833 5.6833 4.25 8.35 1.1667 1.8667 2.3833 3.7 3.65 5.5 1 1.4333 2.05 2.8167 3.15 4.15 1.1 1.3 2.4833 2.1833 4.15 2.65 1.4667 0.5 2.9667 0.8 4.5 0.9 3 0.2 5.8-0.48333 8.4-2.05 3.0667-1.8333 4.5667-4.5167 4.5-8.05-0.06667-2.2667-0.26667-4.5167-0.6-6.75-0.33333-2.4-0.6-4.8-0.8-7.2-0.2-2.5333-0.35-5.0667-0.45-7.6-0.1-2.6667-0.13333-5.3333-0.1-8 0-1.7 0.08333-3.3833 0.25-5.05 0.3-3.2667 0.65-6.5333 1.05-9.8 0.23333-1.8667 0.45-3.75 0.65-5.65" fill="#f5f5f5"/>
  <path d="m59.1 25.5v2.9h4.25v11.95h3.25v-11.95h4.25v-2.9h-11.75m-0.5 4.5q0-1.3-0.45-2.2-0.45-0.85-1.2-1.35-0.75-0.55-1.8-0.75-1-0.2-2.15-0.2h-5.75v14.85h3.3v-5.95h1.6l3.1 5.95h3.95l-3.8-6.3q1.6-0.25 2.4-1.4 0.8-1.1 0.8-2.65m-5.9-1.75q0.4 0 0.9 0.05 0.45 0.05 0.8 0.25t0.6 0.5q0.2 0.35 0.2 0.9 0 0.65-0.25 0.95-0.25 0.35-0.65 0.5t-0.9 0.2-0.95 0.05h-1.9v-3.4h2.15z" fill="#999"/>
 </g>
 <path d="m43.7 18.7q-3.95 0.9-4.65 2.7t-0.5 4.6q0.25 2.8 0.4 7 0.1 3.4 0.55 6.85 0.4 3.35 1.05 6.7t1.5 6.65q1.15 4.55 2.9 9 1.75 4.35 4.25 8.35 1.75 2.8 3.65 5.5 1.5 2.15 3.15 4.15 1.65 1.95 4.15 2.65 2.2 0.75 4.5 0.9 4.5 0.3 8.4-2.05 4.6-2.75 4.5-8.05-0.1-3.4-0.6-6.75-0.5-3.6-0.8-7.2-0.3-3.8-0.45-7.6-0.15-4-0.1-8 0-2.55 0.25-5.05 0.45-4.9 1.05-9.8 0.35-2.8 0.65-5.65 0.2-1.6-0.75-3.05-0.75-1.05-3.2-1.85h-29.9z" fill="none" stroke="#fff" stroke-linecap="round" stroke-linejoin="round" stroke-width="4"/>
 <path d="m84 26.3q-3.55 21.25 0 44.3 1.2 6.85-3.9 13.85-5.1 4.7-13.15 5.95-10.4 1.65-18.6-1.7-8.1-3.7-11.55-12.1-0.45-1.05-0.95-2.1-5.05-9.65-11.3-13.35-6.15-3.75-7.15-8.1 0-0.05-0.05-0.15-1-4-1.3-8.2-0.3-3.65-0.2-7.55v-6.4q0.9-16.4 17.95-18.45h43.25q7.85 2.35 6.95 14z" fill="none" stroke="#404040" stroke-linecap="round" stroke-linejoin="round" stroke-width="5"/>
</svg>
