<svg width="100px" height="100px" preserveAspectRatio="none" version="1.1" viewBox="0 0 100 100" xmlns="http://www.w3.org/2000/svg">
 <g>
  <path d="m92.2 50q0-7.6121-2.35-14.25-3.0221-8.6221-10-15.6-12.35-12.35-29.85-12.35t-29.85 12.35-12.35 29.85 12.35 29.85 29.85 12.35q13.454 0 23.85-7.3 3.1449-2.1949 6-5.05 12.35-12.35 12.35-29.85m-19.15-23q4.0385 4.0174 6.35 8.75 3.2 6.459 3.2 14.25 0 13.55-9.55 23.05-9.5 9.55-23.05 9.55-12.659 0-21.8-8.4-0.60781-0.55469-1.2-1.15-9.55-9.5-9.55-23.05 0-13.5 9.55-23 9.5-9.55 23-9.55 13.55 0 23.05 9.55z" fill="#272727"/>
  <path d="m79.4 35.75c-1.541-3.1551-3.6577-6.0717-6.35-8.75-6.3333-6.3667-14.017-9.55-23.05-9.55-9 0-16.667 3.1833-23 9.55-6.3667 6.3333-9.55 14-9.55 23 0 9.0333 3.1833 16.717 9.55 23.05 0.39479 0.39688 0.79479 0.78021 1.2 1.15 6.0943 5.6 13.361 8.4 21.8 8.4 9.0333 0 16.717-3.1833 23.05-9.55 6.3667-6.3333 9.55-14.017 9.55-23.05 0-5.194-1.0667-9.944-3.2-14.25" fill="#4e4e4e"/>
  <path d="m47.8 71q-0.9 0.9-0.9 2.2t0.9 2.2 2.2 0.9 2.2-0.9 0.9-2.2-0.9-2.2-2.2-0.9-2.2 0.9m-18.75-23.2q-0.38789-0.38789-0.85-0.6-0.61016-0.3-1.35-0.3-1.3 0-2.2 0.9t-0.9 2.2 0.9 2.2 2.2 0.9q0.73984 0 1.35-0.3 0.46211-0.21211 0.85-0.6 0.9-0.9 0.9-2.2t-0.9-2.2m44.15-0.9q-1.3 0-2.2 0.9t-0.9 2.2 0.9 2.2 2.2 0.9 2.2-0.9 0.9-2.2-0.9-2.2-2.2-0.9m-21-22.25q-0.9-0.9-2.2-0.9t-2.2 0.9-0.9 2.2 0.9 2.2 2.2 0.9 2.2-0.9 0.9-2.2-0.9-2.2z" fill="#606060"/>
  <path d="m59.55 41.6q-0.75-1.45-2.05-2.3-1.25-0.85-2.95-1.2-1.7-0.4-3.6-0.4h-9.55v24.8h5.45v-9.9h2.65l5.2 9.9h6.55l-6.3-10.5q2.6-0.45 4-2.3 1.35-1.85 1.35-4.45 0-2.2-0.75-3.65m-9.5 6.35h-3.2v-5.6h3.55q0.75 0 1.5 0.1t1.35 0.4 1 0.85q0.35 0.55 0.35 1.5 0 1.05-0.4 1.6-0.45 0.55-1.1 0.8-0.7 0.25-1.5 0.3t-1.55 0.05z" fill="#8C8C8C"/>
 </g>
 <path d="m73.05 27q4.0385 4.0174 6.375 8.75 3.175 6.459 3.175 14.25 0 13.55-9.55 23.05-9.5 9.55-23.05 9.55-12.659 0-21.8-8.4-0.60781-0.55469-1.2-1.15-9.55-9.5-9.55-23.05 0-13.5 9.55-23 9.5-9.55 23-9.55 13.55 0 23.05 9.55z" fill="none" stroke="#606060" stroke-linecap="round" stroke-linejoin="round" stroke-width="4"/>
 <path d="m89.875 35.75q2.325 6.6379 2.325 14.25 0 17.5-12.35 29.85-2.8551 2.8551-5.975 5.05-10.421 7.3-23.875 7.3-17.5 0-29.85-12.35t-12.35-29.85 12.35-29.85 29.85-12.35 29.85 12.35q6.9779 6.9779 10.025 15.6z" fill="none" stroke="#151515" stroke-linecap="round" stroke-linejoin="round" stroke-width="4"/>
</svg>
