<?xml version="1.0" encoding="UTF-8"?>
<svg preserveAspectRatio="none" version="1.1" viewBox="0 0 100 100" xmlns="http://www.w3.org/2000/svg">
<path d="m90.4 72.35v-16.4q-0.5-23.65-26.1-28.25-25.7-4.55-38.05-6.1-12.45-1.6-13.15 9.6v36.2q0.3 10.7 12.45 11.2h58.6q5.35-0.6 6.25-6.25m-7.45-18.35-0.1 17.15h-36.95q-5.45 0.05-5.6-4.8v-26.05q0.4-7.05 8.2-6.65 7.15-0.2 20.2 3.95 13.05 4.05 14.25 16.4z" fill="#D7D7D7"/>
<path d="m82.85 71.15 0.1-17.15c-0.8-8.2333-5.55-13.7-14.25-16.4-8.7-2.7667-15.433-4.0833-20.2-3.95-5.2-0.26667-7.9333 1.95-8.2 6.65v26.05c0.1 3.2333 1.9667 4.8333 5.6 4.8h36.95" fill="#f5f5f5"/>
<path d="m60.6 52.2q-0.5-0.95-1.35-1.5-0.8-0.6-1.95-0.8-1.05-0.2-2.35-0.2h-6.25v16.15h3.6v-6.45h1.75l3.35 6.45h4.3l-4.1-6.85q1.75-0.25 2.6-1.55 0.85-1.15 0.85-2.85 0-1.45-0.45-2.4m-4.1 0.8q0.4 0.25 0.65 0.55 0.2 0.4 0.2 1 0 0.7-0.25 1-0.25 0.4-0.7 0.55-0.45 0.2-1 0.25t-1 0.05h-2.1v-3.7h2.35q0.45 0 1 0.05 0.45 0.05 0.85 0.25m17.35-2.6q-0.8-0.45-1.9-0.6t-2.15-0.15h-6.05v16.3h6.7q1.05 0 2.1-0.2 1.15-0.2 2-0.75 0.9-0.5 1.45-1.4 0.6-0.85 0.6-2.15 0-0.8-0.3-1.45-0.25-0.75-0.75-1.25-0.45-0.5-1.1-0.9-0.65-0.25-1.45-0.45v-0.05q1.25-0.35 2-1.25t0.75-2.35q0-1.3-0.45-2.1-0.55-0.8-1.45-1.25m-2.45 2.6q0.35 0.25 0.6 0.55 0.2 0.35 0.2 0.8 0 0.5-0.2 0.9-0.2 0.3-0.55 0.55-0.3 0.2-0.7 0.25-0.4 0.1-0.8 0.1h-2.6v-3.45h2.45q0.4 0 0.85 0.1 0.45 0.05 0.75 0.2m-0.4 6.25q0.5 0.15 0.95 0.3t0.7 0.55q0.35 0.35 0.35 0.9t-0.3 0.95q-0.2 0.35-0.5 0.6-0.35 0.2-0.8 0.3-0.4 0.05-0.85 0.05h-3.2v-3.7h2.7q0.45 0 0.95 0.05z" fill="#999"/>
<path d="m82.95 54-0.1 17.15h-36.95q-5.45 0.05-5.6-4.8v-26.05q0.4-7.05 8.2-6.65 7.15-0.2 20.2 3.95 13.05 4.05 14.25 16.4z" fill="none" stroke="#fff" stroke-linecap="round" stroke-linejoin="round" stroke-width="4"/>
<path d="m84.15 78.6q5.35-0.6 6.25-6.25v-16.4q-0.5-23.65-26.1-28.25-25.7-4.55-38.05-6.1-12.45-1.6-13.15 9.6v36.2q0.3 10.7 12.45 11.2h58.6z" fill="none" stroke="#404040" stroke-linecap="round" stroke-linejoin="round" stroke-width="5"/>
</svg>
