<?xml version="1.0" encoding="UTF-8"?>
<svg preserveAspectRatio="none" version="1.1" viewBox="0 0 100 100" xmlns="http://www.w3.org/2000/svg">
<path d="m49.7 66.65h-3.2l-7.65 17.7h4.25l1.5-3.75h6.85l1.55 3.75h4.4l-7.7-17.7m0.45 10.65h-4.35l2.2-5.5 2.15 5.5m18.45-10.4q-1.2-0.25-2.55-0.25h-6.85v17.7h3.9v-7.1h1.9l3.7 7.1h4.7l-4.5-7.5q1.85-0.3 2.85-1.65 0.95-1.3 0.95-3.2 0-1.55-0.5-2.55-0.55-1.05-1.45-1.65-0.9-0.65-2.15-0.9m-3.2 7.05h-2.3v-4h2.55q0.55 0 1.1 0.05 0.5 0.1 0.95 0.3 0.4 0.2 0.7 0.6 0.25 0.45 0.25 1.1 0 0.75-0.3 1.1-0.3 0.4-0.8 0.6-0.45 0.2-1.05 0.25-0.6 0-1.1 0m-38.45-7.3v3.45h5.05v14.25h3.9v-14.25h5.05v-3.45h-14m-3.95 4.3 2.7-2.9q-1.15-1-2.55-1.4-1.4-0.45-2.9-0.45-1.3 0-2.55 0.35-1.2 0.35-2.15 1.1-0.95 0.7-1.5 1.8-0.55 1.05-0.55 2.5t0.6 2.4q0.65 0.85 1.55 1.45 0.95 0.55 2 0.85 1.1 0.35 2 0.65 0.95 0.3 1.55 0.8 0.6 0.45 0.6 1.25 0 0.45-0.2 0.85-0.25 0.35-0.65 0.55-0.4 0.25-0.85 0.35-0.5 0.1-1 0.1-0.95 0-1.9-0.45-0.9-0.45-1.5-1.2l-2.75 3.05q1.25 1.15 2.75 1.7 1.45 0.5 3.2 0.5 1.35 0 2.6-0.35t2.15-1.1q0.95-0.7 1.5-1.8t0.55-2.55q0-1.55-0.6-2.5t-1.5-1.5-1.95-0.85q-1.05-0.25-2-0.6-0.9-0.25-1.5-0.7t-0.6-1.2q0-0.5 0.25-0.85 0.25-0.4 0.65-0.6t0.85-0.3 0.9-0.1q0.7 0 1.5 0.3 0.85 0.25 1.3 0.85m59.25 13.4v-14.25h5.05v-3.45h-14v3.45h5.05v14.25z" fill="#fff"/>
<path d="m58.95 19.35q-0.1 0-18 0-8.7 0.05-14.9 5.7-6.25 5.7-6.25 13.75t6.25 13.75q6.2 5.65 14.9 5.7 17.95 0 18 0 8.8 0 15.05-5.7 6.2-5.7 6.2-13.75t-6.2-13.75q-6.25-5.7-15.05-5.7m-18 7.5h0.05q17.85 0 17.95 0 5.85-0.05 10 3.75 3.7 3.4 3.75 8.2-0.05 4.8-3.75 8.2v0.05q-4.15 3.75-10 3.7-0.05 0-17.95 0h-0.05q-5.75 0-9.85-3.75-3.75-3.4-3.8-8.2 0.05-4.8 3.8-8.2 4.1-3.75 9.85-3.75z" fill="#d7d7d7"/>
<path d="m41 26.85h-0.05c-3.8333 0-7.1167 1.25-9.85 3.75-2.5 2.2667-3.7667 5-3.8 8.2 0.03333 3.2 1.3 5.9333 3.8 8.2 2.7333 2.5 6.0167 3.75 9.85 3.75h18c3.9 0.03333 7.2333-1.2 10-3.7v-0.05c2.4667-2.2667 3.7167-5 3.75-8.2-0.03333-3.2-1.2833-5.9333-3.75-8.2-2.7667-2.5333-6.1-3.7833-10-3.75h-17.95" fill="#f5f5f5"/>
<path d="m60.45 38.85-17.2-7.6v15.2z" fill="#9a9a9a"/>
<g fill="none" stroke-linecap="round" stroke-linejoin="round">
<path d="m40.95 26.85h0.05q17.85 0 17.95 0 5.85-0.05 10 3.75 3.7 3.4 3.75 8.2-0.05 4.8-3.75 8.2v0.05q-4.15 3.75-10 3.7-0.05 0-17.95 0h-0.05q-5.75 0-9.85-3.75-3.75-3.4-3.8-8.2 0.05-4.8 3.8-8.2 4.1-3.75 9.85-3.75z" stroke="#fff" stroke-width="4.1575"/>
<path d="m40.95 19.35q17.9 0 18 0 8.8 0 15.05 5.7 6.2 5.7 6.2 13.75t-6.2 13.75q-6.25 5.7-15.05 5.7-0.05 0-18 0-8.7-0.05-14.9-5.7-6.25-5.7-6.25-13.75t6.25-13.75q6.2-5.65 14.9-5.7z" stroke="#404040" stroke-width="5"/>
</g>
</svg>
