<svg width="100px" height="100px" preserveAspectRatio="none" version="1.1" viewBox="0 0 100 100" xmlns="http://www.w3.org/2000/svg">
 <defs>
  <linearGradient id="Gradient_1-6" x1="36.9" x2="24.1" y1="49.85" y2="49.85" gradientTransform="matrix(-1,0,0,1,100,0)" gradientUnits="userSpaceOnUse">
   <stop stop-color="#313131" offset="0"/>
   <stop stop-color="#D7D7D7" offset="1"/>
  </linearGradient>
  <linearGradient id="Gradient_2-0" x1="40" x2="29" y1="50.25" y2="50.25" gradientTransform="matrix(-1,0,0,1,100,0)" gradientUnits="userSpaceOnUse">
   <stop stop-color="#4F4F4F" offset="0"/>
   <stop stop-color="#F5F5F5" offset="1"/>
  </linearGradient>
  <linearGradient id="Gradient_3-4" x1="37" x2="18.2" y1="50.75" y2="50.75" gradientTransform="matrix(-1,0,0,1,100,0)" gradientUnits="userSpaceOnUse">
   <stop stop-color="#626262" offset="0"/>
   <stop stop-color="#fff" offset="1"/>
  </linearGradient>
  <linearGradient id="Gradient_4-7" x1="32.2" x2="7.5" y1="49.6" y2="49.6" gradientTransform="matrix(-1,0,0,1,100,0)" gradientUnits="userSpaceOnUse">
   <stop stop-color="#1B1B1B" offset="0"/>
   <stop stop-color="#404040" offset="1"/>
  </linearGradient>
 </defs>
 <path d="m7.2 39.95c0.2-0.23333 0.41667-0.46667 0.65-0.7 2.8667-2.8333 6.3-4.3 10.3-4.4h16.7v-16.7c0.13333-4 1.6333-7.4333 4.5-10.3l0.7-0.7c2.8-2.5 6.1333-3.75 10-3.75 3.8333 0 7.1667 1.2667 10 3.8 0.23333 0.2 0.46667 0.41667 0.7 0.65 2.8333 2.8667 4.3 6.3 4.4 10.3v16.7h16.7c4 0.13333 7.4333 1.6333 10.3 4.5l0.7 0.7c2.5 2.8 3.75 6.1333 3.75 10 0 3.8333-1.2667 7.1667-3.8 10-0.2 0.23333-0.41667 0.46667-0.65 0.7-2.8667 2.8333-6.3 4.3-10.3 4.4h-16.7v16.7c-0.13333 4-1.6333 7.4333-4.5 10.3l-0.7 0.7c-2.8 2.5-6.1333 3.75-10 3.75-3.8333 0-7.1667-1.2667-10-3.8-0.23333-0.2-0.46667-0.41667-0.7-0.65-2.8333-2.8667-4.3-6.3-4.4-10.3v-16.7h-16.7c-4-0.13333-7.4333-1.6333-10.3-4.5l-0.7-0.7c-2.5-2.8-3.75-6.1333-3.75-10 0-3.8333 1.2667-7.1667 3.8-10" fill="url(#Gradient_1-6)"/>
 <path d="m12.8 44.95q0.05-0.1 0.1-0.15 0.1-0.1 0.25-0.25 2.2-2.1 5.2-2.2h16.5q3.1 0 5.3-2.2t2.2-5.3v-16.45q0.1-3.05 2.3-5.25 0.2-0.2 0.4-0.4 2.1-1.9 5-1.85 2.9 0 5 1.9 0.1 0.05 0.15 0.1 0.1 0.1 0.25 0.2v0.05q2.1 2.15 2.2 5.15v16.55q0 3.1 2.2 5.3t5.3 2.2h16.45q3.05 0.1 5.25 2.3h0.05q0.15 0.2 0.35 0.4l0.05 0.05q1.85 2.1 1.8 4.95 0 2.9-1.85 5-0.05 0.05-0.15 0.1-0.1 0.15-0.2 0.25l-0.05 0.05q-2.2 2.15-5.2 2.2h-16.5q-3.1 0-5.3 2.2t-2.2 5.3v16.45q-0.1 3.05-2.3 5.25-0.2 0.2-0.4 0.4-2.1 1.9-5 1.85-2.9 0-5-1.9-0.1-0.05-0.1-0.1-0.15-0.1-0.25-0.25h-0.05q-2.1-2.2-2.2-5.2v-16.5q0-3.1-2.2-5.3t-5.3-2.2h-16.45q-3.05-0.1-5.25-2.3-0.2-0.2-0.4-0.4-1.9-2.1-1.85-5 0-2.9 1.9-5z" fill="url(#Gradient_2-0)"/>
 <g fill="none" stroke-linecap="round" stroke-linejoin="round">
  <path d="m18.35 42.35q-3 0.1-5.2 2.2-0.15 0.15-0.25 0.25-0.05 0.05-0.1 0.15-1.9 2.1-1.9 5-0.05 2.9 1.85 5 0.2 0.2 0.4 0.4 2.2 2.2 5.25 2.3h16.45q3.1 0 5.3 2.2t2.2 5.3v16.5q0.1 3 2.2 5.2h0.05q0.1 0.15 0.25 0.25 0 0.05 0.1 0.1 2.1 1.9 5 1.9 2.9 0.05 5-1.85 0.2-0.2 0.4-0.4 2.2-2.2 2.3-5.25v-16.45q0-3.1 2.2-5.3t5.3-2.2h16.5q3-0.05 5.2-2.2l0.05-0.05q0.1-0.1 0.2-0.25 0.1-0.05 0.15-0.1 1.85-2.1 1.85-5 0.05-2.85-1.8-4.95l-0.05-0.05q-0.2-0.2-0.35-0.4h-0.05q-2.2-2.2-5.25-2.3h-16.45q-3.1 0-5.3-2.2t-2.2-5.3v-16.55q-0.1-3-2.2-5.15v-0.05q-0.15-0.1-0.25-0.2-0.05-0.05-0.15-0.1-2.1-1.9-5-1.9-2.9-0.05-5 1.85-0.2 0.2-0.4 0.4-2.2 2.2-2.3 5.25v16.45q0 3.1-2.2 5.3t-5.3 2.2z" stroke="url(#Gradient_3-4)" stroke-width="4"/>
  <path d="m65.15 34.85v-16.7q-0.15-6-4.4-10.3-0.35-0.35-0.7-0.65-4.25-3.8-10-3.8-5.8 0-10 3.75-0.35 0.35-0.7 0.7-4.3 4.3-4.5 10.3v16.7h-16.7q-6 0.15-10.3 4.4-0.35 0.35-0.65 0.7-3.8 4.25-3.8 10 0 5.8 3.75 10 0.35 0.35 0.7 0.7 4.3 4.3 10.3 4.5h16.7v16.7q0.15 6 4.4 10.3 0.35 0.35 0.7 0.65 4.25 3.8 10 3.8 5.8 0 10-3.75 0.35-0.35 0.7-0.7 4.3-4.3 4.5-10.3v-16.7" stroke="#1b1b1b" stroke-width="5"/>
  <path d="m65.15 65.15h16.7q6-0.15 10.3-4.4 0.35-0.35 0.65-0.7 3.8-4.25 3.8-10 0-5.8-3.75-10-0.35-0.35-0.7-0.7-4.3-4.3-10.3-4.5h-16.7" stroke="url(#Gradient_4-7)" stroke-width="5"/>
 </g>
</svg>
