<svg width="100px" height="100px" preserveAspectRatio="none" version="1.1" viewBox="0 0 100 100" xmlns="http://www.w3.org/2000/svg">
 <defs>
  <linearGradient id="Gradient_1" x1="50.15" x2="50.15" y1="36.9" y2="24.1" gradientUnits="userSpaceOnUse">
   <stop stop-color="#313131" offset="0"/>
   <stop stop-color="#D7D7D7" offset="1"/>
  </linearGradient>
  <linearGradient id="Gradient_2" x1="49.75" x2="49.75" y1="40" y2="29" gradientUnits="userSpaceOnUse">
   <stop stop-color="#4F4F4F" offset="0"/>
   <stop stop-color="#F5F5F5" offset="1"/>
  </linearGradient>
  <linearGradient id="Gradient_3" x1="49.25" x2="49.25" y1="37" y2="18.2" gradientUnits="userSpaceOnUse">
   <stop stop-color="#626262" offset="0"/>
   <stop stop-color="#fff" offset="1"/>
  </linearGradient>
  <linearGradient id="Gradient_4" x1="50.4" x2="50.4" y1="32.2" y2="7.5" gradientUnits="userSpaceOnUse">
   <stop stop-color="#1B1B1B" offset="0"/>
   <stop stop-color="#404040" offset="1"/>
  </linearGradient>
 </defs>
 <g id="Stadia">
  <g>
   <path d="m92.8 39.95c-0.2-0.23333-0.41667-0.46667-0.65-0.7-2.8667-2.8333-6.3-4.3-10.3-4.4h-16.7v-16.7c-0.13333-4-1.6333-7.4333-4.5-10.3l-0.7-0.7c-2.8-2.5-6.1333-3.75-10-3.75-3.8333 0-7.1667 1.2667-10 3.8-0.23333 0.2-0.46667 0.41667-0.7 0.65-2.8333 2.8667-4.3 6.3-4.4 10.3v16.7h-16.7c-4 0.13333-7.4333 1.6333-10.3 4.5l-0.7 0.7c-2.5 2.8-3.75 6.1333-3.75 10 0 3.8333 1.2667 7.1667 3.8 10 0.2 0.23333 0.41667 0.46667 0.65 0.7 2.8667 2.8333 6.3 4.3 10.3 4.4h16.7v16.7c0.13333 4 1.6333 7.4333 4.5 10.3l0.7 0.7c2.8 2.5 6.1333 3.75 10 3.75 3.8333 0 7.1667-1.2667 10-3.8 0.23333-0.2 0.46667-0.41667 0.7-0.65 2.8333-2.8667 4.3-6.3 4.4-10.3v-16.7h16.7c4-0.13333 7.4333-1.6333 10.3-4.5l0.7-0.7c2.5-2.8 3.75-6.1333 3.75-10 0-3.8333-1.2667-7.1667-3.8-10" fill="url(#Gradient_1)"/>
   <path d="m86.85 44.55q-2.15-2.1-5.15-2.2h-16.55q-3.1 0-5.3-2.2t-2.2-5.3v-16.45q-0.1-3.05-2.3-5.25v-0.05q-0.2-0.15-0.4-0.35l-0.05-0.05q-2.1-1.85-4.95-1.8-2.9 0-5 1.85-0.05 0.05-0.1 0.15-0.15 0.1-0.25 0.2l-0.05 0.05q-2.15 2.2-2.2 5.2v16.5q0 3.1-2.2 5.3t-5.3 2.2h-16.45q-3.05 0.1-5.25 2.3-0.2 0.2-0.4 0.4-1.9 2.1-1.85 5 0 2.9 1.9 5 0.05 0.1 0.1 0.1 0.1 0.15 0.25 0.25v0.05q2.2 2.1 5.2 2.2h16.5q3.1 0 5.3 2.2t2.2 5.3v16.45q0.1 3.05 2.3 5.25 0.2 0.2 0.4 0.4 2.1 1.9 5 1.85 2.9 0 5-1.9 0.1-0.05 0.15-0.1 0.1-0.1 0.25-0.25 2.1-2.2 2.2-5.2v-16.5q0-3.1 2.2-5.3t5.3-2.2h16.45q3.05-0.1 5.25-2.3 0.2-0.2 0.4-0.4 1.9-2.1 1.85-5 0-2.9-1.9-5-0.05-0.1-0.1-0.15-0.1-0.1-0.2-0.25h-0.05z" fill="url(#Gradient_2)"/>
  </g>
  <path d="m86.9 44.55q0.1 0.15 0.2 0.25 0.05 0.05 0.1 0.15 1.9 2.1 1.9 5 0.05 2.9-1.85 5-0.2 0.2-0.4 0.4-2.2 2.2-5.25 2.3h-16.45q-3.1 0-5.3 2.2t-2.2 5.3v16.5q-0.1 3-2.2 5.2-0.15 0.15-0.25 0.25-0.05 0.05-0.15 0.1-2.1 1.9-5 1.9-2.9 0.05-5-1.85-0.2-0.2-0.4-0.4-2.2-2.2-2.3-5.25v-16.45q0-3.1-2.2-5.3t-5.3-2.2h-16.5q-3-0.1-5.2-2.2v-0.05q-0.15-0.1-0.25-0.25-0.05 0-0.1-0.1-1.9-2.1-1.9-5-0.05-2.9 1.85-5 0.2-0.2 0.4-0.4 2.2-2.2 5.25-2.3h16.45q3.1 0 5.3-2.2t2.2-5.3v-16.5q0.05-3 2.2-5.2l0.05-0.05q0.1-0.1 0.25-0.2 0.05-0.1 0.1-0.15 2.1-1.85 5-1.85 2.85-0.05 4.95 1.8l0.05 0.05q0.2 0.2 0.4 0.35v0.05q2.2 2.2 2.3 5.25v16.45q0 3.1 2.2 5.3t5.3 2.2h16.55q3 0.1 5.15 2.2h0.05z" fill="none" stroke="url(#Gradient_3)" stroke-linecap="round" stroke-linejoin="round" stroke-width="4"/>
  <path d="m65.15 34.85h16.7q6 0.15 10.3 4.4 0.35 0.35 0.65 0.7 3.8 4.25 3.8 10 0 5.8-3.75 10-0.35 0.35-0.7 0.7-4.3 4.3-10.3 4.5h-16.7v16.7q-0.15 6-4.4 10.3-0.35 0.35-0.7 0.65-4.25 3.8-10 3.8-5.8 0-10-3.75-0.35-0.35-0.7-0.7-4.3-4.3-4.5-10.3v-16.7h-16.7q-6-0.15-10.3-4.4-0.35-0.35-0.65-0.7-3.8-4.25-3.8-10 0-5.8 3.75-10 0.35-0.35 0.7-0.7 4.3-4.3 10.3-4.5h16.7" fill="none" stroke="#1B1B1B" stroke-linecap="round" stroke-linejoin="round" stroke-width="5"/>
  <path d="m34.85 34.85v-16.7q0.15-6 4.4-10.3 0.35-0.35 0.7-0.65 4.25-3.8 10-3.8 5.8 0 10 3.75 0.35 0.35 0.7 0.7 4.3 4.3 4.5 10.3v16.7" fill="none" stroke="url(#Gradient_4)" stroke-linecap="round" stroke-linejoin="round" stroke-width="5"/>
 </g>
</svg>
