<?xml version="1.0" encoding="UTF-8"?>
<svg preserveAspectRatio="none" version="1.1" viewBox="0 0 100 100" xmlns="http://www.w3.org/2000/svg">
<circle cx="50" cy="50" r="40.45" fill="#1b1b1b" style="paint-order:markers fill stroke"/>
<circle cx="50" cy="50" r="36.4" fill="#313131" style="paint-order:markers fill stroke"/>
<circle cx="50" cy="50" r="31" fill="#626262" style="paint-order:markers fill stroke"/>
<circle cx="50" cy="50" r="27" fill="#4f4f4f" style="paint-order:markers fill stroke"/>
<path d="m55.5 33.55q-2.05-0.3-4.15-0.3h-11.85v31.85h13.05q2.1 0 4.2-0.45 2.15-0.45 3.85-1.5 1.75-1 2.8-2.7 1.1-1.7 1.1-4.2 0-1.55-0.5-2.9t-1.45-2.35q-0.9-1-2.15-1.7-1.3-0.6-2.85-0.85v-0.1q2.45-0.75 3.95-2.5 1.5-1.8 1.5-4.5 0-2.6-1-4.2-1.05-1.55-2.7-2.45-1.65-0.85-3.8-1.15m-9 12.45v-6.85h4.8q0.8 0 1.65 0.2 0.85 0.15 1.5 0.5 0.7 0.35 1.15 1 0.4 0.65 0.4 1.65 0 0.95-0.35 1.65-0.4 0.65-1.05 1.05-0.6 0.45-1.4 0.6-0.8 0.2-1.6 0.2h-5.1m10.55 11.2q-0.45 0.7-1.1 1.15t-1.5 0.65q-0.85 0.15-1.65 0.15h-6.3v-7.25h5.3q0.85 0 1.85 0.15t1.85 0.5 1.4 1.05q0.6 0.7 0.6 1.85 0 1-0.45 1.75z" fill="#999"/>
</svg>
