<svg width="100px" height="100px" preserveAspectRatio="none" version="1.1" viewBox="0 0 100 100" xmlns="http://www.w3.org/2000/svg">
 <g id="Stadia">
  <g>
   <path d="m86.5 61.85v-42.15c-0.6-3.4333-3.0833-5.8333-7.45-7.2h-56.25c-2.7 2.7333-4.1833 7.4-4.45 14 2.3667 14.167 2.3667 28.933 0 44.3-0.8 4.5667 0.5 9.1833 3.9 13.85 3.4 3.1333 7.7833 5.1167 13.15 5.95 10.6 1.6667 19.483-0.55 26.65-6.65l6.55-13.6c4.8667-5.9333 10.833-8.7667 17.9-8.5" fill="#313131"/>
   <path d="m63.75 26.25c0.46667-3.3-0.7-5.75-3.5-7.35h-33.15c-1.7667 1.4-2.5833 3.3333-2.45 5.8 1.2 6.2667 1.95 12.8 2.25 19.6 0 10.9-0.85 20.75-2.55 29.55 0.13333 4.5333 3.0167 7.75 8.65 9.65 4.2333 0.93333 8.25 0.31667 12.05-1.85 3.4-3.4333 6.1-7.0667 8.1-10.9 3.2-5.4 5.6167-11.183 7.25-17.35 2.3333-8.7667 3.45-17.817 3.35-27.15" fill="#4f4f4f"/>
   <path d="m42.9 41v-3.15h-6.35v-12.45h-3.45v15.6h9.8m14.1-11.15q0-1.15-0.35-2.05-0.4-0.9-1.1-1.45-0.65-0.6-1.6-0.9-0.9-0.3-1.95-0.3-1.15 0-2.15 0.3t-1.7 0.9q-0.75 0.6-1.15 1.5-0.45 0.85-0.5 2.1l3.3 0.2q0.05-0.8 0.55-1.4 0.55-0.55 1.45-0.55 0.8 0 1.35 0.45t0.55 1.25q0 0.7-0.45 1.2-0.45 0.55-0.9 0.95l-6.05 5.45v3.5h10.85v-2.9h-6.9l4.75-4.05q0.4-0.4 0.8-0.85 0.35-0.4 0.65-0.9 0.25-0.5 0.4-1.1t0.15-1.35z" fill="#8C8C8C"/>
  </g>
  <path d="m86.5 61.85v-42.15q-0.9-5.15-7.45-7.2h-56.25q-4.05 4.1-4.45 14 3.55 21.25 0 44.3-1.2 6.85 3.9 13.85 5.1 4.7 13.15 5.95 15.9 2.5 26.65-6.65l6.55-13.6q7.3-8.9 17.9-8.5z" fill="none" stroke="#202020" stroke-linecap="round" stroke-linejoin="round" stroke-width="5"/>
  <path d="m60.25 18.9q4.2 2.4 3.5 7.35 0.15 14-3.35 27.15-2.45 9.25-7.25 17.35-3 5.75-8.1 10.9-5.7 3.25-12.05 1.85-8.45-2.85-8.65-9.65 2.55-13.2 2.55-29.55-0.45-10.2-2.25-19.6-0.2-3.7 2.45-5.8h33.15z" fill="none" stroke="#626262" stroke-linecap="round" stroke-linejoin="round" stroke-width="4"/>
 </g>
</svg>
