<?xml version="1.0" encoding="UTF-8"?>
<svg preserveAspectRatio="none" version="1.1" viewBox="0 0 100 100" xmlns="http://www.w3.org/2000/svg">
<path d="m92.15 65.8c-0.2-12.067-1.2333-24.1-3.1-36.1-26.8-0.7-53.517 0.78333-80.15 4.45-1.1667 11.867-1.05 23.967 0.35 36.3 27.667-0.86667 55.3-2.4167 82.9-4.65" fill="#313131"/>
<path d="m84.75 59.15c-0.36667-7.4667-1.0167-14.933-1.95-22.4-22.5-0.26667-44.9 1-67.2 3.8-0.46667 7.4-0.4 14.883 0.2 22.45 23-0.8 45.983-2.0833 68.95-3.85" fill="#4f4f4f"/>
<path d="m48.45 56.9-0.15-2.9-5.85 0.35-0.65-11.35-3.15 0.2 0.8 14.25 9-0.55m6.55-14.65-2.85 0.1-4.45 4.2 1.8 1.95 2.8-2.7 0.6 10.85 2.9-0.15-0.8-14.25z" fill="#8F8F8F"/>
<path d="m82.8 36.75q1.4 11.2 1.95 22.4-34.45 2.65-68.95 3.85-0.9-11.35-0.2-22.45 33.45-4.2 67.2-3.8z" fill="none" stroke="#626262" stroke-linecap="round" stroke-linejoin="round" stroke-width="4"/>
<path d="m89.05 29.7q2.8 18 3.1 36.1-41.4 3.35-82.9 4.65-2.1-18.5-0.35-36.3 39.95-5.5 80.15-4.45z" fill="none" stroke="#1B1B1B" stroke-linecap="round" stroke-linejoin="round" stroke-width="5"/>
</svg>
