<svg width="100px" height="100px" preserveAspectRatio="none" version="1.1" viewBox="0 0 100 100" xmlns="http://www.w3.org/2000/svg">
 <g id="Stadia">
  <g>
   <path d="m90.95 70.45c1.4-12.333 1.5167-24.433 0.35-36.3-26.633-3.6667-53.35-5.15-80.15-4.45-1.8667 12-2.9 24.033-3.1 36.1 27.6 2.2333 55.233 3.7833 82.9 4.65" fill="#313131"/>
   <path d="m84.4 63c0.6-7.5667 0.66667-15.05 0.2-22.45-22.3-2.8-44.7-4.0667-67.2-3.8-0.93333 7.4667-1.5833 14.933-1.95 22.4 22.967 1.7667 45.95 3.05 68.95 3.85" fill="#4f4f4f"/>
   <path d="m58.2 42.7-4.85 3.6 1.55 2.2 2.95-2.35-0.65 10.85 2.9 0.15 0.9-14.25-2.8-0.2m-9.35-0.3q-0.9-0.25-2-0.35l-5.55-0.3-0.9 14.25 3.15 0.15 0.35-5.7 1.55 0.1 2.65 5.9 3.8 0.2-3.25-6.2q1.5-0.15 2.35-1.2 0.8-1 0.9-2.55 0.1-1.25-0.25-2.1-0.4-0.85-1.1-1.4t-1.7-0.8m-4.8 5.4 0.2-3.25 2.05 0.15q0.45 0 0.9 0.1 0.4 0.1 0.75 0.3 0.35 0.15 0.55 0.5 0.2 0.4 0.15 0.9 0 0.6-0.3 0.9-0.25 0.3-0.65 0.45-0.4 0.1-0.9 0.15-0.5-0.05-0.9-0.05l-1.85-0.15z" fill="#8F8F8F"/>
  </g>
  <path d="m90.95 70.45q2.1-18.5 0.35-36.3-39.95-5.5-80.15-4.45-2.8 18-3.1 36.1 41.4 3.35 82.9 4.65z" fill="none" stroke="#1B1B1B" stroke-linecap="round" stroke-linejoin="round" stroke-width="5"/>
  <path d="m84.4 63q0.9-11.35 0.2-22.45-33.45-4.2-67.2-3.8-1.4 11.2-1.95 22.4 34.45 2.65 68.95 3.85z" fill="none" stroke="#626262" stroke-linecap="round" stroke-linejoin="round" stroke-width="4"/>
 </g>
</svg>
