<?xml version="1.0" encoding="UTF-8"?>
<svg preserveAspectRatio="none" version="1.1" viewBox="0 0 100 100" xmlns="http://www.w3.org/2000/svg">
<defs>
<linearGradient id="d" x1="49.1" x2="49.1" y1="73.638" y2="63.362" gradientUnits="userSpaceOnUse">
<stop stop-color="#D7D7D7" offset="0"/>
<stop stop-color="#313131" offset="1"/>
</linearGradient>
<linearGradient id="c" x1="51.1" x2="51.1" y1="56.9" y2="71.5" gradientUnits="userSpaceOnUse">
<stop stop-color="#4F4F4F" offset="0"/>
<stop stop-color="#F5F5F5" offset="1"/>
</linearGradient>
<linearGradient id="b" x1="52.15" x2="52.15" y1="60.35" y2="73.65" gradientUnits="userSpaceOnUse">
<stop stop-color="#626262" offset="0"/>
<stop stop-color="#fff" offset="1"/>
</linearGradient>
<linearGradient id="a" x1="47.5" x2="47.5" y1="81.838" y2="67.562" gradientUnits="userSpaceOnUse">
<stop stop-color="#404040" offset="0"/>
<stop stop-color="#1B1B1B" offset="1"/>
</linearGradient>
</defs>
<path d="m92.95 40.3q-0.7-4.25-5.35-5.35h-22.65v-22.45q-1-4.75-5.35-5.35-10.2-1.95-19.6 0-4.25 0.7-5.35 5.35v22.45h-22.15q-4.65 1.1-5.35 5.35-1.95 9.4 0 19.6 0.6 4.35 5.35 5.35h22.15v22.35q1.1 4.65 5.35 5.35 9.4 1.95 19.6 0 4.35-0.6 5.35-5.35v-22.35h22.65q4.75-1 5.35-5.35 1.95-10.2 0-19.6m-7.5 2.15q1.7 7.65 0 15.3h-20.5q-3.1 0-5.3 2.2t-2.2 5.3v20.2q-7.65 1.7-15.3 0v-20.2q0-3.1-2.2-5.3t-5.3-2.2h-20q-1.7-7.65 0-15.3h20q3.1 0 5.3-2.2t2.2-5.3v-20.3q7.65-1.7 15.3 0v20.3q0 3.1 2.2 5.3t5.3 2.2h20.5z" fill="url(#d)"/>
<path d="m85.45 57.75q1.7-7.65 0-15.3h-20.5q-3.1 0-5.3-2.2t-2.2-5.3v-20.3q-7.65-1.7-15.3 0v20.3q0 3.1-2.2 5.3t-5.3 2.2h-20q-1.7 7.65 0 15.3h20q3.1 0 5.3 2.2t2.2 5.3v20.2q7.65 1.7 15.3 0v-20.2q0-3.1 2.2-5.3t5.3-2.2h20.5z" fill="url(#c)"/>
<path d="m64.95 65.25h22.65q4.75-1 5.35-5.35 1.95-10.2 0-19.6-0.7-4.25-5.35-5.35h-22.65v-22.45q-1-4.75-5.35-5.35-10.2-1.95-19.6 0-4.25 0.7-5.35 5.35v22.45h-22.15q-4.65 1.1-5.35 5.35-1.95 9.4 0 19.6 0.6 4.35 5.35 5.35h22.15" fill="none" stroke="#1B1B1B" stroke-linecap="round" stroke-linejoin="round" stroke-width="5"/>
<path d="m64.95 57.75h20.5q1.7-7.65 0-15.3h-20.5q-3.1 0-5.3-2.2t-2.2-5.3v-20.3q-7.65-1.7-15.3 0v20.3q0 3.1-2.2 5.3t-5.3 2.2h-10.9m-1.3 0h-7.8q-1.7 7.65 0 15.3h20" fill="none" stroke="#626262" stroke-linecap="round" stroke-linejoin="round" stroke-width="4"/>
<path d="m34.65 57.75q3.1 0 5.3 2.2t2.2 5.3v20.2q7.65 1.7 15.3 0v-20.2q0-3.1 2.2-5.3t5.3-2.2" fill="none" stroke="url(#b)" stroke-linecap="round" stroke-linejoin="round" stroke-width="4"/>
<path d="m34.65 65.25v22.35q1.1 4.65 5.35 5.35 9.4 1.95 19.6 0 4.35-0.6 5.35-5.35v-22.35" fill="none" stroke="url(#a)" stroke-linecap="round" stroke-linejoin="round" stroke-width="5"/>
</svg>
