<?xml version="1.0" encoding="UTF-8"?>
<svg preserveAspectRatio="none" version="1.1" viewBox="0 0 100 100" xmlns="http://www.w3.org/2000/svg">
<defs>
<linearGradient id="d" x1="26.463" x2="36.738" y1="49.1" y2="49.1" gradientUnits="userSpaceOnUse">
<stop stop-color="#D7D7D7" offset="0"/>
<stop stop-color="#313131" offset="1"/>
</linearGradient>
<linearGradient id="c" x1="43.2" x2="28.6" y1="51.1" y2="51.1" gradientUnits="userSpaceOnUse">
<stop stop-color="#4F4F4F" offset="0"/>
<stop stop-color="#F5F5F5" offset="1"/>
</linearGradient>
<linearGradient id="b" x1="39.75" x2="26.45" y1="52.15" y2="52.15" gradientUnits="userSpaceOnUse">
<stop stop-color="#626262" offset="0"/>
<stop stop-color="#fff" offset="1"/>
</linearGradient>
<linearGradient id="a" x1="18.262" x2="32.538" y1="47.5" y2="47.5" gradientUnits="userSpaceOnUse">
<stop stop-color="#404040" offset="0"/>
<stop stop-color="#1B1B1B" offset="1"/>
</linearGradient>
</defs>
<path d="m92.95 40q-0.7-4.25-5.35-5.35h-22.45v-22.15q-1.1-4.65-5.35-5.35-9.4-1.95-19.6 0-4.35 0.6-5.35 5.35v22.15h-22.35q-4.65 1.1-5.35 5.35-1.95 9.4 0 19.6 0.6 4.35 5.35 5.35h22.35v22.65q1 4.75 5.35 5.35 10.2 1.95 19.6 0 4.25-0.7 5.35-5.35v-22.65h22.45q4.75-1 5.35-5.35 1.95-10.2 0-19.6m-7.5 2.15q1.7 7.65 0 15.3h-20.3q-3.1 0-5.3 2.2t-2.2 5.3v20.5q-7.65 1.7-15.3 0v-20.5q0-3.1-2.2-5.3t-5.3-2.2h-20.2q-1.7-7.65 0-15.3h20.2q3.1 0 5.3-2.2t2.2-5.3v-20q7.65-1.7 15.3 0v20q0 3.1 2.2 5.3t5.3 2.2h20.3z" fill="url(#d)"/>
<path d="m85.45 57.45q1.7-7.65 0-15.3h-20.3q-3.1 0-5.3-2.2t-2.2-5.3v-20q-7.65-1.7-15.3 0v20q0 3.1-2.2 5.3t-5.3 2.2h-20.2q-1.7 7.65 0 15.3h20.2q3.1 0 5.3 2.2t2.2 5.3v20.5q7.65 1.7 15.3 0v-20.5q0-3.1 2.2-5.3t5.3-2.2h20.3z" fill="url(#c)"/>
<path d="m34.85 64.95v22.65q1 4.75 5.35 5.35 10.2 1.95 19.6 0 4.25-0.7 5.35-5.35v-22.65h22.45q4.75-1 5.35-5.35 1.95-10.2 0-19.6-0.7-4.25-5.35-5.35h-22.45v-22.15q-1.1-4.65-5.35-5.35-9.4-1.95-19.6 0-4.35 0.6-5.35 5.35v22.15" fill="none" stroke="#1B1B1B" stroke-linecap="round" stroke-linejoin="round" stroke-width="5"/>
<path d="m42.35 64.95v20.5q7.65 1.7 15.3 0v-20.5q0-3.1 2.2-5.3t5.3-2.2h20.3q1.7-7.65 0-15.3h-20.3q-3.1 0-5.3-2.2t-2.2-5.3v-10.9m0-1.3v-7.8q-7.65-1.7-15.3 0v20" fill="none" stroke="#626262" stroke-linecap="round" stroke-linejoin="round" stroke-width="4"/>
<path d="m42.35 34.65q0 3.1-2.2 5.3t-5.3 2.2h-20.2q-1.7 7.65 0 15.3h20.2q3.1 0 5.3 2.2t2.2 5.3" fill="none" stroke="url(#b)" stroke-linecap="round" stroke-linejoin="round" stroke-width="4"/>
<path d="m34.85 34.65h-22.35q-4.65 1.1-5.35 5.35-1.95 9.4 0 19.6 0.6 4.35 5.35 5.35h22.35" fill="none" stroke="url(#a)" stroke-linecap="round" stroke-linejoin="round" stroke-width="5"/>
</svg>
