<?xml version="1.0" encoding="UTF-8"?>
<svg preserveAspectRatio="none" version="1.1" viewBox="0 0 100 100" xmlns="http://www.w3.org/2000/svg">
<defs>
<linearGradient id="d" x1="51" x2="51" y1="26.463" y2="36.738" gradientUnits="userSpaceOnUse">
<stop stop-color="#D7D7D7" offset="0"/>
<stop stop-color="#313131" offset="1"/>
</linearGradient>
<linearGradient id="c" x1="49" x2="49" y1="43.2" y2="28.6" gradientUnits="userSpaceOnUse">
<stop stop-color="#4F4F4F" offset="0"/>
<stop stop-color="#F5F5F5" offset="1"/>
</linearGradient>
<linearGradient id="b" x1="47.95" x2="47.95" y1="39.75" y2="26.45" gradientUnits="userSpaceOnUse">
<stop stop-color="#626262" offset="0"/>
<stop stop-color="#fff" offset="1"/>
</linearGradient>
<linearGradient id="a" x1="52.6" x2="52.6" y1="18.262" y2="32.538" gradientUnits="userSpaceOnUse">
<stop stop-color="#404040" offset="0"/>
<stop stop-color="#1B1B1B" offset="1"/>
</linearGradient>
</defs>
<path d="m92.95 40.2q-0.6-4.35-5.35-5.35h-22.15v-22.35q-1.1-4.65-5.35-5.35-9.4-1.95-19.6 0-4.35 0.6-5.35 5.35v22.35h-22.65q-4.75 1-5.35 5.35-1.95 10.2 0 19.6 0.7 4.25 5.35 5.35h22.65v22.45q1 4.75 5.35 5.35 10.2 1.95 19.6 0 4.25-0.7 5.35-5.35v-22.45h22.15q4.65-1.1 5.35-5.35 1.95-9.4 0-19.6m-7.5 2.15q1.7 7.65 0 15.3h-20q-3.1 0-5.3 2.2t-2.2 5.3v20.3q-7.65 1.7-15.3 0v-20.3q0-3.1-2.2-5.3t-5.3-2.2h-20.5q-1.7-7.65 0-15.3h20.5q3.1 0 5.3-2.2t2.2-5.3v-20.2q7.65-1.7 15.3 0v20.2q0 3.1 2.2 5.3t5.3 2.2h20z" fill="url(#d)"/>
<path d="m85.45 57.65q1.7-7.65 0-15.3h-20q-3.1 0-5.3-2.2t-2.2-5.3v-20.2q-7.65-1.7-15.3 0v20.2q0 3.1-2.2 5.3t-5.3 2.2h-20.5q-1.7 7.65 0 15.3h20.5q3.1 0 5.3 2.2t2.2 5.3v20.3q7.65 1.7 15.3 0v-20.3q0-3.1 2.2-5.3t5.3-2.2h20z" fill="url(#c)"/>
<path d="m65.45 42.35h20q1.7 7.65 0 15.3h-7.8m-1.3 0h-10.9q-3.1 0-5.3 2.2t-2.2 5.3v20.3q-7.65 1.7-15.3 0v-20.3q0-3.1-2.2-5.3t-5.3-2.2h-20.5q-1.7-7.65 0-15.3h20.5" fill="none" stroke="#626262" stroke-linecap="round" stroke-linejoin="round" stroke-width="4"/>
<path d="m65.45 34.85h22.15q4.75 1 5.35 5.35 1.95 10.2 0 19.6-0.7 4.25-5.35 5.35h-22.15v22.45q-1.1 4.65-5.35 5.35-9.4 1.95-19.6 0-4.35-0.6-5.35-5.35v-22.45h-22.65q-4.65-1.1-5.35-5.35-1.95-9.4 0-19.6 0.6-4.35 5.35-5.35h22.65" fill="none" stroke="#1B1B1B" stroke-linecap="round" stroke-linejoin="round" stroke-width="5"/>
<path d="m35.15 42.35q3.1 0 5.3-2.2t2.2-5.3v-20.2q7.65-1.7 15.3 0v20.2q0 3.1 2.2 5.3t5.3 2.2" fill="none" stroke="url(#b)" stroke-linecap="round" stroke-linejoin="round" stroke-width="4"/>
<path d="m35.15 34.85v-22.35q1-4.75 5.35-5.35 10.2-1.95 19.6 0 4.25 0.7 5.35 5.35v22.35" fill="none" stroke="url(#a)" stroke-linecap="round" stroke-linejoin="round" stroke-width="5"/>
</svg>
