<?xml version="1.0" encoding="UTF-8"?>
<svg version="1.1" viewBox="0 0 100 100" xmlns="http://www.w3.org/2000/svg">
<path d="m89.65 33.85c-1-1-2.05-1.8833-3.15-2.65-3.8-2.6667-8.15-4-13.05-4h-46.9c-6.2667 0.03333-11.617 2.25-16.05 6.65-1.6 1.6-2.9 3.3-3.9 5.1-1.8667 3.2667-2.8 6.95-2.8 11.05s0.93333 7.7833 2.8 11.05c1 1.8333 2.3 3.55 3.9 5.15 4.4333 4.4 9.7833 6.6167 16.05 6.65h46.9c4.9 0 9.25-1.3333 13.05-4 1.1-0.76667 2.15-1.65 3.15-2.65 4.4-4.4667 6.6-9.8667 6.6-16.2 0-6.3-2.2-11.683-6.6-16.15" fill="#313131"/>
<path d="m86.5 38.5q-0.4-0.4-0.75-0.75-5.05-5.1-12.3-5.1h-46.9q-7.15 0-12.2 5.1-5.1 5.05-5.1 12.25 0 7.25 5.1 12.3 5.05 5.1 12.2 5.1h46.9q7.25 0 12.3-5.1 0.35-0.35 0.75-0.75 4.35-4.85 4.35-11.55 0-6.65-4.35-11.5z" fill="#4f4f4f"/>
<path d="m73.45 27.2q7.35 0 13.05 4 1.65 1.15 3.15 2.65 6.6 6.7 6.6 16.15 0 9.5-6.6 16.2-1.5 1.5-3.15 2.65-5.7 4-13.05 4m-0.05 0h-46.85q-9.4-0.05-16.05-6.65-2.4-2.4-3.9-5.15-2.8-4.9-2.8-11.05t2.8-11.05q1.5-2.7 3.9-5.1 6.65-6.6 16.05-6.65h46.85" fill="none" stroke="#1b1b1b" stroke-linecap="round" stroke-linejoin="round" stroke-width="5"/>
<path d="m73.45 32.65q7.25 0 12.3 5.1 0.35 0.35 0.75 0.75 4.35 4.85 4.35 11.5 0 6.7-4.35 11.55-0.4 0.4-0.75 0.75-5.05 5.1-12.3 5.1h-46.9q-7.15 0-12.2-5.1-5.1-5.05-5.1-12.3 0-7.2 5.1-12.25 5.05-5.1 12.2-5.1z" fill="none" stroke="#626262" stroke-linecap="round" stroke-linejoin="round" stroke-width="4"/>
<path d="m23.211 43.121c-0.94667 0-1.8211 0.17167-2.6211 0.51367-0.8 0.32933-1.4399 0.82376-1.9199 1.4824-0.46667 0.646-0.69922 1.4445-0.69922 2.3945 0 0.684 0.13372 1.253 0.40039 1.709 0.28 0.456 0.69977 0.84349 1.2598 1.1602 0.57333 0.31667 1.2935 0.60018 2.1602 0.85352 0.66667 0.19 1.2531 0.36167 1.7598 0.51367 0.52 0.152 0.92542 0.32367 1.2188 0.51367 0.30667 0.19 0.46094 0.45488 0.46094 0.79688 0 0.31667-0.14612 0.56485-0.43945 0.74219-0.28 0.17733-0.71412 0.26562-1.3008 0.26562-0.54667 0-1.0858-0.06965-1.6191-0.20898-0.53333-0.13933-1.0209-0.29728-1.4609-0.47461-0.42667-0.19-0.78674-0.36854-1.0801-0.5332-0.29333-0.17733-0.4662-0.298-0.51953-0.36133l-1.4395 2.7168c0.56 0.35467 1.1732 0.65878 1.8398 0.91211 0.66667 0.24067 1.3601 0.43098 2.0801 0.57031 0.73333 0.12667 1.4453 0.19141 2.1387 0.19141 0.68 0 1.3405-0.06965 1.9805-0.20898 0.64-0.152 1.2078-0.38646 1.7012-0.70312 0.50667-0.32933 0.90589-0.7541 1.1992-1.2734 0.29333-0.532 0.43945-1.1775 0.43945-1.9375 0-0.836-0.17906-1.509-0.53906-2.0156-0.34667-0.50667-0.85482-0.91771-1.5215-1.2344-0.66667-0.32933-1.4527-0.60794-2.3594-0.83594-0.64-0.17733-1.1791-0.32841-1.6191-0.45508-0.44-0.13933-0.78148-0.29923-1.0215-0.47656-0.22667-0.17733-0.33984-0.4167-0.33984-0.7207 0-0.38 0.15427-0.6586 0.46094-0.83594 0.30667-0.19 0.74078-0.28516 1.3008-0.28516 0.42667 0 0.85263 0.05592 1.2793 0.16992s0.81969 0.24839 1.1797 0.40039c0.36 0.152 0.66039 0.29621 0.90039 0.43555 0.24 0.12667 0.37992 0.22182 0.41992 0.28516l1.4395-2.584c-0.42667-0.228-0.91232-0.45559-1.459-0.68359-0.53333-0.228-1.1136-0.41831-1.7402-0.57031-0.61333-0.152-1.2533-0.22852-1.9199-0.22852zm5.8398 0.11523v2.7363h4.3398v10.754h3.2793v-10.754h4.3203v-2.7363zm13.139 0v13.49h9.9805v-2.7363h-6.6992v-2.8691h5.5996v-2.5273h-5.5996v-2.6211h6.5195v-2.7363zm15.762 0-4.9004 13.49h3.3594l1.0801-3.0215h4.4199l1.0996 3.0215h3.3613l-4.8809-13.49zm9.3184 0v13.49h3.2812v-8.0371l3.0605 5.8516h1.7988l3.0605-5.8516v8.0371h3.2793v-13.49h-3.5391l-3.7012 7.0488-3.6797-7.0488zm-7.5586 3.1348 1.6602 5.1875h-3.3613z" fill="#d7d7d7" stroke-width=".97468"/>
</svg>
