<?xml version="1.0" encoding="UTF-8"?>
<svg version="1.1" viewBox="0 0 100 100" xmlns="http://www.w3.org/2000/svg">
<path d="m7.3454 63.25c-1.5667-6.0333 0.76667-12.117 7-18.25 8.4667-8.2333 18.15-15.917 29.05-23.05 4.8667-3.1 8.7-3.55 11.5-1.35 1.3333 1.5333 3.55 2.7 6.65 3.5 3.7667 0.9 8.8667 0.9 15.3 0 4.7333 0.23333 8.2 2.4833 10.4 6.75 2.2667 5.3333 4.0833 10.9 5.45 16.7 1.3667 6.7-0.66667 11.533-6.1 14.5-13.967 7.7-33.217 14.55-57.75 20.55-10.5 1.8333-17.667-4.6167-21.5-19.35" fill="#313131"/>
<path d="m18.845 71.85c-2.8394-3.7911-4.662-8.4829-4.85-13.225 0.37293-3.976 3.3986-7.0134 5.975-9.7883 4.4048-4.0076 8.7543-8.0766 13.5-11.688 2.8416-1.9569 5.289-4.6767 8.6228-5.7981 3.345-1.1297 6.4084 1.0362 8.7764 3.1336 5.4215 3.8099 12.256 4.1703 18.664 4.0153 3.2343 0.077 6.4964-0.17026 9.7036 0.15643 3.5195 0.75491 5.1404 4.2548 5.7241 7.4717 0.88476 3.0609 1.7886 7.123-0.98359 9.5117-2.294 2.1862-5.4993 2.9671-8.1897 4.553-6.2564 2.9388-12.702 5.4477-19.22 7.7353-8.6292 2.8427-17.327 5.4938-26.172 7.5719-4.1139 1.5166-9.1034 0.0525-11.55-3.65z" fill="#4f4f4f"/>
<path d="m38.945 32.975c-6.3395 4.6583-12.4 9.6803-18.112 15.089-2.7191 2.5285-5.4017 5.4451-6.5875 9.0361-0.80338 3.7835 0.80714 7.6059 2.2875 11.025 1.7806 3.6664 4.6831 7.4299 9.0406 7.8602 3.3437 0.50549 6.476-1.1615 9.7166-1.6836 8.0863-2.1648 16.129-4.5356 24.011-7.3611 7.3561-2.5925 14.536-5.6748 21.491-9.206 2.818-1.0823 5.4228-3.7088 5.0406-6.9469-0.26058-3.0693-1.1412-6.1458-2.3194-8.9636-1.5754-2.707-4.8177-3.7492-7.7906-3.3239-6.8019-0.17754-13.814 0.72951-20.346-1.6841-2.9899-0.8852-5.2764-3.0288-7.7778-4.7478-2.7346-1.704-6.236-1.0134-8.654 0.90693z" fill="none" stroke="#626262" stroke-linecap="round" stroke-linejoin="round" stroke-width="4"/>
<path d="m54.895 20.6q-4.2-3.3-11.5 1.35-16.35 10.7-29.05 23.05-9.35 9.2-7 18.25 5.75 22.1 21.5 19.35 36.8-9 57.75-20.55 8.15-4.45 6.1-14.5-2.05-8.7-5.45-16.7-3.3-6.4-10.4-6.75-9.65 1.35-15.3 0-4.65-1.2-6.65-3.5z" fill="none" stroke="#1b1b1b" stroke-linecap="round" stroke-linejoin="round" stroke-width="5"/>
<path d="m42.365 48.561-2.502 0.86133-3.3672 5.291 2.0996 1.3262 1.1953-1.8984c0.14272-0.22541 0.38139-0.67774 0.71289-1.3574l0.46484 1.5137 0.44336 1.3789 2.8672 8.332 3.0449-1.0469zm-15.426 5.3984-3.3086 1.1387 4.9316 14.322 10.248-3.5293-1.0019-2.9043-6.9375 2.3907z" fill="#d7d7d7"/>
</svg>
