<?xml version="1.0" encoding="UTF-8"?>
<svg version="1.1" viewBox="0 0 100 100" xml:space="preserve" xmlns="http://www.w3.org/2000/svg"><defs><radialGradient id="a" cx="0" cy="0" r="32.537" gradientTransform="translate(50,50.05)" gradientUnits="userSpaceOnUse"><stop stop-color="#4F4F4F" offset=".83137"/><stop stop-color="#1B1B1B" offset=".97647"/></radialGradient></defs><circle cx="50" cy="50" r="42.102" fill="#272727" stroke-width="2" style="paint-order:markers fill stroke"/><ellipse cx="50" cy="50" rx="34" ry="33.95" fill="#3c3c3c" stroke-width="2" style="paint-order:markers fill stroke"/><path d="m84 52.75q0.1-1.3541 0.1-2.75 0-1.3691-0.1-2.7h-3.7q-0.3-3.15-1.15-6.05l3.45-1.45q-0.7666-2.598-2-5.05l-3.5 1.5q-1.6-3-3.75-5.6l2.65-2.65q-0.89512-1.05-1.9-2.05-0.94316-0.95273-1.95-1.85l-2.65 2.75q-2.45-2.15-5.2-3.55l1.5-3.6q-2.4-1.2535-5-2.1l-1.5 3.6q-3.15-1-6.55-1.25v-3.9q-1.3539-0.1-2.75-0.1-1.3693 0-2.7 0.1v3.9q-3.2 0.25-6.05 1.1l-1.45-3.65q-2.6287 0.82812-5.1 2.05l1.5 3.65q-2.95 1.5-5.5 3.8l-2.8-2.8q-0.98848 0.88379-1.95 1.85-0.99199 0.98691-1.9 2l2.8 2.8q-2.15 2.4-3.5 5.05l-3.65-1.55q-1.2582 2.4188-2.1 5l3.65 1.55q-1.05 3.1-1.3 6.5h-3.9q-0.1 1.3307-0.1 2.7 0 1.3959 0.1 2.75h3.9q0.2 3.15 1.1 6.15l-3.6 1.45q0.7998 2.5959 2 5l3.6-1.45q1.5 2.95 3.8 5.65l-2.7 2.6q0.85 1.0096 1.8 1.95 0.99492 1 2 1.9l2.75-2.6q2.35 2 5 3.45l-1.45 3.45q2.4062 1.3068 5 2.15l1.45-3.5q3.15 1 6.6 1.35v3.7q1.3305 0.1 2.7 0.1 1.3955 0 2.75-0.1v-3.7q3.2-0.3 6.15-1.15l1.4 3.45q2.6193-0.79492 5-2.05l-1.35-3.4q2.9-1.6 5.6-3.7l2.55 2.55q1.0158-0.90586 2-1.9 0.96816-0.9584 1.85-1.95l-2.55-2.55q2-2.5 3.55-5.15l3.35 1.4q1.3047-2.4133 2.15-5l-3.45-1.4q0.95-3.2 1.3-6.7h3.7m-33.95-28.6q0.95 0 1.9 0.05 3.4 0.25 6.6 1.25h-0.05q1.7 0.6 3.3 1.45 2.8 1.35 5.25 3.5v0.05q0.7 0.6 1.4 1.35 0.65 0.55 1.3 1.3 0 0.05 0.05 0.05 2.2 2.55 3.7 5.45h-0.05q0.8 1.65 1.4 3.55v-0.05q0.9 2.8 1.1 6 0.05 0.95 0.05 1.95 0 0.95-0.05 1.95-0.25 3.4-1.25 6.5-0.5832 1.7494-1.4 3.5-0.02715 0.04863-0.05 0.1-1.4375 2.5449-3.4 4.9l-0.05 0.05q-0.7 0.7-1.35 1.4-0.75 0.7-1.45 1.4-0.05 0-0.05 0.05-2.5 2.1-5.35 3.55-0.05 0-0.05 0.05-1.7 0.75-3.5 1.35-2.85 0.9-6 1.1-1 0.05-2 0.05t-1.9-0.05q-3.5-0.25-6.6-1.3-1.75-0.6-3.35-1.4l0.05 0.05q-2.7-1.45-5.1-3.5v-0.05q-0.7-0.65-1.35-1.3-0.7-0.65-1.25-1.35-0.1 0-0.1-0.05-2.3-2.6-3.8-5.55-0.75-1.7-1.25-3.3l-0.05-0.05q-0.9-3-1.15-6.2-0.05-0.95-0.05-1.9t0.05-1.85q0.3-3.5 1.35-6.6 0.5-1.65 1.4-3.25v-0.05q1.35-2.75 3.65-5.25 0-0.1 0.05-0.1 0.55-0.65 1.15-1.15 0.5-0.6 1.1-1.1 0-0.05 0.05-0.05 2.7-2.45 5.75-3.95 1.55-0.8 3.3-1.35h0.05q2.85-0.9 6.15-1.15 0.85-0.05 1.85-0.05z" fill="url(#a)"/><circle cx="50" cy="50" r="26" fill="#313131" stroke-width="2" style="paint-order:markers fill stroke"/><circle cx="50.025" cy="50.025" r="22.675" fill="#4f4f4f" stroke-width="2" style="paint-order:markers fill stroke"/><path d="m82.625 39.8q1.101 3.5832 1.375 7.5 0.1 1.3309 0.1 2.7 0 1.3959-0.1 2.75-0.30039 4.2465-1.55 8.1-0.84531 2.5867-2.125 5-1.773 3.323-4.375 6.3-0.88184 0.9916-1.85 1.95-0.98418 0.99414-2 1.9-3.1891 2.7582-6.775 4.575-2.4057 1.2301-5 2.025-3.6121 1.118-7.575 1.4-1.3545 0.1-2.75 0.1-1.3695 0-2.7-0.1-4.227-0.29629-8.05-1.55-2.5938-0.84316-5-2.125-3.3061-1.7549-6.275-4.325-1.0301-0.9-2.025-1.9-0.95-0.94043-1.8-1.925-2.8148-3.2006-4.675-6.825-1.2252-2.4041-2.025-5-1.1164-3.6154-1.4-7.6-0.1-1.3541-0.1-2.75 0-1.3693 0.1-2.7 0.29727-4.2191 1.55-8.05 0.8418-2.5812 2.125-4.975 1.757-3.325 4.35-6.3 0.88301-1.0381 1.875-2.025 0.96152-0.96621 1.95-1.85 3.2205-2.7896 6.825-4.625 2.4463-1.2469 5.075-2.05 3.5809-1.0988 7.5-1.375 1.3307-0.1 2.7-0.1 1.3961 0 2.75 0.1 4.2359 0.30137 8.075 1.55 2.575 0.84648 4.975 2.125 3.3713 1.7789 6.375 4.4 0.98184 0.87227 1.925 1.825 1.0049 1 1.9 2.05 2.775 3.192 4.6 6.775 1.2334 2.427 2.025 5.025z" fill="none" stroke="#1b1b1b" stroke-linecap="round" stroke-linejoin="round" stroke-width="4"/><path d="m50 7.8q17.5 0 29.85 12.35t12.35 29.85-12.35 29.85-29.85 12.35-29.85-12.35-12.35-29.85 12.35-29.85 29.85-12.35z" fill="none" stroke="#151515" stroke-linecap="round" stroke-linejoin="round" stroke-width="4"/><path d="m49 37.7v19.75h10.1v5.05h-15.55v-24.8h5.45" fill="#d7d7d7"/></svg>
