<?xml version="1.0" encoding="UTF-8"?>
<svg version="1.1" viewBox="0 0 100 100" xmlns="http://www.w3.org/2000/svg">
<defs>
<linearGradient id="a" x1="49.9" x2="49.9" y1="59.338" y2="53.062" gradientUnits="userSpaceOnUse">
<stop stop-color="#4F4F4F" offset="0"/>
<stop stop-color="#313131" offset="1"/>
</linearGradient>
</defs>
<path d="m50.1 17.15 10.5-10.5h-21z" fill="#d7d7d7"/>
<path d="m17.65 79.1c-0.19128 4.4905 3.1754 8.2238 10.1 11.2 6.153 2.731 13.57 4.0977 22.25 4.1 8.6803-0.0023 16.097-1.369 22.25-4.1 6.9246-2.9762 10.291-6.7095 10.1-11.2 0.28526-6.8219-8.0378-10.636-12.35-12.15l-40-0.05c-6.4308 2.4638-12.603 6.1555-12.35 12.2z" fill="#1b1b1b"/>
<path d="m29.35 71.5v-0.05q-7.4262 3.283-7.7 7.65 0.27871 4.3607 7.7 7.55 8.5707 3.7533 20.65 3.75 12.079 0.0033 20.65-3.75 7.4213-3.1893 7.7-7.55-0.27109-4.324-7.55-7.55-0.14121-0.04551-0.3-0.1-0.55254-0.24277-1.15-0.5v5.35q0 2.8-5.65 4.75-5.7 2-13.75 2t-13.8-2q-5.6-1.95-5.45-4.75v-5.4q-0.68574 0.30684-1.35 0.6z" fill="#272727"/>
<path d="m90.95 43.35c-0.76667-4.5333-2.1333-9.3667-4.1-14.5-1-2.5667-3.1167-4.05-6.35-4.45-20.516-2.9861-40.832-2.9861-60.95 0-3.2333 0.4-5.35 1.8833-6.35 4.45-1.9667 5.1333-3.3333 9.9667-4.1 14.5-0.56667 3.3 0.85 5.35 4.25 6.15 3.7667 0.93333 7.5667 2.1333 11.4 3.6 3.8333 1.4333 5.8167 3.9167 5.95 7.45v15.75c-0.1 1.8667 1.7167 3.45 5.45 4.75 3.8333 1.3333 8.4333 2 13.8 2s9.95-0.66667 13.75-2c3.7667-1.3 5.65-2.8833 5.65-4.75v-15.75c0.11823-3.5401 2.1016-6.0234 5.95-7.45 3.8333-1.4667 7.6333-2.6667 11.4-3.6 3.4-0.8 4.8167-2.85 4.25-6.15" fill="url(#a)"/>
<path d="m70.85 55.85q0.55-1.9 2.45-4.05-7.5 2.5-15.25 3.2-0.55 0.55 0 1 8.7 1.5 12.8-0.15m-44.15-4.05q1.9 2.15 2.45 4.05 4.1 1.65 12.8 0.15 0.55-0.45 0-1-7.75-0.7-15.25-3.2z" fill="#151515"/>
<path d="m81.6 29.85q-0.05-0.1-0.1-0.15-1.1-1.4-9.1-2.4-9.35-1.2-22.55-1.2-13.15 0-22.55 1.2-7.95 1-8.85 2.4-0.15 0.2-0.1 0.45-0.25 1.65 8.95 2.85 9.4 1.2 22.55 1.2 13.2 0 22.55-1.2 9.25-1.2 9.25-2.85v-0.15q0-0.1-0.05-0.15z" fill="#4f4f4f"/>
<path d="m30.7 66.8v-6.25q-0.2-5.3-5.95-7.45-5.75-2.2-11.4-3.6-5.1-1.2-4.25-6.15 1.15-6.8 4.1-14.5 1.5-3.85 6.35-4.45 30.176-4.4791 60.95 0 4.85 0.6 6.35 4.45 2.95 7.7 4.1 14.5 0.85 4.95-4.25 6.15-5.65 1.4-11.4 3.6-5.7727 2.1398-5.95 7.45v6.3m-38.65 4.075v5.375q-0.15 2.8 5.45 4.75 5.75 2 13.8 2t13.75-2q5.65-1.95 5.65-4.75v-9.45m-38.65-0.05v4.125" fill="none" stroke="#151515" stroke-linecap="round" stroke-linejoin="round" stroke-width="4"/>
<path d="m18.35 30.15q-0.25 1.65 8.95 2.85 9.4 1.2 22.55 1.2 13.2 0 22.55-1.2 9.25-1.2 9.25-2.85" fill="none" stroke="#6c6c6c" stroke-linecap="round" stroke-linejoin="round" stroke-width="3"/>
<path d="m49.25 50.35h-4.9v22.3h14v-4.55h-9.1z" fill="#d7d7d7"/>
</svg>
