<svg width="100px" height="100px" preserveAspectRatio="none" version="1.1" viewBox="0 0 100 100" xmlns="http://www.w3.org/2000/svg">
 <path d="m89.65 33.85c-1-1-2.05-1.8833-3.15-2.65-3.8-2.6667-8.15-4-13.05-4h-46.9c-6.2667 0.03333-11.617 2.25-16.05 6.65-1.6 1.6-2.9 3.3-3.9 5.1-1.8667 3.2667-2.8 6.95-2.8 11.05s0.93333 7.7833 2.8 11.05c1 1.8333 2.3 3.55 3.9 5.15 4.4333 4.4 9.7833 6.6167 16.05 6.65h46.9c4.9 0 9.25-1.3333 13.05-4 1.1-0.76667 2.15-1.65 3.15-2.65 4.4-4.4667 6.6-9.8667 6.6-16.2 0-6.3-2.2-11.683-6.6-16.15" fill="#313131"/>
 <path d="m86.5 38.5q-0.4-0.4-0.75-0.75-5.05-5.1-12.3-5.1h-46.9q-7.15 0-12.2 5.1-5.1 5.05-5.1 12.25 0 7.25 5.1 12.3 5.05 5.1 12.2 5.1h46.9q7.25 0 12.3-5.1 0.35-0.35 0.75-0.75 4.35-4.85 4.35-11.55 0-6.65-4.35-11.5z" fill="#4f4f4f"/>
 <path d="m73.45 27.2q7.35 0 13.05 4 1.65 1.15 3.15 2.65 6.6 6.7 6.6 16.15 0 9.5-6.6 16.2-1.5 1.5-3.15 2.65-5.7 4-13.05 4m-0.05 0h-46.85q-9.4-0.05-16.05-6.65-2.4-2.4-3.9-5.15-2.8-4.9-2.8-11.05t2.8-11.05q1.5-2.7 3.9-5.1 6.65-6.6 16.05-6.65h46.85" fill="none" stroke="#1b1b1b" stroke-linecap="round" stroke-linejoin="round" stroke-width="5"/>
 <path d="m73.45 32.65q7.25 0 12.3 5.1 0.35 0.35 0.75 0.75 4.35 4.85 4.35 11.5 0 6.7-4.35 11.55-0.4 0.4-0.75 0.75-5.05 5.1-12.3 5.1h-46.9q-7.15 0-12.2-5.1-5.1-5.05-5.1-12.3 0-7.2 5.1-12.25 5.05-5.1 12.2-5.1z" fill="none" stroke="#626262" stroke-linecap="round" stroke-linejoin="round" stroke-width="4"/>
 <path d="m39.15 46.95q-1.25-1.25-3.05-1.25t-3.05 1.25-1.25 3.05 1.25 3.05 3.05 1.25 3.05-1.25 1.25-3.05-1.25-3.05m27.75 0q-1.25-1.25-3.05-1.25t-3.05 1.25-1.25 3.05 1.25 3.05 3.05 1.25 3.05-1.25 1.25-3.05-1.25-3.05m-13.9 0q-1.25-1.25-3.05-1.25t-3.05 1.25-1.25 3.05 1.25 3.05 3.05 1.25 3.05-1.25 1.25-3.05-1.25-3.05z" fill="#D7D7D7"/>
</svg>
