<?xml version="1.0" encoding="UTF-8"?>
<svg version="1.1" viewBox="0 0 100 100" xmlns="http://www.w3.org/2000/svg">
<path d="m10.872 71.75v-51.15c0.4576-4.4779 3.995-8.6445 8.7039-8.6874 5.3273-0.49205 10.067 2.4363 15.195 3.3329 11.487 2.6503 23.3 3.9197 35.088 3.6545 4.4951 0.20258 9.2497-0.75669 13.399 1.4977 4.3392 1.9031 6.2021 6.8887 5.8124 11.369 0.25183 16.476 0.18353 32.98-0.81394 49.428-0.3186 4.3149-3.9646 7.8756-8.2875 8.0844-19.807 1.1738-39.831-0.80529-59.01-5.896-5.2851-1.4801-10.279-5.7118-10.086-11.633zm6-48.1v48c0.7034 4.9058 6.2033 6.2847 10.318 7.1283 10.765 2.4864 21.752 4.014 32.782 4.6217 2.1711 0.457 5.4685-0.08577 8.0536 0.18542 3.9623-0.09372 7.9973 0.1921 11.907-0.48328 4.3668-2.6455 1.9598-8.8878 2.8575-13.151 0.3999-13.566 0.63402-27.17 0.13814-40.725-0.72905-3.5199-4.6028-4.6825-7.7547-4.3264-7.3777-0.06139-14.772 0.29826-22.106-0.69101-10.147-0.95708-20.14-3.1566-29.904-6.0026-3.5837-0.90594-6.676 1.7403-6.2918 5.4436z" fill="#313131"/>
<path d="m16.872 71.65c0.02358-16.268-0.04723-32.539 0.03553-48.806-0.1971-3.8166 3.9241-5.549 7.1145-4.4939 12.541 3.9174 25.646 6.0222 38.755 6.55h15.045c3.1134 0.33377 5.7004 3.1687 5.232 6.3599 0.27632 16.289 0.184 32.603-0.74049 48.867-0.31866 3.0906-3.773 3.4938-6.2432 3.3509-17.738 0.6644-35.576-1.2463-52.764-5.678-2.9413-0.86084-6.0715-2.8261-6.4346-6.1502z" fill="#4f4f4f"/>
<path d="m60.322 24.801c2.0332 0.71615 4.0664 1.4323 6.0996 2.1484-1.3245 0.04515-2.8409-0.01795-3.6961 1.2234-2.8068 3.5777-3.9358 8.1146-5.266 12.381-0.3777 1.8018-0.19518-0.4647-0.23716-1.1046 0.02676-2.707 0.57666-5.3825 0.83293-8.0757 0.22235-1.8816 0.29913-3.8503 1.4389-5.4618 0.24095-0.39465 0.51532-0.76974 0.8278-1.111zm-3.0996 42.398c1.3426 4.4576 2.5056 9.1515 5.2817 12.974 0.75049 1.1716 2.1001 1.5124 3.3996 1.4511 1.1754-0.02743-0.70338 0.38808-1.0588 0.58265-1.5076 0.53138-3.0147 1.0644-4.5229 1.5942-1.5064-1.5619-2.0434-3.7051-2.1719-5.8036-0.2854-2.7837-0.77125-5.5554-0.92768-8.3468v-2.4512z" fill="#626262"/>
<path d="m60.297 24.825c-12.445-0.73814-24.813-2.8843-36.734-6.5312-3.6111-1.2215-7.3219 1.7235-6.6906 5.5539v47.802c0.64897 4.6807 5.8142 6.2374 9.7927 7.0276 10.934 2.5446 22.1 4.1081 33.307 4.7224m1.325 0.05c6.0645 0.1275 12.172 0.3485 18.212-0.22472 4.3361-1.3447 2.5855-6.8165 3.1711-10.184 0.49664-14.587 0.7667-29.214 0.24761-43.793-0.68417-3.3741-4.4184-4.7067-7.5034-4.3484-4.975-0.03383-9.9561 0.0674-14.928-0.05" fill="none" stroke="#626262" stroke-linecap="round" stroke-linejoin="round" stroke-width="4"/>
<path d="m10.872 20.6v51.15q0.15 9.25 12.25 12.25 17.2 4.25 36.15 5.4 10.75 0.4 18.95 0 9.75-0.2 10.2-9.95 1.15-24.8 0.6-50.05-0.65-8.85-10.65-10.5h-16.9q-22.1-1.3-36.4-6.55-12.29-2.5414-14.2 8.25z" fill="none" stroke="#1b1b1b" stroke-linecap="round" stroke-linejoin="round" stroke-width="5"/>
<path d="m50.482 29.15v16.18l9.9941 0.43683v-2.834l-6.5645-0.2858v-13.348zm12.805 0.55901-0.60938 8.2173 1.3613 0.79118c0.29514-0.07566 0.68012-0.1399 1.1523-0.19307 0.47222-0.06055 0.90386-0.08194 1.2949-0.06487 2.1619 0.09437 3.2422 0.95624 3.2422 2.5869 0 1.7118-1.0447 2.5228-3.1328 2.4316-0.69358-0.03027-1.4264-0.15879-2.2012-0.38444-0.77474-0.23303-1.4542-0.51838-2.0371-0.85372v2.9551c1.1068 0.63121 2.561 0.98682 4.3613 1.0654 2.0734 0.09049 3.6671-0.32592 4.7812-1.2512 1.1142-0.92533 1.6699-2.2929 1.6699-4.1007 0-1.5273-0.46484-2.7498-1.3945-3.6684-0.92231-0.91829-2.1643-1.4115-3.7285-1.4798-0.66406-0.02898-1.2218-0.0026-1.6719 0.08111l-0.38672 0.06109 0.29883-3.1634 5.7773 0.25159v-2.8984z" fill="#d7d7d7"/>
</svg>
