<?xml version="1.0" encoding="UTF-8"?>
<svg version="1.1" viewBox="0 0 100 100" xmlns="http://www.w3.org/2000/svg">
<path d="m92.65 63.25c1.5667-6.0333-0.76667-12.117-7-18.25-8.4667-8.2333-18.15-15.917-29.05-23.05-4.8667-3.1-8.7-3.55-11.5-1.35-1.3333 1.5333-3.55 2.7-6.65 3.5-3.7667 0.9-8.8667 0.9-15.3 0-4.7333 0.23333-8.2 2.4833-10.4 6.75-2.2667 5.3333-4.0833 10.9-5.45 16.7-1.3667 6.7 0.66667 11.533 6.1 14.5 13.967 7.7 33.217 14.55 57.75 20.55 10.5 1.8333 17.667-4.6167 21.5-19.35" fill="#313131"/>
<path d="m81.15 71.85c2.8394-3.7911 4.662-8.4829 4.85-13.225-0.37293-3.976-3.3986-7.0134-5.975-9.7883-4.4048-4.0076-8.7543-8.0766-13.5-11.688-2.8416-1.9569-5.289-4.6767-8.6228-5.7981-3.345-1.1297-6.4084 1.0362-8.7764 3.1336-5.4215 3.8099-12.256 4.1703-18.664 4.0153-3.2343 0.077-6.4964-0.17026-9.7036 0.15643-3.5195 0.75491-5.1404 4.2548-5.7241 7.4717-0.88476 3.0609-1.7886 7.123 0.98359 9.5117 2.294 2.1862 5.4993 2.9671 8.1897 4.553 6.2564 2.9388 12.702 5.4477 19.22 7.7353 8.6292 2.8427 17.327 5.4938 26.172 7.5719 4.1139 1.5166 9.1034 0.0525 11.55-3.65z" fill="#4f4f4f"/>
<path d="m61.05 32.975c6.3395 4.6583 12.4 9.6803 18.112 15.089 2.7191 2.5285 5.4017 5.4451 6.5875 9.0361 0.80338 3.7835-0.80714 7.6059-2.2875 11.025-1.7806 3.6664-4.6831 7.4299-9.0406 7.8602-3.3437 0.50549-6.476-1.1615-9.7166-1.6836-8.0863-2.1648-16.129-4.5356-24.011-7.3611-7.3561-2.5925-14.536-5.6748-21.491-9.206-2.818-1.0823-5.4228-3.7088-5.0406-6.9469 0.26058-3.0693 1.1412-6.1458 2.3194-8.9636 1.5754-2.707 4.8177-3.7492 7.7906-3.3239 6.8019-0.17754 13.814 0.72951 20.346-1.6841 2.9899-0.8852 5.2764-3.0288 7.7778-4.7478 2.7346-1.704 6.236-1.0134 8.654 0.90693z" fill="none" stroke="#626262" stroke-linecap="round" stroke-linejoin="round" stroke-width="4"/>
<path d="m45.1 20.6q4.2-3.3 11.5 1.35 16.35 10.7 29.05 23.05 9.35 9.2 7 18.25-5.75 22.1-21.5 19.35-36.8-9-57.75-20.55-8.15-4.45-6.1-14.5 2.05-8.7 5.45-16.7 3.3-6.4 10.4-6.75 9.65 1.35 15.3 0 4.65-1.2 6.65-3.5z" fill="none" stroke="#1b1b1b" stroke-linecap="round" stroke-linejoin="round" stroke-width="5"/>
<path d="m56.344 48.561-4.9316 14.32 3.3086 1.1387 1.5898-4.6191 2.2402 0.77148 1.1523 5.5645 3.6504 1.2559-1.3125-6.4082c0.57671-0.10226 1.1103-0.30118 1.6035-0.59766 0.4978-0.30993 0.93194-0.69468 1.3008-1.1543 0.37348-0.47307 0.6615-1.006 0.86524-1.5977 0.20373-0.59168 0.28514-1.2173 0.24219-1.8789-0.0295-0.65695-0.17416-1.286-0.43359-1.8867-0.25481-0.6142-0.6257-1.157-1.1113-1.625-0.46755-0.47687-1.0366-0.83098-1.709-1.0625zm2.3086 4.043 2.9238 1.0078c0.2555 0.08798 0.46954 0.25016 0.64258 0.49024s0.28402 0.53408 0.33008 0.88086c0.06413 0.33796 0.02881 0.70182-0.10547 1.0918-0.13428 0.38997-0.3203 0.70944-0.55664 0.95898s-0.49223 0.42466-0.76758 0.52539c-0.25727 0.09191-0.52012 0.0926-0.78906-1e-6l-3.0254-1.043zm15.691 2.0664-5.9102 2.0957 0.83594 2.3379 2.1133-0.75976c0.25124-0.08976 0.71681-0.29936 1.3965-0.63086l-0.56445 1.4785-0.50196 1.3594-2.8691 8.332 3.0449 1.0488 4.9571-14.4z" fill="#d7d7d7"/>
</svg>
