<svg width="100" height="100" version="1.1" viewBox="0 0 100 100" xmlns="http://www.w3.org/2000/svg">
 <path d="m84 70.6c-2.3667-15.367-2.3667-30.133 0-44.3 0.6-7.7667-1.7167-12.433-6.95-14h-43.25c-11.367 1.3667-17.35 7.5167-17.95 18.45v6.4c-0.06667 2.6 0 5.1167 0.2 7.55 0.2 2.8 0.63333 5.5333 1.3 8.2 0.03333 0.06667 0.05 0.11667 0.05 0.15 0.66667 2.9 3.05 5.6 7.15 8.1 4.1667 2.4667 7.9333 6.9167 11.3 13.35 0.33333 0.7 0.65 1.4 0.95 2.1 2.3 5.6 6.15 9.6333 11.55 12.1 5.4667 2.2333 11.667 2.8 18.6 1.7 5.3667-0.83333 9.75-2.8167 13.15-5.95 3.4-4.6667 4.7-9.2833 3.9-13.85" fill="#313131"/>
 <path d="m76.8 20.55q-0.75-1.05-3.2-1.85h-29.9q-3.95 0.9-4.65 2.7t-0.5 4.6q0.25 2.8 0.4 7 0.1 3.4 0.55 6.85 0.4 3.35 1.05 6.7t1.5 6.65q1.15 4.55 2.9 9 1.75 4.35 4.25 8.35 1.75 2.8 3.65 5.5 1.5 2.15 3.15 4.15 1.65 1.95 4.15 2.65 2.2 0.75 4.5 0.9 4.5 0.3 8.4-2.05 4.6-2.75 4.5-8.05-0.1-3.4-0.6-6.75-0.5-3.6-0.8-7.2-0.3-3.8-0.45-7.6-0.15-4-0.1-8 0-2.55 0.25-5.05 0.45-4.9 1.05-9.8 0.35-2.8 0.65-5.65 0.2-1.6-0.75-3.05z" fill="#4f4f4f"/>
 <path d="m73.6 18.7h-29.9c-3.2192 0.28328-5.7871 2.9307-5.1934 6.2852 0.46898 6.9217 0.47801 13.902 1.8848 20.727 1.7811 9.7477 4.7919 19.463 10.596 27.612 2.1267 2.9457 3.9365 6.2919 6.875 8.5125 5.7777 3.2301 14.211 2.5577 18.313-3.0318 2.339-3.7209 1.0988-8.2807 0.71289-12.356-1.38-11.105-1.8898-22.401-0.41719-33.525 0.29354-3.5032 1.0356-6.9905 1.0672-10.504-0.1887-2.1004-2.1004-3.2097-3.9383-3.7211z" fill="none" stroke="#626262" stroke-linecap="round" stroke-linejoin="round" stroke-width="4"/>
 <path d="m84 26.3q-3.55 21.25 0 44.3 1.2 6.85-3.9 13.85-5.1 4.7-13.15 5.95-10.4 1.65-18.6-1.7-8.1-3.7-11.55-12.1-0.45-1.05-0.95-2.1-5.05-9.65-11.3-13.35-6.15-3.75-7.15-8.1 0-0.05-0.05-0.15-1-4-1.3-8.2-0.3-3.65-0.2-7.55v-6.4q0.9-16.4 17.95-18.45h43.25q7.85 2.35 6.95 14z" fill="none" stroke="#1b1b1b" stroke-linecap="round" stroke-linejoin="round" stroke-width="5"/>
 <path d="m66.119 24.645c-0.72222 0-1.3757 0.07292-1.959 0.21875-0.58333 0.13889-1.1222 0.34158-1.6152 0.60547s-1.1133 0.71463-1.8633 1.3535l1.75 2.0723c0.60416-0.5 1.1827-0.88542 1.7383-1.1562 0.55555-0.27083 1.1285-0.40625 1.7188-0.40625 0.5625 0 1.0104 0.15061 1.3438 0.44922 0.34028 0.29861 0.51172 0.75217 0.51172 1.3633 0 0.40972-0.07769 0.80556-0.23047 1.1875-0.15278 0.38194-0.40278 0.79861-0.75 1.25-0.34722 0.44444-1.0868 1.2465-2.2188 2.4062l-3.8223 3.8652v2.2402h10.646v-2.709h-6.6367v-0.14648l1.959-1.8438c1.3056-1.1944 2.2146-2.1139 2.7285-2.7598 0.52083-0.64583 0.90343-1.2737 1.1465-1.8848 0.25-0.61805 0.375-1.2791 0.375-1.9805 0-0.80555-0.20074-1.5195-0.60352-2.1445-0.40278-0.625-0.97005-1.1118-1.6992-1.459-0.72916-0.34722-1.5681-0.52148-2.5195-0.52148zm-19.094 0.30274v15.146h3.498v-4.8867h2.3691l2.9004 4.8867h3.8613l-3.3281-5.6328c0.512-0.28444 0.95444-0.647 1.3242-1.0879 0.36978-0.45511 0.65245-0.95901 0.85156-1.5137 0.19911-0.56889 0.29883-1.1672 0.29883-1.793s-0.12681-1.2439-0.38281-1.8555c-0.24178-0.61155-0.5845-1.159-1.0254-1.6426-0.44089-0.49778-0.96657-0.88938-1.5781-1.1738-0.59733-0.29867-1.2518-0.44726-1.9629-0.44726zm3.498 3.0723h3.0938c0.27022 0 0.5258 0.08519 0.76758 0.25586 0.24178 0.17067 0.44121 0.41172 0.59766 0.72461 0.17067 0.29867 0.25586 0.65396 0.25586 1.0664 0 0.41244-0.07067 0.775-0.21289 1.0879-0.14222 0.31289-0.32713 0.5612-0.55469 0.74609-0.21333 0.17067-0.46165 0.25781-0.74609 0.25781h-3.2012z" fill="#d7d7d7"/>
</svg>
