<svg width="100px" height="100px" preserveAspectRatio="none" version="1.1" viewBox="0 0 100 100" xmlns="http://www.w3.org/2000/svg">
 <g id="Steam_Deck">
  <g>
   <path d="m84.8 30.8c-1.2-1.2-2.45-2.2667-3.75-3.2-4.5-3.1667-9.6667-4.75-15.5-4.75h-31.15c-7.4667 0.03333-13.833 2.6833-19.1 7.95-1.9 1.8667-3.45 3.8833-4.65 6.05-2.2333 3.9-3.35 8.2833-3.35 13.15s1.1167 9.25 3.35 13.15c1.2 2.1667 2.75 4.2 4.65 6.1 5.2667 5.2667 11.633 7.9167 19.1 7.95h31.15c5.8333 0 11-1.5833 15.5-4.75 1.3-0.93333 2.55-2 3.75-3.2 5.2667-5.3 7.9-11.717 7.9-19.25 0-7.5-2.6333-13.9-7.9-19.2" fill="#313131"/>
   <path d="m81.05 63.75c3.4667-3.8333 5.2-8.4167 5.2-13.75 0-5.3-1.7333-9.8667-5.2-13.7-0.3-0.3-0.58333-0.6-0.85-0.9-4.0333-4.0333-8.9167-6.05-14.65-6.05h-31.15c-5.6667 0-10.517 2.0167-14.55 6.05s-6.05 8.9-6.05 14.6c0 5.7333 2.0167 10.617 6.05 14.65s8.8833 6.05 14.55 6.05h31.15c5.7333 0 10.617-2.0167 14.65-6.05 0.26667-0.3 0.55-0.6 0.85-0.9" fill="#4f4f4f"/>
  </g>
  <path d="m65.55 22.85q8.75 0 15.5 4.75 1.95 1.4 3.75 3.2 7.9 7.95 7.9 19.2 0 11.3-7.9 19.25-1.8 1.8-3.75 3.2-6.75 4.75-15.5 4.75m-0.1 0h-31.05q-11.2-0.05-19.1-7.95-2.85-2.85-4.65-6.1-3.35-5.85-3.35-13.15t3.35-13.15q1.8-3.25 4.65-6.05 7.9-7.9 19.1-7.95h31.05" fill="none" stroke="#1B1B1B" stroke-linecap="round" stroke-linejoin="round" stroke-width="5"/>
  <path d="m65.45 29.35q0.05 0 0.1 0 8.6 0 14.65 6.05 0.4 0.45 0.85 0.9 5.2 5.75 5.2 13.7 0 8-5.2 13.75-0.45 0.45-0.85 0.9-6.05 6.05-14.65 6.05-0.05 0-0.1 0h-31.05q-8.5 0-14.55-6.05t-6.05-14.65q0-8.55 6.05-14.6t14.55-6.05h31.05z" fill="none" stroke="#626262" stroke-linecap="round" stroke-linejoin="round" stroke-width="4"/>
  <path d="m60.95 59.3h-21.85m21.85-9.4h-21.85m21.85-9.2h-21.85" fill="none" stroke="#D7D7D7" stroke-linecap="square" stroke-linejoin="round" stroke-width="6"/>
 </g>
</svg>
