<?xml version="1.0" encoding="UTF-8"?>
<svg viewBox="0 0 64 64" xmlns="http://www.w3.org/2000/svg">
<path d="m56 32q0 9.65-6.55 16.45l-0.5 0.5q-6.95 7.05-16.95 7.05-9.95 0-17-7.05l-0.5-0.5q-6.5-6.8-6.5-16.45 0-9.95 7-17l0.95-0.9q6.75-6.1 16.05-6.1 9.35 0 16 6.1l0.95 0.9q7.05 7.05 7.05 17m-35.4-1.45q-0.6 0.55-0.6 1.4v1.2q0 0.8 0.6 1.4 0.55 0.55 1.4 0.55h2v6.05q0.05 0.8 0.6 1.35 0.55 0.5 1.4 0.5h12q0.85 0 1.45-0.5l0.55-1.35v-6.05h2q0.85 0 1.45-0.55 0.55-0.6 0.55-1.4v-1.2q0-0.85-0.55-1.4l-10-9.95q-0.6-0.6-1.45-0.6t-1.4 0.6l-10 9.95m8.4 7.45v-6.05h6v6.05h-6" fill="#fff"/>
</svg>
